M48
;Layer_Color=9474304
;FILE_FORMAT=2:5
INCH,LZ
;TYPE=PLATED
T1F00S00C0.01200
T2F00S00C0.01811
T4F00S00C0.04331
T5F00S00C0.12205
;TYPE=NON_PLATED
T6F00S00C0.02559
%
T01
X109436Y0615797
X1099782Y0615836
X1105547Y0615945
X1110981Y0615673
X111622Y0615828
X1123303Y0615936
X1127088Y0615897
X1130061Y0616013
X1132494Y0616051
X1137545Y0615172
X1143614
X1151766
X1158817
X116673Y0615201
X1173507
X1180758Y0616852
X11858Y0623537
X1174249Y0623386
X1170791Y0622791
X1161467Y062223
X1151102Y0622303
X1147054Y0624257
X1142129Y0622255
X1129927Y0622062
X1213632Y0621246
X1215933Y0615847
X1221506Y0613372
X1227348Y0615957
X122938Y0621246
X1091203Y0620202
X1089686Y0615675
X108412Y0615714
X1084272Y0620606
X1079774Y0623214
X1078788Y0615988
X1072798Y0616303
X1068055Y061605
X1068006Y0618707
X1065099Y0615914
X1062145Y0614951
X1056671Y0614178
X1052163Y0616931
X1049075Y0615388
X1044557Y0613669
X1042292Y0617335
X1037421Y0614311
X1032792Y0613842
X1025422Y0616181
X1014579Y0616272
X1010317Y0613701
X1002924Y0616315
X0991739Y0614305
X0973475Y0618293
X0951821Y0621246
X0949789Y0615957
X0943947Y0613372
X0938374Y0615847
X1087741Y0624699
X0936073Y0621246
Y0717702
X0938042Y0722624
X0943947Y0725576
X0949403Y0723333
X0951821Y0717702
X0949789Y0712414
X0949641Y070509
X0949206Y0700135
X0946093Y0700278
X0941722Y0700844
X0944799Y0704306
X0943947Y0709828
X0938374Y0712304
X0941595Y0692706
X0946147Y0693077
X0949685Y0693002
X0954378Y0691725
X0954457Y0694367
X0953499Y0697074
X0957942Y0699989
X0958138Y0704993
X0967112Y0704876
X0967901Y070019
X0963688Y0699947
X0960746Y0697476
X0965378Y069507
X096722Y0694995
Y0693153
X0965228Y0693103
Y0690837
X0967469Y0690862
X0961083Y0687555
X0960616Y0684875
X0960599Y0682212
X0960811Y0676002
X0965243Y0675975
X0963581Y0667844
X0970545Y0670072
X0973703Y0668811
X0975297Y0660638
X0972094Y0657206
X0970665Y0652701
X0976029Y0652972
X0982043Y0652917
X0985255Y0652863
X0987254Y0650773
X0983546Y0648377
X0989883Y0645162
X0985089Y0639376
X0981939
X0977463Y0644155
X0979993Y0657137
X0984154Y0661708
X0990553Y0661947
X0990452Y0664733
X0993593Y0664483
Y0669879
X0993642Y0674687
X0987198Y0675968
X0988511Y0679075
X098508Y0678723
X0981952Y0678338
X0973457Y0678788
X0988511Y06836
X098884Y0686921
X0988694Y0691665
X0988915Y0695896
X0988888Y070019
X0984404Y0700488
X0985145Y0705037
X0989987Y0703878
X0993669Y0696488
X0993624Y0689684
X0999409Y0689545
X0999235Y068658
X0999072Y0683911
X0993414Y0683542
X0998277Y0678301
X1001202Y0675194
X1005029Y0676009
X1007564Y0671444
X1005729Y0669567
X1003002Y0670458
X1009747Y0667515
X1009892Y0663568
X1009496Y0660438
X1011847Y0659157
X1014366Y065996
X1005557Y0659886
X1004971Y0650773
Y0644868
X1008908Y0647821
X1012845Y0644868
Y0650773
X1018712Y0650858
X1022754Y0647654
X1024042Y0645245
X1029493Y0643119
X1034336Y0643346
X1043764Y0646221
X1049082Y0646246
X10571Y0646589
X1059656Y0643843
X1061613Y0641824
X1063427Y0643364
X1067919Y0640467
X1068247Y0631382
X1072598Y063366
X1079482Y063634
X1075837Y0642899
Y0646836
X1073283Y0646089
X1073868Y0648805
X1075837Y0650773
X1073868Y0652742
Y0656679
X1075837Y0658647
Y065471
X1067963Y0656679
X1067796Y0662753
X106351Y0661894
X107263Y0662031
X1072033Y0667899
X1068329Y0669472
X1068131Y0675857
X1071872Y0675225
X1074669Y0677379
X107495Y0682517
X1068159Y068208
X1070499Y0688143
X1080916Y0689463
X1086632Y0689496
X1093261Y0689596
X1090867Y0684084
X1092419Y0680768
X1087262Y0682614
X1081764Y0680835
X1081697Y0673997
X1081742Y0666521
X1079774Y0664553
X1078462Y0668124
X1092071Y0669654
X1092594Y0667028
X1092316Y0673784
X1091585Y0658647
Y0652742
Y0646836
Y0640931
X108568
Y0646836
Y0652742
Y0658647
X108707Y0631318
X1091138Y0631145
X109312Y0628873
X1084799Y0629076
X1080026Y0626499
X1061144Y0631299
X1058412Y0630328
X105442Y063115
X1050073Y0630211
X1050077Y062654
X1047192Y0626449
X1047193Y0629367
X104431Y0627615
X1042157Y0631872
X1037584Y063117
X1034695Y0630282
X103491Y0626272
X1032622Y0626223
X1031045Y0628449
X1028432Y0630151
X1025458Y0630044
X1022887Y0629981
X1028531Y0626196
X1037586Y0626713
X1015371Y0634064
X1010876Y0636994
X1017711Y0641027
X1004971Y0631088
X099265Y065566
X0994144Y0659631
X0987234Y0667903
X0987254Y0670458
X1016398Y0671304
X1018141Y066755
X1022687Y0660616
X1020284Y0681595
X1007975Y068074
X1007924Y0683253
X1007998Y0685612
X1006558Y0693913
X1010315Y0698055
X1019211Y0698031
X1019325Y0694026
X1015621Y0691361
X101314Y0707402
X1013278Y0716056
X1004676Y071347
X1001232Y0725347
X0987138Y0725243
X0971897Y0724825
X0956742Y0724592
X0958498Y0689363
X0946013Y0688633
X0941545Y0686437
X0944932Y0682269
X0945837Y0674579
X0941512Y0674841
X0941413Y0668801
X0944808Y0670834
X0946266Y0665877
X0945411Y066237
X0941756Y0661167
X0942552Y0654693
X0943947Y0646836
X094001Y0641915
X0946002Y0634507
X0948146Y0633654
X0949403Y0626876
X0943947Y062912
X0938042Y0626167
X0962109Y0631088
X0963042Y0639376
X0959892
X0964616Y0646836
X096507Y0653002
X0959906Y065296
X0962998Y0657613
X0956349Y0660616
X0950359Y0660456
X0951821Y0658647
X0948898Y0658592
X095161Y0653045
X095338Y064682
X0973573Y0700217
X0978921Y0700433
X0976028Y07047
X1024426Y070723
X1024448Y0716363
X1032991Y0715909
X104486Y0709931
X1043522Y070683
X1041383Y0700308
X1050697Y0700475
X1048773Y0695459
X1049262Y0685222
X1058121
X1060487Y0692357
X1061983Y0700488
X1055501Y0703083
Y0706762
X1052628Y0710035
X1052595Y0723693
X1048754Y0720279
X1044807Y0723693
X1072379Y072353
X1079912Y0723849
X107626Y0717709
X1079848Y0710315
X1072379Y0709932
X1087648Y0711797
X1088731Y071475
X1087648Y0717702
X1029041Y0698052
X1098578Y0689368
X1105567Y068952
X1104634Y0681598
X1108679Y0681581
X1106505Y0677391
X1106606Y0674405
X1102301Y0679323
X111652Y0682152
X1115822Y0689672
X1121747Y0689444
X1127216Y0689596
X1135344Y0689217
X1144499Y0689324
X1155696Y0689352
X1155735Y0681398
X1155505Y0674413
X1160483Y0676364
Y0678332
X1162451
Y0676364
X1166936Y0674227
X1166999Y0679975
X116641Y0683095
X1166359Y0685615
X1165168Y0688861
X1167743Y0690967
X1166113Y0694078
X1166459Y0697042
X1170295Y0694267
X1174436Y069393
X1172979Y0691238
X1174012Y0685502
X1174062Y0682762
X1173343Y0679972
X1170325Y0682269
X1179565Y0683378
X1179751Y0678848
X1180116Y0672963
X1181152Y0664553
Y0660616
X1181227Y0656955
X1185803Y0656395
X1185089Y0650773
X1185393Y064463
X1179519Y0642408
X1178199Y0645852
X1179587Y0634562
X1185654Y0634907
X1169341Y0634041
X1166199Y0630285
X1162565Y0635902
X115753Y063601
X1158007Y0639134
X1158103Y0643239
X1152285Y0642602
X1140668Y0642518
X1138211Y0642145
X1138858Y0644514
X1140724Y0646491
X1140877Y0649141
X1140765Y0653637
X1137845Y065471
X1134352Y0655251
X1134704Y0651399
X1127817Y0651406
X1124942Y0651442
X1126344Y0649609
X1120685Y0651031
X1113598Y0651968
X1111095Y0650956
X1111129Y0648352
X1113727Y0648242
X1112017Y0644485
X1112825Y0642013
X1111859Y0638396
X1112989Y0632888
X1110678Y0631572
X1107629Y063112
X1110011Y0625014
X1117176Y0625183
X1119975Y0625394
X1122239Y0626907
X1122237Y0629446
X112505Y062912
X1126658Y063056
X112837Y0629168
X1128526Y0631963
X1124936Y0632078
X1121026Y0631535
X1118892Y062947
X11167Y0627844
X1118586Y0638536
X1119286Y0641287
X1118451Y064375
X1132178Y0641731
X1134496Y0641634
X113412Y0645011
X1131879Y0646266
X1130895Y0656598
X1128394Y0656734
X1126559Y0661608
X1123877Y0660682
X112141Y0664118
X1115489Y0663258
X1112754Y0662275
X1103396Y0658647
Y0652742
Y0646836
Y0640931
X1097491
Y0646836
Y0652742
X1094538Y0649986
X1097491Y0658647
X1097794Y0633471
X1095207Y0631742
X1133606Y0631961
X113346Y0629363
X1135329Y0630735
X1136876Y0631932
X1137022Y0629392
X1136861Y0625183
X1139593Y0625519
X1140254Y0631001
X1140391Y0633572
X1140529Y0636464
X1134969Y063786
X1135612Y0662429
X1133298Y066237
X1131686Y0664275
X1127995Y0664333
X1129753Y0662224
X1138337Y0661169
X1138161Y0664245
X1138682Y0674022
X1140466Y0677444
X113591Y0676794
X1133747Y0674963
X113225Y0677225
X1128957Y0676688
X1129883Y0674164
X1125898Y0674959
X1122206Y0673956
X1116071Y0674296
X1115241Y0698952
X1118403Y0703001
X1113261Y0704606
X1114178Y0710424
X1122199Y0710362
X1121113Y0716219
X1117976Y0715955
X1110947Y071636
X1105609Y0714904
X1105443Y0711707
X1101428Y0711797
X1100345Y071475
X1101428Y0717702
X1106514Y0719053
X1106926Y0722588
X1114787Y0724278
X1118993Y0724394
X1127185Y0724302
X1125063Y0716335
X113157Y0716317
X1135848Y0715488
X1139842Y0715839
X113315Y0709821
X1132715Y0706199
X1129066Y0705632
X1129971Y0699986
X113585Y0701889
X1139806Y0701956
X1148186Y06814
X1144038Y0675306
X1148183Y0670396
X1154648Y0667693
X1161558Y067058
X1166063Y0662229
X1170403Y0662189
X1171554Y0656011
X116343Y0653522
X1163384Y0650568
X116079Y0657849
X1154074Y0656353
X115064Y0656679
Y0652742
X1166798Y0643239
X1166846Y0639231
X1153101Y0628627
X1174261Y0667326
X1185618Y0668267
X1191032Y0667413
X1191979Y0664553
X1190979Y0671511
X1191979Y0676364
X1185563Y0678391
X1185514Y0685083
X1177998Y0688899
X1177914Y0701189
X1176336Y0705282
X1177953Y0707419
X1173965Y0710128
X1166299Y0710171
X1170142Y0716886
X1173749Y0723564
X1166342Y0723478
X1193823Y0723822
X1201683Y0723985
X1197642Y0716886
X1193758Y0710157
X120152Y0710026
X1208646Y0703612
X1211697Y0703513
X1214551Y0703612
X1215933Y0712304
X1213632Y0717702
X1215601Y0722624
X1221506Y0725576
X1226962Y0723333
X122938Y0717702
X1227348Y0712414
X1221506Y0709828
X1214551Y06918
X1211697Y0691899
X1208829Y069186
X1196274Y0681193
X1196226Y0655946
X1226604Y0655927
Y0660986
X1226771Y06661
X1226642Y068132
X1226544Y0646279
X1226665Y0636188
X1226962Y0626876
X1221506Y062912
X1215601Y0626167
T02
X104876Y0705134
X107626
X1170142Y0705134
X1197642
T04
X0941585Y0678923
X0993554
T05
X1221506Y0621246
X0943947
Y0717702
X1221506
T06
X0961113Y0635163
X0983869
M30
