G04*
G04 #@! TF.GenerationSoftware,Altium Limited,Altium Designer,24.5.2 (23)*
G04*
G04 Layer_Color=3707366*
%FSLAX25Y25*%
%MOIN*%
G70*
G04*
G04 #@! TF.SameCoordinates,8268167A-419A-4E4C-BA15-56D98ABE09BB*
G04*
G04*
G04 #@! TF.FilePolarity,Positive*
G04*
G01*
G75*
%ADD20C,0.00100*%
G36*
X1190463Y694624D02*
X1190753Y694217D01*
X1187010Y675950D01*
X1166905Y679839D01*
X1166638Y680262D01*
X1171036Y697157D01*
X1190463Y694624D01*
D02*
G37*
G36*
X1213555Y692390D02*
X1213865Y691998D01*
X1211057Y672590D01*
X1187973Y675774D01*
X1187685Y676183D01*
X1191520Y694369D01*
X1213555Y692390D01*
D02*
G37*
G36*
X1186502Y675450D02*
X1186775Y675032D01*
X1182321Y655383D01*
X1160951Y659853D01*
X1160695Y660283D01*
X1166325Y679293D01*
X1186502Y675450D01*
D02*
G37*
G36*
X1211039Y671907D02*
X1208074Y650410D01*
X1207666Y650121D01*
X1183317Y655019D01*
X1183045Y655439D01*
X1187532Y675157D01*
X1211039Y671907D01*
D02*
G37*
G36*
X1195903Y651763D02*
X1201721Y625578D01*
X1201409Y625188D01*
X1190981D01*
Y628141D01*
X1194918Y630109D01*
X1190981Y649794D01*
X1186060Y652747D01*
Y653337D01*
X1186447Y653654D01*
X1195903Y651763D01*
D02*
G37*
G36*
X1181963Y635377D02*
X1180400D01*
Y638295D01*
X1178706D01*
Y635377D01*
X1177187D01*
Y642743D01*
X1178706D01*
Y639792D01*
X1180400D01*
Y642743D01*
X1181963D01*
Y635377D01*
D02*
G37*
G36*
X1171601Y637781D02*
X1171590Y637595D01*
X1171569Y637421D01*
X1171536Y637257D01*
X1171492Y637093D01*
X1171383Y636808D01*
X1171317Y636677D01*
X1171252Y636557D01*
X1171197Y636448D01*
X1171131Y636349D01*
X1171077Y636273D01*
X1171022Y636207D01*
X1170978Y636153D01*
X1170946Y636109D01*
X1170924Y636087D01*
X1170913Y636076D01*
X1170782Y635956D01*
X1170640Y635847D01*
X1170497Y635748D01*
X1170355Y635672D01*
X1170213Y635606D01*
X1170071Y635552D01*
X1169809Y635464D01*
X1169689Y635431D01*
X1169579Y635409D01*
X1169481Y635398D01*
X1169394Y635388D01*
X1169328Y635377D01*
X1169230D01*
X1169033Y635388D01*
X1168858Y635409D01*
X1168683Y635442D01*
X1168508Y635486D01*
X1168202Y635595D01*
X1168071Y635650D01*
X1167940Y635715D01*
X1167830Y635781D01*
X1167732Y635836D01*
X1167645Y635901D01*
X1167568Y635945D01*
X1167513Y635989D01*
X1167470Y636022D01*
X1167448Y636043D01*
X1167437Y636054D01*
X1167306Y636186D01*
X1167186Y636328D01*
X1167087Y636470D01*
X1167000Y636612D01*
X1166923Y636754D01*
X1166869Y636896D01*
X1166814Y637027D01*
X1166781Y637158D01*
X1166748Y637279D01*
X1166727Y637399D01*
X1166705Y637497D01*
X1166694Y637584D01*
X1166683Y637650D01*
Y637705D01*
Y637738D01*
Y637748D01*
Y642743D01*
X1168158D01*
Y637748D01*
X1168169Y637606D01*
X1168202Y637486D01*
X1168257Y637377D01*
X1168311Y637279D01*
X1168366Y637202D01*
X1168421Y637147D01*
X1168454Y637114D01*
X1168464Y637104D01*
X1168585Y637016D01*
X1168705Y636962D01*
X1168825Y636918D01*
X1168934Y636885D01*
X1169033Y636863D01*
X1169120Y636852D01*
X1169186D01*
X1169317Y636863D01*
X1169437Y636896D01*
X1169547Y636929D01*
X1169634Y636983D01*
X1169711Y637027D01*
X1169776Y637060D01*
X1169809Y637093D01*
X1169820Y637104D01*
X1169907Y637202D01*
X1169973Y637311D01*
X1170016Y637410D01*
X1170049Y637519D01*
X1170071Y637606D01*
X1170082Y637672D01*
Y637716D01*
Y637738D01*
Y642743D01*
X1171601D01*
Y637781D01*
D02*
G37*
G36*
X1159863D02*
X1159852Y637595D01*
X1159830Y637421D01*
X1159797Y637257D01*
X1159753Y637093D01*
X1159644Y636808D01*
X1159578Y636677D01*
X1159513Y636557D01*
X1159458Y636448D01*
X1159393Y636349D01*
X1159338Y636273D01*
X1159283Y636207D01*
X1159239Y636153D01*
X1159207Y636109D01*
X1159185Y636087D01*
X1159174Y636076D01*
X1159043Y635956D01*
X1158901Y635847D01*
X1158759Y635748D01*
X1158617Y635672D01*
X1158474Y635606D01*
X1158332Y635552D01*
X1158070Y635464D01*
X1157950Y635431D01*
X1157841Y635409D01*
X1157742Y635398D01*
X1157655Y635388D01*
X1157589Y635377D01*
X1157491D01*
X1157294Y635388D01*
X1157119Y635409D01*
X1156944Y635442D01*
X1156769Y635486D01*
X1156463Y635595D01*
X1156332Y635650D01*
X1156201Y635715D01*
X1156092Y635781D01*
X1155993Y635836D01*
X1155906Y635901D01*
X1155829Y635945D01*
X1155775Y635989D01*
X1155731Y636022D01*
X1155709Y636043D01*
X1155698Y636054D01*
X1155567Y636186D01*
X1155447Y636328D01*
X1155348Y636470D01*
X1155261Y636612D01*
X1155184Y636754D01*
X1155130Y636896D01*
X1155075Y637027D01*
X1155042Y637158D01*
X1155010Y637279D01*
X1154988Y637399D01*
X1154966Y637497D01*
X1154955Y637584D01*
X1154944Y637650D01*
Y637705D01*
Y637738D01*
Y637748D01*
Y642743D01*
X1156420D01*
Y637748D01*
X1156431Y637606D01*
X1156463Y637486D01*
X1156518Y637377D01*
X1156573Y637279D01*
X1156627Y637202D01*
X1156682Y637147D01*
X1156715Y637114D01*
X1156726Y637104D01*
X1156846Y637016D01*
X1156966Y636962D01*
X1157086Y636918D01*
X1157196Y636885D01*
X1157294Y636863D01*
X1157381Y636852D01*
X1157447D01*
X1157578Y636863D01*
X1157698Y636896D01*
X1157808Y636929D01*
X1157895Y636983D01*
X1157972Y637027D01*
X1158037Y637060D01*
X1158070Y637093D01*
X1158081Y637104D01*
X1158168Y637202D01*
X1158234Y637311D01*
X1158278Y637410D01*
X1158311Y637519D01*
X1158332Y637606D01*
X1158343Y637672D01*
Y637716D01*
Y637738D01*
Y642743D01*
X1159863D01*
Y637781D01*
D02*
G37*
G36*
X1173153Y642711D02*
X1173427Y642678D01*
X1173678Y642623D01*
X1173919Y642547D01*
X1174148Y642470D01*
X1174356Y642372D01*
X1174563Y642274D01*
X1174738Y642175D01*
X1174902Y642066D01*
X1175055Y641967D01*
X1175175Y641869D01*
X1175285Y641793D01*
X1175372Y641716D01*
X1175427Y641661D01*
X1175471Y641629D01*
X1175482Y641618D01*
X1175678Y641410D01*
X1175842Y641191D01*
X1175995Y640973D01*
X1176116Y640754D01*
X1176225Y640536D01*
X1176312Y640317D01*
X1176389Y640109D01*
X1176443Y639913D01*
X1176498Y639727D01*
X1176531Y639552D01*
X1176553Y639399D01*
X1176564Y639268D01*
X1176575Y639158D01*
X1176585Y639082D01*
Y639038D01*
Y639016D01*
X1176575Y638743D01*
X1176542Y638470D01*
X1176487Y638218D01*
X1176411Y637978D01*
X1176334Y637748D01*
X1176236Y637530D01*
X1176137Y637333D01*
X1176028Y637158D01*
X1175930Y636994D01*
X1175831Y636852D01*
X1175733Y636721D01*
X1175656Y636623D01*
X1175580Y636535D01*
X1175525Y636481D01*
X1175492Y636437D01*
X1175482Y636426D01*
X1175274Y636240D01*
X1175055Y636076D01*
X1174837Y635934D01*
X1174607Y635803D01*
X1174389Y635705D01*
X1174181Y635617D01*
X1173973Y635541D01*
X1173776Y635486D01*
X1173591Y635442D01*
X1173416Y635409D01*
X1173274Y635388D01*
X1173143Y635377D01*
X1173033Y635366D01*
X1172957Y635355D01*
X1172727D01*
X1172640Y635366D01*
X1172552Y635377D01*
X1172476Y635388D01*
X1172454D01*
Y636863D01*
X1172618Y636841D01*
X1172694D01*
X1172749Y636830D01*
X1172858D01*
X1173022Y636841D01*
X1173175Y636863D01*
X1173328Y636885D01*
X1173470Y636929D01*
X1173733Y637038D01*
X1173962Y637158D01*
X1174061Y637213D01*
X1174148Y637268D01*
X1174225Y637322D01*
X1174279Y637377D01*
X1174334Y637421D01*
X1174367Y637442D01*
X1174389Y637464D01*
X1174399Y637475D01*
X1174520Y637606D01*
X1174618Y637727D01*
X1174706Y637858D01*
X1174782Y638000D01*
X1174837Y638131D01*
X1174891Y638251D01*
X1174968Y638503D01*
X1175001Y638612D01*
X1175023Y638710D01*
X1175033Y638798D01*
X1175044Y638874D01*
X1175055Y638940D01*
Y638984D01*
Y639016D01*
Y639027D01*
X1175044Y639191D01*
X1175023Y639344D01*
X1174990Y639497D01*
X1174957Y639639D01*
X1174848Y639902D01*
X1174727Y640120D01*
X1174662Y640219D01*
X1174607Y640306D01*
X1174553Y640383D01*
X1174498Y640448D01*
X1174465Y640492D01*
X1174432Y640525D01*
X1174410Y640547D01*
X1174399Y640557D01*
X1174268Y640667D01*
X1174148Y640776D01*
X1174017Y640853D01*
X1173886Y640929D01*
X1173755Y640995D01*
X1173623Y641049D01*
X1173383Y641126D01*
X1173274Y641148D01*
X1173175Y641170D01*
X1173088Y641181D01*
X1173011Y641191D01*
X1172946Y641202D01*
X1172749D01*
X1172618Y641191D01*
X1172563D01*
X1172519Y641181D01*
X1172476D01*
Y642722D01*
X1172880D01*
X1173153Y642711D01*
D02*
G37*
G36*
X1165929Y635377D02*
X1164235D01*
X1163961Y635388D01*
X1163699Y635420D01*
X1163448Y635475D01*
X1163218Y635552D01*
X1162988Y635628D01*
X1162781Y635726D01*
X1162595Y635825D01*
X1162420Y635923D01*
X1162267Y636022D01*
X1162125Y636120D01*
X1162005Y636218D01*
X1161907Y636295D01*
X1161830Y636371D01*
X1161764Y636426D01*
X1161732Y636459D01*
X1161721Y636470D01*
X1161535Y636677D01*
X1161382Y636896D01*
X1161240Y637125D01*
X1161130Y637344D01*
X1161032Y637563D01*
X1160945Y637781D01*
X1160879Y637989D01*
X1160824Y638186D01*
X1160781Y638372D01*
X1160748Y638535D01*
X1160726Y638689D01*
X1160704Y638820D01*
Y638929D01*
X1160693Y639005D01*
Y639049D01*
Y639071D01*
X1160704Y639355D01*
X1160737Y639628D01*
X1160802Y639880D01*
X1160868Y640131D01*
X1160956Y640361D01*
X1161054Y640568D01*
X1161152Y640765D01*
X1161262Y640951D01*
X1161371Y641115D01*
X1161469Y641257D01*
X1161568Y641377D01*
X1161655Y641487D01*
X1161721Y641563D01*
X1161775Y641629D01*
X1161819Y641661D01*
X1161830Y641672D01*
X1162049Y641858D01*
X1162267Y642022D01*
X1162497Y642164D01*
X1162726Y642284D01*
X1162956Y642394D01*
X1163174Y642470D01*
X1163393Y642547D01*
X1163601Y642601D01*
X1163797Y642645D01*
X1163972Y642678D01*
X1164125Y642700D01*
X1164267Y642722D01*
X1164377D01*
X1164464Y642732D01*
X1165929D01*
Y635377D01*
D02*
G37*
G36*
X1149676Y642711D02*
X1149851Y642689D01*
X1150015Y642656D01*
X1150168Y642612D01*
X1150463Y642503D01*
X1150594Y642437D01*
X1150714Y642383D01*
X1150823Y642317D01*
X1150911Y642252D01*
X1150998Y642197D01*
X1151064Y642142D01*
X1151118Y642099D01*
X1151162Y642066D01*
X1151184Y642044D01*
X1151195Y642033D01*
X1151315Y641902D01*
X1151425Y641771D01*
X1151523Y641629D01*
X1151610Y641487D01*
X1151676Y641344D01*
X1151731Y641213D01*
X1151818Y640951D01*
X1151851Y640831D01*
X1151873Y640721D01*
X1151884Y640623D01*
X1151895Y640536D01*
X1151906Y640470D01*
Y640415D01*
Y640383D01*
Y640372D01*
Y635377D01*
X1150463D01*
Y640219D01*
X1150452Y640383D01*
X1150419Y640525D01*
X1150375Y640656D01*
X1150321Y640765D01*
X1150266Y640864D01*
X1150222Y640929D01*
X1150189Y640973D01*
X1150179Y640984D01*
X1150058Y641093D01*
X1149938Y641170D01*
X1149818Y641224D01*
X1149709Y641257D01*
X1149610Y641290D01*
X1149523Y641301D01*
X1149457D01*
X1149315Y641290D01*
X1149173Y641257D01*
X1149053Y641202D01*
X1148954Y641159D01*
X1148867Y641104D01*
X1148812Y641049D01*
X1148769Y641016D01*
X1148758Y641006D01*
X1148659Y640896D01*
X1148583Y640776D01*
X1148528Y640667D01*
X1148484Y640557D01*
X1148463Y640459D01*
X1148452Y640383D01*
Y640339D01*
Y640317D01*
Y635377D01*
X1146965D01*
Y640383D01*
X1146976Y640568D01*
X1146998Y640732D01*
X1147031Y640896D01*
X1147085Y641060D01*
X1147206Y641344D01*
X1147271Y641465D01*
X1147337Y641585D01*
X1147413Y641683D01*
X1147479Y641782D01*
X1147544Y641858D01*
X1147599Y641924D01*
X1147654Y641978D01*
X1147686Y642011D01*
X1147708Y642033D01*
X1147719Y642044D01*
X1147861Y642164D01*
X1148014Y642263D01*
X1148167Y642361D01*
X1148310Y642437D01*
X1148463Y642503D01*
X1148616Y642558D01*
X1148889Y642634D01*
X1149009Y642667D01*
X1149129Y642689D01*
X1149228Y642700D01*
X1149315Y642711D01*
X1149392Y642722D01*
X1149490D01*
X1149676Y642711D01*
D02*
G37*
G36*
X1154201Y635311D02*
X1152671Y635311D01*
Y642689D01*
X1154201Y642689D01*
Y635311D01*
D02*
G37*
G36*
X1142921Y642667D02*
X1143216Y642623D01*
X1143500Y642569D01*
X1143763Y642492D01*
X1144014Y642405D01*
X1144244Y642306D01*
X1144440Y642208D01*
X1144637Y642099D01*
X1144801Y641989D01*
X1144943Y641891D01*
X1145074Y641793D01*
X1145173Y641705D01*
X1145249Y641629D01*
X1145315Y641574D01*
X1145347Y641530D01*
X1145358Y641519D01*
X1145522Y641323D01*
X1145654Y641115D01*
X1145774Y640907D01*
X1145883Y640689D01*
X1145971Y640481D01*
X1146047Y640273D01*
X1146102Y640066D01*
X1146156Y639880D01*
X1146189Y639694D01*
X1146222Y639530D01*
X1146233Y639377D01*
X1146255Y639257D01*
Y639148D01*
X1146266Y639071D01*
Y639027D01*
Y639005D01*
X1146255Y638732D01*
X1146222Y638459D01*
X1146178Y638207D01*
X1146124Y637967D01*
X1146058Y637748D01*
X1145981Y637541D01*
X1145894Y637344D01*
X1145807Y637169D01*
X1145730Y637005D01*
X1145643Y636863D01*
X1145566Y636743D01*
X1145500Y636645D01*
X1145446Y636568D01*
X1145402Y636502D01*
X1145369Y636470D01*
X1145358Y636459D01*
X1145162Y636262D01*
X1144943Y636076D01*
X1144724Y635923D01*
X1144495Y635792D01*
X1144265Y635683D01*
X1144036Y635595D01*
X1143817Y635519D01*
X1143599Y635453D01*
X1143391Y635409D01*
X1143205Y635377D01*
X1143041Y635344D01*
X1142888Y635333D01*
X1142768Y635322D01*
X1142681Y635311D01*
X1142604D01*
X1142287Y635322D01*
X1141981Y635366D01*
X1141697Y635420D01*
X1141435Y635486D01*
X1141183Y635573D01*
X1140965Y635672D01*
X1140757Y635781D01*
X1140560Y635890D01*
X1140396Y635989D01*
X1140254Y636098D01*
X1140123Y636196D01*
X1140025Y636284D01*
X1139948Y636349D01*
X1139882Y636415D01*
X1139850Y636448D01*
X1139839Y636459D01*
X1139675Y636656D01*
X1139533Y636863D01*
X1139412Y637082D01*
X1139303Y637289D01*
X1139216Y637508D01*
X1139139Y637716D01*
X1139074Y637912D01*
X1139030Y638109D01*
X1138986Y638295D01*
X1138953Y638459D01*
X1138943Y638612D01*
X1138921Y638732D01*
Y638841D01*
X1138910Y638918D01*
Y638962D01*
Y638984D01*
X1138921Y639257D01*
X1138953Y639519D01*
X1138997Y639771D01*
X1139052Y640011D01*
X1139128Y640230D01*
X1139205Y640437D01*
X1139292Y640634D01*
X1139369Y640809D01*
X1139456Y640973D01*
X1139544Y641104D01*
X1139620Y641235D01*
X1139697Y641333D01*
X1139751Y641410D01*
X1139795Y641476D01*
X1139828Y641508D01*
X1139839Y641519D01*
X1140036Y641727D01*
X1140254Y641902D01*
X1140473Y642055D01*
X1140702Y642186D01*
X1140932Y642306D01*
X1141161Y642394D01*
X1141391Y642470D01*
X1141609Y642536D01*
X1141806Y642580D01*
X1142003Y642612D01*
X1142167Y642645D01*
X1142320Y642656D01*
X1142440Y642667D01*
X1142528Y642678D01*
X1142604D01*
X1142921Y642667D01*
D02*
G37*
G36*
X1169022Y626364D02*
X1166453Y633785D01*
X1167973D01*
X1169098Y630506D01*
X1170279Y633785D01*
X1171809D01*
X1169022Y626364D01*
D02*
G37*
G36*
X1113760Y630025D02*
X1113661Y630036D01*
X1113585D01*
X1113519Y630047D01*
X1113388D01*
X1113268Y630058D01*
X1113159Y630069D01*
X1113060D01*
X1112973Y630080D01*
X1112634D01*
X1112568Y630069D01*
X1112503D01*
X1112459Y630058D01*
X1112426D01*
X1112405Y630047D01*
X1112393D01*
X1112230Y630014D01*
X1112088Y629960D01*
X1111956Y629905D01*
X1111847Y629850D01*
X1111760Y629796D01*
X1111705Y629752D01*
X1111661Y629719D01*
X1111650Y629708D01*
X1111552Y629599D01*
X1111475Y629490D01*
X1111421Y629381D01*
X1111377Y629271D01*
X1111344Y629173D01*
X1111322Y629096D01*
X1111312Y629042D01*
Y629020D01*
X1111300Y628998D01*
Y628965D01*
Y628932D01*
Y628921D01*
X1111312Y628757D01*
X1111355Y628593D01*
X1111410Y628462D01*
X1111465Y628342D01*
X1111530Y628244D01*
X1111585Y628178D01*
X1111628Y628124D01*
X1111639Y628113D01*
X1111771Y628003D01*
X1111902Y627916D01*
X1112033Y627861D01*
X1112164Y627817D01*
X1112262Y627796D01*
X1112350Y627785D01*
X1112405Y627774D01*
X1112426D01*
X1112558Y627785D01*
X1112689Y627807D01*
X1112809Y627839D01*
X1112918Y627883D01*
X1113017Y627927D01*
X1113093Y627960D01*
X1113137Y627981D01*
X1113159Y627992D01*
X1113235Y628036D01*
X1113334Y628091D01*
X1113519Y628189D01*
X1113607Y628233D01*
X1113672Y628266D01*
X1113716Y628287D01*
X1113738Y628298D01*
Y626845D01*
X1113640Y626790D01*
X1113552Y626746D01*
X1113486Y626714D01*
X1113432Y626681D01*
X1113377Y626659D01*
X1113344Y626637D01*
X1113334Y626626D01*
X1113323D01*
X1113148Y626560D01*
X1112984Y626517D01*
X1112831Y626484D01*
X1112700Y626462D01*
X1112590Y626451D01*
X1112503Y626440D01*
X1112426D01*
X1112109Y626462D01*
X1111956Y626473D01*
X1111825Y626495D01*
X1111716Y626517D01*
X1111639Y626528D01*
X1111585Y626550D01*
X1111563D01*
X1111410Y626604D01*
X1111268Y626659D01*
X1111137Y626724D01*
X1111027Y626790D01*
X1110940Y626845D01*
X1110874Y626888D01*
X1110831Y626921D01*
X1110820Y626932D01*
X1110634Y627096D01*
X1110481Y627260D01*
X1110339Y627413D01*
X1110229Y627555D01*
X1110153Y627675D01*
X1110087Y627763D01*
X1110054Y627828D01*
X1110044Y627850D01*
X1109956Y628047D01*
X1109902Y628244D01*
X1109858Y628430D01*
X1109825Y628604D01*
X1109803Y628757D01*
X1109792Y628878D01*
Y628921D01*
Y628954D01*
Y628976D01*
Y628987D01*
X1109803Y629140D01*
X1109825Y629293D01*
X1109858Y629435D01*
X1109891Y629566D01*
X1109934Y629686D01*
X1109967Y629774D01*
X1109989Y629829D01*
X1110000Y629850D01*
X1110098Y630047D01*
X1110219Y630233D01*
X1110339Y630397D01*
X1110459Y630539D01*
X1110568Y630659D01*
X1110656Y630736D01*
X1110710Y630790D01*
X1110721Y630812D01*
X1110732D01*
X1110918Y630954D01*
X1111115Y631075D01*
X1111290Y631173D01*
X1111454Y631250D01*
X1111585Y631304D01*
X1111694Y631348D01*
X1111738Y631359D01*
X1111771D01*
X1111782Y631370D01*
X1111792D01*
X1112000Y631413D01*
X1112109Y631424D01*
X1112197D01*
X1112284Y631435D01*
X1112415D01*
Y632332D01*
X1110393D01*
Y633807D01*
X1113760D01*
Y630025D01*
D02*
G37*
G36*
X1130909Y633807D02*
X1131051Y633796D01*
X1131182Y633774D01*
X1131302Y633742D01*
X1131412Y633709D01*
X1131488Y633687D01*
X1131532Y633676D01*
X1131554Y633665D01*
X1131696Y633599D01*
X1131816Y633534D01*
X1131925Y633468D01*
X1132013Y633403D01*
X1132078Y633348D01*
X1132133Y633304D01*
X1132166Y633272D01*
X1132177Y633261D01*
X1132264Y633162D01*
X1132363Y633053D01*
X1132450Y632933D01*
X1132537Y632823D01*
X1132614Y632714D01*
X1132669Y632627D01*
X1132712Y632572D01*
X1132723Y632561D01*
Y632550D01*
X1132833Y632342D01*
X1132920Y632135D01*
X1132975Y631938D01*
X1133018Y631763D01*
X1133040Y631621D01*
X1133051Y631501D01*
X1133062Y631457D01*
Y631424D01*
Y631413D01*
Y631402D01*
X1133051Y631195D01*
X1133018Y630987D01*
X1132964Y630801D01*
X1132909Y630626D01*
X1132854Y630484D01*
X1132800Y630375D01*
X1132789Y630331D01*
X1132767Y630299D01*
X1132756Y630288D01*
Y630277D01*
X1132712Y630211D01*
X1132658Y630135D01*
X1132516Y629982D01*
X1132461Y629905D01*
X1132406Y629861D01*
X1132363Y629818D01*
X1132352Y629807D01*
X1132330Y629785D01*
X1132297Y629752D01*
X1132221Y629676D01*
X1132155Y629610D01*
X1132133Y629599D01*
X1132122Y629588D01*
X1131259Y630419D01*
X1131346Y630550D01*
X1131412Y630637D01*
X1131444Y630692D01*
X1131456Y630714D01*
X1131510Y630823D01*
X1131543Y630933D01*
X1131576Y631042D01*
X1131587Y631140D01*
X1131598Y631217D01*
X1131608Y631282D01*
Y631326D01*
Y631337D01*
X1131598Y631435D01*
X1131587Y631534D01*
X1131576Y631599D01*
Y631610D01*
Y631621D01*
X1131543Y631730D01*
X1131521Y631807D01*
X1131499Y631862D01*
X1131488Y631883D01*
X1131434Y631993D01*
X1131368Y632080D01*
X1131302Y632157D01*
X1131248Y632222D01*
X1131193Y632266D01*
X1131149Y632299D01*
X1131128Y632310D01*
X1131117Y632321D01*
X1131029Y632364D01*
X1130931Y632408D01*
X1130843Y632430D01*
X1130756Y632441D01*
X1130690Y632452D01*
X1130636Y632463D01*
X1130483D01*
X1130461Y632452D01*
X1130450D01*
X1130363Y632441D01*
X1130330Y632430D01*
X1130319D01*
X1130209Y632397D01*
X1130111Y632342D01*
X1130013Y632288D01*
X1129936Y632222D01*
X1129871Y632157D01*
X1129816Y632102D01*
X1129783Y632058D01*
X1129772Y632047D01*
X1129685Y631927D01*
X1129619Y631807D01*
X1129576Y631698D01*
X1129543Y631599D01*
X1129521Y631512D01*
X1129510Y631446D01*
Y631402D01*
Y631392D01*
X1129521Y631271D01*
X1129554Y631173D01*
X1129586Y631107D01*
X1129597Y631097D01*
Y631085D01*
X1132723Y626440D01*
X1128198D01*
Y627916D01*
X1130089D01*
X1129947Y628058D01*
X1129805Y628222D01*
X1129674Y628386D01*
X1129554Y628550D01*
X1129455Y628692D01*
X1129368Y628801D01*
X1129346Y628845D01*
X1129324Y628878D01*
X1129302Y628899D01*
Y628910D01*
X1129149Y629096D01*
X1128996Y629293D01*
X1128865Y629490D01*
X1128734Y629676D01*
X1128636Y629850D01*
X1128592Y629916D01*
X1128548Y629982D01*
X1128526Y630036D01*
X1128504Y630069D01*
X1128483Y630091D01*
Y630102D01*
X1128395Y630255D01*
X1128329Y630375D01*
X1128286Y630463D01*
X1128242Y630517D01*
X1128231Y630561D01*
X1128209Y630583D01*
Y630594D01*
X1128155Y630725D01*
X1128111Y630845D01*
X1128089Y630954D01*
X1128067Y631053D01*
X1128056Y631140D01*
X1128045Y631206D01*
Y631250D01*
Y631260D01*
Y631413D01*
X1128056Y631566D01*
X1128078Y631687D01*
X1128089Y631807D01*
X1128111Y631894D01*
X1128133Y631960D01*
X1128144Y632004D01*
Y632015D01*
X1128187Y632135D01*
X1128242Y632266D01*
X1128297Y632386D01*
X1128351Y632495D01*
X1128406Y632594D01*
X1128450Y632670D01*
X1128483Y632714D01*
X1128493Y632736D01*
X1128625Y632911D01*
X1128756Y633064D01*
X1128887Y633184D01*
X1129007Y633293D01*
X1129117Y633370D01*
X1129204Y633435D01*
X1129259Y633468D01*
X1129280Y633479D01*
X1129455Y633567D01*
X1129652Y633643D01*
X1129838Y633698D01*
X1130024Y633752D01*
X1130177Y633785D01*
X1130308Y633807D01*
X1130352D01*
X1130384Y633818D01*
X1130756D01*
X1130909Y633807D01*
D02*
G37*
G36*
X1117279D02*
X1117421Y633796D01*
X1117552Y633774D01*
X1117673Y633742D01*
X1117782Y633709D01*
X1117859Y633687D01*
X1117902Y633676D01*
X1117924Y633665D01*
X1118066Y633599D01*
X1118186Y633534D01*
X1118296Y633468D01*
X1118383Y633403D01*
X1118449Y633348D01*
X1118503Y633304D01*
X1118536Y633272D01*
X1118547Y633261D01*
X1118635Y633162D01*
X1118733Y633053D01*
X1118820Y632933D01*
X1118908Y632823D01*
X1118984Y632714D01*
X1119039Y632627D01*
X1119083Y632572D01*
X1119094Y632561D01*
Y632550D01*
X1119203Y632342D01*
X1119290Y632135D01*
X1119345Y631938D01*
X1119389Y631763D01*
X1119411Y631621D01*
X1119421Y631501D01*
X1119433Y631457D01*
Y631424D01*
Y631413D01*
Y631402D01*
X1119421Y631195D01*
X1119389Y630987D01*
X1119334Y630801D01*
X1119279Y630626D01*
X1119225Y630484D01*
X1119170Y630375D01*
X1119159Y630331D01*
X1119137Y630299D01*
X1119126Y630288D01*
Y630277D01*
X1119083Y630211D01*
X1119028Y630135D01*
X1118886Y629982D01*
X1118831Y629905D01*
X1118777Y629861D01*
X1118733Y629818D01*
X1118722Y629807D01*
X1118700Y629785D01*
X1118667Y629752D01*
X1118591Y629676D01*
X1118525Y629610D01*
X1118503Y629599D01*
X1118493Y629588D01*
X1117629Y630419D01*
X1117717Y630550D01*
X1117782Y630637D01*
X1117815Y630692D01*
X1117826Y630714D01*
X1117880Y630823D01*
X1117913Y630933D01*
X1117946Y631042D01*
X1117957Y631140D01*
X1117968Y631217D01*
X1117979Y631282D01*
Y631326D01*
Y631337D01*
X1117968Y631435D01*
X1117957Y631534D01*
X1117946Y631599D01*
Y631610D01*
Y631621D01*
X1117913Y631730D01*
X1117891Y631807D01*
X1117869Y631862D01*
X1117859Y631883D01*
X1117804Y631993D01*
X1117738Y632080D01*
X1117673Y632157D01*
X1117618Y632222D01*
X1117563Y632266D01*
X1117520Y632299D01*
X1117498Y632310D01*
X1117487Y632321D01*
X1117400Y632364D01*
X1117301Y632408D01*
X1117214Y632430D01*
X1117126Y632441D01*
X1117061Y632452D01*
X1117006Y632463D01*
X1116853D01*
X1116831Y632452D01*
X1116820D01*
X1116733Y632441D01*
X1116700Y632430D01*
X1116689D01*
X1116580Y632397D01*
X1116481Y632342D01*
X1116383Y632288D01*
X1116306Y632222D01*
X1116241Y632157D01*
X1116186Y632102D01*
X1116154Y632058D01*
X1116142Y632047D01*
X1116055Y631927D01*
X1115989Y631807D01*
X1115946Y631698D01*
X1115913Y631599D01*
X1115891Y631512D01*
X1115880Y631446D01*
Y631402D01*
Y631392D01*
X1115891Y631271D01*
X1115924Y631173D01*
X1115957Y631107D01*
X1115968Y631097D01*
Y631085D01*
X1119094Y626440D01*
X1114569D01*
Y627916D01*
X1116459D01*
X1116317Y628058D01*
X1116175Y628222D01*
X1116044Y628386D01*
X1115924Y628550D01*
X1115826Y628692D01*
X1115738Y628801D01*
X1115716Y628845D01*
X1115694Y628878D01*
X1115673Y628899D01*
Y628910D01*
X1115520Y629096D01*
X1115366Y629293D01*
X1115235Y629490D01*
X1115104Y629676D01*
X1115006Y629850D01*
X1114962Y629916D01*
X1114918Y629982D01*
X1114896Y630036D01*
X1114875Y630069D01*
X1114853Y630091D01*
Y630102D01*
X1114765Y630255D01*
X1114700Y630375D01*
X1114656Y630463D01*
X1114612Y630517D01*
X1114601Y630561D01*
X1114580Y630583D01*
Y630594D01*
X1114525Y630725D01*
X1114481Y630845D01*
X1114459Y630954D01*
X1114437Y631053D01*
X1114427Y631140D01*
X1114416Y631206D01*
Y631250D01*
Y631260D01*
Y631413D01*
X1114427Y631566D01*
X1114448Y631687D01*
X1114459Y631807D01*
X1114481Y631894D01*
X1114503Y631960D01*
X1114514Y632004D01*
Y632015D01*
X1114558Y632135D01*
X1114612Y632266D01*
X1114667Y632386D01*
X1114722Y632495D01*
X1114776Y632594D01*
X1114820Y632670D01*
X1114853Y632714D01*
X1114864Y632736D01*
X1114995Y632911D01*
X1115126Y633064D01*
X1115257Y633184D01*
X1115377Y633293D01*
X1115487Y633370D01*
X1115574Y633435D01*
X1115629Y633468D01*
X1115651Y633479D01*
X1115826Y633567D01*
X1116022Y633643D01*
X1116208Y633698D01*
X1116394Y633752D01*
X1116547Y633785D01*
X1116678Y633807D01*
X1116722D01*
X1116755Y633818D01*
X1117126D01*
X1117279Y633807D01*
D02*
G37*
G36*
X1163153Y630463D02*
X1163262Y630441D01*
X1163371Y630397D01*
X1163459Y630364D01*
X1163524Y630320D01*
X1163579Y630277D01*
X1163612Y630255D01*
X1163622Y630244D01*
X1163699Y630157D01*
X1163765Y630058D01*
X1163808Y629949D01*
X1163830Y629850D01*
X1163852Y629763D01*
X1163863Y629686D01*
Y629643D01*
Y629621D01*
X1163841Y629457D01*
X1163797Y629315D01*
X1163721Y629184D01*
X1163633Y629085D01*
X1163557Y628998D01*
X1163480Y628932D01*
X1163437Y628889D01*
X1163415Y628878D01*
X1163349Y628801D01*
X1163273Y628747D01*
X1163185Y628714D01*
X1163098Y628692D01*
X1163021Y628670D01*
X1162956Y628659D01*
X1162890D01*
X1162759Y628670D01*
X1162650Y628692D01*
X1162551Y628725D01*
X1162453Y628768D01*
X1162387Y628812D01*
X1162333Y628845D01*
X1162300Y628867D01*
X1162289Y628878D01*
X1162202Y628965D01*
X1162147Y629064D01*
X1162103Y629173D01*
X1162070Y629271D01*
X1162049Y629359D01*
X1162038Y629435D01*
Y629479D01*
Y629501D01*
X1162059Y629654D01*
X1162114Y629807D01*
X1162180Y629927D01*
X1162267Y630036D01*
X1162355Y630124D01*
X1162420Y630189D01*
X1162475Y630233D01*
X1162497Y630244D01*
X1162562Y630320D01*
X1162639Y630375D01*
X1162726Y630419D01*
X1162814Y630441D01*
X1162901Y630463D01*
X1162967Y630474D01*
X1163032D01*
X1163153Y630463D01*
D02*
G37*
G36*
X1165317Y628320D02*
X1165426Y628298D01*
X1165535Y628255D01*
X1165623Y628222D01*
X1165688Y628178D01*
X1165743Y628134D01*
X1165776Y628113D01*
X1165787Y628102D01*
X1165863Y628014D01*
X1165929Y627916D01*
X1165972Y627807D01*
X1165994Y627708D01*
X1166016Y627621D01*
X1166027Y627544D01*
Y627500D01*
Y627479D01*
X1166005Y627315D01*
X1165961Y627173D01*
X1165885Y627041D01*
X1165798Y626943D01*
X1165721Y626856D01*
X1165644Y626790D01*
X1165601Y626746D01*
X1165579Y626735D01*
X1165513Y626659D01*
X1165437Y626604D01*
X1165349Y626572D01*
X1165262Y626550D01*
X1165185Y626528D01*
X1165120Y626517D01*
X1165054D01*
X1164923Y626528D01*
X1164814Y626550D01*
X1164715Y626582D01*
X1164617Y626626D01*
X1164552Y626670D01*
X1164497Y626703D01*
X1164464Y626724D01*
X1164453Y626735D01*
X1164366Y626823D01*
X1164311Y626921D01*
X1164267Y627031D01*
X1164235Y627129D01*
X1164213Y627216D01*
X1164202Y627293D01*
Y627337D01*
Y627358D01*
X1164224Y627511D01*
X1164278Y627665D01*
X1164344Y627785D01*
X1164431Y627894D01*
X1164519Y627981D01*
X1164584Y628047D01*
X1164639Y628091D01*
X1164661Y628102D01*
X1164726Y628178D01*
X1164803Y628233D01*
X1164890Y628276D01*
X1164978Y628298D01*
X1165065Y628320D01*
X1165131Y628331D01*
X1165196D01*
X1165317Y628320D01*
D02*
G37*
G36*
X1163153D02*
X1163262Y628298D01*
X1163371Y628255D01*
X1163459Y628222D01*
X1163524Y628178D01*
X1163579Y628134D01*
X1163612Y628113D01*
X1163622Y628102D01*
X1163699Y628014D01*
X1163765Y627916D01*
X1163808Y627807D01*
X1163830Y627708D01*
X1163852Y627621D01*
X1163863Y627544D01*
Y627500D01*
Y627479D01*
X1163841Y627315D01*
X1163797Y627173D01*
X1163721Y627041D01*
X1163633Y626943D01*
X1163557Y626856D01*
X1163480Y626790D01*
X1163437Y626746D01*
X1163415Y626735D01*
X1163349Y626659D01*
X1163273Y626604D01*
X1163185Y626572D01*
X1163098Y626550D01*
X1163021Y626528D01*
X1162956Y626517D01*
X1162890D01*
X1162759Y626528D01*
X1162650Y626550D01*
X1162551Y626582D01*
X1162453Y626626D01*
X1162387Y626670D01*
X1162333Y626703D01*
X1162300Y626724D01*
X1162289Y626735D01*
X1162202Y626823D01*
X1162147Y626921D01*
X1162103Y627031D01*
X1162070Y627129D01*
X1162049Y627216D01*
X1162038Y627293D01*
Y627337D01*
Y627358D01*
X1162059Y627511D01*
X1162114Y627665D01*
X1162180Y627785D01*
X1162267Y627894D01*
X1162355Y627981D01*
X1162420Y628047D01*
X1162475Y628091D01*
X1162497Y628102D01*
X1162562Y628178D01*
X1162639Y628233D01*
X1162726Y628276D01*
X1162814Y628298D01*
X1162901Y628320D01*
X1162967Y628331D01*
X1163032D01*
X1163153Y628320D01*
D02*
G37*
G36*
X1154714D02*
X1154824Y628298D01*
X1154933Y628255D01*
X1155021Y628222D01*
X1155086Y628178D01*
X1155141Y628134D01*
X1155174Y628113D01*
X1155184Y628102D01*
X1155261Y628014D01*
X1155327Y627916D01*
X1155370Y627807D01*
X1155392Y627708D01*
X1155414Y627621D01*
X1155425Y627544D01*
Y627500D01*
Y627479D01*
X1155403Y627315D01*
X1155359Y627173D01*
X1155283Y627041D01*
X1155195Y626943D01*
X1155119Y626856D01*
X1155042Y626790D01*
X1154999Y626746D01*
X1154977Y626735D01*
X1154911Y626659D01*
X1154835Y626604D01*
X1154747Y626572D01*
X1154660Y626550D01*
X1154583Y626528D01*
X1154518Y626517D01*
X1154452D01*
X1154321Y626528D01*
X1154212Y626550D01*
X1154113Y626582D01*
X1154015Y626626D01*
X1153949Y626670D01*
X1153895Y626703D01*
X1153862Y626724D01*
X1153851Y626735D01*
X1153764Y626823D01*
X1153709Y626921D01*
X1153665Y627031D01*
X1153632Y627129D01*
X1153611Y627216D01*
X1153600Y627293D01*
Y627337D01*
Y627358D01*
X1153621Y627511D01*
X1153676Y627665D01*
X1153742Y627785D01*
X1153829Y627894D01*
X1153917Y627981D01*
X1153982Y628047D01*
X1154037Y628091D01*
X1154059Y628102D01*
X1154124Y628178D01*
X1154201Y628233D01*
X1154288Y628276D01*
X1154376Y628298D01*
X1154463Y628320D01*
X1154529Y628331D01*
X1154594D01*
X1154714Y628320D01*
D02*
G37*
G36*
X1181963Y626462D02*
X1180476D01*
Y629162D01*
X1178870Y626462D01*
X1177154D01*
X1178913Y629359D01*
X1178662Y629457D01*
X1178433Y629566D01*
X1178236Y629697D01*
X1178083Y629840D01*
X1177952Y629960D01*
X1177853Y630058D01*
X1177820Y630102D01*
X1177799Y630135D01*
X1177777Y630146D01*
Y630157D01*
X1177635Y630386D01*
X1177525Y630626D01*
X1177449Y630867D01*
X1177405Y631085D01*
X1177372Y631271D01*
X1177361Y631359D01*
Y631424D01*
X1177351Y631490D01*
Y631534D01*
Y631556D01*
Y631566D01*
X1177361Y631709D01*
X1177372Y631851D01*
X1177449Y632124D01*
X1177536Y632375D01*
X1177646Y632594D01*
X1177766Y632780D01*
X1177810Y632856D01*
X1177853Y632922D01*
X1177897Y632976D01*
X1177930Y633009D01*
X1177941Y633031D01*
X1177952Y633042D01*
X1178083Y633184D01*
X1178214Y633304D01*
X1178356Y633414D01*
X1178487Y633501D01*
X1178629Y633578D01*
X1178771Y633643D01*
X1178903Y633698D01*
X1179023Y633742D01*
X1179143Y633774D01*
X1179252Y633796D01*
X1179351Y633818D01*
X1179438Y633829D01*
X1179504Y633840D01*
X1181963D01*
Y626462D01*
D02*
G37*
G36*
X1157436Y626440D02*
X1155960D01*
Y633807D01*
X1157436D01*
Y626440D01*
D02*
G37*
G36*
X1138090Y633796D02*
X1140779Y626440D01*
X1140232Y626451D01*
X1137543Y633807D01*
X1138090Y633796D01*
D02*
G37*
G36*
X1174793Y633763D02*
X1174924Y633752D01*
X1175044Y633720D01*
X1175143Y633698D01*
X1175219Y633665D01*
X1175274Y633632D01*
X1175318Y633621D01*
X1175329Y633610D01*
X1175449Y633545D01*
X1175569Y633468D01*
X1175678Y633392D01*
X1175777Y633315D01*
X1175853Y633239D01*
X1175919Y633184D01*
X1175962Y633140D01*
X1175973Y633129D01*
X1176072Y633009D01*
X1176159Y632900D01*
X1176236Y632802D01*
X1176301Y632703D01*
X1176345Y632627D01*
X1176378Y632572D01*
X1176389Y632528D01*
X1176400Y632517D01*
X1176443Y632408D01*
X1176476Y632288D01*
X1176498Y632168D01*
X1176509Y632058D01*
X1176520Y631960D01*
X1176531Y631883D01*
Y631840D01*
Y631818D01*
Y628473D01*
X1176520Y628320D01*
X1176509Y628189D01*
X1176487Y628058D01*
X1176465Y627949D01*
X1176443Y627861D01*
X1176422Y627796D01*
X1176400Y627752D01*
Y627741D01*
X1176345Y627632D01*
X1176279Y627511D01*
X1176203Y627413D01*
X1176137Y627315D01*
X1176072Y627238D01*
X1176017Y627173D01*
X1175984Y627129D01*
X1175973Y627118D01*
X1175842Y626987D01*
X1175700Y626867D01*
X1175580Y626768D01*
X1175471Y626703D01*
X1175372Y626637D01*
X1175296Y626604D01*
X1175252Y626582D01*
X1175230Y626572D01*
X1175077Y626517D01*
X1174913Y626484D01*
X1174760Y626451D01*
X1174607Y626440D01*
X1174476Y626429D01*
X1174367Y626418D01*
X1172476D01*
Y627894D01*
X1174509D01*
X1174596Y627905D01*
X1174673Y627927D01*
X1174738Y627949D01*
X1174804Y627992D01*
X1174848Y628025D01*
X1174880Y628047D01*
X1174902Y628069D01*
X1174913Y628080D01*
X1174957Y628156D01*
X1174990Y628211D01*
X1175012Y628255D01*
Y628266D01*
Y628309D01*
X1175023Y628353D01*
Y628462D01*
Y628506D01*
Y628550D01*
Y628572D01*
Y628583D01*
Y629381D01*
X1172498D01*
Y630801D01*
X1175023D01*
Y631719D01*
X1175012Y631807D01*
X1175001Y631883D01*
X1174968Y631949D01*
X1174935Y632015D01*
X1174913Y632058D01*
X1174880Y632091D01*
X1174869Y632113D01*
X1174858Y632124D01*
X1174793Y632190D01*
X1174716Y632222D01*
X1174673Y632244D01*
X1174651Y632255D01*
X1174553Y632277D01*
X1174454Y632299D01*
X1172476D01*
Y633774D01*
X1174640D01*
X1174793Y633763D01*
D02*
G37*
G36*
X1149752Y633731D02*
X1150047Y633687D01*
X1150332Y633632D01*
X1150594Y633556D01*
X1150845Y633468D01*
X1151075Y633370D01*
X1151272Y633272D01*
X1151468Y633162D01*
X1151632Y633053D01*
X1151774Y632955D01*
X1151906Y632856D01*
X1152004Y632769D01*
X1152080Y632692D01*
X1152146Y632638D01*
X1152179Y632594D01*
X1152190Y632583D01*
X1152354Y632386D01*
X1152485Y632178D01*
X1152605Y631971D01*
X1152714Y631752D01*
X1152802Y631545D01*
X1152878Y631337D01*
X1152933Y631129D01*
X1152988Y630943D01*
X1153020Y630758D01*
X1153053Y630594D01*
X1153064Y630441D01*
X1153086Y630320D01*
Y630211D01*
X1153097Y630135D01*
Y630091D01*
Y630069D01*
X1153086Y629796D01*
X1153053Y629523D01*
X1153009Y629271D01*
X1152955Y629031D01*
X1152889Y628812D01*
X1152813Y628604D01*
X1152725Y628408D01*
X1152638Y628233D01*
X1152561Y628069D01*
X1152474Y627927D01*
X1152397Y627807D01*
X1152332Y627708D01*
X1152277Y627632D01*
X1152233Y627566D01*
X1152201Y627533D01*
X1152190Y627522D01*
X1151993Y627326D01*
X1151774Y627140D01*
X1151556Y626987D01*
X1151326Y626856D01*
X1151097Y626746D01*
X1150867Y626659D01*
X1150649Y626582D01*
X1150430Y626517D01*
X1150222Y626473D01*
X1150037Y626440D01*
X1149872Y626407D01*
X1149720Y626397D01*
X1149599Y626386D01*
X1149512Y626375D01*
X1149435D01*
X1149118Y626386D01*
X1148812Y626429D01*
X1148528Y626484D01*
X1148266Y626550D01*
X1148014Y626637D01*
X1147796Y626735D01*
X1147588Y626845D01*
X1147391Y626954D01*
X1147227Y627052D01*
X1147085Y627162D01*
X1146954Y627260D01*
X1146856Y627348D01*
X1146779Y627413D01*
X1146714Y627479D01*
X1146681Y627511D01*
X1146670Y627522D01*
X1146506Y627719D01*
X1146364Y627927D01*
X1146244Y628145D01*
X1146134Y628353D01*
X1146047Y628572D01*
X1145971Y628779D01*
X1145905Y628976D01*
X1145861Y629173D01*
X1145817Y629359D01*
X1145785Y629523D01*
X1145774Y629676D01*
X1145752Y629796D01*
Y629905D01*
X1145741Y629982D01*
Y630025D01*
Y630047D01*
X1145752Y630320D01*
X1145785Y630583D01*
X1145828Y630834D01*
X1145883Y631075D01*
X1145960Y631293D01*
X1146036Y631501D01*
X1146124Y631698D01*
X1146200Y631873D01*
X1146288Y632036D01*
X1146375Y632168D01*
X1146451Y632299D01*
X1146528Y632397D01*
X1146583Y632474D01*
X1146626Y632539D01*
X1146659Y632572D01*
X1146670Y632583D01*
X1146867Y632791D01*
X1147085Y632966D01*
X1147304Y633118D01*
X1147534Y633250D01*
X1147763Y633370D01*
X1147993Y633457D01*
X1148222Y633534D01*
X1148441Y633599D01*
X1148637Y633643D01*
X1148834Y633676D01*
X1148998Y633709D01*
X1149151Y633720D01*
X1149271Y633731D01*
X1149359Y633742D01*
X1149435D01*
X1149752Y633731D01*
D02*
G37*
G36*
X1124078D02*
X1124373Y633687D01*
X1124657Y633632D01*
X1124919Y633556D01*
X1125171Y633468D01*
X1125400Y633370D01*
X1125597Y633272D01*
X1125794Y633162D01*
X1125958Y633053D01*
X1126100Y632955D01*
X1126231Y632856D01*
X1126329Y632769D01*
X1126406Y632692D01*
X1126471Y632638D01*
X1126504Y632594D01*
X1126515Y632583D01*
X1126679Y632386D01*
X1126810Y632178D01*
X1126931Y631971D01*
X1127040Y631752D01*
X1127127Y631545D01*
X1127204Y631337D01*
X1127258Y631129D01*
X1127313Y630943D01*
X1127346Y630758D01*
X1127379Y630594D01*
X1127390Y630441D01*
X1127411Y630320D01*
Y630211D01*
X1127422Y630135D01*
Y630091D01*
Y630069D01*
X1127411Y629796D01*
X1127379Y629523D01*
X1127335Y629271D01*
X1127280Y629031D01*
X1127215Y628812D01*
X1127138Y628604D01*
X1127051Y628408D01*
X1126963Y628233D01*
X1126887Y628069D01*
X1126799Y627927D01*
X1126723Y627807D01*
X1126657Y627708D01*
X1126602Y627632D01*
X1126559Y627566D01*
X1126526Y627533D01*
X1126515Y627522D01*
X1126318Y627326D01*
X1126100Y627140D01*
X1125881Y626987D01*
X1125652Y626856D01*
X1125422Y626746D01*
X1125193Y626659D01*
X1124974Y626582D01*
X1124755Y626517D01*
X1124548Y626473D01*
X1124362Y626440D01*
X1124198Y626407D01*
X1124045Y626397D01*
X1123925Y626386D01*
X1123837Y626375D01*
X1123761D01*
X1123444Y626386D01*
X1123138Y626429D01*
X1122854Y626484D01*
X1122591Y626550D01*
X1122340Y626637D01*
X1122121Y626735D01*
X1121914Y626845D01*
X1121717Y626954D01*
X1121553Y627052D01*
X1121411Y627162D01*
X1121280Y627260D01*
X1121181Y627348D01*
X1121105Y627413D01*
X1121039Y627479D01*
X1121006Y627511D01*
X1120996Y627522D01*
X1120831Y627719D01*
X1120689Y627927D01*
X1120569Y628145D01*
X1120460Y628353D01*
X1120372Y628572D01*
X1120296Y628779D01*
X1120230Y628976D01*
X1120187Y629173D01*
X1120143Y629359D01*
X1120110Y629523D01*
X1120099Y629676D01*
X1120077Y629796D01*
Y629905D01*
X1120066Y629982D01*
Y630025D01*
Y630047D01*
X1120077Y630320D01*
X1120110Y630583D01*
X1120154Y630834D01*
X1120208Y631075D01*
X1120285Y631293D01*
X1120362Y631501D01*
X1120449Y631698D01*
X1120525Y631873D01*
X1120613Y632036D01*
X1120700Y632168D01*
X1120777Y632299D01*
X1120853Y632397D01*
X1120908Y632474D01*
X1120952Y632539D01*
X1120984Y632572D01*
X1120996Y632583D01*
X1121192Y632791D01*
X1121411Y632966D01*
X1121629Y633118D01*
X1121859Y633250D01*
X1122089Y633370D01*
X1122318Y633457D01*
X1122548Y633534D01*
X1122766Y633599D01*
X1122963Y633643D01*
X1123160Y633676D01*
X1123324Y633709D01*
X1123477Y633720D01*
X1123597Y633731D01*
X1123684Y633742D01*
X1123761D01*
X1124078Y633731D01*
D02*
G37*
%LPC*%
G36*
X1164431Y641221D02*
X1164322Y641213D01*
X1164169Y641191D01*
X1164016Y641159D01*
X1163874Y641126D01*
X1163601Y641016D01*
X1163360Y640896D01*
X1163251Y640831D01*
X1163153Y640765D01*
X1163076Y640710D01*
X1163000Y640667D01*
X1162945Y640623D01*
X1162901Y640590D01*
X1162879Y640568D01*
X1162868Y640557D01*
X1162759Y640448D01*
X1162650Y640339D01*
X1162573Y640219D01*
X1162497Y640098D01*
X1162431Y639967D01*
X1162376Y639847D01*
X1162300Y639617D01*
X1162256Y639410D01*
X1162245Y639322D01*
X1162234Y639246D01*
X1162223Y639180D01*
Y639137D01*
Y639104D01*
Y639093D01*
X1162245Y638798D01*
X1162289Y638535D01*
X1162366Y638295D01*
X1162442Y638098D01*
X1162529Y637934D01*
X1162562Y637869D01*
X1162606Y637814D01*
X1162628Y637770D01*
X1162650Y637738D01*
X1162672Y637727D01*
Y637716D01*
X1162814Y637563D01*
X1162967Y637431D01*
X1163120Y637322D01*
X1163273Y637224D01*
X1163404Y637147D01*
X1163513Y637093D01*
X1163557Y637071D01*
X1163590Y637060D01*
X1163601Y637049D01*
X1163612D01*
X1163776Y636994D01*
X1163918Y636951D01*
X1164049Y636929D01*
X1164158Y636907D01*
X1164256Y636896D01*
X1164322Y636885D01*
X1164388D01*
X1164409Y636874D01*
X1164420Y636863D01*
X1164431Y636841D01*
Y641221D01*
D02*
G37*
G36*
X1142768Y641301D02*
X1142670D01*
X1142473Y641290D01*
X1142287Y641268D01*
X1142112Y641235D01*
X1141948Y641191D01*
X1141795Y641137D01*
X1141664Y641071D01*
X1141533Y641006D01*
X1141413Y640940D01*
X1141314Y640874D01*
X1141216Y640809D01*
X1141140Y640743D01*
X1141085Y640689D01*
X1141030Y640645D01*
X1140997Y640612D01*
X1140975Y640590D01*
X1140965Y640579D01*
X1140866Y640459D01*
X1140779Y640328D01*
X1140702Y640197D01*
X1140637Y640066D01*
X1140538Y639803D01*
X1140462Y639552D01*
X1140440Y639443D01*
X1140429Y639344D01*
X1140418Y639246D01*
X1140407Y639169D01*
X1140396Y639104D01*
Y639060D01*
Y639027D01*
Y639016D01*
X1140407Y638852D01*
X1140418Y638688D01*
X1140484Y638382D01*
X1140571Y638120D01*
X1140680Y637901D01*
X1140735Y637803D01*
X1140790Y637716D01*
X1140833Y637639D01*
X1140877Y637574D01*
X1140910Y637530D01*
X1140943Y637497D01*
X1140954Y637475D01*
X1140965Y637464D01*
X1141085Y637344D01*
X1141205Y637246D01*
X1141336Y637147D01*
X1141478Y637071D01*
X1141620Y637005D01*
X1141751Y636951D01*
X1142025Y636874D01*
X1142145Y636841D01*
X1142254Y636819D01*
X1142364Y636808D01*
X1142451Y636798D01*
X1142528Y636787D01*
X1142626D01*
X1142823Y636798D01*
X1142998Y636819D01*
X1143172Y636852D01*
X1143336Y636896D01*
X1143489Y636951D01*
X1143621Y637016D01*
X1143752Y637071D01*
X1143861Y637147D01*
X1143970Y637213D01*
X1144058Y637267D01*
X1144134Y637333D01*
X1144200Y637388D01*
X1144244Y637431D01*
X1144276Y637464D01*
X1144298Y637486D01*
X1144309Y637497D01*
X1144407Y637617D01*
X1144495Y637748D01*
X1144571Y637880D01*
X1144626Y638011D01*
X1144735Y638284D01*
X1144801Y638524D01*
X1144823Y638645D01*
X1144834Y638743D01*
X1144845Y638841D01*
X1144856Y638918D01*
X1144867Y638984D01*
Y639027D01*
Y639060D01*
Y639071D01*
X1144856Y639235D01*
X1144845Y639399D01*
X1144779Y639694D01*
X1144692Y639956D01*
X1144593Y640186D01*
X1144539Y640273D01*
X1144495Y640361D01*
X1144451Y640426D01*
X1144407Y640492D01*
X1144375Y640536D01*
X1144342Y640568D01*
X1144331Y640590D01*
X1144320Y640601D01*
X1144200Y640721D01*
X1144069Y640831D01*
X1143937Y640929D01*
X1143806Y641006D01*
X1143664Y641071D01*
X1143533Y641126D01*
X1143260Y641213D01*
X1143140Y641246D01*
X1143030Y641268D01*
X1142932Y641279D01*
X1142844Y641290D01*
X1142768Y641301D01*
D02*
G37*
G36*
X1180476Y632430D02*
X1180302D01*
X1180072Y632419D01*
X1179963Y632408D01*
X1179864D01*
X1179777Y632397D01*
X1179711Y632386D01*
X1179657Y632375D01*
X1179646D01*
X1179526Y632353D01*
X1179416Y632310D01*
X1179318Y632255D01*
X1179230Y632200D01*
X1179165Y632146D01*
X1179121Y632102D01*
X1179088Y632069D01*
X1179078Y632058D01*
X1179001Y631960D01*
X1178946Y631873D01*
X1178913Y631785D01*
X1178892Y631709D01*
X1178881Y631643D01*
Y631599D01*
Y631566D01*
Y631556D01*
X1178892Y631468D01*
X1178903Y631392D01*
X1178913Y631337D01*
Y631293D01*
X1178924Y631260D01*
Y631239D01*
Y631228D01*
X1178957Y631129D01*
X1179012Y631042D01*
X1179045Y630987D01*
X1179066Y630976D01*
Y630965D01*
X1179154Y630878D01*
X1179241Y630812D01*
X1179307Y630769D01*
X1179329Y630758D01*
X1179340D01*
X1179482Y630714D01*
X1179624Y630692D01*
X1179679Y630681D01*
X1179930D01*
X1179996Y630670D01*
X1180017D01*
X1180116Y630659D01*
X1180367D01*
X1180433Y630670D01*
X1180476D01*
Y632430D01*
D02*
G37*
G36*
X1149599Y632288D02*
X1149501D01*
X1149304Y632277D01*
X1149118Y632255D01*
X1148944Y632222D01*
X1148779Y632178D01*
X1148627Y632124D01*
X1148495Y632058D01*
X1148364Y631993D01*
X1148244Y631927D01*
X1148146Y631862D01*
X1148047Y631796D01*
X1147971Y631730D01*
X1147916Y631676D01*
X1147861Y631632D01*
X1147829Y631599D01*
X1147807Y631577D01*
X1147796Y631566D01*
X1147698Y631446D01*
X1147610Y631315D01*
X1147534Y631184D01*
X1147468Y631053D01*
X1147369Y630790D01*
X1147293Y630539D01*
X1147271Y630430D01*
X1147260Y630331D01*
X1147249Y630233D01*
X1147238Y630157D01*
X1147227Y630091D01*
Y630047D01*
Y630014D01*
Y630003D01*
X1147238Y629840D01*
X1147249Y629676D01*
X1147315Y629369D01*
X1147402Y629107D01*
X1147512Y628889D01*
X1147566Y628790D01*
X1147621Y628703D01*
X1147665Y628626D01*
X1147708Y628561D01*
X1147741Y628517D01*
X1147774Y628484D01*
X1147785Y628462D01*
X1147796Y628451D01*
X1147916Y628331D01*
X1148036Y628233D01*
X1148167Y628134D01*
X1148310Y628058D01*
X1148452Y627992D01*
X1148583Y627938D01*
X1148856Y627861D01*
X1148976Y627828D01*
X1149086Y627807D01*
X1149195Y627796D01*
X1149282Y627785D01*
X1149359Y627774D01*
X1149457D01*
X1149654Y627785D01*
X1149829Y627807D01*
X1150004Y627839D01*
X1150168Y627883D01*
X1150321Y627938D01*
X1150452Y628003D01*
X1150583Y628058D01*
X1150692Y628134D01*
X1150802Y628200D01*
X1150889Y628255D01*
X1150965Y628320D01*
X1151031Y628375D01*
X1151075Y628419D01*
X1151108Y628451D01*
X1151130Y628473D01*
X1151140Y628484D01*
X1151239Y628604D01*
X1151326Y628736D01*
X1151403Y628867D01*
X1151457Y628998D01*
X1151567Y629271D01*
X1151632Y629512D01*
X1151654Y629632D01*
X1151665Y629730D01*
X1151676Y629829D01*
X1151687Y629905D01*
X1151698Y629971D01*
Y630014D01*
Y630047D01*
Y630058D01*
X1151687Y630222D01*
X1151676Y630386D01*
X1151610Y630681D01*
X1151523Y630943D01*
X1151425Y631173D01*
X1151370Y631260D01*
X1151326Y631348D01*
X1151283Y631413D01*
X1151239Y631479D01*
X1151206Y631523D01*
X1151173Y631556D01*
X1151162Y631577D01*
X1151151Y631588D01*
X1151031Y631708D01*
X1150900Y631818D01*
X1150769Y631916D01*
X1150638Y631993D01*
X1150496Y632058D01*
X1150364Y632113D01*
X1150091Y632200D01*
X1149971Y632233D01*
X1149862Y632255D01*
X1149763Y632266D01*
X1149676Y632277D01*
X1149599Y632288D01*
D02*
G37*
G36*
X1123925D02*
X1123826D01*
X1123630Y632277D01*
X1123444Y632255D01*
X1123269Y632222D01*
X1123105Y632178D01*
X1122952Y632124D01*
X1122821Y632058D01*
X1122690Y631993D01*
X1122569Y631927D01*
X1122471Y631862D01*
X1122373Y631796D01*
X1122296Y631730D01*
X1122241Y631676D01*
X1122187Y631632D01*
X1122154Y631599D01*
X1122132Y631577D01*
X1122121Y631566D01*
X1122023Y631446D01*
X1121935Y631315D01*
X1121859Y631184D01*
X1121793Y631053D01*
X1121695Y630790D01*
X1121618Y630539D01*
X1121597Y630430D01*
X1121586Y630331D01*
X1121575Y630233D01*
X1121564Y630157D01*
X1121553Y630091D01*
Y630047D01*
Y630014D01*
Y630003D01*
X1121564Y629840D01*
X1121575Y629676D01*
X1121640Y629369D01*
X1121728Y629107D01*
X1121837Y628889D01*
X1121892Y628790D01*
X1121946Y628703D01*
X1121990Y628626D01*
X1122034Y628561D01*
X1122067Y628517D01*
X1122099Y628484D01*
X1122110Y628462D01*
X1122121Y628451D01*
X1122241Y628331D01*
X1122362Y628233D01*
X1122493Y628134D01*
X1122635Y628058D01*
X1122777Y627992D01*
X1122908Y627938D01*
X1123182Y627861D01*
X1123302Y627828D01*
X1123411Y627807D01*
X1123520Y627796D01*
X1123608Y627785D01*
X1123684Y627774D01*
X1123783D01*
X1123979Y627785D01*
X1124154Y627807D01*
X1124329Y627839D01*
X1124493Y627883D01*
X1124646Y627938D01*
X1124777Y628003D01*
X1124908Y628058D01*
X1125018Y628134D01*
X1125127Y628200D01*
X1125214Y628255D01*
X1125291Y628320D01*
X1125356Y628375D01*
X1125400Y628419D01*
X1125433Y628451D01*
X1125455Y628473D01*
X1125466Y628484D01*
X1125564Y628604D01*
X1125652Y628736D01*
X1125728Y628867D01*
X1125783Y628998D01*
X1125892Y629271D01*
X1125958Y629512D01*
X1125980Y629632D01*
X1125990Y629730D01*
X1126001Y629829D01*
X1126012Y629905D01*
X1126023Y629971D01*
Y630014D01*
Y630047D01*
Y630058D01*
X1126012Y630222D01*
X1126001Y630386D01*
X1125936Y630681D01*
X1125848Y630943D01*
X1125750Y631173D01*
X1125695Y631260D01*
X1125652Y631348D01*
X1125608Y631413D01*
X1125564Y631479D01*
X1125531Y631523D01*
X1125499Y631556D01*
X1125488Y631577D01*
X1125477Y631588D01*
X1125356Y631708D01*
X1125225Y631818D01*
X1125094Y631916D01*
X1124963Y631993D01*
X1124821Y632058D01*
X1124690Y632113D01*
X1124417Y632200D01*
X1124296Y632233D01*
X1124187Y632255D01*
X1124089Y632266D01*
X1124001Y632277D01*
X1123925Y632288D01*
D02*
G37*
%LPD*%
D20*
X1276514Y777976D02*
G03*
X1272514Y781876I-3950J-50D01*
G01*
X1272614Y571876D02*
G03*
X1276514Y575876I-50J3950D01*
G01*
X927963Y575876D02*
G03*
X931963Y571876I4000J0D01*
G01*
Y781876D02*
G03*
X927963Y777976I-50J-3950D01*
G01*
X1276514Y575876D02*
Y777976D01*
X1181963Y781876D02*
X1272514D01*
X931963D02*
X1181963D01*
X931963Y571876D02*
X1272614D01*
X927963Y575876D02*
Y777976D01*
M02*
