G04*
G04 #@! TF.GenerationSoftware,Altium Limited,Altium Designer,24.5.2 (23)*
G04*
G04 Layer_Physical_Order=1*
G04 Layer_Color=255*
%FSLAX25Y25*%
%MOIN*%
G70*
G04*
G04 #@! TF.SameCoordinates,2965B117-A723-4B34-A477-EC79056530B1*
G04*
G04*
G04 #@! TF.FilePolarity,Positive*
G04*
G01*
G75*
%ADD12C,0.00600*%
%ADD14C,0.01200*%
%ADD20C,0.00100*%
G04:AMPARAMS|DCode=21|XSize=23.62mil|YSize=17.72mil|CornerRadius=4.43mil|HoleSize=0mil|Usage=FLASHONLY|Rotation=90.000|XOffset=0mil|YOffset=0mil|HoleType=Round|Shape=RoundedRectangle|*
%AMROUNDEDRECTD21*
21,1,0.02362,0.00886,0,0,90.0*
21,1,0.01476,0.01772,0,0,90.0*
1,1,0.00886,0.00443,0.00738*
1,1,0.00886,0.00443,-0.00738*
1,1,0.00886,-0.00443,-0.00738*
1,1,0.00886,-0.00443,0.00738*
%
%ADD21ROUNDEDRECTD21*%
%ADD22R,0.10039X0.10039*%
G04:AMPARAMS|DCode=23|XSize=35.43mil|YSize=11.81mil|CornerRadius=2.95mil|HoleSize=0mil|Usage=FLASHONLY|Rotation=270.000|XOffset=0mil|YOffset=0mil|HoleType=Round|Shape=RoundedRectangle|*
%AMROUNDEDRECTD23*
21,1,0.03543,0.00591,0,0,270.0*
21,1,0.02953,0.01181,0,0,270.0*
1,1,0.00591,-0.00295,-0.01476*
1,1,0.00591,-0.00295,0.01476*
1,1,0.00591,0.00295,0.01476*
1,1,0.00591,0.00295,-0.01476*
%
%ADD23ROUNDEDRECTD23*%
G04:AMPARAMS|DCode=24|XSize=35.43mil|YSize=11.81mil|CornerRadius=2.95mil|HoleSize=0mil|Usage=FLASHONLY|Rotation=180.000|XOffset=0mil|YOffset=0mil|HoleType=Round|Shape=RoundedRectangle|*
%AMROUNDEDRECTD24*
21,1,0.03543,0.00591,0,0,180.0*
21,1,0.02953,0.01181,0,0,180.0*
1,1,0.00591,-0.01476,0.00295*
1,1,0.00591,0.01476,0.00295*
1,1,0.00591,0.01476,-0.00295*
1,1,0.00591,-0.01476,-0.00295*
%
%ADD24ROUNDEDRECTD24*%
G04:AMPARAMS|DCode=26|XSize=32.68mil|YSize=27.56mil|CornerRadius=2.76mil|HoleSize=0mil|Usage=FLASHONLY|Rotation=0.000|XOffset=0mil|YOffset=0mil|HoleType=Round|Shape=RoundedRectangle|*
%AMROUNDEDRECTD26*
21,1,0.03268,0.02205,0,0,0.0*
21,1,0.02717,0.02756,0,0,0.0*
1,1,0.00551,0.01358,-0.01102*
1,1,0.00551,-0.01358,-0.01102*
1,1,0.00551,-0.01358,0.01102*
1,1,0.00551,0.01358,0.01102*
%
%ADD26ROUNDEDRECTD26*%
G04:AMPARAMS|DCode=27|XSize=13.78mil|YSize=11.81mil|CornerRadius=2.95mil|HoleSize=0mil|Usage=FLASHONLY|Rotation=90.000|XOffset=0mil|YOffset=0mil|HoleType=Round|Shape=RoundedRectangle|*
%AMROUNDEDRECTD27*
21,1,0.01378,0.00591,0,0,90.0*
21,1,0.00787,0.01181,0,0,90.0*
1,1,0.00591,0.00295,0.00394*
1,1,0.00591,0.00295,-0.00394*
1,1,0.00591,-0.00295,-0.00394*
1,1,0.00591,-0.00295,0.00394*
%
%ADD27ROUNDEDRECTD27*%
G04:AMPARAMS|DCode=28|XSize=13.78mil|YSize=11.81mil|CornerRadius=2.95mil|HoleSize=0mil|Usage=FLASHONLY|Rotation=180.000|XOffset=0mil|YOffset=0mil|HoleType=Round|Shape=RoundedRectangle|*
%AMROUNDEDRECTD28*
21,1,0.01378,0.00591,0,0,180.0*
21,1,0.00787,0.01181,0,0,180.0*
1,1,0.00591,-0.00394,0.00295*
1,1,0.00591,0.00394,0.00295*
1,1,0.00591,0.00394,-0.00295*
1,1,0.00591,-0.00394,-0.00295*
%
%ADD28ROUNDEDRECTD28*%
G04:AMPARAMS|DCode=29|XSize=23.62mil|YSize=17.72mil|CornerRadius=4.43mil|HoleSize=0mil|Usage=FLASHONLY|Rotation=180.000|XOffset=0mil|YOffset=0mil|HoleType=Round|Shape=RoundedRectangle|*
%AMROUNDEDRECTD29*
21,1,0.02362,0.00886,0,0,180.0*
21,1,0.01476,0.01772,0,0,180.0*
1,1,0.00886,-0.00738,0.00443*
1,1,0.00886,0.00738,0.00443*
1,1,0.00886,0.00738,-0.00443*
1,1,0.00886,-0.00738,-0.00443*
%
%ADD29ROUNDEDRECTD29*%
%ADD30R,0.02756X0.02362*%
G04:AMPARAMS|DCode=31|XSize=70.87mil|YSize=9.84mil|CornerRadius=0.49mil|HoleSize=0mil|Usage=FLASHONLY|Rotation=270.000|XOffset=0mil|YOffset=0mil|HoleType=Round|Shape=RoundedRectangle|*
%AMROUNDEDRECTD31*
21,1,0.07087,0.00886,0,0,270.0*
21,1,0.06988,0.00984,0,0,270.0*
1,1,0.00098,-0.00443,-0.03494*
1,1,0.00098,-0.00443,0.03494*
1,1,0.00098,0.00443,0.03494*
1,1,0.00098,0.00443,-0.03494*
%
%ADD31ROUNDEDRECTD31*%
G04:AMPARAMS|DCode=32|XSize=23.62mil|YSize=9.84mil|CornerRadius=1.48mil|HoleSize=0mil|Usage=FLASHONLY|Rotation=270.000|XOffset=0mil|YOffset=0mil|HoleType=Round|Shape=RoundedRectangle|*
%AMROUNDEDRECTD32*
21,1,0.02362,0.00689,0,0,270.0*
21,1,0.02067,0.00984,0,0,270.0*
1,1,0.00295,-0.00344,-0.01033*
1,1,0.00295,-0.00344,0.01033*
1,1,0.00295,0.00344,0.01033*
1,1,0.00295,0.00344,-0.01033*
%
%ADD32ROUNDEDRECTD32*%
G04:AMPARAMS|DCode=33|XSize=94.49mil|YSize=64.96mil|CornerRadius=1.62mil|HoleSize=0mil|Usage=FLASHONLY|Rotation=0.000|XOffset=0mil|YOffset=0mil|HoleType=Round|Shape=RoundedRectangle|*
%AMROUNDEDRECTD33*
21,1,0.09449,0.06171,0,0,0.0*
21,1,0.09124,0.06496,0,0,0.0*
1,1,0.00325,0.04562,-0.03086*
1,1,0.00325,-0.04562,-0.03086*
1,1,0.00325,-0.04562,0.03086*
1,1,0.00325,0.04562,0.03086*
%
%ADD33ROUNDEDRECTD33*%
G04:AMPARAMS|DCode=34|XSize=19.69mil|YSize=9.84mil|CornerRadius=0mil|HoleSize=0mil|Usage=FLASHONLY|Rotation=0.000|XOffset=0mil|YOffset=0mil|HoleType=Round|Shape=RoundedRectangle|*
%AMROUNDEDRECTD34*
21,1,0.01969,0.00984,0,0,0.0*
21,1,0.01969,0.00984,0,0,0.0*
1,1,0.00000,0.00985,-0.00492*
1,1,0.00000,-0.00985,-0.00492*
1,1,0.00000,-0.00985,0.00492*
1,1,0.00000,0.00985,0.00492*
%
%ADD34ROUNDEDRECTD34*%
G04:AMPARAMS|DCode=35|XSize=13.78mil|YSize=23.62mil|CornerRadius=1.38mil|HoleSize=0mil|Usage=FLASHONLY|Rotation=90.000|XOffset=0mil|YOffset=0mil|HoleType=Round|Shape=RoundedRectangle|*
%AMROUNDEDRECTD35*
21,1,0.01378,0.02087,0,0,90.0*
21,1,0.01102,0.02362,0,0,90.0*
1,1,0.00276,0.01043,0.00551*
1,1,0.00276,0.01043,-0.00551*
1,1,0.00276,-0.01043,-0.00551*
1,1,0.00276,-0.01043,0.00551*
%
%ADD35ROUNDEDRECTD35*%
G04:AMPARAMS|DCode=61|XSize=23.62mil|YSize=19.68mil|CornerRadius=4.92mil|HoleSize=0mil|Usage=FLASHONLY|Rotation=0.000|XOffset=0mil|YOffset=0mil|HoleType=Round|Shape=RoundedRectangle|*
%AMROUNDEDRECTD61*
21,1,0.02362,0.00984,0,0,0.0*
21,1,0.01378,0.01968,0,0,0.0*
1,1,0.00984,0.00689,-0.00492*
1,1,0.00984,-0.00689,-0.00492*
1,1,0.00984,-0.00689,0.00492*
1,1,0.00984,0.00689,0.00492*
%
%ADD61ROUNDEDRECTD61*%
%ADD62C,0.01600*%
%ADD63C,0.00700*%
%ADD64C,0.01400*%
%ADD65C,0.27559*%
%ADD66C,0.07400*%
%ADD67R,0.07400X0.07400*%
%ADD68C,0.09055*%
%ADD69R,0.05937X0.05937*%
%ADD70C,0.05937*%
%ADD71C,0.12000*%
%ADD72O,0.05906X0.11811*%
%ADD73O,0.05906X0.12992*%
%ADD74C,0.29134*%
%ADD75C,0.02000*%
D12*
X1157963Y765750D02*
Y771876D01*
X1047294Y655080D02*
X1157963Y765750D01*
X1047294Y636994D02*
Y655080D01*
X1045325Y655080D02*
X1147963Y757718D01*
X1045325Y636994D02*
Y655080D01*
X1147963Y757718D02*
Y771876D01*
X1043357Y636994D02*
Y655080D01*
X1137963Y749687D02*
Y771876D01*
X1043357Y655080D02*
X1137963Y749687D01*
X1041388Y655080D02*
X1127963Y741655D01*
Y771876D01*
X1041388Y636994D02*
Y655080D01*
X1039420Y655080D02*
X1117963Y733624D01*
X1039420Y636994D02*
Y655080D01*
X1117963Y733624D02*
Y771876D01*
X1107963Y725592D02*
Y771876D01*
X1037451Y655080D02*
X1107963Y725592D01*
X1037451Y636994D02*
Y655080D01*
X1033514Y657049D02*
X1036294Y659828D01*
X1033514Y631157D02*
Y657049D01*
X1035483Y636994D02*
Y657049D01*
X1038262Y659828D01*
X1154404Y691324D02*
X1197711Y734631D01*
X1154404Y681452D02*
Y691324D01*
Y681452D02*
X1156949Y678907D01*
X1156979D01*
X1157357Y678529D01*
X1022514Y718884D02*
X1027032Y723401D01*
X1029808D02*
X1031342Y721867D01*
X1027032Y723401D02*
X1029808D01*
X1038262Y659828D02*
Y736600D01*
X1036294Y659828D02*
Y732545D01*
X1001963Y766876D02*
X1036294Y732545D01*
X1011963Y762899D02*
X1038262Y736600D01*
X1031342Y721703D02*
Y721867D01*
Y721703D02*
X1031814Y721231D01*
Y720852D02*
Y721231D01*
X1024483Y716915D02*
X1028420Y720852D01*
X1024483Y604710D02*
Y716915D01*
X1022514Y602742D02*
Y718884D01*
Y602742D02*
X1024483Y600773D01*
X1040231D01*
X1046136Y606679D01*
X1050073D01*
X1024483Y604710D02*
X1026451Y602742D01*
X1038262D01*
X1042231Y606710D01*
Y610616D01*
X1168206Y662006D02*
Y663742D01*
Y662006D02*
X1168229Y661983D01*
X1168184Y663765D02*
X1168206Y663742D01*
X1033438Y631080D02*
X1033514Y631157D01*
X1035291Y632663D02*
X1036840Y631114D01*
X1035291Y632663D02*
Y636802D01*
X1035483Y636994D01*
X1154404Y667702D02*
X1156372Y665734D01*
X1159128D01*
X1161003Y666768D02*
X1161294Y667059D01*
X1160163Y666768D02*
X1161003D01*
X1159128Y665734D02*
X1160163Y666768D01*
X1161294Y667059D02*
Y667899D01*
X1154404Y663765D02*
X1162278D01*
X1163262Y664750D02*
Y667899D01*
X1162278Y663765D02*
X1163262Y664750D01*
X1034325Y606679D02*
Y610616D01*
X1057136Y644661D02*
X1057143Y644668D01*
X1057136Y636994D02*
Y644661D01*
X1127963Y581876D02*
X1128813Y582726D01*
Y592899D01*
X1137963Y581876D02*
X1138656Y582569D01*
X1130012Y593263D02*
X1136323D01*
X1138656Y590931D01*
X1129521Y593606D02*
X1129669D01*
X1130012Y593263D01*
X1138656Y582569D02*
Y590931D01*
X1147963Y581876D02*
X1148250Y582163D01*
X1141229Y594263D02*
X1148250Y587242D01*
Y582163D02*
Y587242D01*
X1130639Y594387D02*
X1130763Y594263D01*
X1141229D01*
X1130302Y594387D02*
X1130639D01*
X1157963Y581876D02*
X1158341Y582254D01*
Y588962D01*
X1151264Y596039D02*
X1158341Y588962D01*
X1131953Y596039D02*
X1151264D01*
X1059916Y632269D02*
X1095722D01*
X1059105Y636994D02*
X1059197Y636902D01*
Y632988D02*
X1059916Y632269D01*
X1059197Y632988D02*
Y636902D01*
X1055168Y636994D02*
X1055260Y636902D01*
Y632988D02*
X1058314Y629934D01*
X1055260Y632988D02*
Y636902D01*
X1053199Y636994D02*
X1053282Y636911D01*
Y632997D02*
X1057450Y628829D01*
X1053282Y632997D02*
Y636911D01*
X1051231Y636994D02*
X1051320Y636904D01*
Y633004D02*
X1056494Y627830D01*
X1051320Y633004D02*
Y636904D01*
X1095722Y632269D02*
X1131953Y596039D01*
X1094755Y629934D02*
X1130302Y594387D01*
X1058314Y629934D02*
X1094755D01*
X1094297Y628829D02*
X1129521Y593606D01*
X1057450Y628829D02*
X1094297D01*
X1093883Y627830D02*
X1128813Y592899D01*
X1056494Y627830D02*
X1093883D01*
X1049262Y644997D02*
X1050073Y645808D01*
X1049262Y636994D02*
Y644997D01*
X1050073Y645808D02*
Y646049D01*
Y606679D02*
Y610584D01*
X1050042Y610616D02*
X1050073Y610584D01*
X1036294Y614553D02*
X1037451Y615710D01*
Y621246D01*
X1039420Y615364D02*
X1040231Y614553D01*
X1039420Y615364D02*
Y621246D01*
X1001963Y766876D02*
Y771876D01*
X1011963Y762899D02*
Y771876D01*
X1198695Y670655D02*
X1242175Y627175D01*
X1259861D02*
X1264798Y632112D01*
X1242175Y627175D02*
X1259861D01*
X1200664Y672624D02*
X1241176Y632112D01*
X1254798D01*
X1259768Y637082D02*
X1264798Y642112D01*
X1240143Y637082D02*
X1259768D01*
X1202632Y674592D02*
X1240143Y637082D01*
X1173892Y670655D02*
X1198695D01*
X1173892Y672624D02*
X1200664D01*
X1173892Y674592D02*
X1202632D01*
X1236924Y652112D02*
X1254798D01*
X1208538Y680498D02*
X1236924Y652112D01*
X1173892Y680498D02*
X1208538D01*
X1238050Y647048D02*
X1259734D01*
X1206569Y678529D02*
X1238050Y647048D01*
X1173892Y678529D02*
X1206569D01*
X1239050Y642112D02*
X1254798D01*
X1204601Y676561D02*
X1239050Y642112D01*
X1173892Y676561D02*
X1204601D01*
X1259734Y647048D02*
X1264798Y652112D01*
X1258147Y657272D02*
X1262516Y661641D01*
X1249480Y657272D02*
X1258147D01*
X1262516Y661641D02*
X1264327D01*
X1219365Y687387D02*
X1249480Y657272D01*
X1222745Y689356D02*
X1249989Y662112D01*
X1254798D01*
X1173057Y687387D02*
X1219365D01*
X1171136Y683253D02*
X1171161Y683278D01*
Y685491D01*
X1173057Y687387D01*
X1172120Y689356D02*
X1222745D01*
X1169310Y683395D02*
Y686545D01*
X1172120Y689356D01*
X1169168Y683253D02*
X1169310Y683395D01*
X1252376Y667204D02*
X1259890D01*
X1168184Y693293D02*
X1226287D01*
X1252376Y667204D01*
X1251117Y677207D02*
X1259893D01*
X1231094Y697230D02*
X1251117Y677207D01*
X1259893D02*
X1264798Y682112D01*
X1259890Y667204D02*
X1264798Y672112D01*
X1168184Y695261D02*
X1229207D01*
X1251056Y673413D01*
X1253496D02*
X1254798Y672112D01*
X1251056Y673413D02*
X1253496D01*
X1233144Y699198D02*
X1250231Y682112D01*
X1168184Y699198D02*
X1233144D01*
X1250231Y682112D02*
X1254798D01*
X1165231Y690340D02*
X1168184Y693293D01*
X1163262Y690340D02*
X1168184Y695261D01*
X1161294Y690340D02*
X1168184Y697230D01*
X1231094D01*
X1158538Y689553D02*
X1168184Y699198D01*
X1165231Y683253D02*
Y690340D01*
X1163262Y683253D02*
Y690340D01*
X1161294Y683253D02*
Y690340D01*
X1158538Y680498D02*
Y689553D01*
X1152435Y681452D02*
X1156949Y676939D01*
X1152435Y691324D02*
X1197711Y736600D01*
X1152435Y681452D02*
Y691324D01*
X1150467Y681452D02*
X1156949Y674970D01*
X1150467Y691324D02*
X1197711Y738568D01*
X1150467Y681452D02*
Y691324D01*
X1148498Y681452D02*
Y691324D01*
X1197711Y740537D01*
X1148498Y681452D02*
X1156649Y673302D01*
X1197711Y740537D02*
X1217396D01*
X1223302Y746443D01*
Y756285D01*
X1197711Y734631D02*
X1223302D01*
X1239050Y750380D01*
Y756285D01*
X1221333Y736600D02*
X1235113Y750380D01*
Y756285D01*
X1197711Y736600D02*
X1221333D01*
X1219365Y738568D02*
X1227239Y746443D01*
Y756285D01*
X1197711Y738568D02*
X1219365D01*
X1156649Y673302D02*
X1156715D01*
X1157066Y672950D01*
Y672914D02*
Y672950D01*
Y672914D02*
X1157357Y672624D01*
X1158538D01*
X1156949Y674970D02*
X1156979D01*
X1157357Y674592D02*
X1158538D01*
X1156979Y674970D02*
X1157357Y674592D01*
X1156949Y676939D02*
X1156979D01*
X1157357Y676561D01*
X1158538D01*
X1157357Y678529D02*
X1158538D01*
X1264327Y661641D02*
X1264798Y662112D01*
X1030325Y606742D02*
X1030388Y606679D01*
X1030325Y606742D02*
Y610616D01*
X1054042D02*
X1057947D01*
X1050042D02*
Y610988D01*
X1049262Y611768D02*
Y621246D01*
Y611768D02*
X1050042Y610988D01*
X1043024Y611409D02*
X1047294Y615679D01*
X1042231Y610616D02*
Y610834D01*
X1047294Y615679D02*
Y621246D01*
X1042806Y611409D02*
X1043024D01*
X1042231Y610834D02*
X1042806Y611409D01*
X1033514Y611799D02*
X1034325Y610988D01*
Y610616D02*
Y610988D01*
X1033514Y611799D02*
Y621246D01*
X1206557Y774757D02*
X1209522D01*
X1206459Y774659D02*
X1206557Y774757D01*
X1213459D02*
X1216803D01*
X1216868Y774823D01*
X982019Y681528D02*
Y684065D01*
X980948Y685136D02*
X982019Y684065D01*
X980948Y685136D02*
Y686695D01*
X980967Y686714D01*
X980983Y689557D02*
X981175Y689749D01*
X980967Y688517D02*
X980983Y688533D01*
Y689557D01*
X980967Y686714D02*
Y688517D01*
X982857Y686136D02*
Y686515D01*
X983144Y686803D02*
Y689749D01*
X982857Y686515D02*
X983144Y686803D01*
X1171427Y666428D02*
X1173700Y664154D01*
X1173991Y663765D02*
X1174089D01*
X1171136Y666718D02*
Y667899D01*
Y666718D02*
X1171427Y666428D01*
X1171427D01*
X1173700Y664056D02*
Y664154D01*
Y664056D02*
X1173991Y663765D01*
X1167199Y664750D02*
X1167795Y664154D01*
X1168184Y663765D02*
Y663864D01*
X1167199Y664750D02*
Y667899D01*
X1167795Y664154D02*
X1167893D01*
X1168184Y663864D01*
D14*
X994873Y606761D02*
Y685348D01*
Y606761D02*
X1010703Y590931D01*
X1073695D01*
X1077126Y587500D01*
Y582713D02*
X1077963Y581876D01*
X1077126Y582713D02*
Y587500D01*
X985113Y677545D02*
Y679419D01*
X985176Y679482D01*
X979207Y677545D02*
Y679450D01*
X1241609Y730663D02*
X1241895Y730377D01*
X1242190Y729739D02*
X1242987Y728942D01*
X1241895Y730377D02*
X1242190D01*
Y729739D02*
Y730377D01*
X1242987Y728726D02*
Y728942D01*
X1239050Y726541D02*
Y726757D01*
X1239578Y723923D02*
X1240206Y723295D01*
X1239578Y723923D02*
Y726012D01*
X1239050Y726541D02*
X1239578Y726012D01*
X1238944Y726863D02*
X1239050Y726757D01*
X1238944Y726863D02*
Y729391D01*
X1051250Y624189D02*
Y627155D01*
X1050073Y628332D02*
X1051250Y627155D01*
X1044168Y628332D02*
X1050073D01*
X1027609Y636994D02*
Y645238D01*
X1029577Y645238D02*
X1030388Y646049D01*
X1029577Y636994D02*
Y645238D01*
X1030388Y646049D02*
X1031546Y644891D01*
Y636994D02*
Y644891D01*
X1032357Y628332D02*
X1036294D01*
X1030388D02*
X1032357D01*
X1031546Y627521D02*
X1032357Y628332D01*
X1031546Y621246D02*
Y627521D01*
X1028420Y628332D02*
X1030388D01*
X1029577Y627521D02*
X1030388Y628332D01*
X1029577Y621246D02*
Y627521D01*
X1042091Y628332D02*
X1044168D01*
X1042091D02*
X1043357Y627067D01*
X1036294Y628332D02*
X1042091D01*
X1027609Y621246D02*
Y627521D01*
X1028420Y628332D01*
X1053518Y614553D02*
X1054994D01*
X1052042D02*
X1053518D01*
X1053199Y614872D02*
Y621246D01*
Y614872D02*
X1053518Y614553D01*
X1054994D02*
X1057947D01*
X1054994D02*
X1055168Y614726D01*
Y621246D01*
X1057947Y614553D02*
X1059916D01*
X1057136Y615364D02*
X1057947Y614553D01*
X1057136Y615364D02*
Y621246D01*
X1059916Y614553D02*
X1061884D01*
X1059105Y615364D02*
X1059916Y614553D01*
X1059105Y615364D02*
Y621246D01*
X1061884Y614553D02*
X1063853D01*
X1061073Y615364D02*
X1061884Y614553D01*
X1061073Y615364D02*
Y621246D01*
X1063042Y615364D02*
Y621246D01*
Y615364D02*
X1063853Y614553D01*
X1065010Y615710D02*
Y621246D01*
X1063853Y614553D02*
X1065010Y615710D01*
X1051231Y615364D02*
Y621246D01*
Y615364D02*
X1052042Y614553D01*
X1045325Y621246D02*
Y627175D01*
X1044168Y628332D02*
X1045325Y627175D01*
X1043357Y621246D02*
Y627067D01*
X1041388Y621246D02*
Y627629D01*
X1042091Y628332D01*
X1035483Y621246D02*
Y627521D01*
X1036294Y628332D01*
X1167199Y676561D02*
Y683253D01*
X1166215Y675576D02*
X1167199Y676561D01*
X1227239Y774789D02*
X1235113D01*
X1242258Y718884D02*
X1244955D01*
X1241274Y717899D02*
X1242258Y718884D01*
X1241018Y717899D02*
X1241274D01*
X1240206Y723295D02*
X1240681Y722821D01*
X1244955D01*
Y718884D02*
X1245099Y718740D01*
X1170152Y651954D02*
Y655891D01*
X1166215Y651954D02*
Y655891D01*
X1160309Y650202D02*
X1160590Y650483D01*
X1160309Y649986D02*
Y650202D01*
X1160590Y650483D02*
Y654023D01*
X1160446Y670655D02*
X1160462Y670671D01*
X1158538Y670655D02*
X1160446D01*
X1160462Y670671D02*
X1161309D01*
X1162278Y671639D01*
X1162278D01*
X991953Y687987D02*
X992731Y688765D01*
X991953Y687732D02*
Y687987D01*
X991487Y685392D02*
Y687266D01*
X992731Y688765D02*
X992987D01*
X991487Y687266D02*
X991953Y687732D01*
X1213459Y757218D02*
X1213503Y757174D01*
X1213459Y757218D02*
Y760159D01*
X1248892Y726757D02*
X1249876Y727742D01*
X1245536Y723402D02*
X1248892Y726757D01*
X1245546Y730600D02*
X1245841D01*
X1246127Y730314D01*
Y729523D02*
Y730314D01*
Y729523D02*
X1248892Y726757D01*
X1240206Y714437D02*
Y717389D01*
X1245099Y715974D02*
X1256711D01*
X1258636Y717899D01*
X1245099Y715974D02*
Y718740D01*
X1249876Y727742D02*
X1258636D01*
X1223302Y774789D02*
X1227239D01*
X1235113D02*
X1239050D01*
X1227239Y764190D02*
Y769277D01*
X1223302Y764190D02*
X1223302Y764191D01*
Y769277D01*
X1239050Y764190D02*
Y769277D01*
X1235113Y764159D02*
Y769277D01*
X1209522Y760159D02*
X1213459D01*
X1213459Y764159D02*
Y769246D01*
Y764159D02*
X1213459Y764159D01*
X1209522D02*
Y769246D01*
X999148Y702545D02*
X999926Y703323D01*
X1003617Y707269D02*
Y727545D01*
X999926Y703579D02*
X1003617Y707269D01*
X999926Y703323D02*
Y703579D01*
X998892Y702545D02*
X999148D01*
X1001943Y729218D02*
X1003617Y727545D01*
X992987Y729218D02*
X1001943D01*
X987278Y729907D02*
X987967Y729218D01*
X992987D01*
X987081Y729907D02*
X987278D01*
X980226Y723224D02*
X981004Y724002D01*
X980226Y721955D02*
Y723224D01*
X979207Y720936D02*
X980226Y721955D01*
X981004Y724002D02*
X981176D01*
X979207Y720852D02*
Y720936D01*
X982125Y721955D02*
Y723224D01*
Y721955D02*
X983144Y720936D01*
X981176Y724002D02*
X981347D01*
X982125Y723224D01*
X983144Y720852D02*
Y720936D01*
X987081Y722821D02*
Y725970D01*
X992987Y722821D02*
Y726659D01*
X992987Y726659D01*
X981175Y700773D02*
X981176Y700774D01*
Y704513D01*
X981188Y708526D02*
Y710727D01*
X981200Y710739D01*
X981176Y708513D02*
X981188Y708526D01*
X981176Y708513D02*
X985113D01*
X985180Y708581D01*
Y710623D01*
X985248Y710691D01*
X977826Y702798D02*
X978884Y701740D01*
Y701570D02*
Y701740D01*
X977826Y705164D02*
X980595Y707932D01*
X978884Y701570D02*
X979207Y701246D01*
X977826Y702798D02*
Y705164D01*
X979207Y697230D02*
Y701246D01*
X984128Y696245D02*
X988853D01*
X991953Y695449D02*
Y695542D01*
Y695449D02*
X992731Y694671D01*
X988853Y696245D02*
X991250D01*
X991953Y695542D01*
X992731Y694671D02*
X992987D01*
X986097Y694277D02*
X988853D01*
X992593D01*
X992987Y694671D01*
X991747Y689749D02*
X992731Y688765D01*
X987081Y689749D02*
X991747D01*
X979207Y683450D02*
Y689749D01*
X985113Y683482D02*
Y689749D01*
X977435Y696245D02*
X980191D01*
X977435Y694277D02*
X982160D01*
X980191Y696245D02*
X981176Y697230D01*
X985113Y693293D02*
X986097Y694277D01*
X983144Y695261D02*
X984128Y696245D01*
X982160Y694277D02*
X983144Y695261D01*
Y700773D01*
X985113Y700774D02*
Y704513D01*
Y700774D02*
X985113Y700773D01*
X992987Y702545D02*
X998892D01*
X987081Y700773D02*
X991215D01*
X992406Y701964D01*
X996357Y693285D02*
X996365Y693293D01*
X998892D01*
X997858Y697417D02*
X998636Y696639D01*
X997858Y697417D02*
Y697434D01*
X997155Y698137D02*
X997858Y697434D01*
X995887Y698137D02*
X997155D01*
X998636Y696639D02*
X998892D01*
X995741Y698283D02*
X995887Y698137D01*
X992987Y694671D02*
Y698608D01*
X993232Y698362D02*
X995662D01*
X995741Y698283D01*
X992987Y698608D02*
X993232Y698362D01*
X998892Y693293D02*
X998892Y693293D01*
X998892Y693293D02*
Y696639D01*
X994629Y693285D02*
X996357D01*
X992987Y694671D02*
X993242D01*
X994629Y693285D01*
X1161624Y654801D02*
Y655057D01*
X1160846Y654023D02*
X1161624Y654801D01*
X1160590Y654023D02*
X1160846D01*
X1162458Y655891D02*
X1166215D01*
X1161624Y655057D02*
X1162458Y655891D01*
X1166215D02*
X1170152D01*
D20*
X1276514Y777976D02*
G03*
X1272514Y781876I-3950J-50D01*
G01*
X1272614Y571876D02*
G03*
X1276514Y575876I-50J3950D01*
G01*
X927963Y575876D02*
G03*
X931963Y571876I4000J0D01*
G01*
Y781876D02*
G03*
X927963Y777976I-50J-3950D01*
G01*
X1276514Y575876D02*
Y777976D01*
X1181963Y781876D02*
X1272514D01*
X931963D02*
X1181963D01*
X931963Y571876D02*
X1272614D01*
X927963Y575876D02*
Y777976D01*
D21*
X1050042Y610616D02*
D03*
X1054042D02*
D03*
X1034325D02*
D03*
X1030325D02*
D03*
X1042231D02*
D03*
X1038231D02*
D03*
D22*
X1166215Y675576D02*
D03*
D23*
X1171136Y667899D02*
D03*
X1169168D02*
D03*
X1167199D02*
D03*
X1165231D02*
D03*
X1163262D02*
D03*
X1161294D02*
D03*
Y683253D02*
D03*
X1163262D02*
D03*
X1165231D02*
D03*
X1167199D02*
D03*
X1169168D02*
D03*
X1171136D02*
D03*
D24*
X1158538Y670655D02*
D03*
Y672624D02*
D03*
Y674592D02*
D03*
Y676561D02*
D03*
Y678529D02*
D03*
Y680498D02*
D03*
X1173892D02*
D03*
Y678529D02*
D03*
Y676561D02*
D03*
Y674592D02*
D03*
Y672624D02*
D03*
Y670655D02*
D03*
D26*
X1160590Y659929D02*
D03*
Y654023D02*
D03*
X1240206Y717389D02*
D03*
Y723295D02*
D03*
X992987Y688765D02*
D03*
Y694671D02*
D03*
X998892Y702545D02*
D03*
Y696639D02*
D03*
X981176Y729907D02*
D03*
Y724002D02*
D03*
D27*
X1168184Y663765D02*
D03*
X1166018D02*
D03*
D28*
X1174089D02*
D03*
Y661600D02*
D03*
D29*
X1239050Y760190D02*
D03*
Y764190D02*
D03*
X1235113Y760159D02*
D03*
Y764159D02*
D03*
X1227239Y760190D02*
D03*
Y764190D02*
D03*
X1223302Y760190D02*
D03*
Y764190D02*
D03*
X1241609Y734663D02*
D03*
Y730663D02*
D03*
X1245546Y730600D02*
D03*
Y734600D02*
D03*
X981176Y704513D02*
D03*
Y708513D02*
D03*
X985113D02*
D03*
Y704513D02*
D03*
X985113Y679482D02*
D03*
Y683482D02*
D03*
X979207Y679450D02*
D03*
Y683450D02*
D03*
X1209522Y764159D02*
D03*
Y760159D02*
D03*
X1213459Y764159D02*
D03*
Y760159D02*
D03*
D30*
X1235113Y769277D02*
D03*
X1239050D02*
D03*
Y774789D02*
D03*
X1235113D02*
D03*
X1223302Y769277D02*
D03*
X1227239D02*
D03*
Y774789D02*
D03*
X1223302D02*
D03*
X1209522Y774757D02*
D03*
X1213459D02*
D03*
Y769246D02*
D03*
X1209522D02*
D03*
D31*
X1059105Y621246D02*
D03*
X1057136D02*
D03*
X1065010Y636994D02*
D03*
X1063042D02*
D03*
X1061073D02*
D03*
X1059105D02*
D03*
X1057136D02*
D03*
X1037451D02*
D03*
X1045325Y621246D02*
D03*
X1037451D02*
D03*
X1029577D02*
D03*
X1055168Y636994D02*
D03*
X1053199D02*
D03*
X1051231D02*
D03*
X1065010Y621246D02*
D03*
X1063042D02*
D03*
X1061073D02*
D03*
X1055168D02*
D03*
X1053199D02*
D03*
X1051231D02*
D03*
X1041388D02*
D03*
X1043357D02*
D03*
X1039420D02*
D03*
X1035483D02*
D03*
X1031546D02*
D03*
X1027609D02*
D03*
Y636994D02*
D03*
X1031546D02*
D03*
X1029577D02*
D03*
X1043357D02*
D03*
X1049262Y621246D02*
D03*
Y636994D02*
D03*
X1047294Y621246D02*
D03*
Y636994D02*
D03*
X1045325D02*
D03*
X1035483D02*
D03*
X1033514Y621246D02*
D03*
Y636994D02*
D03*
X1041388D02*
D03*
X1039420D02*
D03*
D32*
X987081Y700773D02*
D03*
X985113D02*
D03*
X983144D02*
D03*
X981175D02*
D03*
X979207D02*
D03*
Y689749D02*
D03*
X981175D02*
D03*
X983144D02*
D03*
X985113D02*
D03*
X987081D02*
D03*
D33*
X983144Y695261D02*
D03*
D34*
X988853Y696245D02*
D03*
Y694277D02*
D03*
X977435Y696245D02*
D03*
Y694277D02*
D03*
D35*
X992987Y726659D02*
D03*
Y729218D02*
D03*
D61*
X1166215Y659828D02*
D03*
Y655891D02*
D03*
X1170152Y659828D02*
D03*
Y655891D02*
D03*
X1244955Y722821D02*
D03*
Y718884D02*
D03*
X992987Y698608D02*
D03*
Y702545D02*
D03*
X987081Y725970D02*
D03*
Y729907D02*
D03*
D62*
X1003617Y609828D02*
Y707269D01*
Y609828D02*
X1018577Y594868D01*
X1103223D01*
X1107963Y581876D02*
Y590128D01*
X1103223Y594868D02*
X1107963Y590128D01*
X954751Y743391D02*
X955434Y742708D01*
Y736752D02*
Y742708D01*
Y736752D02*
X962278Y729907D01*
X981176D01*
X981176Y729907D01*
X987081D01*
D63*
X1237113Y734600D02*
X1245546D01*
X1237081Y734631D02*
X1237113Y734600D01*
X1038231Y606710D02*
X1038262Y606679D01*
X1038231Y606710D02*
Y610616D01*
D64*
X1169926Y659602D02*
X1170152Y659828D01*
X1166441Y659602D02*
X1169926D01*
X1166215Y659828D02*
X1166441Y659602D01*
X1170152Y659828D02*
X1172331D01*
X1169168Y665443D02*
X1172331Y662280D01*
Y659828D02*
Y662280D01*
X1165034Y661010D02*
Y662781D01*
X1165734Y660113D02*
X1166018Y659828D01*
X1165734Y660113D02*
Y660310D01*
X1165034Y662781D02*
X1166018Y663765D01*
Y659828D02*
X1166215D01*
X1165034Y661010D02*
X1165734Y660310D01*
X1160559Y659898D02*
X1160590Y659929D01*
X1157371Y659898D02*
X1160559D01*
X1157340Y659867D02*
X1157371Y659898D01*
X1160590Y659929D02*
X1160691Y659828D01*
X1061073Y636994D02*
Y643107D01*
X1061884Y643918D01*
Y644080D01*
X1063042Y636994D02*
Y642303D01*
X1064813Y644074D01*
X1065010Y636994D02*
Y641301D01*
X1067790Y644080D01*
X1227239Y756285D02*
Y760190D01*
X1223302Y756285D02*
Y760190D01*
X1239050Y756285D02*
Y760190D01*
X1235113Y756285D02*
X1235113Y756285D01*
Y760159D01*
X1177487Y661682D02*
X1177911D01*
X1178026Y661797D01*
X1174089Y661600D02*
X1177405D01*
X1177487Y661682D01*
X1172120Y659828D02*
X1173892Y661600D01*
X1174089D01*
X1160691Y659828D02*
X1166215D01*
X1169168Y665443D02*
Y667899D01*
X1165231Y664553D02*
X1166018Y663765D01*
X1165231Y664553D02*
Y667899D01*
D65*
X941805Y766128D02*
D03*
X941805Y586994D02*
D03*
X1260703D02*
D03*
Y766128D02*
D03*
D66*
X1254798Y692112D02*
D03*
X1264798D02*
D03*
X1254798Y682112D02*
D03*
X1264798D02*
D03*
X1254798Y652112D02*
D03*
Y642112D02*
D03*
Y632112D02*
D03*
Y622112D02*
D03*
X1264798Y652112D02*
D03*
Y642112D02*
D03*
Y632112D02*
D03*
Y662112D02*
D03*
Y672112D02*
D03*
X1254798Y662112D02*
D03*
Y672112D02*
D03*
D67*
X1264798Y622112D02*
D03*
D68*
X1037963Y581876D02*
D03*
X1047963D02*
D03*
X1057963D02*
D03*
X1067963D02*
D03*
X1077963D02*
D03*
X1087963D02*
D03*
X1097963D02*
D03*
X1107963D02*
D03*
X1127963D02*
D03*
X1137963D02*
D03*
X1147963D02*
D03*
X1157963D02*
D03*
X1167963D02*
D03*
X1177963D02*
D03*
X1091963Y771876D02*
D03*
X1081963D02*
D03*
X1071963D02*
D03*
X1061963D02*
D03*
X1051963D02*
D03*
X1041963D02*
D03*
X1031963D02*
D03*
X1021963D02*
D03*
X1011963D02*
D03*
X1001963D02*
D03*
X1177963D02*
D03*
X1167963D02*
D03*
X1157963D02*
D03*
X1147963D02*
D03*
X1137963D02*
D03*
X1127963D02*
D03*
X1117963D02*
D03*
X1107963D02*
D03*
D69*
X1258636Y717899D02*
D03*
D70*
Y727742D02*
D03*
D71*
X967743Y768194D02*
D03*
D72*
X954751Y743391D02*
D03*
X968137D02*
D03*
X988609D02*
D03*
D73*
X992152Y772131D02*
D03*
X953176D02*
D03*
D74*
X1221506Y621246D02*
D03*
X1221506Y717702D02*
D03*
X943947D02*
D03*
Y621246D02*
D03*
D75*
X1031814Y720852D02*
D03*
X1028420D02*
D03*
X985113Y677545D02*
D03*
X979207D02*
D03*
X1242987Y728726D02*
D03*
X1238944Y729391D02*
D03*
X1239050Y726757D02*
D03*
X1237081Y734631D02*
D03*
X1028420Y628332D02*
D03*
X1036294D02*
D03*
X1044168D02*
D03*
X1050073D02*
D03*
X1063853Y614553D02*
D03*
X1060900D02*
D03*
X1056471D02*
D03*
X1052780D02*
D03*
X1168229Y661983D02*
D03*
X1033438Y631080D02*
D03*
X1036840Y631114D02*
D03*
X1157340Y659867D02*
D03*
X1154404Y663765D02*
D03*
Y667702D02*
D03*
X1034325Y606679D02*
D03*
X1031546Y644891D02*
D03*
X1027609Y645238D02*
D03*
X1003617Y707269D02*
D03*
X1064813Y644074D02*
D03*
X1067790Y644080D02*
D03*
X1061884D02*
D03*
X1057143Y644668D02*
D03*
X1050073Y646049D02*
D03*
X1047294Y615679D02*
D03*
X1050073Y606679D02*
D03*
X1036294Y614553D02*
D03*
X1040231D02*
D03*
X1030388Y606679D02*
D03*
X1038262D02*
D03*
X1057947Y610616D02*
D03*
X1235113Y756285D02*
D03*
X1239050D02*
D03*
X1223302D02*
D03*
X1227239D02*
D03*
X1160309Y649986D02*
D03*
X1166215Y651954D02*
D03*
X1170152D02*
D03*
X1178026Y661797D02*
D03*
X981176Y695261D02*
D03*
X985113D02*
D03*
X991487Y685392D02*
D03*
X994873Y685348D02*
D03*
X1213503Y757174D02*
D03*
X1206459Y774659D02*
D03*
X1216868Y774823D02*
D03*
X1245099Y715974D02*
D03*
X1240206Y714437D02*
D03*
X1231361Y774783D02*
D03*
X992987Y722821D02*
D03*
X987081D02*
D03*
X983144Y720852D02*
D03*
X979207D02*
D03*
X985248Y710691D02*
D03*
X981200Y710739D02*
D03*
X977826Y702843D02*
D03*
X982857Y686136D02*
D03*
X982019Y681528D02*
D03*
X995741Y698283D02*
D03*
X996357Y693285D02*
D03*
X998892Y693293D02*
D03*
X979207D02*
D03*
Y697230D02*
D03*
X981176D02*
D03*
Y693293D02*
D03*
X987081D02*
D03*
Y697230D02*
D03*
X985113Y693293D02*
D03*
Y697230D02*
D03*
X983144Y695261D02*
D03*
X1166215Y671639D02*
D03*
X1166325Y679293D02*
D03*
X1170152Y675576D02*
D03*
X1162278D02*
D03*
Y679513D02*
D03*
X1170152D02*
D03*
Y671639D02*
D03*
X1162278D02*
D03*
X1166215Y675576D02*
D03*
M02*
