G04*
G04 #@! TF.GenerationSoftware,Altium Limited,Altium Designer,24.5.2 (23)*
G04*
G04 Layer_Physical_Order=4*
G04 Layer_Color=16711680*
%FSLAX25Y25*%
%MOIN*%
G70*
G04*
G04 #@! TF.SameCoordinates,8268167A-419A-4E4C-BA15-56D98ABE09BB*
G04*
G04*
G04 #@! TF.FilePolarity,Positive*
G04*
G01*
G75*
%ADD12C,0.00600*%
%ADD14C,0.01200*%
%ADD20C,0.00100*%
%ADD65C,0.27559*%
%ADD66C,0.07400*%
%ADD67R,0.07400X0.07400*%
%ADD68C,0.09055*%
%ADD69R,0.05937X0.05937*%
%ADD70C,0.05937*%
%ADD71C,0.12000*%
%ADD72O,0.05906X0.11811*%
%ADD73O,0.05906X0.12992*%
%ADD75C,0.02000*%
D12*
X1089443Y697230D02*
Y767297D01*
X1061884Y657860D02*
Y669671D01*
X1089443Y697230D01*
X1065821Y667702D02*
X1162278Y764159D01*
X1065821Y656539D02*
Y667702D01*
X1049426Y640143D02*
X1065821Y656539D01*
X1063853Y667702D02*
X1167963Y771813D01*
X1049440Y642112D02*
X1063853Y656524D01*
Y667702D01*
X1050073Y646049D02*
X1061884Y657860D01*
X1028420Y720852D02*
X1051963Y744395D01*
Y771876D01*
X1032082Y721120D02*
X1032625D01*
X1061963Y750458D01*
X1031814Y720852D02*
X1032082Y721120D01*
X1061963Y750458D02*
Y771876D01*
X1042199Y766128D02*
Y771639D01*
X1024483Y676561D02*
Y748411D01*
X1042199Y766128D01*
X1036294Y644080D02*
Y664750D01*
X1024483Y676561D02*
X1036294Y664750D01*
X1024483Y620458D02*
X1034325Y610616D01*
X1024483Y632269D02*
X1036294Y644080D01*
X1024483Y620458D02*
Y632269D01*
X1025868Y621041D02*
Y631686D01*
Y621041D02*
X1032357Y614553D01*
X1036294D01*
X1025868Y631686D02*
X1036294Y642112D01*
X1031597Y627124D02*
Y633108D01*
X1036664Y638175D02*
X1050650D01*
X1031597Y633108D02*
X1036664Y638175D01*
X1030388Y634238D02*
X1036294Y640143D01*
X1030388Y624395D02*
Y634238D01*
X1036294Y640143D02*
X1049426D01*
X1036294Y642112D02*
X1049440D01*
X1036294Y607668D02*
X1042306Y613680D01*
X1031597Y627124D02*
X1042306Y616415D01*
Y613680D02*
Y616415D01*
X1036294Y604710D02*
Y607668D01*
Y604710D02*
X1057963Y583041D01*
Y581876D02*
Y583041D01*
X1050650Y638175D02*
X1057143Y644668D01*
X1162278Y653923D02*
X1168229Y659874D01*
Y661983D01*
X1162278Y644080D02*
Y653923D01*
X1057947Y610616D02*
X1128813D01*
X1162278Y644080D01*
X1041963Y771876D02*
X1042199Y771639D01*
X1034325Y606679D02*
Y610616D01*
X1089443Y767297D02*
X1091963Y769816D01*
Y771876D01*
X1174089Y764159D02*
X1176729Y766799D01*
Y770642D02*
X1177963Y771876D01*
X1176729Y766799D02*
Y770642D01*
X1162278Y764159D02*
X1174089D01*
X1030388Y624395D02*
X1040231Y614553D01*
X1167963Y771813D02*
Y771876D01*
X1150467Y667702D02*
X1154404D01*
X1117002Y634238D02*
X1150467Y667702D01*
X1036294Y634238D02*
X1117002D01*
X1033438Y631080D02*
Y631382D01*
X1036294Y634238D01*
X1150467Y663765D02*
X1154404D01*
X1117815Y631114D02*
X1150467Y663765D01*
X1036840Y631114D02*
X1117815D01*
D14*
X994830Y685392D02*
X994873Y685348D01*
X991487Y685392D02*
X994830D01*
X994873Y677973D02*
Y685348D01*
Y677973D02*
X1027609Y645238D01*
X1027825D02*
X1028172Y644891D01*
X1031546D01*
X1027609Y645238D02*
X1027825D01*
D20*
X1276514Y777976D02*
G03*
X1272514Y781876I-3950J-50D01*
G01*
X1272614Y571876D02*
G03*
X1276514Y575876I-50J3950D01*
G01*
X927963Y575876D02*
G03*
X931963Y571876I4000J0D01*
G01*
Y781876D02*
G03*
X927963Y777976I-50J-3950D01*
G01*
X1276514Y575876D02*
Y777976D01*
X1181963Y781876D02*
X1272514D01*
X931963D02*
X1181963D01*
X931963Y571876D02*
X1272614D01*
X927963Y575876D02*
Y777976D01*
D65*
X941805Y766128D02*
D03*
X941805Y586994D02*
D03*
X1260703D02*
D03*
Y766128D02*
D03*
D66*
X1254798Y692112D02*
D03*
X1264798D02*
D03*
X1254798Y682112D02*
D03*
X1264798D02*
D03*
X1254798Y652112D02*
D03*
Y642112D02*
D03*
Y632112D02*
D03*
Y622112D02*
D03*
X1264798Y652112D02*
D03*
Y642112D02*
D03*
Y632112D02*
D03*
Y662112D02*
D03*
Y672112D02*
D03*
X1254798Y662112D02*
D03*
Y672112D02*
D03*
D67*
X1264798Y622112D02*
D03*
D68*
X1037963Y581876D02*
D03*
X1047963D02*
D03*
X1057963D02*
D03*
X1067963D02*
D03*
X1077963D02*
D03*
X1087963D02*
D03*
X1097963D02*
D03*
X1107963D02*
D03*
X1127963D02*
D03*
X1137963D02*
D03*
X1147963D02*
D03*
X1157963D02*
D03*
X1167963D02*
D03*
X1177963D02*
D03*
X1091963Y771876D02*
D03*
X1081963D02*
D03*
X1071963D02*
D03*
X1061963D02*
D03*
X1051963D02*
D03*
X1041963D02*
D03*
X1031963D02*
D03*
X1021963D02*
D03*
X1011963D02*
D03*
X1001963D02*
D03*
X1177963D02*
D03*
X1167963D02*
D03*
X1157963D02*
D03*
X1147963D02*
D03*
X1137963D02*
D03*
X1127963D02*
D03*
X1117963D02*
D03*
X1107963D02*
D03*
D69*
X1258636Y717899D02*
D03*
D70*
Y727742D02*
D03*
D71*
X967743Y768194D02*
D03*
D72*
X954751Y743391D02*
D03*
X968137D02*
D03*
X988609D02*
D03*
D73*
X992152Y772131D02*
D03*
X953176D02*
D03*
D75*
X1031814Y720852D02*
D03*
X1028420D02*
D03*
X985113Y677545D02*
D03*
X979207D02*
D03*
X1242987Y728726D02*
D03*
X1238944Y729391D02*
D03*
X1239050Y726757D02*
D03*
X1237081Y734631D02*
D03*
X1028420Y628332D02*
D03*
X1036294D02*
D03*
X1044168D02*
D03*
X1050073D02*
D03*
X1063853Y614553D02*
D03*
X1060900D02*
D03*
X1056471D02*
D03*
X1052780D02*
D03*
X1168229Y661983D02*
D03*
X1033438Y631080D02*
D03*
X1036840Y631114D02*
D03*
X1157340Y659867D02*
D03*
X1154404Y663765D02*
D03*
Y667702D02*
D03*
X1034325Y606679D02*
D03*
X1031546Y644891D02*
D03*
X1027609Y645238D02*
D03*
X1003617Y707269D02*
D03*
X1064813Y644074D02*
D03*
X1067790Y644080D02*
D03*
X1061884D02*
D03*
X1057143Y644668D02*
D03*
X1050073Y646049D02*
D03*
X1047294Y615679D02*
D03*
X1050073Y606679D02*
D03*
X1036294Y614553D02*
D03*
X1040231D02*
D03*
X1030388Y606679D02*
D03*
X1038262D02*
D03*
X1057947Y610616D02*
D03*
X1235113Y756285D02*
D03*
X1239050D02*
D03*
X1223302D02*
D03*
X1227239D02*
D03*
X1160309Y649986D02*
D03*
X1166215Y651954D02*
D03*
X1170152D02*
D03*
X1178026Y661797D02*
D03*
X981176Y695261D02*
D03*
X985113D02*
D03*
X991487Y685392D02*
D03*
X994873Y685348D02*
D03*
X1213503Y757174D02*
D03*
X1206459Y774659D02*
D03*
X1216868Y774823D02*
D03*
X1245099Y715974D02*
D03*
X1240206Y714437D02*
D03*
X1231361Y774783D02*
D03*
X992987Y722821D02*
D03*
X987081D02*
D03*
X983144Y720852D02*
D03*
X979207D02*
D03*
X985248Y710691D02*
D03*
X981200Y710739D02*
D03*
X977826Y702843D02*
D03*
X982857Y686136D02*
D03*
X982019Y681528D02*
D03*
X995741Y698283D02*
D03*
X996357Y693285D02*
D03*
X998892Y693293D02*
D03*
X979207D02*
D03*
Y697230D02*
D03*
X981176D02*
D03*
Y693293D02*
D03*
X987081D02*
D03*
Y697230D02*
D03*
X985113Y693293D02*
D03*
Y697230D02*
D03*
X983144Y695261D02*
D03*
X1166215Y671639D02*
D03*
X1166325Y679293D02*
D03*
X1170152Y675576D02*
D03*
X1162278D02*
D03*
Y679513D02*
D03*
X1170152D02*
D03*
Y671639D02*
D03*
X1162278D02*
D03*
X1166215Y675576D02*
D03*
M02*
