G04*
G04 #@! TF.GenerationSoftware,Altium Limited,Altium Designer,24.5.2 (23)*
G04*
G04 Layer_Color=2752767*
%FSLAX25Y25*%
%MOIN*%
G70*
G04*
G04 #@! TF.SameCoordinates,F16C448E-738A-4C22-B855-8D49D10EB716*
G04*
G04*
G04 #@! TF.FilePolarity,Positive*
G04*
G01*
G75*
%ADD15C,0.01000*%
%ADD20C,0.00100*%
%ADD62C,0.01600*%
%ADD64C,0.01400*%
%ADD77C,0.00200*%
%ADD78C,0.01500*%
%ADD79C,0.00800*%
%ADD80C,0.02000*%
D15*
X1560484Y911009D02*
G03*
X1560484Y911009I-3333J0D01*
G01*
X1553817Y982675D02*
X1557150Y984342D01*
X1560484Y982675D01*
X1558817Y986009D02*
X1560484Y982675D01*
X1558817Y986009D02*
X1560484Y989342D01*
X1557150Y987675D02*
X1560484Y989342D01*
X1553817D02*
X1557150Y987675D01*
X1553817Y989342D02*
X1555484Y986009D01*
X1553817Y982675D02*
X1555484Y986009D01*
X1553817Y967675D02*
Y969342D01*
X1555484Y971009D01*
X1553817Y972675D02*
X1555484Y971009D01*
X1553817Y972675D02*
Y974342D01*
X1555484D01*
X1557150Y972675D01*
X1558817Y974342D01*
X1560484D01*
Y972675D02*
Y974342D01*
X1558817Y971009D02*
X1560484Y972675D01*
X1558817Y971009D02*
X1560484Y969342D01*
Y967675D02*
Y969342D01*
X1558817Y967675D02*
X1560484D01*
X1557150Y969342D02*
X1558817Y967675D01*
X1555484D02*
X1557150Y969342D01*
X1553817Y967675D02*
X1555484D01*
X1553817Y954342D02*
X1555484D01*
X1553817D02*
Y957675D01*
X1555484D01*
Y959342D01*
X1558817D01*
Y957675D02*
Y959342D01*
Y957675D02*
X1560484D01*
Y954342D02*
Y957675D01*
X1558817Y954342D02*
X1560484D01*
X1558817Y952675D02*
Y954342D01*
X1555484Y952675D02*
X1558817D01*
X1555484D02*
Y954342D01*
X1557150Y937675D02*
X1560484Y944342D01*
X1553817D02*
X1560484D01*
X1553817D02*
X1557150Y937675D01*
X1555484Y924342D02*
X1557150Y922675D01*
X1553817Y924342D02*
X1555484D01*
X1553817D02*
X1555484Y926009D01*
X1553817Y927675D02*
X1555484Y926009D01*
X1553817Y927675D02*
X1555484D01*
X1557150Y929342D01*
X1558817Y927675D01*
X1560484D01*
X1558817Y926009D02*
X1560484Y927675D01*
X1558817Y926009D02*
X1560484Y924342D01*
X1558817D02*
X1560484D01*
X1557150Y922675D02*
X1558817Y924342D01*
X1553817Y896009D02*
X1557150Y892675D01*
X1560484Y896009D01*
X1557150Y899342D02*
X1560484Y896009D01*
X1553817D02*
X1557150Y899342D01*
X1862355Y982675D02*
Y988673D01*
X1865354D01*
X1866354Y987674D01*
Y985674D01*
X1865354Y984675D01*
X1862355D01*
X1864354D02*
X1866354Y982675D01*
X1869353D02*
X1871352D01*
X1872352Y983675D01*
Y985674D01*
X1871352Y986674D01*
X1869353D01*
X1868353Y985674D01*
Y983675D01*
X1869353Y982675D01*
X1874351Y986674D02*
Y983675D01*
X1875351Y982675D01*
X1878350D01*
Y986674D01*
X1880349Y982675D02*
Y986674D01*
X1883348D01*
X1884348Y985674D01*
Y982675D01*
X1890346Y988673D02*
Y982675D01*
X1887347D01*
X1886347Y983675D01*
Y985674D01*
X1887347Y986674D01*
X1890346D01*
X1866354Y972674D02*
X1865354Y973673D01*
X1863355D01*
X1862355Y972674D01*
Y971674D01*
X1863355Y970674D01*
X1865354D01*
X1866354Y969675D01*
Y968675D01*
X1865354Y967675D01*
X1863355D01*
X1862355Y968675D01*
X1868353Y967675D02*
X1870352D01*
X1869353D01*
Y973673D01*
X1868353D01*
X1874351Y967675D02*
X1876350D01*
X1877350Y968675D01*
Y970674D01*
X1876350Y971674D01*
X1874351D01*
X1873351Y970674D01*
Y968675D01*
X1874351Y967675D01*
X1880349Y972674D02*
Y971674D01*
X1879349D01*
X1881349D01*
X1880349D01*
Y968675D01*
X1881349Y967675D01*
X1866354Y957674D02*
X1865354Y958673D01*
X1863355D01*
X1862355Y957674D01*
Y956674D01*
X1863355Y955674D01*
X1865354D01*
X1866354Y954675D01*
Y953675D01*
X1865354Y952675D01*
X1863355D01*
X1862355Y953675D01*
X1868353Y952675D02*
X1870352D01*
X1869353D01*
Y958673D01*
X1868353D01*
X1874351Y952675D02*
X1876350D01*
X1877350Y953675D01*
Y955674D01*
X1876350Y956674D01*
X1874351D01*
X1873351Y955674D01*
Y953675D01*
X1874351Y952675D01*
X1880349Y957674D02*
Y956674D01*
X1879349D01*
X1881349D01*
X1880349D01*
Y953675D01*
X1881349Y952675D01*
X1862355Y937675D02*
Y943673D01*
X1865354D01*
X1866354Y942674D01*
Y940674D01*
X1865354Y939675D01*
X1862355D01*
X1864354D02*
X1866354Y937675D01*
X1869353D02*
X1871352D01*
X1872352Y938675D01*
Y940674D01*
X1871352Y941674D01*
X1869353D01*
X1868353Y940674D01*
Y938675D01*
X1869353Y937675D01*
X1874351Y941674D02*
Y938675D01*
X1875351Y937675D01*
X1878350D01*
Y941674D01*
X1880349Y937675D02*
Y941674D01*
X1883348D01*
X1884348Y940674D01*
Y937675D01*
X1890346Y943673D02*
Y937675D01*
X1887347D01*
X1886347Y938675D01*
Y940674D01*
X1887347Y941674D01*
X1890346D01*
X1862355Y922675D02*
Y928673D01*
X1865354D01*
X1866354Y927674D01*
Y925674D01*
X1865354Y924675D01*
X1862355D01*
X1864354D02*
X1866354Y922675D01*
X1869353D02*
X1871352D01*
X1872352Y923675D01*
Y925674D01*
X1871352Y926674D01*
X1869353D01*
X1868353Y925674D01*
Y923675D01*
X1869353Y922675D01*
X1874351Y926674D02*
Y923675D01*
X1875351Y922675D01*
X1878350D01*
Y926674D01*
X1880349Y922675D02*
Y926674D01*
X1883348D01*
X1884348Y925674D01*
Y922675D01*
X1890346Y928673D02*
Y922675D01*
X1887347D01*
X1886347Y923675D01*
Y925674D01*
X1887347Y926674D01*
X1890346D01*
X1862355Y907675D02*
Y913673D01*
X1865354D01*
X1866354Y912674D01*
Y910674D01*
X1865354Y909675D01*
X1862355D01*
X1864354D02*
X1866354Y907675D01*
X1869353D02*
X1871352D01*
X1872352Y908675D01*
Y910674D01*
X1871352Y911674D01*
X1869353D01*
X1868353Y910674D01*
Y908675D01*
X1869353Y907675D01*
X1874351Y911674D02*
Y908675D01*
X1875351Y907675D01*
X1878350D01*
Y911674D01*
X1880349Y907675D02*
Y911674D01*
X1883348D01*
X1884348Y910674D01*
Y907675D01*
X1890346Y913673D02*
Y907675D01*
X1887347D01*
X1886347Y908675D01*
Y910674D01*
X1887347Y911674D01*
X1890346D01*
X1862355Y892675D02*
Y898673D01*
X1865354D01*
X1866354Y897674D01*
Y895674D01*
X1865354Y894675D01*
X1862355D01*
X1864354D02*
X1866354Y892675D01*
X1869353D02*
X1871352D01*
X1872352Y893675D01*
Y895674D01*
X1871352Y896674D01*
X1869353D01*
X1868353Y895674D01*
Y893675D01*
X1869353Y892675D01*
X1874351Y896674D02*
Y893675D01*
X1875351Y892675D01*
X1878350D01*
Y896674D01*
X1880349Y892675D02*
Y896674D01*
X1883348D01*
X1884348Y895674D01*
Y892675D01*
X1890346Y898673D02*
Y892675D01*
X1887347D01*
X1886347Y893675D01*
Y895674D01*
X1887347Y896674D01*
X1890346D01*
X1811767Y982675D02*
Y988673D01*
X1815766Y982675D01*
Y988673D01*
X1817765Y982675D02*
Y988673D01*
X1820764D01*
X1821764Y987674D01*
Y985674D01*
X1820764Y984675D01*
X1817765D01*
X1823763Y988673D02*
X1827762D01*
X1825763D01*
Y982675D01*
X1829762Y988673D02*
Y982675D01*
Y985674D01*
X1833760D01*
Y988673D01*
Y982675D01*
X1811767Y967675D02*
Y973673D01*
X1814766D01*
X1815766Y972674D01*
Y970674D01*
X1814766Y969675D01*
X1811767D01*
X1817765Y973673D02*
X1821764D01*
X1819765D01*
Y967675D01*
X1823763Y973673D02*
Y967675D01*
Y970674D01*
X1827762D01*
Y973673D01*
Y967675D01*
X1811767Y952675D02*
Y958673D01*
X1814766D01*
X1815766Y957674D01*
Y955674D01*
X1814766Y954675D01*
X1811767D01*
X1817765Y958673D02*
X1821764D01*
X1819765D01*
Y952675D01*
X1823763Y958673D02*
Y952675D01*
Y955674D01*
X1827762D01*
Y958673D01*
Y952675D01*
X1811767Y937675D02*
Y943673D01*
X1814766D01*
X1815766Y942674D01*
Y940674D01*
X1814766Y939675D01*
X1811767D01*
X1817765Y943673D02*
X1821764D01*
X1819765D01*
Y937675D01*
X1823763Y943673D02*
Y937675D01*
Y940674D01*
X1827762D01*
Y943673D01*
Y937675D01*
X1811767Y922675D02*
Y928673D01*
X1815766Y922675D01*
Y928673D01*
X1817765Y922675D02*
Y928673D01*
X1820764D01*
X1821764Y927674D01*
Y925674D01*
X1820764Y924675D01*
X1817765D01*
X1823763Y928673D02*
X1827762D01*
X1825763D01*
Y922675D01*
X1829762Y928673D02*
Y922675D01*
Y925674D01*
X1833760D01*
Y928673D01*
Y922675D01*
X1811767Y907675D02*
Y913673D01*
X1814766D01*
X1815766Y912674D01*
Y910674D01*
X1814766Y909675D01*
X1811767D01*
X1817765Y913673D02*
X1821764D01*
X1819765D01*
Y907675D01*
X1823763Y913673D02*
Y907675D01*
Y910674D01*
X1827762D01*
Y913673D01*
Y907675D01*
X1811767Y892675D02*
Y898673D01*
X1814766D01*
X1815766Y897674D01*
Y895674D01*
X1814766Y894675D01*
X1811767D01*
X1817765Y898673D02*
X1821764D01*
X1819765D01*
Y892675D01*
X1823763Y898673D02*
Y892675D01*
Y895674D01*
X1827762D01*
Y898673D01*
Y892675D01*
X1677207Y982675D02*
X1679206D01*
X1678207D01*
Y988673D01*
X1677207Y987674D01*
X1686204Y982675D02*
X1682205D01*
X1686204Y986674D01*
Y987674D01*
X1685204Y988673D01*
X1683205D01*
X1682205Y987674D01*
X1688203D02*
X1689203Y988673D01*
X1691202D01*
X1692202Y987674D01*
Y983675D01*
X1691202Y982675D01*
X1689203D01*
X1688203Y983675D01*
Y987674D01*
X1694201Y982675D02*
Y983675D01*
X1695201D01*
Y982675D01*
X1694201D01*
X1699200Y987674D02*
X1700200Y988673D01*
X1702199D01*
X1703198Y987674D01*
Y983675D01*
X1702199Y982675D01*
X1700200D01*
X1699200Y983675D01*
Y987674D01*
X1705198D02*
X1706198Y988673D01*
X1708197D01*
X1709197Y987674D01*
Y983675D01*
X1708197Y982675D01*
X1706198D01*
X1705198Y983675D01*
Y987674D01*
X1711196Y982675D02*
Y986674D01*
X1712196D01*
X1713195Y985674D01*
Y982675D01*
Y985674D01*
X1714195Y986674D01*
X1715195Y985674D01*
Y982675D01*
X1717194D02*
X1719193D01*
X1718194D01*
Y986674D01*
X1717194D01*
X1722192Y982675D02*
X1724192D01*
X1723192D01*
Y988673D01*
X1722192D01*
X1735188Y982675D02*
X1733189Y984675D01*
Y986674D01*
X1735188Y988673D01*
X1738187Y987674D02*
X1739187Y988673D01*
X1741186D01*
X1742186Y987674D01*
Y986674D01*
X1741186Y985674D01*
X1740187D01*
X1741186D01*
X1742186Y984675D01*
Y983675D01*
X1741186Y982675D01*
X1739187D01*
X1738187Y983675D01*
X1744185Y982675D02*
Y983675D01*
X1745185D01*
Y982675D01*
X1744185D01*
X1749184Y987674D02*
X1750183Y988673D01*
X1752183D01*
X1753182Y987674D01*
Y983675D01*
X1752183Y982675D01*
X1750183D01*
X1749184Y983675D01*
Y987674D01*
X1758181Y982675D02*
Y988673D01*
X1755182Y985674D01*
X1759180D01*
X1761180Y987674D02*
X1762179Y988673D01*
X1764179D01*
X1765178Y987674D01*
Y986674D01*
X1764179Y985674D01*
X1765178Y984675D01*
Y983675D01*
X1764179Y982675D01*
X1762179D01*
X1761180Y983675D01*
Y984675D01*
X1762179Y985674D01*
X1761180Y986674D01*
Y987674D01*
X1762179Y985674D02*
X1764179D01*
X1767178Y982675D02*
Y986674D01*
X1768177D01*
X1769177Y985674D01*
Y982675D01*
Y985674D01*
X1770177Y986674D01*
X1771177Y985674D01*
Y982675D01*
X1773176D02*
Y986674D01*
X1774176D01*
X1775175Y985674D01*
Y982675D01*
Y985674D01*
X1776175Y986674D01*
X1777175Y985674D01*
Y982675D01*
X1779174D02*
X1781173Y984675D01*
Y986674D01*
X1779174Y988673D01*
X1677207Y972674D02*
X1678207Y973673D01*
X1680206D01*
X1681206Y972674D01*
Y971674D01*
X1680206Y970674D01*
X1679206D01*
X1680206D01*
X1681206Y969675D01*
Y968675D01*
X1680206Y967675D01*
X1678207D01*
X1677207Y968675D01*
X1683205Y967675D02*
X1685204D01*
X1684205D01*
Y973673D01*
X1683205Y972674D01*
X1688203Y967675D02*
Y968675D01*
X1689203D01*
Y967675D01*
X1688203D01*
X1697201Y973673D02*
X1693202D01*
Y970674D01*
X1695201Y971674D01*
X1696201D01*
X1697201Y970674D01*
Y968675D01*
X1696201Y967675D01*
X1694201D01*
X1693202Y968675D01*
X1702199Y967675D02*
Y973673D01*
X1699200Y970674D01*
X1703198D01*
X1705198Y967675D02*
Y971674D01*
X1706198D01*
X1707197Y970674D01*
Y967675D01*
Y970674D01*
X1708197Y971674D01*
X1709197Y970674D01*
Y967675D01*
X1711196D02*
X1713195D01*
X1712196D01*
Y971674D01*
X1711196D01*
X1716194Y967675D02*
X1718194D01*
X1717194D01*
Y973673D01*
X1716194D01*
X1729190Y967675D02*
X1727191Y969675D01*
Y971674D01*
X1729190Y973673D01*
X1732189Y972674D02*
X1733189Y973673D01*
X1735188D01*
X1736188Y972674D01*
Y968675D01*
X1735188Y967675D01*
X1733189D01*
X1732189Y968675D01*
Y972674D01*
X1738187Y967675D02*
Y968675D01*
X1739187D01*
Y967675D01*
X1738187D01*
X1743186Y972674D02*
X1744185Y973673D01*
X1746185D01*
X1747184Y972674D01*
Y971674D01*
X1746185Y970674D01*
X1747184Y969675D01*
Y968675D01*
X1746185Y967675D01*
X1744185D01*
X1743186Y968675D01*
Y969675D01*
X1744185Y970674D01*
X1743186Y971674D01*
Y972674D01*
X1744185Y970674D02*
X1746185D01*
X1749184Y972674D02*
X1750183Y973673D01*
X1752183D01*
X1753182Y972674D01*
Y968675D01*
X1752183Y967675D01*
X1750183D01*
X1749184Y968675D01*
Y972674D01*
X1755182Y967675D02*
X1757181D01*
X1756181D01*
Y973673D01*
X1755182Y972674D01*
X1760180Y967675D02*
Y971674D01*
X1761180D01*
X1762179Y970674D01*
Y967675D01*
Y970674D01*
X1763179Y971674D01*
X1764179Y970674D01*
Y967675D01*
X1766178D02*
Y971674D01*
X1767178D01*
X1768177Y970674D01*
Y967675D01*
Y970674D01*
X1769177Y971674D01*
X1770177Y970674D01*
Y967675D01*
X1772176D02*
X1774176Y969675D01*
Y971674D01*
X1772176Y973673D01*
X1677207Y957674D02*
X1678207Y958673D01*
X1680206D01*
X1681206Y957674D01*
Y956674D01*
X1680206Y955674D01*
X1679206D01*
X1680206D01*
X1681206Y954675D01*
Y953675D01*
X1680206Y952675D01*
X1678207D01*
X1677207Y953675D01*
X1683205Y952675D02*
X1685204D01*
X1684205D01*
Y958673D01*
X1683205Y957674D01*
X1688203Y952675D02*
Y953675D01*
X1689203D01*
Y952675D01*
X1688203D01*
X1697201Y958673D02*
X1693202D01*
Y955674D01*
X1695201Y956674D01*
X1696201D01*
X1697201Y955674D01*
Y953675D01*
X1696201Y952675D01*
X1694201D01*
X1693202Y953675D01*
X1699200Y957674D02*
X1700200Y958673D01*
X1702199D01*
X1703198Y957674D01*
Y953675D01*
X1702199Y952675D01*
X1700200D01*
X1699200Y953675D01*
Y957674D01*
X1705198Y952675D02*
Y956674D01*
X1706198D01*
X1707197Y955674D01*
Y952675D01*
Y955674D01*
X1708197Y956674D01*
X1709197Y955674D01*
Y952675D01*
X1711196D02*
X1713195D01*
X1712196D01*
Y956674D01*
X1711196D01*
X1716194Y952675D02*
X1718194D01*
X1717194D01*
Y958673D01*
X1716194D01*
X1729190Y952675D02*
X1727191Y954675D01*
Y956674D01*
X1729190Y958673D01*
X1732189Y957674D02*
X1733189Y958673D01*
X1735188D01*
X1736188Y957674D01*
Y953675D01*
X1735188Y952675D01*
X1733189D01*
X1732189Y953675D01*
Y957674D01*
X1738187Y952675D02*
Y953675D01*
X1739187D01*
Y952675D01*
X1738187D01*
X1743186Y957674D02*
X1744185Y958673D01*
X1746185D01*
X1747184Y957674D01*
Y956674D01*
X1746185Y955674D01*
X1747184Y954675D01*
Y953675D01*
X1746185Y952675D01*
X1744185D01*
X1743186Y953675D01*
Y954675D01*
X1744185Y955674D01*
X1743186Y956674D01*
Y957674D01*
X1744185Y955674D02*
X1746185D01*
X1749184Y957674D02*
X1750183Y958673D01*
X1752183D01*
X1753182Y957674D01*
Y953675D01*
X1752183Y952675D01*
X1750183D01*
X1749184Y953675D01*
Y957674D01*
X1755182D02*
X1756181Y958673D01*
X1758181D01*
X1759180Y957674D01*
Y953675D01*
X1758181Y952675D01*
X1756181D01*
X1755182Y953675D01*
Y957674D01*
X1761180Y952675D02*
Y956674D01*
X1762179D01*
X1763179Y955674D01*
Y952675D01*
Y955674D01*
X1764179Y956674D01*
X1765178Y955674D01*
Y952675D01*
X1767178D02*
Y956674D01*
X1768177D01*
X1769177Y955674D01*
Y952675D01*
Y955674D01*
X1770177Y956674D01*
X1771177Y955674D01*
Y952675D01*
X1773176D02*
X1775175Y954675D01*
Y956674D01*
X1773176Y958673D01*
X1677207Y937675D02*
X1679206D01*
X1678207D01*
Y943673D01*
X1677207Y942674D01*
X1686204Y937675D02*
X1682205D01*
X1686204Y941674D01*
Y942674D01*
X1685204Y943673D01*
X1683205D01*
X1682205Y942674D01*
X1692202Y943673D02*
X1688203D01*
Y940674D01*
X1690203Y941674D01*
X1691202D01*
X1692202Y940674D01*
Y938675D01*
X1691202Y937675D01*
X1689203D01*
X1688203Y938675D01*
X1694201Y937675D02*
Y938675D01*
X1695201D01*
Y937675D01*
X1694201D01*
X1699200Y938675D02*
X1700200Y937675D01*
X1702199D01*
X1703198Y938675D01*
Y942674D01*
X1702199Y943673D01*
X1700200D01*
X1699200Y942674D01*
Y941674D01*
X1700200Y940674D01*
X1703198D01*
X1705198Y942674D02*
X1706198Y943673D01*
X1708197D01*
X1709197Y942674D01*
Y941674D01*
X1708197Y940674D01*
X1709197Y939675D01*
Y938675D01*
X1708197Y937675D01*
X1706198D01*
X1705198Y938675D01*
Y939675D01*
X1706198Y940674D01*
X1705198Y941674D01*
Y942674D01*
X1706198Y940674D02*
X1708197D01*
X1711196Y937675D02*
Y941674D01*
X1712196D01*
X1713195Y940674D01*
Y937675D01*
Y940674D01*
X1714195Y941674D01*
X1715195Y940674D01*
Y937675D01*
X1717194D02*
X1719193D01*
X1718194D01*
Y941674D01*
X1717194D01*
X1722192Y937675D02*
X1724192D01*
X1723192D01*
Y943673D01*
X1722192D01*
X1735188Y937675D02*
X1733189Y939675D01*
Y941674D01*
X1735188Y943673D01*
X1738187Y942674D02*
X1739187Y943673D01*
X1741186D01*
X1742186Y942674D01*
Y941674D01*
X1741186Y940674D01*
X1740187D01*
X1741186D01*
X1742186Y939675D01*
Y938675D01*
X1741186Y937675D01*
X1739187D01*
X1738187Y938675D01*
X1744185Y937675D02*
Y938675D01*
X1745185D01*
Y937675D01*
X1744185D01*
X1753182D02*
X1749184D01*
X1753182Y941674D01*
Y942674D01*
X1752183Y943673D01*
X1750183D01*
X1749184Y942674D01*
X1755182D02*
X1756181Y943673D01*
X1758181D01*
X1759180Y942674D01*
Y938675D01*
X1758181Y937675D01*
X1756181D01*
X1755182Y938675D01*
Y942674D01*
X1761180D02*
X1762179Y943673D01*
X1764179D01*
X1765178Y942674D01*
Y938675D01*
X1764179Y937675D01*
X1762179D01*
X1761180Y938675D01*
Y942674D01*
X1767178Y937675D02*
Y941674D01*
X1768177D01*
X1769177Y940674D01*
Y937675D01*
Y940674D01*
X1770177Y941674D01*
X1771177Y940674D01*
Y937675D01*
X1773176D02*
Y941674D01*
X1774176D01*
X1775175Y940674D01*
Y937675D01*
Y940674D01*
X1776175Y941674D01*
X1777175Y940674D01*
Y937675D01*
X1779174D02*
X1781173Y939675D01*
Y941674D01*
X1779174Y943673D01*
X1677207Y922675D02*
X1679206D01*
X1678207D01*
Y928673D01*
X1677207Y927674D01*
X1682205Y928673D02*
X1686204D01*
Y927674D01*
X1682205Y923675D01*
Y922675D01*
X1688203Y927674D02*
X1689203Y928673D01*
X1691202D01*
X1692202Y927674D01*
Y926674D01*
X1691202Y925674D01*
X1690203D01*
X1691202D01*
X1692202Y924675D01*
Y923675D01*
X1691202Y922675D01*
X1689203D01*
X1688203Y923675D01*
X1694201Y922675D02*
Y923675D01*
X1695201D01*
Y922675D01*
X1694201D01*
X1703198D02*
X1699200D01*
X1703198Y926674D01*
Y927674D01*
X1702199Y928673D01*
X1700200D01*
X1699200Y927674D01*
X1705198D02*
X1706198Y928673D01*
X1708197D01*
X1709197Y927674D01*
Y926674D01*
X1708197Y925674D01*
X1707197D01*
X1708197D01*
X1709197Y924675D01*
Y923675D01*
X1708197Y922675D01*
X1706198D01*
X1705198Y923675D01*
X1711196Y922675D02*
Y926674D01*
X1712196D01*
X1713195Y925674D01*
Y922675D01*
Y925674D01*
X1714195Y926674D01*
X1715195Y925674D01*
Y922675D01*
X1717194D02*
X1719193D01*
X1718194D01*
Y926674D01*
X1717194D01*
X1722192Y922675D02*
X1724192D01*
X1723192D01*
Y928673D01*
X1722192D01*
X1735188Y922675D02*
X1733189Y924675D01*
Y926674D01*
X1735188Y928673D01*
X1741186Y922675D02*
Y928673D01*
X1738187Y925674D01*
X1742186D01*
X1744185Y922675D02*
Y923675D01*
X1745185D01*
Y922675D01*
X1744185D01*
X1752183D02*
Y928673D01*
X1749184Y925674D01*
X1753182D01*
X1755182Y927674D02*
X1756181Y928673D01*
X1758181D01*
X1759180Y927674D01*
Y923675D01*
X1758181Y922675D01*
X1756181D01*
X1755182Y923675D01*
Y927674D01*
X1761180D02*
X1762179Y928673D01*
X1764179D01*
X1765178Y927674D01*
Y923675D01*
X1764179Y922675D01*
X1762179D01*
X1761180Y923675D01*
Y927674D01*
X1767178Y922675D02*
Y926674D01*
X1768177D01*
X1769177Y925674D01*
Y922675D01*
Y925674D01*
X1770177Y926674D01*
X1771177Y925674D01*
Y922675D01*
X1773176D02*
Y926674D01*
X1774176D01*
X1775175Y925674D01*
Y922675D01*
Y925674D01*
X1776175Y926674D01*
X1777175Y925674D01*
Y922675D01*
X1779174D02*
X1781173Y924675D01*
Y926674D01*
X1779174Y928673D01*
X1677207Y912674D02*
X1678207Y913673D01*
X1680206D01*
X1681206Y912674D01*
Y911674D01*
X1680206Y910674D01*
X1679206D01*
X1680206D01*
X1681206Y909675D01*
Y908675D01*
X1680206Y907675D01*
X1678207D01*
X1677207Y908675D01*
X1683205D02*
X1684205Y907675D01*
X1686204D01*
X1687204Y908675D01*
Y912674D01*
X1686204Y913673D01*
X1684205D01*
X1683205Y912674D01*
Y911674D01*
X1684205Y910674D01*
X1687204D01*
X1689203Y907675D02*
Y908675D01*
X1690203D01*
Y907675D01*
X1689203D01*
X1694201Y912674D02*
X1695201Y913673D01*
X1697201D01*
X1698200Y912674D01*
Y911674D01*
X1697201Y910674D01*
X1696201D01*
X1697201D01*
X1698200Y909675D01*
Y908675D01*
X1697201Y907675D01*
X1695201D01*
X1694201Y908675D01*
X1700200Y913673D02*
X1704198D01*
Y912674D01*
X1700200Y908675D01*
Y907675D01*
X1706198D02*
Y911674D01*
X1707197D01*
X1708197Y910674D01*
Y907675D01*
Y910674D01*
X1709197Y911674D01*
X1710196Y910674D01*
Y907675D01*
X1712196D02*
X1714195D01*
X1713195D01*
Y911674D01*
X1712196D01*
X1717194Y907675D02*
X1719193D01*
X1718194D01*
Y913673D01*
X1717194D01*
X1730190Y907675D02*
X1728190Y909675D01*
Y911674D01*
X1730190Y913673D01*
X1733189Y907675D02*
X1735188D01*
X1734188D01*
Y913673D01*
X1733189Y912674D01*
X1738187Y907675D02*
Y908675D01*
X1739187D01*
Y907675D01*
X1738187D01*
X1743186Y912674D02*
X1744185Y913673D01*
X1746185D01*
X1747184Y912674D01*
Y908675D01*
X1746185Y907675D01*
X1744185D01*
X1743186Y908675D01*
Y912674D01*
X1749184D02*
X1750183Y913673D01*
X1752183D01*
X1753182Y912674D01*
Y908675D01*
X1752183Y907675D01*
X1750183D01*
X1749184Y908675D01*
Y912674D01*
X1755182D02*
X1756181Y913673D01*
X1758181D01*
X1759180Y912674D01*
Y908675D01*
X1758181Y907675D01*
X1756181D01*
X1755182Y908675D01*
Y912674D01*
X1761180Y907675D02*
Y911674D01*
X1762179D01*
X1763179Y910674D01*
Y907675D01*
Y910674D01*
X1764179Y911674D01*
X1765178Y910674D01*
Y907675D01*
X1767178D02*
Y911674D01*
X1768177D01*
X1769177Y910674D01*
Y907675D01*
Y910674D01*
X1770177Y911674D01*
X1771177Y910674D01*
Y907675D01*
X1773176D02*
X1775175Y909675D01*
Y911674D01*
X1773176Y913673D01*
X1677207Y892675D02*
X1679206D01*
X1678207D01*
Y898673D01*
X1677207Y897674D01*
X1682205D02*
X1683205Y898673D01*
X1685204D01*
X1686204Y897674D01*
Y893675D01*
X1685204Y892675D01*
X1683205D01*
X1682205Y893675D01*
Y897674D01*
X1688203Y892675D02*
Y893675D01*
X1689203D01*
Y892675D01*
X1688203D01*
X1693202Y897674D02*
X1694201Y898673D01*
X1696201D01*
X1697201Y897674D01*
Y893675D01*
X1696201Y892675D01*
X1694201D01*
X1693202Y893675D01*
Y897674D01*
X1699200D02*
X1700200Y898673D01*
X1702199D01*
X1703198Y897674D01*
Y893675D01*
X1702199Y892675D01*
X1700200D01*
X1699200Y893675D01*
Y897674D01*
X1705198Y892675D02*
Y896674D01*
X1706198D01*
X1707197Y895674D01*
Y892675D01*
Y895674D01*
X1708197Y896674D01*
X1709197Y895674D01*
Y892675D01*
X1711196D02*
X1713195D01*
X1712196D01*
Y896674D01*
X1711196D01*
X1716194Y892675D02*
X1718194D01*
X1717194D01*
Y898673D01*
X1716194D01*
X1729190Y892675D02*
X1727191Y894675D01*
Y896674D01*
X1729190Y898673D01*
X1732189Y897674D02*
X1733189Y898673D01*
X1735188D01*
X1736188Y897674D01*
Y893675D01*
X1735188Y892675D01*
X1733189D01*
X1732189Y893675D01*
Y897674D01*
X1738187Y892675D02*
Y893675D01*
X1739187D01*
Y892675D01*
X1738187D01*
X1747184D02*
X1743186D01*
X1747184Y896674D01*
Y897674D01*
X1746185Y898673D01*
X1744185D01*
X1743186Y897674D01*
X1753182Y898673D02*
X1749184D01*
Y895674D01*
X1751183Y896674D01*
X1752183D01*
X1753182Y895674D01*
Y893675D01*
X1752183Y892675D01*
X1750183D01*
X1749184Y893675D01*
X1758181Y892675D02*
Y898673D01*
X1755182Y895674D01*
X1759180D01*
X1761180Y892675D02*
Y896674D01*
X1762179D01*
X1763179Y895674D01*
Y892675D01*
Y895674D01*
X1764179Y896674D01*
X1765178Y895674D01*
Y892675D01*
X1767178D02*
Y896674D01*
X1768177D01*
X1769177Y895674D01*
Y892675D01*
Y895674D01*
X1770177Y896674D01*
X1771177Y895674D01*
Y892675D01*
X1773176D02*
X1775175Y894675D01*
Y896674D01*
X1773176Y898673D01*
X1607426Y877675D02*
X1609425D01*
X1608425D01*
Y883673D01*
X1607426Y882674D01*
X1616423Y883673D02*
X1612424D01*
Y880674D01*
X1614423Y881674D01*
X1615423D01*
X1616423Y880674D01*
Y878675D01*
X1615423Y877675D01*
X1613424D01*
X1612424Y878675D01*
X1618422Y882674D02*
X1619422Y883673D01*
X1621421D01*
X1622421Y882674D01*
Y878675D01*
X1621421Y877675D01*
X1619422D01*
X1618422Y878675D01*
Y882674D01*
X1630418Y883673D02*
X1634417D01*
X1632417D01*
Y877675D01*
X1637416D02*
X1639415D01*
X1640415Y878675D01*
Y880674D01*
X1639415Y881674D01*
X1637416D01*
X1636416Y880674D01*
Y878675D01*
X1637416Y877675D01*
X1643414Y882674D02*
Y881674D01*
X1642414D01*
X1644414D01*
X1643414D01*
Y878675D01*
X1644414Y877675D01*
X1648412Y881674D02*
X1650412D01*
X1651411Y880674D01*
Y877675D01*
X1648412D01*
X1647413Y878675D01*
X1648412Y879675D01*
X1651411D01*
X1653411Y877675D02*
X1655410D01*
X1654410D01*
Y883673D01*
X1653411D01*
X1607426Y982675D02*
X1609425D01*
X1608425D01*
Y988673D01*
X1607426Y987674D01*
X1611424Y967675D02*
X1607426D01*
X1611424Y971674D01*
Y972674D01*
X1610425Y973673D01*
X1608425D01*
X1607426Y972674D01*
Y957674D02*
X1608425Y958673D01*
X1610425D01*
X1611424Y957674D01*
Y956674D01*
X1610425Y955674D01*
X1609425D01*
X1610425D01*
X1611424Y954675D01*
Y953675D01*
X1610425Y952675D01*
X1608425D01*
X1607426Y953675D01*
X1610425Y937675D02*
Y943673D01*
X1607426Y940674D01*
X1611424D01*
X1610425Y922675D02*
Y928673D01*
X1607426Y925674D01*
X1611424D01*
Y913673D02*
X1607426D01*
Y910674D01*
X1609425Y911674D01*
X1610425D01*
X1611424Y910674D01*
Y908675D01*
X1610425Y907675D01*
X1608425D01*
X1607426Y908675D01*
X1613424Y912674D02*
X1614423Y913673D01*
X1616423D01*
X1617422Y912674D01*
Y908675D01*
X1616423Y907675D01*
X1614423D01*
X1613424Y908675D01*
Y912674D01*
X1607426Y897674D02*
X1608425Y898673D01*
X1610425D01*
X1611424Y897674D01*
Y896674D01*
X1610425Y895674D01*
X1611424Y894675D01*
Y893675D01*
X1610425Y892675D01*
X1608425D01*
X1607426Y893675D01*
Y894675D01*
X1608425Y895674D01*
X1607426Y896674D01*
Y897674D01*
X1608425Y895674D02*
X1610425D01*
X1617422Y898673D02*
X1615423Y897674D01*
X1613424Y895674D01*
Y893675D01*
X1614423Y892675D01*
X1616423D01*
X1617422Y893675D01*
Y894675D01*
X1616423Y895674D01*
X1613424D01*
X1735385Y855180D02*
X1739384D01*
X1735385Y857179D02*
X1739384D01*
X1747381Y853180D02*
Y859179D01*
X1750380D01*
X1751380Y858179D01*
Y856180D01*
X1750380Y855180D01*
X1747381D01*
X1749380D02*
X1751380Y853180D01*
X1754379D02*
X1756378D01*
X1757378Y854180D01*
Y856180D01*
X1756378Y857179D01*
X1754379D01*
X1753379Y856180D01*
Y854180D01*
X1754379Y853180D01*
X1759377Y857179D02*
Y854180D01*
X1760377Y853180D01*
X1763376D01*
Y857179D01*
X1766375Y858179D02*
Y857179D01*
X1765375D01*
X1767375D01*
X1766375D01*
Y854180D01*
X1767375Y853180D01*
X1773373D02*
X1771373D01*
X1770374Y854180D01*
Y856180D01*
X1771373Y857179D01*
X1773373D01*
X1774372Y856180D01*
Y855180D01*
X1770374D01*
X1780370Y859179D02*
Y853180D01*
X1777371D01*
X1776372Y854180D01*
Y856180D01*
X1777371Y857179D01*
X1780370D01*
X1788368Y853180D02*
Y859179D01*
X1791367D01*
X1792366Y858179D01*
Y856180D01*
X1791367Y855180D01*
X1788368D01*
X1795366Y857179D02*
X1797365D01*
X1798365Y856180D01*
Y853180D01*
X1795366D01*
X1794366Y854180D01*
X1795366Y855180D01*
X1798365D01*
X1801364Y858179D02*
Y857179D01*
X1800364D01*
X1802363D01*
X1801364D01*
Y854180D01*
X1802363Y853180D01*
X1805362Y859179D02*
Y853180D01*
Y856180D01*
X1806362Y857179D01*
X1808361D01*
X1809361Y856180D01*
Y853180D01*
X1817359Y859179D02*
Y853180D01*
X1821357D01*
X1826356D02*
X1824356D01*
X1823356Y854180D01*
Y856180D01*
X1824356Y857179D01*
X1826356D01*
X1827355Y856180D01*
Y855180D01*
X1823356D01*
X1829355Y853180D02*
Y857179D01*
X1832354D01*
X1833353Y856180D01*
Y853180D01*
X1837352Y851181D02*
X1838352D01*
X1839351Y852181D01*
Y857179D01*
X1836352D01*
X1835353Y856180D01*
Y854180D01*
X1836352Y853180D01*
X1839351D01*
X1842350Y858179D02*
Y857179D01*
X1841351D01*
X1843350D01*
X1842350D01*
Y854180D01*
X1843350Y853180D01*
X1846349Y859179D02*
Y853180D01*
Y856180D01*
X1847349Y857179D01*
X1849348D01*
X1850348Y856180D01*
Y853180D01*
X1858345Y856180D02*
X1862344D01*
X1860345Y858179D02*
Y854180D01*
X1870341Y859179D02*
X1874340D01*
X1872341D01*
Y853180D01*
X1877339D02*
X1879338D01*
X1880338Y854180D01*
Y856180D01*
X1879338Y857179D01*
X1877339D01*
X1876339Y856180D01*
Y854180D01*
X1877339Y853180D01*
X1883337D02*
X1885336D01*
X1886336Y854180D01*
Y856180D01*
X1885336Y857179D01*
X1883337D01*
X1882337Y856180D01*
Y854180D01*
X1883337Y853180D01*
X1888335D02*
X1890335D01*
X1889335D01*
Y859179D01*
X1888335D01*
X1903331Y858179D02*
X1902331Y859179D01*
X1900332D01*
X1899332Y858179D01*
Y857179D01*
X1900332Y856180D01*
X1902331D01*
X1903331Y855180D01*
Y854180D01*
X1902331Y853180D01*
X1900332D01*
X1899332Y854180D01*
X1905330Y853180D02*
X1907329D01*
X1906330D01*
Y857179D01*
X1905330D01*
X1910328D02*
X1914327D01*
X1910328Y853180D01*
X1914327D01*
X1919325D02*
X1917326D01*
X1916326Y854180D01*
Y856180D01*
X1917326Y857179D01*
X1919325D01*
X1920325Y856180D01*
Y855180D01*
X1916326D01*
X1928323D02*
X1932321D01*
X1928323Y857179D02*
X1932321D01*
X1944317Y858179D02*
X1943318Y859179D01*
X1941318D01*
X1940319Y858179D01*
Y857179D01*
X1941318Y856180D01*
X1943318D01*
X1944317Y855180D01*
Y854180D01*
X1943318Y853180D01*
X1941318D01*
X1940319Y854180D01*
X1946317Y853180D02*
X1948316D01*
X1947316D01*
Y859179D01*
X1946317D01*
X1952315Y853180D02*
X1954314D01*
X1955314Y854180D01*
Y856180D01*
X1954314Y857179D01*
X1952315D01*
X1951315Y856180D01*
Y854180D01*
X1952315Y853180D01*
X1958313Y858179D02*
Y857179D01*
X1957313D01*
X1959312D01*
X1958313D01*
Y854180D01*
X1959312Y853180D01*
X1968310D02*
X1970309D01*
X1969309D01*
Y859179D01*
X1968310D01*
X1976307Y853180D02*
X1974308D01*
X1973308Y854180D01*
Y856180D01*
X1974308Y857179D01*
X1976307D01*
X1977307Y856180D01*
Y855180D01*
X1973308D01*
X1979306Y853180D02*
Y857179D01*
X1982305D01*
X1983305Y856180D01*
Y853180D01*
X1987304Y851181D02*
X1988303D01*
X1989303Y852181D01*
Y857179D01*
X1986304D01*
X1985304Y856180D01*
Y854180D01*
X1986304Y853180D01*
X1989303D01*
X1992302Y858179D02*
Y857179D01*
X1991302D01*
X1993302D01*
X1992302D01*
Y854180D01*
X1993302Y853180D01*
X1996301Y859179D02*
Y853180D01*
Y856180D01*
X1997300Y857179D01*
X1999300D01*
X2000299Y856180D01*
Y853180D01*
X2009296Y857179D02*
X2011296D01*
X2012295Y856180D01*
Y853180D01*
X2009296D01*
X2008297Y854180D01*
X2009296Y855180D01*
X2012295D01*
X2014295Y853180D02*
X2017294D01*
X2018293Y854180D01*
X2017294Y855180D01*
X2015294D01*
X2014295Y856180D01*
X2015294Y857179D01*
X2018293D01*
X2030290Y859179D02*
Y853180D01*
X2027291D01*
X2026291Y854180D01*
Y856180D01*
X2027291Y857179D01*
X2030290D01*
X2035288Y853180D02*
X2033289D01*
X2032289Y854180D01*
Y856180D01*
X2033289Y857179D01*
X2035288D01*
X2036288Y856180D01*
Y855180D01*
X2032289D01*
X2039287Y853180D02*
Y858179D01*
Y856180D01*
X2038287D01*
X2040286D01*
X2039287D01*
Y858179D01*
X2040286Y859179D01*
X2043285Y853180D02*
X2045285D01*
X2044285D01*
Y857179D01*
X2043285D01*
X2048284Y853180D02*
Y857179D01*
X2051283D01*
X2052282Y856180D01*
Y853180D01*
X2057281D02*
X2055281D01*
X2054282Y854180D01*
Y856180D01*
X2055281Y857179D01*
X2057281D01*
X2058281Y856180D01*
Y855180D01*
X2054282D01*
X2064279Y859179D02*
Y853180D01*
X2061279D01*
X2060280Y854180D01*
Y856180D01*
X2061279Y857179D01*
X2064279D01*
X2072276Y853180D02*
X2074275D01*
X2073276D01*
Y857179D01*
X2072276D01*
X2077274Y853180D02*
Y857179D01*
X2080273D01*
X2081273Y856180D01*
Y853180D01*
X2090270Y858179D02*
Y857179D01*
X2089271D01*
X2091270D01*
X2090270D01*
Y854180D01*
X2091270Y853180D01*
X2094269Y859179D02*
Y853180D01*
Y856180D01*
X2095268Y857179D01*
X2097268D01*
X2098268Y856180D01*
Y853180D01*
X2103266D02*
X2101267D01*
X2100267Y854180D01*
Y856180D01*
X2101267Y857179D01*
X2103266D01*
X2104266Y856180D01*
Y855180D01*
X2100267D01*
X2112263Y853180D02*
Y859179D01*
X2115262D01*
X2116262Y858179D01*
Y856180D01*
X2115262Y855180D01*
X2112263D01*
X2122260Y858179D02*
X2121260Y859179D01*
X2119261D01*
X2118261Y858179D01*
Y854180D01*
X2119261Y853180D01*
X2121260D01*
X2122260Y854180D01*
X2124259Y859179D02*
Y853180D01*
X2127258D01*
X2128258Y854180D01*
Y855180D01*
X2127258Y856180D01*
X2124259D01*
X2127258D01*
X2128258Y857179D01*
Y858179D01*
X2127258Y859179D01*
X2124259D01*
X2136255Y853180D02*
X2138255D01*
X2137255D01*
Y859179D01*
X2136255D01*
X2142253Y857179D02*
X2144253D01*
X2145252Y856180D01*
Y853180D01*
X2142253D01*
X2141254Y854180D01*
X2142253Y855180D01*
X2145252D01*
X2147252Y857179D02*
Y854180D01*
X2148251Y853180D01*
X2151250D01*
Y852181D01*
X2150251Y851181D01*
X2149251D01*
X2151250Y853180D02*
Y857179D01*
X2154250Y853180D02*
X2156249D01*
X2157248Y854180D01*
Y856180D01*
X2156249Y857179D01*
X2154250D01*
X2153250Y856180D01*
Y854180D01*
X2154250Y853180D01*
X2159248Y857179D02*
Y854180D01*
X2160247Y853180D01*
X2163247D01*
Y857179D01*
X2166246Y858179D02*
Y857179D01*
X2165246D01*
X2167245D01*
X2166246D01*
Y854180D01*
X2167245Y853180D01*
X1770374Y865177D02*
X1774372D01*
X1770374Y867177D02*
X1774372D01*
X1786369Y868176D02*
X1785369Y869176D01*
X1783369D01*
X1782370Y868176D01*
Y864178D01*
X1783369Y863178D01*
X1785369D01*
X1786369Y864178D01*
X1789367Y867177D02*
X1791367D01*
X1792366Y866177D01*
Y863178D01*
X1789367D01*
X1788368Y864178D01*
X1789367Y865177D01*
X1792366D01*
X1794366Y863178D02*
X1796365D01*
X1795366D01*
Y869176D01*
X1794366D01*
X1803363Y867177D02*
X1800364D01*
X1799364Y866177D01*
Y864178D01*
X1800364Y863178D01*
X1803363D01*
X1805362Y867177D02*
Y864178D01*
X1806362Y863178D01*
X1809361D01*
Y867177D01*
X1811360Y863178D02*
X1813360D01*
X1812360D01*
Y869176D01*
X1811360D01*
X1817359Y867177D02*
X1819358D01*
X1820358Y866177D01*
Y863178D01*
X1817359D01*
X1816359Y864178D01*
X1817359Y865177D01*
X1820358D01*
X1823356Y868176D02*
Y867177D01*
X1822357D01*
X1824356D01*
X1823356D01*
Y864178D01*
X1824356Y863178D01*
X1830354D02*
X1828355D01*
X1827355Y864178D01*
Y866177D01*
X1828355Y867177D01*
X1830354D01*
X1831354Y866177D01*
Y865177D01*
X1827355D01*
X1837352Y869176D02*
Y863178D01*
X1834353D01*
X1833353Y864178D01*
Y866177D01*
X1834353Y867177D01*
X1837352D01*
X1846349Y863178D02*
Y868176D01*
Y866177D01*
X1845349D01*
X1847349D01*
X1846349D01*
Y868176D01*
X1847349Y869176D01*
X1850348Y867177D02*
Y863178D01*
Y865177D01*
X1851348Y866177D01*
X1852347Y867177D01*
X1853347D01*
X1857346Y863178D02*
X1859345D01*
X1860345Y864178D01*
Y866177D01*
X1859345Y867177D01*
X1857346D01*
X1856346Y866177D01*
Y864178D01*
X1857346Y863178D01*
X1862344D02*
Y867177D01*
X1863344D01*
X1864343Y866177D01*
Y863178D01*
Y866177D01*
X1865343Y867177D01*
X1866343Y866177D01*
Y863178D01*
X1875340Y868176D02*
Y867177D01*
X1874340D01*
X1876339D01*
X1875340D01*
Y864178D01*
X1876339Y863178D01*
X1880338D02*
X1882337D01*
X1883337Y864178D01*
Y866177D01*
X1882337Y867177D01*
X1880338D01*
X1879338Y866177D01*
Y864178D01*
X1880338Y863178D01*
X1886336D02*
X1888335D01*
X1889335Y864178D01*
Y866177D01*
X1888335Y867177D01*
X1886336D01*
X1885336Y866177D01*
Y864178D01*
X1886336Y863178D01*
X1891335D02*
X1893334D01*
X1892334D01*
Y869176D01*
X1891335D01*
X1902331Y863178D02*
X1905330D01*
X1906330Y864178D01*
X1905330Y865177D01*
X1903331D01*
X1902331Y866177D01*
X1903331Y867177D01*
X1906330D01*
X1909329Y868176D02*
Y867177D01*
X1908329D01*
X1910328D01*
X1909329D01*
Y864178D01*
X1910328Y863178D01*
X1914327Y867177D02*
X1916326D01*
X1917326Y866177D01*
Y863178D01*
X1914327D01*
X1913327Y864178D01*
X1914327Y865177D01*
X1917326D01*
X1919325Y867177D02*
Y863178D01*
Y865177D01*
X1920325Y866177D01*
X1921325Y867177D01*
X1922325D01*
X1926323Y868176D02*
Y867177D01*
X1925323D01*
X1927323D01*
X1926323D01*
Y864178D01*
X1927323Y863178D01*
X1940319Y867177D02*
X1937320D01*
X1936320Y866177D01*
Y864178D01*
X1937320Y863178D01*
X1940319D01*
X1945317D02*
X1943318D01*
X1942318Y864178D01*
Y866177D01*
X1943318Y867177D01*
X1945317D01*
X1946317Y866177D01*
Y865177D01*
X1942318D01*
X1948316Y863178D02*
Y867177D01*
X1951315D01*
X1952315Y866177D01*
Y863178D01*
X1955314Y868176D02*
Y867177D01*
X1954314D01*
X1956314D01*
X1955314D01*
Y864178D01*
X1956314Y863178D01*
X1959312Y867177D02*
Y863178D01*
Y865177D01*
X1960312Y866177D01*
X1961312Y867177D01*
X1962312D01*
X1968310Y863178D02*
X1966310D01*
X1965311Y864178D01*
Y866177D01*
X1966310Y867177D01*
X1968310D01*
X1969309Y866177D01*
Y865177D01*
X1965311D01*
X1977307Y861178D02*
Y867177D01*
X1980306D01*
X1981305Y866177D01*
Y864178D01*
X1980306Y863178D01*
X1977307D01*
X1984304D02*
X1986304D01*
X1987304Y864178D01*
Y866177D01*
X1986304Y867177D01*
X1984304D01*
X1983305Y866177D01*
Y864178D01*
X1984304Y863178D01*
X1989303D02*
X1992302D01*
X1993302Y864178D01*
X1992302Y865177D01*
X1990302D01*
X1989303Y866177D01*
X1990302Y867177D01*
X1993302D01*
X1995301Y863178D02*
X1997300D01*
X1996301D01*
Y867177D01*
X1995301D01*
X2001299Y868176D02*
Y867177D01*
X2000299D01*
X2002299D01*
X2001299D01*
Y864178D01*
X2002299Y863178D01*
X2005298D02*
X2007297D01*
X2006297D01*
Y867177D01*
X2005298D01*
X2011296Y863178D02*
X2013295D01*
X2014295Y864178D01*
Y866177D01*
X2013295Y867177D01*
X2011296D01*
X2010296Y866177D01*
Y864178D01*
X2011296Y863178D01*
X2016294D02*
Y867177D01*
X2019293D01*
X2020293Y866177D01*
Y863178D01*
X2029290Y868176D02*
Y867177D01*
X2028290D01*
X2030289D01*
X2029290D01*
Y864178D01*
X2030289Y863178D01*
X2034288D02*
X2036288D01*
X2037287Y864178D01*
Y866177D01*
X2036288Y867177D01*
X2034288D01*
X2033289Y866177D01*
Y864178D01*
X2034288Y863178D01*
X2046284Y868176D02*
Y867177D01*
X2045285D01*
X2047284D01*
X2046284D01*
Y864178D01*
X2047284Y863178D01*
X2051283D02*
X2053282D01*
X2054282Y864178D01*
Y866177D01*
X2053282Y867177D01*
X2051283D01*
X2050283Y866177D01*
Y864178D01*
X2051283Y863178D01*
X2057281D02*
X2059280D01*
X2060280Y864178D01*
Y866177D01*
X2059280Y867177D01*
X2057281D01*
X2056281Y866177D01*
Y864178D01*
X2057281Y863178D01*
X2062279D02*
X2064278D01*
X2063279D01*
Y869176D01*
X2062279D01*
X2076275Y863178D02*
X2074275D01*
X2073276Y864178D01*
Y866177D01*
X2074275Y867177D01*
X2076275D01*
X2077274Y866177D01*
Y865177D01*
X2073276D01*
X2079274Y863178D02*
Y867177D01*
X2082273D01*
X2083272Y866177D01*
Y863178D01*
X2089271Y869176D02*
Y863178D01*
X2086271D01*
X2085272Y864178D01*
Y866177D01*
X2086271Y867177D01*
X2089271D01*
X2101267D02*
X2098268D01*
X2097268Y866177D01*
Y864178D01*
X2098268Y863178D01*
X2101267D01*
X2106265D02*
X2104266D01*
X2103266Y864178D01*
Y866177D01*
X2104266Y867177D01*
X2106265D01*
X2107265Y866177D01*
Y865177D01*
X2103266D01*
X2109264Y863178D02*
Y867177D01*
X2112263D01*
X2113263Y866177D01*
Y863178D01*
X2116262Y868176D02*
Y867177D01*
X2115262D01*
X2117261D01*
X2116262D01*
Y864178D01*
X2117261Y863178D01*
X2120260Y867177D02*
Y863178D01*
Y865177D01*
X2121260Y866177D01*
X2122260Y867177D01*
X2123260D01*
X2129258Y863178D02*
X2127258D01*
X2126258Y864178D01*
Y866177D01*
X2127258Y867177D01*
X2129258D01*
X2130257Y866177D01*
Y865177D01*
X2126258D01*
X2138255Y861178D02*
Y867177D01*
X2141254D01*
X2142253Y866177D01*
Y864178D01*
X2141254Y863178D01*
X2138255D01*
X2145252D02*
X2147252D01*
X2148251Y864178D01*
Y866177D01*
X2147252Y867177D01*
X2145252D01*
X2144253Y866177D01*
Y864178D01*
X2145252Y863178D01*
X2150251D02*
X2153250D01*
X2154249Y864178D01*
X2153250Y865177D01*
X2151250D01*
X2150251Y866177D01*
X2151250Y867177D01*
X2154249D01*
X2156249Y863178D02*
X2158248D01*
X2157248D01*
Y867177D01*
X2156249D01*
X2162247Y868176D02*
Y867177D01*
X2161247D01*
X2163247D01*
X2162247D01*
Y864178D01*
X2163247Y863178D01*
X2166246D02*
X2168245D01*
X2167245D01*
Y867177D01*
X2166246D01*
X2172244Y863178D02*
X2174243D01*
X2175243Y864178D01*
Y866177D01*
X2174243Y867177D01*
X2172244D01*
X2171244Y866177D01*
Y864178D01*
X2172244Y863178D01*
X2177242D02*
Y867177D01*
X2180241D01*
X2181241Y866177D01*
Y863178D01*
X2183240D02*
Y864178D01*
X2184240D01*
Y863178D01*
X2183240D01*
X1795841Y610612D02*
X1794674Y611779D01*
X1792342D01*
X1791176Y610612D01*
Y605947D01*
X1792342Y604781D01*
X1794674D01*
X1795841Y605947D01*
X1801672Y611779D02*
X1799340D01*
X1798173Y610612D01*
Y605947D01*
X1799340Y604781D01*
X1801672D01*
X1802839Y605947D01*
Y610612D01*
X1801672Y611779D01*
X1805171Y604781D02*
Y611779D01*
X1808670D01*
X1809836Y610612D01*
Y608280D01*
X1808670Y607114D01*
X1805171D01*
X1812169Y604781D02*
Y611779D01*
X1815668D01*
X1816834Y610612D01*
Y608280D01*
X1815668Y607114D01*
X1812169D01*
X1823832Y611779D02*
X1819167D01*
Y604781D01*
X1823832D01*
X1819167Y608280D02*
X1821499D01*
X1826164Y604781D02*
Y611779D01*
X1829663D01*
X1830829Y610612D01*
Y608280D01*
X1829663Y607114D01*
X1826164D01*
X1828497D02*
X1830829Y604781D01*
X1834328Y603615D02*
X1835495Y604781D01*
Y605947D01*
X1834328D01*
Y604781D01*
X1835495D01*
X1834328Y603615D01*
X1833162Y602449D01*
X1847157Y610612D02*
X1848324Y611779D01*
X1850656D01*
X1851823Y610612D01*
Y605947D01*
X1850656Y604781D01*
X1848324D01*
X1847157Y605947D01*
Y610612D01*
X1854155Y604781D02*
Y605947D01*
X1855322D01*
Y604781D01*
X1854155D01*
X1864652Y611779D02*
X1859987D01*
Y608280D01*
X1862319Y609446D01*
X1863486D01*
X1864652Y608280D01*
Y605947D01*
X1863486Y604781D01*
X1861153D01*
X1859987Y605947D01*
X1868151Y604781D02*
X1870483D01*
X1871650Y605947D01*
Y608280D01*
X1870483Y609446D01*
X1868151D01*
X1866984Y608280D01*
Y605947D01*
X1868151Y604781D01*
X1873982Y609446D02*
X1878647D01*
X1873982Y604781D01*
X1878647D01*
X1887978D02*
X1890310D01*
X1889144D01*
Y609446D01*
X1887978D01*
X1893809Y604781D02*
Y609446D01*
X1897308D01*
X1898474Y608280D01*
Y604781D01*
X1900807D02*
X1903139D01*
X1901973D01*
Y609446D01*
X1900807D01*
X1907805Y610612D02*
Y609446D01*
X1906638D01*
X1908971D01*
X1907805D01*
Y605947D01*
X1908971Y604781D01*
X1912470D02*
X1914802D01*
X1913636D01*
Y609446D01*
X1912470D01*
X1919468D02*
X1921800D01*
X1922966Y608280D01*
Y604781D01*
X1919468D01*
X1918301Y605947D01*
X1919468Y607114D01*
X1922966D01*
X1925299Y604781D02*
X1927632D01*
X1926465D01*
Y611779D01*
X1925299D01*
X1787176Y584781D02*
Y591779D01*
X1790675D01*
X1791841Y590613D01*
Y588280D01*
X1790675Y587114D01*
X1787176D01*
X1794173Y584781D02*
Y591779D01*
X1797672D01*
X1798838Y590613D01*
Y588280D01*
X1797672Y587114D01*
X1794173D01*
X1802337Y583615D02*
X1803504Y584781D01*
Y585947D01*
X1802337D01*
Y584781D01*
X1803504D01*
X1802337Y583615D01*
X1801171Y582448D01*
X1818665Y584781D02*
Y591779D01*
X1815166Y588280D01*
X1819832D01*
X1822164Y584781D02*
Y585947D01*
X1823331D01*
Y584781D01*
X1822164D01*
X1827996Y590613D02*
X1829162Y591779D01*
X1831495D01*
X1832661Y590613D01*
Y589446D01*
X1831495Y588280D01*
X1830328D01*
X1831495D01*
X1832661Y587114D01*
Y585947D01*
X1831495Y584781D01*
X1829162D01*
X1827996Y585947D01*
X1834994Y590613D02*
X1836160Y591779D01*
X1838492D01*
X1839659Y590613D01*
Y589446D01*
X1838492Y588280D01*
X1837326D01*
X1838492D01*
X1839659Y587114D01*
Y585947D01*
X1838492Y584781D01*
X1836160D01*
X1834994Y585947D01*
X1841991Y584781D02*
X1844324D01*
X1843158D01*
Y591779D01*
X1841991Y590613D01*
X1847823Y584781D02*
Y589446D01*
X1848989D01*
X1850155Y588280D01*
Y584781D01*
Y588280D01*
X1851321Y589446D01*
X1852488Y588280D01*
Y584781D01*
X1854820D02*
X1857153D01*
X1855987D01*
Y589446D01*
X1854820D01*
X1860652Y584781D02*
X1862984D01*
X1861818D01*
Y591779D01*
X1860652D01*
X1867650Y583615D02*
X1868816Y584781D01*
Y585947D01*
X1867650D01*
Y584781D01*
X1868816D01*
X1867650Y583615D01*
X1866483Y582448D01*
X1883978Y584781D02*
X1881645D01*
X1880479Y585947D01*
Y588280D01*
X1881645Y589446D01*
X1883978D01*
X1885144Y588280D01*
Y587114D01*
X1880479D01*
X1887477Y582448D02*
Y589446D01*
X1890975D01*
X1892142Y588280D01*
Y585947D01*
X1890975Y584781D01*
X1887477D01*
X1894474D02*
X1897973D01*
X1899139Y585947D01*
X1897973Y587114D01*
X1895641D01*
X1894474Y588280D01*
X1895641Y589446D01*
X1899139D01*
X1901472Y587114D02*
X1906137D01*
X1901472Y589446D02*
X1906137D01*
X1911969Y584781D02*
Y591779D01*
X1908470Y588280D01*
X1913135D01*
X1915467Y584781D02*
Y585947D01*
X1916634D01*
Y584781D01*
X1915467D01*
X1921299Y590613D02*
X1922465Y591779D01*
X1924798D01*
X1925964Y590613D01*
Y589446D01*
X1924798Y588280D01*
X1923631D01*
X1924798D01*
X1925964Y587114D01*
Y585947D01*
X1924798Y584781D01*
X1922465D01*
X1921299Y585947D01*
X1747841Y550612D02*
X1746675Y551779D01*
X1744342D01*
X1743176Y550612D01*
Y545947D01*
X1744342Y544781D01*
X1746675D01*
X1747841Y545947D01*
X1753672Y551779D02*
X1751340D01*
X1750173Y550612D01*
Y545947D01*
X1751340Y544781D01*
X1753672D01*
X1754839Y545947D01*
Y550612D01*
X1753672Y551779D01*
X1757171Y544781D02*
Y551779D01*
X1760670D01*
X1761836Y550612D01*
Y548280D01*
X1760670Y547114D01*
X1757171D01*
X1759504D02*
X1761836Y544781D01*
X1768834Y551779D02*
X1764169D01*
Y544781D01*
X1768834D01*
X1764169Y548280D02*
X1766501D01*
X1771166Y543615D02*
X1775832D01*
X1782829Y551779D02*
X1778164D01*
Y548280D01*
X1780497D01*
X1778164D01*
Y544781D01*
X1785162D02*
Y551779D01*
X1788661D01*
X1789827Y550612D01*
Y548280D01*
X1788661Y547114D01*
X1785162D01*
X1787495D02*
X1789827Y544781D01*
X1795659D02*
Y551779D01*
X1792160Y548280D01*
X1796825D01*
X1800324Y543615D02*
X1801490Y544781D01*
Y545947D01*
X1800324D01*
Y544781D01*
X1801490D01*
X1800324Y543615D01*
X1799158Y542449D01*
X1816652Y544781D02*
Y551779D01*
X1813153Y548280D01*
X1817818D01*
X1820151Y551779D02*
X1824816D01*
Y550612D01*
X1820151Y545947D01*
Y544781D01*
X1827148D02*
Y545947D01*
X1828315D01*
Y544781D01*
X1827148D01*
X1837645D02*
X1832980D01*
X1837645Y549446D01*
Y550612D01*
X1836479Y551779D01*
X1834146D01*
X1832980Y550612D01*
X1843476Y544781D02*
Y551779D01*
X1839978Y548280D01*
X1844643D01*
X1846975Y544781D02*
Y549446D01*
X1848142D01*
X1849308Y548280D01*
Y544781D01*
Y548280D01*
X1850474Y549446D01*
X1851641Y548280D01*
Y544781D01*
X1853973D02*
X1856306D01*
X1855139D01*
Y549446D01*
X1853973D01*
X1859805Y544781D02*
X1862137D01*
X1860971D01*
Y551779D01*
X1859805D01*
X1866802Y543615D02*
X1867969Y544781D01*
Y545947D01*
X1866802D01*
Y544781D01*
X1867969D01*
X1866802Y543615D01*
X1865636Y542449D01*
X1883130Y544781D02*
X1880798D01*
X1879631Y545947D01*
Y548280D01*
X1880798Y549446D01*
X1883130D01*
X1884297Y548280D01*
Y547114D01*
X1879631D01*
X1886629Y542449D02*
Y549446D01*
X1890128D01*
X1891294Y548280D01*
Y545947D01*
X1890128Y544781D01*
X1886629D01*
X1893627D02*
X1897126D01*
X1898292Y545947D01*
X1897126Y547114D01*
X1894793D01*
X1893627Y548280D01*
X1894793Y549446D01*
X1898292D01*
X1900625Y547114D02*
X1905290D01*
X1900625Y549446D02*
X1905290D01*
X1911121Y544781D02*
Y551779D01*
X1907623Y548280D01*
X1912288D01*
X1914620Y544781D02*
Y545947D01*
X1915787D01*
Y544781D01*
X1914620D01*
X1920452Y550612D02*
X1921618Y551779D01*
X1923951D01*
X1925117Y550612D01*
Y549446D01*
X1923951Y548280D01*
X1922784D01*
X1923951D01*
X1925117Y547114D01*
Y545947D01*
X1923951Y544781D01*
X1921618D01*
X1920452Y545947D01*
X1795841Y570612D02*
X1794674Y571779D01*
X1792342D01*
X1791176Y570612D01*
Y565947D01*
X1792342Y564781D01*
X1794674D01*
X1795841Y565947D01*
X1801672Y571779D02*
X1799340D01*
X1798173Y570612D01*
Y565947D01*
X1799340Y564781D01*
X1801672D01*
X1802839Y565947D01*
Y570612D01*
X1801672Y571779D01*
X1805171Y564781D02*
Y571779D01*
X1808670D01*
X1809836Y570612D01*
Y568280D01*
X1808670Y567114D01*
X1805171D01*
X1812169Y564781D02*
Y571779D01*
X1815668D01*
X1816834Y570612D01*
Y568280D01*
X1815668Y567114D01*
X1812169D01*
X1823832Y571779D02*
X1819167D01*
Y564781D01*
X1823832D01*
X1819167Y568280D02*
X1821499D01*
X1826164Y564781D02*
Y571779D01*
X1829663D01*
X1830829Y570612D01*
Y568280D01*
X1829663Y567114D01*
X1826164D01*
X1828497D02*
X1830829Y564781D01*
X1834328Y563615D02*
X1835495Y564781D01*
Y565947D01*
X1834328D01*
Y564781D01*
X1835495D01*
X1834328Y563615D01*
X1833162Y562449D01*
X1847157Y570612D02*
X1848324Y571779D01*
X1850656D01*
X1851823Y570612D01*
Y565947D01*
X1850656Y564781D01*
X1848324D01*
X1847157Y565947D01*
Y570612D01*
X1854155Y564781D02*
Y565947D01*
X1855322D01*
Y564781D01*
X1854155D01*
X1864652Y571779D02*
X1859987D01*
Y568280D01*
X1862319Y569446D01*
X1863486D01*
X1864652Y568280D01*
Y565947D01*
X1863486Y564781D01*
X1861153D01*
X1859987Y565947D01*
X1868151Y564781D02*
X1870483D01*
X1871650Y565947D01*
Y568280D01*
X1870483Y569446D01*
X1868151D01*
X1866984Y568280D01*
Y565947D01*
X1868151Y564781D01*
X1873982Y569446D02*
X1878647D01*
X1873982Y564781D01*
X1878647D01*
X1887978D02*
X1890310D01*
X1889144D01*
Y569446D01*
X1887978D01*
X1893809Y564781D02*
Y569446D01*
X1897308D01*
X1898474Y568280D01*
Y564781D01*
X1900807D02*
X1903139D01*
X1901973D01*
Y569446D01*
X1900807D01*
X1907805Y570612D02*
Y569446D01*
X1906638D01*
X1908971D01*
X1907805D01*
Y565947D01*
X1908971Y564781D01*
X1912470D02*
X1914802D01*
X1913636D01*
Y569446D01*
X1912470D01*
X1919468D02*
X1921800D01*
X1922966Y568280D01*
Y564781D01*
X1919468D01*
X1918301Y565947D01*
X1919468Y567114D01*
X1922966D01*
X1925299Y564781D02*
X1927632D01*
X1926465D01*
Y571779D01*
X1925299D01*
X1795841Y530613D02*
X1794674Y531779D01*
X1792342D01*
X1791176Y530613D01*
Y525947D01*
X1792342Y524781D01*
X1794674D01*
X1795841Y525947D01*
X1801672Y531779D02*
X1799340D01*
X1798173Y530613D01*
Y525947D01*
X1799340Y524781D01*
X1801672D01*
X1802839Y525947D01*
Y530613D01*
X1801672Y531779D01*
X1805171Y524781D02*
Y531779D01*
X1808670D01*
X1809836Y530613D01*
Y528280D01*
X1808670Y527114D01*
X1805171D01*
X1812169Y524781D02*
Y531779D01*
X1815668D01*
X1816834Y530613D01*
Y528280D01*
X1815668Y527114D01*
X1812169D01*
X1823832Y531779D02*
X1819167D01*
Y524781D01*
X1823832D01*
X1819167Y528280D02*
X1821499D01*
X1826164Y524781D02*
Y531779D01*
X1829663D01*
X1830829Y530613D01*
Y528280D01*
X1829663Y527114D01*
X1826164D01*
X1828497D02*
X1830829Y524781D01*
X1834328Y523615D02*
X1835495Y524781D01*
Y525947D01*
X1834328D01*
Y524781D01*
X1835495D01*
X1834328Y523615D01*
X1833162Y522448D01*
X1847157Y530613D02*
X1848324Y531779D01*
X1850656D01*
X1851823Y530613D01*
Y525947D01*
X1850656Y524781D01*
X1848324D01*
X1847157Y525947D01*
Y530613D01*
X1854155Y524781D02*
Y525947D01*
X1855322D01*
Y524781D01*
X1854155D01*
X1864652Y531779D02*
X1859987D01*
Y528280D01*
X1862319Y529446D01*
X1863486D01*
X1864652Y528280D01*
Y525947D01*
X1863486Y524781D01*
X1861153D01*
X1859987Y525947D01*
X1868151Y524781D02*
X1870483D01*
X1871650Y525947D01*
Y528280D01*
X1870483Y529446D01*
X1868151D01*
X1866984Y528280D01*
Y525947D01*
X1868151Y524781D01*
X1873982Y529446D02*
X1878647D01*
X1873982Y524781D01*
X1878647D01*
X1887978D02*
X1890310D01*
X1889144D01*
Y529446D01*
X1887978D01*
X1893809Y524781D02*
Y529446D01*
X1897308D01*
X1898474Y528280D01*
Y524781D01*
X1900807D02*
X1903139D01*
X1901973D01*
Y529446D01*
X1900807D01*
X1907805Y530613D02*
Y529446D01*
X1906638D01*
X1908971D01*
X1907805D01*
Y525947D01*
X1908971Y524781D01*
X1912470D02*
X1914802D01*
X1913636D01*
Y529446D01*
X1912470D01*
X1919468D02*
X1921800D01*
X1922966Y528280D01*
Y524781D01*
X1919468D01*
X1918301Y525947D01*
X1919468Y527114D01*
X1922966D01*
X1925299Y524781D02*
X1927632D01*
X1926465D01*
Y531779D01*
X1925299D01*
X1795841Y490613D02*
X1794674Y491779D01*
X1792342D01*
X1791176Y490613D01*
Y485947D01*
X1792342Y484781D01*
X1794674D01*
X1795841Y485947D01*
X1801672Y491779D02*
X1799340D01*
X1798173Y490613D01*
Y485947D01*
X1799340Y484781D01*
X1801672D01*
X1802839Y485947D01*
Y490613D01*
X1801672Y491779D01*
X1805171Y484781D02*
Y491779D01*
X1808670D01*
X1809836Y490613D01*
Y488280D01*
X1808670Y487114D01*
X1805171D01*
X1812169Y484781D02*
Y491779D01*
X1815668D01*
X1816834Y490613D01*
Y488280D01*
X1815668Y487114D01*
X1812169D01*
X1823832Y491779D02*
X1819167D01*
Y484781D01*
X1823832D01*
X1819167Y488280D02*
X1821499D01*
X1826164Y484781D02*
Y491779D01*
X1829663D01*
X1830829Y490613D01*
Y488280D01*
X1829663Y487114D01*
X1826164D01*
X1828497D02*
X1830829Y484781D01*
X1834328Y483615D02*
X1835495Y484781D01*
Y485947D01*
X1834328D01*
Y484781D01*
X1835495D01*
X1834328Y483615D01*
X1833162Y482448D01*
X1847157Y490613D02*
X1848324Y491779D01*
X1850656D01*
X1851823Y490613D01*
Y485947D01*
X1850656Y484781D01*
X1848324D01*
X1847157Y485947D01*
Y490613D01*
X1854155Y484781D02*
Y485947D01*
X1855322D01*
Y484781D01*
X1854155D01*
X1864652Y491779D02*
X1859987D01*
Y488280D01*
X1862319Y489446D01*
X1863486D01*
X1864652Y488280D01*
Y485947D01*
X1863486Y484781D01*
X1861153D01*
X1859987Y485947D01*
X1868151Y484781D02*
X1870483D01*
X1871650Y485947D01*
Y488280D01*
X1870483Y489446D01*
X1868151D01*
X1866984Y488280D01*
Y485947D01*
X1868151Y484781D01*
X1873982Y489446D02*
X1878647D01*
X1873982Y484781D01*
X1878647D01*
X1887978D02*
X1890310D01*
X1889144D01*
Y489446D01*
X1887978D01*
X1893809Y484781D02*
Y489446D01*
X1897308D01*
X1898474Y488280D01*
Y484781D01*
X1900807D02*
X1903139D01*
X1901973D01*
Y489446D01*
X1900807D01*
X1907805Y490613D02*
Y489446D01*
X1906638D01*
X1908971D01*
X1907805D01*
Y485947D01*
X1908971Y484781D01*
X1912470D02*
X1914802D01*
X1913636D01*
Y489446D01*
X1912470D01*
X1919468D02*
X1921800D01*
X1922966Y488280D01*
Y484781D01*
X1919468D01*
X1918301Y485947D01*
X1919468Y487114D01*
X1922966D01*
X1925299Y484781D02*
X1927632D01*
X1926465D01*
Y491779D01*
X1925299D01*
X1787176Y504781D02*
Y511779D01*
X1790675D01*
X1791841Y510612D01*
Y508280D01*
X1790675Y507114D01*
X1787176D01*
X1794173Y504781D02*
Y511779D01*
X1797672D01*
X1798838Y510612D01*
Y508280D01*
X1797672Y507114D01*
X1794173D01*
X1802337Y503615D02*
X1803504Y504781D01*
Y505947D01*
X1802337D01*
Y504781D01*
X1803504D01*
X1802337Y503615D01*
X1801171Y502449D01*
X1818665Y504781D02*
Y511779D01*
X1815166Y508280D01*
X1819832D01*
X1822164Y504781D02*
Y505947D01*
X1823331D01*
Y504781D01*
X1822164D01*
X1827996Y510612D02*
X1829162Y511779D01*
X1831495D01*
X1832661Y510612D01*
Y509446D01*
X1831495Y508280D01*
X1830328D01*
X1831495D01*
X1832661Y507114D01*
Y505947D01*
X1831495Y504781D01*
X1829162D01*
X1827996Y505947D01*
X1834994Y510612D02*
X1836160Y511779D01*
X1838492D01*
X1839659Y510612D01*
Y509446D01*
X1838492Y508280D01*
X1837326D01*
X1838492D01*
X1839659Y507114D01*
Y505947D01*
X1838492Y504781D01*
X1836160D01*
X1834994Y505947D01*
X1841991Y504781D02*
X1844324D01*
X1843158D01*
Y511779D01*
X1841991Y510612D01*
X1847823Y504781D02*
Y509446D01*
X1848989D01*
X1850155Y508280D01*
Y504781D01*
Y508280D01*
X1851321Y509446D01*
X1852488Y508280D01*
Y504781D01*
X1854820D02*
X1857153D01*
X1855987D01*
Y509446D01*
X1854820D01*
X1860652Y504781D02*
X1862984D01*
X1861818D01*
Y511779D01*
X1860652D01*
X1867650Y503615D02*
X1868816Y504781D01*
Y505947D01*
X1867650D01*
Y504781D01*
X1868816D01*
X1867650Y503615D01*
X1866483Y502449D01*
X1883978Y504781D02*
X1881645D01*
X1880479Y505947D01*
Y508280D01*
X1881645Y509446D01*
X1883978D01*
X1885144Y508280D01*
Y507114D01*
X1880479D01*
X1887477Y502449D02*
Y509446D01*
X1890975D01*
X1892142Y508280D01*
Y505947D01*
X1890975Y504781D01*
X1887477D01*
X1894474D02*
X1897973D01*
X1899139Y505947D01*
X1897973Y507114D01*
X1895641D01*
X1894474Y508280D01*
X1895641Y509446D01*
X1899139D01*
X1901472Y507114D02*
X1906137D01*
X1901472Y509446D02*
X1906137D01*
X1911969Y504781D02*
Y511779D01*
X1908470Y508280D01*
X1913135D01*
X1915467Y504781D02*
Y505947D01*
X1916634D01*
Y504781D01*
X1915467D01*
X1921299Y510612D02*
X1922465Y511779D01*
X1924798D01*
X1925964Y510612D01*
Y509446D01*
X1924798Y508280D01*
X1923631D01*
X1924798D01*
X1925964Y507114D01*
Y505947D01*
X1924798Y504781D01*
X1922465D01*
X1921299Y505947D01*
D20*
X1276514Y777976D02*
G03*
X1272514Y781876I-3950J-50D01*
G01*
X1272614Y571876D02*
G03*
X1276514Y575876I-50J3950D01*
G01*
X927963Y575876D02*
G03*
X931963Y571876I4000J0D01*
G01*
Y781876D02*
G03*
X927963Y777976I-50J-3950D01*
G01*
X1276514Y575876D02*
Y777976D01*
X1181963Y781876D02*
X1278420D01*
X931963D02*
X1181963D01*
X931963Y571876D02*
X1272614D01*
X927963Y575876D02*
Y777976D01*
D62*
X1615176Y620781D02*
X1639176D01*
X1631176Y560781D02*
X1639176Y620781D01*
X1615176Y560781D02*
X1631176D01*
X1607176Y620781D02*
X1615176Y560781D01*
X1607176Y620781D02*
X1615176D01*
X1659176Y476781D02*
X1667176D01*
X1659176Y536781D02*
X1667176Y476781D01*
X1643176Y536781D02*
X1659176D01*
X1635176Y476781D02*
X1643176Y536781D01*
X1635176Y476781D02*
X1659176D01*
X1683176Y620781D02*
X1715176D01*
Y476781D02*
Y620781D01*
X1683176Y476781D02*
X1715176D01*
X1683176D02*
Y620781D01*
X1862355Y1004873D02*
Y997675D01*
Y1001274D01*
X1867153D01*
Y1004873D01*
Y997675D01*
X1870752D02*
X1873151D01*
X1874351Y998875D01*
Y1001274D01*
X1873151Y1002474D01*
X1870752D01*
X1869553Y1001274D01*
Y998875D01*
X1870752Y997675D01*
X1876750D02*
X1879149D01*
X1877950D01*
Y1004873D01*
X1876750D01*
X1886347Y997675D02*
X1883948D01*
X1882748Y998875D01*
Y1001274D01*
X1883948Y1002474D01*
X1886347D01*
X1887547Y1001274D01*
Y1000074D01*
X1882748D01*
X1897144Y1004873D02*
X1901942D01*
X1899543D01*
Y997675D01*
X1904341Y1002474D02*
Y998875D01*
X1905541Y997675D01*
X1909140D01*
Y996476D01*
X1907940Y995276D01*
X1906741D01*
X1909140Y997675D02*
Y1002474D01*
X1911539Y995276D02*
Y1002474D01*
X1915138D01*
X1916338Y1001274D01*
Y998875D01*
X1915138Y997675D01*
X1911539D01*
X1922335D02*
X1919936D01*
X1918737Y998875D01*
Y1001274D01*
X1919936Y1002474D01*
X1922335D01*
X1923535Y1001274D01*
Y1000074D01*
X1918737D01*
X1811767Y997675D02*
Y1004873D01*
X1815366D01*
X1816566Y1003673D01*
Y1001274D01*
X1815366Y1000074D01*
X1811767D01*
X1818965Y997675D02*
X1821364D01*
X1820165D01*
Y1004873D01*
X1818965D01*
X1826163Y1002474D02*
X1828562D01*
X1829762Y1001274D01*
Y997675D01*
X1826163D01*
X1824963Y998875D01*
X1826163Y1000074D01*
X1829762D01*
X1833360Y1003673D02*
Y1002474D01*
X1832161D01*
X1834560D01*
X1833360D01*
Y998875D01*
X1834560Y997675D01*
X1841758D02*
X1839358D01*
X1838159Y998875D01*
Y1001274D01*
X1839358Y1002474D01*
X1841758D01*
X1842957Y1001274D01*
Y1000074D01*
X1838159D01*
X1850155Y1004873D02*
Y997675D01*
X1846556D01*
X1845357Y998875D01*
Y1001274D01*
X1846556Y1002474D01*
X1850155D01*
X1682005Y1004873D02*
X1677207D01*
Y1001274D01*
X1679606D01*
X1677207D01*
Y997675D01*
X1684405D02*
X1686804D01*
X1685604D01*
Y1002474D01*
X1684405D01*
X1690403Y997675D02*
Y1002474D01*
X1694002D01*
X1695201Y1001274D01*
Y997675D01*
X1697600D02*
X1700000D01*
X1698800D01*
Y1002474D01*
X1697600D01*
X1703598Y997675D02*
X1707197D01*
X1708397Y998875D01*
X1707197Y1000074D01*
X1704798D01*
X1703598Y1001274D01*
X1704798Y1002474D01*
X1708397D01*
X1710796Y1004873D02*
Y997675D01*
Y1001274D01*
X1711996Y1002474D01*
X1714395D01*
X1715594Y1001274D01*
Y997675D01*
X1721593D02*
X1719193D01*
X1717994Y998875D01*
Y1001274D01*
X1719193Y1002474D01*
X1721593D01*
X1722792Y1001274D01*
Y1000074D01*
X1717994D01*
X1729990Y1004873D02*
Y997675D01*
X1726391D01*
X1725191Y998875D01*
Y1001274D01*
X1726391Y1002474D01*
X1729990D01*
X1739587Y1004873D02*
Y997675D01*
Y1001274D01*
X1744385D01*
Y1004873D01*
Y997675D01*
X1747984D02*
X1750383D01*
X1751583Y998875D01*
Y1001274D01*
X1750383Y1002474D01*
X1747984D01*
X1746784Y1001274D01*
Y998875D01*
X1747984Y997675D01*
X1753982D02*
X1756381D01*
X1755182D01*
Y1004873D01*
X1753982D01*
X1763579Y997675D02*
X1761180D01*
X1759980Y998875D01*
Y1001274D01*
X1761180Y1002474D01*
X1763579D01*
X1764779Y1001274D01*
Y1000074D01*
X1759980D01*
X1779174Y1003673D02*
X1777974Y1004873D01*
X1775575D01*
X1774376Y1003673D01*
Y1002474D01*
X1775575Y1001274D01*
X1777974D01*
X1779174Y1000074D01*
Y998875D01*
X1777974Y997675D01*
X1775575D01*
X1774376Y998875D01*
X1781573Y997675D02*
X1783972D01*
X1782773D01*
Y1002474D01*
X1781573D01*
X1787571D02*
X1792370D01*
X1787571Y997675D01*
X1792370D01*
X1798368D02*
X1795968D01*
X1794769Y998875D01*
Y1001274D01*
X1795968Y1002474D01*
X1798368D01*
X1799567Y1001274D01*
Y1000074D01*
X1794769D01*
X1607426Y1004873D02*
Y997675D01*
Y1001274D01*
X1612224D01*
Y1004873D01*
Y997675D01*
X1614623D02*
X1617023D01*
X1615823D01*
Y1002474D01*
X1614623D01*
X1621821Y1003673D02*
Y1002474D01*
X1620621D01*
X1623021D01*
X1621821D01*
Y998875D01*
X1623021Y997675D01*
X1638615Y1003673D02*
X1637416Y1004873D01*
X1635017D01*
X1633817Y1003673D01*
Y998875D01*
X1635017Y997675D01*
X1637416D01*
X1638615Y998875D01*
X1642214Y997675D02*
X1644614D01*
X1645813Y998875D01*
Y1001274D01*
X1644614Y1002474D01*
X1642214D01*
X1641015Y1001274D01*
Y998875D01*
X1642214Y997675D01*
X1648212Y1002474D02*
Y998875D01*
X1649412Y997675D01*
X1653011D01*
Y1002474D01*
X1655410Y997675D02*
Y1002474D01*
X1659009D01*
X1660209Y1001274D01*
Y997675D01*
X1663807Y1003673D02*
Y1002474D01*
X1662608D01*
X1665007D01*
X1663807D01*
Y998875D01*
X1665007Y997675D01*
X1561637Y1003673D02*
X1560437Y1004873D01*
X1558038D01*
X1556838Y1003673D01*
Y1002474D01*
X1558038Y1001274D01*
X1560437D01*
X1561637Y1000074D01*
Y998875D01*
X1560437Y997675D01*
X1558038D01*
X1556838Y998875D01*
X1564036Y1002474D02*
Y998875D01*
X1565235Y997675D01*
X1568834D01*
Y996476D01*
X1567634Y995276D01*
X1566435D01*
X1568834Y997675D02*
Y1002474D01*
X1571233Y997675D02*
Y1002474D01*
X1572433D01*
X1573633Y1001274D01*
Y997675D01*
Y1001274D01*
X1574832Y1002474D01*
X1576032Y1001274D01*
Y997675D01*
X1578431Y1004873D02*
Y997675D01*
X1582030D01*
X1583230Y998875D01*
Y1000074D01*
Y1001274D01*
X1582030Y1002474D01*
X1578431D01*
X1586828Y997675D02*
X1589227D01*
X1590427Y998875D01*
Y1001274D01*
X1589227Y1002474D01*
X1586828D01*
X1585629Y1001274D01*
Y998875D01*
X1586828Y997675D01*
X1592826D02*
X1595226D01*
X1594026D01*
Y1004873D01*
X1592826D01*
D64*
X1660107Y859179D02*
Y853180D01*
Y856180D01*
X1664106D01*
Y859179D01*
Y853180D01*
X1667105D02*
X1669104D01*
X1670104Y854180D01*
Y856180D01*
X1669104Y857179D01*
X1667105D01*
X1666105Y856180D01*
Y854180D01*
X1667105Y853180D01*
X1672103D02*
X1674102D01*
X1673103D01*
Y859179D01*
X1672103D01*
X1680100Y853180D02*
X1678101D01*
X1677102Y854180D01*
Y856180D01*
X1678101Y857179D01*
X1680100D01*
X1681100Y856180D01*
Y855180D01*
X1677102D01*
X1689098Y859179D02*
Y853180D01*
X1693096D01*
X1698095D02*
X1696095D01*
X1695096Y854180D01*
Y856180D01*
X1696095Y857179D01*
X1698095D01*
X1699094Y856180D01*
Y855180D01*
X1695096D01*
X1701094Y853180D02*
Y857179D01*
X1704093D01*
X1705092Y856180D01*
Y853180D01*
X1709091Y851181D02*
X1710091D01*
X1711090Y852181D01*
Y857179D01*
X1708091D01*
X1707092Y856180D01*
Y854180D01*
X1708091Y853180D01*
X1711090D01*
X1714090Y858179D02*
Y857179D01*
X1713090D01*
X1715089D01*
X1714090D01*
Y854180D01*
X1715089Y853180D01*
X1718088Y859179D02*
Y853180D01*
Y856180D01*
X1719088Y857179D01*
X1721087D01*
X1722087Y856180D01*
Y853180D01*
X1660107Y863178D02*
Y869176D01*
X1663106D01*
X1664106Y868176D01*
Y866177D01*
X1663106Y865177D01*
X1660107D01*
X1662106D02*
X1664106Y863178D01*
X1667105D02*
X1669104D01*
X1670104Y864178D01*
Y866177D01*
X1669104Y867177D01*
X1667105D01*
X1666105Y866177D01*
Y864178D01*
X1667105Y863178D01*
X1672103Y867177D02*
Y864178D01*
X1673103Y863178D01*
X1676102D01*
Y867177D01*
X1679101Y868176D02*
Y867177D01*
X1678101D01*
X1680100D01*
X1679101D01*
Y864178D01*
X1680100Y863178D01*
X1686098D02*
X1684099D01*
X1683100Y864178D01*
Y866177D01*
X1684099Y867177D01*
X1686098D01*
X1687098Y866177D01*
Y865177D01*
X1683100D01*
X1693096Y869176D02*
Y863178D01*
X1690097D01*
X1689098Y864178D01*
Y866177D01*
X1690097Y867177D01*
X1693096D01*
X1701094Y863178D02*
Y869176D01*
X1704093D01*
X1705092Y868176D01*
Y866177D01*
X1704093Y865177D01*
X1701094D01*
X1708091Y867177D02*
X1710091D01*
X1711090Y866177D01*
Y863178D01*
X1708091D01*
X1707092Y864178D01*
X1708091Y865177D01*
X1711090D01*
X1714090Y868176D02*
Y867177D01*
X1713090D01*
X1715089D01*
X1714090D01*
Y864178D01*
X1715089Y863178D01*
X1718088Y869176D02*
Y863178D01*
Y866177D01*
X1719088Y867177D01*
X1721087D01*
X1722087Y866177D01*
Y863178D01*
X1730084Y869176D02*
Y863178D01*
X1734083D01*
X1739081D02*
X1737082D01*
X1736082Y864178D01*
Y866177D01*
X1737082Y867177D01*
X1739081D01*
X1740081Y866177D01*
Y865177D01*
X1736082D01*
X1742080Y863178D02*
Y867177D01*
X1745079D01*
X1746079Y866177D01*
Y863178D01*
X1750078Y861178D02*
X1751077D01*
X1752077Y862178D01*
Y867177D01*
X1749078D01*
X1748079Y866177D01*
Y864178D01*
X1749078Y863178D01*
X1752077D01*
X1755076Y868176D02*
Y867177D01*
X1754077D01*
X1756076D01*
X1755076D01*
Y864178D01*
X1756076Y863178D01*
X1759075Y869176D02*
Y863178D01*
Y866177D01*
X1760075Y867177D01*
X1762074D01*
X1763074Y866177D01*
Y863178D01*
X1560837Y868176D02*
X1559837Y869176D01*
X1557838D01*
X1556838Y868176D01*
Y867177D01*
X1557838Y866177D01*
X1559837D01*
X1560837Y865177D01*
Y864178D01*
X1559837Y863178D01*
X1557838D01*
X1556838Y864178D01*
X1562836Y863178D02*
X1564835D01*
X1563836D01*
Y869176D01*
X1562836D01*
X1568834Y863178D02*
X1570833D01*
X1571833Y864178D01*
Y866177D01*
X1570833Y867177D01*
X1568834D01*
X1567834Y866177D01*
Y864178D01*
X1568834Y863178D01*
X1574832Y868176D02*
Y867177D01*
X1573833D01*
X1575832D01*
X1574832D01*
Y864178D01*
X1575832Y863178D01*
X1588828Y869176D02*
Y863178D01*
X1585829D01*
X1584829Y864178D01*
Y866177D01*
X1585829Y867177D01*
X1588828D01*
X1593826Y863178D02*
X1591827D01*
X1590827Y864178D01*
Y866177D01*
X1591827Y867177D01*
X1593826D01*
X1594826Y866177D01*
Y865177D01*
X1590827D01*
X1597825Y863178D02*
Y868176D01*
Y866177D01*
X1596825D01*
X1598824D01*
X1597825D01*
Y868176D01*
X1598824Y869176D01*
X1601823Y863178D02*
X1603823D01*
X1602823D01*
Y867177D01*
X1601823D01*
X1606822Y863178D02*
Y867177D01*
X1609821D01*
X1610821Y866177D01*
Y863178D01*
X1612820D02*
X1614819D01*
X1613820D01*
Y867177D01*
X1612820D01*
X1618818Y868176D02*
Y867177D01*
X1617818D01*
X1619818D01*
X1618818D01*
Y864178D01*
X1619818Y863178D01*
X1622817D02*
X1624816D01*
X1623816D01*
Y867177D01*
X1622817D01*
X1628815Y863178D02*
X1630814D01*
X1631814Y864178D01*
Y866177D01*
X1630814Y867177D01*
X1628815D01*
X1627815Y866177D01*
Y864178D01*
X1628815Y863178D01*
X1633813D02*
Y867177D01*
X1636812D01*
X1637812Y866177D01*
Y863178D01*
X1639811D02*
X1642810D01*
X1643810Y864178D01*
X1642810Y865177D01*
X1640811D01*
X1639811Y866177D01*
X1640811Y867177D01*
X1643810D01*
X1651807D02*
X1652807D01*
Y866177D01*
X1651807D01*
Y867177D01*
Y864178D02*
X1652807D01*
Y863178D01*
X1651807D01*
Y864178D01*
D77*
X1259636Y727742D02*
G03*
X1259636Y727742I-1000J0D01*
G01*
Y717899D02*
G03*
X1259636Y717899I-1000J0D01*
G01*
X1108963Y771876D02*
G03*
X1108963Y771876I-1000J0D01*
G01*
X1118963D02*
G03*
X1118963Y771876I-1000J0D01*
G01*
X1128963D02*
G03*
X1128963Y771876I-1000J0D01*
G01*
X1138963D02*
G03*
X1138963Y771876I-1000J0D01*
G01*
X1148963D02*
G03*
X1148963Y771876I-1000J0D01*
G01*
X1158963D02*
G03*
X1158963Y771876I-1000J0D01*
G01*
X1168963D02*
G03*
X1168963Y771876I-1000J0D01*
G01*
X1178963D02*
G03*
X1178963Y771876I-1000J0D01*
G01*
X1002963D02*
G03*
X1002963Y771876I-1000J0D01*
G01*
X1012963D02*
G03*
X1012963Y771876I-1000J0D01*
G01*
X1022963D02*
G03*
X1022963Y771876I-1000J0D01*
G01*
X1032963D02*
G03*
X1032963Y771876I-1000J0D01*
G01*
X1042963D02*
G03*
X1042963Y771876I-1000J0D01*
G01*
X1052963D02*
G03*
X1052963Y771876I-1000J0D01*
G01*
X1062963D02*
G03*
X1062963Y771876I-1000J0D01*
G01*
X1072963D02*
G03*
X1072963Y771876I-1000J0D01*
G01*
X1082963D02*
G03*
X1082963Y771876I-1000J0D01*
G01*
X1092963D02*
G03*
X1092963Y771876I-1000J0D01*
G01*
X1178963Y581876D02*
G03*
X1178963Y581876I-1000J0D01*
G01*
X1168963D02*
G03*
X1168963Y581876I-1000J0D01*
G01*
X1158963D02*
G03*
X1158963Y581876I-1000J0D01*
G01*
X1148963D02*
G03*
X1148963Y581876I-1000J0D01*
G01*
X1138963D02*
G03*
X1138963Y581876I-1000J0D01*
G01*
X1128963D02*
G03*
X1128963Y581876I-1000J0D01*
G01*
X1108963D02*
G03*
X1108963Y581876I-1000J0D01*
G01*
X1098963D02*
G03*
X1098963Y581876I-1000J0D01*
G01*
X1088963D02*
G03*
X1088963Y581876I-1000J0D01*
G01*
X1078963D02*
G03*
X1078963Y581876I-1000J0D01*
G01*
X1068963D02*
G03*
X1068963Y581876I-1000J0D01*
G01*
X1058963D02*
G03*
X1058963Y581876I-1000J0D01*
G01*
X1048963D02*
G03*
X1048963Y581876I-1000J0D01*
G01*
X1038963D02*
G03*
X1038963Y581876I-1000J0D01*
G01*
X1255798Y672112D02*
G03*
X1255798Y672112I-1000J0D01*
G01*
Y662112D02*
G03*
X1255798Y662112I-1000J0D01*
G01*
X1265798Y672112D02*
G03*
X1265798Y672112I-1000J0D01*
G01*
Y662112D02*
G03*
X1265798Y662112I-1000J0D01*
G01*
Y632112D02*
G03*
X1265798Y632112I-1000J0D01*
G01*
Y622112D02*
G03*
X1265798Y622112I-1000J0D01*
G01*
Y642112D02*
G03*
X1265798Y642112I-1000J0D01*
G01*
Y652112D02*
G03*
X1265798Y652112I-1000J0D01*
G01*
X1255798Y622112D02*
G03*
X1255798Y622112I-1000J0D01*
G01*
Y632112D02*
G03*
X1255798Y632112I-1000J0D01*
G01*
Y642112D02*
G03*
X1255798Y642112I-1000J0D01*
G01*
Y652112D02*
G03*
X1255798Y652112I-1000J0D01*
G01*
X1265798Y682112D02*
G03*
X1265798Y682112I-1000J0D01*
G01*
X1255798D02*
G03*
X1255798Y682112I-1000J0D01*
G01*
X1265798Y692112D02*
G03*
X1265798Y692112I-1000J0D01*
G01*
X1255798D02*
G03*
X1255798Y692112I-1000J0D01*
G01*
X1165215Y675576D02*
X1166215Y674576D01*
X1167215Y675576D01*
X1166215Y676576D02*
X1167215Y675576D01*
X1165215D02*
X1166215Y676576D01*
X1161278Y671639D02*
X1162278Y670639D01*
X1163278Y671639D01*
X1162278Y672639D02*
X1163278Y671639D01*
X1161278D02*
X1162278Y672639D01*
X1169152Y671639D02*
X1170152Y670639D01*
X1171152Y671639D01*
X1170152Y672639D02*
X1171152Y671639D01*
X1169152D02*
X1170152Y672639D01*
X1169152Y679513D02*
X1170152Y678513D01*
X1171152Y679513D01*
X1170152Y680513D02*
X1171152Y679513D01*
X1169152D02*
X1170152Y680513D01*
X1161278Y679513D02*
X1162278Y678513D01*
X1163278Y679513D01*
X1162278Y680513D02*
X1163278Y679513D01*
X1161278D02*
X1162278Y680513D01*
X1161278Y675576D02*
X1162278Y674576D01*
X1163278Y675576D01*
X1162278Y676576D02*
X1163278Y675576D01*
X1161278D02*
X1162278Y676576D01*
X1169152Y675576D02*
X1170152Y674576D01*
X1171152Y675576D01*
X1170152Y676576D02*
X1171152Y675576D01*
X1169152D02*
X1170152Y676576D01*
X1165325Y679293D02*
X1166325Y678294D01*
X1167325Y679293D01*
X1166325Y680294D02*
X1167325Y679293D01*
X1165325D02*
X1166325Y680294D01*
X1165215Y671639D02*
X1166215Y670639D01*
X1167215Y671639D01*
X1166215Y672639D02*
X1167215Y671639D01*
X1165215D02*
X1166215Y672639D01*
X982144Y695261D02*
X983144Y694261D01*
X984144Y695261D01*
X983144Y696261D02*
X984144Y695261D01*
X982144D02*
X983144Y696261D01*
X984113Y697230D02*
X985113Y696230D01*
X986113Y697230D01*
X985113Y698230D02*
X986113Y697230D01*
X984113D02*
X985113Y698230D01*
X984113Y693293D02*
X985113Y692293D01*
X986113Y693293D01*
X985113Y694293D02*
X986113Y693293D01*
X984113D02*
X985113Y694293D01*
X986081Y697230D02*
X987081Y696230D01*
X988081Y697230D01*
X987081Y698230D02*
X988081Y697230D01*
X986081D02*
X987081Y698230D01*
X986081Y693293D02*
X987081Y692293D01*
X988081Y693293D01*
X987081Y694293D02*
X988081Y693293D01*
X986081D02*
X987081Y694293D01*
X980176Y693293D02*
X981176Y692293D01*
X982176Y693293D01*
X981176Y694293D02*
X982176Y693293D01*
X980176D02*
X981176Y694293D01*
X980176Y697230D02*
X981176Y696230D01*
X982176Y697230D01*
X981176Y698230D02*
X982176Y697230D01*
X980176D02*
X981176Y698230D01*
X978207Y697230D02*
X979207Y696230D01*
X980207Y697230D01*
X979207Y698230D02*
X980207Y697230D01*
X978207D02*
X979207Y698230D01*
X978207Y693293D02*
X979207Y692293D01*
X980207Y693293D01*
X979207Y694293D02*
X980207Y693293D01*
X978207D02*
X979207Y694293D01*
X997892Y693293D02*
X998892Y692293D01*
X999892Y693293D01*
X998892Y694293D02*
X999892Y693293D01*
X997892D02*
X998892Y694293D01*
X995357Y693285D02*
X996357Y692285D01*
X997357Y693285D01*
X996357Y694285D02*
X997357Y693285D01*
X995357D02*
X996357Y694285D01*
X994741Y698283D02*
X995741Y697283D01*
X996741Y698283D01*
X995741Y699283D02*
X996741Y698283D01*
X994741D02*
X995741Y699283D01*
X981019Y681528D02*
X982019Y680528D01*
X983019Y681528D01*
X982019Y682528D02*
X983019Y681528D01*
X981019D02*
X982019Y682528D01*
X981857Y686136D02*
X982857Y685136D01*
X983857Y686136D01*
X982857Y687136D02*
X983857Y686136D01*
X981857D02*
X982857Y687136D01*
X976826Y702843D02*
X977826Y701843D01*
X978826Y702843D01*
X977826Y703843D02*
X978826Y702843D01*
X976826D02*
X977826Y703843D01*
X980200Y710739D02*
X981200Y709739D01*
X982200Y710739D01*
X981200Y711739D02*
X982200Y710739D01*
X980200D02*
X981200Y711739D01*
X984248Y710691D02*
X985248Y709691D01*
X986248Y710691D01*
X985248Y711691D02*
X986248Y710691D01*
X984248D02*
X985248Y711691D01*
X978207Y720852D02*
X979207Y719852D01*
X980207Y720852D01*
X979207Y721852D02*
X980207Y720852D01*
X978207D02*
X979207Y721852D01*
X982144Y720852D02*
X983144Y719852D01*
X984144Y720852D01*
X983144Y721852D02*
X984144Y720852D01*
X982144D02*
X983144Y721852D01*
X986081Y722821D02*
X987081Y721820D01*
X988081Y722821D01*
X987081Y723820D02*
X988081Y722821D01*
X986081D02*
X987081Y723820D01*
X991987Y722821D02*
X992987Y721820D01*
X993987Y722821D01*
X992987Y723820D02*
X993987Y722821D01*
X991987D02*
X992987Y723820D01*
X1230361Y774783D02*
X1231361Y773783D01*
X1232360Y774783D01*
X1231361Y775783D02*
X1232360Y774783D01*
X1230361D02*
X1231361Y775783D01*
X1239206Y714437D02*
X1240206Y713437D01*
X1241206Y714437D01*
X1240206Y715437D02*
X1241206Y714437D01*
X1239206D02*
X1240206Y715437D01*
X1244099Y715974D02*
X1245099Y714974D01*
X1246099Y715974D01*
X1245099Y716974D02*
X1246099Y715974D01*
X1244099D02*
X1245099Y716974D01*
X1215868Y774823D02*
X1216868Y773822D01*
X1217868Y774823D01*
X1216868Y775822D02*
X1217868Y774823D01*
X1215868D02*
X1216868Y775822D01*
X1205459Y774659D02*
X1206459Y773659D01*
X1207459Y774659D01*
X1206459Y775659D02*
X1207459Y774659D01*
X1205459D02*
X1206459Y775659D01*
X1212503Y757174D02*
X1213503Y756174D01*
X1214503Y757174D01*
X1213503Y758174D02*
X1214503Y757174D01*
X1212503D02*
X1213503Y758174D01*
X993873Y685348D02*
X994873Y684348D01*
X995873Y685348D01*
X994873Y686348D02*
X995873Y685348D01*
X993873D02*
X994873Y686348D01*
X990487Y685392D02*
X991487Y684391D01*
X992487Y685392D01*
X991487Y686391D02*
X992487Y685392D01*
X990487D02*
X991487Y686391D01*
X984113Y695261D02*
X985113Y694261D01*
X986113Y695261D01*
X985113Y696261D02*
X986113Y695261D01*
X984113D02*
X985113Y696261D01*
X980176Y695261D02*
X981176Y694261D01*
X982176Y695261D01*
X981176Y696261D02*
X982176Y695261D01*
X980176D02*
X981176Y696261D01*
X1177026Y661797D02*
X1178026Y660797D01*
X1179026Y661797D01*
X1178026Y662797D02*
X1179026Y661797D01*
X1177026D02*
X1178026Y662797D01*
X1169152Y651954D02*
X1170152Y650954D01*
X1171152Y651954D01*
X1170152Y652954D02*
X1171152Y651954D01*
X1169152D02*
X1170152Y652954D01*
X1165215Y651954D02*
X1166215Y650954D01*
X1167215Y651954D01*
X1166215Y652954D02*
X1167215Y651954D01*
X1165215D02*
X1166215Y652954D01*
X1159309Y649986D02*
X1160309Y648986D01*
X1161309Y649986D01*
X1160309Y650986D02*
X1161309Y649986D01*
X1159309D02*
X1160309Y650986D01*
X1226239Y756285D02*
X1227239Y755285D01*
X1228239Y756285D01*
X1227239Y757285D02*
X1228239Y756285D01*
X1226239D02*
X1227239Y757285D01*
X1222302Y756285D02*
X1223302Y755285D01*
X1224302Y756285D01*
X1223302Y757285D02*
X1224302Y756285D01*
X1222302D02*
X1223302Y757285D01*
X1238050Y756285D02*
X1239050Y755285D01*
X1240050Y756285D01*
X1239050Y757285D02*
X1240050Y756285D01*
X1238050D02*
X1239050Y757285D01*
X1234113Y756285D02*
X1235113Y755285D01*
X1236113Y756285D01*
X1235113Y757285D02*
X1236113Y756285D01*
X1234113D02*
X1235113Y757285D01*
X1056947Y610616D02*
X1057947Y609616D01*
X1058947Y610616D01*
X1057947Y611616D02*
X1058947Y610616D01*
X1056947D02*
X1057947Y611616D01*
X1037262Y606679D02*
X1038262Y605679D01*
X1039262Y606679D01*
X1038262Y607679D02*
X1039262Y606679D01*
X1037262D02*
X1038262Y607679D01*
X1029388Y606679D02*
X1030388Y605679D01*
X1031388Y606679D01*
X1030388Y607679D02*
X1031388Y606679D01*
X1029388D02*
X1030388Y607679D01*
X1039231Y614553D02*
X1040231Y613553D01*
X1041231Y614553D01*
X1040231Y615553D02*
X1041231Y614553D01*
X1039231D02*
X1040231Y615553D01*
X1035294Y614553D02*
X1036294Y613553D01*
X1037294Y614553D01*
X1036294Y615553D02*
X1037294Y614553D01*
X1035294D02*
X1036294Y615553D01*
X1049073Y606679D02*
X1050073Y605679D01*
X1051073Y606679D01*
X1050073Y607679D02*
X1051073Y606679D01*
X1049073D02*
X1050073Y607679D01*
X1046294Y615679D02*
X1047294Y614679D01*
X1048294Y615679D01*
X1047294Y616679D02*
X1048294Y615679D01*
X1046294D02*
X1047294Y616679D01*
X1049073Y646049D02*
X1050073Y645049D01*
X1051073Y646049D01*
X1050073Y647049D02*
X1051073Y646049D01*
X1049073D02*
X1050073Y647049D01*
X1056143Y644668D02*
X1057143Y643668D01*
X1058143Y644668D01*
X1057143Y645668D02*
X1058143Y644668D01*
X1056143D02*
X1057143Y645668D01*
X1060884Y644080D02*
X1061884Y643080D01*
X1062884Y644080D01*
X1061884Y645080D02*
X1062884Y644080D01*
X1060884D02*
X1061884Y645080D01*
X1066790Y644080D02*
X1067790Y643080D01*
X1068790Y644080D01*
X1067790Y645080D02*
X1068790Y644080D01*
X1066790D02*
X1067790Y645080D01*
X1063813Y644074D02*
X1064813Y643074D01*
X1065813Y644074D01*
X1064813Y645074D02*
X1065813Y644074D01*
X1063813D02*
X1064813Y645074D01*
X1002617Y707269D02*
X1003617Y706269D01*
X1004617Y707269D01*
X1003617Y708269D02*
X1004617Y707269D01*
X1002617D02*
X1003617Y708269D01*
X1026609Y645238D02*
X1027609Y644238D01*
X1028609Y645238D01*
X1027609Y646238D02*
X1028609Y645238D01*
X1026609D02*
X1027609Y646238D01*
X1030546Y644891D02*
X1031546Y643891D01*
X1032546Y644891D01*
X1031546Y645891D02*
X1032546Y644891D01*
X1030546D02*
X1031546Y645891D01*
X1033325Y606679D02*
X1034325Y605679D01*
X1035325Y606679D01*
X1034325Y607679D02*
X1035325Y606679D01*
X1033325D02*
X1034325Y607679D01*
X1153404Y667702D02*
X1154404Y666702D01*
X1155404Y667702D01*
X1154404Y668702D02*
X1155404Y667702D01*
X1153404D02*
X1154404Y668702D01*
X1153404Y663765D02*
X1154404Y662765D01*
X1155404Y663765D01*
X1154404Y664765D02*
X1155404Y663765D01*
X1153404D02*
X1154404Y664765D01*
X1156340Y659867D02*
X1157340Y658867D01*
X1158340Y659867D01*
X1157340Y660867D02*
X1158340Y659867D01*
X1156340D02*
X1157340Y660867D01*
X1035840Y631114D02*
X1036840Y630114D01*
X1037840Y631114D01*
X1036840Y632114D02*
X1037840Y631114D01*
X1035840D02*
X1036840Y632114D01*
X1032438Y631080D02*
X1033438Y630080D01*
X1034438Y631080D01*
X1033438Y632080D02*
X1034438Y631080D01*
X1032438D02*
X1033438Y632080D01*
X1167229Y661983D02*
X1168229Y660983D01*
X1169229Y661983D01*
X1168229Y662983D02*
X1169229Y661983D01*
X1167229D02*
X1168229Y662983D01*
X1051780Y614553D02*
X1052780Y613553D01*
X1053780Y614553D01*
X1052780Y615553D02*
X1053780Y614553D01*
X1051780D02*
X1052780Y615553D01*
X1055471Y614553D02*
X1056471Y613553D01*
X1057471Y614553D01*
X1056471Y615553D02*
X1057471Y614553D01*
X1055471D02*
X1056471Y615553D01*
X1059900Y614553D02*
X1060900Y613553D01*
X1061900Y614553D01*
X1060900Y615553D02*
X1061900Y614553D01*
X1059900D02*
X1060900Y615553D01*
X1062853Y614553D02*
X1063853Y613553D01*
X1064853Y614553D01*
X1063853Y615553D02*
X1064853Y614553D01*
X1062853D02*
X1063853Y615553D01*
X1049073Y628332D02*
X1050073Y627332D01*
X1051073Y628332D01*
X1050073Y629332D02*
X1051073Y628332D01*
X1049073D02*
X1050073Y629332D01*
X1043168Y628332D02*
X1044168Y627332D01*
X1045168Y628332D01*
X1044168Y629332D02*
X1045168Y628332D01*
X1043168D02*
X1044168Y629332D01*
X1035294Y628332D02*
X1036294Y627332D01*
X1037294Y628332D01*
X1036294Y629332D02*
X1037294Y628332D01*
X1035294D02*
X1036294Y629332D01*
X1027420Y628332D02*
X1028420Y627332D01*
X1029420Y628332D01*
X1028420Y629332D02*
X1029420Y628332D01*
X1027420D02*
X1028420Y629332D01*
X1236081Y734631D02*
X1237081Y733632D01*
X1238081Y734631D01*
X1237081Y735632D02*
X1238081Y734631D01*
X1236081D02*
X1237081Y735632D01*
X1238050Y726757D02*
X1239050Y725758D01*
X1240050Y726757D01*
X1239050Y727758D02*
X1240050Y726757D01*
X1238050D02*
X1239050Y727758D01*
X1237944Y729391D02*
X1238944Y728391D01*
X1239944Y729391D01*
X1238944Y730391D02*
X1239944Y729391D01*
X1237944D02*
X1238944Y730391D01*
X1241987Y728726D02*
X1242987Y727726D01*
X1243987Y728726D01*
X1242987Y729726D02*
X1243987Y728726D01*
X1241987D02*
X1242987Y729726D01*
X978207Y677545D02*
X979207Y676545D01*
X980207Y677545D01*
X979207Y678545D02*
X980207Y677545D01*
X978207D02*
X979207Y678545D01*
X984113Y677545D02*
X985113Y676545D01*
X986113Y677545D01*
X985113Y678545D02*
X986113Y677545D01*
X984113D02*
X985113Y678545D01*
X1027420Y720852D02*
X1028420Y719852D01*
X1029420Y720852D01*
X1028420Y721852D02*
X1029420Y720852D01*
X1027420D02*
X1028420Y721852D01*
X1030814Y720852D02*
X1031814Y719852D01*
X1032814Y720852D01*
X1031814Y721852D02*
X1032814Y720852D01*
X1030814D02*
X1031814Y721852D01*
X943447Y620746D02*
X943947Y620246D01*
X942947Y620746D02*
X943447D01*
X942947D02*
X943447Y621246D01*
X942947Y621746D02*
X943447Y621246D01*
X942947Y621746D02*
X943447D01*
X943947Y622246D01*
X944447Y621746D01*
X944947D01*
X944447Y621246D02*
X944947Y621746D01*
X944447Y621246D02*
X944947Y620746D01*
X944447D02*
X944947D01*
X943947Y620246D02*
X944447Y620746D01*
X943447Y717202D02*
X943947Y716702D01*
X942947Y717202D02*
X943447D01*
X942947D02*
X943447Y717702D01*
X942947Y718202D02*
X943447Y717702D01*
X942947Y718202D02*
X943447D01*
X943947Y718702D01*
X944447Y718202D01*
X944947D01*
X944447Y717702D02*
X944947Y718202D01*
X944447Y717702D02*
X944947Y717202D01*
X944447D02*
X944947D01*
X943947Y716702D02*
X944447Y717202D01*
X1221006D02*
X1221506Y716702D01*
X1220506Y717202D02*
X1221006D01*
X1220506D02*
X1221006Y717702D01*
X1220506Y718202D02*
X1221006Y717702D01*
X1220506Y718202D02*
X1221006D01*
X1221506Y718702D01*
X1222006Y718202D01*
X1222506D01*
X1222006Y717702D02*
X1222506Y718202D01*
X1222006Y717702D02*
X1222506Y717202D01*
X1222006D02*
X1222506D01*
X1221506Y716702D02*
X1222006Y717202D01*
X1221006Y620746D02*
X1221506Y620246D01*
X1220506Y620746D02*
X1221006D01*
X1220506D02*
X1221006Y621246D01*
X1220506Y621746D02*
X1221006Y621246D01*
X1220506Y621746D02*
X1221006D01*
X1221506Y622246D01*
X1222006Y621746D01*
X1222506D01*
X1222006Y621246D02*
X1222506Y621746D01*
X1222006Y621246D02*
X1222506Y620746D01*
X1222006D02*
X1222506D01*
X1221506Y620246D02*
X1222006Y620746D01*
X952176Y771131D02*
Y771631D01*
X952676Y772131D01*
X952176Y772631D02*
X952676Y772131D01*
X952176Y772631D02*
Y773131D01*
X952676D01*
X953176Y772631D01*
X953676Y773131D01*
X954176D01*
Y772631D02*
Y773131D01*
X953676Y772131D02*
X954176Y772631D01*
X953676Y772131D02*
X954176Y771631D01*
Y771131D02*
Y771631D01*
X953676Y771131D02*
X954176D01*
X953176Y771631D02*
X953676Y771131D01*
X952676D02*
X953176Y771631D01*
X952176Y771131D02*
X952676D01*
X991152D02*
Y771631D01*
X991652Y772131D01*
X991152Y772631D02*
X991652Y772131D01*
X991152Y772631D02*
Y773131D01*
X991652D01*
X992152Y772631D01*
X992652Y773131D01*
X993152D01*
Y772631D02*
Y773131D01*
X992652Y772131D02*
X993152Y772631D01*
X992652Y772131D02*
X993152Y771631D01*
Y771131D02*
Y771631D01*
X992652Y771131D02*
X993152D01*
X992152Y771631D02*
X992652Y771131D01*
X991652D02*
X992152Y771631D01*
X991152Y771131D02*
X991652D01*
X987609Y742891D02*
X988109D01*
X987609D02*
Y743891D01*
X988109D01*
Y744391D01*
X989109D01*
Y743891D02*
Y744391D01*
Y743891D02*
X989609D01*
Y742891D02*
Y743891D01*
X989109Y742891D02*
X989609D01*
X989109Y742391D02*
Y742891D01*
X988109Y742391D02*
X989109D01*
X988109D02*
Y742891D01*
X967136D02*
X967636D01*
X967136D02*
Y743891D01*
X967636D01*
Y744391D01*
X968637D01*
Y743891D02*
Y744391D01*
Y743891D02*
X969137D01*
Y742891D02*
Y743891D01*
X968637Y742891D02*
X969137D01*
X968637Y742391D02*
Y742891D01*
X967636Y742391D02*
X968637D01*
X967636D02*
Y742891D01*
X953751D02*
X954251D01*
X953751D02*
Y743891D01*
X954251D01*
Y744391D01*
X955251D01*
Y743891D02*
Y744391D01*
Y743891D02*
X955751D01*
Y742891D02*
Y743891D01*
X955251Y742891D02*
X955751D01*
X955251Y742391D02*
Y742891D01*
X954251Y742391D02*
X955251D01*
X954251D02*
Y742891D01*
X966743Y767194D02*
X967743Y767694D01*
X968743Y767194D01*
X968243Y768194D02*
X968743Y767194D01*
X968243Y768194D02*
X968743Y769194D01*
X967743Y768694D02*
X968743Y769194D01*
X966743D02*
X967743Y768694D01*
X966743Y769194D02*
X967243Y768194D01*
X966743Y767194D02*
X967243Y768194D01*
X1260703Y765128D02*
X1261703Y767128D01*
X1259703D02*
X1261703D01*
X1259703D02*
X1260703Y765128D01*
Y585994D02*
X1261703Y587994D01*
X1259703D02*
X1261703D01*
X1259703D02*
X1260703Y585994D01*
X941805D02*
X942805Y587994D01*
X940806D02*
X942805D01*
X940806D02*
X941805Y585994D01*
X941805Y765128D02*
X942805Y767128D01*
X940806D02*
X942805D01*
X940806D02*
X941805Y765128D01*
D78*
X1547838Y993175D02*
X1935735D01*
X1547838Y888175D02*
X1935735D01*
X1547838Y873175D02*
X1935735D01*
Y1008175D01*
X1547838D02*
X1935735D01*
X1547838Y873175D02*
Y1008175D01*
X1857855Y873175D02*
Y1008175D01*
X1807267Y873175D02*
Y1008175D01*
X1672707Y873175D02*
Y1008175D01*
X1602926Y873175D02*
Y1008175D01*
D79*
X1547176Y617781D02*
X1934176D01*
Y600781D02*
Y617781D01*
X1547176Y600781D02*
X1934176D01*
X1547176D02*
Y617781D01*
Y580781D02*
Y597781D01*
Y580781D02*
X1934176D01*
Y597781D01*
X1547176D02*
X1934176D01*
X1547176Y577781D02*
X1934176D01*
Y560781D02*
Y577781D01*
X1547176Y560781D02*
X1934176D01*
X1547176D02*
Y577781D01*
Y557781D02*
X1934176D01*
Y540781D02*
Y557781D01*
X1547176Y540781D02*
X1934176D01*
X1547176D02*
Y557781D01*
Y537781D02*
X1934176D01*
Y520781D02*
Y537781D01*
X1547176Y520781D02*
X1934176D01*
X1547176D02*
Y537781D01*
Y517781D02*
X1934176D01*
Y500781D02*
Y517781D01*
X1547176Y500781D02*
X1934176D01*
X1547176D02*
Y517781D01*
Y497781D02*
X1934176D01*
Y480781D02*
Y497781D01*
X1547176Y480781D02*
X1934176D01*
X1547176D02*
Y497781D01*
D80*
X1555176Y614778D02*
X1561840D01*
X1558508D01*
Y604781D01*
X1570171Y614778D02*
X1566838D01*
X1565172Y613112D01*
Y606447D01*
X1566838Y604781D01*
X1570171D01*
X1571837Y606447D01*
Y613112D01*
X1570171Y614778D01*
X1575169Y604781D02*
Y614778D01*
X1580167D01*
X1581834Y613112D01*
Y609780D01*
X1580167Y608113D01*
X1575169D01*
X1555176Y574778D02*
Y564781D01*
X1561840D01*
X1565172D02*
X1568505D01*
X1566838D01*
Y574778D01*
X1565172Y573112D01*
X1555176Y534778D02*
Y524781D01*
X1561840D01*
X1571837D02*
X1565172D01*
X1571837Y531446D01*
Y533112D01*
X1570171Y534778D01*
X1566838D01*
X1565172Y533112D01*
X1555176Y494778D02*
Y484781D01*
X1560174D01*
X1561840Y486447D01*
Y488113D01*
X1560174Y489780D01*
X1555176D01*
X1560174D01*
X1561840Y491446D01*
Y493112D01*
X1560174Y494778D01*
X1555176D01*
X1570171D02*
X1566838D01*
X1565172Y493112D01*
Y486447D01*
X1566838Y484781D01*
X1570171D01*
X1571837Y486447D01*
Y493112D01*
X1570171Y494778D01*
X1575169D02*
X1581834D01*
X1578501D01*
Y484781D01*
X1585166Y494778D02*
X1591830D01*
X1588498D01*
Y484781D01*
X1600161Y494778D02*
X1596829D01*
X1595163Y493112D01*
Y486447D01*
X1596829Y484781D01*
X1600161D01*
X1601827Y486447D01*
Y493112D01*
X1600161Y494778D01*
X1605159Y484781D02*
Y494778D01*
X1608492Y491446D01*
X1611824Y494778D01*
Y484781D01*
X1552176Y639278D02*
Y629281D01*
X1558840D01*
X1563838Y635946D02*
X1567171D01*
X1568837Y634279D01*
Y629281D01*
X1563838D01*
X1562172Y630947D01*
X1563838Y632613D01*
X1568837D01*
X1572169Y635946D02*
Y630947D01*
X1573835Y629281D01*
X1578834D01*
Y627615D01*
X1577168Y625949D01*
X1575501D01*
X1578834Y629281D02*
Y635946D01*
X1587164Y629281D02*
X1583832D01*
X1582166Y630947D01*
Y634279D01*
X1583832Y635946D01*
X1587164D01*
X1588830Y634279D01*
Y632613D01*
X1582166D01*
X1592163Y635946D02*
Y629281D01*
Y632613D01*
X1593829Y634279D01*
X1595495Y635946D01*
X1597161D01*
X1602159Y629281D02*
X1607158D01*
X1608824Y630947D01*
X1607158Y632613D01*
X1603826D01*
X1602159Y634279D01*
X1603826Y635946D01*
X1608824D01*
M02*
