G04*
G04 #@! TF.GenerationSoftware,Altium Limited,Altium Designer,24.5.2 (23)*
G04*
G04 Layer_Color=65535*
%FSLAX25Y25*%
%MOIN*%
G70*
G04*
G04 #@! TF.SameCoordinates,2965B117-A723-4B34-A477-EC79056530B1*
G04*
G04*
G04 #@! TF.FilePolarity,Positive*
G04*
G01*
G75*
%ADD10C,0.00984*%
%ADD11C,0.00787*%
%ADD12C,0.00600*%
%ADD13C,0.00500*%
%ADD14C,0.01200*%
%ADD15C,0.01000*%
%ADD16C,0.00476*%
%ADD17C,0.00571*%
%ADD18C,0.00408*%
%ADD19R,0.01968X0.13780*%
%ADD20C,0.00100*%
G36*
X983529Y601224D02*
X983271D01*
Y601206D01*
X983150D01*
Y601189D01*
X983082D01*
Y601172D01*
X982996D01*
Y601155D01*
X982944D01*
Y601137D01*
X982892D01*
Y601120D01*
X982841D01*
Y601103D01*
X982789D01*
Y601086D01*
X982738D01*
Y601069D01*
X982703D01*
Y601052D01*
X982669D01*
Y601034D01*
X982634D01*
Y601017D01*
X982600D01*
Y601000D01*
X982566D01*
Y600983D01*
X982531D01*
Y600965D01*
X982497D01*
Y600948D01*
X982462D01*
Y600931D01*
X982445D01*
Y600914D01*
X982411D01*
Y600897D01*
X982376D01*
Y600880D01*
X982359D01*
Y600862D01*
X982342D01*
Y600845D01*
X982308D01*
Y600828D01*
X982290D01*
Y600811D01*
X982256D01*
Y600794D01*
X982239D01*
Y600776D01*
X982222D01*
Y600759D01*
X982204D01*
Y600742D01*
X982187D01*
Y600725D01*
X982153D01*
Y600708D01*
X982136D01*
Y600690D01*
X982118D01*
Y600673D01*
X982101D01*
Y600656D01*
X982084D01*
Y600639D01*
X982067D01*
Y600622D01*
X982050D01*
Y600604D01*
X982032D01*
Y600587D01*
X982015D01*
Y600570D01*
X981998D01*
Y600553D01*
X981981D01*
Y600536D01*
X981964D01*
Y600518D01*
X981946D01*
Y600484D01*
X981929D01*
Y600467D01*
X981912D01*
Y600450D01*
X981895D01*
Y600432D01*
X981878D01*
Y600398D01*
X981860D01*
Y600381D01*
X981843D01*
Y600364D01*
X981826D01*
Y600329D01*
X981809D01*
Y600312D01*
X981792D01*
Y600278D01*
X981774D01*
Y600260D01*
X981757D01*
Y600226D01*
X981740D01*
Y600209D01*
X981723D01*
Y600174D01*
X981706D01*
Y600140D01*
X981688D01*
Y600106D01*
X981671D01*
Y600071D01*
X981654D01*
Y600037D01*
X981637D01*
Y600002D01*
X981620D01*
Y599968D01*
X981602D01*
Y599916D01*
X981585D01*
Y599882D01*
X981568D01*
Y599830D01*
X981551D01*
Y599779D01*
X981534D01*
Y599710D01*
X981516D01*
Y599658D01*
X981499D01*
Y599572D01*
X981482D01*
Y599486D01*
X981465D01*
Y599366D01*
X981448D01*
Y599143D01*
X980054D01*
Y599400D01*
X980072D01*
Y599572D01*
X980089D01*
Y599693D01*
X980106D01*
Y599796D01*
X980123D01*
Y599882D01*
X980140D01*
Y599968D01*
X980158D01*
Y600037D01*
X980175D01*
Y600088D01*
X980192D01*
Y600157D01*
X980209D01*
Y600209D01*
X980227D01*
Y600260D01*
X980244D01*
Y600312D01*
X980261D01*
Y600364D01*
X980278D01*
Y600398D01*
X980295D01*
Y600450D01*
X980313D01*
Y600484D01*
X980330D01*
Y600536D01*
X980347D01*
Y600570D01*
X980364D01*
Y600604D01*
X980381D01*
Y600639D01*
X980398D01*
Y600673D01*
X980416D01*
Y600708D01*
X980433D01*
Y600742D01*
X980450D01*
Y600776D01*
X980467D01*
Y600811D01*
X980484D01*
Y600845D01*
X980502D01*
Y600880D01*
X980519D01*
Y600897D01*
X980536D01*
Y600931D01*
X980553D01*
Y600965D01*
X980571D01*
Y600983D01*
X980588D01*
Y601017D01*
X980605D01*
Y601034D01*
X980622D01*
Y601069D01*
X980639D01*
Y601086D01*
X980657D01*
Y601103D01*
Y601120D01*
X980674D01*
Y601137D01*
X980691D01*
Y601172D01*
X980708D01*
Y601189D01*
X980725D01*
Y601224D01*
X980742D01*
Y601241D01*
X980760D01*
Y601258D01*
X980777D01*
Y601275D01*
X980794D01*
Y601309D01*
X980811D01*
Y601327D01*
X980828D01*
Y601344D01*
X980846D01*
Y601361D01*
X980863D01*
Y601396D01*
X980880D01*
Y601413D01*
X980897D01*
Y601430D01*
X980914D01*
Y601447D01*
X980932D01*
Y601464D01*
X980949D01*
Y601481D01*
X980966D01*
Y601499D01*
X980983D01*
Y601533D01*
X981001D01*
Y601550D01*
X981018D01*
Y601568D01*
X981035D01*
Y601585D01*
X981052D01*
Y601602D01*
X981069D01*
Y601619D01*
X981087D01*
Y601636D01*
X981104D01*
Y601653D01*
X981121D01*
Y601671D01*
X981138D01*
Y601688D01*
X981172D01*
Y601705D01*
X981190D01*
Y601722D01*
X981207D01*
Y601740D01*
X981224D01*
Y601757D01*
X981241D01*
Y601774D01*
X981258D01*
Y601791D01*
X981276D01*
Y601808D01*
X981293D01*
Y601826D01*
X981327D01*
Y601843D01*
X981345D01*
Y601860D01*
X981362D01*
Y601877D01*
X981379D01*
Y601894D01*
X981413D01*
Y601911D01*
X981431D01*
Y601929D01*
X981448D01*
Y601946D01*
X981482D01*
Y601963D01*
X981499D01*
Y601980D01*
X981516D01*
Y601998D01*
X981551D01*
Y602015D01*
X981568D01*
Y602032D01*
X981602D01*
Y602049D01*
X981620D01*
Y602066D01*
X981654D01*
Y602083D01*
X981688D01*
Y602101D01*
X981706D01*
Y602118D01*
X981740D01*
Y602135D01*
X981757D01*
Y602152D01*
X981792D01*
Y602170D01*
X981826D01*
Y602187D01*
X981860D01*
Y602204D01*
X981895D01*
Y602221D01*
X981912D01*
Y602238D01*
X981946D01*
Y602255D01*
X981981D01*
Y602273D01*
X982015D01*
Y602290D01*
X982067D01*
Y602307D01*
X982101D01*
Y602324D01*
X982136D01*
Y602342D01*
X982170D01*
Y602359D01*
X982222D01*
Y602376D01*
X982256D01*
Y602393D01*
X982308D01*
Y602410D01*
X982342D01*
Y602427D01*
X982394D01*
Y602445D01*
X982445D01*
Y602462D01*
X982497D01*
Y602479D01*
X982566D01*
Y602496D01*
X982617D01*
Y602514D01*
X982686D01*
Y602531D01*
X982772D01*
Y602548D01*
X982841D01*
Y602565D01*
X982944D01*
Y602582D01*
X983064D01*
Y602599D01*
X983219D01*
Y602617D01*
X983529D01*
Y601224D01*
D02*
G37*
G36*
Y604010D02*
X983236D01*
Y603993D01*
X983030D01*
Y603975D01*
X982892D01*
Y603958D01*
X982772D01*
Y603941D01*
X982669D01*
Y603924D01*
X982583D01*
Y603907D01*
X982497D01*
Y603889D01*
X982411D01*
Y603872D01*
X982342D01*
Y603855D01*
X982273D01*
Y603838D01*
X982222D01*
Y603821D01*
X982153D01*
Y603803D01*
X982101D01*
Y603786D01*
X982050D01*
Y603769D01*
X981998D01*
Y603752D01*
X981946D01*
Y603735D01*
X981895D01*
Y603717D01*
X981843D01*
Y603700D01*
X981792D01*
Y603683D01*
X981757D01*
Y603666D01*
X981706D01*
Y603649D01*
X981671D01*
Y603631D01*
X981637D01*
Y603614D01*
X981585D01*
Y603597D01*
X981551D01*
Y603580D01*
X981516D01*
Y603563D01*
X981482D01*
Y603545D01*
X981431D01*
Y603528D01*
X981396D01*
Y603511D01*
X981362D01*
Y603494D01*
X981327D01*
Y603477D01*
X981293D01*
Y603459D01*
X981258D01*
Y603442D01*
X981241D01*
Y603425D01*
X981207D01*
Y603408D01*
X981172D01*
Y603391D01*
X981138D01*
Y603373D01*
X981104D01*
Y603356D01*
X981087D01*
Y603339D01*
X981052D01*
Y603322D01*
X981018D01*
Y603305D01*
X981001D01*
Y603287D01*
X980966D01*
Y603270D01*
X980932D01*
Y603253D01*
X980914D01*
Y603236D01*
X980880D01*
Y603219D01*
X980863D01*
Y603201D01*
X980828D01*
Y603184D01*
X980811D01*
Y603167D01*
X980777D01*
Y603150D01*
X980760D01*
Y603133D01*
X980725D01*
Y603115D01*
X980708D01*
Y603098D01*
X980691D01*
Y603081D01*
X980657D01*
Y603064D01*
X980639D01*
Y603047D01*
X980622D01*
Y603029D01*
X980588D01*
Y603012D01*
X980571D01*
Y602995D01*
X980553D01*
Y602978D01*
X980519D01*
Y602961D01*
X980502D01*
Y602943D01*
X980484D01*
Y602926D01*
X980467D01*
Y602909D01*
X980433D01*
Y602892D01*
X980416D01*
Y602875D01*
X980398D01*
Y602857D01*
X980381D01*
Y602840D01*
X980364D01*
Y602823D01*
X980347D01*
Y602806D01*
X980313D01*
Y602789D01*
X980295D01*
Y602771D01*
X980278D01*
Y602754D01*
X980261D01*
Y602737D01*
X980244D01*
Y602720D01*
X980227D01*
Y602703D01*
X980209D01*
Y602685D01*
X980192D01*
Y602668D01*
X980175D01*
Y602651D01*
X980158D01*
Y602634D01*
X980140D01*
Y602617D01*
X980123D01*
Y602599D01*
X980106D01*
Y602582D01*
X980089D01*
Y602565D01*
X980072D01*
Y602548D01*
X980054D01*
Y602531D01*
X980037D01*
Y602514D01*
X980020D01*
Y602496D01*
X980003D01*
Y602479D01*
X979986D01*
Y602462D01*
X979968D01*
Y602445D01*
X979951D01*
Y602427D01*
X979934D01*
Y602410D01*
X979917D01*
Y602393D01*
X979900D01*
Y602376D01*
X979883D01*
Y602359D01*
X979865D01*
Y602324D01*
X979848D01*
Y602307D01*
X979831D01*
Y602290D01*
X979814D01*
Y602273D01*
X979797D01*
Y602255D01*
X979779D01*
Y602238D01*
X979762D01*
Y602204D01*
X979745D01*
Y602187D01*
X979728D01*
Y602170D01*
X979710D01*
Y602152D01*
X979693D01*
Y602118D01*
X979676D01*
Y602101D01*
X979659D01*
Y602083D01*
X979642D01*
Y602049D01*
X979625D01*
Y602032D01*
X979607D01*
Y602015D01*
X979590D01*
Y601980D01*
X979573D01*
Y601963D01*
X979556D01*
Y601929D01*
X979539D01*
Y601911D01*
X979521D01*
Y601894D01*
X979504D01*
Y601860D01*
X979487D01*
Y601843D01*
X979470D01*
Y601808D01*
X979453D01*
Y601791D01*
X979435D01*
Y601757D01*
X979418D01*
Y601722D01*
X979401D01*
Y601705D01*
X979384D01*
Y601671D01*
X979367D01*
Y601653D01*
X979349D01*
Y601619D01*
X979332D01*
Y601585D01*
X979315D01*
Y601550D01*
X979298D01*
Y601533D01*
X979281D01*
Y601499D01*
X979263D01*
Y601464D01*
X979246D01*
Y601430D01*
X979229D01*
Y601396D01*
X979212D01*
Y601361D01*
X979195D01*
Y601327D01*
X979177D01*
Y601292D01*
X979160D01*
Y601258D01*
X979143D01*
Y601224D01*
X979126D01*
Y601189D01*
X979109D01*
Y601155D01*
X979091D01*
Y601120D01*
X979074D01*
Y601069D01*
X979057D01*
Y601034D01*
X979040D01*
Y601000D01*
X979023D01*
Y600948D01*
X979005D01*
Y600914D01*
X978988D01*
Y600862D01*
X978971D01*
Y600811D01*
X978954D01*
Y600776D01*
X978937D01*
Y600725D01*
X978919D01*
Y600673D01*
X978902D01*
Y600622D01*
X978885D01*
Y600553D01*
X978868D01*
Y600501D01*
X978851D01*
Y600432D01*
X978833D01*
Y600381D01*
X978816D01*
Y600312D01*
X978799D01*
Y600243D01*
X978782D01*
Y600157D01*
X978765D01*
Y600071D01*
X978747D01*
Y599985D01*
X978730D01*
Y599882D01*
X978713D01*
Y599744D01*
X978696D01*
Y599590D01*
X978679D01*
Y599332D01*
X978661D01*
Y599143D01*
X977285D01*
Y599349D01*
Y599366D01*
Y599624D01*
X977303D01*
Y599813D01*
X977320D01*
Y599968D01*
X977337D01*
Y600088D01*
X977354D01*
Y600192D01*
X977372D01*
Y600295D01*
X977389D01*
Y600381D01*
X977406D01*
Y600467D01*
X977423D01*
Y600536D01*
X977440D01*
Y600622D01*
X977458D01*
Y600690D01*
X977475D01*
Y600759D01*
X977492D01*
Y600811D01*
X977509D01*
Y600880D01*
X977526D01*
Y600931D01*
X977544D01*
Y601000D01*
X977561D01*
Y601052D01*
X977578D01*
Y601103D01*
X977595D01*
Y601155D01*
X977612D01*
Y601206D01*
X977629D01*
Y601258D01*
X977647D01*
Y601309D01*
X977664D01*
Y601344D01*
X977681D01*
Y601396D01*
X977698D01*
Y601430D01*
X977715D01*
Y601481D01*
X977733D01*
Y601516D01*
X977750D01*
Y601568D01*
X977767D01*
Y601602D01*
X977784D01*
Y601636D01*
X977802D01*
Y601688D01*
X977819D01*
Y601722D01*
X977836D01*
Y601757D01*
X977853D01*
Y601791D01*
X977870D01*
Y601826D01*
X977888D01*
Y601860D01*
X977905D01*
Y601911D01*
X977922D01*
Y601946D01*
X977939D01*
Y601980D01*
X977956D01*
Y601998D01*
X977973D01*
Y602032D01*
X977991D01*
Y602066D01*
X978008D01*
Y602101D01*
X978025D01*
Y602135D01*
X978042D01*
Y602170D01*
X978059D01*
Y602204D01*
X978077D01*
Y602221D01*
X978094D01*
Y602255D01*
X978111D01*
Y602290D01*
X978128D01*
Y602324D01*
X978145D01*
Y602342D01*
X978163D01*
Y602376D01*
X978180D01*
Y602410D01*
X978197D01*
Y602427D01*
X978214D01*
Y602462D01*
X978231D01*
Y602479D01*
X978249D01*
Y602514D01*
X978266D01*
Y602548D01*
X978283D01*
Y602565D01*
X978300D01*
Y602599D01*
X978317D01*
Y602617D01*
X978335D01*
Y602651D01*
X978352D01*
Y602668D01*
X978369D01*
Y602703D01*
X978386D01*
Y602720D01*
X978403D01*
Y602737D01*
X978421D01*
Y602771D01*
X978438D01*
Y602789D01*
X978455D01*
Y602823D01*
X978472D01*
Y602840D01*
X978489D01*
Y602857D01*
X978507D01*
Y602892D01*
X978524D01*
Y602909D01*
X978541D01*
Y602926D01*
X978558D01*
Y602961D01*
X978575D01*
Y602978D01*
X978593D01*
Y602995D01*
X978610D01*
Y603029D01*
X978627D01*
Y603047D01*
X978644D01*
Y603064D01*
X978661D01*
Y603081D01*
X978679D01*
Y603115D01*
X978696D01*
Y603133D01*
X978713D01*
Y603150D01*
X978730D01*
Y603167D01*
X978747D01*
Y603184D01*
X978765D01*
Y603219D01*
X978782D01*
Y603236D01*
X978799D01*
Y603253D01*
X978816D01*
Y603270D01*
X978833D01*
Y603287D01*
X978851D01*
Y603305D01*
X978868D01*
Y603322D01*
X978885D01*
Y603339D01*
X978902D01*
Y603373D01*
X978919D01*
Y603391D01*
X978937D01*
Y603408D01*
X978954D01*
Y603425D01*
X978971D01*
Y603442D01*
X978988D01*
Y603459D01*
X979005D01*
Y603477D01*
X979023D01*
Y603494D01*
X979040D01*
Y603511D01*
X979057D01*
Y603528D01*
X979074D01*
Y603545D01*
X979091D01*
Y603563D01*
X979109D01*
Y603580D01*
X979126D01*
Y603597D01*
X979143D01*
Y603614D01*
X979160D01*
Y603631D01*
X979177D01*
Y603649D01*
X979195D01*
Y603666D01*
X979212D01*
Y603683D01*
X979229D01*
Y603700D01*
X979246D01*
Y603717D01*
X979263D01*
Y603735D01*
X979281D01*
Y603752D01*
X979298D01*
Y603769D01*
X979315D01*
Y603786D01*
X979349D01*
Y603803D01*
X979367D01*
Y603821D01*
X979384D01*
Y603838D01*
X979401D01*
Y603855D01*
X979418D01*
Y603872D01*
X979435D01*
Y603889D01*
X979453D01*
Y603907D01*
X979487D01*
Y603924D01*
X979504D01*
Y603941D01*
X979521D01*
Y603958D01*
X979539D01*
Y603975D01*
X979556D01*
Y603993D01*
X979590D01*
Y604010D01*
X979607D01*
Y604027D01*
X979625D01*
Y604044D01*
X979642D01*
Y604061D01*
X979676D01*
Y604079D01*
X979693D01*
Y604096D01*
X979710D01*
Y604113D01*
X979728D01*
Y604130D01*
X979762D01*
Y604147D01*
X979779D01*
Y604165D01*
X979797D01*
Y604182D01*
X979831D01*
Y604199D01*
X979848D01*
Y604216D01*
X979883D01*
Y604233D01*
X979900D01*
Y604251D01*
X979917D01*
Y604268D01*
X979951D01*
Y604285D01*
X979968D01*
Y604302D01*
X980003D01*
Y604319D01*
X980020D01*
Y604337D01*
X980054D01*
Y604354D01*
X980072D01*
Y604371D01*
X980106D01*
Y604388D01*
X980123D01*
Y604405D01*
X980158D01*
Y604423D01*
X980175D01*
Y604440D01*
X980209D01*
Y604457D01*
X980244D01*
Y604474D01*
X980261D01*
Y604491D01*
X980295D01*
Y604508D01*
X980313D01*
Y604526D01*
X980347D01*
Y604543D01*
X980381D01*
Y604560D01*
X980416D01*
Y604577D01*
X980433D01*
Y604595D01*
X980467D01*
Y604612D01*
X980502D01*
Y604629D01*
X980536D01*
Y604646D01*
X980571D01*
Y604663D01*
X980588D01*
Y604680D01*
X980622D01*
Y604698D01*
X980657D01*
Y604715D01*
X980691D01*
Y604732D01*
X980725D01*
Y604749D01*
X980760D01*
Y604767D01*
X980794D01*
Y604784D01*
X980828D01*
Y604801D01*
X980863D01*
Y604818D01*
X980914D01*
Y604835D01*
X980949D01*
Y604852D01*
X980983D01*
Y604870D01*
X981018D01*
Y604887D01*
X981052D01*
Y604904D01*
X981104D01*
Y604921D01*
X981138D01*
Y604939D01*
X981190D01*
Y604956D01*
X981224D01*
Y604973D01*
X981276D01*
Y604990D01*
X981310D01*
Y605007D01*
X981362D01*
Y605024D01*
X981413D01*
Y605042D01*
X981448D01*
Y605059D01*
X981499D01*
Y605076D01*
X981551D01*
Y605093D01*
X981602D01*
Y605111D01*
X981671D01*
Y605128D01*
X981723D01*
Y605145D01*
X981774D01*
Y605162D01*
X981843D01*
Y605179D01*
X981895D01*
Y605197D01*
X981964D01*
Y605214D01*
X982032D01*
Y605231D01*
X982101D01*
Y605248D01*
X982187D01*
Y605265D01*
X982273D01*
Y605282D01*
X982359D01*
Y605300D01*
X982445D01*
Y605317D01*
X982548D01*
Y605334D01*
X982669D01*
Y605351D01*
X982806D01*
Y605369D01*
X982996D01*
Y605386D01*
X983271D01*
Y605403D01*
X983529D01*
Y604010D01*
D02*
G37*
G36*
X984182Y599641D02*
X984286D01*
Y599624D01*
X984354D01*
Y599607D01*
X984406D01*
Y599590D01*
X984440D01*
Y599572D01*
X984475D01*
Y599555D01*
X984509D01*
Y599538D01*
X984544D01*
Y599521D01*
X984578D01*
Y599504D01*
X984595D01*
Y599486D01*
X984630D01*
Y599469D01*
X984647D01*
Y599452D01*
X984681D01*
Y599435D01*
X984698D01*
Y599418D01*
X984715D01*
Y599400D01*
X984733D01*
Y599383D01*
X984750D01*
Y599366D01*
X984767D01*
Y599349D01*
X984784D01*
Y599332D01*
X984801D01*
Y599314D01*
X984819D01*
Y599297D01*
X984836D01*
Y599280D01*
X984853D01*
Y599246D01*
X984870D01*
Y599228D01*
X984887D01*
Y599211D01*
X984905D01*
Y599177D01*
X984922D01*
Y599160D01*
X984939D01*
Y599125D01*
X984956D01*
Y599091D01*
X984974D01*
Y599056D01*
X984991D01*
Y599022D01*
X985008D01*
Y598971D01*
X985025D01*
Y598919D01*
X985042D01*
Y598850D01*
X985059D01*
Y598730D01*
X985077D01*
Y598523D01*
X985059D01*
Y598403D01*
X985042D01*
Y598334D01*
X985025D01*
Y598282D01*
X985008D01*
Y598231D01*
X984991D01*
Y598197D01*
X984974D01*
Y598162D01*
X984956D01*
Y598128D01*
X984939D01*
Y598093D01*
X984922D01*
Y598076D01*
X984905D01*
Y598042D01*
X984887D01*
Y598025D01*
X984870D01*
Y598007D01*
X984853D01*
Y597973D01*
X984836D01*
Y597956D01*
X984819D01*
Y597938D01*
X984801D01*
Y597921D01*
X984784D01*
Y597904D01*
X984767D01*
Y597887D01*
X984750D01*
Y597870D01*
X984733D01*
Y597853D01*
X984715D01*
Y597835D01*
X984698D01*
Y597818D01*
X984681D01*
Y597801D01*
X984647D01*
Y597784D01*
X984630D01*
Y597766D01*
X984595D01*
Y597749D01*
X984578D01*
Y597732D01*
X984544D01*
Y597715D01*
X984509D01*
Y597698D01*
X984475D01*
Y597681D01*
X984440D01*
Y597663D01*
X984406D01*
Y597646D01*
X984354D01*
Y597629D01*
X984286D01*
Y597612D01*
X984182D01*
Y597594D01*
X983890D01*
Y597612D01*
X983787D01*
Y597629D01*
X983718D01*
Y597646D01*
X983683D01*
Y597663D01*
X983632D01*
Y597681D01*
X983597D01*
Y597698D01*
X983563D01*
Y597715D01*
X983529D01*
Y597732D01*
X983494D01*
Y597749D01*
X983477D01*
Y597766D01*
X983443D01*
Y597784D01*
X983426D01*
Y597801D01*
X983408D01*
Y597818D01*
X983391D01*
Y597835D01*
X983357D01*
Y597853D01*
X983340D01*
Y597870D01*
X983322D01*
Y597887D01*
X983305D01*
Y597904D01*
X983288D01*
Y597921D01*
X983271D01*
Y597938D01*
X983253D01*
Y597956D01*
X983236D01*
Y597990D01*
X983219D01*
Y598007D01*
X983202D01*
Y598025D01*
X983185D01*
Y598059D01*
X983167D01*
Y598076D01*
X983150D01*
Y598110D01*
X983133D01*
Y598145D01*
X983116D01*
Y598179D01*
X983099D01*
Y598214D01*
X983082D01*
Y598248D01*
X983064D01*
Y598300D01*
X983047D01*
Y598351D01*
X983030D01*
Y598437D01*
X983013D01*
Y598833D01*
X983030D01*
Y598902D01*
X983047D01*
Y598971D01*
X983064D01*
Y599005D01*
X983082D01*
Y599039D01*
X983099D01*
Y599091D01*
X983116D01*
Y599108D01*
X983133D01*
Y599143D01*
X983150D01*
Y599177D01*
X983167D01*
Y599194D01*
X983185D01*
Y599228D01*
X983202D01*
Y599246D01*
X983219D01*
Y599263D01*
X983236D01*
Y599297D01*
X983253D01*
Y599314D01*
X983271D01*
Y599332D01*
X983288D01*
Y599349D01*
X983305D01*
Y599366D01*
X983322D01*
Y599383D01*
X983340D01*
Y599400D01*
X983357D01*
Y599418D01*
X983391D01*
Y599435D01*
X983408D01*
Y599452D01*
X983426D01*
Y599469D01*
X983443D01*
Y599486D01*
X983477D01*
Y599504D01*
X983494D01*
Y599521D01*
X983529D01*
Y599538D01*
X983563D01*
Y599555D01*
X983597D01*
Y599572D01*
X983632D01*
Y599590D01*
X983683D01*
Y599607D01*
X983735D01*
Y599624D01*
X983787D01*
Y599641D01*
X983890D01*
Y599658D01*
X984182D01*
Y599641D01*
D02*
G37*
G36*
X968600Y599607D02*
X968806D01*
Y599590D01*
X968944D01*
Y599572D01*
X969064D01*
Y599555D01*
X969168D01*
Y599538D01*
X969271D01*
Y599521D01*
X969357D01*
Y599504D01*
X969425D01*
Y599486D01*
X969494D01*
Y599469D01*
X969580D01*
Y599452D01*
X969632D01*
Y599435D01*
X969701D01*
Y599418D01*
X969769D01*
Y599400D01*
X969821D01*
Y599383D01*
X969873D01*
Y599366D01*
X969942D01*
Y599349D01*
X969993D01*
Y599332D01*
X970045D01*
Y599314D01*
X970096D01*
Y599297D01*
X970148D01*
Y599280D01*
X970199D01*
Y599263D01*
X970234D01*
Y599246D01*
X970286D01*
Y599228D01*
X970337D01*
Y599211D01*
X970372D01*
Y599194D01*
X970423D01*
Y599177D01*
X970457D01*
Y599160D01*
X970509D01*
Y599143D01*
X970543D01*
Y599125D01*
X970595D01*
Y599108D01*
X970630D01*
Y599091D01*
X970664D01*
Y599074D01*
X970698D01*
Y599056D01*
X970716D01*
Y596993D01*
X970698D01*
Y597010D01*
X970681D01*
Y597027D01*
X970647D01*
Y597044D01*
X970612D01*
Y597061D01*
X970578D01*
Y597079D01*
X970561D01*
Y597096D01*
X970526D01*
Y597113D01*
X970492D01*
Y597130D01*
X970457D01*
Y597147D01*
X970440D01*
Y597165D01*
X970406D01*
Y597182D01*
X970372D01*
Y597199D01*
X970337D01*
Y597216D01*
X970303D01*
Y597233D01*
X970268D01*
Y597251D01*
X970234D01*
Y597268D01*
X970199D01*
Y597285D01*
X970165D01*
Y597302D01*
X970131D01*
Y597319D01*
X970096D01*
Y597336D01*
X970062D01*
Y597354D01*
X970028D01*
Y597371D01*
X969993D01*
Y597388D01*
X969959D01*
Y597405D01*
X969924D01*
Y597423D01*
X969890D01*
Y597440D01*
X969838D01*
Y597457D01*
X969804D01*
Y597474D01*
X969769D01*
Y597491D01*
X969718D01*
Y597508D01*
X969683D01*
Y597526D01*
X969632D01*
Y597543D01*
X969598D01*
Y597560D01*
X969546D01*
Y597577D01*
X969494D01*
Y597594D01*
X969443D01*
Y597612D01*
X969391D01*
Y597629D01*
X969340D01*
Y597646D01*
X969288D01*
Y597663D01*
X969236D01*
Y597681D01*
X969168D01*
Y597698D01*
X969116D01*
Y597715D01*
X969047D01*
Y597732D01*
X968961D01*
Y597749D01*
X968892D01*
Y597766D01*
X968789D01*
Y597784D01*
X968686D01*
Y597801D01*
X968514D01*
Y597818D01*
X968101D01*
Y597801D01*
X967946D01*
Y597784D01*
X967843D01*
Y597766D01*
X967757D01*
Y597749D01*
X967688D01*
Y597732D01*
X967620D01*
Y597715D01*
X967568D01*
Y597698D01*
X967517D01*
Y597681D01*
X967465D01*
Y597663D01*
X967413D01*
Y597646D01*
X967379D01*
Y597629D01*
X967344D01*
Y597612D01*
X967310D01*
Y597594D01*
X967276D01*
Y597577D01*
X967241D01*
Y597560D01*
X967207D01*
Y597543D01*
X967173D01*
Y597526D01*
X967138D01*
Y597508D01*
X967121D01*
Y597491D01*
X967087D01*
Y597474D01*
X967069D01*
Y597457D01*
X967035D01*
Y597440D01*
X967018D01*
Y597423D01*
X967000D01*
Y597405D01*
X966966D01*
Y597388D01*
X966949D01*
Y597371D01*
X966932D01*
Y597354D01*
X966897D01*
Y597336D01*
X966880D01*
Y597319D01*
X966863D01*
Y597302D01*
X966846D01*
Y597285D01*
X966829D01*
Y597268D01*
X966811D01*
Y597251D01*
X966794D01*
Y597233D01*
X966777D01*
Y597216D01*
X966760D01*
Y597199D01*
X966743D01*
Y597182D01*
X966725D01*
Y597165D01*
X966708D01*
Y597147D01*
X966691D01*
Y597130D01*
X966674D01*
Y597113D01*
X966656D01*
Y597096D01*
X966639D01*
Y597079D01*
X966622D01*
Y597044D01*
X966605D01*
Y597027D01*
X966588D01*
Y597010D01*
X966570D01*
Y596993D01*
X966553D01*
Y596958D01*
X966536D01*
Y596941D01*
X966519D01*
Y596907D01*
X966502D01*
Y596889D01*
X966485D01*
Y596872D01*
X966467D01*
Y596838D01*
X966450D01*
Y596803D01*
X966433D01*
Y596786D01*
X966416D01*
Y596752D01*
X966399D01*
Y596717D01*
X966381D01*
Y596683D01*
X966364D01*
Y596666D01*
X966347D01*
Y596631D01*
X966330D01*
Y596597D01*
X966313D01*
Y596545D01*
X966295D01*
Y596511D01*
X966278D01*
Y596477D01*
X966261D01*
Y596425D01*
X966244D01*
Y596391D01*
X966226D01*
Y596339D01*
X966209D01*
Y596287D01*
X966192D01*
Y596236D01*
X966175D01*
Y596184D01*
X966158D01*
Y596115D01*
X966140D01*
Y596047D01*
X966123D01*
Y595978D01*
X966106D01*
Y595892D01*
X966089D01*
Y595789D01*
X966072D01*
Y595651D01*
X966055D01*
Y595462D01*
X966037D01*
Y594963D01*
X966055D01*
Y594774D01*
X966072D01*
Y594654D01*
X966089D01*
Y594550D01*
X966106D01*
Y594482D01*
X966123D01*
Y594413D01*
X966140D01*
Y594344D01*
X966158D01*
Y594275D01*
X966175D01*
Y594223D01*
X966192D01*
Y594172D01*
X966209D01*
Y594137D01*
X966226D01*
Y594086D01*
X966244D01*
Y594052D01*
X966261D01*
Y594000D01*
X966278D01*
Y593965D01*
X966295D01*
Y593931D01*
X966313D01*
Y593897D01*
X966330D01*
Y593862D01*
X966347D01*
Y593828D01*
X966364D01*
Y593811D01*
X966381D01*
Y593776D01*
X966399D01*
Y593742D01*
X966416D01*
Y593725D01*
X966433D01*
Y593690D01*
X966450D01*
Y593673D01*
X966467D01*
Y593639D01*
X966485D01*
Y593622D01*
X966502D01*
Y593587D01*
X966519D01*
Y593570D01*
X966536D01*
Y593553D01*
X966553D01*
Y593518D01*
X966570D01*
Y593501D01*
X966588D01*
Y593484D01*
X966605D01*
Y593467D01*
X966622D01*
Y593450D01*
X966639D01*
Y593432D01*
X966656D01*
Y593398D01*
X966674D01*
Y593381D01*
X966691D01*
Y593364D01*
X966708D01*
Y593346D01*
X966725D01*
Y593329D01*
X966743D01*
Y593312D01*
X966760D01*
Y593295D01*
X966777D01*
Y593278D01*
X966811D01*
Y593260D01*
X966829D01*
Y593243D01*
X966846D01*
Y593226D01*
X966863D01*
Y593209D01*
X966880D01*
Y593192D01*
X966897D01*
Y593174D01*
X966932D01*
Y593157D01*
X966949D01*
Y593140D01*
X966966D01*
Y593123D01*
X967000D01*
Y593106D01*
X967018D01*
Y593088D01*
X967035D01*
Y593071D01*
X967069D01*
Y593054D01*
X967104D01*
Y593037D01*
X967121D01*
Y593020D01*
X967155D01*
Y593002D01*
X967190D01*
Y592985D01*
X967207D01*
Y592968D01*
X967241D01*
Y592951D01*
X967276D01*
Y592934D01*
X967310D01*
Y592916D01*
X967344D01*
Y592899D01*
X967396D01*
Y592882D01*
X967430D01*
Y592865D01*
X967482D01*
Y592848D01*
X967534D01*
Y592830D01*
X967568D01*
Y592813D01*
X967637D01*
Y592796D01*
X967688D01*
Y592779D01*
X967757D01*
Y592762D01*
X967826D01*
Y592744D01*
X967929D01*
Y592727D01*
X968032D01*
Y592710D01*
X968204D01*
Y592693D01*
X968634D01*
Y592710D01*
X968789D01*
Y592727D01*
X968892D01*
Y592744D01*
X968996D01*
Y592762D01*
X969064D01*
Y592779D01*
X969133D01*
Y592796D01*
X969202D01*
Y592813D01*
X969271D01*
Y592830D01*
X969322D01*
Y592848D01*
X969391D01*
Y592865D01*
X969443D01*
Y592882D01*
X969494D01*
Y592899D01*
X969546D01*
Y592916D01*
X969580D01*
Y592934D01*
X969632D01*
Y592951D01*
X969683D01*
Y592968D01*
X969718D01*
Y592985D01*
X969769D01*
Y593002D01*
X969804D01*
Y593020D01*
X969855D01*
Y593037D01*
X969890D01*
Y593054D01*
X969924D01*
Y593071D01*
X969976D01*
Y593088D01*
X970010D01*
Y593106D01*
X970045D01*
Y593123D01*
X970079D01*
Y593140D01*
X970113D01*
Y593157D01*
X970148D01*
Y593174D01*
X970182D01*
Y593192D01*
X970217D01*
Y593209D01*
X970251D01*
Y593226D01*
X970286D01*
Y593243D01*
X970320D01*
Y593260D01*
X970354D01*
Y593278D01*
X970389D01*
Y593295D01*
X970423D01*
Y593312D01*
X970457D01*
Y593329D01*
X970492D01*
Y593346D01*
X970526D01*
Y593364D01*
X970543D01*
Y593381D01*
X970578D01*
Y593398D01*
X970612D01*
Y593415D01*
X970647D01*
Y593432D01*
X970664D01*
Y593450D01*
X970698D01*
Y593467D01*
X970716D01*
Y591403D01*
X970698D01*
Y591386D01*
X970647D01*
Y591368D01*
X970595D01*
Y591351D01*
X970543D01*
Y591334D01*
X970492D01*
Y591317D01*
X970440D01*
Y591300D01*
X970389D01*
Y591283D01*
X970320D01*
Y591265D01*
X970268D01*
Y591248D01*
X970217D01*
Y591231D01*
X970148D01*
Y591214D01*
X970096D01*
Y591196D01*
X970028D01*
Y591179D01*
X969959D01*
Y591162D01*
X969890D01*
Y591145D01*
X969838D01*
Y591128D01*
X969769D01*
Y591111D01*
X969701D01*
Y591093D01*
X969615D01*
Y591076D01*
X969546D01*
Y591059D01*
X969460D01*
Y591042D01*
X969391D01*
Y591024D01*
X969288D01*
Y591007D01*
X969202D01*
Y590990D01*
X969099D01*
Y590973D01*
X968996D01*
Y590956D01*
X968875D01*
Y590939D01*
X968720D01*
Y590921D01*
X968514D01*
Y590904D01*
X967946D01*
Y590921D01*
X967740D01*
Y590939D01*
X967602D01*
Y590956D01*
X967499D01*
Y590973D01*
X967413D01*
Y590990D01*
X967327D01*
Y591007D01*
X967258D01*
Y591024D01*
X967190D01*
Y591042D01*
X967121D01*
Y591059D01*
X967052D01*
Y591076D01*
X967000D01*
Y591093D01*
X966949D01*
Y591111D01*
X966897D01*
Y591128D01*
X966846D01*
Y591145D01*
X966811D01*
Y591162D01*
X966760D01*
Y591179D01*
X966725D01*
Y591196D01*
X966674D01*
Y591214D01*
X966639D01*
Y591231D01*
X966605D01*
Y591248D01*
X966553D01*
Y591265D01*
X966519D01*
Y591283D01*
X966485D01*
Y591300D01*
X966450D01*
Y591317D01*
X966416D01*
Y591334D01*
X966381D01*
Y591351D01*
X966364D01*
Y591368D01*
X966330D01*
Y591386D01*
X966295D01*
Y591403D01*
X966261D01*
Y591420D01*
X966226D01*
Y591437D01*
X966209D01*
Y591455D01*
X966175D01*
Y591472D01*
X966158D01*
Y591489D01*
X966123D01*
Y591506D01*
X966089D01*
Y591523D01*
X966072D01*
Y591540D01*
X966037D01*
Y591558D01*
X966020D01*
Y591575D01*
X965986D01*
Y591592D01*
X965969D01*
Y591609D01*
X965951D01*
Y591627D01*
X965917D01*
Y591644D01*
X965900D01*
Y591661D01*
X965883D01*
Y591678D01*
X965848D01*
Y591695D01*
X965831D01*
Y591713D01*
X965814D01*
Y591730D01*
X965779D01*
Y591747D01*
X965762D01*
Y591764D01*
X965745D01*
Y591781D01*
X965728D01*
Y591798D01*
X965693D01*
Y591816D01*
X965676D01*
Y591833D01*
X965659D01*
Y591850D01*
X965642D01*
Y591867D01*
X965625D01*
Y591885D01*
X965607D01*
Y591902D01*
X965590D01*
Y591919D01*
X965556D01*
Y591936D01*
X965539D01*
Y591953D01*
X965521D01*
Y591970D01*
X965504D01*
Y591988D01*
X965487D01*
Y592005D01*
X965470D01*
Y592022D01*
X965453D01*
Y592039D01*
X965435D01*
Y592057D01*
X965418D01*
Y592074D01*
X965401D01*
Y592091D01*
X965384D01*
Y592108D01*
X965367D01*
Y592125D01*
X965349D01*
Y592142D01*
X965332D01*
Y592160D01*
X965315D01*
Y592177D01*
X965298D01*
Y592194D01*
X965281D01*
Y592211D01*
X965263D01*
Y592228D01*
X965246D01*
Y592263D01*
X965229D01*
Y592280D01*
X965212D01*
Y592297D01*
X965195D01*
Y592314D01*
X965177D01*
Y592332D01*
X965160D01*
Y592349D01*
X965143D01*
Y592366D01*
X965126D01*
Y592400D01*
X965109D01*
Y592418D01*
X965091D01*
Y592435D01*
X965074D01*
Y592452D01*
X965057D01*
Y592486D01*
X965040D01*
Y592504D01*
X965023D01*
Y592521D01*
X965005D01*
Y592555D01*
X964988D01*
Y592572D01*
X964971D01*
Y592590D01*
X964954D01*
Y592624D01*
X964937D01*
Y592641D01*
X964919D01*
Y592658D01*
X964902D01*
Y592693D01*
X964885D01*
Y592710D01*
X964868D01*
Y592744D01*
X964851D01*
Y592762D01*
X964833D01*
Y592796D01*
X964816D01*
Y592813D01*
X964799D01*
Y592848D01*
X964782D01*
Y592865D01*
X964765D01*
Y592899D01*
X964747D01*
Y592934D01*
X964730D01*
Y592951D01*
X964713D01*
Y592985D01*
X964696D01*
Y593020D01*
X964679D01*
Y593054D01*
X964661D01*
Y593071D01*
X964644D01*
Y593106D01*
X964627D01*
Y593140D01*
X964610D01*
Y593174D01*
X964593D01*
Y593209D01*
X964575D01*
Y593243D01*
X964558D01*
Y593278D01*
X964541D01*
Y593312D01*
X964524D01*
Y593346D01*
X964507D01*
Y593398D01*
X964489D01*
Y593432D01*
X964472D01*
Y593467D01*
X964455D01*
Y593518D01*
X964438D01*
Y593553D01*
X964421D01*
Y593604D01*
X964403D01*
Y593656D01*
X964386D01*
Y593690D01*
X964369D01*
Y593742D01*
X964352D01*
Y593794D01*
X964335D01*
Y593862D01*
X964317D01*
Y593914D01*
X964300D01*
Y593983D01*
X964283D01*
Y594034D01*
X964266D01*
Y594120D01*
X964249D01*
Y594189D01*
X964231D01*
Y594275D01*
X964214D01*
Y594361D01*
X964197D01*
Y594464D01*
X964180D01*
Y594602D01*
X964163D01*
Y594757D01*
X964145D01*
Y595032D01*
X964128D01*
Y595428D01*
X964145D01*
Y595703D01*
X964163D01*
Y595875D01*
X964180D01*
Y595995D01*
X964197D01*
Y596098D01*
X964214D01*
Y596201D01*
X964231D01*
Y596270D01*
X964249D01*
Y596356D01*
X964266D01*
Y596425D01*
X964283D01*
Y596494D01*
X964300D01*
Y596545D01*
X964317D01*
Y596614D01*
X964335D01*
Y596666D01*
X964352D01*
Y596717D01*
X964369D01*
Y596769D01*
X964386D01*
Y596821D01*
X964403D01*
Y596872D01*
X964421D01*
Y596907D01*
X964438D01*
Y596958D01*
X964455D01*
Y596993D01*
X964472D01*
Y597044D01*
X964489D01*
Y597079D01*
X964507D01*
Y597113D01*
X964524D01*
Y597165D01*
X964541D01*
Y597199D01*
X964558D01*
Y597233D01*
X964575D01*
Y597268D01*
X964593D01*
Y597302D01*
X964610D01*
Y597336D01*
X964627D01*
Y597371D01*
X964644D01*
Y597405D01*
X964661D01*
Y597423D01*
X964679D01*
Y597457D01*
X964696D01*
Y597491D01*
X964713D01*
Y597526D01*
X964730D01*
Y597543D01*
X964747D01*
Y597577D01*
X964765D01*
Y597612D01*
X964782D01*
Y597629D01*
X964799D01*
Y597663D01*
X964816D01*
Y597681D01*
X964833D01*
Y597715D01*
X964851D01*
Y597732D01*
X964868D01*
Y597766D01*
X964885D01*
Y597784D01*
X964902D01*
Y597818D01*
X964919D01*
Y597835D01*
X964937D01*
Y597870D01*
X964954D01*
Y597887D01*
X964971D01*
Y597904D01*
X964988D01*
Y597938D01*
X965005D01*
Y597956D01*
X965023D01*
Y597973D01*
X965040D01*
Y598007D01*
X965057D01*
Y598025D01*
X965074D01*
Y598042D01*
X965091D01*
Y598059D01*
X965109D01*
Y598093D01*
X965126D01*
Y598110D01*
X965143D01*
Y598128D01*
X965160D01*
Y598145D01*
X965177D01*
Y598162D01*
X965195D01*
Y598197D01*
X965212D01*
Y598214D01*
X965229D01*
Y598231D01*
X965246D01*
Y598248D01*
X965263D01*
Y598265D01*
X965281D01*
Y598282D01*
X965298D01*
Y598300D01*
X965315D01*
Y598317D01*
X965332D01*
Y598334D01*
X965349D01*
Y598351D01*
X965367D01*
Y598369D01*
X965384D01*
Y598403D01*
X965401D01*
Y598420D01*
X965418D01*
Y598437D01*
X965435D01*
Y598455D01*
X965453D01*
Y598472D01*
X965470D01*
Y598489D01*
X965504D01*
Y598506D01*
X965521D01*
Y598523D01*
X965539D01*
Y598540D01*
X965556D01*
Y598558D01*
X965573D01*
Y598575D01*
X965590D01*
Y598592D01*
X965607D01*
Y598609D01*
X965625D01*
Y598627D01*
X965642D01*
Y598644D01*
X965659D01*
Y598661D01*
X965693D01*
Y598678D01*
X965711D01*
Y598695D01*
X965728D01*
Y598712D01*
X965745D01*
Y598730D01*
X965762D01*
Y598747D01*
X965797D01*
Y598764D01*
X965814D01*
Y598781D01*
X965831D01*
Y598799D01*
X965848D01*
Y598816D01*
X965883D01*
Y598833D01*
X965900D01*
Y598850D01*
X965917D01*
Y598867D01*
X965951D01*
Y598884D01*
X965969D01*
Y598902D01*
X965986D01*
Y598919D01*
X966020D01*
Y598936D01*
X966037D01*
Y598953D01*
X966072D01*
Y598971D01*
X966089D01*
Y598988D01*
X966123D01*
Y599005D01*
X966140D01*
Y599022D01*
X966175D01*
Y599039D01*
X966209D01*
Y599056D01*
X966226D01*
Y599074D01*
X966261D01*
Y599091D01*
X966295D01*
Y599108D01*
X966313D01*
Y599125D01*
X966347D01*
Y599143D01*
X966381D01*
Y599160D01*
X966416D01*
Y599177D01*
X966450D01*
Y599194D01*
X966485D01*
Y599211D01*
X966519D01*
Y599228D01*
X966553D01*
Y599246D01*
X966588D01*
Y599263D01*
X966622D01*
Y599280D01*
X966656D01*
Y599297D01*
X966691D01*
Y599314D01*
X966743D01*
Y599332D01*
X966777D01*
Y599349D01*
X966829D01*
Y599366D01*
X966863D01*
Y599383D01*
X966914D01*
Y599400D01*
X966966D01*
Y599418D01*
X967018D01*
Y599435D01*
X967069D01*
Y599452D01*
X967121D01*
Y599469D01*
X967190D01*
Y599486D01*
X967241D01*
Y599504D01*
X967310D01*
Y599521D01*
X967396D01*
Y599538D01*
X967482D01*
Y599555D01*
X967568D01*
Y599572D01*
X967688D01*
Y599590D01*
X967826D01*
Y599607D01*
X968015D01*
Y599624D01*
X968600D01*
Y599607D01*
D02*
G37*
G36*
X981964Y596631D02*
X982084D01*
Y594826D01*
X981998D01*
Y594843D01*
X981843D01*
Y594860D01*
X981534D01*
Y594843D01*
X981413D01*
Y594826D01*
X981345D01*
Y594808D01*
X981293D01*
Y594791D01*
X981258D01*
Y594774D01*
X981207D01*
Y594757D01*
X981172D01*
Y594739D01*
X981138D01*
Y594722D01*
X981121D01*
Y594705D01*
X981087D01*
Y594688D01*
X981069D01*
Y594671D01*
X981035D01*
Y594654D01*
X981018D01*
Y594636D01*
X981001D01*
Y594619D01*
X980983D01*
Y594602D01*
X980966D01*
Y594585D01*
X980949D01*
Y594567D01*
X980932D01*
Y594550D01*
X980914D01*
Y594533D01*
X980897D01*
Y594516D01*
X980880D01*
Y594482D01*
X980863D01*
Y594464D01*
X980846D01*
Y594447D01*
X980828D01*
Y594413D01*
X980811D01*
Y594395D01*
X980794D01*
Y594361D01*
X980777D01*
Y594327D01*
X980760D01*
Y594292D01*
X980742D01*
Y594258D01*
X980725D01*
Y594206D01*
X980708D01*
Y594172D01*
X980691D01*
Y594120D01*
X980674D01*
Y594052D01*
X980657D01*
Y593983D01*
X980639D01*
Y593897D01*
X980622D01*
Y593776D01*
X980605D01*
Y592125D01*
Y592108D01*
Y591024D01*
X978919D01*
Y596580D01*
X980571D01*
Y595754D01*
X980605D01*
Y595789D01*
X980622D01*
Y595806D01*
X980639D01*
Y595840D01*
X980657D01*
Y595875D01*
X980674D01*
Y595892D01*
X980691D01*
Y595926D01*
X980708D01*
Y595943D01*
X980725D01*
Y595961D01*
X980742D01*
Y595995D01*
X980760D01*
Y596012D01*
X980777D01*
Y596029D01*
X980794D01*
Y596064D01*
X980811D01*
Y596081D01*
X980828D01*
Y596098D01*
X980846D01*
Y596115D01*
X980863D01*
Y596133D01*
X980880D01*
Y596150D01*
X980897D01*
Y596167D01*
X980914D01*
Y596201D01*
X980932D01*
Y596219D01*
X980949D01*
Y596236D01*
X980966D01*
Y596253D01*
X980983D01*
Y596270D01*
X981018D01*
Y596287D01*
X981035D01*
Y596305D01*
X981052D01*
Y596322D01*
X981069D01*
Y596339D01*
X981087D01*
Y596356D01*
X981104D01*
Y596373D01*
X981138D01*
Y596391D01*
X981155D01*
Y596408D01*
X981172D01*
Y596425D01*
X981207D01*
Y596442D01*
X981224D01*
Y596459D01*
X981258D01*
Y596477D01*
X981276D01*
Y596494D01*
X981310D01*
Y596511D01*
X981345D01*
Y596528D01*
X981362D01*
Y596545D01*
X981396D01*
Y596563D01*
X981431D01*
Y596580D01*
X981482D01*
Y596597D01*
X981516D01*
Y596614D01*
X981585D01*
Y596631D01*
X981654D01*
Y596649D01*
X981964D01*
Y596631D01*
D02*
G37*
G36*
X984870Y591024D02*
X983219D01*
Y596580D01*
X984870D01*
Y591024D01*
D02*
G37*
G36*
X974224Y596666D02*
X974362D01*
Y596649D01*
X974448D01*
Y596631D01*
X974534D01*
Y596614D01*
X974585D01*
Y596597D01*
X974637D01*
Y596580D01*
X974688D01*
Y596563D01*
X974723D01*
Y596545D01*
X974774D01*
Y596528D01*
X974809D01*
Y596511D01*
X974843D01*
Y596494D01*
X974878D01*
Y596477D01*
X974912D01*
Y596459D01*
X974929D01*
Y596442D01*
X974964D01*
Y596425D01*
X974998D01*
Y596408D01*
X975015D01*
Y596391D01*
X975050D01*
Y596373D01*
X975067D01*
Y596356D01*
X975101D01*
Y596339D01*
X975118D01*
Y596322D01*
X975153D01*
Y596305D01*
X975170D01*
Y596287D01*
X975187D01*
Y596270D01*
X975222D01*
Y596253D01*
X975239D01*
Y596236D01*
X975256D01*
Y596219D01*
X975273D01*
Y596201D01*
X975308D01*
Y596184D01*
X975325D01*
Y596167D01*
X975342D01*
Y596150D01*
X975359D01*
Y596133D01*
X975376D01*
Y596115D01*
X975394D01*
Y596098D01*
X975411D01*
Y596081D01*
X975445D01*
Y596064D01*
X975462D01*
Y596047D01*
X975480D01*
Y596029D01*
X975497D01*
Y596012D01*
X975514D01*
Y595995D01*
X975531D01*
Y595978D01*
X975548D01*
Y595961D01*
X975566D01*
Y595943D01*
X975583D01*
Y595926D01*
X975600D01*
Y595909D01*
X975617D01*
Y595892D01*
X975634D01*
Y595875D01*
X975652D01*
Y595857D01*
X975669D01*
Y595840D01*
X975686D01*
Y595823D01*
X975703D01*
Y596580D01*
X977354D01*
Y591540D01*
Y591523D01*
Y591024D01*
X975703D01*
Y591970D01*
X975669D01*
Y591953D01*
X975652D01*
Y591919D01*
X975634D01*
Y591902D01*
X975617D01*
Y591867D01*
X975600D01*
Y591850D01*
X975583D01*
Y591833D01*
X975566D01*
Y591798D01*
X975548D01*
Y591781D01*
X975531D01*
Y591764D01*
X975514D01*
Y591747D01*
X975497D01*
Y591713D01*
X975480D01*
Y591695D01*
X975462D01*
Y591678D01*
X975445D01*
Y591661D01*
X975428D01*
Y591644D01*
X975411D01*
Y591609D01*
X975394D01*
Y591592D01*
X975376D01*
Y591575D01*
X975359D01*
Y591558D01*
X975342D01*
Y591540D01*
X975325D01*
Y591523D01*
X975308D01*
Y591506D01*
X975290D01*
Y591489D01*
X975273D01*
Y591472D01*
X975256D01*
Y591455D01*
X975239D01*
Y591437D01*
X975222D01*
Y591420D01*
X975204D01*
Y591403D01*
X975187D01*
Y591386D01*
X975170D01*
Y591368D01*
X975153D01*
Y591351D01*
X975136D01*
Y591334D01*
X975101D01*
Y591317D01*
X975084D01*
Y591300D01*
X975067D01*
Y591283D01*
X975050D01*
Y591265D01*
X975015D01*
Y591248D01*
X974998D01*
Y591231D01*
X974981D01*
Y591214D01*
X974946D01*
Y591196D01*
X974929D01*
Y591179D01*
X974895D01*
Y591162D01*
X974878D01*
Y591145D01*
X974843D01*
Y591128D01*
X974809D01*
Y591111D01*
X974774D01*
Y591093D01*
X974740D01*
Y591076D01*
X974706D01*
Y591059D01*
X974671D01*
Y591042D01*
X974620D01*
Y591024D01*
X974568D01*
Y591007D01*
X974516D01*
Y590990D01*
X974448D01*
Y590973D01*
X974379D01*
Y590956D01*
X974276D01*
Y590939D01*
X974138D01*
Y590921D01*
X973708D01*
Y590939D01*
X973571D01*
Y590956D01*
X973485D01*
Y590973D01*
X973416D01*
Y590990D01*
X973347D01*
Y591007D01*
X973295D01*
Y591024D01*
X973244D01*
Y591042D01*
X973192D01*
Y591059D01*
X973141D01*
Y591076D01*
X973106D01*
Y591093D01*
X973072D01*
Y591111D01*
X973037D01*
Y591128D01*
X973003D01*
Y591145D01*
X972968D01*
Y591162D01*
X972934D01*
Y591179D01*
X972900D01*
Y591196D01*
X972883D01*
Y591214D01*
X972848D01*
Y591231D01*
X972814D01*
Y591248D01*
X972797D01*
Y591265D01*
X972779D01*
Y591283D01*
X972745D01*
Y591300D01*
X972728D01*
Y591317D01*
X972693D01*
Y591334D01*
X972676D01*
Y591351D01*
X972659D01*
Y591368D01*
X972642D01*
Y591386D01*
X972607D01*
Y591403D01*
X972590D01*
Y591420D01*
X972573D01*
Y591437D01*
X972556D01*
Y591455D01*
X972539D01*
Y591472D01*
X972521D01*
Y591489D01*
X972504D01*
Y591506D01*
X972487D01*
Y591523D01*
X972453D01*
Y591540D01*
X972435D01*
Y591558D01*
X972418D01*
Y591592D01*
X972401D01*
Y591609D01*
X972384D01*
Y591627D01*
X972367D01*
Y591644D01*
X972349D01*
Y591661D01*
X972332D01*
Y591678D01*
X972315D01*
Y591695D01*
X972298D01*
Y591713D01*
X972281D01*
Y591747D01*
X972263D01*
Y591764D01*
X972246D01*
Y591781D01*
X972229D01*
Y591798D01*
X972212D01*
Y591833D01*
X972195D01*
Y591850D01*
X972177D01*
Y591867D01*
X972160D01*
Y591902D01*
X972143D01*
Y591919D01*
X972126D01*
Y591936D01*
X972109D01*
Y591970D01*
X972091D01*
Y591988D01*
X972074D01*
Y592022D01*
X972057D01*
Y592039D01*
X972040D01*
Y592074D01*
X972023D01*
Y592108D01*
X972005D01*
Y592125D01*
X971988D01*
Y592160D01*
X971971D01*
Y592194D01*
X971954D01*
Y592228D01*
X971937D01*
Y592263D01*
X971919D01*
Y592280D01*
X971902D01*
Y592314D01*
X971885D01*
Y592349D01*
X971868D01*
Y592400D01*
X971851D01*
Y592435D01*
X971833D01*
Y592469D01*
X971816D01*
Y592521D01*
X971799D01*
Y592555D01*
X971782D01*
Y592607D01*
X971765D01*
Y592641D01*
X971747D01*
Y592693D01*
X971730D01*
Y592744D01*
X971713D01*
Y592813D01*
X971696D01*
Y592865D01*
X971679D01*
Y592934D01*
X971661D01*
Y593020D01*
X971644D01*
Y593106D01*
X971627D01*
Y593192D01*
X971610D01*
Y593329D01*
X971593D01*
Y593501D01*
X971575D01*
Y594086D01*
X971593D01*
Y594258D01*
X971610D01*
Y594378D01*
X971627D01*
Y594464D01*
X971644D01*
Y594550D01*
X971661D01*
Y594619D01*
X971679D01*
Y594688D01*
X971696D01*
Y594757D01*
X971713D01*
Y594808D01*
X971730D01*
Y594860D01*
X971747D01*
Y594911D01*
X971765D01*
Y594963D01*
X971782D01*
Y594998D01*
X971799D01*
Y595049D01*
X971816D01*
Y595084D01*
X971833D01*
Y595118D01*
X971851D01*
Y595152D01*
X971868D01*
Y595187D01*
X971885D01*
Y595221D01*
X971902D01*
Y595256D01*
X971919D01*
Y595290D01*
X971937D01*
Y595324D01*
X971954D01*
Y595359D01*
X971971D01*
Y595393D01*
X971988D01*
Y595410D01*
X972005D01*
Y595445D01*
X972023D01*
Y595479D01*
X972040D01*
Y595496D01*
X972057D01*
Y595531D01*
X972074D01*
Y595548D01*
X972091D01*
Y595582D01*
X972109D01*
Y595599D01*
X972126D01*
Y595617D01*
X972143D01*
Y595651D01*
X972160D01*
Y595668D01*
X972177D01*
Y595703D01*
X972195D01*
Y595720D01*
X972212D01*
Y595737D01*
X972229D01*
Y595754D01*
X972246D01*
Y595789D01*
X972263D01*
Y595806D01*
X972281D01*
Y595823D01*
X972298D01*
Y595840D01*
X972315D01*
Y595857D01*
X972332D01*
Y595875D01*
X972349D01*
Y595909D01*
X972367D01*
Y595926D01*
X972384D01*
Y595943D01*
X972401D01*
Y595961D01*
X972418D01*
Y595978D01*
X972435D01*
Y595995D01*
X972453D01*
Y596012D01*
X972470D01*
Y596029D01*
X972487D01*
Y596047D01*
X972504D01*
Y596064D01*
X972521D01*
Y596081D01*
X972539D01*
Y596098D01*
X972556D01*
Y596115D01*
X972590D01*
Y596133D01*
X972607D01*
Y596150D01*
X972625D01*
Y596167D01*
X972642D01*
Y596184D01*
X972659D01*
Y596201D01*
X972693D01*
Y596219D01*
X972711D01*
Y596236D01*
X972728D01*
Y596253D01*
X972745D01*
Y596270D01*
X972779D01*
Y596287D01*
X972797D01*
Y596305D01*
X972831D01*
Y596322D01*
X972848D01*
Y596339D01*
X972883D01*
Y596356D01*
X972900D01*
Y596373D01*
X972934D01*
Y596391D01*
X972968D01*
Y596408D01*
X972986D01*
Y596425D01*
X973020D01*
Y596442D01*
X973055D01*
Y596459D01*
X973089D01*
Y596477D01*
X973123D01*
Y596494D01*
X973158D01*
Y596511D01*
X973209D01*
Y596528D01*
X973244D01*
Y596545D01*
X973295D01*
Y596563D01*
X973330D01*
Y596580D01*
X973381D01*
Y596597D01*
X973450D01*
Y596614D01*
X973519D01*
Y596631D01*
X973588D01*
Y596649D01*
X973691D01*
Y596666D01*
X973829D01*
Y596683D01*
X974224D01*
Y596666D01*
D02*
G37*
G36*
X1005079Y603339D02*
X1005165D01*
Y603322D01*
X1005234D01*
Y603305D01*
X1005285D01*
Y603287D01*
X1005337D01*
Y603270D01*
X1005389D01*
Y603253D01*
X1005423D01*
Y603236D01*
X1005475D01*
Y603219D01*
X1005509D01*
Y603201D01*
X1005543D01*
Y603184D01*
X1005578D01*
Y603167D01*
X1005612D01*
Y603150D01*
X1005647D01*
Y603133D01*
X1005664D01*
Y603115D01*
X1005698D01*
Y603098D01*
X1005733D01*
Y603081D01*
X1005750D01*
Y603064D01*
X1005784D01*
Y603047D01*
X1005801D01*
Y603029D01*
X1005836D01*
Y603012D01*
X1005853D01*
Y602995D01*
X1005887D01*
Y602978D01*
X1005905D01*
Y602961D01*
X1005939D01*
Y602943D01*
X1005956D01*
Y602926D01*
X1005973D01*
Y602909D01*
X1006008D01*
Y602892D01*
X1006025D01*
Y602875D01*
X1006042D01*
Y602857D01*
X1006077D01*
Y602823D01*
X1006042D01*
Y602806D01*
X1006025D01*
Y602789D01*
X1006008D01*
Y602771D01*
X1005991D01*
Y602754D01*
X1005973D01*
Y602737D01*
X1005939D01*
Y602720D01*
X1005922D01*
Y602703D01*
X1005905D01*
Y602685D01*
X1005887D01*
Y602668D01*
X1005870D01*
Y602651D01*
X1005836D01*
Y602634D01*
X1005819D01*
Y602617D01*
X1005801D01*
Y602599D01*
X1005784D01*
Y602582D01*
X1005767D01*
Y602565D01*
X1005733D01*
Y602548D01*
X1005715D01*
Y602531D01*
X1005698D01*
Y602514D01*
X1005681D01*
Y602496D01*
X1005664D01*
Y602479D01*
X1005629D01*
Y602462D01*
X1005612D01*
Y602445D01*
X1005595D01*
Y602427D01*
X1005578D01*
Y602410D01*
X1005543D01*
Y602427D01*
X1005509D01*
Y602445D01*
X1005492D01*
Y602462D01*
X1005457D01*
Y602479D01*
X1005440D01*
Y602496D01*
X1005406D01*
Y602514D01*
X1005371D01*
Y602531D01*
X1005354D01*
Y602548D01*
X1005320D01*
Y602565D01*
X1005285D01*
Y602582D01*
X1005251D01*
Y602599D01*
X1005217D01*
Y602617D01*
X1005182D01*
Y602634D01*
X1005131D01*
Y602651D01*
X1005079D01*
Y602668D01*
X1004959D01*
Y602685D01*
X1004752D01*
Y602668D01*
X1004649D01*
Y602651D01*
X1004597D01*
Y602634D01*
X1004563D01*
Y602617D01*
X1004529D01*
Y602599D01*
X1004494D01*
Y602582D01*
X1004477D01*
Y602565D01*
X1004460D01*
Y602548D01*
X1004443D01*
Y602514D01*
X1004426D01*
Y602479D01*
X1004408D01*
Y602410D01*
X1004391D01*
Y602324D01*
X1004408D01*
Y602273D01*
X1004426D01*
Y602238D01*
X1004443D01*
Y602221D01*
X1004460D01*
Y602187D01*
X1004477D01*
Y602170D01*
X1004494D01*
Y602152D01*
X1004529D01*
Y602135D01*
X1004546D01*
Y602118D01*
X1004563D01*
Y602101D01*
X1004597D01*
Y602083D01*
X1004615D01*
Y602066D01*
X1004649D01*
Y602049D01*
X1004683D01*
Y602032D01*
X1004718D01*
Y602015D01*
X1004752D01*
Y601998D01*
X1004787D01*
Y601980D01*
X1004821D01*
Y601963D01*
X1004856D01*
Y601946D01*
X1004907D01*
Y601929D01*
X1004941D01*
Y601911D01*
X1004993D01*
Y601894D01*
X1005045D01*
Y601877D01*
X1005079D01*
Y601860D01*
X1005131D01*
Y601843D01*
X1005165D01*
Y601826D01*
X1005217D01*
Y601808D01*
X1005251D01*
Y601791D01*
X1005285D01*
Y601774D01*
X1005320D01*
Y601757D01*
X1005354D01*
Y601740D01*
X1005389D01*
Y601722D01*
X1005423D01*
Y601705D01*
X1005457D01*
Y601688D01*
X1005492D01*
Y601671D01*
X1005526D01*
Y601653D01*
X1005561D01*
Y601636D01*
X1005578D01*
Y601619D01*
X1005612D01*
Y601602D01*
X1005629D01*
Y601585D01*
X1005664D01*
Y601568D01*
X1005681D01*
Y601550D01*
X1005715D01*
Y601533D01*
X1005733D01*
Y601516D01*
X1005750D01*
Y601499D01*
X1005767D01*
Y601481D01*
X1005801D01*
Y601464D01*
X1005819D01*
Y601447D01*
X1005836D01*
Y601430D01*
X1005853D01*
Y601413D01*
X1005870D01*
Y601396D01*
X1005887D01*
Y601378D01*
X1005905D01*
Y601344D01*
X1005922D01*
Y601327D01*
X1005939D01*
Y601309D01*
X1005956D01*
Y601275D01*
X1005973D01*
Y601258D01*
X1005991D01*
Y601224D01*
X1006008D01*
Y601189D01*
X1006025D01*
Y601155D01*
X1006042D01*
Y601120D01*
X1006059D01*
Y601069D01*
X1006077D01*
Y601017D01*
X1006094D01*
Y600948D01*
X1006111D01*
Y600604D01*
X1006094D01*
Y600518D01*
X1006077D01*
Y600467D01*
X1006059D01*
Y600415D01*
X1006042D01*
Y600381D01*
X1006025D01*
Y600346D01*
X1006008D01*
Y600312D01*
X1005991D01*
Y600278D01*
X1005973D01*
Y600260D01*
X1005956D01*
Y600226D01*
X1005939D01*
Y600209D01*
X1005922D01*
Y600192D01*
X1005905D01*
Y600157D01*
X1005887D01*
Y600140D01*
X1005870D01*
Y600123D01*
X1005853D01*
Y600106D01*
X1005836D01*
Y600088D01*
X1005819D01*
Y600071D01*
X1005801D01*
Y600054D01*
X1005784D01*
Y600037D01*
X1005767D01*
Y600020D01*
X1005750D01*
Y600002D01*
X1005733D01*
Y599985D01*
X1005715D01*
Y599968D01*
X1005681D01*
Y599951D01*
X1005664D01*
Y599934D01*
X1005647D01*
Y599916D01*
X1005612D01*
Y599899D01*
X1005595D01*
Y599882D01*
X1005561D01*
Y599865D01*
X1005543D01*
Y599848D01*
X1005509D01*
Y599830D01*
X1005475D01*
Y599813D01*
X1005440D01*
Y599796D01*
X1005406D01*
Y599779D01*
X1005371D01*
Y599762D01*
X1005320D01*
Y599744D01*
X1005268D01*
Y599727D01*
X1005217D01*
Y599710D01*
X1005148D01*
Y599693D01*
X1005045D01*
Y599676D01*
X1004649D01*
Y599693D01*
X1004529D01*
Y599710D01*
X1004460D01*
Y599727D01*
X1004391D01*
Y599744D01*
X1004340D01*
Y599762D01*
X1004305D01*
Y599779D01*
X1004253D01*
Y599796D01*
X1004219D01*
Y599813D01*
X1004185D01*
Y599830D01*
X1004150D01*
Y599848D01*
X1004116D01*
Y599865D01*
X1004082D01*
Y599882D01*
X1004047D01*
Y599899D01*
X1004030D01*
Y599916D01*
X1003996D01*
Y599934D01*
X1003978D01*
Y599951D01*
X1003961D01*
Y599968D01*
X1003927D01*
Y599985D01*
X1003909D01*
Y600002D01*
X1003892D01*
Y600020D01*
X1003875D01*
Y600037D01*
X1003841D01*
Y600054D01*
X1003824D01*
Y600071D01*
X1003806D01*
Y600088D01*
X1003789D01*
Y600106D01*
X1003772D01*
Y600123D01*
X1003755D01*
Y600140D01*
X1003738D01*
Y600157D01*
X1003720D01*
Y600174D01*
X1003703D01*
Y600192D01*
X1003686D01*
Y600226D01*
X1003669D01*
Y600243D01*
X1003652D01*
Y600260D01*
X1003634D01*
Y600278D01*
X1003617D01*
Y600295D01*
X1003600D01*
Y600329D01*
X1003583D01*
Y600346D01*
X1003566D01*
Y600364D01*
X1003583D01*
Y600381D01*
X1003617D01*
Y600398D01*
X1003669D01*
Y600415D01*
X1003703D01*
Y600432D01*
X1003738D01*
Y600450D01*
X1003772D01*
Y600467D01*
X1003806D01*
Y600484D01*
X1003858D01*
Y600501D01*
X1003892D01*
Y600518D01*
X1003927D01*
Y600536D01*
X1003961D01*
Y600553D01*
X1003996D01*
Y600570D01*
X1004030D01*
Y600587D01*
X1004082D01*
Y600604D01*
X1004116D01*
Y600622D01*
X1004150D01*
Y600639D01*
X1004185D01*
Y600622D01*
X1004219D01*
Y600604D01*
X1004236D01*
Y600587D01*
X1004253D01*
Y600570D01*
X1004271D01*
Y600553D01*
X1004305D01*
Y600536D01*
X1004322D01*
Y600518D01*
X1004357D01*
Y600501D01*
X1004374D01*
Y600484D01*
X1004408D01*
Y600467D01*
X1004443D01*
Y600450D01*
X1004477D01*
Y600432D01*
X1004512D01*
Y600415D01*
X1004546D01*
Y600398D01*
X1004597D01*
Y600381D01*
X1004649D01*
Y600364D01*
X1004752D01*
Y600346D01*
X1004941D01*
Y600364D01*
X1005045D01*
Y600381D01*
X1005096D01*
Y600398D01*
X1005148D01*
Y600415D01*
X1005182D01*
Y600432D01*
X1005217D01*
Y600450D01*
X1005234D01*
Y600467D01*
X1005268D01*
Y600484D01*
X1005285D01*
Y600501D01*
X1005320D01*
Y600518D01*
X1005337D01*
Y600536D01*
X1005354D01*
Y600553D01*
X1005371D01*
Y600587D01*
X1005389D01*
Y600604D01*
X1005406D01*
Y600639D01*
X1005423D01*
Y600673D01*
X1005440D01*
Y600845D01*
X1005423D01*
Y600880D01*
X1005406D01*
Y600914D01*
X1005389D01*
Y600931D01*
X1005371D01*
Y600965D01*
X1005354D01*
Y600983D01*
X1005337D01*
Y601000D01*
X1005320D01*
Y601017D01*
X1005303D01*
Y601034D01*
X1005268D01*
Y601052D01*
X1005251D01*
Y601069D01*
X1005234D01*
Y601086D01*
X1005200D01*
Y601103D01*
X1005182D01*
Y601120D01*
X1005148D01*
Y601137D01*
X1005114D01*
Y601155D01*
X1005079D01*
Y601172D01*
X1005045D01*
Y601189D01*
X1005010D01*
Y601206D01*
X1004976D01*
Y601224D01*
X1004941D01*
Y601241D01*
X1004890D01*
Y601258D01*
X1004856D01*
Y601275D01*
X1004804D01*
Y601292D01*
X1004752D01*
Y601309D01*
X1004718D01*
Y601327D01*
X1004666D01*
Y601344D01*
X1004615D01*
Y601361D01*
X1004580D01*
Y601378D01*
X1004546D01*
Y601396D01*
X1004494D01*
Y601413D01*
X1004460D01*
Y601430D01*
X1004426D01*
Y601447D01*
X1004391D01*
Y601464D01*
X1004357D01*
Y601481D01*
X1004322D01*
Y601499D01*
X1004288D01*
Y601516D01*
X1004253D01*
Y601533D01*
X1004219D01*
Y601550D01*
X1004202D01*
Y601568D01*
X1004167D01*
Y601585D01*
X1004133D01*
Y601602D01*
X1004116D01*
Y601619D01*
X1004082D01*
Y601636D01*
X1004064D01*
Y601653D01*
X1004047D01*
Y601671D01*
X1004013D01*
Y601688D01*
X1003996D01*
Y601705D01*
X1003978D01*
Y601722D01*
X1003961D01*
Y601740D01*
X1003944D01*
Y601757D01*
X1003927D01*
Y601774D01*
X1003909D01*
Y601791D01*
X1003892D01*
Y601808D01*
X1003875D01*
Y601826D01*
X1003858D01*
Y601843D01*
X1003841D01*
Y601877D01*
X1003824D01*
Y601894D01*
X1003806D01*
Y601929D01*
X1003789D01*
Y601963D01*
X1003772D01*
Y601998D01*
X1003755D01*
Y602049D01*
X1003738D01*
Y602101D01*
X1003720D01*
Y602170D01*
X1003703D01*
Y602307D01*
X1003686D01*
Y602393D01*
X1003703D01*
Y602531D01*
X1003720D01*
Y602599D01*
X1003738D01*
Y602651D01*
X1003755D01*
Y602703D01*
X1003772D01*
Y602737D01*
X1003789D01*
Y602771D01*
X1003806D01*
Y602806D01*
X1003824D01*
Y602840D01*
X1003841D01*
Y602857D01*
X1003858D01*
Y602892D01*
X1003875D01*
Y602909D01*
X1003892D01*
Y602926D01*
X1003909D01*
Y602943D01*
X1003927D01*
Y602961D01*
X1003944D01*
Y602995D01*
X1003961D01*
Y603012D01*
X1003996D01*
Y603029D01*
X1004013D01*
Y603047D01*
X1004030D01*
Y603064D01*
X1004047D01*
Y603081D01*
X1004064D01*
Y603098D01*
X1004082D01*
Y603115D01*
X1004116D01*
Y603133D01*
X1004133D01*
Y603150D01*
X1004167D01*
Y603167D01*
X1004185D01*
Y603184D01*
X1004219D01*
Y603201D01*
X1004253D01*
Y603219D01*
X1004288D01*
Y603236D01*
X1004322D01*
Y603253D01*
X1004357D01*
Y603270D01*
X1004408D01*
Y603287D01*
X1004460D01*
Y603305D01*
X1004529D01*
Y603322D01*
X1004597D01*
Y603339D01*
X1004701D01*
Y603356D01*
X1005079D01*
Y603339D01*
D02*
G37*
G36*
X995671D02*
X995774D01*
Y603322D01*
X995860D01*
Y603305D01*
X995912D01*
Y603287D01*
X995964D01*
Y603270D01*
X996015D01*
Y603253D01*
X996067D01*
Y603236D01*
X996101D01*
Y603219D01*
X996153D01*
Y603201D01*
X996187D01*
Y603184D01*
X996222D01*
Y603167D01*
X996256D01*
Y603150D01*
X996273D01*
Y603133D01*
X996308D01*
Y603115D01*
X996342D01*
Y603098D01*
X996359D01*
Y603081D01*
X996394D01*
Y603064D01*
X996411D01*
Y603047D01*
X996445D01*
Y603029D01*
X996462D01*
Y603012D01*
X996480D01*
Y602995D01*
X996514D01*
Y602978D01*
X996531D01*
Y602961D01*
X996548D01*
Y602943D01*
X996566D01*
Y602926D01*
X996583D01*
Y602909D01*
X996617D01*
Y602892D01*
X996634D01*
Y602875D01*
X996652D01*
Y602857D01*
X996669D01*
Y602840D01*
X996686D01*
Y602823D01*
X996703D01*
Y602789D01*
X996720D01*
Y602771D01*
X996738D01*
Y602754D01*
X996755D01*
Y602737D01*
X996772D01*
Y602720D01*
X996789D01*
Y602685D01*
X996806D01*
Y602668D01*
X996824D01*
Y602651D01*
X996841D01*
Y602617D01*
X996858D01*
Y602599D01*
X996875D01*
Y602565D01*
X996892D01*
Y603253D01*
X997666D01*
Y599779D01*
X996892D01*
Y600432D01*
X996875D01*
Y600415D01*
X996858D01*
Y600398D01*
X996841D01*
Y600364D01*
X996824D01*
Y600346D01*
X996806D01*
Y600329D01*
X996789D01*
Y600312D01*
X996772D01*
Y600278D01*
X996755D01*
Y600260D01*
X996738D01*
Y600243D01*
X996720D01*
Y600226D01*
X996703D01*
Y600209D01*
X996686D01*
Y600192D01*
X996669D01*
Y600174D01*
X996652D01*
Y600157D01*
X996634D01*
Y600140D01*
X996617D01*
Y600123D01*
X996600D01*
Y600106D01*
X996583D01*
Y600088D01*
X996566D01*
Y600071D01*
X996548D01*
Y600054D01*
X996514D01*
Y600037D01*
X996497D01*
Y600020D01*
X996480D01*
Y600002D01*
X996462D01*
Y599985D01*
X996428D01*
Y599968D01*
X996411D01*
Y599951D01*
X996376D01*
Y599934D01*
X996359D01*
Y599916D01*
X996325D01*
Y599899D01*
X996308D01*
Y599882D01*
X996273D01*
Y599865D01*
X996239D01*
Y599848D01*
X996204D01*
Y599830D01*
X996170D01*
Y599813D01*
X996136D01*
Y599796D01*
X996101D01*
Y599779D01*
X996050D01*
Y599762D01*
X995998D01*
Y599744D01*
X995946D01*
Y599727D01*
X995878D01*
Y599710D01*
X995809D01*
Y599693D01*
X995688D01*
Y599676D01*
X995276D01*
Y599693D01*
X995155D01*
Y599710D01*
X995086D01*
Y599727D01*
X995018D01*
Y599744D01*
X994966D01*
Y599762D01*
X994915D01*
Y599779D01*
X994863D01*
Y599796D01*
X994829D01*
Y599813D01*
X994777D01*
Y599830D01*
X994742D01*
Y599848D01*
X994708D01*
Y599865D01*
X994674D01*
Y599882D01*
X994656D01*
Y599899D01*
X994622D01*
Y599916D01*
X994588D01*
Y599934D01*
X994571D01*
Y599951D01*
X994536D01*
Y599968D01*
X994519D01*
Y599985D01*
X994502D01*
Y600002D01*
X994467D01*
Y600020D01*
X994450D01*
Y600037D01*
X994433D01*
Y600054D01*
X994398D01*
Y600071D01*
X994381D01*
Y600088D01*
X994364D01*
Y600106D01*
X994347D01*
Y600123D01*
X994330D01*
Y600140D01*
X994312D01*
Y600157D01*
X994295D01*
Y600174D01*
X994278D01*
Y600192D01*
X994261D01*
Y600209D01*
X994244D01*
Y600226D01*
X994226D01*
Y600243D01*
X994209D01*
Y600260D01*
X994192D01*
Y600278D01*
X994175D01*
Y600295D01*
X994158D01*
Y600329D01*
X994141D01*
Y600346D01*
X994123D01*
Y600364D01*
X994106D01*
Y600381D01*
X994089D01*
Y600415D01*
X994072D01*
Y600432D01*
X994055D01*
Y600467D01*
X994037D01*
Y600484D01*
X994020D01*
Y600518D01*
X994003D01*
Y600536D01*
X993986D01*
Y600570D01*
X993968D01*
Y600604D01*
X993951D01*
Y600639D01*
X993934D01*
Y600673D01*
X993917D01*
Y600708D01*
X993900D01*
Y600742D01*
X993882D01*
Y600776D01*
X993865D01*
Y600828D01*
X993848D01*
Y600862D01*
X993831D01*
Y600914D01*
X993814D01*
Y600983D01*
X993797D01*
Y601034D01*
X993779D01*
Y601120D01*
X993762D01*
Y601224D01*
X993745D01*
Y601361D01*
X993728D01*
Y601688D01*
X993745D01*
Y601722D01*
Y601740D01*
Y601826D01*
X993762D01*
Y601929D01*
X993779D01*
Y601998D01*
X993797D01*
Y602049D01*
X993814D01*
Y602118D01*
X993831D01*
Y602152D01*
X993848D01*
Y602204D01*
X993865D01*
Y602255D01*
X993882D01*
Y602290D01*
X993900D01*
Y602324D01*
X993917D01*
Y602359D01*
X993934D01*
Y602393D01*
X993951D01*
Y602427D01*
X993968D01*
Y602445D01*
X993986D01*
Y602479D01*
X994003D01*
Y602514D01*
X994020D01*
Y602531D01*
X994037D01*
Y602565D01*
X994055D01*
Y602582D01*
X994072D01*
Y602617D01*
X994089D01*
Y602634D01*
X994106D01*
Y602651D01*
X994123D01*
Y602668D01*
X994141D01*
Y602703D01*
X994158D01*
Y602720D01*
X994175D01*
Y602737D01*
X994192D01*
Y602754D01*
X994209D01*
Y602771D01*
X994226D01*
Y602789D01*
X994244D01*
Y602806D01*
X994261D01*
Y602823D01*
X994278D01*
Y602840D01*
X994295D01*
Y602857D01*
X994312D01*
Y602875D01*
X994330D01*
Y602892D01*
X994347D01*
Y602909D01*
X994364D01*
Y602926D01*
X994381D01*
Y602943D01*
X994398D01*
Y602961D01*
X994416D01*
Y602978D01*
X994433D01*
Y602995D01*
X994467D01*
Y603012D01*
X994485D01*
Y603029D01*
X994502D01*
Y603047D01*
X994519D01*
Y603064D01*
X994553D01*
Y603081D01*
X994571D01*
Y603098D01*
X994605D01*
Y603115D01*
X994622D01*
Y603133D01*
X994656D01*
Y603150D01*
X994691D01*
Y603167D01*
X994725D01*
Y603184D01*
X994760D01*
Y603201D01*
X994794D01*
Y603219D01*
X994829D01*
Y603236D01*
X994863D01*
Y603253D01*
X994915D01*
Y603270D01*
X994966D01*
Y603287D01*
X995018D01*
Y603305D01*
X995086D01*
Y603322D01*
X995155D01*
Y603339D01*
X995259D01*
Y603356D01*
X995671D01*
Y603339D01*
D02*
G37*
G36*
X991251Y600518D02*
X993091D01*
Y599779D01*
X990477D01*
Y602582D01*
Y602599D01*
Y605145D01*
X991251D01*
Y600518D01*
D02*
G37*
G36*
X999730Y602599D02*
X999747D01*
Y602634D01*
X999765D01*
Y602651D01*
X999782D01*
Y602668D01*
X999799D01*
Y602703D01*
X999816D01*
Y602720D01*
X999833D01*
Y602737D01*
X999851D01*
Y602771D01*
X999868D01*
Y602789D01*
X999885D01*
Y602806D01*
X999902D01*
Y602823D01*
X999919D01*
Y602840D01*
X999937D01*
Y602857D01*
X999954D01*
Y602892D01*
X999971D01*
Y602909D01*
X999988D01*
Y602926D01*
X1000005D01*
Y602943D01*
X1000040D01*
Y602961D01*
X1000057D01*
Y602978D01*
X1000074D01*
Y602995D01*
X1000091D01*
Y603012D01*
X1000109D01*
Y603029D01*
X1000126D01*
Y603047D01*
X1000160D01*
Y603064D01*
X1000177D01*
Y603081D01*
X1000212D01*
Y603098D01*
X1000229D01*
Y603115D01*
X1000263D01*
Y603133D01*
X1000281D01*
Y603150D01*
X1000315D01*
Y603167D01*
X1000349D01*
Y603184D01*
X1000384D01*
Y603201D01*
X1000418D01*
Y603219D01*
X1000453D01*
Y603236D01*
X1000487D01*
Y603253D01*
X1000539D01*
Y603270D01*
X1000590D01*
Y603287D01*
X1000642D01*
Y603305D01*
X1000710D01*
Y603322D01*
X1000797D01*
Y603339D01*
X1000917D01*
Y603356D01*
X1001347D01*
Y603339D01*
X1001450D01*
Y603322D01*
X1001536D01*
Y603305D01*
X1001605D01*
Y603287D01*
X1001657D01*
Y603270D01*
X1001708D01*
Y603253D01*
X1001760D01*
Y603236D01*
X1001794D01*
Y603219D01*
X1001828D01*
Y603201D01*
X1001880D01*
Y603184D01*
X1001897D01*
Y603167D01*
X1001932D01*
Y603150D01*
X1001966D01*
Y603133D01*
X1002001D01*
Y603115D01*
X1002018D01*
Y603098D01*
X1002052D01*
Y603081D01*
X1002069D01*
Y603064D01*
X1002104D01*
Y603047D01*
X1002121D01*
Y603029D01*
X1002155D01*
Y603012D01*
X1002172D01*
Y602995D01*
X1002190D01*
Y602978D01*
X1002207D01*
Y602961D01*
X1002224D01*
Y602943D01*
X1002258D01*
Y602926D01*
X1002276D01*
Y602909D01*
X1002293D01*
Y602892D01*
X1002310D01*
Y602875D01*
X1002327D01*
Y602857D01*
X1002344D01*
Y602840D01*
X1002362D01*
Y602823D01*
X1002379D01*
Y602806D01*
X1002396D01*
Y602789D01*
X1002413D01*
Y602771D01*
X1002430D01*
Y602754D01*
X1002448D01*
Y602720D01*
X1002465D01*
Y602703D01*
X1002482D01*
Y602685D01*
X1002499D01*
Y602668D01*
X1002516D01*
Y602651D01*
X1002534D01*
Y602617D01*
X1002551D01*
Y602599D01*
X1002568D01*
Y602582D01*
X1002585D01*
Y602548D01*
X1002602D01*
Y602531D01*
X1002620D01*
Y602496D01*
X1002637D01*
Y602462D01*
X1002654D01*
Y602445D01*
X1002671D01*
Y602410D01*
X1002688D01*
Y602376D01*
X1002706D01*
Y602342D01*
X1002723D01*
Y602307D01*
X1002740D01*
Y602273D01*
X1002757D01*
Y602221D01*
X1002774D01*
Y602187D01*
X1002792D01*
Y602135D01*
X1002809D01*
Y602083D01*
X1002826D01*
Y602032D01*
X1002843D01*
Y601963D01*
X1002860D01*
Y601877D01*
X1002878D01*
Y601757D01*
X1002895D01*
Y601292D01*
X1002878D01*
Y601189D01*
X1002860D01*
Y601103D01*
X1002843D01*
Y601034D01*
X1002826D01*
Y600965D01*
X1002809D01*
Y600914D01*
X1002792D01*
Y600862D01*
X1002774D01*
Y600828D01*
X1002757D01*
Y600776D01*
X1002740D01*
Y600742D01*
X1002723D01*
Y600708D01*
X1002706D01*
Y600673D01*
X1002688D01*
Y600639D01*
X1002671D01*
Y600604D01*
X1002654D01*
Y600570D01*
X1002637D01*
Y600553D01*
X1002620D01*
Y600518D01*
X1002602D01*
Y600501D01*
X1002585D01*
Y600467D01*
X1002568D01*
Y600450D01*
X1002551D01*
Y600415D01*
X1002534D01*
Y600398D01*
X1002516D01*
Y600381D01*
X1002499D01*
Y600346D01*
X1002482D01*
Y600329D01*
X1002465D01*
Y600312D01*
X1002448D01*
Y600295D01*
X1002430D01*
Y600278D01*
X1002413D01*
Y600260D01*
X1002396D01*
Y600226D01*
X1002379D01*
Y600209D01*
X1002362D01*
Y600192D01*
X1002344D01*
Y600174D01*
X1002327D01*
Y600157D01*
X1002310D01*
Y600140D01*
X1002293D01*
Y600123D01*
X1002276D01*
Y600106D01*
X1002258D01*
Y600088D01*
X1002224D01*
Y600071D01*
X1002207D01*
Y600054D01*
X1002190D01*
Y600037D01*
X1002172D01*
Y600020D01*
X1002155D01*
Y600002D01*
X1002121D01*
Y599985D01*
X1002104D01*
Y599968D01*
X1002087D01*
Y599951D01*
X1002052D01*
Y599934D01*
X1002035D01*
Y599916D01*
X1002001D01*
Y599899D01*
X1001983D01*
Y599882D01*
X1001949D01*
Y599865D01*
X1001915D01*
Y599848D01*
X1001880D01*
Y599830D01*
X1001846D01*
Y599813D01*
X1001811D01*
Y599796D01*
X1001777D01*
Y599779D01*
X1001725D01*
Y599762D01*
X1001674D01*
Y599744D01*
X1001622D01*
Y599727D01*
X1001571D01*
Y599710D01*
X1001484D01*
Y599693D01*
X1001381D01*
Y599676D01*
X1000986D01*
Y599693D01*
X1000865D01*
Y599710D01*
X1000797D01*
Y599727D01*
X1000728D01*
Y599744D01*
X1000676D01*
Y599762D01*
X1000624D01*
Y599779D01*
X1000573D01*
Y599796D01*
X1000539D01*
Y599813D01*
X1000487D01*
Y599830D01*
X1000453D01*
Y599848D01*
X1000418D01*
Y599865D01*
X1000384D01*
Y599882D01*
X1000349D01*
Y599899D01*
X1000332D01*
Y599916D01*
X1000298D01*
Y599934D01*
X1000263D01*
Y599951D01*
X1000246D01*
Y599968D01*
X1000212D01*
Y599985D01*
X1000195D01*
Y600002D01*
X1000177D01*
Y600020D01*
X1000143D01*
Y600037D01*
X1000126D01*
Y600054D01*
X1000109D01*
Y600071D01*
X1000091D01*
Y600088D01*
X1000057D01*
Y600106D01*
X1000040D01*
Y600123D01*
X1000023D01*
Y600140D01*
X1000005D01*
Y600157D01*
X999988D01*
Y600174D01*
X999971D01*
Y600192D01*
X999954D01*
Y600209D01*
X999937D01*
Y600226D01*
X999919D01*
Y600243D01*
X999902D01*
Y600278D01*
X999885D01*
Y600295D01*
X999868D01*
Y600312D01*
X999851D01*
Y600329D01*
X999833D01*
Y600364D01*
X999816D01*
Y600381D01*
X999799D01*
Y600398D01*
X999782D01*
Y600432D01*
X999765D01*
Y600450D01*
X999747D01*
Y600484D01*
X999730D01*
Y599779D01*
X998956D01*
Y604147D01*
Y604165D01*
Y605248D01*
X999730D01*
Y602599D01*
D02*
G37*
G36*
X1006077Y593054D02*
X1006059D01*
Y592934D01*
X1006042D01*
Y592848D01*
X1006025D01*
Y592762D01*
X1006008D01*
Y592693D01*
X1005991D01*
Y592641D01*
X1005973D01*
Y592590D01*
X1005956D01*
Y592538D01*
X1005939D01*
Y592486D01*
X1005922D01*
Y592452D01*
X1005905D01*
Y592418D01*
X1005887D01*
Y592383D01*
X1005870D01*
Y592332D01*
X1005853D01*
Y592297D01*
X1005836D01*
Y592280D01*
X1005819D01*
Y592246D01*
X1005801D01*
Y592211D01*
X1005784D01*
Y592177D01*
X1005767D01*
Y592160D01*
X1005750D01*
Y592125D01*
X1005733D01*
Y592091D01*
X1005715D01*
Y592074D01*
X1005698D01*
Y592057D01*
X1005681D01*
Y592022D01*
X1005664D01*
Y592005D01*
X1005647D01*
Y591970D01*
X1005629D01*
Y591953D01*
X1005612D01*
Y591936D01*
X1005595D01*
Y591919D01*
X1005578D01*
Y591885D01*
X1005561D01*
Y591867D01*
X1005543D01*
Y591850D01*
X1005526D01*
Y591833D01*
X1005509D01*
Y591816D01*
X1005492D01*
Y591798D01*
X1005475D01*
Y591781D01*
X1005457D01*
Y591764D01*
X1005440D01*
Y591747D01*
X1005423D01*
Y591730D01*
X1005406D01*
Y591713D01*
X1005389D01*
Y591695D01*
X1005371D01*
Y591678D01*
X1005354D01*
Y591661D01*
X1005337D01*
Y591644D01*
X1005320D01*
Y591627D01*
X1005303D01*
Y591609D01*
X1005285D01*
Y591592D01*
X1005268D01*
Y591575D01*
X1005251D01*
Y591558D01*
X1005217D01*
Y591540D01*
X1005200D01*
Y591523D01*
X1005182D01*
Y591506D01*
X1005165D01*
Y591489D01*
X1005131D01*
Y591472D01*
X1005114D01*
Y591455D01*
X1005096D01*
Y591437D01*
X1005062D01*
Y591420D01*
X1005045D01*
Y591403D01*
X1005010D01*
Y591386D01*
X1004993D01*
Y591368D01*
X1004959D01*
Y591351D01*
X1004941D01*
Y591334D01*
X1004907D01*
Y591317D01*
X1004873D01*
Y591300D01*
X1004856D01*
Y591283D01*
X1004821D01*
Y591265D01*
X1004787D01*
Y591248D01*
X1004752D01*
Y591231D01*
X1004718D01*
Y591214D01*
X1004683D01*
Y591196D01*
X1004649D01*
Y591179D01*
X1004615D01*
Y591162D01*
X1004580D01*
Y591145D01*
X1004529D01*
Y591128D01*
X1004494D01*
Y591111D01*
X1004443D01*
Y591093D01*
X1004391D01*
Y591076D01*
X1004340D01*
Y591059D01*
X1004288D01*
Y591042D01*
X1004236D01*
Y591024D01*
X1004167D01*
Y591007D01*
X1004082D01*
Y590990D01*
X1004013D01*
Y590973D01*
X1003909D01*
Y590956D01*
X1003789D01*
Y590939D01*
X1003600D01*
Y590921D01*
X1003067D01*
Y590939D01*
X1002878D01*
Y590956D01*
X1002757D01*
Y590973D01*
X1002654D01*
Y590990D01*
X1002568D01*
Y591007D01*
X1002499D01*
Y591024D01*
X1002430D01*
Y591042D01*
X1002362D01*
Y591059D01*
X1002310D01*
Y591076D01*
X1002258D01*
Y591093D01*
X1002207D01*
Y591111D01*
X1002155D01*
Y591128D01*
X1002121D01*
Y591145D01*
X1002069D01*
Y591162D01*
X1002035D01*
Y591179D01*
X1002001D01*
Y591196D01*
X1001966D01*
Y591214D01*
X1001932D01*
Y591231D01*
X1001897D01*
Y591248D01*
X1001863D01*
Y591265D01*
X1001828D01*
Y591283D01*
X1001794D01*
Y591300D01*
X1001777D01*
Y591317D01*
X1001742D01*
Y591334D01*
X1001708D01*
Y591351D01*
X1001691D01*
Y591368D01*
X1001657D01*
Y591386D01*
X1001639D01*
Y591403D01*
X1001605D01*
Y591420D01*
X1001588D01*
Y591437D01*
X1001571D01*
Y591455D01*
X1001536D01*
Y591472D01*
X1001519D01*
Y591489D01*
X1001502D01*
Y591506D01*
X1001484D01*
Y591523D01*
X1001450D01*
Y591540D01*
X1001433D01*
Y591558D01*
X1001416D01*
Y591575D01*
X1001398D01*
Y591592D01*
X1001381D01*
Y591609D01*
X1001364D01*
Y591627D01*
X1001347D01*
Y591644D01*
X1001330D01*
Y591661D01*
X1001313D01*
Y591678D01*
X1001295D01*
Y591695D01*
X1001278D01*
Y591713D01*
X1001261D01*
Y591730D01*
X1001244D01*
Y591747D01*
X1001227D01*
Y591764D01*
X1001209D01*
Y591781D01*
X1001192D01*
Y591798D01*
X1001175D01*
Y591816D01*
X1001158D01*
Y591850D01*
X1001140D01*
Y591867D01*
X1001123D01*
Y591885D01*
X1001106D01*
Y591902D01*
X1001089D01*
Y591936D01*
X1001072D01*
Y591953D01*
X1001054D01*
Y591988D01*
X1001037D01*
Y592005D01*
X1001020D01*
Y592039D01*
X1001003D01*
Y592057D01*
X1000986D01*
Y592091D01*
X1000968D01*
Y592108D01*
X1000951D01*
Y592142D01*
X1000934D01*
Y592177D01*
X1000917D01*
Y592211D01*
X1000900D01*
Y592246D01*
X1000883D01*
Y592280D01*
X1000865D01*
Y592314D01*
X1000848D01*
Y592349D01*
X1000831D01*
Y592383D01*
X1000814D01*
Y592435D01*
X1000797D01*
Y592469D01*
X1000779D01*
Y592521D01*
X1000762D01*
Y592572D01*
X1000745D01*
Y592624D01*
X1000728D01*
Y592676D01*
X1000710D01*
Y592744D01*
X1000693D01*
Y592813D01*
X1000676D01*
Y592899D01*
X1000659D01*
Y593020D01*
X1000642D01*
Y593157D01*
X1000624D01*
Y593501D01*
Y593518D01*
Y596580D01*
X1002293D01*
Y593794D01*
X1002310D01*
Y593622D01*
X1002327D01*
Y593518D01*
X1002344D01*
Y593450D01*
X1002362D01*
Y593381D01*
X1002379D01*
Y593329D01*
X1002396D01*
Y593295D01*
X1002413D01*
Y593243D01*
X1002430D01*
Y593209D01*
X1002448D01*
Y593157D01*
X1002465D01*
Y593140D01*
X1002482D01*
Y593106D01*
X1002499D01*
Y593071D01*
X1002516D01*
Y593037D01*
X1002534D01*
Y593020D01*
X1002551D01*
Y592985D01*
X1002568D01*
Y592968D01*
X1002585D01*
Y592951D01*
X1002602D01*
Y592916D01*
X1002620D01*
Y592899D01*
X1002637D01*
Y592882D01*
X1002654D01*
Y592865D01*
X1002671D01*
Y592848D01*
X1002688D01*
Y592830D01*
X1002706D01*
Y592813D01*
X1002723D01*
Y592796D01*
X1002740D01*
Y592779D01*
X1002757D01*
Y592762D01*
X1002774D01*
Y592744D01*
X1002792D01*
Y592727D01*
X1002826D01*
Y592710D01*
X1002843D01*
Y592693D01*
X1002860D01*
Y592676D01*
X1002895D01*
Y592658D01*
X1002929D01*
Y592641D01*
X1002964D01*
Y592624D01*
X1002998D01*
Y592607D01*
X1003050D01*
Y592590D01*
X1003118D01*
Y592572D01*
X1003204D01*
Y592555D01*
X1003445D01*
Y592572D01*
X1003548D01*
Y592590D01*
X1003600D01*
Y592607D01*
X1003652D01*
Y592624D01*
X1003703D01*
Y592641D01*
X1003738D01*
Y592658D01*
X1003772D01*
Y592676D01*
X1003806D01*
Y592693D01*
X1003824D01*
Y592710D01*
X1003858D01*
Y592727D01*
X1003875D01*
Y592744D01*
X1003909D01*
Y592762D01*
X1003927D01*
Y592779D01*
X1003944D01*
Y592796D01*
X1003961D01*
Y592813D01*
X1003978D01*
Y592830D01*
X1003996D01*
Y592848D01*
X1004013D01*
Y592865D01*
X1004030D01*
Y592882D01*
X1004047D01*
Y592899D01*
X1004064D01*
Y592916D01*
X1004082D01*
Y592934D01*
X1004099D01*
Y592951D01*
X1004116D01*
Y592968D01*
X1004133D01*
Y593002D01*
X1004150D01*
Y593020D01*
X1004167D01*
Y593054D01*
X1004185D01*
Y593071D01*
X1004202D01*
Y593106D01*
X1004219D01*
Y593140D01*
X1004236D01*
Y593157D01*
X1004253D01*
Y593192D01*
X1004271D01*
Y593243D01*
X1004288D01*
Y593278D01*
X1004305D01*
Y593329D01*
X1004322D01*
Y593381D01*
X1004340D01*
Y593432D01*
X1004357D01*
Y593501D01*
X1004374D01*
Y593604D01*
X1004391D01*
Y593759D01*
X1004408D01*
Y596580D01*
X1006077D01*
Y593054D01*
D02*
G37*
G36*
X988241Y595840D02*
X988258D01*
Y595857D01*
X988276D01*
Y595892D01*
X988293D01*
Y595909D01*
X988310D01*
Y595926D01*
X988327D01*
Y595943D01*
X988344D01*
Y595961D01*
X988362D01*
Y595978D01*
X988379D01*
Y595995D01*
X988396D01*
Y596012D01*
X988413D01*
Y596029D01*
X988431D01*
Y596047D01*
X988448D01*
Y596064D01*
X988465D01*
Y596081D01*
X988482D01*
Y596098D01*
X988499D01*
Y596115D01*
X988516D01*
Y596133D01*
X988534D01*
Y596150D01*
X988568D01*
Y596167D01*
X988585D01*
Y596184D01*
X988602D01*
Y596201D01*
X988620D01*
Y596219D01*
X988637D01*
Y596236D01*
X988671D01*
Y596253D01*
X988688D01*
Y596270D01*
X988706D01*
Y596287D01*
X988740D01*
Y596305D01*
X988757D01*
Y596322D01*
X988792D01*
Y596339D01*
X988809D01*
Y596356D01*
X988843D01*
Y596373D01*
X988860D01*
Y596391D01*
X988895D01*
Y596408D01*
X988929D01*
Y596425D01*
X988946D01*
Y596442D01*
X988981D01*
Y596459D01*
X989015D01*
Y596477D01*
X989050D01*
Y596494D01*
X989084D01*
Y596511D01*
X989118D01*
Y596528D01*
X989170D01*
Y596545D01*
X989204D01*
Y596563D01*
X989256D01*
Y596580D01*
X989308D01*
Y596597D01*
X989359D01*
Y596614D01*
X989428D01*
Y596631D01*
X989497D01*
Y596649D01*
X989583D01*
Y596666D01*
X989720D01*
Y596683D01*
X990116D01*
Y596666D01*
X990254D01*
Y596649D01*
X990357D01*
Y596631D01*
X990425D01*
Y596614D01*
X990494D01*
Y596597D01*
X990546D01*
Y596580D01*
X990598D01*
Y596563D01*
X990649D01*
Y596545D01*
X990701D01*
Y596528D01*
X990735D01*
Y596511D01*
X990769D01*
Y596494D01*
X990804D01*
Y596477D01*
X990838D01*
Y596459D01*
X990873D01*
Y596442D01*
X990907D01*
Y596425D01*
X990942D01*
Y596408D01*
X990976D01*
Y596391D01*
X990993D01*
Y596373D01*
X991028D01*
Y596356D01*
X991062D01*
Y596339D01*
X991079D01*
Y596322D01*
X991113D01*
Y596305D01*
X991131D01*
Y596287D01*
X991148D01*
Y596270D01*
X991182D01*
Y596253D01*
X991199D01*
Y596236D01*
X991217D01*
Y596219D01*
X991251D01*
Y596201D01*
X991268D01*
Y596184D01*
X991286D01*
Y596167D01*
X991303D01*
Y596150D01*
X991320D01*
Y596133D01*
X991354D01*
Y596115D01*
X991372D01*
Y596098D01*
X991389D01*
Y596081D01*
X991406D01*
Y596064D01*
X991423D01*
Y596047D01*
X991440D01*
Y596029D01*
X991457D01*
Y596012D01*
X991475D01*
Y595995D01*
X991492D01*
Y595978D01*
X991509D01*
Y595961D01*
X991526D01*
Y595943D01*
X991543D01*
Y595926D01*
X991561D01*
Y595909D01*
X991578D01*
Y595892D01*
X991595D01*
Y595857D01*
X991612D01*
Y595840D01*
X991630D01*
Y595823D01*
X991647D01*
Y595806D01*
X991664D01*
Y595789D01*
X991681D01*
Y595754D01*
X991698D01*
Y595737D01*
X991716D01*
Y595720D01*
X991733D01*
Y595703D01*
X991750D01*
Y595668D01*
X991767D01*
Y595651D01*
X991784D01*
Y595617D01*
X991801D01*
Y595599D01*
X991819D01*
Y595582D01*
X991836D01*
Y595548D01*
X991853D01*
Y595531D01*
X991870D01*
Y595496D01*
X991887D01*
Y595479D01*
X991905D01*
Y595445D01*
X991922D01*
Y595410D01*
X991939D01*
Y595393D01*
X991956D01*
Y595359D01*
X991973D01*
Y595324D01*
X991991D01*
Y595290D01*
X992008D01*
Y595256D01*
X992025D01*
Y595221D01*
X992042D01*
Y595187D01*
X992059D01*
Y595152D01*
X992077D01*
Y595118D01*
X992094D01*
Y595084D01*
X992111D01*
Y595032D01*
X992128D01*
Y594998D01*
X992145D01*
Y594946D01*
X992163D01*
Y594911D01*
X992180D01*
Y594860D01*
X992197D01*
Y594808D01*
X992214D01*
Y594757D01*
X992231D01*
Y594688D01*
X992249D01*
Y594619D01*
X992266D01*
Y594550D01*
X992283D01*
Y594482D01*
X992300D01*
Y594378D01*
X992317D01*
Y594275D01*
X992335D01*
Y594137D01*
X992352D01*
Y593415D01*
X992335D01*
Y593260D01*
X992317D01*
Y593157D01*
X992300D01*
Y593071D01*
X992283D01*
Y593002D01*
X992266D01*
Y592934D01*
X992249D01*
Y592865D01*
X992231D01*
Y592813D01*
X992214D01*
Y592762D01*
X992197D01*
Y592710D01*
X992180D01*
Y592658D01*
X992163D01*
Y592607D01*
X992145D01*
Y592572D01*
X992128D01*
Y592538D01*
X992111D01*
Y592486D01*
X992094D01*
Y592452D01*
X992077D01*
Y592418D01*
X992059D01*
Y592383D01*
X992042D01*
Y592349D01*
X992025D01*
Y592314D01*
X992008D01*
Y592280D01*
X991991D01*
Y592246D01*
X991973D01*
Y592228D01*
X991956D01*
Y592194D01*
X991939D01*
Y592160D01*
X991922D01*
Y592142D01*
X991905D01*
Y592108D01*
X991887D01*
Y592074D01*
X991870D01*
Y592057D01*
X991853D01*
Y592022D01*
X991836D01*
Y592005D01*
X991819D01*
Y591988D01*
X991801D01*
Y591953D01*
X991784D01*
Y591936D01*
X991767D01*
Y591902D01*
X991750D01*
Y591885D01*
X991733D01*
Y591867D01*
X991716D01*
Y591850D01*
X991698D01*
Y591816D01*
X991681D01*
Y591798D01*
X991664D01*
Y591781D01*
X991647D01*
Y591764D01*
X991630D01*
Y591747D01*
X991612D01*
Y591713D01*
X991595D01*
Y591695D01*
X991578D01*
Y591678D01*
X991561D01*
Y591661D01*
X991543D01*
Y591644D01*
X991526D01*
Y591627D01*
X991509D01*
Y591609D01*
X991492D01*
Y591592D01*
X991475D01*
Y591575D01*
X991457D01*
Y591558D01*
X991440D01*
Y591540D01*
X991423D01*
Y591523D01*
X991406D01*
Y591506D01*
X991389D01*
Y591489D01*
X991372D01*
Y591472D01*
X991354D01*
Y591455D01*
X991337D01*
Y591437D01*
X991303D01*
Y591420D01*
X991286D01*
Y591403D01*
X991268D01*
Y591386D01*
X991251D01*
Y591368D01*
X991234D01*
Y591351D01*
X991199D01*
Y591334D01*
X991182D01*
Y591317D01*
X991165D01*
Y591300D01*
X991131D01*
Y591283D01*
X991113D01*
Y591265D01*
X991079D01*
Y591248D01*
X991062D01*
Y591231D01*
X991028D01*
Y591214D01*
X991010D01*
Y591196D01*
X990976D01*
Y591179D01*
X990942D01*
Y591162D01*
X990907D01*
Y591145D01*
X990873D01*
Y591128D01*
X990838D01*
Y591111D01*
X990804D01*
Y591093D01*
X990769D01*
Y591076D01*
X990735D01*
Y591059D01*
X990683D01*
Y591042D01*
X990649D01*
Y591024D01*
X990598D01*
Y591007D01*
X990546D01*
Y590990D01*
X990477D01*
Y590973D01*
X990408D01*
Y590956D01*
X990305D01*
Y590939D01*
X990168D01*
Y590921D01*
X989789D01*
Y590939D01*
X989669D01*
Y590956D01*
X989583D01*
Y590973D01*
X989514D01*
Y590990D01*
X989445D01*
Y591007D01*
X989394D01*
Y591024D01*
X989342D01*
Y591042D01*
X989308D01*
Y591059D01*
X989273D01*
Y591076D01*
X989239D01*
Y591093D01*
X989204D01*
Y591111D01*
X989170D01*
Y591128D01*
X989136D01*
Y591145D01*
X989101D01*
Y591162D01*
X989067D01*
Y591179D01*
X989050D01*
Y591196D01*
X989015D01*
Y591214D01*
X988998D01*
Y591231D01*
X988964D01*
Y591248D01*
X988946D01*
Y591265D01*
X988912D01*
Y591283D01*
X988895D01*
Y591300D01*
X988860D01*
Y591317D01*
X988843D01*
Y591334D01*
X988826D01*
Y591351D01*
X988809D01*
Y591368D01*
X988774D01*
Y591386D01*
X988757D01*
Y591403D01*
X988740D01*
Y591420D01*
X988723D01*
Y591437D01*
X988688D01*
Y591455D01*
X988671D01*
Y591472D01*
X988654D01*
Y591489D01*
X988637D01*
Y591506D01*
X988620D01*
Y591523D01*
X988602D01*
Y591540D01*
X988585D01*
Y591558D01*
X988568D01*
Y591575D01*
X988551D01*
Y591592D01*
X988534D01*
Y591609D01*
X988499D01*
Y591627D01*
X988482D01*
Y591644D01*
X988465D01*
Y591661D01*
X988448D01*
Y591678D01*
X988431D01*
Y591695D01*
X988413D01*
Y591713D01*
X988396D01*
Y591730D01*
X988379D01*
Y591747D01*
X988362D01*
Y591764D01*
X988344D01*
Y591798D01*
X988327D01*
Y591816D01*
X988310D01*
Y591833D01*
X988293D01*
Y591850D01*
X988276D01*
Y591867D01*
X988258D01*
Y591885D01*
X988241D01*
Y591902D01*
X988224D01*
Y591024D01*
X986573D01*
Y599641D01*
X988241D01*
Y595840D01*
D02*
G37*
G36*
X996617Y596683D02*
X996789D01*
Y596666D01*
X996910D01*
Y596649D01*
X996996D01*
Y596631D01*
X997082D01*
Y596614D01*
X997150D01*
Y596597D01*
X997202D01*
Y596580D01*
X997271D01*
Y596563D01*
X997322D01*
Y596545D01*
X997374D01*
Y596528D01*
X997408D01*
Y596511D01*
X997460D01*
Y596494D01*
X997494D01*
Y596477D01*
X997529D01*
Y596459D01*
X997580D01*
Y596442D01*
X997615D01*
Y596425D01*
X997649D01*
Y596408D01*
X997684D01*
Y596391D01*
X997718D01*
Y596373D01*
X997735D01*
Y596356D01*
X997770D01*
Y596339D01*
X997804D01*
Y596322D01*
X997838D01*
Y596305D01*
X997855D01*
Y596287D01*
X997890D01*
Y596270D01*
X997907D01*
Y596253D01*
X997941D01*
Y596236D01*
X997959D01*
Y596219D01*
X997993D01*
Y596201D01*
X998010D01*
Y596184D01*
X998028D01*
Y596167D01*
X998062D01*
Y596150D01*
X998079D01*
Y596133D01*
X998096D01*
Y596115D01*
X998131D01*
Y596098D01*
X998148D01*
Y596081D01*
X998165D01*
Y596064D01*
X998182D01*
Y596047D01*
X998199D01*
Y596029D01*
X998234D01*
Y596012D01*
X998251D01*
Y595995D01*
X998268D01*
Y595978D01*
X998285D01*
Y595961D01*
X998303D01*
Y595943D01*
X998320D01*
Y595926D01*
X998337D01*
Y595909D01*
X998354D01*
Y595892D01*
X998372D01*
Y595875D01*
X998389D01*
Y595857D01*
X998406D01*
Y595840D01*
X998423D01*
Y595823D01*
X998440D01*
Y595806D01*
X998458D01*
Y595789D01*
X998475D01*
Y595771D01*
X998492D01*
Y595737D01*
X998509D01*
Y595720D01*
X998526D01*
Y595703D01*
X998543D01*
Y595685D01*
X998561D01*
Y595668D01*
X998578D01*
Y595634D01*
X998595D01*
Y595617D01*
X998612D01*
Y595599D01*
X998629D01*
Y595565D01*
X998647D01*
Y595548D01*
X998664D01*
Y595531D01*
X998681D01*
Y595496D01*
X998698D01*
Y595479D01*
X998715D01*
Y595445D01*
X998733D01*
Y595428D01*
X998750D01*
Y595393D01*
X998767D01*
Y595376D01*
X998784D01*
Y595341D01*
X998801D01*
Y595307D01*
X998819D01*
Y595290D01*
X998836D01*
Y595256D01*
X998853D01*
Y595221D01*
X998870D01*
Y595187D01*
X998887D01*
Y595152D01*
X998905D01*
Y595118D01*
X998922D01*
Y595084D01*
X998939D01*
Y595049D01*
X998956D01*
Y594998D01*
X998973D01*
Y594963D01*
X998991D01*
Y594911D01*
X999008D01*
Y594877D01*
X999025D01*
Y594826D01*
X999042D01*
Y594774D01*
X999059D01*
Y594722D01*
X999077D01*
Y594654D01*
X999094D01*
Y594585D01*
X999111D01*
Y594516D01*
X999128D01*
Y594430D01*
X999145D01*
Y594327D01*
X999163D01*
Y594189D01*
X999180D01*
Y593931D01*
X999197D01*
Y593690D01*
X999180D01*
Y593432D01*
X999163D01*
Y593295D01*
X999145D01*
Y593192D01*
X999128D01*
Y593106D01*
X999111D01*
Y593020D01*
X999094D01*
Y592951D01*
X999077D01*
Y592899D01*
X999059D01*
Y592830D01*
X999042D01*
Y592779D01*
X999025D01*
Y592727D01*
X999008D01*
Y592693D01*
X998991D01*
Y592641D01*
X998973D01*
Y592607D01*
X998956D01*
Y592555D01*
X998939D01*
Y592521D01*
X998922D01*
Y592486D01*
X998905D01*
Y592452D01*
X998887D01*
Y592418D01*
X998870D01*
Y592383D01*
X998853D01*
Y592349D01*
X998836D01*
Y592314D01*
X998819D01*
Y592297D01*
X998801D01*
Y592263D01*
X998784D01*
Y592228D01*
X998767D01*
Y592211D01*
X998750D01*
Y592177D01*
X998733D01*
Y592160D01*
X998715D01*
Y592125D01*
X998698D01*
Y592108D01*
X998681D01*
Y592074D01*
X998664D01*
Y592057D01*
X998647D01*
Y592022D01*
X998629D01*
Y592005D01*
X998612D01*
Y591988D01*
X998595D01*
Y591953D01*
X998578D01*
Y591936D01*
X998561D01*
Y591919D01*
X998543D01*
Y591902D01*
X998526D01*
Y591885D01*
X998509D01*
Y591850D01*
X998492D01*
Y591833D01*
X998475D01*
Y591816D01*
X998458D01*
Y591798D01*
X998440D01*
Y591781D01*
X998423D01*
Y591764D01*
X998406D01*
Y591747D01*
X998389D01*
Y591730D01*
X998372D01*
Y591713D01*
X998354D01*
Y591695D01*
X998337D01*
Y591678D01*
X998320D01*
Y591661D01*
X998303D01*
Y591644D01*
X998285D01*
Y591627D01*
X998268D01*
Y591609D01*
X998251D01*
Y591592D01*
X998234D01*
Y591575D01*
X998217D01*
Y591558D01*
X998182D01*
Y591540D01*
X998165D01*
Y591523D01*
X998148D01*
Y591506D01*
X998131D01*
Y591489D01*
X998114D01*
Y591472D01*
X998079D01*
Y591455D01*
X998062D01*
Y591437D01*
X998045D01*
Y591420D01*
X998010D01*
Y591403D01*
X997993D01*
Y591386D01*
X997959D01*
Y591368D01*
X997941D01*
Y591351D01*
X997907D01*
Y591334D01*
X997890D01*
Y591317D01*
X997855D01*
Y591300D01*
X997838D01*
Y591283D01*
X997804D01*
Y591265D01*
X997770D01*
Y591248D01*
X997735D01*
Y591231D01*
X997718D01*
Y591214D01*
X997684D01*
Y591196D01*
X997649D01*
Y591179D01*
X997615D01*
Y591162D01*
X997563D01*
Y591145D01*
X997529D01*
Y591128D01*
X997494D01*
Y591111D01*
X997443D01*
Y591093D01*
X997408D01*
Y591076D01*
X997357D01*
Y591059D01*
X997305D01*
Y591042D01*
X997254D01*
Y591024D01*
X997202D01*
Y591007D01*
X997133D01*
Y590990D01*
X997064D01*
Y590973D01*
X996978D01*
Y590956D01*
X996892D01*
Y590939D01*
X996772D01*
Y590921D01*
X996600D01*
Y590904D01*
X996067D01*
Y590921D01*
X995878D01*
Y590939D01*
X995757D01*
Y590956D01*
X995654D01*
Y590973D01*
X995568D01*
Y590990D01*
X995499D01*
Y591007D01*
X995430D01*
Y591024D01*
X995379D01*
Y591042D01*
X995310D01*
Y591059D01*
X995259D01*
Y591076D01*
X995224D01*
Y591093D01*
X995173D01*
Y591111D01*
X995138D01*
Y591128D01*
X995086D01*
Y591145D01*
X995052D01*
Y591162D01*
X995018D01*
Y591179D01*
X994983D01*
Y591196D01*
X994949D01*
Y591214D01*
X994915D01*
Y591231D01*
X994880D01*
Y591248D01*
X994846D01*
Y591265D01*
X994811D01*
Y591283D01*
X994794D01*
Y591300D01*
X994760D01*
Y591317D01*
X994725D01*
Y591334D01*
X994708D01*
Y591351D01*
X994674D01*
Y591368D01*
X994656D01*
Y591386D01*
X994622D01*
Y591403D01*
X994605D01*
Y591420D01*
X994588D01*
Y591437D01*
X994553D01*
Y591455D01*
X994536D01*
Y591472D01*
X994519D01*
Y591489D01*
X994502D01*
Y591506D01*
X994467D01*
Y591523D01*
X994450D01*
Y591540D01*
X994433D01*
Y591558D01*
X994416D01*
Y591575D01*
X994398D01*
Y591592D01*
X994381D01*
Y591609D01*
X994364D01*
Y591627D01*
X994347D01*
Y591644D01*
X994330D01*
Y591661D01*
X994312D01*
Y591678D01*
X994295D01*
Y591695D01*
X994278D01*
Y591713D01*
X994261D01*
Y591730D01*
X994244D01*
Y591747D01*
X994226D01*
Y591764D01*
X994209D01*
Y591781D01*
X994192D01*
Y591816D01*
X994175D01*
Y591833D01*
X994158D01*
Y591850D01*
X994141D01*
Y591867D01*
X994123D01*
Y591885D01*
X994106D01*
Y591919D01*
X994089D01*
Y591936D01*
X994072D01*
Y591953D01*
X994055D01*
Y591988D01*
X994037D01*
Y592005D01*
X994020D01*
Y592022D01*
X994003D01*
Y592057D01*
X993986D01*
Y592074D01*
X993968D01*
Y592108D01*
X993951D01*
Y592125D01*
X993934D01*
Y592160D01*
X993917D01*
Y592177D01*
X993900D01*
Y592211D01*
X993882D01*
Y592228D01*
X993865D01*
Y592263D01*
X993848D01*
Y592297D01*
X993831D01*
Y592332D01*
X993814D01*
Y592349D01*
X993797D01*
Y592383D01*
X993779D01*
Y592418D01*
X993762D01*
Y592452D01*
X993745D01*
Y592486D01*
X993728D01*
Y592521D01*
X993711D01*
Y592555D01*
X993693D01*
Y592607D01*
X993676D01*
Y592641D01*
X993659D01*
Y592676D01*
X993642D01*
Y592727D01*
X993625D01*
Y592779D01*
X993607D01*
Y592830D01*
X993590D01*
Y592882D01*
X993573D01*
Y592934D01*
X993556D01*
Y593002D01*
X993539D01*
Y593071D01*
X993521D01*
Y593140D01*
X993504D01*
Y593226D01*
X993487D01*
Y593346D01*
X993470D01*
Y593501D01*
X993453D01*
Y594103D01*
X993470D01*
Y594258D01*
X993487D01*
Y594378D01*
X993504D01*
Y594482D01*
X993521D01*
Y594550D01*
X993539D01*
Y594636D01*
X993556D01*
Y594688D01*
X993573D01*
Y594757D01*
X993590D01*
Y594808D01*
X993607D01*
Y594860D01*
X993625D01*
Y594911D01*
X993642D01*
Y594946D01*
X993659D01*
Y594998D01*
X993676D01*
Y595032D01*
X993693D01*
Y595066D01*
X993711D01*
Y595118D01*
X993728D01*
Y595152D01*
X993745D01*
Y595187D01*
X993762D01*
Y595221D01*
X993779D01*
Y595256D01*
X993797D01*
Y595273D01*
X993814D01*
Y595307D01*
X993831D01*
Y595341D01*
X993848D01*
Y595376D01*
X993865D01*
Y595393D01*
X993882D01*
Y595428D01*
X993900D01*
Y595445D01*
X993917D01*
Y595479D01*
X993934D01*
Y595496D01*
X993951D01*
Y595531D01*
X993968D01*
Y595548D01*
X993986D01*
Y595582D01*
X994003D01*
Y595599D01*
X994020D01*
Y595617D01*
X994037D01*
Y595634D01*
X994055D01*
Y595668D01*
X994072D01*
Y595685D01*
X994089D01*
Y595703D01*
X994106D01*
Y595720D01*
X994123D01*
Y595737D01*
X994141D01*
Y595771D01*
X994158D01*
Y595789D01*
X994175D01*
Y595806D01*
X994192D01*
Y595823D01*
X994209D01*
Y595840D01*
X994226D01*
Y595857D01*
X994244D01*
Y595875D01*
X994261D01*
Y595892D01*
X994278D01*
Y595909D01*
X994295D01*
Y595926D01*
X994312D01*
Y595943D01*
X994330D01*
Y595961D01*
X994347D01*
Y595978D01*
X994364D01*
Y595995D01*
X994398D01*
Y596012D01*
X994416D01*
Y596029D01*
X994433D01*
Y596047D01*
X994450D01*
Y596064D01*
X994467D01*
Y596081D01*
X994485D01*
Y596098D01*
X994519D01*
Y596115D01*
X994536D01*
Y596133D01*
X994553D01*
Y596150D01*
X994588D01*
Y596167D01*
X994605D01*
Y596184D01*
X994639D01*
Y596201D01*
X994656D01*
Y596219D01*
X994674D01*
Y596236D01*
X994708D01*
Y596253D01*
X994742D01*
Y596270D01*
X994760D01*
Y596287D01*
X994794D01*
Y596305D01*
X994811D01*
Y596322D01*
X994846D01*
Y596339D01*
X994880D01*
Y596356D01*
X994915D01*
Y596373D01*
X994949D01*
Y596391D01*
X994983D01*
Y596408D01*
X995018D01*
Y596425D01*
X995052D01*
Y596442D01*
X995086D01*
Y596459D01*
X995121D01*
Y596477D01*
X995173D01*
Y596494D01*
X995207D01*
Y596511D01*
X995259D01*
Y596528D01*
X995310D01*
Y596545D01*
X995362D01*
Y596563D01*
X995413D01*
Y596580D01*
X995482D01*
Y596597D01*
X995551D01*
Y596614D01*
X995620D01*
Y596631D01*
X995706D01*
Y596649D01*
X995792D01*
Y596666D01*
X995929D01*
Y596683D01*
X996101D01*
Y596700D01*
X996617D01*
Y596683D01*
D02*
G37*
G36*
X1022669Y603470D02*
X1022632D01*
X1022595Y603479D01*
X1022549D01*
X1022438Y603488D01*
X1022271D01*
X1022216Y603479D01*
X1022151Y603470D01*
X1022077Y603461D01*
X1021994Y603442D01*
X1021901Y603424D01*
X1021698Y603359D01*
X1021587Y603313D01*
X1021476Y603257D01*
X1021365Y603193D01*
X1021254Y603128D01*
X1021152Y603035D01*
X1021041Y602943D01*
X1021032Y602934D01*
X1021013Y602915D01*
X1020986Y602887D01*
X1020958Y602850D01*
X1020912Y602795D01*
X1020865Y602730D01*
X1020819Y602656D01*
X1020764Y602573D01*
X1020662Y602388D01*
X1020569Y602166D01*
X1020542Y602045D01*
X1020514Y601916D01*
X1020495Y601787D01*
X1020486Y601648D01*
Y601639D01*
Y601611D01*
Y601574D01*
X1020495Y601518D01*
X1020505Y601453D01*
X1020514Y601379D01*
X1020532Y601296D01*
X1020560Y601204D01*
X1020625Y600991D01*
X1020671Y600889D01*
X1020717Y600778D01*
X1020782Y600658D01*
X1020856Y600547D01*
X1020939Y600445D01*
X1021041Y600334D01*
X1021050Y600325D01*
X1021069Y600307D01*
X1021097Y600288D01*
X1021143Y600251D01*
X1021189Y600205D01*
X1021254Y600159D01*
X1021328Y600112D01*
X1021411Y600066D01*
X1021605Y599964D01*
X1021827Y599872D01*
X1021948Y599835D01*
X1022077Y599816D01*
X1022207Y599798D01*
X1022345Y599789D01*
X1022438D01*
X1022484Y599798D01*
X1022549D01*
X1022688Y599816D01*
Y598567D01*
X1022669D01*
X1022604Y598558D01*
X1022530Y598549D01*
X1022456Y598540D01*
X1022262D01*
X1022197Y598549D01*
X1022105Y598558D01*
X1021994Y598567D01*
X1021874Y598586D01*
X1021726Y598614D01*
X1021568Y598651D01*
X1021402Y598697D01*
X1021226Y598762D01*
X1021050Y598836D01*
X1020865Y598919D01*
X1020671Y599030D01*
X1020486Y599150D01*
X1020301Y599289D01*
X1020125Y599446D01*
X1020116Y599455D01*
X1020088Y599493D01*
X1020042Y599539D01*
X1019977Y599613D01*
X1019913Y599696D01*
X1019829Y599807D01*
X1019746Y599927D01*
X1019663Y600066D01*
X1019570Y600214D01*
X1019487Y600381D01*
X1019404Y600565D01*
X1019339Y600760D01*
X1019274Y600963D01*
X1019228Y601176D01*
X1019200Y601407D01*
X1019191Y601639D01*
Y601657D01*
Y601694D01*
X1019200Y601759D01*
X1019210Y601851D01*
X1019219Y601962D01*
X1019237Y602092D01*
X1019265Y602240D01*
X1019311Y602397D01*
X1019358Y602563D01*
X1019422Y602739D01*
X1019496Y602924D01*
X1019589Y603109D01*
X1019691Y603294D01*
X1019820Y603479D01*
X1019959Y603664D01*
X1020125Y603840D01*
X1020135Y603849D01*
X1020172Y603877D01*
X1020218Y603923D01*
X1020292Y603988D01*
X1020384Y604053D01*
X1020486Y604136D01*
X1020616Y604219D01*
X1020754Y604312D01*
X1020902Y604395D01*
X1021078Y604478D01*
X1021254Y604562D01*
X1021448Y604626D01*
X1021652Y604691D01*
X1021864Y604737D01*
X1022096Y604765D01*
X1022327Y604774D01*
X1022669D01*
Y603470D01*
D02*
G37*
G36*
X1018682Y598558D02*
X1017397D01*
Y601028D01*
X1015963D01*
Y598558D01*
X1014640D01*
Y604793D01*
X1015963D01*
Y602295D01*
X1017397D01*
Y604793D01*
X1018682D01*
Y598558D01*
D02*
G37*
G36*
X1037506Y600565D02*
Y600556D01*
Y600528D01*
Y600482D01*
X1037497Y600427D01*
X1037488Y600353D01*
X1037469Y600270D01*
X1037451Y600168D01*
X1037423Y600066D01*
X1037395Y599955D01*
X1037349Y599844D01*
X1037303Y599724D01*
X1037238Y599604D01*
X1037164Y599483D01*
X1037081Y599363D01*
X1036979Y599243D01*
X1036868Y599132D01*
X1036859Y599122D01*
X1036840Y599104D01*
X1036803Y599076D01*
X1036757Y599039D01*
X1036692Y599002D01*
X1036618Y598947D01*
X1036535Y598901D01*
X1036442Y598845D01*
X1036331Y598790D01*
X1036220Y598743D01*
X1035961Y598651D01*
X1035813Y598614D01*
X1035665Y598586D01*
X1035517Y598567D01*
X1035351Y598558D01*
X1035268D01*
X1035212Y598567D01*
X1035138Y598577D01*
X1035055Y598586D01*
X1034962Y598604D01*
X1034861Y598632D01*
X1034639Y598706D01*
X1034518Y598752D01*
X1034398Y598808D01*
X1034278Y598873D01*
X1034158Y598956D01*
X1034037Y599049D01*
X1033926Y599150D01*
X1033917Y599159D01*
X1033899Y599178D01*
X1033871Y599215D01*
X1033834Y599261D01*
X1033788Y599317D01*
X1033741Y599381D01*
X1033686Y599465D01*
X1033640Y599557D01*
X1033584Y599659D01*
X1033529Y599770D01*
X1033436Y600010D01*
X1033399Y600149D01*
X1033371Y600288D01*
X1033353Y600436D01*
X1033344Y600593D01*
Y604793D01*
X1034629D01*
Y600556D01*
Y600538D01*
Y600501D01*
X1034639Y600445D01*
X1034657Y600371D01*
X1034685Y600279D01*
X1034722Y600196D01*
X1034777Y600103D01*
X1034851Y600020D01*
X1034861Y600010D01*
X1034888Y599983D01*
X1034944Y599955D01*
X1035009Y599918D01*
X1035083Y599872D01*
X1035175Y599844D01*
X1035277Y599816D01*
X1035388Y599807D01*
X1035443D01*
X1035517Y599816D01*
X1035601Y599835D01*
X1035693Y599862D01*
X1035795Y599899D01*
X1035897Y599946D01*
X1035998Y600020D01*
X1036008Y600029D01*
X1036035Y600057D01*
X1036082Y600103D01*
X1036128Y600168D01*
X1036174Y600251D01*
X1036220Y600344D01*
X1036248Y600445D01*
X1036257Y600565D01*
Y604793D01*
X1037506D01*
Y600565D01*
D02*
G37*
G36*
X1027572D02*
Y600556D01*
Y600528D01*
Y600482D01*
X1027562Y600427D01*
X1027553Y600353D01*
X1027535Y600270D01*
X1027516Y600168D01*
X1027488Y600066D01*
X1027461Y599955D01*
X1027414Y599844D01*
X1027368Y599724D01*
X1027303Y599604D01*
X1027229Y599483D01*
X1027146Y599363D01*
X1027044Y599243D01*
X1026933Y599132D01*
X1026924Y599122D01*
X1026906Y599104D01*
X1026869Y599076D01*
X1026822Y599039D01*
X1026758Y599002D01*
X1026684Y598947D01*
X1026600Y598901D01*
X1026508Y598845D01*
X1026397Y598790D01*
X1026286Y598743D01*
X1026027Y598651D01*
X1025879Y598614D01*
X1025731Y598586D01*
X1025583Y598567D01*
X1025416Y598558D01*
X1025333D01*
X1025278Y598567D01*
X1025204Y598577D01*
X1025120Y598586D01*
X1025028Y598604D01*
X1024926Y598632D01*
X1024704Y598706D01*
X1024584Y598752D01*
X1024464Y598808D01*
X1024343Y598873D01*
X1024223Y598956D01*
X1024103Y599049D01*
X1023992Y599150D01*
X1023983Y599159D01*
X1023964Y599178D01*
X1023936Y599215D01*
X1023899Y599261D01*
X1023853Y599317D01*
X1023807Y599381D01*
X1023751Y599465D01*
X1023705Y599557D01*
X1023650Y599659D01*
X1023594Y599770D01*
X1023502Y600010D01*
X1023465Y600149D01*
X1023437Y600288D01*
X1023418Y600436D01*
X1023409Y600593D01*
Y604793D01*
X1024695D01*
Y600556D01*
Y600538D01*
Y600501D01*
X1024704Y600445D01*
X1024723Y600371D01*
X1024750Y600279D01*
X1024787Y600196D01*
X1024843Y600103D01*
X1024917Y600020D01*
X1024926Y600010D01*
X1024954Y599983D01*
X1025009Y599955D01*
X1025074Y599918D01*
X1025148Y599872D01*
X1025241Y599844D01*
X1025342Y599816D01*
X1025453Y599807D01*
X1025509D01*
X1025583Y599816D01*
X1025666Y599835D01*
X1025759Y599862D01*
X1025860Y599899D01*
X1025962Y599946D01*
X1026064Y600020D01*
X1026073Y600029D01*
X1026101Y600057D01*
X1026147Y600103D01*
X1026193Y600168D01*
X1026240Y600251D01*
X1026286Y600344D01*
X1026314Y600445D01*
X1026323Y600565D01*
Y604793D01*
X1027572D01*
Y600565D01*
D02*
G37*
G36*
X1042270Y604765D02*
X1042344Y604756D01*
X1042427Y604746D01*
X1042529Y604728D01*
X1042631Y604700D01*
X1042862Y604635D01*
X1042991Y604589D01*
X1043121Y604534D01*
X1043241Y604469D01*
X1043371Y604386D01*
X1043500Y604303D01*
X1043620Y604201D01*
X1043630Y604191D01*
X1043648Y604173D01*
X1043676Y604145D01*
X1043722Y604099D01*
X1043768Y604043D01*
X1043824Y603979D01*
X1043879Y603896D01*
X1043944Y603812D01*
X1044000Y603711D01*
X1044055Y603609D01*
X1044157Y603368D01*
X1044203Y603230D01*
X1044231Y603091D01*
X1044249Y602952D01*
X1044259Y602795D01*
Y598558D01*
X1043001Y598558D01*
Y602739D01*
Y602758D01*
Y602795D01*
X1042991Y602859D01*
X1042973Y602943D01*
X1042936Y603035D01*
X1042890Y603128D01*
X1042825Y603230D01*
X1042742Y603322D01*
X1042732Y603331D01*
X1042695Y603359D01*
X1042649Y603405D01*
X1042575Y603451D01*
X1042492Y603488D01*
X1042390Y603535D01*
X1042270Y603562D01*
X1042150Y603572D01*
X1042094D01*
X1042020Y603562D01*
X1041937Y603535D01*
X1041844Y603507D01*
X1041743Y603461D01*
X1041641Y603396D01*
X1041539Y603303D01*
X1041530Y603294D01*
X1041502Y603257D01*
X1041465Y603202D01*
X1041419Y603119D01*
X1041373Y603026D01*
X1041336Y602915D01*
X1041308Y602795D01*
X1041299Y602656D01*
Y598558D01*
X1040078D01*
Y602785D01*
Y602795D01*
Y602822D01*
Y602869D01*
X1040087Y602924D01*
X1040096Y602998D01*
X1040105Y603082D01*
X1040124Y603174D01*
X1040152Y603276D01*
X1040226Y603498D01*
X1040272Y603609D01*
X1040327Y603729D01*
X1040401Y603849D01*
X1040485Y603969D01*
X1040577Y604080D01*
X1040679Y604191D01*
X1040688Y604201D01*
X1040707Y604219D01*
X1040744Y604247D01*
X1040790Y604284D01*
X1040845Y604330D01*
X1040919Y604377D01*
X1040993Y604432D01*
X1041086Y604488D01*
X1041188Y604534D01*
X1041299Y604589D01*
X1041548Y604682D01*
X1041678Y604719D01*
X1041817Y604746D01*
X1041965Y604765D01*
X1042122Y604774D01*
X1042205D01*
X1042270Y604765D01*
D02*
G37*
G36*
X1029523Y604774D02*
X1029616D01*
X1029736Y604756D01*
X1029866Y604737D01*
X1030014Y604709D01*
X1030180Y604672D01*
X1030356Y604626D01*
X1030541Y604562D01*
X1030726Y604497D01*
X1030920Y604404D01*
X1031114Y604303D01*
X1031309Y604182D01*
X1031494Y604043D01*
X1031679Y603886D01*
X1031688Y603877D01*
X1031725Y603849D01*
X1031771Y603794D01*
X1031827Y603729D01*
X1031901Y603637D01*
X1031984Y603535D01*
X1032067Y603414D01*
X1032160Y603276D01*
X1032252Y603119D01*
X1032335Y602952D01*
X1032419Y602776D01*
X1032493Y602582D01*
X1032548Y602369D01*
X1032604Y602156D01*
X1032631Y601925D01*
X1032641Y601685D01*
Y601666D01*
Y601629D01*
X1032631Y601565D01*
Y601472D01*
X1032613Y601361D01*
X1032594Y601231D01*
X1032567Y601093D01*
X1032530Y600936D01*
X1032483Y600769D01*
X1032428Y600593D01*
X1032354Y600408D01*
X1032271Y600223D01*
X1032178Y600038D01*
X1032058Y599844D01*
X1031928Y599659D01*
X1031771Y599483D01*
X1031762Y599474D01*
X1031734Y599446D01*
X1031679Y599400D01*
X1031614Y599335D01*
X1031531Y599270D01*
X1031429Y599187D01*
X1031309Y599104D01*
X1031179Y599021D01*
X1031031Y598938D01*
X1030874Y598854D01*
X1030698Y598771D01*
X1030504Y598706D01*
X1030310Y598641D01*
X1030097Y598595D01*
X1029875Y598567D01*
X1029644Y598558D01*
X1028210D01*
Y604783D01*
X1029449D01*
X1029523Y604774D01*
D02*
G37*
G36*
X1048088Y604728D02*
X1048190Y604719D01*
X1048319Y604709D01*
X1048458Y604682D01*
X1048625Y604654D01*
X1048791Y604617D01*
X1048976Y604562D01*
X1049170Y604497D01*
X1049365Y604423D01*
X1049559Y604321D01*
X1049753Y604210D01*
X1049938Y604080D01*
X1050123Y603933D01*
X1050290Y603757D01*
X1050299Y603748D01*
X1050327Y603720D01*
X1050364Y603664D01*
X1050410Y603600D01*
X1050475Y603516D01*
X1050539Y603405D01*
X1050613Y603294D01*
X1050687Y603156D01*
X1050752Y603008D01*
X1050826Y602841D01*
X1050891Y602665D01*
X1050956Y602480D01*
X1051002Y602277D01*
X1051039Y602064D01*
X1051067Y601842D01*
X1051076Y601611D01*
Y601592D01*
Y601555D01*
X1051067Y601490D01*
Y601398D01*
X1051048Y601296D01*
X1051039Y601167D01*
X1051011Y601028D01*
X1050974Y600871D01*
X1050937Y600704D01*
X1050882Y600538D01*
X1050817Y600362D01*
X1050743Y600177D01*
X1050650Y600001D01*
X1050549Y599816D01*
X1050428Y599641D01*
X1050290Y599474D01*
X1050280Y599465D01*
X1050253Y599437D01*
X1050197Y599381D01*
X1050132Y599326D01*
X1050049Y599252D01*
X1049938Y599169D01*
X1049818Y599076D01*
X1049679Y598993D01*
X1049513Y598901D01*
X1049337Y598808D01*
X1049152Y598725D01*
X1048939Y598651D01*
X1048717Y598595D01*
X1048477Y598549D01*
X1048218Y598512D01*
X1047949Y598503D01*
X1047885D01*
X1047811Y598512D01*
X1047709Y598521D01*
X1047579Y598530D01*
X1047441Y598558D01*
X1047283Y598586D01*
X1047108Y598623D01*
X1046923Y598678D01*
X1046738Y598743D01*
X1046543Y598817D01*
X1046349Y598910D01*
X1046155Y599021D01*
X1045970Y599150D01*
X1045785Y599307D01*
X1045618Y599474D01*
X1045609Y599483D01*
X1045581Y599511D01*
X1045544Y599567D01*
X1045498Y599631D01*
X1045443Y599715D01*
X1045378Y599816D01*
X1045304Y599936D01*
X1045239Y600075D01*
X1045165Y600223D01*
X1045091Y600390D01*
X1045026Y600565D01*
X1044971Y600750D01*
X1044925Y600954D01*
X1044888Y601167D01*
X1044860Y601398D01*
X1044851Y601629D01*
Y601648D01*
Y601685D01*
X1044860Y601750D01*
Y601842D01*
X1044878Y601944D01*
X1044888Y602073D01*
X1044915Y602212D01*
X1044943Y602369D01*
X1044989Y602527D01*
X1045036Y602702D01*
X1045100Y602878D01*
X1045174Y603054D01*
X1045267Y603239D01*
X1045369Y603414D01*
X1045480Y603590D01*
X1045618Y603757D01*
X1045628Y603766D01*
X1045655Y603803D01*
X1045711Y603849D01*
X1045776Y603914D01*
X1045859Y603988D01*
X1045970Y604071D01*
X1046090Y604154D01*
X1046229Y604247D01*
X1046395Y604340D01*
X1046562Y604423D01*
X1046756Y604506D01*
X1046969Y604580D01*
X1047191Y604645D01*
X1047431Y604691D01*
X1047681Y604728D01*
X1047949Y604737D01*
X1048014D01*
X1048088Y604728D01*
D02*
G37*
G36*
X1039430Y598503D02*
X1038135D01*
Y604746D01*
X1039430D01*
Y598503D01*
D02*
G37*
G36*
X1025592Y590931D02*
X1023233Y597212D01*
X1024528D01*
X1025527Y594437D01*
X1026480Y597212D01*
X1027766D01*
X1025592Y590931D01*
D02*
G37*
G36*
X1030772Y594399D02*
X1030846Y594381D01*
X1030920Y594362D01*
X1030994Y594325D01*
X1031059Y594279D01*
X1031114Y594214D01*
X1031133Y594205D01*
X1031179Y594168D01*
X1031235Y594113D01*
X1031309Y594039D01*
X1031383Y593946D01*
X1031438Y593845D01*
X1031484Y593715D01*
X1031503Y593585D01*
Y593567D01*
Y593530D01*
X1031494Y593465D01*
X1031475Y593391D01*
X1031447Y593308D01*
X1031410Y593216D01*
X1031364Y593132D01*
X1031290Y593058D01*
X1031281Y593049D01*
X1031253Y593031D01*
X1031207Y593003D01*
X1031151Y592966D01*
X1031068Y592929D01*
X1030985Y592901D01*
X1030892Y592882D01*
X1030781Y592873D01*
X1030726D01*
X1030670Y592882D01*
X1030606Y592901D01*
X1030532Y592919D01*
X1030458Y592947D01*
X1030393Y592993D01*
X1030337Y593058D01*
X1030319Y593068D01*
X1030282Y593105D01*
X1030217Y593160D01*
X1030152Y593234D01*
X1030078Y593317D01*
X1030014Y593428D01*
X1029977Y593548D01*
X1029958Y593687D01*
Y593706D01*
Y593743D01*
X1029967Y593808D01*
X1029986Y593882D01*
X1030004Y593965D01*
X1030041Y594057D01*
X1030097Y594140D01*
X1030162Y594214D01*
X1030171Y594224D01*
X1030199Y594242D01*
X1030245Y594279D01*
X1030300Y594316D01*
X1030374Y594344D01*
X1030467Y594381D01*
X1030559Y594399D01*
X1030661Y594409D01*
X1030717D01*
X1030772Y594399D01*
D02*
G37*
G36*
X1075209Y595981D02*
X1073498D01*
Y595223D01*
X1073609D01*
X1073683Y595214D01*
X1073757D01*
X1073849Y595204D01*
X1074025Y595167D01*
X1074034D01*
X1074044Y595158D01*
X1074071D01*
X1074108Y595149D01*
X1074201Y595112D01*
X1074312Y595065D01*
X1074451Y595001D01*
X1074599Y594917D01*
X1074765Y594816D01*
X1074922Y594696D01*
X1074932D01*
X1074941Y594677D01*
X1074987Y594631D01*
X1075061Y594566D01*
X1075154Y594464D01*
X1075255Y594344D01*
X1075357Y594205D01*
X1075459Y594048D01*
X1075542Y593882D01*
X1075551Y593863D01*
X1075570Y593817D01*
X1075598Y593743D01*
X1075635Y593641D01*
X1075662Y593530D01*
X1075690Y593410D01*
X1075709Y593280D01*
X1075718Y593151D01*
Y593142D01*
Y593123D01*
Y593095D01*
Y593058D01*
X1075709Y592956D01*
X1075690Y592827D01*
X1075662Y592679D01*
X1075625Y592522D01*
X1075579Y592355D01*
X1075505Y592189D01*
X1075496Y592170D01*
X1075468Y592115D01*
X1075413Y592041D01*
X1075348Y591939D01*
X1075255Y591819D01*
X1075135Y591689D01*
X1075006Y591550D01*
X1074848Y591412D01*
X1074839Y591402D01*
X1074802Y591375D01*
X1074747Y591338D01*
X1074673Y591292D01*
X1074580Y591236D01*
X1074469Y591181D01*
X1074349Y591134D01*
X1074219Y591088D01*
X1074201D01*
X1074155Y591070D01*
X1074090Y591060D01*
X1073997Y591042D01*
X1073886Y591023D01*
X1073757Y591014D01*
X1073489Y590996D01*
X1073424D01*
X1073350Y591005D01*
X1073257Y591014D01*
X1073146Y591033D01*
X1073017Y591060D01*
X1072878Y591097D01*
X1072730Y591153D01*
X1072721D01*
X1072712Y591162D01*
X1072684Y591181D01*
X1072638Y591199D01*
X1072591Y591227D01*
X1072536Y591255D01*
X1072462Y591292D01*
X1072379Y591338D01*
Y592568D01*
X1072397Y592559D01*
X1072434Y592540D01*
X1072490Y592513D01*
X1072564Y592476D01*
X1072721Y592392D01*
X1072804Y592346D01*
X1072869Y592309D01*
X1072887Y592300D01*
X1072924Y592281D01*
X1072989Y592253D01*
X1073072Y592216D01*
X1073165Y592179D01*
X1073267Y592152D01*
X1073378Y592133D01*
X1073489Y592124D01*
X1073507D01*
X1073553Y592133D01*
X1073627Y592142D01*
X1073711Y592161D01*
X1073822Y592198D01*
X1073933Y592244D01*
X1074044Y592318D01*
X1074155Y592411D01*
X1074164Y592420D01*
X1074201Y592466D01*
X1074247Y592522D01*
X1074303Y592605D01*
X1074349Y592707D01*
X1074395Y592818D01*
X1074432Y592956D01*
X1074441Y593095D01*
Y593105D01*
Y593132D01*
Y593160D01*
X1074432Y593179D01*
Y593197D01*
X1074423Y593243D01*
X1074404Y593308D01*
X1074377Y593391D01*
X1074340Y593484D01*
X1074293Y593576D01*
X1074229Y593669D01*
X1074145Y593761D01*
X1074136Y593771D01*
X1074099Y593798D01*
X1074053Y593835D01*
X1073979Y593882D01*
X1073886Y593928D01*
X1073775Y593974D01*
X1073655Y594020D01*
X1073516Y594048D01*
X1073507D01*
X1073489Y594057D01*
X1073461D01*
X1073424Y594066D01*
X1073368D01*
X1073313Y594076D01*
X1073026D01*
X1072952Y594066D01*
X1072869D01*
X1072776Y594057D01*
X1072675Y594048D01*
X1072564D01*
X1072508Y594039D01*
X1072443D01*
X1072360Y594030D01*
Y597230D01*
X1075209D01*
Y595981D01*
D02*
G37*
G36*
X1037913Y592587D02*
X1037987Y592568D01*
X1038061Y592550D01*
X1038135Y592513D01*
X1038200Y592466D01*
X1038255Y592402D01*
X1038274Y592392D01*
X1038320Y592355D01*
X1038376Y592300D01*
X1038450Y592226D01*
X1038524Y592133D01*
X1038579Y592031D01*
X1038625Y591902D01*
X1038644Y591773D01*
Y591754D01*
Y591717D01*
X1038635Y591652D01*
X1038616Y591578D01*
X1038588Y591495D01*
X1038551Y591402D01*
X1038505Y591319D01*
X1038431Y591245D01*
X1038422Y591236D01*
X1038394Y591218D01*
X1038348Y591190D01*
X1038292Y591153D01*
X1038209Y591116D01*
X1038126Y591088D01*
X1038033Y591070D01*
X1037922Y591060D01*
X1037867D01*
X1037811Y591070D01*
X1037747Y591088D01*
X1037673Y591107D01*
X1037599Y591134D01*
X1037534Y591181D01*
X1037478Y591245D01*
X1037460Y591255D01*
X1037423Y591292D01*
X1037358Y591347D01*
X1037293Y591421D01*
X1037219Y591504D01*
X1037155Y591615D01*
X1037118Y591736D01*
X1037099Y591874D01*
Y591893D01*
Y591930D01*
X1037108Y591994D01*
X1037127Y592068D01*
X1037145Y592152D01*
X1037182Y592244D01*
X1037238Y592327D01*
X1037303Y592402D01*
X1037312Y592411D01*
X1037340Y592429D01*
X1037386Y592466D01*
X1037441Y592503D01*
X1037515Y592531D01*
X1037608Y592568D01*
X1037700Y592587D01*
X1037802Y592596D01*
X1037858D01*
X1037913Y592587D01*
D02*
G37*
G36*
X1030772D02*
X1030846Y592568D01*
X1030920Y592550D01*
X1030994Y592513D01*
X1031059Y592466D01*
X1031114Y592402D01*
X1031133Y592392D01*
X1031179Y592355D01*
X1031235Y592300D01*
X1031309Y592226D01*
X1031383Y592133D01*
X1031438Y592031D01*
X1031484Y591902D01*
X1031503Y591773D01*
Y591754D01*
Y591717D01*
X1031494Y591652D01*
X1031475Y591578D01*
X1031447Y591495D01*
X1031410Y591402D01*
X1031364Y591319D01*
X1031290Y591245D01*
X1031281Y591236D01*
X1031253Y591218D01*
X1031207Y591190D01*
X1031151Y591153D01*
X1031068Y591116D01*
X1030985Y591088D01*
X1030892Y591070D01*
X1030781Y591060D01*
X1030726D01*
X1030670Y591070D01*
X1030606Y591088D01*
X1030532Y591107D01*
X1030458Y591134D01*
X1030393Y591181D01*
X1030337Y591245D01*
X1030319Y591255D01*
X1030282Y591292D01*
X1030217Y591347D01*
X1030152Y591421D01*
X1030078Y591504D01*
X1030014Y591615D01*
X1029977Y591736D01*
X1029958Y591874D01*
Y591893D01*
Y591930D01*
X1029967Y591994D01*
X1029986Y592068D01*
X1030004Y592152D01*
X1030041Y592244D01*
X1030097Y592327D01*
X1030162Y592402D01*
X1030171Y592411D01*
X1030199Y592429D01*
X1030245Y592466D01*
X1030300Y592503D01*
X1030374Y592531D01*
X1030467Y592568D01*
X1030559Y592587D01*
X1030661Y592596D01*
X1030717D01*
X1030772Y592587D01*
D02*
G37*
G36*
X1028941D02*
X1029015Y592568D01*
X1029089Y592550D01*
X1029163Y592513D01*
X1029227Y592466D01*
X1029283Y592402D01*
X1029301Y592392D01*
X1029348Y592355D01*
X1029403Y592300D01*
X1029477Y592226D01*
X1029551Y592133D01*
X1029607Y592031D01*
X1029653Y591902D01*
X1029671Y591773D01*
Y591754D01*
Y591717D01*
X1029662Y591652D01*
X1029644Y591578D01*
X1029616Y591495D01*
X1029579Y591402D01*
X1029533Y591319D01*
X1029459Y591245D01*
X1029449Y591236D01*
X1029422Y591218D01*
X1029375Y591190D01*
X1029320Y591153D01*
X1029237Y591116D01*
X1029153Y591088D01*
X1029061Y591070D01*
X1028950Y591060D01*
X1028894D01*
X1028839Y591070D01*
X1028774Y591088D01*
X1028700Y591107D01*
X1028626Y591134D01*
X1028561Y591181D01*
X1028506Y591245D01*
X1028487Y591255D01*
X1028450Y591292D01*
X1028386Y591347D01*
X1028321Y591421D01*
X1028247Y591504D01*
X1028182Y591615D01*
X1028145Y591736D01*
X1028127Y591874D01*
Y591893D01*
Y591930D01*
X1028136Y591994D01*
X1028154Y592068D01*
X1028173Y592152D01*
X1028210Y592244D01*
X1028265Y592327D01*
X1028330Y592402D01*
X1028339Y592411D01*
X1028367Y592429D01*
X1028413Y592466D01*
X1028469Y592503D01*
X1028543Y592531D01*
X1028635Y592568D01*
X1028728Y592587D01*
X1028830Y592596D01*
X1028885D01*
X1028941Y592587D01*
D02*
G37*
G36*
X1016777Y597249D02*
X1016851Y597239D01*
X1016934Y597221D01*
X1017027Y597202D01*
X1017128Y597175D01*
X1017230Y597137D01*
X1017341Y597091D01*
X1017461Y597036D01*
X1017582Y596971D01*
X1017693Y596897D01*
X1017813Y596805D01*
X1017924Y596703D01*
X1018035Y596583D01*
X1018044Y596573D01*
X1018053Y596555D01*
X1018081Y596527D01*
X1018118Y596481D01*
X1018155Y596425D01*
X1018192Y596360D01*
X1018294Y596203D01*
X1018386Y596018D01*
X1018460Y595806D01*
X1018525Y595574D01*
X1018534Y595454D01*
X1018544Y595334D01*
Y595325D01*
Y595306D01*
Y595269D01*
X1018534Y595214D01*
Y595158D01*
X1018525Y595084D01*
X1018497Y594927D01*
X1018460Y594742D01*
X1018396Y594538D01*
X1018303Y594335D01*
X1018183Y594140D01*
Y594131D01*
X1018164Y594122D01*
X1018146Y594094D01*
X1018118Y594057D01*
X1018035Y593974D01*
X1017924Y593872D01*
X1017794Y593752D01*
X1017628Y593641D01*
X1017434Y593548D01*
X1017221Y593465D01*
X1018710Y591014D01*
X1017258D01*
X1015898Y593299D01*
Y591014D01*
X1014640D01*
Y597258D01*
X1016721D01*
X1016777Y597249D01*
D02*
G37*
G36*
X1069853Y597230D02*
X1069890D01*
X1070001Y597212D01*
X1070131Y597184D01*
X1070288Y597137D01*
X1070445Y597091D01*
X1070612Y597026D01*
X1070760Y596952D01*
X1070778Y596943D01*
X1070825Y596915D01*
X1070899Y596860D01*
X1070991Y596795D01*
X1071093Y596703D01*
X1071204Y596601D01*
X1071315Y596472D01*
X1071426Y596323D01*
X1071435Y596305D01*
X1071463Y596268D01*
X1071500Y596203D01*
X1071546Y596120D01*
X1071592Y596028D01*
X1071639Y595926D01*
X1071685Y595815D01*
X1071722Y595713D01*
Y595704D01*
X1071731Y595667D01*
X1071750Y595611D01*
X1071768Y595537D01*
X1071777Y595435D01*
X1071796Y595334D01*
X1071805Y595204D01*
Y595075D01*
Y595065D01*
Y595028D01*
X1071796Y594973D01*
X1071787Y594899D01*
X1071768Y594816D01*
X1071750Y594723D01*
X1071713Y594622D01*
X1071666Y594511D01*
Y594501D01*
X1071648Y594483D01*
X1071639Y594446D01*
X1071602Y594399D01*
X1071565Y594325D01*
X1071509Y594224D01*
X1071435Y594094D01*
Y594085D01*
X1071417Y594066D01*
X1071398Y594039D01*
X1071380Y593993D01*
X1071343Y593937D01*
X1071306Y593882D01*
X1071222Y593734D01*
X1071111Y593576D01*
X1071000Y593410D01*
X1070871Y593243D01*
X1070741Y593086D01*
Y593077D01*
X1070723Y593058D01*
X1070704Y593031D01*
X1070686Y592993D01*
X1070612Y592901D01*
X1070529Y592781D01*
X1070427Y592642D01*
X1070316Y592503D01*
X1070196Y592365D01*
X1070075Y592244D01*
X1071676D01*
Y590996D01*
X1067846D01*
X1070492Y594927D01*
Y594936D01*
X1070501Y594945D01*
X1070529Y595001D01*
X1070556Y595084D01*
X1070566Y595186D01*
Y595195D01*
Y595232D01*
X1070556Y595288D01*
X1070538Y595362D01*
X1070510Y595445D01*
X1070473Y595537D01*
X1070418Y595639D01*
X1070344Y595741D01*
X1070334Y595750D01*
X1070307Y595787D01*
X1070260Y595833D01*
X1070205Y595889D01*
X1070140Y595944D01*
X1070057Y595991D01*
X1069974Y596037D01*
X1069881Y596065D01*
X1069872D01*
X1069844Y596074D01*
X1069770Y596083D01*
X1069761D01*
X1069742Y596092D01*
X1069613D01*
X1069567Y596083D01*
X1069511Y596074D01*
X1069437Y596065D01*
X1069363Y596046D01*
X1069280Y596009D01*
X1069206Y595972D01*
X1069197Y595963D01*
X1069178Y595954D01*
X1069141Y595926D01*
X1069095Y595889D01*
X1069049Y595833D01*
X1068993Y595768D01*
X1068938Y595694D01*
X1068891Y595602D01*
X1068882Y595583D01*
X1068864Y595537D01*
X1068845Y595472D01*
X1068817Y595380D01*
Y595371D01*
Y595362D01*
X1068808Y595306D01*
X1068799Y595223D01*
X1068790Y595140D01*
Y595130D01*
Y595093D01*
X1068799Y595038D01*
X1068808Y594973D01*
X1068817Y594890D01*
X1068845Y594797D01*
X1068873Y594705D01*
X1068919Y594612D01*
X1068928Y594594D01*
X1068956Y594548D01*
X1069012Y594474D01*
X1069086Y594362D01*
X1068355Y593659D01*
X1068346Y593669D01*
X1068327Y593678D01*
X1068272Y593734D01*
X1068207Y593798D01*
X1068179Y593826D01*
X1068161Y593845D01*
X1068151Y593854D01*
X1068114Y593891D01*
X1068068Y593928D01*
X1068022Y593993D01*
X1067902Y594122D01*
X1067855Y594187D01*
X1067818Y594242D01*
Y594251D01*
X1067809Y594261D01*
X1067791Y594288D01*
X1067781Y594325D01*
X1067735Y594418D01*
X1067689Y594538D01*
X1067643Y594686D01*
X1067596Y594843D01*
X1067569Y595019D01*
X1067559Y595195D01*
Y595204D01*
Y595214D01*
Y595241D01*
X1067569Y595278D01*
X1067578Y595380D01*
X1067596Y595500D01*
X1067633Y595648D01*
X1067680Y595815D01*
X1067754Y595991D01*
X1067846Y596166D01*
Y596175D01*
X1067855Y596185D01*
X1067892Y596231D01*
X1067939Y596305D01*
X1068003Y596397D01*
X1068077Y596490D01*
X1068151Y596592D01*
X1068235Y596684D01*
X1068309Y596768D01*
X1068318Y596777D01*
X1068346Y596805D01*
X1068392Y596841D01*
X1068447Y596888D01*
X1068521Y596943D01*
X1068614Y596999D01*
X1068716Y597054D01*
X1068836Y597110D01*
X1068854Y597119D01*
X1068891Y597128D01*
X1068956Y597147D01*
X1069049Y597175D01*
X1069150Y597202D01*
X1069261Y597221D01*
X1069382Y597230D01*
X1069511Y597239D01*
X1069826D01*
X1069853Y597230D01*
D02*
G37*
G36*
X1058319D02*
X1058356D01*
X1058467Y597212D01*
X1058596Y597184D01*
X1058753Y597137D01*
X1058911Y597091D01*
X1059077Y597026D01*
X1059225Y596952D01*
X1059244Y596943D01*
X1059290Y596915D01*
X1059364Y596860D01*
X1059456Y596795D01*
X1059558Y596703D01*
X1059669Y596601D01*
X1059780Y596472D01*
X1059891Y596323D01*
X1059900Y596305D01*
X1059928Y596268D01*
X1059965Y596203D01*
X1060011Y596120D01*
X1060058Y596028D01*
X1060104Y595926D01*
X1060150Y595815D01*
X1060187Y595713D01*
Y595704D01*
X1060196Y595667D01*
X1060215Y595611D01*
X1060233Y595537D01*
X1060243Y595435D01*
X1060261Y595334D01*
X1060270Y595204D01*
Y595075D01*
Y595065D01*
Y595028D01*
X1060261Y594973D01*
X1060252Y594899D01*
X1060233Y594816D01*
X1060215Y594723D01*
X1060178Y594622D01*
X1060132Y594511D01*
Y594501D01*
X1060113Y594483D01*
X1060104Y594446D01*
X1060067Y594399D01*
X1060030Y594325D01*
X1059974Y594224D01*
X1059900Y594094D01*
Y594085D01*
X1059882Y594066D01*
X1059863Y594039D01*
X1059845Y593993D01*
X1059808Y593937D01*
X1059771Y593882D01*
X1059688Y593734D01*
X1059577Y593576D01*
X1059466Y593410D01*
X1059336Y593243D01*
X1059207Y593086D01*
Y593077D01*
X1059188Y593058D01*
X1059170Y593031D01*
X1059151Y592993D01*
X1059077Y592901D01*
X1058994Y592781D01*
X1058892Y592642D01*
X1058781Y592503D01*
X1058661Y592365D01*
X1058541Y592244D01*
X1060141D01*
Y590996D01*
X1056311D01*
X1058957Y594927D01*
Y594936D01*
X1058966Y594945D01*
X1058994Y595001D01*
X1059022Y595084D01*
X1059031Y595186D01*
Y595195D01*
Y595232D01*
X1059022Y595288D01*
X1059003Y595362D01*
X1058975Y595445D01*
X1058938Y595537D01*
X1058883Y595639D01*
X1058809Y595741D01*
X1058800Y595750D01*
X1058772Y595787D01*
X1058726Y595833D01*
X1058670Y595889D01*
X1058605Y595944D01*
X1058522Y595991D01*
X1058439Y596037D01*
X1058346Y596065D01*
X1058337D01*
X1058309Y596074D01*
X1058235Y596083D01*
X1058226D01*
X1058208Y596092D01*
X1058078D01*
X1058032Y596083D01*
X1057976Y596074D01*
X1057902Y596065D01*
X1057828Y596046D01*
X1057745Y596009D01*
X1057671Y595972D01*
X1057662Y595963D01*
X1057643Y595954D01*
X1057606Y595926D01*
X1057560Y595889D01*
X1057514Y595833D01*
X1057458Y595768D01*
X1057403Y595694D01*
X1057357Y595602D01*
X1057347Y595583D01*
X1057329Y595537D01*
X1057310Y595472D01*
X1057283Y595380D01*
Y595371D01*
Y595362D01*
X1057273Y595306D01*
X1057264Y595223D01*
X1057255Y595140D01*
Y595130D01*
Y595093D01*
X1057264Y595038D01*
X1057273Y594973D01*
X1057283Y594890D01*
X1057310Y594797D01*
X1057338Y594705D01*
X1057384Y594612D01*
X1057394Y594594D01*
X1057421Y594548D01*
X1057477Y594474D01*
X1057551Y594362D01*
X1056820Y593659D01*
X1056811Y593669D01*
X1056792Y593678D01*
X1056737Y593734D01*
X1056672Y593798D01*
X1056644Y593826D01*
X1056626Y593845D01*
X1056617Y593854D01*
X1056580Y593891D01*
X1056533Y593928D01*
X1056487Y593993D01*
X1056367Y594122D01*
X1056321Y594187D01*
X1056284Y594242D01*
Y594251D01*
X1056274Y594261D01*
X1056256Y594288D01*
X1056247Y594325D01*
X1056200Y594418D01*
X1056154Y594538D01*
X1056108Y594686D01*
X1056062Y594843D01*
X1056034Y595019D01*
X1056025Y595195D01*
Y595204D01*
Y595214D01*
Y595241D01*
X1056034Y595278D01*
X1056043Y595380D01*
X1056062Y595500D01*
X1056099Y595648D01*
X1056145Y595815D01*
X1056219Y595991D01*
X1056311Y596166D01*
Y596175D01*
X1056321Y596185D01*
X1056358Y596231D01*
X1056404Y596305D01*
X1056469Y596397D01*
X1056543Y596490D01*
X1056617Y596592D01*
X1056700Y596684D01*
X1056774Y596768D01*
X1056783Y596777D01*
X1056811Y596805D01*
X1056857Y596841D01*
X1056913Y596888D01*
X1056987Y596943D01*
X1057079Y596999D01*
X1057181Y597054D01*
X1057301Y597110D01*
X1057320Y597119D01*
X1057357Y597128D01*
X1057421Y597147D01*
X1057514Y597175D01*
X1057616Y597202D01*
X1057727Y597221D01*
X1057847Y597230D01*
X1057976Y597239D01*
X1058291D01*
X1058319Y597230D01*
D02*
G37*
G36*
X1049957Y591005D02*
X1049494Y590996D01*
X1051770Y597221D01*
X1052232Y597230D01*
X1049957Y591005D01*
D02*
G37*
G36*
X1036646Y590996D02*
X1035397D01*
Y597230D01*
X1036646D01*
Y590996D01*
D02*
G37*
G36*
X1022669Y595954D02*
X1020995D01*
X1020912Y595935D01*
X1020828Y595917D01*
X1020810Y595907D01*
X1020773Y595889D01*
X1020708Y595861D01*
X1020653Y595806D01*
X1020643Y595796D01*
X1020634Y595778D01*
X1020606Y595750D01*
X1020588Y595713D01*
X1020560Y595657D01*
X1020532Y595602D01*
X1020523Y595537D01*
X1020514Y595463D01*
Y594686D01*
X1022651D01*
Y593484D01*
X1020514D01*
Y592808D01*
Y592799D01*
Y592781D01*
Y592744D01*
Y592707D01*
Y592614D01*
X1020523Y592577D01*
Y592540D01*
Y592531D01*
X1020542Y592494D01*
X1020569Y592448D01*
X1020606Y592383D01*
X1020616Y592374D01*
X1020634Y592355D01*
X1020662Y592337D01*
X1020699Y592309D01*
X1020754Y592272D01*
X1020810Y592253D01*
X1020875Y592235D01*
X1020949Y592226D01*
X1022669D01*
Y590977D01*
X1021069D01*
X1020976Y590986D01*
X1020865Y590996D01*
X1020736Y591005D01*
X1020606Y591033D01*
X1020468Y591060D01*
X1020338Y591107D01*
X1020320Y591116D01*
X1020283Y591134D01*
X1020218Y591162D01*
X1020135Y591218D01*
X1020042Y591273D01*
X1019940Y591356D01*
X1019820Y591458D01*
X1019709Y591569D01*
X1019700Y591578D01*
X1019672Y591615D01*
X1019626Y591671D01*
X1019570Y591736D01*
X1019515Y591819D01*
X1019450Y591902D01*
X1019395Y592004D01*
X1019348Y592096D01*
Y592105D01*
X1019330Y592142D01*
X1019311Y592198D01*
X1019293Y592272D01*
X1019274Y592365D01*
X1019256Y592476D01*
X1019247Y592587D01*
X1019237Y592716D01*
Y595546D01*
Y595565D01*
Y595602D01*
X1019247Y595667D01*
X1019256Y595750D01*
X1019265Y595843D01*
X1019284Y595944D01*
X1019311Y596046D01*
X1019348Y596138D01*
X1019358Y596148D01*
X1019367Y596185D01*
X1019395Y596231D01*
X1019432Y596296D01*
X1019487Y596379D01*
X1019552Y596462D01*
X1019626Y596555D01*
X1019709Y596657D01*
X1019718Y596666D01*
X1019755Y596703D01*
X1019811Y596749D01*
X1019876Y596814D01*
X1019959Y596878D01*
X1020051Y596943D01*
X1020153Y597008D01*
X1020255Y597063D01*
X1020264Y597073D01*
X1020301Y597082D01*
X1020347Y597110D01*
X1020412Y597137D01*
X1020495Y597156D01*
X1020597Y597184D01*
X1020708Y597193D01*
X1020838Y597202D01*
X1022669D01*
Y595954D01*
D02*
G37*
G36*
X1064035Y597165D02*
X1064137Y597156D01*
X1064266Y597147D01*
X1064405Y597119D01*
X1064572Y597091D01*
X1064738Y597054D01*
X1064923Y596999D01*
X1065117Y596934D01*
X1065312Y596860D01*
X1065506Y596758D01*
X1065700Y596647D01*
X1065885Y596518D01*
X1066070Y596370D01*
X1066237Y596194D01*
X1066246Y596185D01*
X1066274Y596157D01*
X1066311Y596102D01*
X1066357Y596037D01*
X1066422Y595954D01*
X1066486Y595843D01*
X1066560Y595731D01*
X1066634Y595593D01*
X1066699Y595445D01*
X1066773Y595278D01*
X1066838Y595103D01*
X1066903Y594917D01*
X1066949Y594714D01*
X1066986Y594501D01*
X1067014Y594279D01*
X1067023Y594048D01*
Y594030D01*
Y593993D01*
X1067014Y593928D01*
Y593835D01*
X1066995Y593734D01*
X1066986Y593604D01*
X1066958Y593465D01*
X1066921Y593308D01*
X1066884Y593142D01*
X1066829Y592975D01*
X1066764Y592799D01*
X1066690Y592614D01*
X1066597Y592439D01*
X1066496Y592253D01*
X1066375Y592078D01*
X1066237Y591911D01*
X1066227Y591902D01*
X1066200Y591874D01*
X1066144Y591819D01*
X1066079Y591763D01*
X1065996Y591689D01*
X1065885Y591606D01*
X1065765Y591513D01*
X1065626Y591430D01*
X1065460Y591338D01*
X1065284Y591245D01*
X1065099Y591162D01*
X1064886Y591088D01*
X1064664Y591033D01*
X1064424Y590986D01*
X1064165Y590949D01*
X1063896Y590940D01*
X1063832D01*
X1063758Y590949D01*
X1063656Y590958D01*
X1063526Y590968D01*
X1063388Y590996D01*
X1063230Y591023D01*
X1063055Y591060D01*
X1062870Y591116D01*
X1062685Y591181D01*
X1062490Y591255D01*
X1062296Y591347D01*
X1062102Y591458D01*
X1061917Y591587D01*
X1061732Y591745D01*
X1061565Y591911D01*
X1061556Y591921D01*
X1061528Y591948D01*
X1061491Y592004D01*
X1061445Y592068D01*
X1061390Y592152D01*
X1061325Y592253D01*
X1061251Y592374D01*
X1061186Y592513D01*
X1061112Y592661D01*
X1061038Y592827D01*
X1060973Y593003D01*
X1060918Y593188D01*
X1060872Y593391D01*
X1060835Y593604D01*
X1060807Y593835D01*
X1060798Y594066D01*
Y594085D01*
Y594122D01*
X1060807Y594187D01*
Y594279D01*
X1060825Y594381D01*
X1060835Y594511D01*
X1060862Y594649D01*
X1060890Y594806D01*
X1060936Y594964D01*
X1060983Y595140D01*
X1061047Y595315D01*
X1061121Y595491D01*
X1061214Y595676D01*
X1061316Y595852D01*
X1061427Y596028D01*
X1061565Y596194D01*
X1061575Y596203D01*
X1061602Y596240D01*
X1061658Y596286D01*
X1061723Y596351D01*
X1061806Y596425D01*
X1061917Y596509D01*
X1062037Y596592D01*
X1062176Y596684D01*
X1062342Y596777D01*
X1062509Y596860D01*
X1062703Y596943D01*
X1062916Y597017D01*
X1063138Y597082D01*
X1063378Y597128D01*
X1063628Y597165D01*
X1063896Y597175D01*
X1063961D01*
X1064035Y597165D01*
D02*
G37*
G36*
X1042307Y597165D02*
X1042409Y597156D01*
X1042538Y597147D01*
X1042677Y597119D01*
X1042843Y597091D01*
X1043010Y597054D01*
X1043195Y596999D01*
X1043389Y596934D01*
X1043583Y596860D01*
X1043778Y596758D01*
X1043972Y596647D01*
X1044157Y596518D01*
X1044342Y596370D01*
X1044508Y596194D01*
X1044518Y596185D01*
X1044545Y596157D01*
X1044582Y596102D01*
X1044629Y596037D01*
X1044693Y595954D01*
X1044758Y595843D01*
X1044832Y595731D01*
X1044906Y595593D01*
X1044971Y595445D01*
X1045045Y595278D01*
X1045110Y595103D01*
X1045174Y594917D01*
X1045221Y594714D01*
X1045258Y594501D01*
X1045285Y594279D01*
X1045295Y594048D01*
Y594030D01*
Y593993D01*
X1045285Y593928D01*
Y593835D01*
X1045267Y593734D01*
X1045258Y593604D01*
X1045230Y593465D01*
X1045193Y593308D01*
X1045156Y593142D01*
X1045100Y592975D01*
X1045036Y592799D01*
X1044962Y592614D01*
X1044869Y592439D01*
X1044767Y592253D01*
X1044647Y592078D01*
X1044508Y591911D01*
X1044499Y591902D01*
X1044471Y591874D01*
X1044416Y591819D01*
X1044351Y591763D01*
X1044268Y591689D01*
X1044157Y591606D01*
X1044037Y591513D01*
X1043898Y591430D01*
X1043731Y591338D01*
X1043556Y591245D01*
X1043371Y591162D01*
X1043158Y591088D01*
X1042936Y591033D01*
X1042695Y590986D01*
X1042436Y590949D01*
X1042168Y590940D01*
X1042103D01*
X1042029Y590949D01*
X1041928Y590958D01*
X1041798Y590968D01*
X1041659Y590996D01*
X1041502Y591023D01*
X1041326Y591060D01*
X1041141Y591116D01*
X1040956Y591181D01*
X1040762Y591255D01*
X1040568Y591347D01*
X1040374Y591458D01*
X1040189Y591587D01*
X1040004Y591745D01*
X1039837Y591911D01*
X1039828Y591921D01*
X1039800Y591948D01*
X1039763Y592004D01*
X1039717Y592068D01*
X1039661Y592152D01*
X1039597Y592253D01*
X1039523Y592374D01*
X1039458Y592513D01*
X1039384Y592661D01*
X1039310Y592827D01*
X1039245Y593003D01*
X1039190Y593188D01*
X1039143Y593391D01*
X1039106Y593604D01*
X1039079Y593835D01*
X1039069Y594066D01*
Y594085D01*
Y594122D01*
X1039079Y594187D01*
Y594279D01*
X1039097Y594381D01*
X1039106Y594511D01*
X1039134Y594649D01*
X1039162Y594806D01*
X1039208Y594964D01*
X1039254Y595140D01*
X1039319Y595315D01*
X1039393Y595491D01*
X1039486Y595676D01*
X1039587Y595852D01*
X1039698Y596028D01*
X1039837Y596194D01*
X1039846Y596203D01*
X1039874Y596240D01*
X1039930Y596286D01*
X1039994Y596351D01*
X1040078Y596425D01*
X1040189Y596509D01*
X1040309Y596592D01*
X1040448Y596684D01*
X1040614Y596777D01*
X1040781Y596860D01*
X1040975Y596943D01*
X1041188Y597017D01*
X1041410Y597082D01*
X1041650Y597128D01*
X1041900Y597165D01*
X1042168Y597175D01*
X1042233D01*
X1042307Y597165D01*
D02*
G37*
%LPC*%
G36*
X974620Y595032D02*
X974345D01*
Y595015D01*
X974259D01*
Y594998D01*
X974190D01*
Y594980D01*
X974138D01*
Y594963D01*
X974086D01*
Y594946D01*
X974052D01*
Y594929D01*
X974018D01*
Y594911D01*
X973983D01*
Y594894D01*
X973949D01*
Y594877D01*
X973915D01*
Y594860D01*
X973897D01*
Y594843D01*
X973880D01*
Y594826D01*
X973846D01*
Y594808D01*
X973829D01*
Y594791D01*
X973811D01*
Y594774D01*
X973794D01*
Y594757D01*
X973777D01*
Y594739D01*
X973760D01*
Y594722D01*
X973742D01*
Y594705D01*
X973725D01*
Y594688D01*
X973708D01*
Y594671D01*
X973691D01*
Y594654D01*
X973674D01*
Y594636D01*
X973656D01*
Y594619D01*
X973639D01*
Y594602D01*
X973622D01*
Y594567D01*
X973605D01*
Y594550D01*
X973588D01*
Y594516D01*
X973571D01*
Y594499D01*
X973553D01*
Y594464D01*
X973536D01*
Y594447D01*
X973519D01*
Y594413D01*
X973502D01*
Y594378D01*
X973485D01*
Y594344D01*
X973467D01*
Y594310D01*
X973450D01*
Y594258D01*
X973433D01*
Y594206D01*
X973416D01*
Y594155D01*
X973398D01*
Y594103D01*
X973381D01*
Y594017D01*
X973364D01*
Y593931D01*
X973347D01*
Y593725D01*
X973330D01*
Y593604D01*
X973347D01*
Y593415D01*
X973364D01*
Y593329D01*
X973381D01*
Y593260D01*
X973398D01*
Y593192D01*
X973416D01*
Y593140D01*
X973433D01*
Y593106D01*
X973450D01*
Y593054D01*
X973467D01*
Y593020D01*
X973485D01*
Y592985D01*
X973502D01*
Y592968D01*
X973519D01*
Y592934D01*
X973536D01*
Y592916D01*
X973553D01*
Y592882D01*
X973571D01*
Y592865D01*
X973588D01*
Y592830D01*
X973605D01*
Y592813D01*
X973622D01*
Y592796D01*
X973639D01*
Y592779D01*
X973656D01*
Y592762D01*
X973674D01*
Y592744D01*
X973691D01*
Y592727D01*
X973708D01*
Y592710D01*
X973725D01*
Y592693D01*
X973742D01*
Y592676D01*
X973760D01*
Y592658D01*
X973794D01*
Y592641D01*
X973811D01*
Y592624D01*
X973829D01*
Y592607D01*
X973863D01*
Y592590D01*
X973897D01*
Y592572D01*
X973915D01*
Y592555D01*
X973949D01*
Y592538D01*
X974000D01*
Y592521D01*
X974035D01*
Y592504D01*
X974086D01*
Y592486D01*
X974138D01*
Y592469D01*
X974207D01*
Y592452D01*
X974327D01*
Y592435D01*
X974602D01*
Y592452D01*
X974706D01*
Y592469D01*
X974774D01*
Y592486D01*
X974826D01*
Y592504D01*
X974878D01*
Y592521D01*
X974912D01*
Y592538D01*
X974946D01*
Y592555D01*
X974981D01*
Y592572D01*
X975015D01*
Y592590D01*
X975050D01*
Y592607D01*
X975067D01*
Y592624D01*
X975101D01*
Y592641D01*
X975118D01*
Y592658D01*
X975136D01*
Y592676D01*
X975170D01*
Y592693D01*
X975187D01*
Y592710D01*
X975204D01*
Y592727D01*
X975222D01*
Y592744D01*
X975239D01*
Y592762D01*
X975256D01*
Y592779D01*
X975273D01*
Y592796D01*
X975290D01*
Y592813D01*
X975308D01*
Y592830D01*
X975325D01*
Y592848D01*
X975342D01*
Y592865D01*
X975359D01*
Y592899D01*
X975376D01*
Y592916D01*
X975394D01*
Y592934D01*
X975411D01*
Y592968D01*
X975428D01*
Y592985D01*
X975445D01*
Y593020D01*
X975462D01*
Y593037D01*
X975480D01*
Y593071D01*
X975497D01*
Y593106D01*
X975514D01*
Y593140D01*
X975531D01*
Y593174D01*
X975548D01*
Y593209D01*
X975566D01*
Y593260D01*
X975583D01*
Y593312D01*
X975600D01*
Y593364D01*
X975617D01*
Y593432D01*
X975634D01*
Y593467D01*
Y593484D01*
Y593536D01*
X975652D01*
Y593708D01*
X975669D01*
Y593828D01*
X975652D01*
Y593983D01*
X975634D01*
Y594069D01*
X975617D01*
Y594137D01*
X975600D01*
Y594189D01*
X975583D01*
Y594241D01*
X975566D01*
Y594275D01*
X975548D01*
Y594327D01*
X975531D01*
Y594361D01*
X975514D01*
Y594395D01*
X975497D01*
Y594413D01*
X975480D01*
Y594447D01*
X975462D01*
Y594464D01*
X975445D01*
Y594499D01*
X975428D01*
Y594516D01*
X975411D01*
Y594550D01*
X975394D01*
Y594567D01*
X975376D01*
Y594585D01*
X975359D01*
Y594602D01*
X975342D01*
Y594636D01*
X975325D01*
Y594654D01*
X975308D01*
Y594671D01*
X975290D01*
Y594688D01*
X975273D01*
Y594705D01*
X975256D01*
Y594722D01*
X975239D01*
Y594739D01*
X975222D01*
Y594757D01*
X975187D01*
Y594774D01*
X975170D01*
Y594791D01*
X975153D01*
Y594808D01*
X975136D01*
Y594826D01*
X975101D01*
Y594843D01*
X975084D01*
Y594860D01*
X975050D01*
Y594877D01*
X975032D01*
Y594894D01*
X974998D01*
Y594911D01*
X974964D01*
Y594929D01*
X974929D01*
Y594946D01*
X974895D01*
Y594963D01*
X974843D01*
Y594980D01*
X974792D01*
Y594998D01*
X974723D01*
Y595015D01*
X974620D01*
Y595032D01*
D02*
G37*
G36*
X995878Y602668D02*
X995654D01*
Y602651D01*
X995534D01*
Y602634D01*
X995448D01*
Y602617D01*
X995379D01*
Y602599D01*
X995344D01*
Y602582D01*
X995293D01*
Y602565D01*
X995259D01*
Y602548D01*
X995224D01*
Y602531D01*
X995190D01*
Y602514D01*
X995155D01*
Y602496D01*
X995121D01*
Y602479D01*
X995104D01*
Y602462D01*
X995069D01*
Y602445D01*
X995052D01*
Y602427D01*
X995018D01*
Y602410D01*
X995000D01*
Y602393D01*
X994983D01*
Y602376D01*
X994966D01*
Y602359D01*
X994949D01*
Y602342D01*
X994915D01*
Y602324D01*
X994897D01*
Y602307D01*
X994880D01*
Y602290D01*
X994863D01*
Y602273D01*
X994846D01*
Y602255D01*
X994829D01*
Y602221D01*
X994811D01*
Y602204D01*
X994794D01*
Y602187D01*
X994777D01*
Y602170D01*
X994760D01*
Y602135D01*
X994742D01*
Y602118D01*
X994725D01*
Y602101D01*
X994708D01*
Y602066D01*
X994691D01*
Y602032D01*
X994674D01*
Y601998D01*
X994656D01*
Y601963D01*
X994639D01*
Y601929D01*
X994622D01*
Y601894D01*
X994605D01*
Y601843D01*
X994588D01*
Y601774D01*
X994571D01*
Y601671D01*
X994553D01*
Y601378D01*
X994571D01*
Y601275D01*
X994588D01*
Y601206D01*
X994605D01*
Y601155D01*
X994622D01*
Y601103D01*
X994639D01*
Y601069D01*
X994656D01*
Y601034D01*
X994674D01*
Y601000D01*
X994691D01*
Y600965D01*
X994708D01*
Y600931D01*
X994725D01*
Y600897D01*
X994742D01*
Y600880D01*
X994760D01*
Y600862D01*
X994777D01*
Y600828D01*
X994794D01*
Y600811D01*
X994811D01*
Y600794D01*
X994829D01*
Y600776D01*
X994846D01*
Y600742D01*
X994863D01*
Y600725D01*
X994880D01*
Y600708D01*
X994897D01*
Y600690D01*
X994915D01*
Y600673D01*
X994932D01*
Y600656D01*
X994966D01*
Y600639D01*
X994983D01*
Y600622D01*
X995000D01*
Y600604D01*
X995018D01*
Y600587D01*
X995052D01*
Y600570D01*
X995069D01*
Y600553D01*
X995086D01*
Y600536D01*
X995121D01*
Y600518D01*
X995155D01*
Y600501D01*
X995190D01*
Y600484D01*
X995207D01*
Y600467D01*
X995241D01*
Y600450D01*
X995293D01*
Y600432D01*
X995327D01*
Y600415D01*
X995379D01*
Y600398D01*
X995448D01*
Y600381D01*
X995516D01*
Y600364D01*
X995654D01*
Y600346D01*
X995878D01*
Y600364D01*
X996015D01*
Y600381D01*
X996101D01*
Y600398D01*
X996153D01*
Y600415D01*
X996204D01*
Y600432D01*
X996256D01*
Y600450D01*
X996290D01*
Y600467D01*
X996325D01*
Y600484D01*
X996359D01*
Y600501D01*
X996394D01*
Y600518D01*
X996411D01*
Y600536D01*
X996445D01*
Y600553D01*
X996462D01*
Y600570D01*
X996497D01*
Y600587D01*
X996514D01*
Y600604D01*
X996531D01*
Y600622D01*
X996566D01*
Y600639D01*
X996583D01*
Y600656D01*
X996600D01*
Y600673D01*
X996617D01*
Y600690D01*
X996634D01*
Y600708D01*
X996652D01*
Y600725D01*
X996669D01*
Y600742D01*
X996686D01*
Y600759D01*
X996703D01*
Y600776D01*
X996720D01*
Y600794D01*
X996738D01*
Y600811D01*
X996755D01*
Y600845D01*
X996772D01*
Y600862D01*
X996789D01*
Y600897D01*
X996806D01*
Y600914D01*
X996824D01*
Y600948D01*
X996841D01*
Y600965D01*
X996858D01*
Y601000D01*
X996875D01*
Y601034D01*
X996892D01*
Y601069D01*
X996910D01*
Y601120D01*
X996927D01*
Y601155D01*
X996944D01*
Y601224D01*
X996961D01*
Y601292D01*
X996978D01*
Y601447D01*
X996996D01*
Y601585D01*
X996978D01*
Y601722D01*
X996961D01*
Y601808D01*
X996944D01*
Y601860D01*
X996927D01*
Y601911D01*
X996910D01*
Y601946D01*
X996892D01*
Y601980D01*
X996875D01*
Y602015D01*
X996858D01*
Y602049D01*
X996841D01*
Y602083D01*
X996824D01*
Y602101D01*
X996806D01*
Y602135D01*
X996789D01*
Y602152D01*
X996772D01*
Y602187D01*
X996755D01*
Y602204D01*
X996738D01*
Y602221D01*
X996720D01*
Y602238D01*
X996703D01*
Y602255D01*
X996686D01*
Y602273D01*
X996669D01*
Y602290D01*
X996652D01*
Y602307D01*
X996634D01*
Y602324D01*
X996617D01*
Y602342D01*
X996600D01*
Y602359D01*
X996583D01*
Y602376D01*
X996566D01*
Y602393D01*
X996548D01*
Y602410D01*
X996514D01*
Y602427D01*
X996497D01*
Y602445D01*
X996480D01*
Y602462D01*
X996445D01*
Y602479D01*
X996411D01*
Y602496D01*
X996394D01*
Y602514D01*
X996359D01*
Y602531D01*
X996325D01*
Y602548D01*
X996290D01*
Y602565D01*
X996256D01*
Y602582D01*
X996204D01*
Y602599D01*
X996153D01*
Y602617D01*
X996101D01*
Y602634D01*
X996015D01*
Y602651D01*
X995878D01*
Y602668D01*
D02*
G37*
G36*
X1000968Y602685D02*
X1000728D01*
Y602668D01*
X1000607D01*
Y602651D01*
X1000521D01*
Y602634D01*
X1000470D01*
Y602617D01*
X1000418D01*
Y602599D01*
X1000366D01*
Y602582D01*
X1000332D01*
Y602565D01*
X1000298D01*
Y602548D01*
X1000263D01*
Y602531D01*
X1000229D01*
Y602514D01*
X1000212D01*
Y602496D01*
X1000177D01*
Y602479D01*
X1000143D01*
Y602462D01*
X1000126D01*
Y602445D01*
X1000109D01*
Y602427D01*
X1000074D01*
Y602410D01*
X1000057D01*
Y602393D01*
X1000040D01*
Y602376D01*
X1000023D01*
Y602359D01*
X1000005D01*
Y602342D01*
X999988D01*
Y602324D01*
X999971D01*
Y602307D01*
X999954D01*
Y602290D01*
X999937D01*
Y602273D01*
X999919D01*
Y602255D01*
X999902D01*
Y602238D01*
X999885D01*
Y602221D01*
X999868D01*
Y602204D01*
X999851D01*
Y602170D01*
X999833D01*
Y602152D01*
X999816D01*
Y602118D01*
X999799D01*
Y602101D01*
X999782D01*
Y602066D01*
X999765D01*
Y602032D01*
X999747D01*
Y602015D01*
X999730D01*
Y601980D01*
X999713D01*
Y601929D01*
X999696D01*
Y601894D01*
X999679D01*
Y601843D01*
X999661D01*
Y601774D01*
X999644D01*
Y601671D01*
X999627D01*
Y601378D01*
X999644D01*
Y601275D01*
X999661D01*
Y601206D01*
X999679D01*
Y601155D01*
X999696D01*
Y601103D01*
X999713D01*
Y601069D01*
X999730D01*
Y601034D01*
X999747D01*
Y601000D01*
X999765D01*
Y600965D01*
X999782D01*
Y600931D01*
X999799D01*
Y600914D01*
X999816D01*
Y600880D01*
X999833D01*
Y600862D01*
X999851D01*
Y600845D01*
X999868D01*
Y600828D01*
X999885D01*
Y600794D01*
X999902D01*
Y600776D01*
X999919D01*
Y600759D01*
X999937D01*
Y600742D01*
X999954D01*
Y600725D01*
X999971D01*
Y600708D01*
X999988D01*
Y600690D01*
X1000005D01*
Y600673D01*
X1000023D01*
Y600656D01*
X1000057D01*
Y600639D01*
X1000074D01*
Y600622D01*
X1000091D01*
Y600604D01*
X1000126D01*
Y600587D01*
X1000143D01*
Y600570D01*
X1000177D01*
Y600553D01*
X1000195D01*
Y600536D01*
X1000229D01*
Y600518D01*
X1000263D01*
Y600501D01*
X1000298D01*
Y600484D01*
X1000332D01*
Y600467D01*
X1000366D01*
Y600450D01*
X1000418D01*
Y600432D01*
X1000470D01*
Y600415D01*
X1000539D01*
Y600398D01*
X1000624D01*
Y600381D01*
X1000762D01*
Y600364D01*
X1000986D01*
Y600381D01*
X1001123D01*
Y600398D01*
X1001192D01*
Y600415D01*
X1001261D01*
Y600432D01*
X1001313D01*
Y600450D01*
X1001347D01*
Y600467D01*
X1001381D01*
Y600484D01*
X1001416D01*
Y600501D01*
X1001450D01*
Y600518D01*
X1001484D01*
Y600536D01*
X1001519D01*
Y600553D01*
X1001536D01*
Y600570D01*
X1001571D01*
Y600587D01*
X1001588D01*
Y600604D01*
X1001605D01*
Y600622D01*
X1001639D01*
Y600639D01*
X1001657D01*
Y600656D01*
X1001674D01*
Y600673D01*
X1001691D01*
Y600690D01*
X1001708D01*
Y600708D01*
X1001725D01*
Y600725D01*
X1001742D01*
Y600742D01*
X1001760D01*
Y600759D01*
X1001777D01*
Y600776D01*
X1001794D01*
Y600794D01*
X1001811D01*
Y600811D01*
X1001828D01*
Y600845D01*
X1001846D01*
Y600862D01*
X1001863D01*
Y600880D01*
X1001880D01*
Y600914D01*
X1001897D01*
Y600931D01*
X1001915D01*
Y600965D01*
X1001932D01*
Y601000D01*
X1001949D01*
Y601034D01*
X1001966D01*
Y601069D01*
X1001983D01*
Y601103D01*
X1002001D01*
Y601137D01*
X1002018D01*
Y601189D01*
X1002035D01*
Y601258D01*
X1002052D01*
Y601361D01*
X1002069D01*
Y601688D01*
X1002052D01*
Y601791D01*
X1002035D01*
Y601860D01*
X1002018D01*
Y601911D01*
X1002001D01*
Y601946D01*
X1001983D01*
Y601980D01*
X1001966D01*
Y602015D01*
X1001949D01*
Y602049D01*
X1001932D01*
Y602083D01*
X1001915D01*
Y602118D01*
X1001897D01*
Y602135D01*
X1001880D01*
Y602170D01*
X1001863D01*
Y602187D01*
X1001846D01*
Y602204D01*
X1001828D01*
Y602221D01*
X1001811D01*
Y602255D01*
X1001794D01*
Y602273D01*
X1001777D01*
Y602290D01*
X1001760D01*
Y602307D01*
X1001742D01*
Y602324D01*
X1001725D01*
Y602342D01*
X1001708D01*
Y602359D01*
X1001691D01*
Y602376D01*
X1001674D01*
Y602393D01*
X1001639D01*
Y602410D01*
X1001622D01*
Y602427D01*
X1001605D01*
Y602445D01*
X1001588D01*
Y602462D01*
X1001553D01*
Y602479D01*
X1001536D01*
Y602496D01*
X1001502D01*
Y602514D01*
X1001467D01*
Y602531D01*
X1001433D01*
Y602548D01*
X1001416D01*
Y602565D01*
X1001364D01*
Y602582D01*
X1001330D01*
Y602599D01*
X1001295D01*
Y602617D01*
X1001244D01*
Y602634D01*
X1001175D01*
Y602651D01*
X1001089D01*
Y602668D01*
X1000968D01*
Y602685D01*
D02*
G37*
G36*
X989548Y595032D02*
X989273D01*
Y595015D01*
X989170D01*
Y594998D01*
X989101D01*
Y594980D01*
X989050D01*
Y594963D01*
X988998D01*
Y594946D01*
X988964D01*
Y594929D01*
X988929D01*
Y594911D01*
X988895D01*
Y594894D01*
X988860D01*
Y594877D01*
X988826D01*
Y594860D01*
X988809D01*
Y594843D01*
X988774D01*
Y594826D01*
X988757D01*
Y594808D01*
X988740D01*
Y594791D01*
X988706D01*
Y594774D01*
X988688D01*
Y594757D01*
X988671D01*
Y594739D01*
X988654D01*
Y594722D01*
X988637D01*
Y594705D01*
X988620D01*
Y594688D01*
X988602D01*
Y594671D01*
X988585D01*
Y594654D01*
X988568D01*
Y594636D01*
X988551D01*
Y594602D01*
X988534D01*
Y594585D01*
X988516D01*
Y594567D01*
X988499D01*
Y594533D01*
X988482D01*
Y594516D01*
X988465D01*
Y594482D01*
X988448D01*
Y594447D01*
X988431D01*
Y594430D01*
X988413D01*
Y594395D01*
X988396D01*
Y594344D01*
X988379D01*
Y594310D01*
X988362D01*
Y594258D01*
X988344D01*
Y594206D01*
X988327D01*
Y594137D01*
X988310D01*
Y594069D01*
X988293D01*
Y593948D01*
X988276D01*
Y593536D01*
X988293D01*
Y593432D01*
X988310D01*
Y593364D01*
X988327D01*
Y593295D01*
X988344D01*
Y593243D01*
X988362D01*
Y593192D01*
X988379D01*
Y593157D01*
X988396D01*
Y593123D01*
X988413D01*
Y593088D01*
X988431D01*
Y593054D01*
X988448D01*
Y593020D01*
X988465D01*
Y593002D01*
X988482D01*
Y592968D01*
X988499D01*
Y592951D01*
X988516D01*
Y592916D01*
X988534D01*
Y592899D01*
X988551D01*
Y592882D01*
X988568D01*
Y592848D01*
X988585D01*
Y592830D01*
X988602D01*
Y592813D01*
X988620D01*
Y592796D01*
X988637D01*
Y592779D01*
X988654D01*
Y592762D01*
X988671D01*
Y592744D01*
X988688D01*
Y592727D01*
X988706D01*
Y592710D01*
X988723D01*
Y592693D01*
X988757D01*
Y592676D01*
X988774D01*
Y592658D01*
X988792D01*
Y592641D01*
X988826D01*
Y592624D01*
X988843D01*
Y592607D01*
X988878D01*
Y592590D01*
X988895D01*
Y592572D01*
X988929D01*
Y592555D01*
X988964D01*
Y592538D01*
X989015D01*
Y592521D01*
X989050D01*
Y592504D01*
X989101D01*
Y592486D01*
X989153D01*
Y592469D01*
X989239D01*
Y592452D01*
X989342D01*
Y592435D01*
X989617D01*
Y592452D01*
X989720D01*
Y592469D01*
X989789D01*
Y592486D01*
X989841D01*
Y592504D01*
X989892D01*
Y592521D01*
X989927D01*
Y592538D01*
X989961D01*
Y592555D01*
X989996D01*
Y592572D01*
X990030D01*
Y592590D01*
X990047D01*
Y592607D01*
X990082D01*
Y592624D01*
X990099D01*
Y592641D01*
X990116D01*
Y592658D01*
X990150D01*
Y592676D01*
X990168D01*
Y592693D01*
X990185D01*
Y592710D01*
X990202D01*
Y592727D01*
X990219D01*
Y592744D01*
X990236D01*
Y592762D01*
X990254D01*
Y592779D01*
X990271D01*
Y592796D01*
X990288D01*
Y592813D01*
X990305D01*
Y592848D01*
X990322D01*
Y592865D01*
X990339D01*
Y592882D01*
X990357D01*
Y592916D01*
X990374D01*
Y592934D01*
X990391D01*
Y592968D01*
X990408D01*
Y592985D01*
X990425D01*
Y593020D01*
X990443D01*
Y593054D01*
X990460D01*
Y593088D01*
X990477D01*
Y593123D01*
X990494D01*
Y593174D01*
X990512D01*
Y593226D01*
X990529D01*
Y593278D01*
X990546D01*
Y593346D01*
X990563D01*
Y593432D01*
X990580D01*
Y593553D01*
X990598D01*
Y593587D01*
Y593604D01*
Y593862D01*
X990580D01*
Y593983D01*
X990563D01*
Y594069D01*
X990546D01*
Y594137D01*
X990529D01*
Y594189D01*
X990512D01*
Y594223D01*
X990494D01*
Y594275D01*
X990477D01*
Y594310D01*
X990460D01*
Y594344D01*
X990443D01*
Y594378D01*
X990425D01*
Y594413D01*
X990408D01*
Y594447D01*
X990391D01*
Y594464D01*
X990374D01*
Y594499D01*
X990357D01*
Y594516D01*
X990339D01*
Y594533D01*
X990322D01*
Y594567D01*
X990305D01*
Y594585D01*
X990288D01*
Y594602D01*
X990271D01*
Y594619D01*
X990254D01*
Y594654D01*
X990236D01*
Y594671D01*
X990219D01*
Y594688D01*
X990202D01*
Y594705D01*
X990185D01*
Y594722D01*
X990168D01*
Y594739D01*
X990150D01*
Y594757D01*
X990116D01*
Y594774D01*
X990099D01*
Y594791D01*
X990082D01*
Y594808D01*
X990064D01*
Y594826D01*
X990030D01*
Y594843D01*
X990013D01*
Y594860D01*
X989996D01*
Y594877D01*
X989961D01*
Y594894D01*
X989927D01*
Y594911D01*
X989892D01*
Y594929D01*
X989858D01*
Y594946D01*
X989824D01*
Y594963D01*
X989772D01*
Y594980D01*
X989720D01*
Y594998D01*
X989652D01*
Y595015D01*
X989548D01*
Y595032D01*
D02*
G37*
G36*
X996462Y595187D02*
X996204D01*
Y595169D01*
X996084D01*
Y595152D01*
X996015D01*
Y595135D01*
X995964D01*
Y595118D01*
X995912D01*
Y595101D01*
X995878D01*
Y595084D01*
X995843D01*
Y595066D01*
X995809D01*
Y595049D01*
X995774D01*
Y595032D01*
X995740D01*
Y595015D01*
X995706D01*
Y594998D01*
X995688D01*
Y594980D01*
X995671D01*
Y594963D01*
X995637D01*
Y594946D01*
X995620D01*
Y594929D01*
X995602D01*
Y594911D01*
X995568D01*
Y594894D01*
X995551D01*
Y594877D01*
X995534D01*
Y594860D01*
X995516D01*
Y594843D01*
X995499D01*
Y594826D01*
X995482D01*
Y594808D01*
X995465D01*
Y594791D01*
X995448D01*
Y594774D01*
X995430D01*
Y594757D01*
X995413D01*
Y594722D01*
X995396D01*
Y594705D01*
X995379D01*
Y594688D01*
X995362D01*
Y594671D01*
X995344D01*
Y594636D01*
X995327D01*
Y594619D01*
X995310D01*
Y594585D01*
X995293D01*
Y594567D01*
X995276D01*
Y594533D01*
X995259D01*
Y594499D01*
X995241D01*
Y594464D01*
X995224D01*
Y594430D01*
X995207D01*
Y594395D01*
X995190D01*
Y594361D01*
X995173D01*
Y594310D01*
X995155D01*
Y594258D01*
X995138D01*
Y594189D01*
X995121D01*
Y594103D01*
X995104D01*
Y593983D01*
X995086D01*
Y593708D01*
X995104D01*
Y593570D01*
X995121D01*
Y593484D01*
X995138D01*
Y593415D01*
X995155D01*
Y593364D01*
X995173D01*
Y593312D01*
X995190D01*
Y593260D01*
X995207D01*
Y593226D01*
X995224D01*
Y593209D01*
Y593174D01*
X995241D01*
Y593140D01*
X995259D01*
Y593106D01*
X995276D01*
Y593071D01*
X995293D01*
Y593054D01*
X995310D01*
Y593020D01*
X995327D01*
Y593002D01*
X995344D01*
Y592968D01*
X995362D01*
Y592951D01*
X995379D01*
Y592916D01*
X995396D01*
Y592899D01*
X995413D01*
Y592882D01*
X995430D01*
Y592865D01*
X995448D01*
Y592830D01*
X995465D01*
Y592813D01*
X995482D01*
Y592796D01*
X995499D01*
Y592779D01*
X995516D01*
Y592762D01*
X995534D01*
Y592744D01*
X995551D01*
Y592727D01*
X995568D01*
Y592710D01*
X995585D01*
Y592693D01*
X995620D01*
Y592676D01*
X995637D01*
Y592658D01*
X995654D01*
Y592641D01*
X995671D01*
Y592624D01*
X995706D01*
Y592607D01*
X995723D01*
Y592590D01*
X995757D01*
Y592572D01*
X995774D01*
Y592555D01*
X995809D01*
Y592538D01*
X995843D01*
Y592521D01*
X995878D01*
Y592504D01*
X995929D01*
Y592486D01*
X995981D01*
Y592469D01*
X996032D01*
Y592452D01*
X996101D01*
Y592435D01*
X996204D01*
Y592418D01*
X996462D01*
Y592435D01*
X996566D01*
Y592452D01*
X996634D01*
Y592469D01*
X996686D01*
Y592486D01*
X996738D01*
Y592504D01*
X996772D01*
Y592521D01*
X996806D01*
Y592538D01*
X996841D01*
Y592555D01*
X996875D01*
Y592572D01*
X996910D01*
Y592590D01*
X996927D01*
Y592607D01*
X996961D01*
Y592624D01*
X996978D01*
Y592641D01*
X996996D01*
Y592658D01*
X997030D01*
Y592676D01*
X997047D01*
Y592693D01*
X997064D01*
Y592710D01*
X997082D01*
Y592727D01*
X997099D01*
Y592744D01*
X997116D01*
Y592762D01*
X997133D01*
Y592779D01*
X997150D01*
Y592796D01*
X997167D01*
Y592813D01*
X997185D01*
Y592830D01*
X997202D01*
Y592848D01*
X997219D01*
Y592865D01*
X997236D01*
Y592882D01*
X997254D01*
Y592916D01*
X997271D01*
Y592934D01*
X997288D01*
Y592951D01*
X997305D01*
Y592985D01*
X997322D01*
Y593002D01*
X997340D01*
Y593037D01*
X997357D01*
Y593054D01*
X997374D01*
Y593088D01*
X997391D01*
Y593123D01*
X997408D01*
Y593157D01*
X997425D01*
Y593192D01*
X997443D01*
Y593226D01*
X997460D01*
Y593278D01*
X997477D01*
Y593329D01*
X997494D01*
Y593381D01*
X997511D01*
Y593432D01*
X997529D01*
Y593518D01*
X997546D01*
Y593639D01*
X997563D01*
Y593948D01*
X997546D01*
Y594069D01*
X997529D01*
Y594137D01*
X997511D01*
Y594206D01*
X997494D01*
Y594258D01*
X997477D01*
Y594310D01*
X997460D01*
Y594361D01*
X997443D01*
Y594395D01*
X997425D01*
Y594430D01*
X997408D01*
Y594464D01*
X997391D01*
Y594499D01*
X997374D01*
Y594533D01*
X997357D01*
Y594550D01*
X997340D01*
Y594585D01*
X997322D01*
Y594619D01*
X997305D01*
Y594636D01*
X997288D01*
Y594654D01*
X997271D01*
Y594688D01*
X997254D01*
Y594705D01*
X997236D01*
Y594722D01*
X997219D01*
Y594739D01*
X997202D01*
Y594757D01*
X997185D01*
Y594791D01*
X997167D01*
Y594808D01*
X997150D01*
Y594826D01*
X997133D01*
Y594843D01*
X997116D01*
Y594860D01*
X997099D01*
Y594877D01*
X997082D01*
Y594894D01*
X997064D01*
Y594911D01*
X997030D01*
Y594929D01*
X997013D01*
Y594946D01*
X996996D01*
Y594963D01*
X996978D01*
Y594980D01*
X996944D01*
Y594998D01*
X996927D01*
Y595015D01*
X996892D01*
Y595032D01*
X996875D01*
Y595049D01*
X996841D01*
Y595066D01*
X996806D01*
Y595084D01*
X996772D01*
Y595101D01*
X996720D01*
Y595118D01*
X996686D01*
Y595135D01*
X996634D01*
Y595152D01*
X996566D01*
Y595169D01*
X996462D01*
Y595187D01*
D02*
G37*
G36*
X1029477Y603504D02*
Y599798D01*
X1029486Y599816D01*
X1029496Y599825D01*
X1029514Y599835D01*
X1029570D01*
X1029625Y599844D01*
X1029708Y599853D01*
X1029801Y599872D01*
X1029912Y599890D01*
X1030032Y599927D01*
X1030171Y599973D01*
X1030180D01*
X1030189Y599983D01*
X1030217Y599992D01*
X1030254Y600010D01*
X1030347Y600057D01*
X1030458Y600121D01*
X1030587Y600205D01*
X1030717Y600297D01*
X1030846Y600408D01*
X1030966Y600538D01*
Y600547D01*
X1030985Y600556D01*
X1031003Y600584D01*
X1031022Y600621D01*
X1031059Y600667D01*
X1031087Y600723D01*
X1031161Y600862D01*
X1031225Y601028D01*
X1031290Y601231D01*
X1031327Y601453D01*
X1031346Y601703D01*
Y601713D01*
Y601740D01*
Y601777D01*
X1031336Y601833D01*
X1031327Y601897D01*
X1031318Y601971D01*
X1031281Y602147D01*
X1031216Y602342D01*
X1031170Y602443D01*
X1031114Y602554D01*
X1031050Y602656D01*
X1030985Y602758D01*
X1030892Y602850D01*
X1030800Y602943D01*
X1030791Y602952D01*
X1030772Y602971D01*
X1030735Y602998D01*
X1030689Y603035D01*
X1030624Y603072D01*
X1030559Y603119D01*
X1030476Y603174D01*
X1030384Y603230D01*
X1030180Y603331D01*
X1029949Y603424D01*
X1029829Y603451D01*
X1029699Y603479D01*
X1029570Y603498D01*
X1029477Y603504D01*
D02*
G37*
G36*
X1047894Y603572D02*
X1047811D01*
X1047746Y603562D01*
X1047672Y603553D01*
X1047589Y603544D01*
X1047496Y603525D01*
X1047394Y603498D01*
X1047163Y603424D01*
X1047052Y603377D01*
X1046932Y603322D01*
X1046821Y603257D01*
X1046710Y603174D01*
X1046599Y603082D01*
X1046497Y602980D01*
X1046488Y602971D01*
X1046479Y602952D01*
X1046451Y602924D01*
X1046423Y602887D01*
X1046386Y602832D01*
X1046349Y602776D01*
X1046312Y602702D01*
X1046266Y602628D01*
X1046183Y602434D01*
X1046109Y602212D01*
X1046053Y601962D01*
X1046044Y601824D01*
X1046035Y601685D01*
Y601676D01*
Y601648D01*
Y601611D01*
X1046044Y601555D01*
X1046053Y601490D01*
X1046062Y601407D01*
X1046072Y601324D01*
X1046090Y601222D01*
X1046146Y601019D01*
X1046238Y600787D01*
X1046284Y600676D01*
X1046349Y600565D01*
X1046423Y600455D01*
X1046506Y600353D01*
X1046516Y600344D01*
X1046534Y600325D01*
X1046562Y600297D01*
X1046599Y600260D01*
X1046654Y600214D01*
X1046719Y600159D01*
X1046793Y600112D01*
X1046886Y600057D01*
X1046978Y599992D01*
X1047089Y599946D01*
X1047200Y599890D01*
X1047330Y599844D01*
X1047468Y599807D01*
X1047616Y599779D01*
X1047764Y599761D01*
X1047931Y599752D01*
X1048014D01*
X1048079Y599761D01*
X1048153Y599770D01*
X1048245Y599779D01*
X1048338Y599798D01*
X1048440Y599825D01*
X1048671Y599890D01*
X1048782Y599936D01*
X1048902Y599992D01*
X1049022Y600057D01*
X1049133Y600140D01*
X1049235Y600223D01*
X1049337Y600325D01*
X1049346Y600334D01*
X1049355Y600353D01*
X1049383Y600381D01*
X1049411Y600418D01*
X1049448Y600473D01*
X1049485Y600538D01*
X1049531Y600612D01*
X1049577Y600695D01*
X1049670Y600880D01*
X1049744Y601102D01*
X1049799Y601361D01*
X1049809Y601500D01*
X1049818Y601639D01*
Y601648D01*
Y601676D01*
Y601713D01*
X1049809Y601768D01*
X1049799Y601833D01*
X1049790Y601916D01*
X1049781Y601999D01*
X1049762Y602092D01*
X1049698Y602305D01*
X1049614Y602527D01*
X1049559Y602637D01*
X1049494Y602748D01*
X1049420Y602859D01*
X1049337Y602961D01*
X1049328Y602971D01*
X1049309Y602989D01*
X1049281Y603017D01*
X1049235Y603054D01*
X1049189Y603100D01*
X1049124Y603156D01*
X1049041Y603211D01*
X1048958Y603266D01*
X1048856Y603322D01*
X1048745Y603377D01*
X1048634Y603433D01*
X1048504Y603479D01*
X1048366Y603516D01*
X1048218Y603544D01*
X1048060Y603562D01*
X1047894Y603572D01*
D02*
G37*
G36*
X1016046Y596065D02*
X1015898D01*
Y594575D01*
X1015935D01*
X1015991Y594566D01*
X1016203D01*
X1016287Y594575D01*
X1016305D01*
X1016361Y594585D01*
X1016573D01*
X1016620Y594594D01*
X1016740Y594612D01*
X1016860Y594649D01*
X1016869D01*
X1016888Y594659D01*
X1016943Y594696D01*
X1017017Y594751D01*
X1017091Y594825D01*
Y594834D01*
X1017110Y594843D01*
X1017138Y594890D01*
X1017184Y594964D01*
X1017212Y595047D01*
Y595056D01*
Y595075D01*
X1017221Y595103D01*
Y595140D01*
X1017230Y595186D01*
X1017239Y595251D01*
X1017249Y595325D01*
Y595334D01*
Y595362D01*
Y595399D01*
X1017239Y595454D01*
X1017221Y595519D01*
X1017193Y595593D01*
X1017147Y595667D01*
X1017082Y595750D01*
X1017073Y595759D01*
X1017045Y595787D01*
X1017008Y595824D01*
X1016953Y595870D01*
X1016879Y595917D01*
X1016795Y595963D01*
X1016703Y596000D01*
X1016601Y596018D01*
X1016592D01*
X1016546Y596028D01*
X1016490Y596037D01*
X1016416Y596046D01*
X1016333D01*
X1016240Y596055D01*
X1016046Y596065D01*
D02*
G37*
G36*
X1063841Y595944D02*
X1063758D01*
X1063693Y595935D01*
X1063619Y595926D01*
X1063536Y595917D01*
X1063443Y595898D01*
X1063341Y595870D01*
X1063110Y595796D01*
X1062999Y595750D01*
X1062879Y595694D01*
X1062768Y595630D01*
X1062657Y595546D01*
X1062546Y595454D01*
X1062444Y595352D01*
X1062435Y595343D01*
X1062426Y595325D01*
X1062398Y595297D01*
X1062370Y595260D01*
X1062333Y595204D01*
X1062296Y595149D01*
X1062259Y595075D01*
X1062213Y595001D01*
X1062130Y594806D01*
X1062056Y594585D01*
X1062000Y594335D01*
X1061991Y594196D01*
X1061982Y594057D01*
Y594048D01*
Y594020D01*
Y593983D01*
X1061991Y593928D01*
X1062000Y593863D01*
X1062009Y593780D01*
X1062019Y593696D01*
X1062037Y593595D01*
X1062093Y593391D01*
X1062185Y593160D01*
X1062231Y593049D01*
X1062296Y592938D01*
X1062370Y592827D01*
X1062453Y592725D01*
X1062463Y592716D01*
X1062481Y592697D01*
X1062509Y592670D01*
X1062546Y592633D01*
X1062601Y592587D01*
X1062666Y592531D01*
X1062740Y592485D01*
X1062833Y592429D01*
X1062925Y592365D01*
X1063036Y592318D01*
X1063147Y592263D01*
X1063277Y592216D01*
X1063415Y592179D01*
X1063563Y592152D01*
X1063711Y592133D01*
X1063878Y592124D01*
X1063961D01*
X1064026Y592133D01*
X1064100Y592142D01*
X1064192Y592152D01*
X1064285Y592170D01*
X1064387Y592198D01*
X1064618Y592263D01*
X1064729Y592309D01*
X1064849Y592365D01*
X1064969Y592429D01*
X1065080Y592513D01*
X1065182Y592596D01*
X1065284Y592697D01*
X1065293Y592707D01*
X1065302Y592725D01*
X1065330Y592753D01*
X1065358Y592790D01*
X1065395Y592845D01*
X1065432Y592910D01*
X1065478Y592984D01*
X1065524Y593068D01*
X1065617Y593253D01*
X1065691Y593474D01*
X1065746Y593734D01*
X1065756Y593872D01*
X1065765Y594011D01*
Y594020D01*
Y594048D01*
Y594085D01*
X1065756Y594140D01*
X1065746Y594205D01*
X1065737Y594288D01*
X1065728Y594372D01*
X1065709Y594464D01*
X1065645Y594677D01*
X1065561Y594899D01*
X1065506Y595010D01*
X1065441Y595121D01*
X1065367Y595232D01*
X1065284Y595334D01*
X1065275Y595343D01*
X1065256Y595362D01*
X1065228Y595389D01*
X1065182Y595426D01*
X1065136Y595472D01*
X1065071Y595528D01*
X1064988Y595583D01*
X1064905Y595639D01*
X1064803Y595694D01*
X1064692Y595750D01*
X1064581Y595806D01*
X1064451Y595852D01*
X1064313Y595889D01*
X1064165Y595917D01*
X1064007Y595935D01*
X1063841Y595944D01*
D02*
G37*
G36*
X1042113Y595944D02*
X1042029D01*
X1041965Y595935D01*
X1041891Y595926D01*
X1041807Y595917D01*
X1041715Y595898D01*
X1041613Y595870D01*
X1041382Y595796D01*
X1041271Y595750D01*
X1041151Y595694D01*
X1041040Y595630D01*
X1040929Y595546D01*
X1040818Y595454D01*
X1040716Y595352D01*
X1040707Y595343D01*
X1040697Y595325D01*
X1040670Y595297D01*
X1040642Y595260D01*
X1040605Y595204D01*
X1040568Y595149D01*
X1040531Y595075D01*
X1040485Y595001D01*
X1040401Y594806D01*
X1040327Y594585D01*
X1040272Y594335D01*
X1040263Y594196D01*
X1040253Y594057D01*
Y594048D01*
Y594020D01*
Y593983D01*
X1040263Y593928D01*
X1040272Y593863D01*
X1040281Y593780D01*
X1040290Y593696D01*
X1040309Y593595D01*
X1040364Y593391D01*
X1040457Y593160D01*
X1040503Y593049D01*
X1040568Y592938D01*
X1040642Y592827D01*
X1040725Y592725D01*
X1040734Y592716D01*
X1040753Y592697D01*
X1040781Y592670D01*
X1040818Y592633D01*
X1040873Y592587D01*
X1040938Y592531D01*
X1041012Y592485D01*
X1041104Y592429D01*
X1041197Y592365D01*
X1041308Y592318D01*
X1041419Y592263D01*
X1041548Y592216D01*
X1041687Y592179D01*
X1041835Y592152D01*
X1041983Y592133D01*
X1042150Y592124D01*
X1042233D01*
X1042298Y592133D01*
X1042372Y592142D01*
X1042464Y592152D01*
X1042557Y592170D01*
X1042658Y592198D01*
X1042890Y592263D01*
X1043001Y592309D01*
X1043121Y592365D01*
X1043241Y592429D01*
X1043352Y592513D01*
X1043454Y592596D01*
X1043556Y592697D01*
X1043565Y592707D01*
X1043574Y592725D01*
X1043602Y592753D01*
X1043630Y592790D01*
X1043667Y592845D01*
X1043704Y592910D01*
X1043750Y592984D01*
X1043796Y593068D01*
X1043889Y593253D01*
X1043963Y593474D01*
X1044018Y593734D01*
X1044027Y593872D01*
X1044037Y594011D01*
Y594020D01*
Y594048D01*
Y594085D01*
X1044027Y594140D01*
X1044018Y594205D01*
X1044009Y594288D01*
X1044000Y594372D01*
X1043981Y594464D01*
X1043916Y594677D01*
X1043833Y594899D01*
X1043778Y595010D01*
X1043713Y595121D01*
X1043639Y595232D01*
X1043556Y595334D01*
X1043546Y595343D01*
X1043528Y595362D01*
X1043500Y595389D01*
X1043454Y595426D01*
X1043408Y595472D01*
X1043343Y595528D01*
X1043260Y595583D01*
X1043176Y595639D01*
X1043075Y595694D01*
X1042964Y595750D01*
X1042853Y595806D01*
X1042723Y595852D01*
X1042584Y595889D01*
X1042436Y595917D01*
X1042279Y595935D01*
X1042113Y595944D01*
D02*
G37*
%LPD*%
D10*
X1175171Y668639D02*
G03*
X1175171Y668639I-492J0D01*
G01*
D11*
X1247317Y717899D02*
G03*
X1247317Y717899I-394J0D01*
G01*
X1020128Y638962D02*
G03*
X1020128Y638962I-394J0D01*
G01*
D12*
X988262Y701561D02*
G03*
X988262Y701954I0J197D01*
G01*
D02*
G03*
X988262Y701561I0J-197D01*
G01*
X1051242Y612190D02*
X1052842D01*
X1051242Y609041D02*
X1052842D01*
X1172215Y667576D02*
X1173215D01*
X1158215D02*
X1160215D01*
X1158215D02*
Y669576D01*
Y681576D02*
Y683576D01*
X1160215D01*
X1172215D02*
X1174215D01*
Y681576D02*
Y683576D01*
X1164640Y656947D02*
Y658772D01*
X1167790Y656947D02*
Y658772D01*
X1168577Y656947D02*
Y658772D01*
X1171727Y656947D02*
Y658772D01*
X1162559Y655795D02*
Y658157D01*
X1158622Y655795D02*
Y658157D01*
X1237475Y761390D02*
Y762991D01*
X1240624Y761390D02*
Y762991D01*
X1233538Y761359D02*
Y762959D01*
X1236687Y761359D02*
Y762959D01*
X1225664Y761390D02*
Y762991D01*
X1228813Y761390D02*
Y762991D01*
X1221727Y761390D02*
Y762991D01*
X1224876Y761390D02*
Y762991D01*
X1095463Y586876D02*
X1100463D01*
X1102963Y584376D01*
Y579376D02*
Y584376D01*
X1100463Y576876D02*
X1102963Y579376D01*
X1082963Y584376D02*
X1085463Y586876D01*
X1090463D01*
X1092963Y584376D01*
Y579376D02*
Y584376D01*
X1090463Y576876D02*
X1092963Y579376D01*
X1085463Y576876D02*
X1090463D01*
X1082963Y579376D02*
X1085463Y576876D01*
X1092963Y584376D02*
X1095463Y586876D01*
X1092963Y579376D02*
X1095463Y576876D01*
X1100463D01*
X1065463Y586876D02*
X1070463D01*
X1072963Y584376D01*
Y579376D02*
Y584376D01*
X1070463Y576876D02*
X1072963Y579376D01*
Y584376D02*
X1075463Y586876D01*
X1080463D01*
X1082963Y584376D01*
Y579376D02*
Y584376D01*
X1080463Y576876D02*
X1082963Y579376D01*
X1075463Y576876D02*
X1080463D01*
X1072963Y579376D02*
X1075463Y576876D01*
X1052963Y584376D02*
X1055463Y586876D01*
X1060463D01*
X1062963Y584376D01*
Y579376D02*
Y584376D01*
X1060463Y576876D02*
X1062963Y579376D01*
X1055463Y576876D02*
X1060463D01*
X1052963Y579376D02*
X1055463Y576876D01*
X1062963Y584376D02*
X1065463Y586876D01*
X1062963Y579376D02*
X1065463Y576876D01*
X1070463D01*
X1035463Y586876D02*
X1040463D01*
X1042963Y584376D01*
Y579376D02*
Y584376D01*
X1040463Y576876D02*
X1042963Y579376D01*
Y584376D02*
X1045463Y586876D01*
X1050463D01*
X1052963Y584376D01*
Y579376D02*
Y584376D01*
X1050463Y576876D02*
X1052963Y579376D01*
X1045463Y576876D02*
X1050463D01*
X1042963Y579376D02*
X1045463Y576876D01*
X1032963Y579376D02*
Y584376D01*
X1035463Y586876D01*
X1032963Y579376D02*
X1035463Y576876D01*
X1040463D01*
X1105463Y586876D02*
X1110463D01*
X1112963Y584376D01*
Y579376D02*
Y584376D01*
X1110463Y576876D02*
X1112963Y579376D01*
X1102963Y584376D02*
X1105463Y586876D01*
X1102963Y579376D02*
X1105463Y576876D01*
X1110463D01*
X1155463Y586876D02*
X1160463D01*
X1162963Y584376D01*
Y579376D02*
Y584376D01*
X1160463Y576876D02*
X1162963Y579376D01*
Y584376D02*
X1165463Y586876D01*
X1170463D01*
X1172963Y584376D01*
Y579376D02*
Y584376D01*
X1170463Y576876D02*
X1172963Y579376D01*
X1165463Y576876D02*
X1170463D01*
X1162963Y579376D02*
X1165463Y576876D01*
X1142963Y584376D02*
X1145463Y586876D01*
X1150463D01*
X1152963Y584376D01*
Y579376D02*
Y584376D01*
X1150463Y576876D02*
X1152963Y579376D01*
X1145463Y576876D02*
X1150463D01*
X1142963Y579376D02*
X1145463Y576876D01*
X1152963Y584376D02*
X1155463Y586876D01*
X1152963Y579376D02*
X1155463Y576876D01*
X1160463D01*
X1125463Y586876D02*
X1130463D01*
X1132963Y584376D01*
Y579376D02*
Y584376D01*
X1130463Y576876D02*
X1132963Y579376D01*
Y584376D02*
X1135463Y586876D01*
X1140463D01*
X1142963Y584376D01*
Y579376D02*
Y584376D01*
X1140463Y576876D02*
X1142963Y579376D01*
X1135463Y576876D02*
X1140463D01*
X1132963Y579376D02*
X1135463Y576876D01*
X1122963Y579376D02*
Y584376D01*
X1125463Y586876D01*
X1122963Y579376D02*
X1125463Y576876D01*
X1130463D01*
X1175463Y586876D02*
X1180463D01*
X1182963Y584376D01*
Y579376D02*
Y584376D01*
X1180463Y576876D02*
X1182963Y579376D01*
X1172963Y584376D02*
X1175463Y586876D01*
X1172963Y579376D02*
X1175463Y576876D01*
X1180463D01*
X1014463Y766876D02*
X1016963Y769376D01*
X1009463Y766876D02*
X1014463D01*
X1006963Y769376D02*
X1009463Y766876D01*
X1006963Y769376D02*
Y774376D01*
X1009463Y776876D01*
X1014463D01*
X1016963Y774376D01*
X1029463Y766876D02*
X1034463D01*
X1026963Y769376D02*
X1029463Y766876D01*
X1026963Y769376D02*
Y774376D01*
X1029463Y776876D01*
X1024463Y766876D02*
X1026963Y769376D01*
X1019463Y766876D02*
X1024463D01*
X1016963Y769376D02*
X1019463Y766876D01*
X1016963Y769376D02*
Y774376D01*
X1019463Y776876D01*
X1024463D01*
X1026963Y774376D01*
X1044463Y766876D02*
X1046963Y769376D01*
X1039463Y766876D02*
X1044463D01*
X1036963Y769376D02*
X1039463Y766876D01*
X1036963Y769376D02*
Y774376D01*
X1039463Y776876D01*
X1044463D01*
X1046963Y774376D01*
X1034463Y766876D02*
X1036963Y769376D01*
X1034463Y776876D02*
X1036963Y774376D01*
X1029463Y776876D02*
X1034463D01*
X1059463Y766876D02*
X1064463D01*
X1056963Y769376D02*
X1059463Y766876D01*
X1056963Y769376D02*
Y774376D01*
X1059463Y776876D01*
X1054463Y766876D02*
X1056963Y769376D01*
X1049463Y766876D02*
X1054463D01*
X1046963Y769376D02*
X1049463Y766876D01*
X1046963Y769376D02*
Y774376D01*
X1049463Y776876D01*
X1054463D01*
X1056963Y774376D01*
X1074463Y766876D02*
X1076963Y769376D01*
X1069463Y766876D02*
X1074463D01*
X1066963Y769376D02*
X1069463Y766876D01*
X1066963Y769376D02*
Y774376D01*
X1069463Y776876D01*
X1074463D01*
X1076963Y774376D01*
X1064463Y766876D02*
X1066963Y769376D01*
X1064463Y776876D02*
X1066963Y774376D01*
X1059463Y776876D02*
X1064463D01*
X1089463Y766876D02*
X1094463D01*
X1086963Y769376D02*
X1089463Y766876D01*
X1086963Y769376D02*
Y774376D01*
X1089463Y776876D01*
X1084463Y766876D02*
X1086963Y769376D01*
X1079463Y766876D02*
X1084463D01*
X1076963Y769376D02*
X1079463Y766876D01*
X1076963Y769376D02*
Y774376D01*
X1079463Y776876D01*
X1084463D01*
X1086963Y774376D01*
X1096963Y769376D02*
Y774376D01*
X1094463Y766876D02*
X1096963Y769376D01*
X1094463Y776876D02*
X1096963Y774376D01*
X1089463Y776876D02*
X1094463D01*
X999463Y766876D02*
X1004463D01*
X996963Y769376D02*
X999463Y766876D01*
X996963Y769376D02*
Y774376D01*
X999463Y776876D01*
X1004463Y766876D02*
X1006963Y769376D01*
X1004463Y776876D02*
X1006963Y774376D01*
X999463Y776876D02*
X1004463D01*
X1115463Y766876D02*
X1120463D01*
X1112963Y769376D02*
X1115463Y766876D01*
X1112963Y769376D02*
Y774376D01*
X1115463Y776876D01*
X1130463Y766876D02*
X1132963Y769376D01*
X1125463Y766876D02*
X1130463D01*
X1122963Y769376D02*
X1125463Y766876D01*
X1122963Y769376D02*
Y774376D01*
X1125463Y776876D01*
X1130463D01*
X1132963Y774376D01*
X1120463Y766876D02*
X1122963Y769376D01*
X1120463Y776876D02*
X1122963Y774376D01*
X1115463Y776876D02*
X1120463D01*
X1145463Y766876D02*
X1150463D01*
X1142963Y769376D02*
X1145463Y766876D01*
X1142963Y769376D02*
Y774376D01*
X1145463Y776876D01*
X1140463Y766876D02*
X1142963Y769376D01*
X1135463Y766876D02*
X1140463D01*
X1132963Y769376D02*
X1135463Y766876D01*
X1132963Y769376D02*
Y774376D01*
X1135463Y776876D01*
X1140463D01*
X1142963Y774376D01*
X1160463Y766876D02*
X1162963Y769376D01*
X1155463Y766876D02*
X1160463D01*
X1152963Y769376D02*
X1155463Y766876D01*
X1152963Y769376D02*
Y774376D01*
X1155463Y776876D01*
X1160463D01*
X1162963Y774376D01*
X1150463Y766876D02*
X1152963Y769376D01*
X1150463Y776876D02*
X1152963Y774376D01*
X1145463Y776876D02*
X1150463D01*
X1175463Y766876D02*
X1180463D01*
X1172963Y769376D02*
X1175463Y766876D01*
X1172963Y769376D02*
Y774376D01*
X1175463Y776876D01*
X1170463Y766876D02*
X1172963Y769376D01*
X1165463Y766876D02*
X1170463D01*
X1162963Y769376D02*
X1165463Y766876D01*
X1162963Y769376D02*
Y774376D01*
X1165463Y776876D01*
X1170463D01*
X1172963Y774376D01*
X1182963Y769376D02*
Y774376D01*
X1180463Y766876D02*
X1182963Y769376D01*
X1180463Y776876D02*
X1182963Y774376D01*
X1175463Y776876D02*
X1180463D01*
X1105463Y766876D02*
X1110463D01*
X1102963Y769376D02*
X1105463Y766876D01*
X1102963Y769376D02*
Y774376D01*
X1105463Y776876D01*
X1110463Y766876D02*
X1112963Y769376D01*
X1110463Y776876D02*
X1112963Y774376D01*
X1105463Y776876D02*
X1110463D01*
X1238238Y719161D02*
Y721523D01*
X1242175Y719161D02*
Y721523D01*
X1243380Y719940D02*
Y721765D01*
X1246530Y719940D02*
Y721765D01*
X1243184Y731863D02*
Y733463D01*
X1240034Y731863D02*
Y733463D01*
X1243971Y731800D02*
Y733400D01*
X1247120Y731800D02*
Y733400D01*
X1021998Y639553D02*
X1026428D01*
X1019144Y636698D02*
X1021998Y639553D01*
X1019144Y618687D02*
Y636698D01*
X1066191Y639553D02*
X1073475D01*
Y618687D02*
Y639553D01*
X1019144Y618687D02*
X1026428D01*
X1066191D02*
X1073475D01*
X1031525Y609041D02*
X1033125D01*
X1031525Y612190D02*
X1033125D01*
X979601Y705713D02*
Y707313D01*
X982750Y705713D02*
Y707313D01*
X986687Y705713D02*
Y707313D01*
X983538Y705713D02*
Y707313D01*
X991018Y690537D02*
Y692899D01*
X994955Y690537D02*
Y692899D01*
X994561Y699664D02*
Y701489D01*
X991412Y699664D02*
Y701489D01*
X983538Y680682D02*
Y682282D01*
X986687Y680682D02*
Y682282D01*
X977632Y680650D02*
Y682250D01*
X980782Y680650D02*
Y682250D01*
X1211097Y761359D02*
Y762959D01*
X1207947Y761359D02*
Y762959D01*
X989443Y697624D02*
Y701561D01*
Y688962D02*
Y692899D01*
X988262Y688962D02*
X989443D01*
X976845D02*
X978026D01*
X976845D02*
Y692899D01*
Y701561D02*
X978026D01*
X976845Y697624D02*
Y701561D01*
X1215034Y761359D02*
Y762959D01*
X1211884Y761359D02*
Y762959D01*
X992743Y737194D02*
Y764194D01*
X991743Y737194D02*
X992743D01*
X970743D02*
X985743D01*
X956743D02*
X965743D01*
X951743Y749194D02*
Y764194D01*
X1039431Y609041D02*
X1041031D01*
X1039431Y612190D02*
X1041031D01*
X1000861Y698411D02*
Y700773D01*
X996924Y698411D02*
Y700773D01*
X988656Y727026D02*
Y728851D01*
X985506Y727026D02*
Y728851D01*
X983144Y725773D02*
Y728135D01*
X979207Y725773D02*
Y728135D01*
D13*
X1246924Y641143D02*
Y661797D01*
Y651954D02*
Y667702D01*
X1221333Y648017D02*
X1246924D01*
X1221333Y654798D02*
X1246924D01*
X1221333Y641076D02*
Y661797D01*
X1246924D01*
X1221333Y651954D02*
Y667702D01*
X1246924D01*
X1221333Y673608D02*
X1246924D01*
X1221333Y679513D02*
X1246924D01*
X1221333Y685419D02*
X1246924D01*
X1234128Y641076D02*
Y691324D01*
X1221333Y641076D02*
Y691324D01*
Y641076D02*
X1246924D01*
Y691324D01*
X1221333D02*
X1246924D01*
X1166801Y664865D02*
X1167401D01*
X1166801Y662665D02*
X1167401D01*
X1172989Y662383D02*
Y662983D01*
X1175189Y662383D02*
Y662983D01*
X1249384Y708253D02*
Y737387D01*
Y708253D02*
X1272022D01*
Y737387D01*
X1249384D02*
X1272022D01*
X991412Y725576D02*
Y730301D01*
X994561D01*
Y725576D02*
Y730301D01*
X991412Y725576D02*
X994561D01*
X1233528Y696239D02*
X1232529D01*
X1233029D01*
Y693739D01*
X1232529Y693239D01*
X1232029D01*
X1231529Y693739D01*
X1236028Y693239D02*
Y696239D01*
X1234528Y694739D01*
X1236527D01*
X1240503Y650295D02*
X1241502D01*
X1241002D01*
Y653294D01*
X1240503Y652794D01*
X1228947Y650020D02*
X1226947D01*
X1228947Y652019D01*
Y652519D01*
X1228447Y653019D01*
X1227447D01*
X1226947Y652519D01*
X1239746Y659675D02*
X1240246Y660175D01*
X1241245D01*
X1241745Y659675D01*
Y659175D01*
X1241245Y658675D01*
X1240745D01*
X1241245D01*
X1241745Y658176D01*
Y657676D01*
X1241245Y657176D01*
X1240246D01*
X1239746Y657676D01*
X1228103Y656970D02*
Y659969D01*
X1226603Y658469D01*
X1228603D01*
X1242172Y666568D02*
X1240173D01*
Y665068D01*
X1241173Y665568D01*
X1241672D01*
X1242172Y665068D01*
Y664068D01*
X1241672Y663569D01*
X1240673D01*
X1240173Y664068D01*
X1228855Y666568D02*
X1227856Y666068D01*
X1226856Y665068D01*
Y664068D01*
X1227356Y663569D01*
X1228356D01*
X1228855Y664068D01*
Y664568D01*
X1228356Y665068D01*
X1226856D01*
X1226781Y669711D02*
X1227281Y669211D01*
X1228280D01*
X1228780Y669711D01*
Y671710D01*
X1228280Y672210D01*
X1227281D01*
X1226781Y671710D01*
Y671211D01*
X1227281Y670711D01*
X1228780D01*
X1240248Y672436D02*
X1242247D01*
Y671936D01*
X1240248Y669937D01*
Y669437D01*
X1239571Y675655D02*
X1240071Y675155D01*
X1241070D01*
X1241570Y675655D01*
Y677654D01*
X1241070Y678154D01*
X1240071D01*
X1239571Y677654D01*
Y677154D01*
X1240071Y676654D01*
X1241570D01*
X1225276Y675004D02*
X1226276D01*
X1225776D01*
Y678004D01*
X1225276Y677504D01*
X1227775D02*
X1228275Y678004D01*
X1229275D01*
X1229775Y677504D01*
Y675504D01*
X1229275Y675004D01*
X1228275D01*
X1227775Y675504D01*
Y677504D01*
X1238743Y681174D02*
X1239743D01*
X1239243D01*
Y684173D01*
X1238743Y683673D01*
X1241243Y681174D02*
X1242242D01*
X1241742D01*
Y684173D01*
X1241243Y683673D01*
X1225126Y681324D02*
X1226125D01*
X1225626D01*
Y684323D01*
X1225126Y683823D01*
X1229624Y681324D02*
X1227625D01*
X1229624Y683324D01*
Y683823D01*
X1229124Y684323D01*
X1228125D01*
X1227625Y683823D01*
X1225994Y645497D02*
X1225494Y645996D01*
X1224494D01*
X1223994Y645497D01*
Y643497D01*
X1224494Y642997D01*
X1225494D01*
X1225994Y643497D01*
Y644497D01*
X1224994D01*
X1226993Y642997D02*
Y645996D01*
X1228993Y642997D01*
Y645996D01*
X1229992D02*
Y642997D01*
X1231492D01*
X1231992Y643497D01*
Y645497D01*
X1231492Y645996D01*
X1229992D01*
X1236888Y645725D02*
X1237388Y646225D01*
X1238388D01*
X1238888Y645725D01*
Y645225D01*
X1238388Y644726D01*
X1237888D01*
X1238388D01*
X1238888Y644226D01*
Y643726D01*
X1238388Y643226D01*
X1237388D01*
X1236888Y643726D01*
X1239887Y646225D02*
Y644226D01*
X1240887Y643226D01*
X1241887Y644226D01*
Y646225D01*
X1242886Y645725D02*
X1243386Y646225D01*
X1244386D01*
X1244886Y645725D01*
Y645225D01*
X1244386Y644726D01*
X1243886D01*
X1244386D01*
X1244886Y644226D01*
Y643726D01*
X1244386Y643226D01*
X1243386D01*
X1242886Y643726D01*
X1236185Y689391D02*
X1236685Y689891D01*
X1237685D01*
X1238185Y689391D01*
Y688891D01*
X1237685Y688391D01*
X1237185D01*
X1237685D01*
X1238185Y687891D01*
Y687392D01*
X1237685Y686892D01*
X1236685D01*
X1236185Y687392D01*
X1239184Y689891D02*
Y687891D01*
X1240184Y686892D01*
X1241184Y687891D01*
Y689891D01*
X1242183Y689391D02*
X1242683Y689891D01*
X1243683D01*
X1244183Y689391D01*
Y688891D01*
X1243683Y688391D01*
X1243183D01*
X1243683D01*
X1244183Y687891D01*
Y687392D01*
X1243683Y686892D01*
X1242683D01*
X1242183Y687392D01*
X1225696Y689165D02*
X1225196Y689665D01*
X1224196D01*
X1223696Y689165D01*
Y687166D01*
X1224196Y686666D01*
X1225196D01*
X1225696Y687166D01*
Y688166D01*
X1224696D01*
X1226695Y686666D02*
Y689665D01*
X1228695Y686666D01*
Y689665D01*
X1229694D02*
Y686666D01*
X1231194D01*
X1231693Y687166D01*
Y689165D01*
X1231194Y689665D01*
X1229694D01*
X1237581Y740099D02*
Y737100D01*
X1239081D01*
X1239581Y737600D01*
Y738100D01*
X1239081Y738599D01*
X1237581D01*
X1239081D01*
X1239581Y739099D01*
Y739599D01*
X1239081Y740099D01*
X1237581D01*
X1241580Y737100D02*
X1240580Y738100D01*
Y739099D01*
X1241580Y740099D01*
X1243079Y738599D02*
X1245079D01*
X1244079Y739599D02*
Y737600D01*
X1246078Y737100D02*
X1247078Y738100D01*
Y739099D01*
X1246078Y740099D01*
X1237581Y712540D02*
Y709541D01*
X1239081D01*
X1239581Y710041D01*
Y710541D01*
X1239081Y711040D01*
X1237581D01*
X1239081D01*
X1239581Y711540D01*
Y712040D01*
X1239081Y712540D01*
X1237581D01*
X1241580Y709541D02*
X1240580Y710541D01*
Y711540D01*
X1241580Y712540D01*
X1243079Y711040D02*
X1245079D01*
X1246078Y709541D02*
X1247078Y710541D01*
Y711540D01*
X1246078Y712540D01*
X1145499Y671578D02*
X1150498D01*
X1151497Y672577D01*
Y674577D01*
X1150498Y675576D01*
X1145499D01*
X1151497Y677576D02*
Y679575D01*
Y678575D01*
X1145499D01*
X1146499Y677576D01*
X1257735Y613615D02*
X1255736D01*
X1256735D01*
Y608616D01*
X1255736Y607617D01*
X1254736D01*
X1253736Y608616D01*
X1262733Y607617D02*
Y613615D01*
X1259734Y610616D01*
X1263733D01*
X969945Y691700D02*
X974110D01*
X974943Y692533D01*
Y694200D01*
X974110Y695033D01*
X969945D01*
X970778Y696699D02*
X969945Y697532D01*
Y699198D01*
X970778Y700031D01*
X971611D01*
X972444Y699198D01*
X973277Y700031D01*
X974110D01*
X974943Y699198D01*
Y697532D01*
X974110Y696699D01*
X973277D01*
X972444Y697532D01*
X971611Y696699D01*
X970778D01*
X972444Y697532D02*
Y699198D01*
X995893Y741506D02*
Y739506D01*
Y740506D01*
X1000891D01*
X1001891Y739506D01*
Y738507D01*
X1000891Y737507D01*
X1001891Y747504D02*
Y743505D01*
X997892Y747504D01*
X996893D01*
X995893Y746504D01*
Y744505D01*
X996893Y743505D01*
X1257735Y745505D02*
X1255736D01*
X1256735D01*
Y740506D01*
X1255736Y739506D01*
X1254736D01*
X1253736Y740506D01*
X1259734Y744505D02*
X1260734Y745505D01*
X1262733D01*
X1263733Y744505D01*
Y743505D01*
X1262733Y742506D01*
X1261734D01*
X1262733D01*
X1263733Y741506D01*
Y740506D01*
X1262733Y739506D01*
X1260734D01*
X1259734Y740506D01*
X1011641Y628332D02*
Y626333D01*
Y627333D01*
X1016640D01*
X1017639Y626333D01*
Y625333D01*
X1016640Y624334D01*
X1017639Y630332D02*
Y632331D01*
Y631331D01*
X1011641D01*
X1012641Y630332D01*
D14*
X1178463Y753376D02*
X1181963Y756876D01*
X1174963D02*
X1178463Y753376D01*
Y754876D02*
Y755376D01*
X1176963Y755876D02*
X1178963D01*
X1176963D02*
X1178463Y754376D01*
X1180463Y756376D01*
X1176463D02*
X1180463D01*
X1166963Y753876D02*
X1168463Y754876D01*
X1166963Y753876D02*
X1169963D01*
X1167963Y755876D02*
X1169963Y753876D01*
X1165963D02*
X1167963Y755876D01*
X1174963Y756876D02*
X1181963D01*
X1164463Y753376D02*
X1167963Y756876D01*
X1171463Y753376D01*
X1164463D02*
X1171463D01*
D15*
X1249798Y637112D02*
Y697112D01*
Y617112D02*
Y637112D01*
Y617112D02*
X1259798D01*
X1269798Y637112D02*
Y697112D01*
X1249798D02*
X1269798D01*
X1259798Y617112D02*
X1269798D01*
Y637112D01*
D16*
X1010734Y780438D02*
X1010234Y780938D01*
X1009235D01*
X1008735Y780438D01*
Y779938D01*
X1009235Y779438D01*
X1010234D01*
X1010734Y778938D01*
Y778438D01*
X1010234Y777939D01*
X1009235D01*
X1008735Y778438D01*
X1011734Y780938D02*
Y777939D01*
X1013233D01*
X1013733Y778438D01*
Y780438D01*
X1013233Y780938D01*
X1011734D01*
X1014733Y777939D02*
Y779938D01*
X1015732Y780938D01*
X1016732Y779938D01*
Y777939D01*
Y779438D01*
X1014733D01*
X1000891Y780438D02*
X1000392Y780938D01*
X999392D01*
X998892Y780438D01*
Y779938D01*
X999392Y779438D01*
X1000392D01*
X1000891Y778938D01*
Y778438D01*
X1000392Y777939D01*
X999392D01*
X998892Y778438D01*
X1003891Y780438D02*
X1003391Y780938D01*
X1002391D01*
X1001891Y780438D01*
Y778438D01*
X1002391Y777939D01*
X1003391D01*
X1003891Y778438D01*
X1004890Y780938D02*
Y777939D01*
X1006890D01*
X1180963Y742876D02*
X1176204D01*
Y745255D01*
X1176998Y746048D01*
X1178584D01*
X1179377Y745255D01*
Y742876D01*
Y744462D02*
X1180963Y746048D01*
X1176204Y747634D02*
X1180963Y750806D01*
X1176204D02*
X1180963Y747634D01*
X1166204Y742976D02*
Y746148D01*
Y744562D01*
X1170963D01*
X1166204Y747734D02*
X1170963Y750906D01*
X1166204D02*
X1170963Y747734D01*
X1043306Y573069D02*
Y576068D01*
X1044806D01*
X1045306Y575568D01*
Y574568D01*
X1044806Y574068D01*
X1043306D01*
X1044306D02*
X1045306Y573069D01*
X1048305Y576068D02*
X1046305D01*
Y573069D01*
X1048305D01*
X1046305Y574568D02*
X1047305D01*
X1051304Y576068D02*
X1049304D01*
Y574568D01*
X1050304D01*
X1049304D01*
Y573069D01*
X1063853Y575713D02*
X1064353Y576213D01*
X1065352D01*
X1065852Y575713D01*
Y575213D01*
X1065352Y574714D01*
X1064852D01*
X1065352D01*
X1065852Y574214D01*
Y573714D01*
X1065352Y573214D01*
X1064353D01*
X1063853Y573714D01*
X1066852Y576213D02*
Y574214D01*
X1067852Y573214D01*
X1068851Y574214D01*
Y576213D01*
X1069851Y575713D02*
X1070351Y576213D01*
X1071350D01*
X1071850Y575713D01*
Y575213D01*
X1071350Y574714D01*
X1070850D01*
X1071350D01*
X1071850Y574214D01*
Y573714D01*
X1071350Y573214D01*
X1070351D01*
X1069851Y573714D01*
X1054010Y573214D02*
Y576213D01*
X1055510D01*
X1056010Y575713D01*
Y574714D01*
X1055510Y574214D01*
X1054010D01*
X1055010D02*
X1056010Y573214D01*
X1059009Y575713D02*
X1058509Y576213D01*
X1057509D01*
X1057009Y575713D01*
Y575213D01*
X1057509Y574714D01*
X1058509D01*
X1059009Y574214D01*
Y573714D01*
X1058509Y573214D01*
X1057509D01*
X1057009Y573714D01*
X1060008Y576213D02*
X1062008D01*
X1061008D01*
Y573214D01*
X1030419Y780438D02*
X1029919Y780938D01*
X1028920D01*
X1028420Y780438D01*
Y778438D01*
X1028920Y777939D01*
X1029919D01*
X1030419Y778438D01*
Y779438D01*
X1029419D01*
X1031419Y777939D02*
Y780938D01*
X1033418Y777939D01*
Y780938D01*
X1034418D02*
Y777939D01*
X1035917D01*
X1036417Y778438D01*
Y780438D01*
X1035917Y780938D01*
X1034418D01*
X1018577Y777939D02*
Y780938D01*
X1020077D01*
X1020576Y780438D01*
Y779438D01*
X1020077Y778938D01*
X1018577D01*
X1019577D02*
X1020576Y777939D01*
X1023575Y780938D02*
X1021576D01*
Y777939D01*
X1023575D01*
X1021576Y779438D02*
X1022576D01*
X1026575Y780938D02*
X1024575D01*
Y779438D01*
X1025575D01*
X1024575D01*
Y777939D01*
D17*
X1176058Y780438D02*
X1176557Y780938D01*
X1177557D01*
X1178057Y780438D01*
Y778438D01*
X1177557Y777939D01*
X1176557D01*
X1176058Y778438D01*
Y780438D01*
X1168184Y777939D02*
X1169183D01*
X1168683D01*
Y780938D01*
X1168184Y780438D01*
X1158372Y777939D02*
X1156373D01*
X1158372Y779938D01*
Y780438D01*
X1157872Y780938D01*
X1156872D01*
X1156373Y780438D01*
X1146530D02*
X1147030Y780938D01*
X1148029D01*
X1148529Y780438D01*
Y779938D01*
X1148029Y779438D01*
X1147530D01*
X1148029D01*
X1148529Y778938D01*
Y778438D01*
X1148029Y777939D01*
X1147030D01*
X1146530Y778438D01*
X1138187Y777939D02*
Y780938D01*
X1136687Y779438D01*
X1138687D01*
X1128844Y780938D02*
X1126845D01*
Y779438D01*
X1127845Y779938D01*
X1128344D01*
X1128844Y779438D01*
Y778438D01*
X1128344Y777939D01*
X1127345D01*
X1126845Y778438D01*
X1119002Y780938D02*
X1118002Y780438D01*
X1117002Y779438D01*
Y778438D01*
X1117502Y777939D01*
X1118502D01*
X1119002Y778438D01*
Y778938D01*
X1118502Y779438D01*
X1117002D01*
X1107160Y780938D02*
X1109159D01*
Y780438D01*
X1107160Y778438D01*
Y777939D01*
X1091412Y780438D02*
X1091912Y780938D01*
X1092911D01*
X1093411Y780438D01*
Y779938D01*
X1092911Y779438D01*
X1093411Y778938D01*
Y778438D01*
X1092911Y777939D01*
X1091912D01*
X1091412Y778438D01*
Y778938D01*
X1091912Y779438D01*
X1091412Y779938D01*
Y780438D01*
X1091912Y779438D02*
X1092911D01*
X1081569Y778438D02*
X1082069Y777939D01*
X1083069D01*
X1083569Y778438D01*
Y780438D01*
X1083069Y780938D01*
X1082069D01*
X1081569Y780438D01*
Y779938D01*
X1082069Y779438D01*
X1083569D01*
X1069758Y777939D02*
X1070758D01*
X1070258D01*
Y780938D01*
X1069758Y780438D01*
X1072258D02*
X1072757Y780938D01*
X1073757D01*
X1074257Y780438D01*
Y778438D01*
X1073757Y777939D01*
X1072757D01*
X1072258Y778438D01*
Y780438D01*
X1059916Y777939D02*
X1060915D01*
X1060416D01*
Y780938D01*
X1059916Y780438D01*
X1062415Y777939D02*
X1063415D01*
X1062915D01*
Y780938D01*
X1062415Y780438D01*
X1050073Y777939D02*
X1051073D01*
X1050573D01*
Y780938D01*
X1050073Y780438D01*
X1054572Y777939D02*
X1052572D01*
X1054572Y779938D01*
Y780438D01*
X1054072Y780938D01*
X1053072D01*
X1052572Y780438D01*
X1040231Y777939D02*
X1041230D01*
X1040731D01*
Y780938D01*
X1040231Y780438D01*
X1042730D02*
X1043230Y780938D01*
X1044229D01*
X1044729Y780438D01*
Y779938D01*
X1044229Y779438D01*
X1043730D01*
X1044229D01*
X1044729Y778938D01*
Y778438D01*
X1044229Y777939D01*
X1043230D01*
X1042730Y778438D01*
X1091443Y575713D02*
X1090943Y576213D01*
X1089943D01*
X1089443Y575713D01*
Y573714D01*
X1089943Y573214D01*
X1090943D01*
X1091443Y573714D01*
Y574714D01*
X1090443D01*
X1092442Y573214D02*
Y576213D01*
X1094442Y573214D01*
Y576213D01*
X1095441D02*
Y573214D01*
X1096941D01*
X1097441Y573714D01*
Y575713D01*
X1096941Y576213D01*
X1095441D01*
X1105191D02*
Y574214D01*
X1106191Y573214D01*
X1107191Y574214D01*
Y576213D01*
X1108190D02*
X1109190D01*
X1108690D01*
Y573214D01*
X1108190D01*
X1109190D01*
X1110690D02*
Y576213D01*
X1112689Y573214D01*
Y576213D01*
X1075695Y575713D02*
X1075195Y576213D01*
X1074195D01*
X1073695Y575713D01*
Y575213D01*
X1074195Y574714D01*
X1075195D01*
X1075695Y574214D01*
Y573714D01*
X1075195Y573214D01*
X1074195D01*
X1073695Y573714D01*
X1076694Y576213D02*
Y575713D01*
X1077694Y574714D01*
X1078694Y575713D01*
Y576213D01*
X1077694Y574714D02*
Y573214D01*
X1081693Y575713D02*
X1081193Y576213D01*
X1080193D01*
X1079693Y575713D01*
Y575213D01*
X1080193Y574714D01*
X1081193D01*
X1081693Y574214D01*
Y573714D01*
X1081193Y573214D01*
X1080193D01*
X1079693Y573714D01*
D18*
X1174863Y573228D02*
Y575227D01*
X1175863Y576227D01*
X1176862Y575227D01*
Y573228D01*
Y574727D01*
X1174863D01*
X1179861Y576227D02*
X1177862D01*
Y574727D01*
X1178862Y575227D01*
X1179362D01*
X1179861Y574727D01*
Y573727D01*
X1179362Y573228D01*
X1178362D01*
X1177862Y573727D01*
X1164863Y573228D02*
Y575227D01*
X1165863Y576227D01*
X1166862Y575227D01*
Y573228D01*
Y574727D01*
X1164863D01*
X1169361Y573228D02*
Y576227D01*
X1167862Y574727D01*
X1169861D01*
X1154863Y573228D02*
Y575227D01*
X1155863Y576227D01*
X1156862Y575227D01*
Y573228D01*
Y574727D01*
X1154863D01*
X1157862Y575727D02*
X1158362Y576227D01*
X1159361D01*
X1159861Y575727D01*
Y575227D01*
X1159361Y574727D01*
X1158862D01*
X1159361D01*
X1159861Y574227D01*
Y573727D01*
X1159361Y573228D01*
X1158362D01*
X1157862Y573727D01*
X1144863Y573228D02*
Y575227D01*
X1145863Y576227D01*
X1146862Y575227D01*
Y573228D01*
Y574727D01*
X1144863D01*
X1149861Y573228D02*
X1147862D01*
X1149861Y575227D01*
Y575727D01*
X1149362Y576227D01*
X1148362D01*
X1147862Y575727D01*
X1134863Y573228D02*
Y575227D01*
X1135863Y576227D01*
X1136862Y575227D01*
Y573228D01*
Y574727D01*
X1134863D01*
X1137862Y573228D02*
X1138862D01*
X1138362D01*
Y576227D01*
X1137862Y575727D01*
X1124863Y573228D02*
Y575227D01*
X1125863Y576227D01*
X1126862Y575227D01*
Y573228D01*
Y574727D01*
X1124863D01*
X1127862Y575727D02*
X1128362Y576227D01*
X1129362D01*
X1129861Y575727D01*
Y573727D01*
X1129362Y573228D01*
X1128362D01*
X1127862Y573727D01*
Y575727D01*
D19*
X1009719Y597821D02*
D03*
D20*
X1276514Y777976D02*
G03*
X1272514Y781876I-3950J-50D01*
G01*
X1272614Y571876D02*
G03*
X1276514Y575876I-50J3950D01*
G01*
X927963Y575876D02*
G03*
X931963Y571876I4000J0D01*
G01*
Y781876D02*
G03*
X927963Y777976I-50J-3950D01*
G01*
X1276514Y575876D02*
Y777976D01*
X1181963Y781876D02*
X1272514D01*
X931963D02*
X1181963D01*
X931963Y571876D02*
X1272614D01*
X927963Y575876D02*
Y777976D01*
M02*
