G04*
G04 #@! TF.GenerationSoftware,Altium Limited,Altium Designer,24.5.2 (23)*
G04*
G04 Layer_Physical_Order=2*
G04 Layer_Color=36540*
%FSLAX25Y25*%
%MOIN*%
G70*
G04*
G04 #@! TF.SameCoordinates,F16C448E-738A-4C22-B855-8D49D10EB716*
G04*
G04*
G04 #@! TF.FilePolarity,Positive*
G04*
G01*
G75*
%ADD20C,0.00100*%
%ADD65C,0.27559*%
%ADD66C,0.07400*%
%ADD68C,0.09055*%
%ADD69R,0.05937X0.05937*%
%ADD71C,0.12000*%
%ADD72O,0.05906X0.11811*%
%ADD73O,0.05906X0.12992*%
%ADD75C,0.02000*%
G36*
X931960Y781602D02*
X931962Y781603D01*
X931964Y781602D01*
X1273235Y781602D01*
X1273238Y781594D01*
X1273322Y781560D01*
X1273395Y781508D01*
X1273693Y781439D01*
X1274259Y781203D01*
X1274778Y780877D01*
X1275236Y780470D01*
X1275621Y779993D01*
X1275921Y779459D01*
X1276128Y778882D01*
X1276237Y778279D01*
X1276241Y777975D01*
X1276241Y575876D01*
X1276241Y575875D01*
X1276241Y575874D01*
X1276241Y575825D01*
X1276241Y575466D01*
X1276102Y574761D01*
X1275829Y574097D01*
X1275433Y573497D01*
X1274928Y572986D01*
X1274334Y572582D01*
X1273672Y572301D01*
X1272969Y572153D01*
X1272612Y572149D01*
X931596D01*
X930876Y572292D01*
X930198Y572573D01*
X929587Y572981D01*
X929068Y573500D01*
X928660Y574110D01*
X928379Y574789D01*
X928236Y575508D01*
Y575876D01*
Y777975D01*
X928241Y778334D01*
X928391Y779043D01*
X928677Y779708D01*
X929087Y780306D01*
X929605Y780811D01*
X930213Y781206D01*
X930885Y781475D01*
X931597Y781607D01*
X931960Y781602D01*
D02*
G37*
%LPC*%
G36*
X1217146Y776223D02*
X1216589D01*
X1216075Y776009D01*
X1215681Y775616D01*
X1215468Y775101D01*
Y774544D01*
X1215681Y774029D01*
X1216075Y773636D01*
X1216589Y773422D01*
X1217146D01*
X1217661Y773636D01*
X1218054Y774029D01*
X1218268Y774544D01*
Y775101D01*
X1218054Y775616D01*
X1217661Y776009D01*
X1217146Y776223D01*
D02*
G37*
G36*
X1178612Y776803D02*
X1177314D01*
X1176061Y776467D01*
X1174937Y775819D01*
X1174020Y774901D01*
X1173371Y773778D01*
X1173274Y773413D01*
X1172652D01*
X1172555Y773778D01*
X1171906Y774901D01*
X1170989Y775819D01*
X1169865Y776467D01*
X1168612Y776803D01*
X1167314D01*
X1166061Y776467D01*
X1164937Y775819D01*
X1164020Y774901D01*
X1163371Y773778D01*
X1163274Y773413D01*
X1162652D01*
X1162555Y773778D01*
X1161906Y774901D01*
X1160989Y775819D01*
X1159865Y776467D01*
X1158612Y776803D01*
X1157314D01*
X1156061Y776467D01*
X1154937Y775819D01*
X1154020Y774901D01*
X1153371Y773778D01*
X1153274Y773413D01*
X1152652D01*
X1152555Y773778D01*
X1151906Y774901D01*
X1150989Y775819D01*
X1149865Y776467D01*
X1148612Y776803D01*
X1147314D01*
X1146061Y776467D01*
X1144937Y775819D01*
X1144020Y774901D01*
X1143371Y773778D01*
X1143274Y773413D01*
X1142652D01*
X1142555Y773778D01*
X1141906Y774901D01*
X1140989Y775819D01*
X1139865Y776467D01*
X1138612Y776803D01*
X1137314D01*
X1136061Y776467D01*
X1134937Y775819D01*
X1134020Y774901D01*
X1133371Y773778D01*
X1133274Y773413D01*
X1132652D01*
X1132555Y773778D01*
X1131906Y774901D01*
X1130989Y775819D01*
X1129865Y776467D01*
X1128612Y776803D01*
X1127314D01*
X1126061Y776467D01*
X1124937Y775819D01*
X1124020Y774901D01*
X1123371Y773778D01*
X1123274Y773413D01*
X1122652D01*
X1122555Y773778D01*
X1121906Y774901D01*
X1120989Y775819D01*
X1119865Y776467D01*
X1118612Y776803D01*
X1117314D01*
X1116061Y776467D01*
X1114937Y775819D01*
X1114020Y774901D01*
X1113371Y773778D01*
X1113274Y773413D01*
X1112652D01*
X1112555Y773778D01*
X1111906Y774901D01*
X1110989Y775819D01*
X1109865Y776467D01*
X1108612Y776803D01*
X1107314D01*
X1106061Y776467D01*
X1104937Y775819D01*
X1104020Y774901D01*
X1103371Y773778D01*
X1103035Y772524D01*
Y771227D01*
X1103371Y769974D01*
X1104020Y768850D01*
X1104937Y767933D01*
X1106061Y767284D01*
X1107314Y766948D01*
X1108612D01*
X1109865Y767284D01*
X1110989Y767933D01*
X1111906Y768850D01*
X1112555Y769974D01*
X1112652Y770338D01*
X1113274D01*
X1113371Y769974D01*
X1114020Y768850D01*
X1114937Y767933D01*
X1116061Y767284D01*
X1117314Y766948D01*
X1118612D01*
X1119865Y767284D01*
X1120989Y767933D01*
X1121906Y768850D01*
X1122555Y769974D01*
X1122652Y770338D01*
X1123274D01*
X1123371Y769974D01*
X1124020Y768850D01*
X1124937Y767933D01*
X1126061Y767284D01*
X1127314Y766948D01*
X1128612D01*
X1129865Y767284D01*
X1130989Y767933D01*
X1131906Y768850D01*
X1132555Y769974D01*
X1132652Y770338D01*
X1133274D01*
X1133371Y769974D01*
X1134020Y768850D01*
X1134937Y767933D01*
X1136061Y767284D01*
X1137314Y766948D01*
X1138612D01*
X1139865Y767284D01*
X1140989Y767933D01*
X1141906Y768850D01*
X1142555Y769974D01*
X1142652Y770338D01*
X1143274D01*
X1143371Y769974D01*
X1144020Y768850D01*
X1144937Y767933D01*
X1146061Y767284D01*
X1147314Y766948D01*
X1148612D01*
X1149865Y767284D01*
X1150989Y767933D01*
X1151906Y768850D01*
X1152555Y769974D01*
X1152652Y770338D01*
X1153274D01*
X1153371Y769974D01*
X1154020Y768850D01*
X1154937Y767933D01*
X1156061Y767284D01*
X1157314Y766948D01*
X1158612D01*
X1159865Y767284D01*
X1160989Y767933D01*
X1161906Y768850D01*
X1162555Y769974D01*
X1162652Y770338D01*
X1163274D01*
X1163371Y769974D01*
X1164020Y768850D01*
X1164937Y767933D01*
X1166061Y767284D01*
X1167314Y766948D01*
X1168612D01*
X1169865Y767284D01*
X1170989Y767933D01*
X1171906Y768850D01*
X1172555Y769974D01*
X1172652Y770338D01*
X1173274D01*
X1173371Y769974D01*
X1174020Y768850D01*
X1174937Y767933D01*
X1176061Y767284D01*
X1177314Y766948D01*
X1178612D01*
X1179865Y767284D01*
X1180989Y767933D01*
X1181906Y768850D01*
X1182555Y769974D01*
X1182891Y771227D01*
Y772524D01*
X1182555Y773778D01*
X1181906Y774901D01*
X1180989Y775819D01*
X1179865Y776467D01*
X1178612Y776803D01*
D02*
G37*
G36*
X1092612D02*
X1091314D01*
X1090061Y776467D01*
X1088937Y775819D01*
X1088020Y774901D01*
X1087371Y773778D01*
X1087274Y773413D01*
X1086652D01*
X1086555Y773778D01*
X1085906Y774901D01*
X1084989Y775819D01*
X1083865Y776467D01*
X1082612Y776803D01*
X1081314D01*
X1080061Y776467D01*
X1078937Y775819D01*
X1078020Y774901D01*
X1077371Y773778D01*
X1077274Y773413D01*
X1076652D01*
X1076555Y773778D01*
X1075906Y774901D01*
X1074989Y775819D01*
X1073865Y776467D01*
X1072612Y776803D01*
X1071314D01*
X1070061Y776467D01*
X1068937Y775819D01*
X1068020Y774901D01*
X1067371Y773778D01*
X1067274Y773413D01*
X1066652D01*
X1066555Y773778D01*
X1065906Y774901D01*
X1064989Y775819D01*
X1063865Y776467D01*
X1062612Y776803D01*
X1061314D01*
X1060061Y776467D01*
X1058937Y775819D01*
X1058020Y774901D01*
X1057371Y773778D01*
X1057274Y773413D01*
X1056652D01*
X1056555Y773778D01*
X1055906Y774901D01*
X1054989Y775819D01*
X1053865Y776467D01*
X1052612Y776803D01*
X1051314D01*
X1050061Y776467D01*
X1048937Y775819D01*
X1048020Y774901D01*
X1047371Y773778D01*
X1047274Y773413D01*
X1046652D01*
X1046555Y773778D01*
X1045906Y774901D01*
X1044989Y775819D01*
X1043865Y776467D01*
X1042612Y776803D01*
X1041314D01*
X1040061Y776467D01*
X1038937Y775819D01*
X1038020Y774901D01*
X1037371Y773778D01*
X1037035Y772524D01*
Y771227D01*
X1037371Y769974D01*
X1038020Y768850D01*
X1038937Y767933D01*
X1040061Y767284D01*
X1041314Y766948D01*
X1042612D01*
X1043865Y767284D01*
X1044989Y767933D01*
X1045906Y768850D01*
X1046555Y769974D01*
X1046652Y770338D01*
X1047274D01*
X1047371Y769974D01*
X1048020Y768850D01*
X1048937Y767933D01*
X1050061Y767284D01*
X1051314Y766948D01*
X1052612D01*
X1053865Y767284D01*
X1054989Y767933D01*
X1055906Y768850D01*
X1056555Y769974D01*
X1056652Y770338D01*
X1057274D01*
X1057371Y769974D01*
X1058020Y768850D01*
X1058937Y767933D01*
X1060061Y767284D01*
X1061314Y766948D01*
X1062612D01*
X1063865Y767284D01*
X1064989Y767933D01*
X1065906Y768850D01*
X1066555Y769974D01*
X1066652Y770338D01*
X1067274D01*
X1067371Y769974D01*
X1068020Y768850D01*
X1068937Y767933D01*
X1070061Y767284D01*
X1071314Y766948D01*
X1072612D01*
X1073865Y767284D01*
X1074989Y767933D01*
X1075906Y768850D01*
X1076555Y769974D01*
X1076652Y770338D01*
X1077274D01*
X1077371Y769974D01*
X1078020Y768850D01*
X1078937Y767933D01*
X1080061Y767284D01*
X1081314Y766948D01*
X1082612D01*
X1083865Y767284D01*
X1084989Y767933D01*
X1085906Y768850D01*
X1086555Y769974D01*
X1086652Y770338D01*
X1087274D01*
X1087371Y769974D01*
X1088020Y768850D01*
X1088937Y767933D01*
X1090061Y767284D01*
X1091314Y766948D01*
X1092612D01*
X1093865Y767284D01*
X1094989Y767933D01*
X1095906Y768850D01*
X1096555Y769974D01*
X1096891Y771227D01*
Y772524D01*
X1096555Y773778D01*
X1095906Y774901D01*
X1094989Y775819D01*
X1093865Y776467D01*
X1092612Y776803D01*
D02*
G37*
G36*
X1022612D02*
X1021314D01*
X1020061Y776467D01*
X1018937Y775819D01*
X1018020Y774901D01*
X1017371Y773778D01*
X1017274Y773413D01*
X1016652D01*
X1016555Y773778D01*
X1015906Y774901D01*
X1014989Y775819D01*
X1013865Y776467D01*
X1012612Y776803D01*
X1011314D01*
X1010061Y776467D01*
X1008937Y775819D01*
X1008020Y774901D01*
X1007371Y773778D01*
X1007274Y773413D01*
X1006652D01*
X1006555Y773778D01*
X1005906Y774901D01*
X1004989Y775819D01*
X1003865Y776467D01*
X1002612Y776803D01*
X1001314D01*
X1000061Y776467D01*
X998937Y775819D01*
X998020Y774901D01*
X997371Y773778D01*
X997035Y772524D01*
Y771227D01*
X997371Y769974D01*
X998020Y768850D01*
X998937Y767933D01*
X1000061Y767284D01*
X1001314Y766948D01*
X1002612D01*
X1003865Y767284D01*
X1004989Y767933D01*
X1005906Y768850D01*
X1006555Y769974D01*
X1006652Y770338D01*
X1007274D01*
X1007371Y769974D01*
X1008020Y768850D01*
X1008937Y767933D01*
X1010061Y767284D01*
X1011314Y766948D01*
X1012612D01*
X1013865Y767284D01*
X1014989Y767933D01*
X1015906Y768850D01*
X1016555Y769974D01*
X1016652Y770338D01*
X1017274D01*
X1017371Y769974D01*
X1018020Y768850D01*
X1018937Y767933D01*
X1020061Y767284D01*
X1021314Y766948D01*
X1022612D01*
X1023865Y767284D01*
X1024989Y767933D01*
X1025906Y768850D01*
X1026555Y769974D01*
X1026891Y771227D01*
Y772524D01*
X1026555Y773778D01*
X1025906Y774901D01*
X1024989Y775819D01*
X1023865Y776467D01*
X1022612Y776803D01*
D02*
G37*
G36*
X1206737Y776059D02*
X1206180D01*
X1205666Y775846D01*
X1205272Y775452D01*
X1205059Y774937D01*
Y774380D01*
X1205272Y773866D01*
X1205666Y773472D01*
X1206180Y773259D01*
X1206737D01*
X1207252Y773472D01*
X1207646Y773866D01*
X1207859Y774380D01*
Y774937D01*
X1207646Y775452D01*
X1207252Y775846D01*
X1206737Y776059D01*
D02*
G37*
G36*
X1213781Y758574D02*
X1213224D01*
X1212710Y758361D01*
X1212316Y757967D01*
X1212103Y757452D01*
Y756895D01*
X1212316Y756381D01*
X1212710Y755987D01*
X1213224Y755774D01*
X1213781D01*
X1214296Y755987D01*
X1214690Y756381D01*
X1214903Y756895D01*
Y757452D01*
X1214690Y757967D01*
X1214296Y758361D01*
X1213781Y758574D01*
D02*
G37*
G36*
X1239328Y757685D02*
X1238771D01*
X1238257Y757472D01*
X1237863Y757078D01*
X1237650Y756564D01*
Y756007D01*
X1237863Y755492D01*
X1238257Y755098D01*
X1238771Y754885D01*
X1239328D01*
X1239843Y755098D01*
X1240236Y755492D01*
X1240450Y756007D01*
Y756564D01*
X1240236Y757078D01*
X1239843Y757472D01*
X1239328Y757685D01*
D02*
G37*
G36*
X1235391D02*
X1234834D01*
X1234320Y757472D01*
X1233926Y757078D01*
X1233713Y756564D01*
Y756007D01*
X1233926Y755492D01*
X1234320Y755098D01*
X1234834Y754885D01*
X1235391D01*
X1235906Y755098D01*
X1236300Y755492D01*
X1236513Y756007D01*
Y756564D01*
X1236300Y757078D01*
X1235906Y757472D01*
X1235391Y757685D01*
D02*
G37*
G36*
X1227517D02*
X1226960D01*
X1226445Y757472D01*
X1226052Y757078D01*
X1225839Y756564D01*
Y756007D01*
X1226052Y755492D01*
X1226445Y755098D01*
X1226960Y754885D01*
X1227517D01*
X1228032Y755098D01*
X1228425Y755492D01*
X1228639Y756007D01*
Y756564D01*
X1228425Y757078D01*
X1228032Y757472D01*
X1227517Y757685D01*
D02*
G37*
G36*
X1223580D02*
X1223023D01*
X1222509Y757472D01*
X1222115Y757078D01*
X1221902Y756564D01*
Y756007D01*
X1222115Y755492D01*
X1222509Y755098D01*
X1223023Y754885D01*
X1223580D01*
X1224095Y755098D01*
X1224488Y755492D01*
X1224702Y756007D01*
Y756564D01*
X1224488Y757078D01*
X1224095Y757472D01*
X1223580Y757685D01*
D02*
G37*
G36*
X954751Y749726D02*
X953875Y749611D01*
X953060Y749273D01*
X952359Y748735D01*
X951822Y748035D01*
X951484Y747219D01*
X951369Y746344D01*
Y740439D01*
X951484Y739563D01*
X951822Y738748D01*
X952359Y738047D01*
X953060Y737510D01*
X953875Y737172D01*
X954751Y737057D01*
X955626Y737172D01*
X956441Y737510D01*
X957142Y738047D01*
X957679Y738748D01*
X958017Y739563D01*
X958132Y740439D01*
Y746344D01*
X958017Y747219D01*
X957679Y748035D01*
X957142Y748735D01*
X956441Y749273D01*
X955626Y749611D01*
X954751Y749726D01*
D02*
G37*
G36*
X1237360Y736031D02*
X1236803D01*
X1236288Y735818D01*
X1235894Y735425D01*
X1235681Y734910D01*
Y734353D01*
X1235894Y733839D01*
X1236288Y733445D01*
X1236803Y733231D01*
X1237360D01*
X1237874Y733445D01*
X1238268Y733839D01*
X1238481Y734353D01*
Y734910D01*
X1238268Y735425D01*
X1237874Y735818D01*
X1237360Y736031D01*
D02*
G37*
G36*
X1239222Y730791D02*
X1238665D01*
X1238151Y730578D01*
X1237757Y730184D01*
X1237544Y729670D01*
Y729113D01*
X1237757Y728598D01*
X1237942Y728413D01*
X1238127Y728137D01*
X1237950Y727638D01*
X1237863Y727551D01*
X1237650Y727036D01*
Y726479D01*
X1237863Y725964D01*
X1238257Y725571D01*
X1238771Y725357D01*
X1239328D01*
X1239843Y725571D01*
X1240236Y725964D01*
X1240450Y726479D01*
Y727036D01*
X1240236Y727551D01*
X1240052Y727735D01*
X1239866Y728011D01*
X1240043Y728511D01*
X1240131Y728598D01*
X1240344Y729113D01*
Y729670D01*
X1240131Y730184D01*
X1239737Y730578D01*
X1239222Y730791D01*
D02*
G37*
G36*
X1259080Y731110D02*
X1258193D01*
X1257336Y730881D01*
X1256568Y730437D01*
X1255941Y729810D01*
X1255497Y729042D01*
X1255268Y728185D01*
Y727298D01*
X1255497Y726441D01*
X1255941Y725673D01*
X1256568Y725046D01*
X1257336Y724603D01*
X1258193Y724373D01*
X1259080D01*
X1259936Y724603D01*
X1260705Y725046D01*
X1261332Y725673D01*
X1261775Y726441D01*
X1262005Y727298D01*
Y728185D01*
X1261775Y729042D01*
X1261332Y729810D01*
X1260705Y730437D01*
X1259936Y730881D01*
X1259080Y731110D01*
D02*
G37*
G36*
X1032093Y722252D02*
X1031536D01*
X1031021Y722039D01*
X1030627Y721645D01*
X1030414Y721131D01*
X1029820D01*
X1029607Y721645D01*
X1029213Y722039D01*
X1028698Y722252D01*
X1028141D01*
X1027627Y722039D01*
X1027233Y721645D01*
X1027020Y721131D01*
Y720574D01*
X1027233Y720059D01*
X1027627Y719665D01*
X1028141Y719452D01*
X1028698D01*
X1029213Y719665D01*
X1029607Y720059D01*
X1029820Y720574D01*
X1030414D01*
X1030627Y720059D01*
X1031021Y719665D01*
X1031536Y719452D01*
X1032093D01*
X1032607Y719665D01*
X1033001Y720059D01*
X1033214Y720574D01*
Y721131D01*
X1033001Y721645D01*
X1032607Y722039D01*
X1032093Y722252D01*
D02*
G37*
G36*
X1003895Y708669D02*
X1003338D01*
X1002824Y708456D01*
X1002430Y708062D01*
X1002217Y707548D01*
Y706991D01*
X1002430Y706476D01*
X1002824Y706082D01*
X1003338Y705869D01*
X1003895D01*
X1004410Y706082D01*
X1004803Y706476D01*
X1005017Y706991D01*
Y707548D01*
X1004803Y708062D01*
X1004410Y708456D01*
X1003895Y708669D01*
D02*
G37*
G36*
X1265337Y696212D02*
X1264258D01*
X1263215Y695932D01*
X1262280Y695393D01*
X1261517Y694629D01*
X1260977Y693694D01*
X1260698Y692652D01*
Y691572D01*
X1260977Y690529D01*
X1261517Y689594D01*
X1262280Y688831D01*
X1263215Y688291D01*
X1264258Y688012D01*
X1265337D01*
X1266380Y688291D01*
X1267315Y688831D01*
X1268079Y689594D01*
X1268618Y690529D01*
X1268898Y691572D01*
Y692652D01*
X1268618Y693694D01*
X1268079Y694629D01*
X1267315Y695393D01*
X1266380Y695932D01*
X1265337Y696212D01*
D02*
G37*
G36*
X983135Y687536D02*
X982578D01*
X982064Y687323D01*
X981670Y686929D01*
X981457Y686415D01*
Y685858D01*
X981670Y685343D01*
X982064Y684949D01*
X982578Y684736D01*
X983135D01*
X983650Y684949D01*
X984044Y685343D01*
X984257Y685858D01*
Y686415D01*
X984044Y686929D01*
X983650Y687323D01*
X983135Y687536D01*
D02*
G37*
G36*
X991766Y686792D02*
X991209D01*
X990694Y686578D01*
X990300Y686185D01*
X990087Y685670D01*
Y685113D01*
X990300Y684598D01*
X990694Y684205D01*
X991209Y683991D01*
X991766D01*
X992280Y684205D01*
X992674Y684598D01*
X992865Y685060D01*
X992887Y685113D01*
X993473Y685080D01*
X993473Y685069D01*
X993686Y684555D01*
X994080Y684161D01*
X994595Y683948D01*
X995152D01*
X995666Y684161D01*
X996060Y684555D01*
X996273Y685069D01*
Y685626D01*
X996060Y686141D01*
X995666Y686535D01*
X995152Y686748D01*
X994595D01*
X994080Y686535D01*
X993686Y686141D01*
X993495Y685679D01*
X993473Y685626D01*
X992887Y685660D01*
X992887Y685670D01*
X992674Y686185D01*
X992280Y686578D01*
X991766Y686792D01*
D02*
G37*
G36*
X982297Y682928D02*
X981740D01*
X981226Y682715D01*
X980832Y682321D01*
X980619Y681807D01*
Y681250D01*
X980832Y680735D01*
X981226Y680341D01*
X981740Y680128D01*
X982297D01*
X982812Y680341D01*
X983206Y680735D01*
X983419Y681250D01*
Y681807D01*
X983206Y682321D01*
X982812Y682715D01*
X982297Y682928D01*
D02*
G37*
G36*
X1265337Y686212D02*
X1264258D01*
X1263215Y685932D01*
X1262280Y685393D01*
X1261517Y684629D01*
X1260977Y683694D01*
X1260698Y682652D01*
Y681572D01*
X1260977Y680529D01*
X1261517Y679594D01*
X1262280Y678831D01*
X1263215Y678291D01*
X1264258Y678012D01*
X1265337D01*
X1266380Y678291D01*
X1267315Y678831D01*
X1268079Y679594D01*
X1268618Y680529D01*
X1268898Y681572D01*
Y682652D01*
X1268618Y683694D01*
X1268079Y684629D01*
X1267315Y685393D01*
X1266380Y685932D01*
X1265337Y686212D01*
D02*
G37*
G36*
X1255337D02*
X1254258D01*
X1253215Y685932D01*
X1252280Y685393D01*
X1251517Y684629D01*
X1250977Y683694D01*
X1250698Y682652D01*
Y681572D01*
X1250977Y680529D01*
X1251517Y679594D01*
X1252280Y678831D01*
X1253215Y678291D01*
X1254258Y678012D01*
X1255337D01*
X1256380Y678291D01*
X1257315Y678831D01*
X1258078Y679594D01*
X1258618Y680529D01*
X1258898Y681572D01*
Y682652D01*
X1258618Y683694D01*
X1258078Y684629D01*
X1257315Y685393D01*
X1256380Y685932D01*
X1255337Y686212D01*
D02*
G37*
G36*
X1265337Y676212D02*
X1264258D01*
X1263215Y675932D01*
X1262280Y675393D01*
X1261517Y674629D01*
X1260977Y673694D01*
X1260698Y672652D01*
Y671572D01*
X1260977Y670529D01*
X1261517Y669594D01*
X1262280Y668831D01*
X1263215Y668291D01*
X1264258Y668012D01*
X1265337D01*
X1266380Y668291D01*
X1267315Y668831D01*
X1268079Y669594D01*
X1268618Y670529D01*
X1268898Y671572D01*
Y672652D01*
X1268618Y673694D01*
X1268079Y674629D01*
X1267315Y675393D01*
X1266380Y675932D01*
X1265337Y676212D01*
D02*
G37*
G36*
X1255337D02*
X1254258D01*
X1253215Y675932D01*
X1252280Y675393D01*
X1251517Y674629D01*
X1250977Y673694D01*
X1250698Y672652D01*
Y671572D01*
X1250977Y670529D01*
X1251517Y669594D01*
X1252280Y668831D01*
X1253215Y668291D01*
X1254258Y668012D01*
X1255337D01*
X1256380Y668291D01*
X1257315Y668831D01*
X1258078Y669594D01*
X1258618Y670529D01*
X1258898Y671572D01*
Y672652D01*
X1258618Y673694D01*
X1258078Y674629D01*
X1257315Y675393D01*
X1256380Y675932D01*
X1255337Y676212D01*
D02*
G37*
G36*
X1154682Y669102D02*
X1154125D01*
X1153611Y668889D01*
X1153217Y668495D01*
X1153004Y667981D01*
Y667424D01*
X1153217Y666909D01*
X1153611Y666515D01*
X1154125Y666302D01*
X1154682D01*
X1155197Y666515D01*
X1155591Y666909D01*
X1155804Y667424D01*
Y667981D01*
X1155591Y668495D01*
X1155197Y668889D01*
X1154682Y669102D01*
D02*
G37*
G36*
Y665165D02*
X1154125D01*
X1153611Y664952D01*
X1153217Y664558D01*
X1153004Y664044D01*
Y663487D01*
X1153217Y662972D01*
X1153611Y662578D01*
X1154125Y662365D01*
X1154682D01*
X1155197Y662578D01*
X1155591Y662972D01*
X1155804Y663487D01*
Y664044D01*
X1155591Y664558D01*
X1155197Y664952D01*
X1154682Y665165D01*
D02*
G37*
G36*
X1168508Y663383D02*
X1167951D01*
X1167436Y663170D01*
X1167043Y662776D01*
X1166829Y662262D01*
Y661705D01*
X1167043Y661190D01*
X1167436Y660796D01*
X1167951Y660583D01*
X1168508D01*
X1169022Y660796D01*
X1169416Y661190D01*
X1169629Y661705D01*
Y662262D01*
X1169416Y662776D01*
X1169022Y663170D01*
X1168508Y663383D01*
D02*
G37*
G36*
X1178304Y663197D02*
X1177748D01*
X1177233Y662984D01*
X1176839Y662590D01*
X1176626Y662075D01*
Y661518D01*
X1176839Y661004D01*
X1177233Y660610D01*
X1177748Y660397D01*
X1178304D01*
X1178819Y660610D01*
X1179213Y661004D01*
X1179426Y661518D01*
Y662075D01*
X1179213Y662590D01*
X1178819Y662984D01*
X1178304Y663197D01*
D02*
G37*
G36*
X1157619Y661267D02*
X1157062D01*
X1156547Y661054D01*
X1156153Y660660D01*
X1155940Y660145D01*
Y659588D01*
X1156153Y659074D01*
X1156547Y658680D01*
X1157062Y658467D01*
X1157619D01*
X1158133Y658680D01*
X1158527Y659074D01*
X1158740Y659588D01*
Y660145D01*
X1158527Y660660D01*
X1158133Y661054D01*
X1157619Y661267D01*
D02*
G37*
G36*
X1265337Y666212D02*
X1264258D01*
X1263215Y665932D01*
X1262280Y665393D01*
X1261517Y664629D01*
X1260977Y663694D01*
X1260698Y662652D01*
Y661572D01*
X1260977Y660529D01*
X1261517Y659594D01*
X1262280Y658831D01*
X1263215Y658291D01*
X1264258Y658012D01*
X1265337D01*
X1266380Y658291D01*
X1267315Y658831D01*
X1268079Y659594D01*
X1268618Y660529D01*
X1268898Y661572D01*
Y662652D01*
X1268618Y663694D01*
X1268079Y664629D01*
X1267315Y665393D01*
X1266380Y665932D01*
X1265337Y666212D01*
D02*
G37*
G36*
X1255337D02*
X1254258D01*
X1253215Y665932D01*
X1252280Y665393D01*
X1251517Y664629D01*
X1250977Y663694D01*
X1250698Y662652D01*
Y661572D01*
X1250977Y660529D01*
X1251517Y659594D01*
X1252280Y658831D01*
X1253215Y658291D01*
X1254258Y658012D01*
X1255337D01*
X1256380Y658291D01*
X1257315Y658831D01*
X1258078Y659594D01*
X1258618Y660529D01*
X1258898Y661572D01*
Y662652D01*
X1258618Y663694D01*
X1258078Y664629D01*
X1257315Y665393D01*
X1256380Y665932D01*
X1255337Y666212D01*
D02*
G37*
G36*
X1265337Y656212D02*
X1264258D01*
X1263215Y655932D01*
X1262280Y655393D01*
X1261517Y654629D01*
X1260977Y653694D01*
X1260698Y652652D01*
Y651572D01*
X1260977Y650529D01*
X1261517Y649594D01*
X1262280Y648831D01*
X1263215Y648291D01*
X1264258Y648012D01*
X1265337D01*
X1266380Y648291D01*
X1267315Y648831D01*
X1268079Y649594D01*
X1268618Y650529D01*
X1268898Y651572D01*
Y652652D01*
X1268618Y653694D01*
X1268079Y654629D01*
X1267315Y655393D01*
X1266380Y655932D01*
X1265337Y656212D01*
D02*
G37*
G36*
X1255337D02*
X1254258D01*
X1253215Y655932D01*
X1252280Y655393D01*
X1251517Y654629D01*
X1250977Y653694D01*
X1250698Y652652D01*
Y651572D01*
X1250977Y650529D01*
X1251517Y649594D01*
X1252280Y648831D01*
X1253215Y648291D01*
X1254258Y648012D01*
X1255337D01*
X1256380Y648291D01*
X1257315Y648831D01*
X1258078Y649594D01*
X1258618Y650529D01*
X1258898Y651572D01*
Y652652D01*
X1258618Y653694D01*
X1258078Y654629D01*
X1257315Y655393D01*
X1256380Y655932D01*
X1255337Y656212D01*
D02*
G37*
G36*
X1068068Y645480D02*
X1067511D01*
X1066997Y645267D01*
X1066603Y644873D01*
X1066000Y644867D01*
X1065606Y645261D01*
X1065091Y645474D01*
X1064534D01*
X1064020Y645261D01*
X1063695Y644936D01*
X1063338Y644900D01*
X1063006Y644938D01*
X1062677Y645267D01*
X1062163Y645480D01*
X1061606D01*
X1061091Y645267D01*
X1060697Y644873D01*
X1060484Y644359D01*
Y643802D01*
X1060697Y643287D01*
X1061091Y642894D01*
X1061606Y642680D01*
X1062163D01*
X1062677Y642894D01*
X1063002Y643218D01*
X1063359Y643254D01*
X1063691Y643216D01*
X1064020Y642887D01*
X1064534Y642674D01*
X1065091D01*
X1065606Y642887D01*
X1066000Y643281D01*
X1066603Y643287D01*
X1066997Y642894D01*
X1067511Y642680D01*
X1068068D01*
X1068583Y642894D01*
X1068977Y643287D01*
X1069190Y643802D01*
Y644359D01*
X1068977Y644873D01*
X1068583Y645267D01*
X1068068Y645480D01*
D02*
G37*
G36*
X1050352Y647449D02*
X1049795D01*
X1049280Y647236D01*
X1048886Y646842D01*
X1048673Y646327D01*
Y645770D01*
X1048886Y645256D01*
X1049280Y644862D01*
X1049795Y644649D01*
X1050352D01*
X1050866Y644862D01*
X1051260Y645256D01*
X1051473Y645770D01*
Y646327D01*
X1051260Y646842D01*
X1050866Y647236D01*
X1050352Y647449D01*
D02*
G37*
G36*
X1027887Y646638D02*
X1027330D01*
X1026816Y646425D01*
X1026422Y646031D01*
X1026209Y645516D01*
Y644959D01*
X1026422Y644445D01*
X1026816Y644051D01*
X1027330Y643838D01*
X1027887D01*
X1028402Y644051D01*
X1028796Y644445D01*
X1029009Y644959D01*
Y645516D01*
X1028796Y646031D01*
X1028402Y646425D01*
X1027887Y646638D01*
D02*
G37*
G36*
X1031824Y646291D02*
X1031267D01*
X1030753Y646078D01*
X1030359Y645684D01*
X1030146Y645170D01*
Y644613D01*
X1030359Y644098D01*
X1030753Y643705D01*
X1031267Y643491D01*
X1031824D01*
X1032339Y643705D01*
X1032732Y644098D01*
X1032946Y644613D01*
Y645170D01*
X1032732Y645684D01*
X1032339Y646078D01*
X1031824Y646291D01*
D02*
G37*
G36*
X1057422Y646068D02*
X1056865D01*
X1056350Y645855D01*
X1055956Y645461D01*
X1055743Y644947D01*
Y644390D01*
X1055956Y643875D01*
X1056350Y643481D01*
X1056865Y643268D01*
X1057422D01*
X1057936Y643481D01*
X1058330Y643875D01*
X1058543Y644390D01*
Y644947D01*
X1058330Y645461D01*
X1057936Y645855D01*
X1057422Y646068D01*
D02*
G37*
G36*
X1265337Y646212D02*
X1264258D01*
X1263215Y645932D01*
X1262280Y645393D01*
X1261517Y644629D01*
X1260977Y643694D01*
X1260698Y642652D01*
Y641572D01*
X1260977Y640529D01*
X1261517Y639594D01*
X1262280Y638831D01*
X1263215Y638291D01*
X1264258Y638012D01*
X1265337D01*
X1266380Y638291D01*
X1267315Y638831D01*
X1268079Y639594D01*
X1268618Y640529D01*
X1268898Y641572D01*
Y642652D01*
X1268618Y643694D01*
X1268079Y644629D01*
X1267315Y645393D01*
X1266380Y645932D01*
X1265337Y646212D01*
D02*
G37*
G36*
X1255337D02*
X1254258D01*
X1253215Y645932D01*
X1252280Y645393D01*
X1251517Y644629D01*
X1250977Y643694D01*
X1250698Y642652D01*
Y641572D01*
X1250977Y640529D01*
X1251517Y639594D01*
X1252280Y638831D01*
X1253215Y638291D01*
X1254258Y638012D01*
X1255337D01*
X1256380Y638291D01*
X1257315Y638831D01*
X1258078Y639594D01*
X1258618Y640529D01*
X1258898Y641572D01*
Y642652D01*
X1258618Y643694D01*
X1258078Y644629D01*
X1257315Y645393D01*
X1256380Y645932D01*
X1255337Y646212D01*
D02*
G37*
G36*
X1037119Y632514D02*
X1036562D01*
X1036047Y632301D01*
X1035653Y631907D01*
X1035440Y631392D01*
Y630835D01*
X1035653Y630321D01*
X1036047Y629927D01*
X1036562Y629714D01*
X1037119D01*
X1037633Y629927D01*
X1038027Y630321D01*
X1038240Y630835D01*
Y631392D01*
X1038027Y631907D01*
X1037633Y632301D01*
X1037119Y632514D01*
D02*
G37*
G36*
X1033716Y632480D02*
X1033159D01*
X1032645Y632267D01*
X1032251Y631873D01*
X1032038Y631359D01*
Y630802D01*
X1032251Y630287D01*
X1032645Y629893D01*
X1033159Y629680D01*
X1033716D01*
X1034231Y629893D01*
X1034625Y630287D01*
X1034838Y630802D01*
Y631359D01*
X1034625Y631873D01*
X1034231Y632267D01*
X1033716Y632480D01*
D02*
G37*
G36*
X1265337Y636212D02*
X1264258D01*
X1263215Y635932D01*
X1262280Y635393D01*
X1261517Y634629D01*
X1260977Y633694D01*
X1260698Y632652D01*
Y631572D01*
X1260977Y630529D01*
X1261517Y629594D01*
X1262280Y628831D01*
X1263215Y628291D01*
X1264258Y628012D01*
X1265337D01*
X1266380Y628291D01*
X1267315Y628831D01*
X1268079Y629594D01*
X1268618Y630529D01*
X1268898Y631572D01*
Y632652D01*
X1268618Y633694D01*
X1268079Y634629D01*
X1267315Y635393D01*
X1266380Y635932D01*
X1265337Y636212D01*
D02*
G37*
G36*
X1255337D02*
X1254258D01*
X1253215Y635932D01*
X1252280Y635393D01*
X1251517Y634629D01*
X1250977Y633694D01*
X1250698Y632652D01*
Y631572D01*
X1250977Y630529D01*
X1251517Y629594D01*
X1252280Y628831D01*
X1253215Y628291D01*
X1254258Y628012D01*
X1255337D01*
X1256380Y628291D01*
X1257315Y628831D01*
X1258078Y629594D01*
X1258618Y630529D01*
X1258898Y631572D01*
Y632652D01*
X1258618Y633694D01*
X1258078Y634629D01*
X1257315Y635393D01*
X1256380Y635932D01*
X1255337Y636212D01*
D02*
G37*
G36*
X1268898Y626212D02*
X1260698D01*
Y618012D01*
X1268898D01*
Y626212D01*
D02*
G37*
G36*
X1047572Y617079D02*
X1047015D01*
X1046501Y616866D01*
X1046107Y616472D01*
X1045894Y615957D01*
Y615400D01*
X1046107Y614886D01*
X1046501Y614492D01*
X1047015Y614279D01*
X1047572D01*
X1048087Y614492D01*
X1048481Y614886D01*
X1048694Y615400D01*
Y615957D01*
X1048481Y616472D01*
X1048087Y616866D01*
X1047572Y617079D01*
D02*
G37*
G36*
X1040509Y615953D02*
X1039952D01*
X1039438Y615740D01*
X1039044Y615346D01*
X1038831Y614831D01*
Y614274D01*
X1039044Y613760D01*
X1039438Y613366D01*
X1039952Y613153D01*
X1040509D01*
X1041024Y613366D01*
X1041418Y613760D01*
X1041631Y614274D01*
Y614831D01*
X1041418Y615346D01*
X1041024Y615740D01*
X1040509Y615953D01*
D02*
G37*
G36*
X1036572D02*
X1036015D01*
X1035501Y615740D01*
X1035107Y615346D01*
X1034894Y614831D01*
Y614274D01*
X1035107Y613760D01*
X1035501Y613366D01*
X1036015Y613153D01*
X1036572D01*
X1037087Y613366D01*
X1037481Y613760D01*
X1037694Y614274D01*
Y614831D01*
X1037481Y615346D01*
X1037087Y615740D01*
X1036572Y615953D01*
D02*
G37*
G36*
X1058226Y612016D02*
X1057669D01*
X1057154Y611803D01*
X1056760Y611409D01*
X1056547Y610894D01*
Y610337D01*
X1056760Y609823D01*
X1057154Y609429D01*
X1057669Y609216D01*
X1058226D01*
X1058740Y609429D01*
X1059134Y609823D01*
X1059347Y610337D01*
Y610894D01*
X1059134Y611409D01*
X1058740Y611803D01*
X1058226Y612016D01*
D02*
G37*
G36*
X1050352Y608079D02*
X1049795D01*
X1049280Y607866D01*
X1048886Y607472D01*
X1048673Y606957D01*
Y606400D01*
X1048886Y605886D01*
X1049280Y605492D01*
X1049795Y605279D01*
X1050352D01*
X1050866Y605492D01*
X1051260Y605886D01*
X1051473Y606400D01*
Y606957D01*
X1051260Y607472D01*
X1050866Y607866D01*
X1050352Y608079D01*
D02*
G37*
G36*
X1038541D02*
X1037984D01*
X1037469Y607866D01*
X1037075Y607472D01*
X1036862Y606957D01*
Y606400D01*
X1037075Y605886D01*
X1037469Y605492D01*
X1037984Y605279D01*
X1038541D01*
X1039055Y605492D01*
X1039449Y605886D01*
X1039662Y606400D01*
Y606957D01*
X1039449Y607472D01*
X1039055Y607866D01*
X1038541Y608079D01*
D02*
G37*
G36*
X1034604D02*
X1034047D01*
X1033532Y607866D01*
X1033138Y607472D01*
X1032925Y606957D01*
Y606400D01*
X1033138Y605886D01*
X1033532Y605492D01*
X1034047Y605279D01*
X1034604D01*
X1035118Y605492D01*
X1035512Y605886D01*
X1035725Y606400D01*
Y606957D01*
X1035512Y607472D01*
X1035118Y607866D01*
X1034604Y608079D01*
D02*
G37*
G36*
X1030667D02*
X1030110D01*
X1029595Y607866D01*
X1029201Y607472D01*
X1028988Y606957D01*
Y606400D01*
X1029201Y605886D01*
X1029595Y605492D01*
X1030110Y605279D01*
X1030667D01*
X1031181Y605492D01*
X1031575Y605886D01*
X1031788Y606400D01*
Y606957D01*
X1031575Y607472D01*
X1031181Y607866D01*
X1030667Y608079D01*
D02*
G37*
G36*
X1178612Y586803D02*
X1177314D01*
X1176061Y586467D01*
X1174937Y585819D01*
X1174020Y584901D01*
X1173371Y583778D01*
X1173274Y583413D01*
X1172652D01*
X1172555Y583778D01*
X1171906Y584901D01*
X1170989Y585819D01*
X1169865Y586467D01*
X1168612Y586803D01*
X1167314D01*
X1166061Y586467D01*
X1164937Y585819D01*
X1164020Y584901D01*
X1163371Y583778D01*
X1163274Y583413D01*
X1162652D01*
X1162555Y583778D01*
X1161906Y584901D01*
X1160989Y585819D01*
X1159865Y586467D01*
X1158612Y586803D01*
X1157314D01*
X1156061Y586467D01*
X1154937Y585819D01*
X1154020Y584901D01*
X1153371Y583778D01*
X1153274Y583413D01*
X1152652D01*
X1152555Y583778D01*
X1151906Y584901D01*
X1150989Y585819D01*
X1149865Y586467D01*
X1148612Y586803D01*
X1147314D01*
X1146061Y586467D01*
X1144937Y585819D01*
X1144020Y584901D01*
X1143371Y583778D01*
X1143274Y583413D01*
X1142652D01*
X1142555Y583778D01*
X1141906Y584901D01*
X1140989Y585819D01*
X1139865Y586467D01*
X1138612Y586803D01*
X1137314D01*
X1136061Y586467D01*
X1134937Y585819D01*
X1134020Y584901D01*
X1133371Y583778D01*
X1133274Y583413D01*
X1132652D01*
X1132555Y583778D01*
X1131906Y584901D01*
X1130989Y585819D01*
X1129865Y586467D01*
X1128612Y586803D01*
X1127314D01*
X1126061Y586467D01*
X1124937Y585819D01*
X1124020Y584901D01*
X1123371Y583778D01*
X1123035Y582524D01*
Y581227D01*
X1123371Y579974D01*
X1124020Y578850D01*
X1124937Y577933D01*
X1126061Y577284D01*
X1127314Y576948D01*
X1128612D01*
X1129865Y577284D01*
X1130989Y577933D01*
X1131906Y578850D01*
X1132555Y579974D01*
X1132652Y580338D01*
X1133274D01*
X1133371Y579974D01*
X1134020Y578850D01*
X1134937Y577933D01*
X1136061Y577284D01*
X1137314Y576948D01*
X1138612D01*
X1139865Y577284D01*
X1140989Y577933D01*
X1141906Y578850D01*
X1142555Y579974D01*
X1142652Y580338D01*
X1143274D01*
X1143371Y579974D01*
X1144020Y578850D01*
X1144937Y577933D01*
X1146061Y577284D01*
X1147314Y576948D01*
X1148612D01*
X1149865Y577284D01*
X1150989Y577933D01*
X1151906Y578850D01*
X1152555Y579974D01*
X1152652Y580338D01*
X1153274D01*
X1153371Y579974D01*
X1154020Y578850D01*
X1154937Y577933D01*
X1156061Y577284D01*
X1157314Y576948D01*
X1158612D01*
X1159865Y577284D01*
X1160989Y577933D01*
X1161906Y578850D01*
X1162555Y579974D01*
X1162652Y580338D01*
X1163274D01*
X1163371Y579974D01*
X1164020Y578850D01*
X1164937Y577933D01*
X1166061Y577284D01*
X1167314Y576948D01*
X1168612D01*
X1169865Y577284D01*
X1170989Y577933D01*
X1171906Y578850D01*
X1172555Y579974D01*
X1172652Y580338D01*
X1173274D01*
X1173371Y579974D01*
X1174020Y578850D01*
X1174937Y577933D01*
X1176061Y577284D01*
X1177314Y576948D01*
X1178612D01*
X1179865Y577284D01*
X1180989Y577933D01*
X1181906Y578850D01*
X1182555Y579974D01*
X1182891Y581227D01*
Y582524D01*
X1182555Y583778D01*
X1181906Y584901D01*
X1180989Y585819D01*
X1179865Y586467D01*
X1178612Y586803D01*
D02*
G37*
G36*
X1078612D02*
X1077314D01*
X1076061Y586467D01*
X1074937Y585819D01*
X1074020Y584901D01*
X1073371Y583778D01*
X1073274Y583413D01*
X1072652D01*
X1072555Y583778D01*
X1071906Y584901D01*
X1070989Y585819D01*
X1069865Y586467D01*
X1068612Y586803D01*
X1067314D01*
X1066061Y586467D01*
X1064937Y585819D01*
X1064020Y584901D01*
X1063371Y583778D01*
X1063274Y583413D01*
X1062652D01*
X1062555Y583778D01*
X1061906Y584901D01*
X1060989Y585819D01*
X1059865Y586467D01*
X1058612Y586803D01*
X1057314D01*
X1056061Y586467D01*
X1054937Y585819D01*
X1054020Y584901D01*
X1053371Y583778D01*
X1053274Y583413D01*
X1052652D01*
X1052555Y583778D01*
X1051906Y584901D01*
X1050989Y585819D01*
X1049865Y586467D01*
X1048612Y586803D01*
X1047314D01*
X1046061Y586467D01*
X1044937Y585819D01*
X1044020Y584901D01*
X1043371Y583778D01*
X1043274Y583413D01*
X1042652D01*
X1042555Y583778D01*
X1041906Y584901D01*
X1040989Y585819D01*
X1039865Y586467D01*
X1038612Y586803D01*
X1037314D01*
X1036061Y586467D01*
X1034937Y585819D01*
X1034020Y584901D01*
X1033371Y583778D01*
X1033035Y582524D01*
Y581227D01*
X1033371Y579974D01*
X1034020Y578850D01*
X1034937Y577933D01*
X1036061Y577284D01*
X1037314Y576948D01*
X1038612D01*
X1039865Y577284D01*
X1040989Y577933D01*
X1041906Y578850D01*
X1042555Y579974D01*
X1042652Y580338D01*
X1043274D01*
X1043371Y579974D01*
X1044020Y578850D01*
X1044937Y577933D01*
X1046061Y577284D01*
X1047314Y576948D01*
X1048612D01*
X1049865Y577284D01*
X1050989Y577933D01*
X1051906Y578850D01*
X1052555Y579974D01*
X1052652Y580338D01*
X1053274D01*
X1053371Y579974D01*
X1054020Y578850D01*
X1054937Y577933D01*
X1056061Y577284D01*
X1057314Y576948D01*
X1058612D01*
X1059865Y577284D01*
X1060989Y577933D01*
X1061906Y578850D01*
X1062555Y579974D01*
X1062652Y580338D01*
X1063274D01*
X1063371Y579974D01*
X1064020Y578850D01*
X1064937Y577933D01*
X1066061Y577284D01*
X1067314Y576948D01*
X1068612D01*
X1069865Y577284D01*
X1070989Y577933D01*
X1071906Y578850D01*
X1072555Y579974D01*
X1072652Y580338D01*
X1073274D01*
X1073371Y579974D01*
X1074020Y578850D01*
X1074937Y577933D01*
X1076061Y577284D01*
X1077314Y576948D01*
X1078612D01*
X1079865Y577284D01*
X1080989Y577933D01*
X1081906Y578850D01*
X1082555Y579974D01*
X1082891Y581227D01*
Y582524D01*
X1082555Y583778D01*
X1081906Y584901D01*
X1080989Y585819D01*
X1079865Y586467D01*
X1078612Y586803D01*
D02*
G37*
G36*
X1108612D02*
X1107314D01*
X1106061Y586467D01*
X1104937Y585819D01*
X1104020Y584901D01*
X1103371Y583778D01*
X1103035Y582524D01*
Y581227D01*
X1103371Y579974D01*
X1104020Y578850D01*
X1104937Y577933D01*
X1106061Y577284D01*
X1107314Y576948D01*
X1108612D01*
X1109865Y577284D01*
X1110989Y577933D01*
X1111906Y578850D01*
X1112555Y579974D01*
X1112891Y581227D01*
Y582524D01*
X1112555Y583778D01*
X1111906Y584901D01*
X1110989Y585819D01*
X1109865Y586467D01*
X1108612Y586803D01*
D02*
G37*
%LPD*%
D20*
X1276514Y777976D02*
G03*
X1272514Y781876I-3950J-50D01*
G01*
X1272614Y571876D02*
G03*
X1276514Y575876I-50J3950D01*
G01*
X927963Y575876D02*
G03*
X931963Y571876I4000J0D01*
G01*
Y781876D02*
G03*
X927963Y777976I-50J-3950D01*
G01*
X1276514Y575876D02*
Y777976D01*
X1181963Y781876D02*
X1278420D01*
X931963D02*
X1181963D01*
X931963Y571876D02*
X1272614D01*
X927963Y575876D02*
Y777976D01*
D65*
X941805Y766128D02*
D03*
X941805Y586994D02*
D03*
X1260703D02*
D03*
Y766128D02*
D03*
D66*
X1254798Y692112D02*
D03*
Y622112D02*
D03*
D68*
X1087963Y581876D02*
D03*
X1097963D02*
D03*
X1031963Y771876D02*
D03*
D69*
X1258636Y717899D02*
D03*
D71*
X967743Y768194D02*
D03*
D72*
X968137Y743391D02*
D03*
X988609D02*
D03*
D73*
X992152Y772131D02*
D03*
X953176D02*
D03*
D75*
X985113Y677545D02*
D03*
X979207D02*
D03*
X1242987Y728726D02*
D03*
X1028420Y628332D02*
D03*
X1036294D02*
D03*
X1044168D02*
D03*
X1050073D02*
D03*
X1063853Y614553D02*
D03*
X1060900D02*
D03*
X1056471D02*
D03*
X1052780D02*
D03*
X1160309Y649986D02*
D03*
X1166215Y651954D02*
D03*
X1170152D02*
D03*
X981176Y695261D02*
D03*
X985113D02*
D03*
X1245099Y715974D02*
D03*
X1240206Y714437D02*
D03*
X1231361Y774783D02*
D03*
X992987Y722821D02*
D03*
X987081D02*
D03*
X983144Y720852D02*
D03*
X979207D02*
D03*
X985248Y710691D02*
D03*
X981200Y710739D02*
D03*
X977826Y702843D02*
D03*
X995741Y698283D02*
D03*
X996357Y693285D02*
D03*
X998892Y693293D02*
D03*
X979207D02*
D03*
Y697230D02*
D03*
X981176D02*
D03*
Y693293D02*
D03*
X987081D02*
D03*
Y697230D02*
D03*
X985113Y693293D02*
D03*
Y697230D02*
D03*
X983144Y695261D02*
D03*
X1166215Y671639D02*
D03*
X1166325Y679293D02*
D03*
X1170152Y675576D02*
D03*
X1162278D02*
D03*
Y679513D02*
D03*
X1170152D02*
D03*
Y671639D02*
D03*
X1162278D02*
D03*
X1166215Y675576D02*
D03*
M02*
