M48
;Layer_Color=9474304
;FILE_FORMAT=2:5
INCH,LZ
;TYPE=PLATED
T01F00S00C0.01000
T04F00S00C0.03937
T05F00S00C0.12598
;TYPE=NON_PLATED
T06F00S00C0.12000
T07F00S00C0.17323
%
T01
X1030388Y0606679
X1034325
X1038262
X1036294Y0614553
X1040231
X1047294Y0615679
X105278Y0614553
X1056471
X10609
X1063853
X1057947Y0610616
X1050073Y0606679
Y0628332
X1044168
X1036294
X103684Y0631114
X1033438Y063108
X102842Y0628332
X1027609Y0645238
X1031546Y0644891
X1050073Y0646049
X1057143Y0644668
X1061884Y064408
X1064813Y0644074
X106779Y064408
X1031814Y0720852
X102842
X0992987Y0722821
X0987081
X0983144Y0720852
X0979207
X09812Y0710739
X0985248Y0710691
X0985113Y069723
Y0695261
Y0693293
X0987081
Y069723
X0981176
Y0695261
X0983144
X0981176Y0693293
X0979207
Y069723
X0977826Y0702843
X0982857Y0686136
X0982019Y0681528
X0979207Y0677545
X0985113
X0991487Y0685392
X0994873Y0685348
X0996357Y0693285
X0998892Y0693293
X0995741Y0698283
X1003617Y0707269
X1162278Y0679513
Y0675576
X1166215
X1166325Y0679293
X1170152Y0679513
Y0675576
Y0671639
X1166215
X1162278
X1154404Y0667702
Y0663765
X115734Y0659867
X1160309Y0649986
X1166215Y0651954
X1170152
X1168229Y0661983
X1178026Y0661797
X1240206Y0714437
X1245099Y0715974
X1242987Y0728726
X1238944Y0729391
X123905Y0726757
X1237081Y0734631
X1235113Y0756285
X123905
X1227239
X1223302
X1213503Y0757174
X1216868Y0774823
X1206459Y0774659
X1231361Y0774783
T04
X1254798Y0622112
X1264798
X1177963Y0581876
X1167963
X1157963
X1147963
X1137963
X1127963
X1107963
X1097963
X1087963
X1077963
X1067963
X1057963
X1047963
X1037963
X1041963Y0771876
X1051963
X1061963
X1071963
X1081963
X1091963
X1031963
X1021963
X1011963
X1001963
X1107963
X1117963
X1127963
X1137963
X1147963
X1157963
X1167963
X1177963
X1258636Y0727742
Y0717899
X1254798Y0692112
X1264798
Y0682112
X1254798
Y0672112
X1264798
Y0662112
Y0652112
X1254798
Y0642112
Y0632112
X1264798
Y0642112
X1254798Y0662112
T05
X1260703Y0586994
X0941805
X0941805Y0766128
X1260703
T06
X0967743Y0768194
T07
X1221506Y0621246
X0943947
Y0717702
X1221506
M30
