M48
;Layer_Color=9474304
;FILE_FORMAT=2:5
INCH,LZ
;TYPE=PLATED
T1F00S00C0.01200
T2F00S00C0.03937
T3F00S00C0.12598
;TYPE=NON_PLATED
T4F00S00C0.17323
%
T01
X1099131Y0614109
X1123726Y0614778
X1150664Y0614109
X1171412Y0615447
X119001Y0613412
X1077806Y061538
X1064026Y061534
X1060089
X1056152
X1052215
X1043357
X103942
X1036467
X1029577
X1003002Y0620261
X0925467Y0614719
X0926231Y0642899
X0917003Y0646135
X0902439Y0643233
X0902371Y0655242
X0905496Y0661047
X0901702Y0673949
X0900395Y0680594
X090064Y0692152
Y0703963
X0929183Y0683253
X0934199Y0681912
X0928199Y066853
X0922294
X0933234Y0660816
X0933015Y0653764
X0941979Y0656719
X0949853
X0957727
X0967667Y0658281
X0975836Y0651832
X0982333Y0653726
X098627
X0989223
X0995719Y065845
X1001034Y0653726
X1005965Y0657623
X101875Y0657663
X1018752Y065364
X1026624Y0643884
X1029637Y0645662
X103253Y0643884
X1049279Y0642652
X1046077Y0627294
X1057226Y0658218
X1041388Y0692112
X1047095Y0725709
X1020719Y0727585
X0985286Y0725616
Y0682309
X097938Y0688215
X0971692Y0688692
X0970549Y067901
X096068Y0680301
Y0683253
Y0686206
X0956742
Y0683253
Y0680301
X0957166Y067427
X0960433Y0674398
X0948993Y0671583
X0939026Y0672427
X0941979Y0678332
X0938042Y0685222
X0937757Y0689092
X0944913Y0686273
X0948057Y0689117
X0959099Y0693107
X0959498Y0699068
X0955799Y0696594
X0993235Y0688301
X1006939Y0680341
X1002034Y0640946
X1000206Y0631205
X0996184Y063464
X0978459Y0633383
X0937924Y0643175
X107303Y0728888
X1103396Y0727585
X1126905Y0728218
X1151501Y0724705
X1184105Y0727585
X1140798Y0698057
X1109302
X1096809Y0658668
X1119144Y0639002
X1140798Y0658687
X1227865Y0666381
X1247722Y0662975
X1247097Y0678372
T02
X0910481Y0643156
Y0652999
X0910483Y0683253
Y0693096
T03
X0908514Y062223
Y0720655
X1242176Y0698017
Y0640931
T04
X1221506Y0621246
X0943947
Y0717702
X1221506
M30
