G04*
G04 #@! TF.GenerationSoftware,Altium Limited,Altium Designer,24.5.2 (23)*
G04*
G04 Layer_Color=8388736*
%FSLAX25Y25*%
%MOIN*%
G70*
G04*
G04 #@! TF.SameCoordinates,8268167A-419A-4E4C-BA15-56D98ABE09BB*
G04*
G04*
G04 #@! TF.FilePolarity,Negative*
G04*
G01*
G75*
%ADD20C,0.00100*%
G04:AMPARAMS|DCode=36|XSize=26.38mil|YSize=20.47mil|CornerRadius=5.81mil|HoleSize=0mil|Usage=FLASHONLY|Rotation=90.000|XOffset=0mil|YOffset=0mil|HoleType=Round|Shape=RoundedRectangle|*
%AMROUNDEDRECTD36*
21,1,0.02638,0.00886,0,0,90.0*
21,1,0.01476,0.02047,0,0,90.0*
1,1,0.01161,0.00443,0.00738*
1,1,0.01161,0.00443,-0.00738*
1,1,0.01161,-0.00443,-0.00738*
1,1,0.01161,-0.00443,0.00738*
%
%ADD36ROUNDEDRECTD36*%
%ADD37R,0.10339X0.10339*%
G04:AMPARAMS|DCode=38|XSize=37.43mil|YSize=13.81mil|CornerRadius=3.95mil|HoleSize=0mil|Usage=FLASHONLY|Rotation=270.000|XOffset=0mil|YOffset=0mil|HoleType=Round|Shape=RoundedRectangle|*
%AMROUNDEDRECTD38*
21,1,0.03743,0.00591,0,0,270.0*
21,1,0.02953,0.01381,0,0,270.0*
1,1,0.00791,-0.00295,-0.01476*
1,1,0.00791,-0.00295,0.01476*
1,1,0.00791,0.00295,0.01476*
1,1,0.00791,0.00295,-0.01476*
%
%ADD38ROUNDEDRECTD38*%
G04:AMPARAMS|DCode=39|XSize=37.43mil|YSize=13.81mil|CornerRadius=3.95mil|HoleSize=0mil|Usage=FLASHONLY|Rotation=180.000|XOffset=0mil|YOffset=0mil|HoleType=Round|Shape=RoundedRectangle|*
%AMROUNDEDRECTD39*
21,1,0.03743,0.00591,0,0,180.0*
21,1,0.02953,0.01381,0,0,180.0*
1,1,0.00791,-0.01476,0.00295*
1,1,0.00791,0.01476,0.00295*
1,1,0.00791,0.01476,-0.00295*
1,1,0.00791,-0.01476,-0.00295*
%
%ADD39ROUNDEDRECTD39*%
G04:AMPARAMS|DCode=40|XSize=26.38mil|YSize=22.44mil|CornerRadius=6.3mil|HoleSize=0mil|Usage=FLASHONLY|Rotation=0.000|XOffset=0mil|YOffset=0mil|HoleType=Round|Shape=RoundedRectangle|*
%AMROUNDEDRECTD40*
21,1,0.02638,0.00984,0,0,0.0*
21,1,0.01378,0.02244,0,0,0.0*
1,1,0.01260,0.00689,-0.00492*
1,1,0.01260,-0.00689,-0.00492*
1,1,0.01260,-0.00689,0.00492*
1,1,0.01260,0.00689,0.00492*
%
%ADD40ROUNDEDRECTD40*%
G04:AMPARAMS|DCode=41|XSize=35.43mil|YSize=30.32mil|CornerRadius=4.13mil|HoleSize=0mil|Usage=FLASHONLY|Rotation=0.000|XOffset=0mil|YOffset=0mil|HoleType=Round|Shape=RoundedRectangle|*
%AMROUNDEDRECTD41*
21,1,0.03543,0.02205,0,0,0.0*
21,1,0.02717,0.03032,0,0,0.0*
1,1,0.00827,0.01358,-0.01102*
1,1,0.00827,-0.01358,-0.01102*
1,1,0.00827,-0.01358,0.01102*
1,1,0.00827,0.01358,0.01102*
%
%ADD41ROUNDEDRECTD41*%
G04:AMPARAMS|DCode=42|XSize=16.54mil|YSize=14.57mil|CornerRadius=4.33mil|HoleSize=0mil|Usage=FLASHONLY|Rotation=90.000|XOffset=0mil|YOffset=0mil|HoleType=Round|Shape=RoundedRectangle|*
%AMROUNDEDRECTD42*
21,1,0.01654,0.00591,0,0,90.0*
21,1,0.00787,0.01457,0,0,90.0*
1,1,0.00866,0.00295,0.00394*
1,1,0.00866,0.00295,-0.00394*
1,1,0.00866,-0.00295,-0.00394*
1,1,0.00866,-0.00295,0.00394*
%
%ADD42ROUNDEDRECTD42*%
G04:AMPARAMS|DCode=43|XSize=16.54mil|YSize=14.57mil|CornerRadius=4.33mil|HoleSize=0mil|Usage=FLASHONLY|Rotation=180.000|XOffset=0mil|YOffset=0mil|HoleType=Round|Shape=RoundedRectangle|*
%AMROUNDEDRECTD43*
21,1,0.01654,0.00591,0,0,180.0*
21,1,0.00787,0.01457,0,0,180.0*
1,1,0.00866,-0.00394,0.00295*
1,1,0.00866,0.00394,0.00295*
1,1,0.00866,0.00394,-0.00295*
1,1,0.00866,-0.00394,-0.00295*
%
%ADD43ROUNDEDRECTD43*%
G04:AMPARAMS|DCode=44|XSize=26.38mil|YSize=20.47mil|CornerRadius=5.81mil|HoleSize=0mil|Usage=FLASHONLY|Rotation=180.000|XOffset=0mil|YOffset=0mil|HoleType=Round|Shape=RoundedRectangle|*
%AMROUNDEDRECTD44*
21,1,0.02638,0.00886,0,0,180.0*
21,1,0.01476,0.02047,0,0,180.0*
1,1,0.01161,-0.00738,0.00443*
1,1,0.01161,0.00738,0.00443*
1,1,0.01161,0.00738,-0.00443*
1,1,0.01161,-0.00738,-0.00443*
%
%ADD44ROUNDEDRECTD44*%
%ADD45R,0.03056X0.02662*%
G04:AMPARAMS|DCode=46|XSize=73.87mil|YSize=12.84mil|CornerRadius=1.99mil|HoleSize=0mil|Usage=FLASHONLY|Rotation=270.000|XOffset=0mil|YOffset=0mil|HoleType=Round|Shape=RoundedRectangle|*
%AMROUNDEDRECTD46*
21,1,0.07387,0.00886,0,0,270.0*
21,1,0.06988,0.01284,0,0,270.0*
1,1,0.00398,-0.00443,-0.03494*
1,1,0.00398,-0.00443,0.03494*
1,1,0.00398,0.00443,0.03494*
1,1,0.00398,0.00443,-0.03494*
%
%ADD46ROUNDEDRECTD46*%
G04:AMPARAMS|DCode=47|XSize=25.62mil|YSize=11.84mil|CornerRadius=2.48mil|HoleSize=0mil|Usage=FLASHONLY|Rotation=270.000|XOffset=0mil|YOffset=0mil|HoleType=Round|Shape=RoundedRectangle|*
%AMROUNDEDRECTD47*
21,1,0.02562,0.00689,0,0,270.0*
21,1,0.02067,0.01184,0,0,270.0*
1,1,0.00495,-0.00344,-0.01033*
1,1,0.00495,-0.00344,0.01033*
1,1,0.00495,0.00344,0.01033*
1,1,0.00495,0.00344,-0.01033*
%
%ADD47ROUNDEDRECTD47*%
G04:AMPARAMS|DCode=48|XSize=96.49mil|YSize=66.96mil|CornerRadius=2.62mil|HoleSize=0mil|Usage=FLASHONLY|Rotation=0.000|XOffset=0mil|YOffset=0mil|HoleType=Round|Shape=RoundedRectangle|*
%AMROUNDEDRECTD48*
21,1,0.09649,0.06171,0,0,0.0*
21,1,0.09124,0.06696,0,0,0.0*
1,1,0.00525,0.04562,-0.03086*
1,1,0.00525,-0.04562,-0.03086*
1,1,0.00525,-0.04562,0.03086*
1,1,0.00525,0.04562,0.03086*
%
%ADD48ROUNDEDRECTD48*%
G04:AMPARAMS|DCode=49|XSize=21.69mil|YSize=11.84mil|CornerRadius=0mil|HoleSize=0mil|Usage=FLASHONLY|Rotation=0.000|XOffset=0mil|YOffset=0mil|HoleType=Round|Shape=RoundedRectangle|*
%AMROUNDEDRECTD49*
21,1,0.02169,0.01184,0,0,0.0*
21,1,0.02169,0.01184,0,0,0.0*
1,1,0.00000,0.01085,-0.00592*
1,1,0.00000,-0.01085,-0.00592*
1,1,0.00000,-0.01085,0.00592*
1,1,0.00000,0.01085,0.00592*
%
%ADD49ROUNDEDRECTD49*%
G04:AMPARAMS|DCode=50|XSize=15.78mil|YSize=25.62mil|CornerRadius=2.38mil|HoleSize=0mil|Usage=FLASHONLY|Rotation=90.000|XOffset=0mil|YOffset=0mil|HoleType=Round|Shape=RoundedRectangle|*
%AMROUNDEDRECTD50*
21,1,0.01578,0.02087,0,0,90.0*
21,1,0.01102,0.02562,0,0,90.0*
1,1,0.00476,0.01043,0.00551*
1,1,0.00476,0.01043,-0.00551*
1,1,0.00476,-0.01043,-0.00551*
1,1,0.00476,-0.01043,0.00551*
%
%ADD50ROUNDEDRECTD50*%
%ADD51C,0.27859*%
%ADD52C,0.07700*%
%ADD53R,0.07700X0.07700*%
%ADD54C,0.09355*%
%ADD55R,0.06237X0.06237*%
%ADD56C,0.06237*%
%ADD57C,0.12300*%
%ADD58O,0.06206X0.12111*%
%ADD59O,0.06206X0.13292*%
%ADD60C,0.29434*%
D20*
X1276514Y777976D02*
G03*
X1272514Y781876I-3950J-50D01*
G01*
X1272614Y571876D02*
G03*
X1276514Y575876I-50J3950D01*
G01*
X927963Y575876D02*
G03*
X931963Y571876I4000J0D01*
G01*
Y781876D02*
G03*
X927963Y777976I-50J-3950D01*
G01*
X1276514Y575876D02*
Y777976D01*
X1181963Y781876D02*
X1272514D01*
X931963D02*
X1181963D01*
X931963Y571876D02*
X1272614D01*
X927963Y575876D02*
Y777976D01*
D36*
X1050042Y610616D02*
D03*
X1054042D02*
D03*
X1034325D02*
D03*
X1030325D02*
D03*
X1042231D02*
D03*
X1038231D02*
D03*
D37*
X1166215Y675576D02*
D03*
D38*
X1171136Y667899D02*
D03*
X1169168D02*
D03*
X1167199D02*
D03*
X1165231D02*
D03*
X1163262D02*
D03*
X1161294D02*
D03*
Y683253D02*
D03*
X1163262D02*
D03*
X1165231D02*
D03*
X1167199D02*
D03*
X1169168D02*
D03*
X1171136D02*
D03*
D39*
X1158538Y670655D02*
D03*
Y672624D02*
D03*
Y674592D02*
D03*
Y676561D02*
D03*
Y678529D02*
D03*
Y680498D02*
D03*
X1173892D02*
D03*
Y678529D02*
D03*
Y676561D02*
D03*
Y674592D02*
D03*
Y672624D02*
D03*
Y670655D02*
D03*
D40*
X1166215Y659828D02*
D03*
Y655891D02*
D03*
X1170152Y659828D02*
D03*
Y655891D02*
D03*
X1244955Y722821D02*
D03*
Y718884D02*
D03*
X992987Y698608D02*
D03*
Y702545D02*
D03*
X987081Y725970D02*
D03*
Y729907D02*
D03*
D41*
X1160590Y659929D02*
D03*
Y654023D02*
D03*
X1240206Y717389D02*
D03*
Y723295D02*
D03*
X992987Y688765D02*
D03*
Y694671D02*
D03*
X998892Y702545D02*
D03*
Y696639D02*
D03*
X981176Y729907D02*
D03*
Y724002D02*
D03*
D42*
X1168184Y663765D02*
D03*
X1166018D02*
D03*
D43*
X1174089D02*
D03*
Y661600D02*
D03*
D44*
X1239050Y760190D02*
D03*
Y764190D02*
D03*
X1235113Y760159D02*
D03*
Y764159D02*
D03*
X1227239Y760190D02*
D03*
Y764190D02*
D03*
X1223302Y760190D02*
D03*
Y764190D02*
D03*
X1241609Y734663D02*
D03*
Y730663D02*
D03*
X1245546Y730600D02*
D03*
Y734600D02*
D03*
X981176Y704513D02*
D03*
Y708513D02*
D03*
X985113D02*
D03*
Y704513D02*
D03*
X985113Y679482D02*
D03*
Y683482D02*
D03*
X979207Y679450D02*
D03*
Y683450D02*
D03*
X1209522Y764159D02*
D03*
Y760159D02*
D03*
X1213459Y764159D02*
D03*
Y760159D02*
D03*
D45*
X1235113Y769277D02*
D03*
X1239050D02*
D03*
Y774789D02*
D03*
X1235113D02*
D03*
X1223302Y769277D02*
D03*
X1227239D02*
D03*
Y774789D02*
D03*
X1223302D02*
D03*
X1209522Y774757D02*
D03*
X1213459D02*
D03*
Y769246D02*
D03*
X1209522D02*
D03*
D46*
X1059105Y621246D02*
D03*
X1057136D02*
D03*
X1065010Y636994D02*
D03*
X1063042D02*
D03*
X1061073D02*
D03*
X1059105D02*
D03*
X1057136D02*
D03*
X1037451D02*
D03*
X1045325Y621246D02*
D03*
X1037451D02*
D03*
X1029577D02*
D03*
X1055168Y636994D02*
D03*
X1053199D02*
D03*
X1051231D02*
D03*
X1065010Y621246D02*
D03*
X1063042D02*
D03*
X1061073D02*
D03*
X1055168D02*
D03*
X1053199D02*
D03*
X1051231D02*
D03*
X1041388D02*
D03*
X1043357D02*
D03*
X1039420D02*
D03*
X1035483D02*
D03*
X1031546D02*
D03*
X1027609D02*
D03*
Y636994D02*
D03*
X1031546D02*
D03*
X1029577D02*
D03*
X1043357D02*
D03*
X1049262Y621246D02*
D03*
Y636994D02*
D03*
X1047294Y621246D02*
D03*
Y636994D02*
D03*
X1045325D02*
D03*
X1035483D02*
D03*
X1033514Y621246D02*
D03*
Y636994D02*
D03*
X1041388D02*
D03*
X1039420D02*
D03*
D47*
X987081Y700773D02*
D03*
X985113D02*
D03*
X983144D02*
D03*
X981175D02*
D03*
X979207D02*
D03*
Y689749D02*
D03*
X981175D02*
D03*
X983144D02*
D03*
X985113D02*
D03*
X987081D02*
D03*
D48*
X983144Y695261D02*
D03*
D49*
X988853Y696245D02*
D03*
Y694277D02*
D03*
X977435Y696245D02*
D03*
Y694277D02*
D03*
D50*
X992987Y726659D02*
D03*
Y729218D02*
D03*
D51*
X941805Y766128D02*
D03*
X941805Y586994D02*
D03*
X1260703D02*
D03*
Y766128D02*
D03*
D52*
X1254798Y692112D02*
D03*
X1264798D02*
D03*
X1254798Y682112D02*
D03*
X1264798D02*
D03*
X1254798Y652112D02*
D03*
Y642112D02*
D03*
Y632112D02*
D03*
Y622112D02*
D03*
X1264798Y652112D02*
D03*
Y642112D02*
D03*
Y632112D02*
D03*
Y662112D02*
D03*
Y672112D02*
D03*
X1254798Y662112D02*
D03*
Y672112D02*
D03*
D53*
X1264798Y622112D02*
D03*
D54*
X1037963Y581876D02*
D03*
X1047963D02*
D03*
X1057963D02*
D03*
X1067963D02*
D03*
X1077963D02*
D03*
X1087963D02*
D03*
X1097963D02*
D03*
X1107963D02*
D03*
X1127963D02*
D03*
X1137963D02*
D03*
X1147963D02*
D03*
X1157963D02*
D03*
X1167963D02*
D03*
X1177963D02*
D03*
X1091963Y771876D02*
D03*
X1081963D02*
D03*
X1071963D02*
D03*
X1061963D02*
D03*
X1051963D02*
D03*
X1041963D02*
D03*
X1031963D02*
D03*
X1021963D02*
D03*
X1011963D02*
D03*
X1001963D02*
D03*
X1177963D02*
D03*
X1167963D02*
D03*
X1157963D02*
D03*
X1147963D02*
D03*
X1137963D02*
D03*
X1127963D02*
D03*
X1117963D02*
D03*
X1107963D02*
D03*
D55*
X1258636Y717899D02*
D03*
D56*
Y727742D02*
D03*
D57*
X967743Y768194D02*
D03*
D58*
X954751Y743391D02*
D03*
X968137D02*
D03*
X988609D02*
D03*
D59*
X992152Y772131D02*
D03*
X953176D02*
D03*
D60*
X1221506Y621246D02*
D03*
X1221506Y717702D02*
D03*
X943947D02*
D03*
Y621246D02*
D03*
M02*
