G04*
G04 #@! TF.GenerationSoftware,Altium Limited,Altium Designer,23.0.1 (38)*
G04*
G04 Layer_Color=128*
%FSLAX25Y25*%
%MOIN*%
G70*
G04*
G04 #@! TF.SameCoordinates,19342238-8E0C-4B0D-84B5-E67248FCF62E*
G04*
G04*
G04 #@! TF.FilePolarity,Positive*
G04*
G01*
G75*
%ADD12C,0.00600*%
%ADD66R,0.10492X0.16496*%
G04:AMPARAMS|DCode=162|XSize=70.87mil|YSize=9.84mil|CornerRadius=0.49mil|HoleSize=0mil|Usage=FLASHONLY|Rotation=270.000|XOffset=0mil|YOffset=0mil|HoleType=Round|Shape=RoundedRectangle|*
%AMROUNDEDRECTD162*
21,1,0.07087,0.00886,0,0,270.0*
21,1,0.06988,0.00984,0,0,270.0*
1,1,0.00098,-0.00443,-0.03494*
1,1,0.00098,-0.00443,0.03494*
1,1,0.00098,0.00443,0.03494*
1,1,0.00098,0.00443,-0.03494*
%
%ADD162ROUNDEDRECTD162*%
%ADD163R,0.05709X0.07874*%
%ADD164R,0.03150X0.05906*%
D12*
X1223475Y611403D02*
G03*
X1231349Y619277I0J7874D01*
G01*
Y719671D02*
G03*
X1223475Y727545I-7874J0D01*
G01*
X941979D02*
G03*
X934105Y719671I0J-7874D01*
G01*
Y619277D02*
G03*
X941979Y611403I7874J0D01*
G01*
X1231349Y619277D02*
Y719671D01*
X941979Y727545D02*
X1223475D01*
X941979Y611403D02*
X1223475D01*
X934105Y619277D02*
Y719671D01*
D66*
X1197642Y716886D02*
D03*
X1170142D02*
D03*
D162*
X1027609Y621246D02*
D03*
X1031546D02*
D03*
X1035483D02*
D03*
X1033514D02*
D03*
X1039420D02*
D03*
X1043357D02*
D03*
X1041388D02*
D03*
X1047294D02*
D03*
X1051231D02*
D03*
X1053199D02*
D03*
X1049262D02*
D03*
X1055168D02*
D03*
X1061073D02*
D03*
X1063042D02*
D03*
X1065010D02*
D03*
X1027609Y636994D02*
D03*
X1031546D02*
D03*
X1035483D02*
D03*
X1033514D02*
D03*
X1039420D02*
D03*
X1043357D02*
D03*
X1041388D02*
D03*
X1047294D02*
D03*
X1051231D02*
D03*
X1053199D02*
D03*
X1049262D02*
D03*
X1055168D02*
D03*
X1029577Y621246D02*
D03*
X1037451D02*
D03*
X1045325D02*
D03*
X1029577Y636994D02*
D03*
X1037451D02*
D03*
X1045325D02*
D03*
X1057136D02*
D03*
X1059105D02*
D03*
X1061073D02*
D03*
X1063042D02*
D03*
X1065010D02*
D03*
X1057136Y621246D02*
D03*
X1059105D02*
D03*
D163*
X1129971Y618293D02*
D03*
X1184105D02*
D03*
X1129971Y650970D02*
D03*
X1184105D02*
D03*
D164*
X1174754Y628529D02*
D03*
X1170424D02*
D03*
X1166093D02*
D03*
X1161762D02*
D03*
X1157432D02*
D03*
X1153101D02*
D03*
X1148770D02*
D03*
X1144439D02*
D03*
M02*
