G04*
G04 #@! TF.GenerationSoftware,Altium Limited,Altium Designer,23.0.1 (38)*
G04*
G04 Layer_Color=16711935*
%FSLAX25Y25*%
%MOIN*%
G70*
G04*
G04 #@! TF.SameCoordinates,19342238-8E0C-4B0D-84B5-E67248FCF62E*
G04*
G04*
G04 #@! TF.FilePolarity,Negative*
G04*
G01*
G75*
%ADD12C,0.00600*%
%ADD122R,0.10792X0.16796*%
%ADD124C,0.06206*%
%ADD125C,0.19985*%
%ADD126O,0.04237X0.07387*%
%ADD127O,0.04237X0.08568*%
%ADD128C,0.02859*%
%ADD147C,0.02000*%
G04:AMPARAMS|DCode=166|XSize=73.87mil|YSize=12.84mil|CornerRadius=1.99mil|HoleSize=0mil|Usage=FLASHONLY|Rotation=270.000|XOffset=0mil|YOffset=0mil|HoleType=Round|Shape=RoundedRectangle|*
%AMROUNDEDRECTD166*
21,1,0.07387,0.00886,0,0,270.0*
21,1,0.06988,0.01284,0,0,270.0*
1,1,0.00398,-0.00443,-0.03494*
1,1,0.00398,-0.00443,0.03494*
1,1,0.00398,0.00443,0.03494*
1,1,0.00398,0.00443,-0.03494*
%
%ADD166ROUNDEDRECTD166*%
%ADD167R,0.06009X0.08174*%
%ADD168R,0.03450X0.06206*%
G36*
X1092856Y686039D02*
X1092409Y685145D01*
X994144Y703923D01*
Y708045D01*
X994924Y708672D01*
X1087671Y688152D01*
X1059201Y715009D01*
X1059262Y715224D01*
X1060392Y715548D01*
X1092856Y686039D01*
D02*
G37*
D12*
X1223475Y611403D02*
G03*
X1231349Y619277I0J7874D01*
G01*
Y719671D02*
G03*
X1223475Y727545I-7874J0D01*
G01*
X941979D02*
G03*
X934105Y719671I0J-7874D01*
G01*
Y619277D02*
G03*
X941979Y611403I7874J0D01*
G01*
X1231349Y619277D02*
Y719671D01*
X941979Y727545D02*
X1223475D01*
X941979Y611403D02*
X1223475D01*
X934105Y619277D02*
Y719671D01*
D122*
X1076260Y716886D02*
D03*
X1048760D02*
D03*
X1197642Y716886D02*
D03*
X1170142D02*
D03*
D124*
X941585Y678923D02*
D03*
X993554D02*
D03*
D125*
X943947Y717702D02*
D03*
Y621246D02*
D03*
X1221506Y717702D02*
D03*
Y621246D02*
D03*
D126*
X989498Y620675D02*
D03*
X955483D02*
D03*
D127*
X989498Y637132D02*
D03*
X955483D02*
D03*
D128*
X961113Y635163D02*
D03*
X983869D02*
D03*
D147*
X1091841Y686326D02*
G03*
X1091841Y686326I-600J0D01*
G01*
D166*
X1027609Y621246D02*
D03*
X1031546D02*
D03*
X1035483D02*
D03*
X1033514D02*
D03*
X1039420D02*
D03*
X1043357D02*
D03*
X1041388D02*
D03*
X1047294D02*
D03*
X1051231D02*
D03*
X1053199D02*
D03*
X1049262D02*
D03*
X1055168D02*
D03*
X1061073D02*
D03*
X1063042D02*
D03*
X1065010D02*
D03*
X1027609Y636994D02*
D03*
X1031546D02*
D03*
X1035483D02*
D03*
X1033514D02*
D03*
X1039420D02*
D03*
X1043357D02*
D03*
X1041388D02*
D03*
X1047294D02*
D03*
X1051231D02*
D03*
X1053199D02*
D03*
X1049262D02*
D03*
X1055168D02*
D03*
X1029577Y621246D02*
D03*
X1037451D02*
D03*
X1045325D02*
D03*
X1029577Y636994D02*
D03*
X1037451D02*
D03*
X1045325D02*
D03*
X1057136D02*
D03*
X1059105D02*
D03*
X1061073D02*
D03*
X1063042D02*
D03*
X1065010D02*
D03*
X1057136Y621246D02*
D03*
X1059105D02*
D03*
D167*
X1129971Y618293D02*
D03*
X1184105D02*
D03*
X1129971Y650970D02*
D03*
X1184105D02*
D03*
D168*
X1174754Y628529D02*
D03*
X1170424D02*
D03*
X1166093D02*
D03*
X1161762D02*
D03*
X1157432D02*
D03*
X1153101D02*
D03*
X1148770D02*
D03*
X1144439D02*
D03*
M02*
