G04*
G04 #@! TF.GenerationSoftware,Altium Limited,Altium Designer,23.0.1 (38)*
G04*
G04 Layer_Physical_Order=1*
G04 Layer_Color=255*
%FSLAX25Y25*%
%MOIN*%
G70*
G04*
G04 #@! TF.SameCoordinates,19342238-8E0C-4B0D-84B5-E67248FCF62E*
G04*
G04*
G04 #@! TF.FilePolarity,Positive*
G04*
G01*
G75*
%ADD12C,0.00600*%
%ADD17C,0.00800*%
G04:AMPARAMS|DCode=19|XSize=39.37mil|YSize=41.34mil|CornerRadius=3.94mil|HoleSize=0mil|Usage=FLASHONLY|Rotation=270.000|XOffset=0mil|YOffset=0mil|HoleType=Round|Shape=RoundedRectangle|*
%AMROUNDEDRECTD19*
21,1,0.03937,0.03347,0,0,270.0*
21,1,0.03150,0.04134,0,0,270.0*
1,1,0.00787,-0.01673,-0.01575*
1,1,0.00787,-0.01673,0.01575*
1,1,0.00787,0.01673,0.01575*
1,1,0.00787,0.01673,-0.01575*
%
%ADD19ROUNDEDRECTD19*%
G04:AMPARAMS|DCode=20|XSize=41.34mil|YSize=86.61mil|CornerRadius=4.13mil|HoleSize=0mil|Usage=FLASHONLY|Rotation=270.000|XOffset=0mil|YOffset=0mil|HoleType=Round|Shape=RoundedRectangle|*
%AMROUNDEDRECTD20*
21,1,0.04134,0.07835,0,0,270.0*
21,1,0.03307,0.08661,0,0,270.0*
1,1,0.00827,-0.03917,-0.01654*
1,1,0.00827,-0.03917,0.01654*
1,1,0.00827,0.03917,0.01654*
1,1,0.00827,0.03917,-0.01654*
%
%ADD20ROUNDEDRECTD20*%
G04:AMPARAMS|DCode=22|XSize=11.81mil|YSize=15.75mil|CornerRadius=2.95mil|HoleSize=0mil|Usage=FLASHONLY|Rotation=90.000|XOffset=0mil|YOffset=0mil|HoleType=Round|Shape=RoundedRectangle|*
%AMROUNDEDRECTD22*
21,1,0.01181,0.00984,0,0,90.0*
21,1,0.00591,0.01575,0,0,90.0*
1,1,0.00591,0.00492,0.00295*
1,1,0.00591,0.00492,-0.00295*
1,1,0.00591,-0.00492,-0.00295*
1,1,0.00591,-0.00492,0.00295*
%
%ADD22ROUNDEDRECTD22*%
G04:AMPARAMS|DCode=24|XSize=11.81mil|YSize=15.75mil|CornerRadius=2.95mil|HoleSize=0mil|Usage=FLASHONLY|Rotation=180.000|XOffset=0mil|YOffset=0mil|HoleType=Round|Shape=RoundedRectangle|*
%AMROUNDEDRECTD24*
21,1,0.01181,0.00984,0,0,180.0*
21,1,0.00591,0.01575,0,0,180.0*
1,1,0.00591,-0.00295,0.00492*
1,1,0.00591,0.00295,0.00492*
1,1,0.00591,0.00295,-0.00492*
1,1,0.00591,-0.00295,-0.00492*
%
%ADD24ROUNDEDRECTD24*%
G04:AMPARAMS|DCode=25|XSize=11.81mil|YSize=13.78mil|CornerRadius=2.95mil|HoleSize=0mil|Usage=FLASHONLY|Rotation=180.000|XOffset=0mil|YOffset=0mil|HoleType=Round|Shape=RoundedRectangle|*
%AMROUNDEDRECTD25*
21,1,0.01181,0.00787,0,0,180.0*
21,1,0.00591,0.01378,0,0,180.0*
1,1,0.00591,-0.00295,0.00394*
1,1,0.00591,0.00295,0.00394*
1,1,0.00591,0.00295,-0.00394*
1,1,0.00591,-0.00295,-0.00394*
%
%ADD25ROUNDEDRECTD25*%
G04:AMPARAMS|DCode=26|XSize=23.62mil|YSize=17.72mil|CornerRadius=4.43mil|HoleSize=0mil|Usage=FLASHONLY|Rotation=90.000|XOffset=0mil|YOffset=0mil|HoleType=Round|Shape=RoundedRectangle|*
%AMROUNDEDRECTD26*
21,1,0.02362,0.00886,0,0,90.0*
21,1,0.01476,0.01772,0,0,90.0*
1,1,0.00886,0.00443,0.00738*
1,1,0.00886,0.00443,-0.00738*
1,1,0.00886,-0.00443,-0.00738*
1,1,0.00886,-0.00443,0.00738*
%
%ADD26ROUNDEDRECTD26*%
G04:AMPARAMS|DCode=27|XSize=18.7mil|YSize=11.81mil|CornerRadius=2.95mil|HoleSize=0mil|Usage=FLASHONLY|Rotation=180.000|XOffset=0mil|YOffset=0mil|HoleType=Round|Shape=RoundedRectangle|*
%AMROUNDEDRECTD27*
21,1,0.01870,0.00591,0,0,180.0*
21,1,0.01280,0.01181,0,0,180.0*
1,1,0.00591,-0.00640,0.00295*
1,1,0.00591,0.00640,0.00295*
1,1,0.00591,0.00640,-0.00295*
1,1,0.00591,-0.00640,-0.00295*
%
%ADD27ROUNDEDRECTD27*%
G04:AMPARAMS|DCode=28|XSize=23.62mil|YSize=17.72mil|CornerRadius=4.43mil|HoleSize=0mil|Usage=FLASHONLY|Rotation=0.000|XOffset=0mil|YOffset=0mil|HoleType=Round|Shape=RoundedRectangle|*
%AMROUNDEDRECTD28*
21,1,0.02362,0.00886,0,0,0.0*
21,1,0.01476,0.01772,0,0,0.0*
1,1,0.00886,0.00738,-0.00443*
1,1,0.00886,-0.00738,-0.00443*
1,1,0.00886,-0.00738,0.00443*
1,1,0.00886,0.00738,0.00443*
%
%ADD28ROUNDEDRECTD28*%
G04:AMPARAMS|DCode=29|XSize=32.68mil|YSize=27.56mil|CornerRadius=2.76mil|HoleSize=0mil|Usage=FLASHONLY|Rotation=0.000|XOffset=0mil|YOffset=0mil|HoleType=Round|Shape=RoundedRectangle|*
%AMROUNDEDRECTD29*
21,1,0.03268,0.02205,0,0,0.0*
21,1,0.02717,0.02756,0,0,0.0*
1,1,0.00551,0.01358,-0.01102*
1,1,0.00551,-0.01358,-0.01102*
1,1,0.00551,-0.01358,0.01102*
1,1,0.00551,0.01358,0.01102*
%
%ADD29ROUNDEDRECTD29*%
%ADD30R,0.14567X0.03858*%
G04:AMPARAMS|DCode=31|XSize=57.09mil|YSize=39.37mil|CornerRadius=3.94mil|HoleSize=0mil|Usage=FLASHONLY|Rotation=90.000|XOffset=0mil|YOffset=0mil|HoleType=Round|Shape=RoundedRectangle|*
%AMROUNDEDRECTD31*
21,1,0.05709,0.03150,0,0,90.0*
21,1,0.04921,0.03937,0,0,90.0*
1,1,0.00787,0.01575,0.02461*
1,1,0.00787,0.01575,-0.02461*
1,1,0.00787,-0.01575,-0.02461*
1,1,0.00787,-0.01575,0.02461*
%
%ADD31ROUNDEDRECTD31*%
G04:AMPARAMS|DCode=32|XSize=42.52mil|YSize=36.22mil|CornerRadius=9.06mil|HoleSize=0mil|Usage=FLASHONLY|Rotation=270.000|XOffset=0mil|YOffset=0mil|HoleType=Round|Shape=RoundedRectangle|*
%AMROUNDEDRECTD32*
21,1,0.04252,0.01811,0,0,270.0*
21,1,0.02441,0.03622,0,0,270.0*
1,1,0.01811,-0.00906,-0.01221*
1,1,0.01811,-0.00906,0.01221*
1,1,0.01811,0.00906,0.01221*
1,1,0.01811,0.00906,-0.01221*
%
%ADD32ROUNDEDRECTD32*%
G04:AMPARAMS|DCode=33|XSize=32.68mil|YSize=27.56mil|CornerRadius=2.76mil|HoleSize=0mil|Usage=FLASHONLY|Rotation=90.000|XOffset=0mil|YOffset=0mil|HoleType=Round|Shape=RoundedRectangle|*
%AMROUNDEDRECTD33*
21,1,0.03268,0.02205,0,0,90.0*
21,1,0.02717,0.02756,0,0,90.0*
1,1,0.00551,0.01102,0.01358*
1,1,0.00551,0.01102,-0.01358*
1,1,0.00551,-0.01102,-0.01358*
1,1,0.00551,-0.01102,0.01358*
%
%ADD33ROUNDEDRECTD33*%
G04:AMPARAMS|DCode=34|XSize=42.52mil|YSize=36.22mil|CornerRadius=9.06mil|HoleSize=0mil|Usage=FLASHONLY|Rotation=180.000|XOffset=0mil|YOffset=0mil|HoleType=Round|Shape=RoundedRectangle|*
%AMROUNDEDRECTD34*
21,1,0.04252,0.01811,0,0,180.0*
21,1,0.02441,0.03622,0,0,180.0*
1,1,0.01811,-0.01221,0.00906*
1,1,0.01811,0.01221,0.00906*
1,1,0.01811,0.01221,-0.00906*
1,1,0.01811,-0.01221,-0.00906*
%
%ADD34ROUNDEDRECTD34*%
G04:AMPARAMS|DCode=35|XSize=21.65mil|YSize=17.72mil|CornerRadius=4.43mil|HoleSize=0mil|Usage=FLASHONLY|Rotation=90.000|XOffset=0mil|YOffset=0mil|HoleType=Round|Shape=RoundedRectangle|*
%AMROUNDEDRECTD35*
21,1,0.02165,0.00886,0,0,90.0*
21,1,0.01280,0.01772,0,0,90.0*
1,1,0.00886,0.00443,0.00640*
1,1,0.00886,0.00443,-0.00640*
1,1,0.00886,-0.00443,-0.00640*
1,1,0.00886,-0.00443,0.00640*
%
%ADD35ROUNDEDRECTD35*%
G04:AMPARAMS|DCode=36|XSize=21.65mil|YSize=41.34mil|CornerRadius=1.08mil|HoleSize=0mil|Usage=FLASHONLY|Rotation=0.000|XOffset=0mil|YOffset=0mil|HoleType=Round|Shape=RoundedRectangle|*
%AMROUNDEDRECTD36*
21,1,0.02165,0.03917,0,0,0.0*
21,1,0.01949,0.04134,0,0,0.0*
1,1,0.00217,0.00974,-0.01959*
1,1,0.00217,-0.00974,-0.01959*
1,1,0.00217,-0.00974,0.01959*
1,1,0.00217,0.00974,0.01959*
%
%ADD36ROUNDEDRECTD36*%
G04:AMPARAMS|DCode=37|XSize=21.65mil|YSize=17.72mil|CornerRadius=4.43mil|HoleSize=0mil|Usage=FLASHONLY|Rotation=180.000|XOffset=0mil|YOffset=0mil|HoleType=Round|Shape=RoundedRectangle|*
%AMROUNDEDRECTD37*
21,1,0.02165,0.00886,0,0,180.0*
21,1,0.01280,0.01772,0,0,180.0*
1,1,0.00886,-0.00640,0.00443*
1,1,0.00886,0.00640,0.00443*
1,1,0.00886,0.00640,-0.00443*
1,1,0.00886,-0.00640,-0.00443*
%
%ADD37ROUNDEDRECTD37*%
G04:AMPARAMS|DCode=38|XSize=11.81mil|YSize=13.78mil|CornerRadius=2.95mil|HoleSize=0mil|Usage=FLASHONLY|Rotation=270.000|XOffset=0mil|YOffset=0mil|HoleType=Round|Shape=RoundedRectangle|*
%AMROUNDEDRECTD38*
21,1,0.01181,0.00787,0,0,270.0*
21,1,0.00591,0.01378,0,0,270.0*
1,1,0.00591,-0.00394,-0.00295*
1,1,0.00591,-0.00394,0.00295*
1,1,0.00591,0.00394,0.00295*
1,1,0.00591,0.00394,-0.00295*
%
%ADD38ROUNDEDRECTD38*%
G04:AMPARAMS|DCode=39|XSize=16.14mil|YSize=13.78mil|CornerRadius=3.45mil|HoleSize=0mil|Usage=FLASHONLY|Rotation=90.000|XOffset=0mil|YOffset=0mil|HoleType=Round|Shape=RoundedRectangle|*
%AMROUNDEDRECTD39*
21,1,0.01614,0.00689,0,0,90.0*
21,1,0.00925,0.01378,0,0,90.0*
1,1,0.00689,0.00345,0.00463*
1,1,0.00689,0.00345,-0.00463*
1,1,0.00689,-0.00345,-0.00463*
1,1,0.00689,-0.00345,0.00463*
%
%ADD39ROUNDEDRECTD39*%
G04:AMPARAMS|DCode=40|XSize=16.14mil|YSize=13.78mil|CornerRadius=3.45mil|HoleSize=0mil|Usage=FLASHONLY|Rotation=0.000|XOffset=0mil|YOffset=0mil|HoleType=Round|Shape=RoundedRectangle|*
%AMROUNDEDRECTD40*
21,1,0.01614,0.00689,0,0,0.0*
21,1,0.00925,0.01378,0,0,0.0*
1,1,0.00689,0.00463,-0.00345*
1,1,0.00689,-0.00463,-0.00345*
1,1,0.00689,-0.00463,0.00345*
1,1,0.00689,0.00463,0.00345*
%
%ADD40ROUNDEDRECTD40*%
G04:AMPARAMS|DCode=41|XSize=22.64mil|YSize=13.78mil|CornerRadius=1.38mil|HoleSize=0mil|Usage=FLASHONLY|Rotation=180.000|XOffset=0mil|YOffset=0mil|HoleType=Round|Shape=RoundedRectangle|*
%AMROUNDEDRECTD41*
21,1,0.02264,0.01102,0,0,180.0*
21,1,0.01988,0.01378,0,0,180.0*
1,1,0.00276,-0.00994,0.00551*
1,1,0.00276,0.00994,0.00551*
1,1,0.00276,0.00994,-0.00551*
1,1,0.00276,-0.00994,-0.00551*
%
%ADD41ROUNDEDRECTD41*%
G04:AMPARAMS|DCode=42|XSize=22.64mil|YSize=13.78mil|CornerRadius=1.38mil|HoleSize=0mil|Usage=FLASHONLY|Rotation=270.000|XOffset=0mil|YOffset=0mil|HoleType=Round|Shape=RoundedRectangle|*
%AMROUNDEDRECTD42*
21,1,0.02264,0.01102,0,0,270.0*
21,1,0.01988,0.01378,0,0,270.0*
1,1,0.00276,-0.00551,-0.00994*
1,1,0.00276,-0.00551,0.00994*
1,1,0.00276,0.00551,0.00994*
1,1,0.00276,0.00551,-0.00994*
%
%ADD42ROUNDEDRECTD42*%
%ADD43R,0.03543X0.07480*%
%ADD44R,0.00945X0.03543*%
%ADD45R,0.03543X0.00945*%
G04:AMPARAMS|DCode=46|XSize=70.28mil|YSize=25.59mil|CornerRadius=6.4mil|HoleSize=0mil|Usage=FLASHONLY|Rotation=180.000|XOffset=0mil|YOffset=0mil|HoleType=Round|Shape=RoundedRectangle|*
%AMROUNDEDRECTD46*
21,1,0.07028,0.01280,0,0,180.0*
21,1,0.05749,0.02559,0,0,180.0*
1,1,0.01280,-0.02874,0.00640*
1,1,0.01280,0.02874,0.00640*
1,1,0.01280,0.02874,-0.00640*
1,1,0.01280,-0.02874,-0.00640*
%
%ADD46ROUNDEDRECTD46*%
G04:AMPARAMS|DCode=47|XSize=58.07mil|YSize=17.72mil|CornerRadius=4.43mil|HoleSize=0mil|Usage=FLASHONLY|Rotation=0.000|XOffset=0mil|YOffset=0mil|HoleType=Round|Shape=RoundedRectangle|*
%AMROUNDEDRECTD47*
21,1,0.05807,0.00886,0,0,0.0*
21,1,0.04921,0.01772,0,0,0.0*
1,1,0.00886,0.02461,-0.00443*
1,1,0.00886,-0.02461,-0.00443*
1,1,0.00886,-0.02461,0.00443*
1,1,0.00886,0.02461,0.00443*
%
%ADD47ROUNDEDRECTD47*%
G04:AMPARAMS|DCode=48|XSize=29.13mil|YSize=109.84mil|CornerRadius=7.28mil|HoleSize=0mil|Usage=FLASHONLY|Rotation=270.000|XOffset=0mil|YOffset=0mil|HoleType=Round|Shape=RoundedRectangle|*
%AMROUNDEDRECTD48*
21,1,0.02913,0.09528,0,0,270.0*
21,1,0.01457,0.10984,0,0,270.0*
1,1,0.01457,-0.04764,-0.00728*
1,1,0.01457,-0.04764,0.00728*
1,1,0.01457,0.04764,0.00728*
1,1,0.01457,0.04764,-0.00728*
%
%ADD48ROUNDEDRECTD48*%
%ADD49O,0.00984X0.03150*%
%ADD50O,0.03150X0.00984*%
%ADD51R,0.10433X0.10433*%
G04:AMPARAMS|DCode=52|XSize=13.78mil|YSize=23.62mil|CornerRadius=1.38mil|HoleSize=0mil|Usage=FLASHONLY|Rotation=180.000|XOffset=0mil|YOffset=0mil|HoleType=Round|Shape=RoundedRectangle|*
%AMROUNDEDRECTD52*
21,1,0.01378,0.02087,0,0,180.0*
21,1,0.01102,0.02362,0,0,180.0*
1,1,0.00276,-0.00551,0.01043*
1,1,0.00276,0.00551,0.01043*
1,1,0.00276,0.00551,-0.01043*
1,1,0.00276,-0.00551,-0.01043*
%
%ADD52ROUNDEDRECTD52*%
G04:AMPARAMS|DCode=53|XSize=31.89mil|YSize=36.61mil|CornerRadius=4.78mil|HoleSize=0mil|Usage=FLASHONLY|Rotation=90.000|XOffset=0mil|YOffset=0mil|HoleType=Round|Shape=RoundedRectangle|*
%AMROUNDEDRECTD53*
21,1,0.03189,0.02705,0,0,90.0*
21,1,0.02232,0.03661,0,0,90.0*
1,1,0.00957,0.01352,0.01116*
1,1,0.00957,0.01352,-0.01116*
1,1,0.00957,-0.01352,-0.01116*
1,1,0.00957,-0.01352,0.01116*
%
%ADD53ROUNDEDRECTD53*%
%ADD54R,0.02362X0.04488*%
%ADD55R,0.01181X0.04488*%
G04:AMPARAMS|DCode=56|XSize=18.11mil|YSize=7.87mil|CornerRadius=3.15mil|HoleSize=0mil|Usage=FLASHONLY|Rotation=270.000|XOffset=0mil|YOffset=0mil|HoleType=Round|Shape=RoundedRectangle|*
%AMROUNDEDRECTD56*
21,1,0.01811,0.00158,0,0,270.0*
21,1,0.01181,0.00787,0,0,270.0*
1,1,0.00630,-0.00079,-0.00591*
1,1,0.00630,-0.00079,0.00591*
1,1,0.00630,0.00079,0.00591*
1,1,0.00630,0.00079,-0.00591*
%
%ADD56ROUNDEDRECTD56*%
G04:AMPARAMS|DCode=57|XSize=18.11mil|YSize=7.87mil|CornerRadius=3.15mil|HoleSize=0mil|Usage=FLASHONLY|Rotation=0.000|XOffset=0mil|YOffset=0mil|HoleType=Round|Shape=RoundedRectangle|*
%AMROUNDEDRECTD57*
21,1,0.01811,0.00158,0,0,0.0*
21,1,0.01181,0.00787,0,0,0.0*
1,1,0.00630,0.00591,-0.00079*
1,1,0.00630,-0.00591,-0.00079*
1,1,0.00630,-0.00591,0.00079*
1,1,0.00630,0.00591,0.00079*
%
%ADD57ROUNDEDRECTD57*%
G04:AMPARAMS|DCode=58|XSize=31.5mil|YSize=31.5mil|CornerRadius=3.15mil|HoleSize=0mil|Usage=FLASHONLY|Rotation=0.000|XOffset=0mil|YOffset=0mil|HoleType=Round|Shape=RoundedRectangle|*
%AMROUNDEDRECTD58*
21,1,0.03150,0.02520,0,0,0.0*
21,1,0.02520,0.03150,0,0,0.0*
1,1,0.00630,0.01260,-0.01260*
1,1,0.00630,-0.01260,-0.01260*
1,1,0.00630,-0.01260,0.01260*
1,1,0.00630,0.01260,0.01260*
%
%ADD58ROUNDEDRECTD58*%
G04:AMPARAMS|DCode=59|XSize=27.56mil|YSize=27.56mil|CornerRadius=2.76mil|HoleSize=0mil|Usage=FLASHONLY|Rotation=180.000|XOffset=0mil|YOffset=0mil|HoleType=Round|Shape=RoundedRectangle|*
%AMROUNDEDRECTD59*
21,1,0.02756,0.02205,0,0,180.0*
21,1,0.02205,0.02756,0,0,180.0*
1,1,0.00551,-0.01102,0.01102*
1,1,0.00551,0.01102,0.01102*
1,1,0.00551,0.01102,-0.01102*
1,1,0.00551,-0.01102,-0.01102*
%
%ADD59ROUNDEDRECTD59*%
G04:AMPARAMS|DCode=60|XSize=33.46mil|YSize=11.81mil|CornerRadius=2.95mil|HoleSize=0mil|Usage=FLASHONLY|Rotation=270.000|XOffset=0mil|YOffset=0mil|HoleType=Round|Shape=RoundedRectangle|*
%AMROUNDEDRECTD60*
21,1,0.03346,0.00591,0,0,270.0*
21,1,0.02756,0.01181,0,0,270.0*
1,1,0.00591,-0.00295,-0.01378*
1,1,0.00591,-0.00295,0.01378*
1,1,0.00591,0.00295,0.01378*
1,1,0.00591,0.00295,-0.01378*
%
%ADD60ROUNDEDRECTD60*%
G04:AMPARAMS|DCode=61|XSize=33.46mil|YSize=11.81mil|CornerRadius=2.95mil|HoleSize=0mil|Usage=FLASHONLY|Rotation=0.000|XOffset=0mil|YOffset=0mil|HoleType=Round|Shape=RoundedRectangle|*
%AMROUNDEDRECTD61*
21,1,0.03346,0.00591,0,0,0.0*
21,1,0.02756,0.01181,0,0,0.0*
1,1,0.00591,0.01378,-0.00295*
1,1,0.00591,-0.01378,-0.00295*
1,1,0.00591,-0.01378,0.00295*
1,1,0.00591,0.01378,0.00295*
%
%ADD61ROUNDEDRECTD61*%
G04:AMPARAMS|DCode=62|XSize=206.69mil|YSize=206.69mil|CornerRadius=10.34mil|HoleSize=0mil|Usage=FLASHONLY|Rotation=0.000|XOffset=0mil|YOffset=0mil|HoleType=Round|Shape=RoundedRectangle|*
%AMROUNDEDRECTD62*
21,1,0.20669,0.18602,0,0,0.0*
21,1,0.18602,0.20669,0,0,0.0*
1,1,0.02067,0.09301,-0.09301*
1,1,0.02067,-0.09301,-0.09301*
1,1,0.02067,-0.09301,0.09301*
1,1,0.02067,0.09301,0.09301*
%
%ADD62ROUNDEDRECTD62*%
G04:AMPARAMS|DCode=63|XSize=68.9mil|YSize=45.28mil|CornerRadius=11.32mil|HoleSize=0mil|Usage=FLASHONLY|Rotation=0.000|XOffset=0mil|YOffset=0mil|HoleType=Round|Shape=RoundedRectangle|*
%AMROUNDEDRECTD63*
21,1,0.06890,0.02264,0,0,0.0*
21,1,0.04626,0.04528,0,0,0.0*
1,1,0.02264,0.02313,-0.01132*
1,1,0.02264,-0.02313,-0.01132*
1,1,0.02264,-0.02313,0.01132*
1,1,0.02264,0.02313,0.01132*
%
%ADD63ROUNDEDRECTD63*%
G04:AMPARAMS|DCode=64|XSize=55.12mil|YSize=47.24mil|CornerRadius=2.36mil|HoleSize=0mil|Usage=FLASHONLY|Rotation=0.000|XOffset=0mil|YOffset=0mil|HoleType=Round|Shape=RoundedRectangle|*
%AMROUNDEDRECTD64*
21,1,0.05512,0.04252,0,0,0.0*
21,1,0.05039,0.04724,0,0,0.0*
1,1,0.00472,0.02520,-0.02126*
1,1,0.00472,-0.02520,-0.02126*
1,1,0.00472,-0.02520,0.02126*
1,1,0.00472,0.02520,0.02126*
%
%ADD64ROUNDEDRECTD64*%
G04:AMPARAMS|DCode=65|XSize=41.34mil|YSize=25.59mil|CornerRadius=2.56mil|HoleSize=0mil|Usage=FLASHONLY|Rotation=270.000|XOffset=0mil|YOffset=0mil|HoleType=Round|Shape=RoundedRectangle|*
%AMROUNDEDRECTD65*
21,1,0.04134,0.02047,0,0,270.0*
21,1,0.03622,0.02559,0,0,270.0*
1,1,0.00512,-0.01024,-0.01811*
1,1,0.00512,-0.01024,0.01811*
1,1,0.00512,0.01024,0.01811*
1,1,0.00512,0.01024,-0.01811*
%
%ADD65ROUNDEDRECTD65*%
%ADD66R,0.10492X0.16496*%
%ADD67R,0.07008X0.16496*%
%ADD129C,0.00664*%
%ADD130C,0.00664*%
%ADD131C,0.00677*%
G04:AMPARAMS|DCode=132|XSize=23.62mil|YSize=19.68mil|CornerRadius=4.92mil|HoleSize=0mil|Usage=FLASHONLY|Rotation=90.000|XOffset=0mil|YOffset=0mil|HoleType=Round|Shape=RoundedRectangle|*
%AMROUNDEDRECTD132*
21,1,0.02362,0.00984,0,0,90.0*
21,1,0.01378,0.01968,0,0,90.0*
1,1,0.00984,0.00492,0.00689*
1,1,0.00984,0.00492,-0.00689*
1,1,0.00984,-0.00492,-0.00689*
1,1,0.00984,-0.00492,0.00689*
%
%ADD132ROUNDEDRECTD132*%
G04:AMPARAMS|DCode=133|XSize=23.62mil|YSize=19.68mil|CornerRadius=4.92mil|HoleSize=0mil|Usage=FLASHONLY|Rotation=0.000|XOffset=0mil|YOffset=0mil|HoleType=Round|Shape=RoundedRectangle|*
%AMROUNDEDRECTD133*
21,1,0.02362,0.00984,0,0,0.0*
21,1,0.01378,0.01968,0,0,0.0*
1,1,0.00984,0.00689,-0.00492*
1,1,0.00984,-0.00689,-0.00492*
1,1,0.00984,-0.00689,0.00492*
1,1,0.00984,0.00689,0.00492*
%
%ADD133ROUNDEDRECTD133*%
%ADD134R,0.03937X0.39370*%
%ADD135R,0.39370X0.03937*%
%ADD136R,0.70866X0.03937*%
%ADD137R,0.03937X0.62992*%
%ADD138C,0.03937*%
G04:AMPARAMS|DCode=139|XSize=39.37mil|YSize=47.24mil|CornerRadius=1.97mil|HoleSize=0mil|Usage=FLASHONLY|Rotation=90.000|XOffset=0mil|YOffset=0mil|HoleType=Round|Shape=RoundedRectangle|*
%AMROUNDEDRECTD139*
21,1,0.03937,0.04331,0,0,90.0*
21,1,0.03543,0.04724,0,0,90.0*
1,1,0.00394,0.02165,0.01772*
1,1,0.00394,0.02165,-0.01772*
1,1,0.00394,-0.02165,-0.01772*
1,1,0.00394,-0.02165,0.01772*
%
%ADD139ROUNDEDRECTD139*%
G04:AMPARAMS|DCode=140|XSize=41.34mil|YSize=86.61mil|CornerRadius=4.13mil|HoleSize=0mil|Usage=FLASHONLY|Rotation=0.000|XOffset=0mil|YOffset=0mil|HoleType=Round|Shape=RoundedRectangle|*
%AMROUNDEDRECTD140*
21,1,0.04134,0.07835,0,0,0.0*
21,1,0.03307,0.08661,0,0,0.0*
1,1,0.00827,0.01654,-0.03917*
1,1,0.00827,-0.01654,-0.03917*
1,1,0.00827,-0.01654,0.03917*
1,1,0.00827,0.01654,0.03917*
%
%ADD140ROUNDEDRECTD140*%
G04:AMPARAMS|DCode=141|XSize=39.37mil|YSize=41.34mil|CornerRadius=3.94mil|HoleSize=0mil|Usage=FLASHONLY|Rotation=0.000|XOffset=0mil|YOffset=0mil|HoleType=Round|Shape=RoundedRectangle|*
%AMROUNDEDRECTD141*
21,1,0.03937,0.03347,0,0,0.0*
21,1,0.03150,0.04134,0,0,0.0*
1,1,0.00787,0.01575,-0.01673*
1,1,0.00787,-0.01575,-0.01673*
1,1,0.00787,-0.01575,0.01673*
1,1,0.00787,0.01575,0.01673*
%
%ADD141ROUNDEDRECTD141*%
G04:AMPARAMS|DCode=142|XSize=70.87mil|YSize=27.56mil|CornerRadius=9.65mil|HoleSize=0mil|Usage=FLASHONLY|Rotation=270.000|XOffset=0mil|YOffset=0mil|HoleType=Round|Shape=RoundedRectangle|*
%AMROUNDEDRECTD142*
21,1,0.07087,0.00827,0,0,270.0*
21,1,0.05158,0.02756,0,0,270.0*
1,1,0.01929,-0.00413,-0.02579*
1,1,0.01929,-0.00413,0.02579*
1,1,0.01929,0.00413,0.02579*
1,1,0.01929,0.00413,-0.02579*
%
%ADD142ROUNDEDRECTD142*%
G04:AMPARAMS|DCode=143|XSize=70.87mil|YSize=31.5mil|CornerRadius=11.03mil|HoleSize=0mil|Usage=FLASHONLY|Rotation=270.000|XOffset=0mil|YOffset=0mil|HoleType=Round|Shape=RoundedRectangle|*
%AMROUNDEDRECTD143*
21,1,0.07087,0.00945,0,0,270.0*
21,1,0.04882,0.03150,0,0,270.0*
1,1,0.02205,-0.00472,-0.02441*
1,1,0.02205,-0.00472,0.02441*
1,1,0.02205,0.00472,0.02441*
1,1,0.02205,0.00472,-0.02441*
%
%ADD143ROUNDEDRECTD143*%
%ADD144C,0.01000*%
%ADD145C,0.01600*%
%ADD146C,0.01200*%
%ADD147C,0.02000*%
%ADD148C,0.01400*%
%ADD149C,0.03543*%
%ADD150C,0.01800*%
%ADD151C,0.02600*%
%ADD152C,0.01181*%
%ADD153C,0.03200*%
%ADD154C,0.05906*%
%ADD155C,0.19685*%
%ADD156O,0.03937X0.07087*%
%ADD157O,0.03937X0.08268*%
%ADD158C,0.02559*%
%ADD159C,0.03819*%
%ADD160C,0.02200*%
G36*
X990371Y707527D02*
X991948Y706874D01*
X993366Y705926D01*
X994573Y704720D01*
X995520Y703301D01*
X996173Y701725D01*
X996506Y700051D01*
Y699198D01*
Y658647D01*
Y657794D01*
X996173Y656121D01*
X995520Y654544D01*
X994573Y653126D01*
X993366Y651920D01*
X991948Y650972D01*
X990371Y650319D01*
X988698Y649986D01*
X947294D01*
X946441Y649986D01*
X944767Y650319D01*
X943191Y650972D01*
X941772Y651920D01*
X940566Y653126D01*
X939618Y654544D01*
X938965Y656121D01*
X938632Y657794D01*
X938632Y658647D01*
Y658647D01*
X938632Y699198D01*
Y700051D01*
X938965Y701725D01*
X939618Y703301D01*
X940566Y704720D01*
X941772Y705926D01*
X943191Y706874D01*
X944767Y707527D01*
X946441Y707860D01*
X947294Y707860D01*
X947294Y707860D01*
X988698D01*
X990371Y707527D01*
D02*
G37*
G36*
X1201511Y710035D02*
X1198548D01*
Y706649D01*
Y703815D01*
X1196737D01*
Y709996D01*
X1194266D01*
Y719563D01*
X1201511D01*
Y710035D01*
D02*
G37*
G36*
X1174010D02*
X1171048D01*
Y706649D01*
Y703815D01*
X1169237D01*
Y709996D01*
X1166766D01*
Y719563D01*
X1174010D01*
Y710035D01*
D02*
G37*
G36*
X1080128Y710035D02*
X1077166D01*
Y706649D01*
Y703815D01*
X1075355D01*
Y709996D01*
X1072884D01*
Y719563D01*
X1080128D01*
Y710035D01*
D02*
G37*
G36*
X1052628D02*
X1049666D01*
Y706649D01*
Y703815D01*
X1047855D01*
Y709996D01*
X1045384D01*
Y719563D01*
X1052628D01*
Y710035D01*
D02*
G37*
G36*
X947615Y639098D02*
X946675D01*
Y635898D01*
X948657D01*
X949712Y634843D01*
Y632278D01*
X949753Y632072D01*
X945916D01*
X942963Y635025D01*
Y639855D01*
X944484D01*
X944748Y639907D01*
X944787Y639934D01*
X947615D01*
Y639098D01*
D02*
G37*
G36*
X1182497Y691976D02*
X1184074Y691323D01*
X1185492Y690375D01*
X1186699Y689169D01*
X1187646Y687750D01*
X1188299Y686174D01*
X1188632Y684500D01*
Y683647D01*
Y653726D01*
Y621836D01*
Y620983D01*
X1188299Y619310D01*
X1187646Y617733D01*
X1186699Y616315D01*
X1185492Y615108D01*
X1184074Y614161D01*
X1182497Y613508D01*
X1180824Y613175D01*
X1179971Y613175D01*
Y613175D01*
X1073672Y613175D01*
X1072819Y613175D01*
X1071145Y613508D01*
X1069569Y614161D01*
X1068150Y615108D01*
X1066944Y616315D01*
X1065996Y617733D01*
X1065343Y619310D01*
X1065010Y620983D01*
X1065010Y621836D01*
X1065010Y621836D01*
Y653726D01*
Y683647D01*
Y684500D01*
X1065343Y686174D01*
X1065996Y687750D01*
X1066944Y689169D01*
X1068150Y690375D01*
X1069569Y691323D01*
X1071145Y691976D01*
X1072819Y692309D01*
X1180824D01*
X1182497Y691976D01*
D02*
G37*
%LPC*%
G36*
X951717Y693025D02*
X950634D01*
Y692041D01*
X951717D01*
Y693025D01*
D02*
G37*
G36*
X948862D02*
X947780D01*
Y692041D01*
X948862D01*
Y693025D01*
D02*
G37*
G36*
X967702Y696598D02*
X964553D01*
X964243Y696536D01*
X963981Y696361D01*
X963805Y696098D01*
X963744Y695789D01*
Y694749D01*
X963663Y694669D01*
X963183Y693950D01*
X963014Y693103D01*
X963183Y692256D01*
X963663Y691537D01*
X963744Y691483D01*
Y691172D01*
X963729Y691136D01*
Y690539D01*
X963957Y689988D01*
X964379Y689566D01*
X964930Y689337D01*
X965527D01*
X966078Y689566D01*
X966361Y689849D01*
X966619Y689591D01*
X967171Y689362D01*
X967768D01*
X968319Y689591D01*
X968741Y690013D01*
X968969Y690564D01*
Y690642D01*
X970209D01*
Y690019D01*
X985576D01*
Y694678D01*
X973213D01*
X972878Y694902D01*
X972031Y695070D01*
X972031Y695070D01*
X969419D01*
X969035Y695646D01*
X968464Y696027D01*
X968450Y696098D01*
X968275Y696361D01*
X968012Y696536D01*
X967702Y696598D01*
D02*
G37*
G36*
X955962Y690609D02*
X955125D01*
Y689822D01*
X955962D01*
Y690609D01*
D02*
G37*
G36*
X953649D02*
X952763D01*
Y689822D01*
X953649D01*
Y690609D01*
D02*
G37*
G36*
X951717Y690073D02*
X947780D01*
Y686753D01*
X947754Y686714D01*
X947701Y686451D01*
Y686318D01*
X947563D01*
X947256Y686191D01*
X946594Y685528D01*
X946467Y685222D01*
Y681854D01*
X946496Y681785D01*
X946204Y681285D01*
X946113D01*
Y680202D01*
X947097D01*
Y680734D01*
X947391Y680931D01*
X948944D01*
X949065Y680906D01*
Y677727D01*
X948944Y677702D01*
X947097D01*
Y678431D01*
X946113D01*
Y677348D01*
X946414D01*
X946467Y677269D01*
Y675637D01*
X946594Y675331D01*
X946594Y675331D01*
X946662Y675263D01*
X946778Y675215D01*
X946883Y675145D01*
X946927Y675153D01*
X946968Y675137D01*
X946968Y675137D01*
X947085Y675185D01*
X947208Y675210D01*
X947233Y675246D01*
X947274Y675263D01*
X947301Y675330D01*
X947918D01*
Y675757D01*
X948706D01*
Y673426D01*
X947918D01*
Y673853D01*
X947297D01*
X947278Y673900D01*
X947237Y673917D01*
X947212Y673953D01*
X947089Y673978D01*
X946972Y674026D01*
X946931Y674010D01*
X946887Y674018D01*
X946782Y673948D01*
X946666Y673900D01*
X946594Y673828D01*
X946467Y673522D01*
Y669474D01*
X946594Y669168D01*
X951305Y664457D01*
X951311Y664347D01*
X950970Y663919D01*
X948363D01*
Y660770D01*
X948363Y660770D01*
X948363D01*
X948076Y660404D01*
X947742Y660071D01*
X947615Y659764D01*
Y659415D01*
X947398Y658890D01*
Y658293D01*
X947615Y657769D01*
Y657320D01*
X947742Y657014D01*
X948048Y656887D01*
X956510D01*
X956817Y657014D01*
X958033Y658230D01*
X958099Y658389D01*
X958196Y658454D01*
X958484Y658886D01*
X958542Y659175D01*
X958586Y659199D01*
X966750D01*
X966812Y658886D01*
X967100Y658454D01*
X967532Y658166D01*
X968042Y658064D01*
X969853D01*
X970362Y658166D01*
X970794Y658454D01*
X971082Y658886D01*
X971144Y659199D01*
X974853D01*
X974998Y659138D01*
X975595D01*
X975740Y659199D01*
X979380D01*
X979687Y659325D01*
X979813Y659631D01*
Y662211D01*
X979859Y662442D01*
Y664253D01*
X979813Y664485D01*
Y666521D01*
X979934Y666702D01*
X982807D01*
Y664515D01*
X985956D01*
Y666358D01*
X986150Y666482D01*
X986456Y666602D01*
X986935Y666403D01*
X987532D01*
X988083Y666632D01*
X988153Y666702D01*
X988860D01*
X989166Y666828D01*
X989293Y667135D01*
Y673425D01*
X989166Y673731D01*
X988860Y673858D01*
X985956D01*
Y675538D01*
X982807D01*
Y673858D01*
X981514D01*
X979859Y675513D01*
Y676851D01*
X979758Y677361D01*
X979469Y677793D01*
X979038Y678081D01*
X978528Y678183D01*
X976087D01*
X975578Y678081D01*
X975146Y677793D01*
X974858Y677361D01*
X974756Y676851D01*
Y676797D01*
X974459D01*
X974153Y676670D01*
X974026Y676364D01*
Y671443D01*
X974153Y671136D01*
X977873Y667416D01*
X977682Y666954D01*
X964306D01*
X964227Y666921D01*
X964141D01*
X963793Y666777D01*
X963368D01*
X963021Y666921D01*
X962935D01*
X962855Y666954D01*
X961297D01*
X959967Y668284D01*
X960159Y668746D01*
X960797D01*
X961126Y668812D01*
X961404Y668998D01*
X961438Y669049D01*
X961452D01*
Y669069D01*
X961591Y669277D01*
X961656Y669606D01*
Y670492D01*
X961591Y670820D01*
X961436Y671051D01*
Y673525D01*
X958681D01*
Y673159D01*
X958219Y672968D01*
X957358Y673828D01*
Y674420D01*
X957293Y674749D01*
X957106Y675028D01*
X956828Y675214D01*
X956499Y675279D01*
X956474D01*
Y676286D01*
X956773Y676574D01*
X957312Y676496D01*
X957386Y676385D01*
X957436Y676352D01*
Y676338D01*
X957457D01*
X957664Y676199D01*
X957993Y676134D01*
X958879D01*
X959208Y676199D01*
X959439Y676353D01*
X961913D01*
Y679109D01*
X959439D01*
X959252Y679234D01*
Y680829D01*
X959328Y680942D01*
X959382Y681214D01*
Y681804D01*
X959328Y682076D01*
X959174Y682305D01*
Y682681D01*
X959328Y682911D01*
X959382Y683182D01*
Y683773D01*
X959328Y684044D01*
X959174Y684274D01*
Y684649D01*
X959328Y684879D01*
X959382Y685151D01*
Y685741D01*
X959328Y686013D01*
X959174Y686242D01*
X958944Y686396D01*
X958673Y686450D01*
X958111D01*
X958033Y686466D01*
X956110D01*
X955962Y686687D01*
Y689034D01*
X952812D01*
Y687562D01*
X951717D01*
Y690073D01*
D02*
G37*
G36*
X967338Y688424D02*
X964631D01*
X964602Y688419D01*
X963992D01*
X963720Y688365D01*
X963522Y688232D01*
X963499Y688223D01*
X963499Y688223D01*
X963499Y688223D01*
X963496Y688215D01*
X963490Y688211D01*
X963337Y687981D01*
X963283Y687710D01*
Y687119D01*
X963337Y686848D01*
X963394Y686762D01*
X963372Y686654D01*
X963304Y686502D01*
X963117Y686262D01*
X962805Y686200D01*
X962540Y686023D01*
X962540Y686023D01*
X962071Y685554D01*
X961895Y685289D01*
X961832Y684977D01*
X961832Y684977D01*
Y680741D01*
X961832Y680740D01*
X961895Y680428D01*
X962071Y680164D01*
X962680Y679556D01*
X962846Y679109D01*
X962846D01*
X962846Y679109D01*
Y678322D01*
X963436D01*
Y678322D01*
X963773Y678462D01*
X964454Y677781D01*
Y677272D01*
X964393Y677247D01*
X963971Y676825D01*
X963936Y676740D01*
X963436Y676840D01*
Y677141D01*
X962846D01*
Y676353D01*
X962846Y676353D01*
X963085Y675853D01*
X963062Y675817D01*
X962887Y675782D01*
X962608Y675596D01*
X962422Y675317D01*
X962356Y674988D01*
Y673512D01*
X962422Y673183D01*
X962608Y672904D01*
X962659Y672870D01*
Y672856D01*
X962680D01*
X962887Y672718D01*
X963216Y672652D01*
X964102D01*
X964431Y672718D01*
X964661Y672872D01*
X966656D01*
X966803Y672773D01*
Y671717D01*
X966577Y671566D01*
X964103D01*
Y668810D01*
X966577D01*
X966808Y668655D01*
X967137Y668590D01*
X968023D01*
X968351Y668655D01*
X968630Y668842D01*
X968791Y669082D01*
X968964Y669132D01*
X969334Y669161D01*
X969696Y668800D01*
X970247Y668572D01*
X970844D01*
X971395Y668800D01*
X971817Y669222D01*
X972046Y669773D01*
Y670370D01*
X971871Y670791D01*
X971817Y670921D01*
X971868Y671345D01*
X972054Y671624D01*
X972120Y671952D01*
Y672838D01*
X972054Y673167D01*
X971900Y673398D01*
Y675393D01*
X972054Y675624D01*
X972120Y675952D01*
Y676838D01*
X972054Y677167D01*
X971868Y677446D01*
X971589Y677632D01*
X971338Y677682D01*
Y679317D01*
X971276Y679629D01*
X971099Y679893D01*
X971099Y679893D01*
X970765Y680227D01*
X970957Y680689D01*
X985576D01*
Y685347D01*
X976626D01*
X976560Y685360D01*
X970996D01*
X968134Y688223D01*
X967828Y688350D01*
X967714D01*
X967338Y688424D01*
D02*
G37*
G36*
X985956Y677113D02*
X985120D01*
Y676326D01*
X985956D01*
Y677113D01*
D02*
G37*
G36*
X983643D02*
X982758D01*
Y676326D01*
X983643D01*
Y677113D01*
D02*
G37*
G36*
X961436Y675049D02*
X960649D01*
Y674458D01*
X961436D01*
Y675049D01*
D02*
G37*
G36*
X959468D02*
X958681D01*
Y674458D01*
X959468D01*
Y675049D01*
D02*
G37*
G36*
X963170Y671566D02*
X962580D01*
Y670778D01*
X963170D01*
Y671566D01*
D02*
G37*
G36*
Y669597D02*
X962580D01*
Y668810D01*
X963170D01*
Y669597D01*
D02*
G37*
G36*
X947575Y663919D02*
X946788D01*
Y663083D01*
X947575D01*
Y663919D01*
D02*
G37*
G36*
X986006Y663728D02*
X985120D01*
Y662940D01*
X986006D01*
Y663728D01*
D02*
G37*
G36*
X983643D02*
X982807D01*
Y662940D01*
X983643D01*
Y663728D01*
D02*
G37*
G36*
X947575Y661607D02*
X946788D01*
Y660721D01*
X947575D01*
Y661607D01*
D02*
G37*
%LPD*%
G36*
X955962Y685097D02*
X955125D01*
Y684310D01*
X955962D01*
Y683367D01*
X955714Y683120D01*
X955560Y682888D01*
X955505Y682615D01*
Y681285D01*
X954577D01*
Y680202D01*
X955505D01*
Y678431D01*
X954577D01*
Y677348D01*
X955313D01*
X955256Y677290D01*
X955101Y677059D01*
X955047Y676786D01*
Y675279D01*
X955022D01*
X954694Y675214D01*
X954415Y675028D01*
X954228Y674749D01*
X954163Y674420D01*
Y673534D01*
X954228Y673205D01*
X954383Y672974D01*
Y670501D01*
X957139D01*
X961118Y666521D01*
X962855D01*
X963282Y666344D01*
X963879D01*
X964306Y666521D01*
X979380D01*
Y659631D01*
X958586D01*
Y661836D01*
X958484Y662346D01*
X958196Y662778D01*
X958160Y662802D01*
Y663568D01*
X958033Y663875D01*
X957727Y664002D01*
X953087D01*
X952890Y663919D01*
X952518D01*
X952479Y663927D01*
X952424Y663950D01*
X946900Y669474D01*
Y673522D01*
X946972Y673594D01*
X946980Y673554D01*
X947131Y673328D01*
Y672967D01*
X947918D01*
Y672993D01*
X948804D01*
X948924Y673017D01*
X951855D01*
Y676166D01*
X948924D01*
X948804Y676190D01*
X947820D01*
X947701Y676166D01*
X947131D01*
Y675855D01*
X946980Y675629D01*
X946968Y675569D01*
X946900Y675637D01*
Y677269D01*
X948987D01*
X949250Y677322D01*
X949289Y677348D01*
X952609D01*
Y681285D01*
X949289D01*
X949250Y681311D01*
X948987Y681364D01*
X947391D01*
X946900Y681854D01*
Y685222D01*
X947563Y685885D01*
X955962D01*
Y685097D01*
D02*
G37*
G36*
X979380Y675380D02*
X981335Y673425D01*
X982807D01*
Y672389D01*
X985956D01*
Y673425D01*
X988860D01*
Y667135D01*
X985956D01*
Y667664D01*
X982807D01*
Y667135D01*
X978767D01*
X974459Y671443D01*
Y676364D01*
X979380D01*
Y675380D01*
D02*
G37*
G36*
X957727Y658536D02*
X956510Y657320D01*
X948048D01*
Y659764D01*
X949054Y660770D01*
X951513D01*
Y663568D01*
X952300D01*
Y663083D01*
X953087D01*
Y663568D01*
X957727D01*
Y658536D01*
D02*
G37*
%LPC*%
G36*
X953649Y685097D02*
X952812D01*
Y684310D01*
X953649D01*
Y685097D01*
D02*
G37*
G36*
X951717Y684561D02*
X950634D01*
Y683577D01*
X951717D01*
Y684561D01*
D02*
G37*
G36*
X948862D02*
X947780D01*
Y683577D01*
X948862D01*
Y684561D01*
D02*
G37*
G36*
X953430Y676166D02*
X952643D01*
Y675330D01*
X953430D01*
Y676166D01*
D02*
G37*
G36*
Y673853D02*
X952643D01*
Y673017D01*
X953430D01*
Y673853D01*
D02*
G37*
G36*
X957154Y669567D02*
X956367D01*
Y668977D01*
X957154D01*
Y669567D01*
D02*
G37*
G36*
X955170D02*
X954383D01*
Y668977D01*
X955170D01*
Y669567D01*
D02*
G37*
G36*
X985956Y671601D02*
X985120D01*
Y670814D01*
X985956D01*
Y671601D01*
D02*
G37*
G36*
X983643D02*
X982807D01*
Y670814D01*
X983643D01*
Y671601D01*
D02*
G37*
G36*
X985956Y669239D02*
X985120D01*
Y668452D01*
X985956D01*
Y669239D01*
D02*
G37*
G36*
X983643D02*
X982807D01*
Y668452D01*
X983643D01*
Y669239D01*
D02*
G37*
G36*
X953087Y661607D02*
X952300D01*
Y660770D01*
X953087D01*
Y661607D01*
D02*
G37*
%LPD*%
G36*
X971506Y684238D02*
X975443D01*
Y681285D01*
X969707D01*
X967128Y683864D01*
X966864Y684040D01*
X966762Y684061D01*
X966585Y684238D01*
Y686283D01*
X966039Y686828D01*
X963806D01*
X963805Y687917D01*
X967828D01*
X971506Y684238D01*
D02*
G37*
%LPC*%
G36*
X945675Y639098D02*
X944675D01*
Y638098D01*
X945675D01*
Y639098D01*
D02*
G37*
G36*
Y636898D02*
X944675D01*
Y635898D01*
X945675D01*
Y636898D01*
D02*
G37*
G36*
X1092340Y685517D02*
X1091553D01*
Y684631D01*
X1092340D01*
Y685517D01*
D02*
G37*
G36*
X1085538Y684573D02*
X1084554D01*
Y683490D01*
X1085538D01*
Y684573D01*
D02*
G37*
G36*
X1092340Y683844D02*
X1091553D01*
Y682958D01*
X1092340D01*
Y683844D01*
D02*
G37*
G36*
X1085538Y681718D02*
X1084554D01*
Y680636D01*
X1085538D01*
Y681718D01*
D02*
G37*
G36*
X1172631Y686403D02*
X1096506D01*
Y685584D01*
X1096034Y685517D01*
Y685517D01*
X1094899D01*
Y685439D01*
X1094427D01*
X1094156Y685385D01*
X1093925Y685231D01*
X1093772Y685001D01*
X1093718Y684730D01*
Y684298D01*
X1093706Y684238D01*
X1093718Y684178D01*
Y683746D01*
X1093772Y683474D01*
X1093925Y683244D01*
X1094156Y683091D01*
X1094427Y683037D01*
X1094598D01*
X1094805Y682537D01*
X1093554Y681285D01*
X1093750Y681088D01*
Y674288D01*
X1092159Y672696D01*
X1091662Y672691D01*
X1091654Y672691D01*
X1090874D01*
Y671805D01*
X1091654D01*
X1091662Y671805D01*
X1092154Y671786D01*
Y671037D01*
X1091662Y671018D01*
X1091654Y671018D01*
X1090874D01*
Y670132D01*
X1091654D01*
X1091662Y670132D01*
X1092154Y670113D01*
Y668469D01*
X1091744Y668300D01*
X1091322Y667878D01*
X1091131Y667416D01*
X1090632Y667208D01*
X1089543Y668296D01*
Y668934D01*
X1089804D01*
X1090193Y669095D01*
X1090354Y669484D01*
Y673401D01*
X1090271Y673600D01*
Y676068D01*
X1091380D01*
X1091388Y676068D01*
X1091880D01*
X1091888Y676068D01*
X1092668D01*
Y676954D01*
X1091888D01*
X1091880Y676954D01*
X1091388Y676973D01*
Y677723D01*
X1091880Y677742D01*
X1091888Y677742D01*
X1092668D01*
Y678628D01*
X1091888D01*
X1091880Y678628D01*
X1091388D01*
X1091380Y678628D01*
X1089813D01*
Y678628D01*
X1089321D01*
Y678628D01*
X1088534D01*
Y677742D01*
X1088553D01*
X1088553Y677742D01*
Y676954D01*
X1088553Y676954D01*
X1088534D01*
Y676068D01*
X1088844D01*
Y673951D01*
X1087855D01*
X1087466Y673790D01*
X1087305Y673401D01*
Y669530D01*
X1087183Y669430D01*
X1086848Y669280D01*
X1086023Y670105D01*
Y673401D01*
X1085862Y673790D01*
X1085473Y673951D01*
X1085468D01*
Y676068D01*
X1085778D01*
Y676954D01*
X1085758D01*
X1085758Y676954D01*
Y677742D01*
X1085758Y677742D01*
X1085778D01*
Y678628D01*
X1084991D01*
Y678628D01*
X1084498D01*
Y678628D01*
X1082932D01*
X1082924Y678628D01*
X1082432D01*
X1082424Y678628D01*
X1081644D01*
Y677742D01*
X1082424D01*
X1082432Y677742D01*
X1082924Y677723D01*
Y676973D01*
X1082432Y676954D01*
X1082424Y676954D01*
X1081644D01*
Y676068D01*
X1082424D01*
X1082432Y676068D01*
X1082924D01*
X1082932Y676068D01*
X1084041D01*
Y673951D01*
X1083524D01*
X1083135Y673790D01*
X1082974Y673401D01*
Y669484D01*
X1082732Y669122D01*
X1080916D01*
X1080561Y669474D01*
Y669986D01*
X1080581Y670084D01*
Y672801D01*
X1080561Y672899D01*
Y673411D01*
X1080195D01*
X1080156Y673437D01*
X1079892Y673490D01*
X1079605D01*
Y674864D01*
X1079605Y674864D01*
X1079543Y675176D01*
X1079366Y675441D01*
X1079366Y675441D01*
X1079304Y675503D01*
Y676118D01*
X1079287Y676204D01*
X1079405Y676348D01*
X1079405D01*
Y678348D01*
X1079405D01*
X1079287Y678492D01*
X1079304Y678579D01*
Y679348D01*
X1079405D01*
Y680348D01*
X1079786Y680636D01*
X1082585D01*
Y684573D01*
X1079266D01*
X1079227Y684599D01*
X1078963Y684651D01*
X1076758D01*
X1076495Y684599D01*
X1076456Y684573D01*
X1076089D01*
Y684169D01*
X1076059Y684129D01*
X1075830Y683952D01*
X1075725Y683908D01*
X1075570Y683884D01*
X1075248Y684017D01*
X1074652D01*
X1074100Y683788D01*
X1073678Y683367D01*
X1073450Y682815D01*
Y682219D01*
X1073678Y681667D01*
X1074100Y681245D01*
X1074652Y681017D01*
X1075248D01*
X1075581Y681154D01*
X1075605Y681154D01*
X1075829Y681028D01*
X1076089Y680636D01*
X1076206Y680348D01*
X1076206D01*
Y679348D01*
X1076306D01*
Y678733D01*
X1075928Y678444D01*
X1075839Y678412D01*
X1075739Y678430D01*
X1075519Y678651D01*
X1074967Y678879D01*
X1074371D01*
X1073819Y678651D01*
X1073397Y678229D01*
X1073169Y677677D01*
Y677081D01*
X1073397Y676529D01*
X1073819Y676107D01*
X1074371Y675879D01*
X1074967D01*
X1075519Y676107D01*
X1075707Y676295D01*
X1075811D01*
X1076259Y675848D01*
X1076206Y675348D01*
X1076206D01*
Y674348D01*
X1077205D01*
Y674373D01*
X1077974D01*
Y673490D01*
X1077687D01*
X1077424Y673437D01*
X1077385Y673411D01*
X1074065D01*
Y669474D01*
X1076983D01*
X1077190Y668974D01*
X1076962Y668423D01*
Y667826D01*
X1077190Y667275D01*
X1077612Y666853D01*
X1078164Y666624D01*
X1078760D01*
X1079312Y666853D01*
X1079734Y667275D01*
X1079761Y667341D01*
X1079920Y667347D01*
X1080260Y666861D01*
X1080243Y666820D01*
Y666515D01*
X1080118Y666177D01*
X1079781Y666053D01*
X1079476D01*
X1078924Y665824D01*
X1078502Y665402D01*
X1078274Y664851D01*
Y664254D01*
X1078502Y663703D01*
X1078924Y663281D01*
X1079476Y663053D01*
X1080072D01*
X1080624Y663281D01*
X1081046Y663703D01*
X1081564Y663693D01*
X1081742Y663568D01*
Y661817D01*
X1080774D01*
X1080764Y661819D01*
X1080764Y661819D01*
X1077108D01*
Y661830D01*
X1077084Y661949D01*
Y664881D01*
X1073934D01*
Y663555D01*
X1073660Y663403D01*
X1073435Y663321D01*
X1072929Y663531D01*
X1072332D01*
X1071781Y663303D01*
X1071359Y662881D01*
X1071130Y662329D01*
Y661733D01*
X1071359Y661181D01*
X1071781Y660759D01*
X1072332Y660531D01*
X1072625D01*
X1072834Y660391D01*
X1073302Y660298D01*
X1073934D01*
Y660156D01*
X1074246D01*
X1074409Y660047D01*
X1074512Y659786D01*
X1074565Y659501D01*
X1074558Y659478D01*
X1074337Y658946D01*
Y658641D01*
X1074213Y658303D01*
X1073875Y658179D01*
X1073570D01*
X1073019Y657950D01*
X1072597Y657528D01*
X1072369Y656977D01*
Y656380D01*
X1072597Y655829D01*
X1073019Y655407D01*
X1073570Y655179D01*
X1073875D01*
X1074078Y655104D01*
X1074197Y654829D01*
X1073964Y654275D01*
X1073875Y654242D01*
X1073570D01*
X1073019Y654013D01*
X1072597Y653591D01*
X1072369Y653040D01*
Y652443D01*
X1072597Y651892D01*
X1073019Y651470D01*
X1073570Y651242D01*
X1073875D01*
X1074078Y651167D01*
X1074197Y650892D01*
X1073964Y650338D01*
X1073875Y650305D01*
X1073570D01*
X1073019Y650076D01*
X1072597Y649654D01*
X1072369Y649103D01*
Y648506D01*
X1072597Y647955D01*
X1072651Y647901D01*
X1072553Y647411D01*
X1072433Y647361D01*
X1072011Y646939D01*
X1071783Y646388D01*
Y645791D01*
X1072011Y645240D01*
X1072433Y644818D01*
X1072984Y644589D01*
X1073581D01*
X1073717Y644646D01*
X1074000Y644363D01*
X1074231Y644208D01*
X1074303Y644194D01*
X1074426Y643986D01*
X1074522Y643738D01*
X1074526Y643654D01*
X1074337Y643198D01*
Y642601D01*
X1074393Y642467D01*
X1074115Y642051D01*
X1072977D01*
Y638901D01*
X1075908D01*
X1076028Y638877D01*
X1076683D01*
X1076745Y638817D01*
X1076920Y638378D01*
X1076740Y638160D01*
X1076025D01*
X1075906Y638136D01*
X1072974D01*
Y634987D01*
X1075906D01*
X1076025Y634963D01*
X1077010D01*
X1077129Y634987D01*
X1077699D01*
Y635298D01*
X1077730Y635345D01*
X1077870Y635387D01*
X1078262Y635402D01*
X1078314Y635387D01*
X1078633Y635068D01*
X1079184Y634840D01*
X1079781D01*
X1080068Y634959D01*
X1080569Y634652D01*
Y628439D01*
X1080324Y627999D01*
X1079727D01*
X1079176Y627771D01*
X1078754Y627349D01*
X1078526Y626797D01*
Y626201D01*
X1078754Y625649D01*
X1079176Y625227D01*
X1079300Y625176D01*
X1079292Y624638D01*
X1078924Y624486D01*
X1078502Y624064D01*
X1078274Y623513D01*
Y622916D01*
X1078502Y622365D01*
X1078924Y621943D01*
X1079476Y621714D01*
X1080072D01*
X1080624Y621943D01*
X1081046Y622365D01*
X1081274Y622916D01*
Y623513D01*
X1081218Y623649D01*
X1083232Y625662D01*
X1083386Y625894D01*
X1083440Y626167D01*
Y627606D01*
X1083941Y627814D01*
X1083949Y627805D01*
X1084501Y627576D01*
X1085097D01*
X1085649Y627805D01*
X1086071Y628227D01*
X1086299Y628778D01*
Y629375D01*
X1086250Y629493D01*
X1086633Y629876D01*
X1086772Y629818D01*
X1087368D01*
X1087808Y630000D01*
X1088308Y629781D01*
Y626629D01*
X1088040Y626199D01*
X1087443D01*
X1086892Y625971D01*
X1086470Y625549D01*
X1086241Y624997D01*
Y624401D01*
X1086470Y623849D01*
X1086892Y623427D01*
X1087443Y623199D01*
X1088040D01*
X1088591Y623427D01*
X1089013Y623849D01*
X1089241Y624401D01*
Y624997D01*
X1089185Y625133D01*
X1089526Y625474D01*
X1089681Y625706D01*
X1089735Y625979D01*
Y629719D01*
X1090235Y629926D01*
X1090289Y629873D01*
X1090840Y629645D01*
X1091275D01*
X1091572Y629313D01*
X1091625Y629183D01*
X1091620Y629172D01*
Y628575D01*
X1091849Y628024D01*
X1092271Y627602D01*
X1092822Y627374D01*
X1093419D01*
X1093970Y627602D01*
X1094392Y628024D01*
X1094620Y628575D01*
Y629172D01*
X1094392Y629723D01*
X1094209Y629906D01*
X1094225Y629984D01*
X1094795Y630289D01*
X1094909Y630242D01*
X1095505D01*
X1096057Y630470D01*
X1096479Y630892D01*
X1096529Y631015D01*
X1097010Y630869D01*
X1096914Y630384D01*
Y628120D01*
X1097033Y627522D01*
X1097371Y627015D01*
X1097878Y626677D01*
X1098476Y626558D01*
X1103102D01*
X1103700Y626677D01*
X1104206Y627015D01*
X1104545Y627522D01*
X1104664Y628120D01*
Y630384D01*
X1104584Y630787D01*
X1105044Y631033D01*
X1105526Y630552D01*
X1105857Y630331D01*
X1106014Y630299D01*
X1106124Y630167D01*
X1106306Y629835D01*
X1106318Y629753D01*
X1106277Y629548D01*
Y628170D01*
X1106346Y627822D01*
X1106497Y627595D01*
Y627235D01*
X1107285D01*
Y627260D01*
X1108171D01*
X1108290Y627284D01*
X1111222D01*
Y629951D01*
X1111528Y630121D01*
X1111565Y630116D01*
X1112009Y629861D01*
Y629597D01*
X1112797D01*
Y630434D01*
X1112330Y630434D01*
X1112306Y630452D01*
X1112080Y630856D01*
X1112037Y630934D01*
X1112102Y631091D01*
X1112640Y631409D01*
X1112691Y631388D01*
X1113287D01*
X1113838Y631617D01*
X1114260Y632038D01*
X1114489Y632590D01*
Y633187D01*
X1114260Y633738D01*
X1113838Y634160D01*
X1113287Y634388D01*
X1112691D01*
X1112139Y634160D01*
X1111893Y633913D01*
X1110029Y635777D01*
X1109797Y635932D01*
X1109524Y635986D01*
X1106369D01*
Y636994D01*
X1107333D01*
Y638154D01*
X1109498D01*
X1109770Y638208D01*
X1109859Y638268D01*
X1110262Y638131D01*
X1110321Y638102D01*
X1110376Y638058D01*
X1110587Y637546D01*
X1111009Y637124D01*
X1111561Y636896D01*
X1112157D01*
X1112709Y637124D01*
X1113131Y637546D01*
X1113359Y638098D01*
Y638694D01*
X1113233Y638999D01*
X1113531Y639499D01*
X1114137D01*
X1114410Y639554D01*
X1114642Y639708D01*
X1115536Y640603D01*
X1117567D01*
X1117769Y640329D01*
X1117736Y639808D01*
X1117314Y639386D01*
X1117312Y639380D01*
X1116487D01*
X1116138Y639310D01*
X1115912Y639159D01*
X1115552D01*
Y638372D01*
X1115577D01*
Y637486D01*
X1115601Y637366D01*
Y634435D01*
X1118750D01*
Y636958D01*
X1119538D01*
Y634435D01*
X1122687D01*
Y636958D01*
X1123431D01*
Y634735D01*
X1123481Y634487D01*
X1123621Y634277D01*
X1123832Y634136D01*
X1124080Y634087D01*
X1129119D01*
X1129368Y634136D01*
X1129578Y634277D01*
X1129719Y634487D01*
X1129768Y634735D01*
Y638987D01*
X1129719Y639236D01*
X1129578Y639446D01*
X1129368Y639587D01*
X1129119Y639636D01*
X1124080D01*
X1123832Y639587D01*
X1123621Y639446D01*
X1123481Y639236D01*
X1123433Y638998D01*
X1122687D01*
Y639159D01*
X1122376D01*
X1122150Y639310D01*
X1121802Y639380D01*
X1120424D01*
X1120367Y639368D01*
X1120225Y639511D01*
X1120136Y640016D01*
X1120558Y640438D01*
X1120786Y640989D01*
Y641586D01*
X1120558Y642137D01*
X1120136Y642559D01*
X1119584Y642787D01*
X1118988D01*
X1118436Y642559D01*
X1118014Y642137D01*
X1117970Y642031D01*
X1115241D01*
X1114968Y641976D01*
X1114824Y641881D01*
X1114522Y641975D01*
X1114324Y642117D01*
Y642311D01*
X1114096Y642863D01*
X1113674Y643285D01*
X1113330Y643427D01*
X1113289Y643635D01*
X1113517Y644186D01*
Y644783D01*
X1113289Y645334D01*
X1113066Y645557D01*
X1112877Y645782D01*
X1113052Y646221D01*
X1113573Y646742D01*
X1114025D01*
X1114496Y646937D01*
X1114996Y646737D01*
Y645303D01*
X1118146D01*
Y648235D01*
X1118170Y648354D01*
Y649339D01*
X1118146Y649458D01*
Y649553D01*
X1118266Y649634D01*
X1118766Y649368D01*
Y649056D01*
X1118791D01*
Y648170D01*
X1118815Y648051D01*
Y645119D01*
X1121965D01*
Y647671D01*
X1122094Y647805D01*
X1122307Y647839D01*
X1122757Y647773D01*
X1123453Y647076D01*
Y643896D01*
X1123643Y643439D01*
X1124099Y643250D01*
X1125122D01*
Y642602D01*
X1125176Y642329D01*
X1125331Y642097D01*
X1125717Y641711D01*
Y641323D01*
X1125737Y641222D01*
Y640437D01*
X1126524D01*
Y640437D01*
X1127017D01*
Y640437D01*
X1128583D01*
X1128591Y640437D01*
X1129083D01*
X1129091Y640437D01*
X1129871D01*
Y641323D01*
X1129091D01*
X1129083Y641323D01*
X1128591Y641341D01*
Y642091D01*
X1129083Y642110D01*
X1129091Y642110D01*
X1129871D01*
Y642996D01*
X1129156D01*
X1129044Y643110D01*
X1128910Y643496D01*
X1129076Y643896D01*
Y647439D01*
X1128887Y647896D01*
X1128430Y648085D01*
X1124463D01*
X1123856Y648693D01*
Y653398D01*
X1123801Y653671D01*
X1123647Y653902D01*
X1122925Y654624D01*
Y655950D01*
X1122860Y656279D01*
X1122673Y656558D01*
X1122623Y656592D01*
Y656606D01*
X1122602D01*
X1122394Y656744D01*
X1122066Y656810D01*
X1121180D01*
X1120851Y656744D01*
X1120620Y656590D01*
X1118625D01*
X1118394Y656744D01*
X1118066Y656810D01*
X1117545D01*
X1117445Y656959D01*
X1117711Y657459D01*
X1123260D01*
X1127302Y653417D01*
X1127534Y653262D01*
X1127807Y653208D01*
X1129032D01*
X1130146Y652093D01*
Y649014D01*
X1130336Y648558D01*
X1130792Y648368D01*
X1135123D01*
X1135580Y648558D01*
X1135769Y649014D01*
Y650342D01*
X1135771Y650344D01*
X1136517D01*
X1136596Y649877D01*
X1136596Y649877D01*
X1136596Y649876D01*
Y648310D01*
X1136596Y648302D01*
Y647810D01*
X1136596Y647802D01*
Y647022D01*
X1137482D01*
Y647802D01*
X1137482Y647810D01*
X1137501Y648302D01*
X1138250D01*
X1138269Y647810D01*
X1138269Y647802D01*
Y647022D01*
X1139155D01*
Y647802D01*
X1139155Y647810D01*
Y648302D01*
X1139155Y648310D01*
Y649877D01*
X1139155D01*
Y650369D01*
X1139155D01*
Y651156D01*
X1138369D01*
X1138269Y651176D01*
X1137881D01*
X1137494Y651562D01*
X1137263Y651717D01*
X1136989Y651771D01*
X1136174D01*
X1135976Y652248D01*
X1135769Y652455D01*
Y652558D01*
X1135580Y653014D01*
X1135123Y653204D01*
X1131054D01*
X1129832Y654426D01*
X1129600Y654581D01*
X1129327Y654635D01*
X1128102D01*
X1124060Y658677D01*
X1123829Y658832D01*
X1123556Y658886D01*
X1123061D01*
X1122608Y659000D01*
X1122608Y659837D01*
X1121821D01*
X1121821Y659207D01*
X1121427Y658982D01*
X1121033Y659207D01*
Y662150D01*
X1118102D01*
X1117982Y662174D01*
X1117630D01*
X1117252Y662671D01*
X1117302Y662845D01*
X1117302Y662845D01*
X1117302Y662845D01*
X1118869D01*
X1118877Y662845D01*
X1119369D01*
X1119377Y662845D01*
X1120156D01*
Y663731D01*
X1119377D01*
X1119369Y663731D01*
X1119036Y663743D01*
X1118968Y664246D01*
X1119354Y664524D01*
X1119369Y664518D01*
Y664518D01*
X1120156D01*
Y665404D01*
X1120601Y665537D01*
X1138829D01*
X1143750Y660616D01*
X1160483D01*
X1172631Y672764D01*
X1172631Y686403D01*
D02*
G37*
G36*
X1072097Y673411D02*
X1071113D01*
Y672328D01*
X1072097D01*
Y673411D01*
D02*
G37*
G36*
Y670557D02*
X1071113D01*
Y669474D01*
X1072097D01*
Y670557D01*
D02*
G37*
G36*
X1077084Y666456D02*
X1076248D01*
Y665668D01*
X1077084D01*
Y666456D01*
D02*
G37*
G36*
X1074771D02*
X1073934D01*
Y665668D01*
X1074771D01*
Y666456D01*
D02*
G37*
G36*
X1179380Y666177D02*
X1178593D01*
Y665291D01*
X1179380D01*
Y666177D01*
D02*
G37*
G36*
Y663815D02*
X1178593D01*
Y662978D01*
X1179380D01*
Y663815D01*
D02*
G37*
G36*
Y662190D02*
X1178593D01*
Y661354D01*
X1179380D01*
Y662190D01*
D02*
G37*
G36*
X1122608Y662150D02*
X1121821D01*
Y661313D01*
X1122608D01*
Y662150D01*
D02*
G37*
G36*
X1174560Y668826D02*
X1173963D01*
X1173412Y668597D01*
X1172990Y668175D01*
X1172762Y667624D01*
Y667027D01*
X1172950Y666573D01*
X1173081Y666128D01*
X1172982Y665668D01*
X1172930Y665590D01*
X1172861Y665242D01*
Y663864D01*
X1172930Y663516D01*
X1173081Y663289D01*
Y662978D01*
X1173242D01*
Y662190D01*
X1173081D01*
Y661879D01*
X1172930Y661653D01*
X1172861Y661305D01*
Y660954D01*
X1172563Y660756D01*
X1171623Y659816D01*
X1171181Y659599D01*
X1170902Y659786D01*
X1170573Y659851D01*
X1165652D01*
X1165323Y659786D01*
X1165044Y659599D01*
X1164858Y659321D01*
X1164793Y658992D01*
Y658106D01*
X1164858Y657777D01*
X1165044Y657498D01*
Y657040D01*
X1164858Y656762D01*
X1164793Y656433D01*
Y655547D01*
X1164858Y655218D01*
X1165008Y654994D01*
X1164972Y654885D01*
X1164544Y654564D01*
X1164502Y654570D01*
X1164279Y654794D01*
X1163728Y655022D01*
X1163131D01*
X1162580Y654794D01*
X1162158Y654372D01*
X1161930Y653820D01*
Y653224D01*
X1162158Y652672D01*
X1162474Y652356D01*
X1162516Y651999D01*
X1162455Y651761D01*
X1162113Y651418D01*
X1161884Y650867D01*
Y650270D01*
X1162113Y649719D01*
X1162535Y649297D01*
X1163086Y649068D01*
X1163683D01*
X1164234Y649297D01*
X1164569Y649632D01*
X1164787Y649719D01*
X1165197Y649719D01*
X1165323Y649635D01*
X1165652Y649569D01*
X1170573D01*
X1170902Y649635D01*
X1171181Y649821D01*
X1171367Y650100D01*
X1171379Y650158D01*
X1172132D01*
X1172897Y649393D01*
Y648067D01*
X1172962Y647738D01*
X1173149Y647459D01*
X1173427Y647272D01*
X1173756Y647207D01*
X1174642D01*
X1174971Y647272D01*
X1175202Y647427D01*
X1177115D01*
X1177153Y646927D01*
X1176928Y646702D01*
X1176699Y646150D01*
Y645554D01*
X1176928Y645002D01*
X1177349Y644580D01*
X1177901Y644352D01*
X1178498D01*
X1179049Y644580D01*
X1179471Y645002D01*
X1179699Y645554D01*
Y646150D01*
X1179471Y646702D01*
X1179219Y646954D01*
Y647438D01*
X1179250Y647459D01*
X1179436Y647738D01*
X1179502Y648067D01*
Y649543D01*
X1179436Y649872D01*
X1179250Y650150D01*
Y651354D01*
X1179313Y651396D01*
X1179499Y651675D01*
X1179564Y652003D01*
Y652303D01*
X1180524D01*
X1180914Y652381D01*
X1181245Y652602D01*
X1181948Y653305D01*
X1182169Y653636D01*
X1182246Y654026D01*
Y655853D01*
X1182498Y656106D01*
X1182727Y656657D01*
Y657254D01*
X1182498Y657805D01*
X1182076Y658227D01*
X1181525Y658455D01*
X1180928D01*
X1180377Y658227D01*
X1179990Y657840D01*
X1179851Y657813D01*
X1179432Y657847D01*
X1179313Y658025D01*
X1179262Y658058D01*
Y658072D01*
X1179241D01*
X1179034Y658211D01*
X1178705Y658276D01*
X1177819D01*
X1177490Y658211D01*
X1177260Y658057D01*
X1175265D01*
X1175034Y658211D01*
X1174705Y658276D01*
X1173840D01*
X1173791Y658329D01*
X1173568Y658736D01*
X1173766Y658992D01*
X1173868D01*
Y659015D01*
X1173878D01*
X1173889Y659017D01*
X1174754D01*
X1174874Y659041D01*
X1177806D01*
Y662190D01*
X1175282D01*
Y662978D01*
X1177806D01*
Y666128D01*
X1175889D01*
X1175792Y666222D01*
X1175596Y666628D01*
X1175762Y667027D01*
Y667624D01*
X1175533Y668175D01*
X1175111Y668597D01*
X1174560Y668826D01*
D02*
G37*
G36*
X1179380Y659878D02*
X1178593D01*
Y659041D01*
X1179380D01*
Y659878D01*
D02*
G37*
G36*
X1118146Y644516D02*
X1117309D01*
Y643728D01*
X1118146D01*
Y644516D01*
D02*
G37*
G36*
X1115833D02*
X1114996D01*
Y643728D01*
X1115833D01*
Y644516D01*
D02*
G37*
G36*
X1121965Y644332D02*
X1121128D01*
Y643544D01*
X1121965D01*
Y644332D01*
D02*
G37*
G36*
X1119652D02*
X1118815D01*
Y643544D01*
X1119652D01*
Y644332D01*
D02*
G37*
G36*
X1072190Y642051D02*
X1071402D01*
Y641214D01*
X1072190D01*
Y642051D01*
D02*
G37*
G36*
X1149451Y644225D02*
X1143702D01*
X1143297Y644144D01*
X1142953Y643915D01*
X1142723Y643571D01*
X1142642Y643165D01*
Y641885D01*
X1142723Y641480D01*
X1142953Y641136D01*
X1143297Y640906D01*
X1143702Y640825D01*
X1149451D01*
X1149857Y640906D01*
X1150201Y641136D01*
X1150430Y641480D01*
X1150504Y641850D01*
X1150973D01*
X1151014Y641752D01*
X1151436Y641330D01*
X1151987Y641102D01*
X1152584D01*
X1153135Y641330D01*
X1153557Y641752D01*
X1153785Y642303D01*
Y642900D01*
X1153557Y643451D01*
X1153135Y643873D01*
X1152584Y644102D01*
X1151987D01*
X1151436Y643873D01*
X1151014Y643451D01*
X1150976Y643361D01*
X1150480Y643323D01*
X1150430Y643571D01*
X1150201Y643915D01*
X1149857Y644144D01*
X1149451Y644225D01*
D02*
G37*
G36*
X1072190Y639738D02*
X1071402D01*
Y638901D01*
X1072190D01*
Y639738D01*
D02*
G37*
G36*
X1072187Y638136D02*
X1071399D01*
Y637300D01*
X1072187D01*
Y638136D01*
D02*
G37*
G36*
Y635823D02*
X1071399D01*
Y634987D01*
X1072187D01*
Y635823D01*
D02*
G37*
G36*
X1149451Y639225D02*
X1143702D01*
X1143297Y639144D01*
X1142953Y638915D01*
X1142723Y638571D01*
X1142642Y638165D01*
Y636885D01*
X1142723Y636480D01*
X1142953Y636136D01*
X1143297Y635906D01*
X1143702Y635825D01*
X1149451D01*
X1149857Y635906D01*
X1150201Y636136D01*
X1150430Y636480D01*
X1150485Y636755D01*
X1155744D01*
X1156056Y636371D01*
X1156030Y636308D01*
Y635711D01*
X1156258Y635160D01*
X1156680Y634738D01*
X1157232Y634510D01*
X1157828D01*
X1158380Y634738D01*
X1158802Y635160D01*
X1159030Y635711D01*
Y636308D01*
X1158802Y636859D01*
X1158380Y637281D01*
X1157828Y637509D01*
X1157232D01*
X1157096Y637453D01*
X1156576Y637973D01*
X1156344Y638128D01*
X1156071Y638182D01*
X1150508D01*
X1150430Y638571D01*
X1150201Y638915D01*
X1149857Y639144D01*
X1149451Y639225D01*
D02*
G37*
G36*
X1177263D02*
X1171514D01*
X1171109Y639144D01*
X1170765Y638915D01*
X1170535Y638571D01*
X1170454Y638165D01*
Y636885D01*
X1170535Y636480D01*
X1170765Y636136D01*
X1171109Y635906D01*
X1171514Y635825D01*
X1176881D01*
X1177831Y634876D01*
X1177819Y634579D01*
X1177329Y634212D01*
X1177263Y634225D01*
X1171514D01*
X1171341Y634191D01*
X1170964Y634303D01*
X1170767Y634517D01*
X1170613Y634891D01*
X1170191Y635313D01*
X1169639Y635541D01*
X1169043D01*
X1168491Y635313D01*
X1168069Y634891D01*
X1167841Y634339D01*
Y633743D01*
X1168069Y633191D01*
X1168491Y632769D01*
X1169043Y632541D01*
X1169639D01*
X1169993Y632687D01*
X1170454Y632432D01*
Y631885D01*
X1170535Y631480D01*
X1170765Y631136D01*
X1171109Y630906D01*
X1171514Y630825D01*
X1177263D01*
X1177669Y630906D01*
X1178013Y631136D01*
X1178130Y631311D01*
X1178381Y631322D01*
X1178673Y631276D01*
X1178790Y631101D01*
Y629107D01*
X1178636Y628876D01*
X1178106Y628775D01*
X1178013Y628915D01*
X1177669Y629144D01*
X1177263Y629225D01*
X1171514D01*
X1171109Y629144D01*
X1170765Y628915D01*
X1170535Y628571D01*
X1170454Y628165D01*
Y626885D01*
X1170535Y626480D01*
X1170765Y626136D01*
X1171109Y625906D01*
X1171514Y625825D01*
X1173535D01*
Y624714D01*
X1173399Y624658D01*
X1172977Y624236D01*
X1172749Y623685D01*
Y623088D01*
X1172977Y622537D01*
X1173399Y622115D01*
X1173950Y621886D01*
X1174547D01*
X1175099Y622115D01*
X1175521Y622537D01*
X1175749Y623088D01*
Y623685D01*
X1175521Y624236D01*
X1175099Y624658D01*
X1174963Y624714D01*
Y625825D01*
X1177263D01*
X1177669Y625906D01*
X1178013Y626136D01*
X1178242Y626480D01*
X1178308Y626812D01*
X1179216D01*
X1179298Y626828D01*
X1179430Y626802D01*
X1180906D01*
X1181235Y626867D01*
X1181514Y627053D01*
X1181700Y627332D01*
X1181765Y627661D01*
Y628547D01*
X1181700Y628876D01*
X1181546Y629107D01*
Y631101D01*
X1181700Y631332D01*
X1181765Y631661D01*
Y632547D01*
X1181700Y632876D01*
X1181514Y633154D01*
X1181235Y633341D01*
X1181201Y633348D01*
X1181125Y633428D01*
X1180933Y633872D01*
X1180934Y633895D01*
X1181087Y634263D01*
Y634860D01*
X1180858Y635411D01*
X1180436Y635833D01*
X1179885Y636062D01*
X1179529D01*
X1178323Y637267D01*
Y638165D01*
X1178242Y638571D01*
X1178013Y638915D01*
X1177669Y639144D01*
X1177263Y639225D01*
D02*
G37*
G36*
X1137781Y639636D02*
X1132741D01*
X1132493Y639587D01*
X1132283Y639446D01*
X1132142Y639236D01*
X1132093Y638987D01*
Y634735D01*
X1132142Y634487D01*
X1132283Y634277D01*
X1132493Y634136D01*
X1132741Y634087D01*
X1137781D01*
X1138029Y634136D01*
X1138239Y634277D01*
X1138380Y634487D01*
X1138430Y634735D01*
Y638987D01*
X1138380Y639236D01*
X1138239Y639446D01*
X1138029Y639587D01*
X1137781Y639636D01*
D02*
G37*
G36*
X1122737Y633647D02*
X1121851D01*
Y632860D01*
X1122737D01*
Y633647D01*
D02*
G37*
G36*
X1120374D02*
X1119538D01*
Y632860D01*
X1120374D01*
Y633647D01*
D02*
G37*
G36*
X1118750D02*
X1117914D01*
Y632860D01*
X1118750D01*
Y633647D01*
D02*
G37*
G36*
X1116437D02*
X1115601D01*
Y632860D01*
X1116437D01*
Y633647D01*
D02*
G37*
G36*
X1112797Y628121D02*
X1112009D01*
Y627284D01*
X1112797D01*
Y628121D01*
D02*
G37*
G36*
X1153399Y630127D02*
X1152802D01*
X1152251Y629899D01*
X1151829Y629477D01*
X1151601Y628926D01*
Y628329D01*
X1151829Y627777D01*
X1152251Y627356D01*
X1152802Y627127D01*
X1153399D01*
X1153951Y627356D01*
X1154372Y627777D01*
X1154601Y628329D01*
Y628926D01*
X1154372Y629477D01*
X1153951Y629899D01*
X1153399Y630127D01*
D02*
G37*
G36*
X1110309Y626514D02*
X1109712D01*
X1109445Y626403D01*
X1109283D01*
X1109283Y626403D01*
X1108736Y626295D01*
X1108273Y625985D01*
X1108273Y625985D01*
X1107990Y625702D01*
X1107115D01*
X1106851Y625649D01*
X1106812Y625623D01*
X1106446D01*
Y625111D01*
X1106426Y625013D01*
Y623987D01*
X1104605D01*
X1104545Y624290D01*
X1104206Y624796D01*
X1103700Y625135D01*
X1103102Y625254D01*
X1098476D01*
X1097878Y625135D01*
X1097371Y624796D01*
X1097177Y624506D01*
X1095169D01*
X1094819Y625351D01*
X1094152Y626018D01*
X1093282Y626378D01*
X1092340D01*
X1091469Y626018D01*
X1090803Y625351D01*
X1090442Y624481D01*
Y623538D01*
X1090803Y622668D01*
X1091469Y622002D01*
X1092340Y621641D01*
X1093282D01*
X1094152Y622002D01*
X1094617Y622466D01*
X1096914D01*
Y621428D01*
X1097033Y620830D01*
X1097371Y620324D01*
X1097878Y619985D01*
X1098476Y619866D01*
X1103102D01*
X1103700Y619985D01*
X1104206Y620324D01*
X1104545Y620830D01*
X1104605Y621133D01*
X1107123D01*
X1107123Y621133D01*
X1107669Y621241D01*
X1108132Y621551D01*
X1108189Y621608D01*
X1109320D01*
X1109583Y621660D01*
X1109622Y621686D01*
X1112942D01*
Y625623D01*
X1111382D01*
X1111282Y625864D01*
X1110860Y626286D01*
X1110309Y626514D01*
D02*
G37*
G36*
X1115895Y625623D02*
X1114910D01*
Y624541D01*
X1115895D01*
Y625623D01*
D02*
G37*
G36*
X1149451Y634225D02*
X1143702D01*
X1143297Y634144D01*
X1142953Y633915D01*
X1142723Y633571D01*
X1142642Y633165D01*
Y631885D01*
X1142723Y631480D01*
X1142953Y631136D01*
X1143297Y630906D01*
X1143702Y630825D01*
X1143715D01*
Y629225D01*
X1143702D01*
X1143297Y629144D01*
X1142953Y628915D01*
X1142723Y628571D01*
X1142642Y628165D01*
Y626885D01*
X1142723Y626480D01*
X1142953Y626136D01*
X1143297Y625906D01*
X1143702Y625825D01*
X1143715D01*
Y624238D01*
X1143554Y623805D01*
X1143113Y623514D01*
X1142985Y623520D01*
X1142979Y623526D01*
X1142428Y623755D01*
X1141831D01*
X1141279Y623526D01*
X1141027Y623274D01*
X1140157D01*
X1140010Y623493D01*
Y623805D01*
X1139441D01*
X1139321Y623829D01*
X1138337D01*
X1138218Y623805D01*
X1135286D01*
Y620655D01*
X1138218D01*
X1138337Y620631D01*
X1139321D01*
X1139441Y620655D01*
X1140010D01*
Y620966D01*
X1140162Y621193D01*
X1140170Y621235D01*
X1141027D01*
X1141279Y620983D01*
X1141831Y620754D01*
X1142428D01*
X1142979Y620983D01*
X1143359Y620972D01*
X1143554Y620851D01*
Y620606D01*
X1144341D01*
Y620631D01*
X1145227D01*
X1145346Y620655D01*
X1148278D01*
Y623359D01*
X1148325Y623407D01*
X1148554Y623958D01*
Y624555D01*
X1148325Y625106D01*
X1148106Y625325D01*
X1148313Y625825D01*
X1149451D01*
X1149857Y625906D01*
X1150201Y626136D01*
X1150430Y626480D01*
X1150511Y626885D01*
Y628165D01*
X1150430Y628571D01*
X1150201Y628915D01*
X1149857Y629144D01*
X1149451Y629225D01*
X1145754D01*
Y630825D01*
X1149451D01*
X1149857Y630906D01*
X1150201Y631136D01*
X1150430Y631480D01*
X1150511Y631885D01*
Y633165D01*
X1150430Y633571D01*
X1150201Y633915D01*
X1149857Y634144D01*
X1149451Y634225D01*
D02*
G37*
G36*
X1169538Y623854D02*
X1168750D01*
Y622968D01*
X1169538D01*
Y623854D01*
D02*
G37*
G36*
X1153199Y623805D02*
X1152412D01*
Y622968D01*
X1153199D01*
Y623805D01*
D02*
G37*
G36*
X1149853D02*
X1149065D01*
Y622968D01*
X1149853D01*
Y623805D01*
D02*
G37*
G36*
X1134498D02*
X1133711D01*
Y622968D01*
X1134498D01*
Y623805D01*
D02*
G37*
G36*
X1115895Y622769D02*
X1114910D01*
Y621686D01*
X1115895D01*
Y622769D01*
D02*
G37*
G36*
X1169538Y621492D02*
X1168750D01*
Y620655D01*
X1169538D01*
Y621492D01*
D02*
G37*
G36*
X1153199D02*
X1152412D01*
Y620655D01*
X1153199D01*
Y621492D01*
D02*
G37*
G36*
X1149853D02*
X1149065D01*
Y620655D01*
X1149853D01*
Y621492D01*
D02*
G37*
G36*
X1158711Y623854D02*
X1157924D01*
Y623829D01*
X1157038D01*
X1156918Y623805D01*
X1153987D01*
Y620655D01*
X1156918D01*
X1157038Y620631D01*
X1158022D01*
X1158142Y620655D01*
X1158711D01*
Y620966D01*
X1158862Y621193D01*
X1158866Y621210D01*
X1160365D01*
X1160617Y620958D01*
X1161169Y620730D01*
X1161765D01*
X1162317Y620958D01*
X1162569Y621210D01*
X1163084D01*
X1163087Y621193D01*
X1163239Y620966D01*
Y620655D01*
X1163808D01*
X1163928Y620631D01*
X1164912D01*
X1165031Y620655D01*
X1167963D01*
Y623805D01*
X1165031D01*
X1164912Y623829D01*
X1163928D01*
X1163808Y623805D01*
X1163239D01*
Y623493D01*
X1163087Y623267D01*
X1163084Y623249D01*
X1162569D01*
X1162317Y623502D01*
X1161765Y623730D01*
X1161169D01*
X1160617Y623502D01*
X1160365Y623249D01*
X1158866D01*
X1158862Y623267D01*
X1158711Y623493D01*
Y623854D01*
D02*
G37*
G36*
X1134498Y621492D02*
X1133711D01*
Y620606D01*
X1134498D01*
Y621492D01*
D02*
G37*
%LPD*%
D12*
X1168122Y656000D02*
X1168123Y656000D01*
X1171543D02*
X1171554Y656011D01*
X1171987D02*
X1172449Y656473D01*
X1168123Y656000D02*
X1171543D01*
X1172449Y656473D02*
X1174057D01*
X1171554Y656011D02*
X1171987D01*
X1174057Y656473D02*
X1174262Y656679D01*
X1112252Y646430D02*
X1113727Y647904D01*
X1110254Y646430D02*
X1112252D01*
X1109941Y646742D02*
X1110254Y646430D01*
X1108411Y646742D02*
X1109941D01*
X1108121Y647032D02*
X1108411Y646742D01*
X1133623Y651058D02*
X1136989D01*
X1133623D02*
X1133964Y651399D01*
X1133351Y650786D02*
X1133623Y651058D01*
X1136989D02*
X1137875Y650172D01*
X1115207Y706779D02*
X1118097Y703890D01*
Y703307D02*
X1118403Y703001D01*
X1118097Y703307D02*
Y703890D01*
X1115207Y706779D02*
Y707222D01*
X1073283Y646089D02*
X1074504Y644868D01*
X1076996D01*
X1045976Y661567D02*
X1062359D01*
X1062379Y661587D01*
X1063204D01*
X1063510Y661894D01*
X1226555Y681233D02*
X1226642Y681320D01*
X1219762Y681233D02*
X1226555D01*
X1219676Y681147D02*
X1219762Y681233D01*
X1093116Y628877D02*
Y633578D01*
Y628877D02*
X1093120Y628873D01*
X1093116Y633578D02*
X1093554Y634015D01*
Y636403D01*
X1091554Y636372D02*
X1091584Y636403D01*
X1091000Y631283D02*
Y633004D01*
X1091554Y633558D01*
Y636372D01*
X1091000Y631283D02*
X1091138Y631145D01*
X1087741Y624699D02*
X1089021Y625979D01*
X1089616Y633958D02*
Y636403D01*
X1089021Y625979D02*
Y633363D01*
X1089616Y633958D01*
X1087458Y636213D02*
X1087648Y636403D01*
X1087070Y631751D02*
X1087458Y632139D01*
Y636213D01*
X1087070Y631318D02*
Y631751D01*
X1085654Y636377D02*
X1085680Y636403D01*
X1085050Y629327D02*
Y633661D01*
X1085654Y634265D01*
Y636377D01*
X1084799Y629076D02*
X1085050Y629327D01*
X1079774Y623214D02*
X1082727Y626167D01*
X1083711Y632072D02*
Y636402D01*
X1082727Y626167D02*
Y631088D01*
X1083711Y632072D01*
X1083710Y636403D02*
X1083711Y636402D01*
X1013052Y684228D02*
X1017651D01*
X1020284Y681595D01*
X1015621Y688699D02*
Y691361D01*
X1013214Y688347D02*
X1015270D01*
X1015621Y688699D01*
X1013042Y688175D02*
X1013214Y688347D01*
X1035970Y642707D02*
X1036467Y642210D01*
X1034769Y643346D02*
X1035407Y642707D01*
X1034336Y643346D02*
X1034769D01*
X1035407Y642707D02*
X1035970D01*
X1125835Y642602D02*
X1126721Y641716D01*
X1016487Y642899D02*
X1017313D01*
X1017490Y641248D02*
X1017711Y641027D01*
X1017313Y642899D02*
X1017490Y642722D01*
Y641248D02*
Y642722D01*
X1026428Y642210D02*
X1026625D01*
X1024042Y645245D02*
X1024348Y644939D01*
Y644290D02*
Y644939D01*
Y644290D02*
X1026428Y642210D01*
X1108121Y639158D02*
X1110693D01*
X1111456Y638396D01*
X1111859D01*
X1112518Y642319D02*
X1112825Y642013D01*
X1110885Y642319D02*
X1112518D01*
X1108411Y642805D02*
X1110400D01*
X1110885Y642319D01*
X1110696Y648352D02*
X1111129D01*
X1113727Y647904D02*
Y648242D01*
X1111584Y644485D02*
X1112017D01*
X1112715Y633162D02*
X1112989Y632888D01*
X1108318Y633964D02*
X1110678Y631604D01*
X1103879Y633964D02*
X1108318D01*
X1111107Y640213D02*
X1114137D01*
X1110238Y641082D02*
X1111107Y640213D01*
X1108166Y641082D02*
X1110238D01*
X1103528Y634315D02*
X1103879Y633964D01*
X1109524Y635272D02*
X1111634Y633162D01*
X1105655Y635272D02*
X1109524D01*
X1097642Y633623D02*
X1097794Y633471D01*
X1095364Y631899D02*
Y636245D01*
X1095207Y631742D02*
X1095364Y631899D01*
X1110678Y631572D02*
Y631604D01*
X1116239Y656777D02*
X1117213Y655802D01*
X1108219Y656777D02*
X1116239D01*
X1081282Y627756D02*
Y638868D01*
X1079371Y636451D02*
X1079482Y636340D01*
X1075837Y646836D02*
X1075935Y646934D01*
X1077193Y649002D02*
X1080955D01*
X1076996Y648805D02*
X1077193Y649002D01*
X1073868Y648805D02*
X1076996D01*
X1108121Y650970D02*
X1108127Y650963D01*
X1111088D02*
X1111095Y650956D01*
X1108127Y650963D02*
X1111088D01*
X1111004Y645064D02*
X1111584Y644485D01*
X1108121Y645064D02*
X1111004D01*
X1115241Y641317D02*
X1119256D01*
X1114137Y640213D02*
X1115241Y641317D01*
X1108121Y641127D02*
X1108166Y641082D01*
X1108121Y643095D02*
X1108411Y642805D01*
X1105365Y635563D02*
Y636403D01*
Y635563D02*
X1105655Y635272D01*
X1111634Y633162D02*
X1112715D01*
X1110336Y648711D02*
X1110696Y648352D01*
X1108121Y649002D02*
X1108411Y648711D01*
X1110336D01*
X1119612Y709585D02*
X1121337Y707860D01*
X1118060Y709585D02*
X1119612D01*
X1121337Y707860D02*
X1124971D01*
X1117817Y709828D02*
X1118060Y709585D01*
X956219Y682615D02*
X956844Y683241D01*
X957796D01*
X958033Y683477D01*
X956219Y677244D02*
Y682615D01*
X955761Y676786D02*
X956219Y677244D01*
X1146634Y637468D02*
X1156071D01*
X1157530Y636010D01*
X1146577Y637525D02*
X1146634Y637468D01*
X1174249Y627385D02*
X1174389Y627525D01*
X1174249Y623386D02*
Y627385D01*
X1174389Y627525D02*
X1179216D01*
X1146998Y679590D02*
X1147880Y680472D01*
Y681094D01*
X1148186Y681400D01*
X1146998Y679316D02*
Y679590D01*
X1146961Y675342D02*
X1146998Y675379D01*
X1144075Y675342D02*
X1146961D01*
X1144038Y675306D02*
X1144075Y675342D01*
X1085557Y663691D02*
X1085680Y663568D01*
X1084645Y666521D02*
X1085557Y665609D01*
X1081742Y666521D02*
X1084645D01*
X1085557Y663691D02*
Y665609D01*
X1087560Y663656D02*
X1087648Y663568D01*
X1084796Y668409D02*
X1087560Y665645D01*
X1078746Y668409D02*
X1084796D01*
X1087560Y663656D02*
Y665645D01*
X1089502Y663683D02*
Y665617D01*
X1084498Y670458D02*
Y671443D01*
X1085443Y669676D02*
X1089502Y665617D01*
X1085281Y669676D02*
X1085443D01*
X1084498Y670458D02*
X1085281Y669676D01*
X1089502Y663683D02*
X1089616Y663568D01*
X1091341Y663812D02*
X1091584Y663568D01*
X1088829Y668001D02*
Y671443D01*
Y668001D02*
X1091341Y665489D01*
Y663812D02*
Y665489D01*
X1079145Y640837D02*
X1080664D01*
X1078332Y638573D02*
Y640025D01*
X1080664Y640837D02*
X1080955Y641127D01*
X1078332Y640025D02*
X1079145Y640837D01*
X1080026Y626499D02*
X1081282Y627756D01*
X1103528Y634315D02*
Y636270D01*
X1103396Y636403D02*
X1103528Y636270D01*
X1084498Y671443D02*
X1084754Y671698D01*
Y677348D01*
X1088829Y671443D02*
X1089557Y672171D01*
Y677348D01*
X1078462Y668124D02*
X1078746Y668409D01*
X1004676Y703628D02*
Y719966D01*
X1003732Y720910D02*
X1004676Y719966D01*
X1002852Y673517D02*
X1008334D01*
X1008787Y673971D01*
X1000027Y670693D02*
X1002852Y673517D01*
X1008787Y676895D02*
X1009080Y677188D01*
X1008787Y673971D02*
Y676895D01*
X1000027Y666512D02*
Y670693D01*
X1040748Y624053D02*
X1044310Y627615D01*
X1039858Y624053D02*
X1040748D01*
X1037451Y621646D02*
X1039858Y624053D01*
X1037451Y619246D02*
Y621646D01*
X1035291Y617086D02*
X1037451Y619246D01*
X1034716Y616293D02*
X1035291Y616868D01*
Y617086D01*
X1034498Y616293D02*
X1034716D01*
X955761Y673977D02*
Y676786D01*
X1014984Y639534D02*
X1017917Y636600D01*
X1013829Y639711D02*
Y640242D01*
X1017917Y629670D02*
Y636600D01*
X1014007Y639534D02*
X1014984D01*
X1013829Y639711D02*
X1014007Y639534D01*
X1022687Y639744D02*
Y643562D01*
X1020676Y645574D02*
Y658604D01*
Y645574D02*
X1022687Y643562D01*
X1020676Y658604D02*
X1022687Y660616D01*
Y675357D01*
X1009929Y677188D02*
X1010901Y678160D01*
X1012869D02*
X1013042Y678332D01*
X1009080Y677188D02*
X1009929D01*
X1010901Y678160D02*
X1012869D01*
X1013042Y678332D02*
X1013817D01*
X1013989Y678505D01*
Y680128D01*
X1013817Y680301D02*
X1013989Y680128D01*
X1013042Y680301D02*
X1013817D01*
X1196327Y656047D02*
X1203551D01*
X1203652Y656147D01*
X1196226Y655946D02*
X1196327Y656047D01*
X1192087Y676256D02*
X1203544D01*
X1203652Y676147D01*
X1191979Y676364D02*
X1192087Y676256D01*
X1191979Y664553D02*
X1196497D01*
X1197260Y665316D01*
X1202820D01*
X1014481Y626233D02*
X1017917Y629670D01*
X1014481Y619528D02*
Y626233D01*
X1017176Y615172D02*
Y616833D01*
X1014481Y619528D02*
X1017176Y616833D01*
Y615172D02*
X1018229Y614120D01*
X1002642Y684074D02*
X1002806Y684238D01*
X999072Y683911D02*
X999236Y684074D01*
X1002642D01*
X998277Y678301D02*
Y680385D01*
X1000161Y682269D01*
X1002806D01*
X1021337Y686206D02*
X1045976Y661567D01*
X1075837Y658647D02*
X1075935Y658745D01*
X1080856D02*
X1080955Y658844D01*
X1075935Y658745D02*
X1080856D01*
X1013042Y686206D02*
X1021337D01*
X1033971Y628460D02*
X1035839D01*
X1037586Y626713D01*
X1022687Y639744D02*
X1033971Y628460D01*
X1015775Y682269D02*
X1022687Y675357D01*
X1013042Y682269D02*
X1015775D01*
X1132958Y650786D02*
X1133229Y651058D01*
X1133964Y651399D02*
X1134704D01*
X1113352Y658173D02*
X1123556D01*
X1127807Y653922D02*
X1129327D01*
X1123556Y658173D02*
X1127807Y653922D01*
X1112554Y658970D02*
X1113352Y658173D01*
X1108247Y658970D02*
X1112554D01*
X1125835Y645238D02*
X1126265Y645668D01*
X1125835Y642602D02*
Y645238D01*
X1131289Y652455D02*
X1132958Y650786D01*
X1129327Y653922D02*
X1130794Y652455D01*
X1131289D01*
X1121623Y654917D02*
Y655212D01*
X1123142Y648397D02*
Y653398D01*
Y648397D02*
X1125871Y645668D01*
X1121623Y654917D02*
X1123142Y653398D01*
X1125871Y645668D02*
X1126265D01*
X1108121Y656876D02*
X1108219Y656777D01*
X1076628Y636451D02*
X1079371D01*
X1076518Y636562D02*
X1076628Y636451D01*
X1013042Y684238D02*
X1013052Y684228D01*
X1002209Y664112D02*
Y664330D01*
X1000027Y666512D02*
X1002209Y664330D01*
X1002784Y663537D02*
X1003002D01*
X1002209Y664112D02*
X1002784Y663537D01*
X1007924Y655399D02*
Y658821D01*
X1009496Y660394D02*
Y660438D01*
X1007924Y658821D02*
X1009496Y660394D01*
X1005557Y659453D02*
Y659886D01*
X1005955Y655399D02*
Y659055D01*
X1005557Y659453D02*
X1005955Y659055D01*
X1179795Y628104D02*
X1180168D01*
X1179216Y627525D02*
X1179795Y628104D01*
X1080955Y639158D02*
X1080992D01*
X1081282Y638868D01*
X1034417Y638059D02*
Y643265D01*
Y638059D02*
X1034498Y637978D01*
X1034336Y643346D02*
X1034417Y643265D01*
X1031048Y642707D02*
X1031546Y642210D01*
X1029926Y643119D02*
X1030338Y642707D01*
X1031048D01*
X1029493Y643119D02*
X1029926D01*
X995128Y620498D02*
X995333Y620293D01*
X1000050D01*
X1006939Y614120D02*
X1007358Y613701D01*
X1010317D01*
X1007144Y620293D02*
X1011861D01*
X1006939Y620498D02*
X1007144Y620293D01*
X1018229Y620498D02*
X1018465Y620261D01*
X1022687D01*
X1029782Y620293D02*
X1034498D01*
X1029577Y620498D02*
X1029782Y620293D01*
X1041593D02*
X1046309D01*
X1041388Y620498D02*
X1041593Y620293D01*
X1054215D02*
X1059105D01*
X1054183Y620261D02*
X1054215Y620293D01*
X1167961Y650720D02*
X1168113Y650872D01*
X1163536Y650720D02*
X1167961D01*
X1163384Y650568D02*
X1163536Y650720D01*
X1163430Y653522D02*
X1163475Y653476D01*
X1168067D02*
X1168113Y653431D01*
X1163475Y653476D02*
X1168067D01*
X1076518Y636562D02*
Y636759D01*
X1078332Y638573D01*
X1076996Y644868D02*
X1077193Y645064D01*
X1080955D01*
X1080856Y646934D02*
X1080955Y647032D01*
X1075935Y646934D02*
X1080856D01*
X1073868Y652742D02*
X1073967Y652840D01*
X1080856D01*
X1080955Y652939D01*
X1075935Y654808D02*
X1080856D01*
X1080955Y654907D01*
X1075837Y654710D02*
X1075935Y654808D01*
X1094420Y684238D02*
X1096270D01*
X1083420Y664553D02*
X1083710Y664262D01*
X1079774Y664553D02*
X1083420D01*
X1083710Y663568D02*
Y664262D01*
X1108121Y658844D02*
X1108247Y658970D01*
X1095364Y636245D02*
X1095522Y636403D01*
X1097491D02*
X1097642Y636251D01*
Y633623D02*
Y636251D01*
X1152247Y642563D02*
X1152285Y642602D01*
X1146577Y642525D02*
X1146615Y642563D01*
X1152247D01*
X1170520Y633295D02*
X1173619D01*
X1169774Y634041D02*
X1170520Y633295D01*
X1173619D02*
X1174389Y632525D01*
X1169341Y634041D02*
X1169774D01*
X1172428Y650872D02*
X1174199Y649100D01*
X1168113Y650872D02*
X1172428D01*
X1174199Y648805D02*
Y649100D01*
X1173687Y653431D02*
X1174262Y652856D01*
Y652742D02*
Y652856D01*
X1168113Y653431D02*
X1173687D01*
X1196274Y681193D02*
X1196297Y681170D01*
X1203629D02*
X1203652Y681147D01*
X1196297Y681170D02*
X1203629D01*
X1202820Y665316D02*
X1203652Y666147D01*
X1117976Y713924D02*
Y715955D01*
X1117817Y713765D02*
X1117976Y713924D01*
X1123081Y713765D02*
X1124971D01*
X1121113Y711797D02*
X1123081Y713765D01*
X1117817Y711797D02*
X1121113D01*
X1124971Y707860D02*
X1124971Y707860D01*
X1113250Y704618D02*
Y707211D01*
X1113239Y707222D02*
X1113250Y707211D01*
Y704618D02*
X1113261Y704606D01*
X1032991Y703793D02*
Y715909D01*
X1032825Y703628D02*
X1032991Y703793D01*
X1013804Y658964D02*
X1014366Y659527D01*
Y659960D01*
X1013804Y655424D02*
Y658964D01*
X1003002Y659991D02*
X1003987Y659007D01*
X1003002Y659991D02*
Y663537D01*
X1003987Y655399D02*
Y659007D01*
X1003002Y663537D02*
X1006939D01*
X1006558Y693913D02*
X1006767Y693704D01*
Y690513D02*
X1006939Y690340D01*
X1006767Y690513D02*
Y693704D01*
X1000442Y689239D02*
X1001506Y688175D01*
X999715Y689239D02*
X1000442D01*
X999409Y689545D02*
X999715Y689239D01*
X1001506Y688175D02*
X1002806D01*
X999436Y686379D02*
X1002633D01*
X1002806Y686206D01*
X999235Y686580D02*
X999436Y686379D01*
X1035651Y690346D02*
X1035756Y690240D01*
X1035651Y690346D02*
Y697912D01*
X1035546Y698017D02*
X1035651Y697912D01*
X1037057Y703053D02*
Y706876D01*
X1036483Y703628D02*
X1037057Y703053D01*
X1032825Y703628D02*
X1036483D01*
X1037057Y702939D02*
Y703053D01*
X1032825Y719966D02*
X1032991Y719801D01*
Y715909D02*
Y719801D01*
X1223475Y611403D02*
G03*
X1231349Y619277I0J7874D01*
G01*
Y719671D02*
G03*
X1223475Y727545I-7874J0D01*
G01*
X941979D02*
G03*
X934105Y719671I0J-7874D01*
G01*
Y619277D02*
G03*
X941979Y611403I7874J0D01*
G01*
X1231349Y619277D02*
Y719671D01*
X941979Y727545D02*
X1223475D01*
X941979Y611403D02*
X1223475D01*
X934105Y619277D02*
Y719671D01*
D17*
X1177914Y701189D02*
G03*
X1178442Y700970I529J529D01*
G01*
X1170037Y705028D02*
X1170142Y705134D01*
X1169932Y701364D02*
X1170037Y701469D01*
Y705028D01*
X1181005Y700970D02*
X1181152D01*
X1178442D02*
X1181005D01*
X1180428Y701547D02*
X1181005Y700970D01*
X1179752Y702370D02*
X1180428Y701694D01*
X1179752Y702370D02*
Y704372D01*
X1179176Y704948D02*
X1179752Y704372D01*
X1180428Y701547D02*
Y701694D01*
X1166678Y684795D02*
X1167384Y685502D01*
X1161467Y678332D02*
X1162451D01*
X1160483D02*
X1161467D01*
X1115530Y665012D02*
X1115569Y665052D01*
X1115489Y663865D02*
X1115530Y663905D01*
X1115489Y663297D02*
Y663865D01*
X1115868Y663258D02*
X1116446Y663835D01*
X1115489Y663258D02*
X1115868D01*
X1121113Y700970D02*
Y705008D01*
X1118260Y707860D02*
X1121113Y705008D01*
X1116440Y696297D02*
X1121113Y700970D01*
X1122971Y709969D02*
X1124830D01*
X1122199Y710362D02*
X1122578D01*
X1122971Y709969D01*
X1124830D02*
X1124971Y709828D01*
X1075837Y642899D02*
X1076105Y642631D01*
Y640891D02*
X1076520Y640476D01*
X1075935Y642997D02*
X1080856D01*
X1075837Y642899D02*
X1075935Y642997D01*
X1076105Y640891D02*
Y642631D01*
X1080856Y642997D02*
X1080955Y643095D01*
X1113974Y696297D02*
X1116440D01*
X1111207Y699065D02*
X1113974Y696297D01*
X1111207Y699065D02*
Y701954D01*
X1167384Y685502D02*
X1174012D01*
X1166410Y683095D02*
X1166678Y683363D01*
Y684795D01*
X1166359Y685615D02*
X1166751Y685222D01*
X1166731Y680243D02*
X1166999Y679975D01*
X1165803Y679159D02*
X1166620Y679975D01*
X1166678Y681374D02*
X1166731Y681321D01*
X1166620Y679975D02*
X1166999D01*
X1166731Y680243D02*
Y681321D01*
X1165128Y679159D02*
X1165803D01*
X1166678Y681374D02*
Y682827D01*
X1166410Y683095D02*
X1166678Y682827D01*
X1164629Y679159D02*
X1165128D01*
X1160483Y678332D02*
X1160483D01*
X1011144Y638393D02*
X1011861Y639109D01*
X1010608Y637262D02*
Y638393D01*
X1011144Y637262D02*
Y638393D01*
X1010876Y636994D02*
X1011144Y637262D01*
X1009892Y639109D02*
X1010608Y638393D01*
Y637262D02*
X1010876Y636994D01*
X1075837Y650773D02*
X1075935Y650871D01*
X965483Y678054D02*
Y678153D01*
X965292Y678343D02*
X965483Y678153D01*
X962648Y680740D02*
X965045Y678343D01*
X965292D01*
X962648Y680740D02*
Y684977D01*
X1113239Y722870D02*
X1113334D01*
X1114741Y724278D01*
X1114787D01*
X1162484Y678365D02*
X1163836D01*
X1164629Y679159D01*
X1162451Y678332D02*
X1162484Y678365D01*
X1057118Y643902D02*
Y646571D01*
Y638980D02*
Y643902D01*
X1077585Y675675D02*
X1077805D01*
X1074937Y677111D02*
X1076149D01*
X1077585Y675675D01*
X1077805D02*
X1077979D01*
X1074669Y677379D02*
X1074937Y677111D01*
X1117046Y664026D02*
Y664124D01*
X1116855Y663835D02*
X1117046Y664026D01*
X1116446Y663835D02*
X1116855D01*
X952011Y699989D02*
X957942D01*
X1059564Y615834D02*
X1060883D01*
X1061766Y614951D01*
X1059105Y616293D02*
X1059564Y615834D01*
X1061766Y614951D02*
X1062145D01*
X950192Y691725D02*
X950962D01*
X949685Y692232D02*
X950192Y691725D01*
X949685Y692232D02*
Y693002D01*
X950962Y691510D02*
Y691725D01*
Y691510D02*
X950982Y691490D01*
X954142D01*
X954378Y691725D01*
X962648Y684977D02*
X963117Y685446D01*
X964631D01*
X970522Y676395D02*
Y679317D01*
X966552Y683287D02*
X970522Y679317D01*
X964631Y683477D02*
X964822Y683287D01*
X966552D01*
X967379Y678245D02*
Y679106D01*
X964631Y681509D02*
X964976D01*
X967379Y679106D01*
Y678245D02*
X967569Y678054D01*
X967614Y674294D02*
Y678010D01*
Y674294D02*
X967659Y674250D01*
X967569Y678054D02*
X967614Y678010D01*
X967580Y670188D02*
X967619Y670227D01*
Y674210D01*
X967659Y674250D01*
X958246Y681509D02*
X958436Y681318D01*
X958033Y681509D02*
X958246D01*
X958436Y677731D02*
Y681318D01*
X959304Y670531D02*
X959786Y670049D01*
X955761Y673977D02*
X956056D01*
X959304Y670729D01*
Y670531D02*
Y670729D01*
X959786Y670049D02*
X960058D01*
X1057100Y646589D02*
X1057118Y646571D01*
Y643902D02*
X1057156Y643863D01*
X1117817Y707860D02*
X1118260D01*
X1057156Y643863D02*
X1059636D01*
X1059656Y643843D01*
X1011861Y639109D02*
Y640242D01*
X1009892Y639109D02*
Y640242D01*
X979380Y639376D02*
Y642421D01*
X980291Y643332D02*
X980676Y643819D01*
X979380Y642421D02*
X980291Y643332D01*
X967569Y639376D02*
Y642728D01*
X966577Y643720D02*
X967569Y642728D01*
X962547Y643720D02*
X966577D01*
X959727Y646541D02*
Y646836D01*
Y646541D02*
X962547Y643720D01*
X1073868Y656679D02*
X1076966D01*
X1077162Y656876D01*
X1113239Y718687D02*
Y722870D01*
X1131570Y716317D02*
Y716696D01*
Y715938D02*
Y716317D01*
X1130955Y713765D02*
Y715323D01*
X1132101Y717227D02*
Y718159D01*
X1130955Y715323D02*
X1131570Y715938D01*
X1132101Y718159D02*
X1132628Y718686D01*
X1131570Y716696D02*
X1132101Y717227D01*
X1080856Y650871D02*
X1080955Y650970D01*
X1075935Y650871D02*
X1080856D01*
X1077162Y656876D02*
X1080955D01*
X1154613Y667728D02*
Y670423D01*
Y667728D02*
X1154648Y667693D01*
X1154577Y670458D02*
X1154613Y670423D01*
X1154577Y670458D02*
X1157412D01*
X1157806Y670950D02*
Y675222D01*
X1157412Y670557D02*
X1157806Y670950D01*
X1157412Y670458D02*
Y670557D01*
X1092594Y666649D02*
X1093363Y665880D01*
Y663759D02*
Y665880D01*
X1092594Y666649D02*
Y667028D01*
X1093363Y663759D02*
X1093554Y663568D01*
X1075844Y661003D02*
X1080764D01*
X1080955Y660813D01*
X1075509Y661337D02*
X1075844Y661003D01*
X1077979Y675675D02*
X1078790Y674864D01*
Y671443D02*
Y674864D01*
X1102103Y674106D02*
X1102294Y674297D01*
X1101059Y671443D02*
Y673161D01*
X1102005Y674106D01*
X1102103D01*
X1102294Y674297D02*
Y674395D01*
X1122206Y673956D02*
X1122206D01*
X1120121Y675372D02*
X1120171Y675322D01*
X1120839D01*
X1122206Y673956D01*
X1120121Y673134D02*
X1120311Y673324D01*
X1121196D01*
X1120121Y673035D02*
Y673134D01*
X1117028Y718834D02*
X1117176Y718982D01*
X1113386Y718834D02*
X1117028D01*
X1113239Y718687D02*
X1113386Y718834D01*
X1113816Y717962D02*
X1113963D01*
X1113239Y718540D02*
X1113816Y717962D01*
X1113239Y718540D02*
Y718687D01*
X1115207Y714403D02*
Y716718D01*
X1113963Y717962D02*
X1115207Y716718D01*
X1115207Y701954D02*
X1115224Y701937D01*
Y698969D02*
Y701937D01*
Y698969D02*
X1115241Y698952D01*
X1111239Y701986D02*
Y707191D01*
X1111207Y701954D02*
X1111239Y701986D01*
Y707191D02*
X1111270Y707222D01*
D19*
X1205758Y697033D02*
D03*
D20*
X1211762Y702840D02*
D03*
Y691226D02*
D03*
D22*
X1095193Y669193D02*
D03*
Y666988D02*
D03*
X1098371Y669227D02*
D03*
Y667022D02*
D03*
X1096388Y676482D02*
D03*
Y674277D02*
D03*
Y681219D02*
D03*
Y679014D02*
D03*
X1120121Y680843D02*
D03*
Y678639D02*
D03*
Y677275D02*
D03*
Y675070D02*
D03*
X1113975Y669282D02*
D03*
Y667077D02*
D03*
D24*
X1092517Y684238D02*
D03*
X1094722D02*
D03*
X1103580D02*
D03*
X1101376D02*
D03*
X1095588Y671443D02*
D03*
X1097793D02*
D03*
X1099157D02*
D03*
X1101361D02*
D03*
X1126144Y680909D02*
D03*
X1123940D02*
D03*
X1115133Y679925D02*
D03*
X1112928D02*
D03*
X1133834Y680909D02*
D03*
X1131629D02*
D03*
X1115133Y676972D02*
D03*
X1112928D02*
D03*
X1118830Y670148D02*
D03*
X1116625D02*
D03*
X1130759Y671014D02*
D03*
X1128555D02*
D03*
X1122885Y670148D02*
D03*
X1120681D02*
D03*
X1113365Y665052D02*
D03*
X1115569D02*
D03*
D25*
X1072833Y697422D02*
D03*
X1070667D02*
D03*
X1126721Y641716D02*
D03*
X1128887D02*
D03*
X1055031Y643902D02*
D03*
X1057118D02*
D03*
X1058061Y697422D02*
D03*
X1060148D02*
D03*
X1091644Y677348D02*
D03*
X1089557D02*
D03*
X1082668D02*
D03*
X1084754D02*
D03*
X965483Y678054D02*
D03*
X967569D02*
D03*
X945916Y646836D02*
D03*
X948002D02*
D03*
X1091898Y671411D02*
D03*
X1093985D02*
D03*
X1098357Y684238D02*
D03*
X1096270D02*
D03*
X1111329Y684238D02*
D03*
X1109243D02*
D03*
X1104380Y677348D02*
D03*
X1102294D02*
D03*
X1104380Y674395D02*
D03*
X1102294D02*
D03*
X1123999Y677957D02*
D03*
X1126085D02*
D03*
X1117046Y664124D02*
D03*
X1119133D02*
D03*
X1119014Y667195D02*
D03*
X1116928D02*
D03*
X1138818Y671014D02*
D03*
X1136731D02*
D03*
X1157412Y670458D02*
D03*
X1159498D02*
D03*
X1120121Y673035D02*
D03*
X1118034D02*
D03*
X1120121Y682878D02*
D03*
X1118034D02*
D03*
D26*
X958436Y677731D02*
D03*
X962436D02*
D03*
X963580Y670188D02*
D03*
X967580D02*
D03*
X963659Y674250D02*
D03*
X967659D02*
D03*
X955727Y646836D02*
D03*
X959727D02*
D03*
X1111207Y701954D02*
D03*
X1115207D02*
D03*
X1178262Y656679D02*
D03*
X1174262D02*
D03*
X1178262Y652742D02*
D03*
X1174262D02*
D03*
X1178199Y648805D02*
D03*
X1174199D02*
D03*
X1008876Y634041D02*
D03*
X1012876D02*
D03*
X1117623Y655212D02*
D03*
X1121623D02*
D03*
X1041057Y702939D02*
D03*
X1037057D02*
D03*
X1035546Y698017D02*
D03*
X1031546D02*
D03*
D27*
X964631Y681509D02*
D03*
Y683477D02*
D03*
Y685446D02*
D03*
Y687415D02*
D03*
X958033D02*
D03*
Y685446D02*
D03*
Y683477D02*
D03*
Y681509D02*
D03*
D28*
X970522Y672395D02*
D03*
Y676395D02*
D03*
X955761Y669977D02*
D03*
Y673977D02*
D03*
X960058Y670049D02*
D03*
Y674049D02*
D03*
X980734Y647775D02*
D03*
Y643775D02*
D03*
X1180168Y632104D02*
D03*
Y628104D02*
D03*
X1193947Y671474D02*
D03*
Y667474D02*
D03*
X1006939Y663537D02*
D03*
Y667537D02*
D03*
X1003002D02*
D03*
Y663537D02*
D03*
X1000050Y620293D02*
D03*
Y616293D02*
D03*
X1011861Y620293D02*
D03*
Y616293D02*
D03*
X1022687Y620261D02*
D03*
Y616261D02*
D03*
X1059105Y620293D02*
D03*
Y616293D02*
D03*
X1046309D02*
D03*
Y620293D02*
D03*
X1034498D02*
D03*
Y616293D02*
D03*
D29*
X949748Y691254D02*
D03*
Y685348D02*
D03*
D30*
X977893Y683018D02*
D03*
Y692348D02*
D03*
D31*
X958728Y693328D02*
D03*
X966128D02*
D03*
D32*
X956349Y660616D02*
D03*
X968947D02*
D03*
D33*
X947884Y679317D02*
D03*
X953790D02*
D03*
X943382Y641902D02*
D03*
X949288D02*
D03*
X1072884Y671443D02*
D03*
X1078790D02*
D03*
X1083766Y682604D02*
D03*
X1077861D02*
D03*
X1114123Y623655D02*
D03*
X1108217D02*
D03*
D34*
X977308Y675946D02*
D03*
Y663348D02*
D03*
D35*
X946002Y637499D02*
D03*
X949349D02*
D03*
X1132333Y722624D02*
D03*
X1128987D02*
D03*
X1150345Y679316D02*
D03*
X1146998D02*
D03*
X1150345Y675379D02*
D03*
X1146998D02*
D03*
D36*
X1088829Y671443D02*
D03*
X1084498D02*
D03*
D37*
X1077805Y675675D02*
D03*
Y679022D02*
D03*
X1117176Y718982D02*
D03*
Y722328D02*
D03*
X1026625Y645556D02*
D03*
Y642210D02*
D03*
X1031546Y645556D02*
D03*
Y642210D02*
D03*
X1036467Y645556D02*
D03*
Y642210D02*
D03*
X1049262Y634337D02*
D03*
Y637683D02*
D03*
D38*
X1064841Y699633D02*
D03*
Y697468D02*
D03*
X1053030Y699633D02*
D03*
Y697468D02*
D03*
X1137875Y650172D02*
D03*
Y648006D02*
D03*
X1069763Y701444D02*
D03*
Y703531D02*
D03*
X1106231Y684238D02*
D03*
Y682151D02*
D03*
X1099341Y681403D02*
D03*
Y679317D02*
D03*
Y676364D02*
D03*
Y674277D02*
D03*
X1133778Y673101D02*
D03*
Y671014D02*
D03*
X1125904Y673042D02*
D03*
Y670955D02*
D03*
X1113975Y673219D02*
D03*
Y671132D02*
D03*
X1170325Y679435D02*
D03*
Y677348D02*
D03*
X1138821Y682996D02*
D03*
Y680909D02*
D03*
X1117168Y676972D02*
D03*
Y679059D02*
D03*
X1135869Y678823D02*
D03*
Y680909D02*
D03*
X1128979D02*
D03*
Y678823D02*
D03*
X1153593Y676482D02*
D03*
Y674395D02*
D03*
Y679317D02*
D03*
Y681403D02*
D03*
D39*
X1128947Y707821D02*
D03*
X1126979D02*
D03*
X1128947Y713805D02*
D03*
X1126979D02*
D03*
D40*
X1130955Y707860D02*
D03*
Y709828D02*
D03*
Y711797D02*
D03*
Y713765D02*
D03*
X1124971Y707860D02*
D03*
Y709828D02*
D03*
Y711797D02*
D03*
Y713765D02*
D03*
D41*
X1117817Y707860D02*
D03*
Y709828D02*
D03*
Y711797D02*
D03*
Y713765D02*
D03*
X1108660D02*
D03*
Y711797D02*
D03*
Y709828D02*
D03*
Y707860D02*
D03*
D42*
X1115207Y714403D02*
D03*
X1113239D02*
D03*
X1111270D02*
D03*
Y707222D02*
D03*
X1113239D02*
D03*
X1115207D02*
D03*
D43*
X1007924Y683253D02*
D03*
D44*
X1008908Y690340D02*
D03*
Y676167D02*
D03*
X1006939D02*
D03*
Y690340D02*
D03*
D45*
X1013042Y688175D02*
D03*
Y686206D02*
D03*
Y684238D02*
D03*
Y682269D02*
D03*
Y680301D02*
D03*
Y678332D02*
D03*
X1002806D02*
D03*
Y680301D02*
D03*
Y682269D02*
D03*
Y684238D02*
D03*
Y686206D02*
D03*
Y688175D02*
D03*
D46*
X1174389Y627525D02*
D03*
Y632525D02*
D03*
Y637525D02*
D03*
Y642525D02*
D03*
X1146577D02*
D03*
Y637525D02*
D03*
Y632525D02*
D03*
Y627525D02*
D03*
D47*
X1144979Y658549D02*
D03*
Y655990D02*
D03*
Y653431D02*
D03*
Y650872D02*
D03*
X1168113D02*
D03*
Y653431D02*
D03*
Y655990D02*
D03*
Y658549D02*
D03*
D48*
X1219676Y636147D02*
D03*
X1203652D02*
D03*
X1219676Y641147D02*
D03*
X1203652D02*
D03*
X1219676Y646147D02*
D03*
X1203652D02*
D03*
X1219676Y651147D02*
D03*
X1203652D02*
D03*
X1219676Y656147D02*
D03*
X1203652D02*
D03*
X1219676Y661147D02*
D03*
X1203652D02*
D03*
X1219676Y666147D02*
D03*
X1203652D02*
D03*
X1219676Y671147D02*
D03*
X1203652D02*
D03*
X1219676Y676147D02*
D03*
X1203652D02*
D03*
X1219676Y681147D02*
D03*
X1203652D02*
D03*
D49*
X1013829Y655399D02*
D03*
X1011861D02*
D03*
X1009892D02*
D03*
X1007924D02*
D03*
X1005955D02*
D03*
X1003987D02*
D03*
Y640242D02*
D03*
X1005955D02*
D03*
X1007924D02*
D03*
X1009892D02*
D03*
X1011861D02*
D03*
X1013829D02*
D03*
D50*
X1001329Y652742D02*
D03*
Y650773D02*
D03*
Y648805D02*
D03*
Y646836D02*
D03*
Y644868D02*
D03*
Y642899D02*
D03*
X1016487D02*
D03*
Y644868D02*
D03*
Y646836D02*
D03*
Y648805D02*
D03*
Y650773D02*
D03*
Y652742D02*
D03*
D51*
X1008908Y647821D02*
D03*
D52*
X974853Y646836D02*
D03*
X977412D02*
D03*
X969833D02*
D03*
X967274D02*
D03*
X985063Y645114D02*
D03*
X987622D02*
D03*
D53*
X1006939Y620498D02*
D03*
Y614120D02*
D03*
X995128Y620498D02*
D03*
Y614120D02*
D03*
X1018229Y620498D02*
D03*
Y614120D02*
D03*
X1054273Y620498D02*
D03*
Y614120D02*
D03*
X1041388Y620498D02*
D03*
Y614120D02*
D03*
X1029577Y620498D02*
D03*
Y614120D02*
D03*
D54*
X985089Y639376D02*
D03*
X981939D02*
D03*
X963042D02*
D03*
X959892D02*
D03*
D55*
X965601D02*
D03*
X979380D02*
D03*
X967569D02*
D03*
X977412D02*
D03*
X969538D02*
D03*
X975443D02*
D03*
X971506D02*
D03*
X973475D02*
D03*
D56*
X1163435Y680852D02*
D03*
X1161467D02*
D03*
X1159498D02*
D03*
Y673529D02*
D03*
X1161467D02*
D03*
X1163435D02*
D03*
D57*
X1157806Y679159D02*
D03*
Y677191D02*
D03*
Y675222D02*
D03*
X1165128D02*
D03*
Y677191D02*
D03*
Y679159D02*
D03*
D58*
X1161467Y677191D02*
D03*
D59*
X1183506Y704948D02*
D03*
X1179176D02*
D03*
X1058053Y704685D02*
D03*
X1062383D02*
D03*
D60*
X1105365Y663568D02*
D03*
X1103396D02*
D03*
X1101427D02*
D03*
X1099459D02*
D03*
X1097491D02*
D03*
X1095522D02*
D03*
X1093554D02*
D03*
X1091584D02*
D03*
X1089616D02*
D03*
X1087648D02*
D03*
X1085680D02*
D03*
X1083710D02*
D03*
Y636403D02*
D03*
X1085680D02*
D03*
X1087648D02*
D03*
X1089616D02*
D03*
X1091584D02*
D03*
X1093554D02*
D03*
X1095522D02*
D03*
X1097491D02*
D03*
X1099459D02*
D03*
X1101427D02*
D03*
X1103396D02*
D03*
X1105365D02*
D03*
D61*
X1080955Y660813D02*
D03*
Y658844D02*
D03*
Y656876D02*
D03*
Y654907D02*
D03*
Y652939D02*
D03*
Y650970D02*
D03*
Y649002D02*
D03*
Y647032D02*
D03*
Y645064D02*
D03*
Y643095D02*
D03*
Y641127D02*
D03*
Y639158D02*
D03*
X1108121D02*
D03*
Y641127D02*
D03*
Y643095D02*
D03*
Y645064D02*
D03*
Y647032D02*
D03*
Y649002D02*
D03*
Y650970D02*
D03*
Y652939D02*
D03*
Y654907D02*
D03*
Y656876D02*
D03*
Y658844D02*
D03*
Y660813D02*
D03*
D62*
X1094538Y649986D02*
D03*
D63*
X1100789Y622560D02*
D03*
Y629252D02*
D03*
D64*
X1126600Y636862D02*
D03*
Y630562D02*
D03*
X1135261D02*
D03*
Y636862D02*
D03*
D65*
X1032825Y719966D02*
D03*
Y703628D02*
D03*
X1024361Y719966D02*
D03*
Y703628D02*
D03*
X1004676D02*
D03*
Y719966D02*
D03*
X1013140Y703628D02*
D03*
Y719966D02*
D03*
D66*
X1076260Y716886D02*
D03*
X1048760D02*
D03*
X1197642Y716886D02*
D03*
X1170142D02*
D03*
D67*
X1062510Y716886D02*
D03*
X1183892Y716886D02*
D03*
D129*
D02*
G03*
X1183506Y715954I932J-932D01*
G01*
X1185392Y701633D02*
G03*
X1184132Y704323I-4328J-388D01*
G01*
X1185392Y701633D02*
G03*
X1185794Y701086I661J64D01*
G01*
X1098488Y683862D02*
G03*
X1099173Y681830I3304J-17D01*
G01*
X1115457Y668979D02*
G03*
X1116533Y669692I0J1168D01*
G01*
X1128714Y670955D02*
G03*
X1128857Y671014I0J202D01*
G01*
X1119665Y678717D02*
G03*
X1118318Y677766I827J-2602D01*
G01*
X1117727Y677480D02*
G03*
X1117983Y677535I-197J1553D01*
G01*
Y677535D02*
G03*
X1118318Y677766I-192J636D01*
G01*
X1117727Y677480D02*
G03*
X1117412Y677350I87J-658D01*
G01*
X1080260Y697422D02*
G03*
X1085303Y699511I0J7132D01*
G01*
X1142078Y684238D02*
G03*
X1139178Y683155I0J-4422D01*
G01*
X1162451Y684238D02*
G03*
X1160555Y685322I-2939J-2939D01*
G01*
D02*
G03*
X1157808Y685671I-2742J-10593D01*
G01*
X1117862D02*
G03*
X1112683Y685012I0J-20678D01*
G01*
X1163435Y681862D02*
G03*
X1162451Y684238I-3360J0D01*
G01*
X1112683Y685012D02*
G03*
X1111329Y684238I745J-2874D01*
G01*
X1098061Y676579D02*
G03*
X1098144Y676564I157J645D01*
G01*
X1098704Y673640D02*
G03*
X1097826Y671898I2195J-2198D01*
G01*
X1098705Y673641D02*
G03*
X1098704Y673640I2194J-2198D01*
G01*
X1097777Y670984D02*
G03*
X1098300Y669632I2392J148D01*
G01*
X1098415Y669406D02*
G03*
X1098407Y669432I-638J-182D01*
G01*
X1062383Y704685D02*
G03*
X1062936Y704456I552J552D01*
G01*
X1062510Y716886D02*
G03*
X1062383Y716580I306J-306D01*
G01*
X1108487Y670458D02*
G03*
X1101703Y664772I0J-6890D01*
G01*
X1108487Y670458D02*
G03*
X1111862Y673834I0J3376D01*
G01*
X1113231Y676972D02*
G03*
X1111862Y675604I0J-1369D01*
G01*
X1098371Y667325D02*
G03*
X1097491Y665199I2125J-2125D01*
G01*
X1095522Y666498D02*
G03*
X1095193Y667290I-1120J0D01*
G01*
X1159498Y680852D02*
G03*
X1156113Y684238I-3386J0D01*
G01*
X1117706Y679428D02*
G03*
X1117741Y679513I-596J292D01*
G01*
X1119151Y680541D02*
G03*
X1117741Y679513I0J-1482D01*
G01*
X1115697Y679059D02*
G03*
X1115623Y679133I-505J-431D01*
G01*
X1107901Y671928D02*
G03*
X1110349Y675691I-1667J3763D01*
G01*
X1113231Y679925D02*
G03*
X1110349Y677043I0J-2882D01*
G01*
X1107668Y671875D02*
G03*
X1107119Y671770I74J-1888D01*
G01*
X1107672Y671875D02*
G03*
X1107901Y671928I-34J663D01*
G01*
X1107077Y671758D02*
G03*
X1102290Y669156I3104J-11418D01*
G01*
X1107077Y671758D02*
G03*
X1107119Y671770I-174J641D01*
G01*
X1099798Y664045D02*
G03*
X1099804Y664100I-655J107D01*
G01*
X1102290Y669156D02*
G03*
X1099804Y664100I5017J-5606D01*
G01*
X1109005Y668979D02*
G03*
X1103739Y664812I0J-5411D01*
G01*
X1109432Y667379D02*
G03*
X1105836Y664830I0J-3811D01*
G01*
X1169945Y677191D02*
G03*
X1170325Y677348I0J538D01*
G01*
X1162451Y666521D02*
G03*
X1163435Y668897I-2376J2376D01*
G01*
X1157699Y664553D02*
G03*
X1162451Y666521I0J6721D01*
G01*
X1142350Y667482D02*
G03*
X1149421Y664553I7071J7071D01*
G01*
X1116928Y667195D02*
G03*
X1116744Y667379I-184J0D01*
G01*
X1113975D02*
G03*
X1113667Y667071I0J-308D01*
G01*
X1183506Y704948D02*
X1184132Y704323D01*
X1184132Y704323D02*
X1184132Y704323D01*
X1183506Y704948D02*
Y715954D01*
X1185799Y701084D02*
X1186073Y700970D01*
X1185794Y701086D02*
X1185799Y701084D01*
X1193947Y697033D02*
X1205758D01*
X1181152D02*
X1186073D01*
X1190010D01*
X1177215D02*
X1181152D01*
X1170113Y697245D02*
X1170128Y697230D01*
X1169932Y697427D02*
X1170113Y697245D01*
X1170128Y697230D02*
X1173081D01*
X1173278Y697033D01*
X1170113Y694449D02*
X1170295Y694267D01*
X1170113Y694449D02*
Y697245D01*
X1170325Y679435D02*
Y682269D01*
X1098493Y684238D02*
X1101376D01*
X1099173Y681662D02*
Y681830D01*
X1098357Y684238D02*
X1098488Y683881D01*
Y683862D02*
Y683881D01*
X1099173Y681662D02*
X1099341Y681403D01*
X1098357Y684238D02*
X1098493D01*
X1116533Y669692D02*
X1116625Y670148D01*
X1113975Y668979D02*
X1115457D01*
X1118830Y670148D02*
X1120681D01*
X1119014Y667195D02*
Y669661D01*
X1125904Y670955D02*
X1128714D01*
X1122869Y670217D02*
X1125904Y670955D01*
X1128979Y680909D02*
X1131629D01*
X1126085Y680850D02*
X1126144Y680909D01*
X1126173Y680881D02*
X1128951D01*
X1126085Y677957D02*
Y680850D01*
X1117983Y677535D02*
Y677535D01*
X1123415Y678639D02*
X1123999Y678055D01*
X1120121Y677275D02*
Y678639D01*
X1123999Y677957D02*
Y678055D01*
X1120121Y678639D02*
X1123415D01*
X1117412Y677231D02*
Y677350D01*
X1117168Y676972D02*
X1117412Y677231D01*
X1114831Y676972D02*
X1117168D01*
X1069861Y701444D02*
X1070667Y700638D01*
X1069763Y701444D02*
X1069861D01*
X1070667Y697422D02*
Y700638D01*
X1072833Y697422D02*
X1080260D01*
X1064887D02*
X1070667D01*
X1060148Y697468D02*
X1064841D01*
X1053030D02*
X1058317D01*
X1053079Y690240D02*
Y697419D01*
X1053030Y697468D02*
X1053079Y697419D01*
X1085303Y699511D02*
X1094538Y708746D01*
X1142078Y684238D02*
X1142081Y684238D01*
X1156113D01*
X1138821Y682996D02*
X1139178Y683155D01*
X1117865Y685671D02*
X1157808D01*
X1160555Y685322D02*
Y685322D01*
X1157808Y685671D02*
Y685671D01*
X1117862Y685671D02*
X1117865Y685671D01*
X1096388Y681219D02*
X1099157D01*
X1099341Y681403D01*
X1098984Y676394D02*
X1099341Y676364D01*
X1098821Y676394D02*
X1098984D01*
X1098061Y676579D02*
Y679317D01*
X1098144Y676564D02*
X1098509Y676523D01*
X1098821Y676394D01*
X1098061Y676579D02*
X1098061Y676579D01*
X1096388Y676482D02*
X1098061D01*
X1097793Y671443D02*
X1099157D01*
X1098705Y673641D02*
X1099341Y674277D01*
X1098704Y673640D02*
X1098705Y673641D01*
X1098300Y669632D02*
X1098300Y669632D01*
X1098371Y669541D01*
X1097793Y671443D02*
X1097826Y671898D01*
X1097777Y670984D02*
Y670987D01*
X1095740Y671898D02*
Y672109D01*
X1096169Y673992D01*
X1095588Y671443D02*
X1095740Y671898D01*
X1096169Y674018D02*
X1096245Y674323D01*
X1096169Y673992D02*
Y674018D01*
X1095567Y670941D02*
Y670987D01*
X1095232Y669469D02*
X1095567Y670941D01*
X1095232Y669451D02*
Y669469D01*
X1095567Y670987D02*
X1095588Y671443D01*
X1095177Y669231D02*
X1095232Y669451D01*
X1093985Y671411D02*
X1095442D01*
X1097777Y670987D02*
X1097793Y671432D01*
X1097793Y671443D01*
X1098429Y669346D02*
X1098431Y669349D01*
X1098415Y669406D02*
X1098431Y669349D01*
X1098371Y669227D02*
X1098429Y669346D01*
X1098371Y669541D02*
X1098407Y669432D01*
X1098061Y679317D02*
X1099341D01*
X1097865D02*
X1098061D01*
X1062936Y704456D02*
X1068838D01*
X1062383Y704685D02*
Y716580D01*
X1068838Y704456D02*
X1069763Y703531D01*
X1111862Y673834D02*
Y675604D01*
X1096388Y679317D02*
X1097865D01*
X1097491Y663568D02*
Y665199D01*
X1095522Y663568D02*
Y666498D01*
X1103580Y684238D02*
X1106231D01*
X1109243D02*
X1109243Y684238D01*
X1106231Y684238D02*
X1109243D01*
X1163435Y680852D02*
Y681862D01*
X1135869Y680909D02*
X1138821D01*
X1133834D02*
X1135869D01*
X1119151Y680541D02*
X1120121D01*
X1123873D01*
X1120121D02*
Y682878D01*
X1117168Y679059D02*
X1117525Y679305D01*
X1117706Y679428D01*
X1114849Y679776D02*
X1114980D01*
X1115697Y679059D02*
X1116811Y679059D01*
X1114831Y679925D02*
X1114849Y679776D01*
X1114980D02*
X1115623Y679133D01*
X1116811Y679059D02*
X1117168D01*
X1110349Y675691D02*
Y677043D01*
X1107901Y671928D02*
X1107901Y671928D01*
X1107668Y671875D02*
X1107672Y671875D01*
X1099717Y664045D02*
X1099798D01*
X1099459Y663568D02*
X1099717Y664045D01*
X1101686Y664772D02*
X1101703D01*
X1101427Y663568D02*
X1101686Y664772D01*
X1103654Y664812D02*
X1103739D01*
X1109005Y668979D02*
X1113975D01*
X1103396Y663568D02*
X1103654Y664812D01*
X1109432Y667379D02*
X1113667D01*
X1105623Y664830D02*
X1105836D01*
X1113667Y667379D02*
X1113975D01*
X1105365Y663568D02*
X1105623Y664830D01*
X1165128Y677191D02*
X1169945D01*
X1149421Y664553D02*
X1157699D01*
X1138818Y671014D02*
X1142350Y667482D01*
X1163435Y668897D02*
Y673529D01*
X1133778Y671014D02*
X1136731D01*
X1130457D02*
X1133778D01*
X1113667Y665052D02*
Y667071D01*
X1113975Y667379D02*
X1116744D01*
X1113975Y668979D02*
Y671132D01*
X1150345Y675379D02*
Y675516D01*
X1151311Y676482D02*
X1153593D01*
X1150345Y675516D02*
X1151311Y676482D01*
X1153593D02*
X1153691D01*
X1154400Y677191D02*
X1157806D01*
X1153691Y676482D02*
X1154400Y677191D01*
X1150345Y679316D02*
X1150345Y679316D01*
X1153593D01*
X1153593Y679317D01*
X1157744Y679221D02*
X1157806Y679159D01*
X1153689Y679221D02*
X1157744D01*
X1153593Y679317D02*
X1153689Y679221D01*
D130*
X1098300Y669632D02*
D03*
X1098061Y679317D02*
D03*
D131*
X973727Y638767D02*
G03*
X973475Y639376I-860J0D01*
G01*
X975443D02*
G03*
X975191Y638767I608J-608D01*
G01*
X975048Y632043D02*
G03*
X979087Y628004I4039J0D01*
G01*
X973870Y632036D02*
G03*
X979080Y626827I5209J0D01*
G01*
X975119Y637145D02*
G03*
X975048Y636972I174J-174D01*
G01*
X975119Y637145D02*
G03*
X975191Y637319I-174J174D01*
G01*
X990874Y626827D02*
G03*
X997097Y633050I0J6223D01*
G01*
X990867Y628004D02*
G03*
X995920Y633057I0J5052D01*
G01*
X999965Y645065D02*
G03*
X999488Y645263I-478J-478D01*
G01*
X999965Y645065D02*
G03*
X1000443Y644868I478J478D01*
G01*
X999488Y645263D02*
G03*
X998886Y645014I0J-852D01*
G01*
D02*
G03*
X997097Y640695I4319J-4319D01*
G01*
X1000443Y646836D02*
G03*
X999965Y646638I0J-675D01*
G01*
X999488Y646441D02*
G03*
X999965Y646638I0J675D01*
G01*
X999483Y646441D02*
G03*
X998057Y645850I0J-2017D01*
G01*
X998046Y645838D02*
G03*
X995920Y640706I5132J-5132D01*
G01*
X973870Y632036D02*
Y636062D01*
Y637073D01*
X969790Y636918D02*
X970646Y636062D01*
X973870D01*
X973727Y637217D02*
Y638767D01*
Y637217D02*
X973870Y637073D01*
X975191Y637319D02*
Y638767D01*
X975048Y632043D02*
Y636972D01*
X979087Y628004D02*
X990867D01*
X979080Y626827D02*
X990874D01*
X1000443Y644868D02*
X1001329D01*
X997097Y633050D02*
Y640695D01*
X975443Y639376D02*
X975620Y639552D01*
X974708Y643198D02*
Y646691D01*
Y643070D02*
Y643198D01*
X1000443Y646836D02*
X1001329D01*
X999483Y646441D02*
X999488D01*
X998046Y645838D02*
X998057Y645850D01*
X995920Y633057D02*
Y640706D01*
X969685Y639523D02*
Y646689D01*
X969833Y646836D01*
X969538Y639376D02*
X969790Y639124D01*
X969538Y639376D02*
X969685Y639523D01*
X969790Y636918D02*
Y639124D01*
X975620Y639552D02*
Y642286D01*
X974708Y646691D02*
X974853Y646836D01*
X974708Y643198D02*
X975620Y642286D01*
X972600Y643092D02*
X974687D01*
X971654Y642145D02*
X972600Y643092D01*
X971654Y639523D02*
Y642145D01*
X971506Y639376D02*
X971654Y639523D01*
D132*
X1173278Y697033D02*
D03*
X1177215D02*
D03*
X1132628Y718686D02*
D03*
X1128691D02*
D03*
X1113239Y718687D02*
D03*
X1109302D02*
D03*
X1135876Y712781D02*
D03*
X1139813D02*
D03*
X1049262Y643884D02*
D03*
X1045325D02*
D03*
X1053199Y634041D02*
D03*
X1057136D02*
D03*
X1053199Y638962D02*
D03*
X1057136D02*
D03*
X1174262Y660616D02*
D03*
X1178199D02*
D03*
X1144735Y622230D02*
D03*
X1148672D02*
D03*
X1037057Y706876D02*
D03*
X1040994D02*
D03*
X1117490Y660575D02*
D03*
X1121427D02*
D03*
X1154577Y670458D02*
D03*
X1150640D02*
D03*
X1190010Y697033D02*
D03*
X1193947D02*
D03*
X1076520Y640476D02*
D03*
X1072583D02*
D03*
X1107679Y628859D02*
D03*
X1111616D02*
D03*
X1157530Y622230D02*
D03*
X1153593D02*
D03*
X1011861Y667506D02*
D03*
X1015798D02*
D03*
X1011861Y663568D02*
D03*
X1015798D02*
D03*
X948312Y674591D02*
D03*
X952249D02*
D03*
X1016782Y694080D02*
D03*
X1012845D02*
D03*
X951906Y662345D02*
D03*
X947969D02*
D03*
X1129932Y702939D02*
D03*
X1125994D02*
D03*
X1012845Y698017D02*
D03*
X1016782D02*
D03*
X1164420Y622230D02*
D03*
X1168357D02*
D03*
X1138829D02*
D03*
X1134892D02*
D03*
X1174262Y664553D02*
D03*
X1178199D02*
D03*
X1004971Y634041D02*
D03*
X1001034D02*
D03*
X1009892Y671443D02*
D03*
X1013829D02*
D03*
X1113239Y722624D02*
D03*
X1109302D02*
D03*
X1076518Y636562D02*
D03*
X1072581D02*
D03*
D133*
X1181152Y700970D02*
D03*
Y697033D02*
D03*
X1169932Y701364D02*
D03*
Y697427D02*
D03*
X1121113Y722624D02*
D03*
Y718687D02*
D03*
X1135876Y708844D02*
D03*
Y704907D02*
D03*
X1125050Y722624D02*
D03*
Y718687D02*
D03*
X1117176Y637978D02*
D03*
Y634041D02*
D03*
X1120390Y648663D02*
D03*
Y644726D02*
D03*
X1116571Y648847D02*
D03*
Y644910D02*
D03*
X1075509Y661337D02*
D03*
Y665274D02*
D03*
X1186073Y697033D02*
D03*
Y700970D02*
D03*
X984382Y664121D02*
D03*
Y668058D02*
D03*
X954387Y689428D02*
D03*
Y685491D02*
D03*
X984382Y671995D02*
D03*
Y675932D02*
D03*
X1139813Y704907D02*
D03*
Y708844D02*
D03*
X1121113Y634041D02*
D03*
Y637978D02*
D03*
D134*
X993554Y678923D02*
D03*
X941585D02*
D03*
D135*
X967569Y652939D02*
D03*
Y704907D02*
D03*
D136*
X1126821Y616128D02*
D03*
Y689356D02*
D03*
D137*
X1185680Y652742D02*
D03*
X1067963D02*
D03*
D138*
X1092811Y624010D02*
D03*
X1034498Y637978D02*
D03*
X1040404D02*
D03*
X1204774Y618293D02*
D03*
X1207727Y722624D02*
D03*
X939026Y635025D02*
D03*
X1001034Y696049D02*
D03*
D139*
X1126265Y645668D02*
D03*
X1132958D02*
D03*
Y650786D02*
D03*
X1126265D02*
D03*
D140*
X1100345Y714750D02*
D03*
X1088731D02*
D03*
D141*
X1094538Y708746D02*
D03*
D142*
X1022764Y652838D02*
D03*
X1057410D02*
D03*
Y690240D02*
D03*
X1022764D02*
D03*
D143*
X1027095Y652838D02*
D03*
X1031426D02*
D03*
X1035756D02*
D03*
X1040087D02*
D03*
X1044418D02*
D03*
X1048748D02*
D03*
X1053079D02*
D03*
Y690240D02*
D03*
X1048748D02*
D03*
X1044418D02*
D03*
X1040087D02*
D03*
X1035756D02*
D03*
X1031426D02*
D03*
X1027095D02*
D03*
D144*
X1178298Y705826D02*
X1179009Y705115D01*
X1161467Y678332D02*
Y679317D01*
X1162451Y678332D01*
X1160483D02*
X1161467Y679317D01*
Y673529D02*
Y677191D01*
Y678332D01*
X1125063Y718673D02*
X1125076Y718686D01*
X1161488Y670441D02*
Y673508D01*
X1148672Y622230D02*
X1153593D01*
X1130771Y641731D02*
X1131825Y642785D01*
X1117141Y631673D02*
Y634041D01*
X1090944Y684161D02*
X1092743D01*
X1082598Y677398D02*
X1082632Y677431D01*
X1082598Y675182D02*
Y677398D01*
X1067963Y638030D02*
Y652742D01*
X1176503Y705115D02*
X1179009D01*
X1176336Y705282D02*
X1176503Y705115D01*
X1179009D02*
X1179176Y704948D01*
X1178298Y705826D02*
Y706751D01*
X1177953Y707095D02*
X1178298Y706751D01*
X1177953Y707095D02*
Y707419D01*
X1130771Y641731D02*
X1132177D01*
X1130756D02*
X1130771D01*
X1130756Y641716D02*
X1130771Y641731D01*
X1131825Y645429D02*
X1132064Y645668D01*
X1128887Y641716D02*
X1130756D01*
X1131825Y642785D02*
Y645429D01*
X1137686Y647916D02*
X1137777Y648006D01*
X1137875D01*
X1137686Y647401D02*
Y647916D01*
X1134499Y646815D02*
X1137101D01*
X1137686Y647401D01*
X1133604Y645920D02*
X1134499Y646815D01*
X1110446Y717184D02*
Y717345D01*
X1110947Y716360D02*
Y716684D01*
X1111108Y714565D02*
Y716198D01*
X1110446Y717184D02*
X1110947Y716684D01*
X1111108Y714565D02*
X1111270Y714403D01*
X1110947Y716360D02*
X1111108Y716198D01*
X1106514Y719053D02*
X1106697Y718870D01*
X1109118D01*
X1109302Y718687D01*
X1129932Y702939D02*
X1129951Y702919D01*
X1129447Y703423D02*
X1129932Y702939D01*
X1109302Y718490D02*
Y718687D01*
Y718490D02*
X1110446Y717345D01*
X1075312Y665274D02*
X1075509D01*
X1129951Y700005D02*
Y702919D01*
Y700005D02*
X1129971Y699986D01*
X1099549Y634544D02*
Y636312D01*
Y634544D02*
X1099928Y634165D01*
Y630113D02*
Y634165D01*
X1118451Y643750D02*
X1118776D01*
X1119906Y644241D02*
X1120390Y644726D01*
X1119267Y644241D02*
X1119906D01*
X1118776Y643750D02*
X1119267Y644241D01*
X1118221Y643979D02*
X1118451Y643750D01*
X1118150Y644733D02*
X1118221Y644661D01*
Y643979D02*
Y644661D01*
X1116945Y644733D02*
X1118150D01*
X1166707Y674456D02*
X1166936Y674227D01*
X1165534Y675116D02*
X1166193Y674456D01*
X1166707D01*
X1111270Y714403D02*
X1113239D01*
X987646Y645138D02*
X989858D01*
X989883Y645162D01*
X987622Y645114D02*
X987646Y645138D01*
X977412Y646836D02*
X977437Y646811D01*
Y644180D02*
Y646811D01*
Y644180D02*
X977463Y644155D01*
X964616Y646836D02*
X967274D01*
X960058Y674049D02*
X960196D01*
X960582Y674434D02*
Y675773D01*
X961002Y676002D02*
X962436Y677436D01*
X960582Y675773D02*
X960811Y676002D01*
X961002D01*
X960196Y674049D02*
X960582Y674434D01*
X963580Y670188D02*
X963580Y670187D01*
Y667845D02*
X963581Y667844D01*
X963580Y667845D02*
Y670187D01*
X958498Y689363D02*
Y693098D01*
X954419Y689396D02*
X958465D01*
X958461Y687505D02*
Y688809D01*
X958465Y689396D02*
X958498Y689363D01*
Y688845D02*
Y689363D01*
Y693098D02*
X958728Y693328D01*
X958461Y688809D02*
X958498Y688845D01*
X954387Y689428D02*
X954419Y689396D01*
X958371Y687415D02*
X958461Y687505D01*
X958033Y687415D02*
X958371D01*
X1164829Y675222D02*
X1165128D01*
X1162890Y675768D02*
X1164283D01*
X1164829Y675222D01*
X1161467Y679317D02*
Y680852D01*
X1133747Y674963D02*
X1133763Y674948D01*
Y673116D02*
X1133778Y673101D01*
X1133763Y673116D02*
Y674948D01*
X1125901Y673045D02*
X1125904Y673042D01*
X1125901Y673045D02*
Y674956D01*
X1125898Y674959D02*
X1125901Y674956D01*
X1116071Y674296D02*
X1116301Y674067D01*
X1117101D01*
X1114921D02*
X1115842D01*
X1114164Y673309D02*
X1114921Y674067D01*
X1114066Y673309D02*
X1114164D01*
X1117101Y674067D02*
X1118034Y673134D01*
X1113975Y673219D02*
X1114066Y673309D01*
X1115842Y674067D02*
X1116071Y674296D01*
X1118034Y673035D02*
Y673134D01*
X1153593Y674395D02*
X1153602Y674404D01*
X1155496D01*
X1155505Y674413D01*
X1118034Y682779D02*
Y682878D01*
X1117943Y682689D02*
X1118034Y682779D01*
X1116520Y682152D02*
X1116845D01*
X1117382Y682689D01*
X1117943D01*
X943947Y646836D02*
X945916D01*
X943376Y641909D02*
X943382Y641902D01*
X940017Y641909D02*
X943376D01*
X940010Y641915D02*
X940017Y641909D01*
X984268Y661822D02*
Y664008D01*
X984382Y664121D01*
X984154Y661708D02*
X984268Y661822D01*
X944932Y682269D02*
X945187D01*
X947884Y679572D01*
Y679317D02*
Y679572D01*
X1054302Y614149D02*
X1056642D01*
X1056671Y614178D01*
X1054273Y614120D02*
X1054302Y614149D01*
X1083766Y682604D02*
X1087251D01*
X1083766Y682348D02*
Y682604D01*
X1162451Y676206D02*
X1162890Y675768D01*
X1091644Y677348D02*
Y679669D01*
Y677231D02*
Y677348D01*
X1092419Y680443D02*
Y680768D01*
X1091644Y679669D02*
X1092419Y680443D01*
X1081764Y680835D02*
X1081993Y681064D01*
X1081753Y680824D02*
X1081764Y680835D01*
X1072884Y671443D02*
X1072896Y671454D01*
X1072262Y670821D02*
X1072884Y671443D01*
X1081697Y674282D02*
X1082598Y675182D01*
X1081764Y680517D02*
Y680835D01*
X1082632Y677431D02*
Y679649D01*
X1081764Y680517D02*
X1082632Y679649D01*
X1081697Y673997D02*
Y674282D01*
X1105421Y682061D02*
X1106140D01*
X1104634Y681598D02*
X1104959D01*
X1105421Y682061D01*
X1106140D02*
X1106231Y682151D01*
X1082482Y681064D02*
X1083766Y682348D01*
X1081993Y681064D02*
X1082482D01*
X1071872Y675108D02*
X1072896Y674085D01*
X1071872Y675108D02*
Y675225D01*
X1072896Y671454D02*
Y674085D01*
X1072262Y668128D02*
Y670821D01*
Y667669D02*
X1072918D01*
X1072033Y667899D02*
X1072262Y668128D01*
X1072918Y667669D02*
X1075312Y665274D01*
X1072033Y667899D02*
X1072262Y667669D01*
X1091984Y669740D02*
Y671325D01*
X1091898Y671411D02*
X1091984Y671325D01*
Y669740D02*
X1092071Y669654D01*
X1119133Y664124D02*
X1119136Y664121D01*
X1121407D01*
X1121410Y664118D01*
X962436Y677436D02*
Y677731D01*
X1133462Y645668D02*
X1134120Y645011D01*
X1132064Y645668D02*
X1132958D01*
X984382Y675932D02*
X984417Y675968D01*
X987198D01*
X948300Y674579D02*
X948312Y674591D01*
X945837Y674579D02*
X948300D01*
X945411Y662370D02*
X947944D01*
X947969Y662345D01*
X981106Y648147D02*
X983316D01*
X983546Y648377D01*
X980734Y647775D02*
X981106Y648147D01*
X957693Y642637D02*
X959892Y640439D01*
X955727Y644155D02*
X957244Y642637D01*
X955727Y644155D02*
Y646836D01*
X959892Y639376D02*
Y640439D01*
X957244Y642637D02*
X957693D01*
X953380Y646820D02*
X953388Y646828D01*
X955719D02*
X955727Y646836D01*
X953388Y646828D02*
X955719D01*
X1067963Y638030D02*
X1069431Y636562D01*
X1072582Y636563D02*
Y640475D01*
X1072583Y640476D01*
X1072581Y636562D02*
X1072582Y636563D01*
X1114123Y623655D02*
Y623911D01*
X1115001Y624789D02*
X1116457D01*
X1116851Y625183D02*
X1117176D01*
X1116457Y624789D02*
X1116851Y625183D01*
X1114123Y623911D02*
X1115001Y624789D01*
X1168357Y622230D02*
X1168688Y622561D01*
X1170561D01*
X1170791Y622791D01*
X1134892Y622230D02*
Y622427D01*
X1136631Y624166D01*
Y624953D02*
X1136861Y625183D01*
X1136631Y624166D02*
Y624953D01*
X1130955Y709828D02*
X1130959Y709825D01*
X1133147D01*
X1133150Y709821D01*
X1162451Y676206D02*
Y676364D01*
X995036Y614212D02*
X995128Y614120D01*
X991832Y614212D02*
X995036D01*
X991739Y614305D02*
X991832Y614212D01*
X1032654Y613981D02*
X1032792Y613842D01*
X1029577Y614120D02*
X1029716Y613981D01*
X1032654D01*
X1041388Y614120D02*
X1041614Y613894D01*
X1044332D02*
X1044557Y613669D01*
X1041614Y613894D02*
X1044332D01*
X1145365Y651258D02*
X1148831D01*
X1150315Y652742D01*
X1144979Y650872D02*
X1145365Y651258D01*
X1150315Y652742D02*
X1150640D01*
X1144979Y653431D02*
X1149627D01*
X1144979Y655990D02*
X1149627D01*
X1150315Y656679D01*
X1150640D01*
X1145365Y658163D02*
X1148831D01*
X1150315Y656679D01*
X1144979Y658549D02*
X1145365Y658163D01*
X1072589Y633668D02*
Y636553D01*
X1072581Y636562D02*
X1072589Y636553D01*
Y633668D02*
X1072598Y633660D01*
X1153598Y681398D02*
X1155735D01*
X1153593Y681403D02*
X1153598Y681398D01*
X1150609Y670427D02*
X1150640Y670458D01*
X1148214Y670427D02*
X1150609D01*
X1148183Y670396D02*
X1148214Y670427D01*
X1159498Y670458D02*
X1159518Y670439D01*
X1161488Y670441D02*
X1161490Y670439D01*
X1161467Y673529D02*
X1161488Y673508D01*
X1159518Y670439D02*
X1161490D01*
X1159498Y673529D02*
X1159498Y673529D01*
X1159498Y670458D02*
Y673529D01*
X1092316Y673460D02*
Y673784D01*
X1091898Y671411D02*
X1091988Y671502D01*
Y673132D01*
X1092316Y673460D01*
X1090867Y684084D02*
X1090944Y684161D01*
X1092743D02*
X1092820Y684238D01*
X1106602Y674400D02*
X1106606Y674405D01*
X1104380Y674395D02*
X1104385Y674400D01*
X1106602D01*
X1104402Y677370D02*
X1106484D01*
X1106505Y677391D01*
X1104380Y677348D02*
X1104402Y677370D01*
X1107875Y682061D02*
X1108355Y681581D01*
X1106231Y682151D02*
X1106321Y682061D01*
X1107875D01*
X1108355Y681581D02*
X1108679D01*
X1135910Y676794D02*
Y678781D01*
X1135869Y678823D02*
X1135910Y678781D01*
X1128968Y676699D02*
Y678812D01*
X1128957Y676688D02*
X1128968Y676699D01*
Y678812D02*
X1128979Y678823D01*
X1121480Y660628D02*
X1123824D01*
X1121427Y660575D02*
X1121480Y660628D01*
X1123824D02*
X1123877Y660682D01*
X1114182Y628821D02*
X1114219Y628784D01*
X1111616Y628859D02*
X1111653Y628821D01*
X1114182D01*
X1121026Y631535D02*
X1121069Y631578D01*
Y633998D02*
X1121113Y634041D01*
X1121069Y631578D02*
Y633998D01*
X1117107Y631639D02*
X1117141Y631673D01*
X1179461Y642467D02*
X1179519Y642408D01*
X1174389Y642525D02*
X1174447Y642467D01*
X1179461D01*
X1178199Y660616D02*
X1181152D01*
X1178199Y664553D02*
X1181152D01*
X1219696Y636168D02*
X1226645D01*
X1226665Y636188D01*
X1219676Y636147D02*
X1219696Y636168D01*
X1219742Y646213D02*
X1226478D01*
X1219676Y646147D02*
X1219742Y646213D01*
X1226478D02*
X1226544Y646279D01*
X1219786Y656037D02*
X1226494D01*
X1226604Y655927D01*
X1219676Y656147D02*
X1219786Y656037D01*
X1219676Y661147D02*
X1219756Y661067D01*
X1226523D01*
X1226604Y660986D01*
X1219699Y666124D02*
X1226748D01*
X1226771Y666100D01*
X1219676Y666147D02*
X1219699Y666124D01*
X1139806Y704900D02*
X1139813Y704907D01*
X1139806Y701956D02*
Y704900D01*
X1135850Y704881D02*
X1135876Y704907D01*
X1135850Y701889D02*
Y704881D01*
X1139828Y715824D02*
X1139842Y715839D01*
X1139813Y712781D02*
X1139828Y712796D01*
Y715824D01*
X1129447Y703423D02*
Y704926D01*
X1129066Y705308D02*
Y705632D01*
Y705308D02*
X1129447Y704926D01*
X1129006Y705692D02*
X1129066Y705632D01*
X1128947Y707821D02*
X1129006Y707761D01*
Y705692D02*
Y707761D01*
X1106926Y722588D02*
X1106944Y722606D01*
X1109284D02*
X1109302Y722624D01*
X1106944Y722606D02*
X1109284D01*
X1125076Y718686D02*
X1128691D01*
X1128691Y718686D01*
X1125063Y716335D02*
Y718673D01*
X1121113Y716219D02*
Y718686D01*
X1121113Y718687D02*
X1121113Y718686D01*
X1004971Y631088D02*
Y634041D01*
X1003987Y635222D02*
X1004971Y634238D01*
X1003987Y635222D02*
Y640242D01*
X1004971Y634041D02*
Y634238D01*
X1099928Y630113D02*
X1100789Y629252D01*
X1099459Y636403D02*
X1099549Y636312D01*
X1191161Y671329D02*
X1203470D01*
X1190979Y671511D02*
X1191161Y671329D01*
X1203470D02*
X1203652Y671147D01*
X1126479Y705013D02*
X1126979Y705513D01*
Y707821D01*
X1125994Y702939D02*
X1126479Y703423D01*
Y705013D01*
X1001042Y642899D02*
X1001329D01*
X1001034Y634041D02*
Y642891D01*
X1001042Y642899D01*
X1007924Y635289D02*
X1008876Y634336D01*
X1007924Y635289D02*
Y640242D01*
X1008876Y634041D02*
Y634336D01*
D145*
X1048786Y690240D02*
Y695446D01*
X1050812Y700360D02*
X1052304D01*
X1053030Y699633D01*
X1050697Y700475D02*
X1050812Y700360D01*
X1063987Y700488D02*
X1064841Y699633D01*
X1061983Y700488D02*
X1063987D01*
X1045325Y643884D02*
Y644080D01*
X1057410Y690240D02*
X1057887Y689764D01*
Y685618D02*
Y689764D01*
Y685618D02*
X1058121Y685384D01*
Y685222D02*
Y685384D01*
X1048786Y690240D02*
X1049147Y689879D01*
Y685337D02*
Y689879D01*
Y685337D02*
X1049262Y685222D01*
X1002987Y668522D02*
Y670443D01*
X1003002Y670458D01*
X1005029Y676009D02*
X1005108Y676088D01*
X1004960Y675940D02*
X1005029Y676009D01*
X1011861Y663568D02*
X1011861Y663568D01*
X1009892Y663568D02*
X1011861D01*
X1113598Y651968D02*
X1113713Y651853D01*
X1116190Y649031D02*
X1116387D01*
X1113713Y651508D02*
X1116190Y649031D01*
X1116387D02*
X1116571Y648847D01*
X1113713Y651508D02*
Y651853D01*
X950359Y658619D02*
X951793D01*
X949013Y659254D02*
X951906Y662148D01*
X948898Y658592D02*
X949013Y658707D01*
X951906Y662148D02*
Y662345D01*
X949013Y658707D02*
Y659254D01*
X1003508Y675940D02*
X1004960D01*
X1005108Y676088D02*
X1006612D01*
X1003194Y675625D02*
X1003508Y675940D01*
X1001202Y675194D02*
X1001317Y675309D01*
X1002489D01*
X1002806Y675625D01*
X1041143Y700710D02*
Y702853D01*
X1041383Y700308D02*
Y700471D01*
X1041057Y702939D02*
X1041143Y702853D01*
Y700710D02*
X1041383Y700471D01*
X1013209Y716125D02*
Y719897D01*
X1013140Y719966D02*
X1013209Y719897D01*
Y716125D02*
X1013278Y716056D01*
X1013140Y703628D02*
Y707402D01*
Y719966D02*
Y721292D01*
X951793Y658619D02*
X951821Y658647D01*
X956349Y660616D02*
Y660874D01*
X951906Y662345D02*
X954878D01*
X956349Y660874D01*
X1055616Y703197D02*
X1056565D01*
X1058053Y704685D01*
X1055501Y703083D02*
X1055616Y703197D01*
X1056091Y706647D02*
X1057420Y705318D01*
X1055616Y706647D02*
X1056091D01*
X1055501Y706762D02*
X1055616Y706647D01*
X1002806Y675625D02*
X1003194D01*
X1002806Y678332D02*
Y679871D01*
Y675625D02*
Y678332D01*
X1057320Y631581D02*
X1058412Y630490D01*
X1057320Y631581D02*
Y633857D01*
X1058412Y630328D02*
Y630490D01*
X1057136Y634041D02*
X1057320Y633857D01*
X1043764Y646221D02*
X1043879Y646107D01*
Y645526D02*
Y646107D01*
Y645526D02*
X1045325Y644080D01*
X1057410Y691677D02*
X1057976Y692242D01*
X1060372D01*
X1057410Y690240D02*
Y691677D01*
X1060372Y692242D02*
X1060487Y692357D01*
X1048773Y695459D02*
X1048786Y695446D01*
X1022754Y647654D02*
Y652828D01*
X1022764Y652838D01*
X1007564Y671444D02*
X1009891D01*
X1009892Y671443D01*
X1011851Y667515D02*
X1011861Y667506D01*
X1009747Y667515D02*
X1011851D01*
X1016809Y694053D02*
X1019297D01*
X1016782Y694080D02*
X1016809Y694053D01*
X1019297D02*
X1019325Y694026D01*
X1016796Y698031D02*
X1019211D01*
X1016782Y698017D02*
X1016796Y698031D01*
X1029041Y698052D02*
X1029059Y698035D01*
X1031528D02*
X1031546Y698017D01*
X1029059Y698035D02*
X1031528D01*
X1041017Y706853D02*
X1043499D01*
X1040994Y706876D02*
X1041017Y706853D01*
X1043499D02*
X1043522Y706830D01*
X1024404Y716407D02*
X1024448Y716363D01*
X1024361Y719966D02*
X1024404Y719922D01*
Y716407D02*
Y719922D01*
X1024393Y703660D02*
Y707197D01*
X1024426Y707230D01*
X1024361Y703628D02*
X1024393Y703660D01*
X1012845Y694080D02*
Y698017D01*
X1012826Y698036D02*
X1012845Y698017D01*
X1010334Y698036D02*
X1012826D01*
X1010315Y698055D02*
X1010334Y698036D01*
X982320Y641831D02*
X985063Y644573D01*
X982320Y639757D02*
Y641831D01*
X985063Y644573D02*
Y645114D01*
X981939Y639376D02*
X982320Y639757D01*
X948350Y646836D02*
X949288Y645899D01*
Y641902D02*
Y645899D01*
X948002Y646836D02*
X948350D01*
X1075325Y661522D02*
X1075509Y661337D01*
X1073302Y661522D02*
X1075325D01*
X1072793Y662031D02*
X1073302Y661522D01*
X1072630Y662031D02*
X1072793D01*
X1000050Y616293D02*
X1000061Y616304D01*
X1002913D01*
X1002924Y616315D01*
X1040246Y638136D02*
X1040404Y637978D01*
X1040246Y638136D02*
Y652680D01*
X1040087Y652838D02*
X1040246Y652680D01*
X1036185Y645642D02*
X1036270Y645556D01*
X1036185Y645642D02*
Y652410D01*
X1035756Y652838D02*
X1036185Y652410D01*
X1036270Y645556D02*
X1036467D01*
X1031486Y645616D02*
Y652779D01*
X1031426Y652838D02*
X1031486Y652779D01*
Y645616D02*
X1031546Y645556D01*
X1026860Y645642D02*
Y652603D01*
X1026625Y645556D02*
X1026774D01*
X1026860Y645642D01*
Y652603D02*
X1027095Y652838D01*
X1012876Y634041D02*
X1012888Y634053D01*
X1015359D01*
X1015371Y634064D01*
X1005844Y668337D02*
X1006644Y667537D01*
X1006939D01*
D146*
X1168113Y658549D02*
X1171798D01*
X1173284Y660035D02*
X1173878D01*
X1174262Y660616D02*
Y664553D01*
X1171798Y658549D02*
X1173284Y660035D01*
X1174262Y660419D02*
Y660616D01*
X1174262Y664553D02*
Y667325D01*
X1173878Y660035D02*
X1174262Y660419D01*
X1178548Y653323D02*
X1180524D01*
X1181227Y654026D02*
Y656929D01*
X1180524Y653323D02*
X1181227Y654026D01*
X1178262Y653037D02*
X1178548Y653323D01*
X1178262Y652742D02*
Y653037D01*
X1178231Y648836D02*
Y652260D01*
X1178262Y653323D02*
Y656098D01*
X1178231Y652260D02*
Y652710D01*
X1178262Y656098D02*
Y656679D01*
X1117700Y637650D02*
X1118586Y638536D01*
X1115530Y663905D02*
Y665012D01*
X1118586Y637978D02*
X1121113D01*
X1126427D01*
X1108121Y654907D02*
X1113629D01*
X1107476Y631273D02*
X1107629Y631120D01*
X1117505Y651031D02*
X1120685D01*
X1113629Y654907D02*
X1117505Y651031D01*
X1113328Y651968D02*
X1113598D01*
X1112152Y653143D02*
X1113328Y651968D01*
X1109389Y653143D02*
X1112152D01*
X1109194Y652948D02*
X1109389Y653143D01*
X1127185Y724257D02*
X1127354D01*
X1128504Y723106D01*
X1128701D02*
X1128987Y722821D01*
Y722624D02*
Y722821D01*
X1128504Y723106D02*
X1128701D01*
X1126925Y724302D02*
X1127185D01*
X1125247Y722624D02*
X1126925Y724302D01*
X954432Y685446D02*
X958033D01*
X1121113Y722624D02*
X1125247D01*
X1046309Y616293D02*
X1046595Y616007D01*
X1048804Y615388D02*
X1049075D01*
X1046595Y616007D02*
X1048185D01*
X1048804Y615388D01*
X1101428Y633613D02*
X1102454Y632587D01*
X1104932D02*
X1106247Y631273D01*
X1102454Y632587D02*
X1104932D01*
X1106247Y631273D02*
X1107476D01*
X1054841Y643613D02*
X1055031Y643803D01*
X1053199Y642168D02*
X1054644Y643613D01*
X1054841D01*
X1053199Y638962D02*
Y642168D01*
X1055031Y643803D02*
Y644000D01*
X1054841Y644191D02*
X1055031Y644000D01*
X1054742Y644191D02*
X1054841D01*
X1053079Y645854D02*
Y652838D01*
Y645854D02*
X1054742Y644191D01*
X1053139Y634101D02*
Y638962D01*
X1077817Y682560D02*
X1077861Y682604D01*
X1074994Y682560D02*
X1077817D01*
X1074950Y682517D02*
X1074994Y682560D01*
X1077833Y682576D02*
X1077861Y682604D01*
X1077833Y679049D02*
Y682576D01*
X1112563Y661797D02*
Y662083D01*
X1111578Y660813D02*
X1112563Y661797D01*
Y662083D02*
X1112754Y662275D01*
X1108121Y660813D02*
X1111578D01*
X1114454Y660575D02*
X1117490D01*
X1112754Y662275D02*
X1114454Y660575D01*
X1044418Y652838D02*
X1044957Y652300D01*
Y648759D02*
X1047425Y646290D01*
X1049038D02*
X1049172Y646156D01*
X1044957Y648759D02*
Y652300D01*
X1047425Y646290D02*
X1049038D01*
X970534Y670083D02*
Y672383D01*
Y670083D02*
X970545Y670072D01*
X970522Y672395D02*
X970534Y672383D01*
X965473Y678045D02*
X965483Y678054D01*
X965473Y676476D02*
Y678045D01*
X965243Y675975D02*
Y676246D01*
X963659Y674545D02*
X965089Y675975D01*
X965243D01*
Y676246D02*
X965473Y676476D01*
X963659Y674250D02*
Y674545D01*
X1009892Y657202D02*
X1011847Y659157D01*
X1009892Y655399D02*
Y657202D01*
X1016182Y662987D02*
X1016379D01*
X1017217Y652850D02*
Y662149D01*
X1016379Y662987D02*
X1017217Y662149D01*
X1015798Y663372D02*
X1016182Y662987D01*
X1049005Y646303D02*
Y652582D01*
X1049172Y643973D02*
Y646156D01*
X1049262Y637683D02*
Y637967D01*
X1049172Y643973D02*
X1049262Y643884D01*
X1049260Y637969D02*
Y643881D01*
Y637969D02*
X1049262Y637967D01*
X1049260Y643881D02*
X1049262Y643884D01*
X1011871Y616283D02*
X1014569D01*
X1011861Y616293D02*
X1011871Y616283D01*
X1014569D02*
X1014579Y616272D01*
X1022687Y616261D02*
X1022728Y616221D01*
X1025382D01*
X1025422Y616181D01*
X1077805Y679022D02*
X1077833Y679049D01*
X1145411Y627525D02*
X1146577D01*
X1145411D02*
X1145411D01*
X1145411Y632525D02*
X1146577D01*
X1144735Y628202D02*
Y631849D01*
X1145411Y632525D01*
X1144735Y628202D02*
X1145411Y627525D01*
X1142129Y622255D02*
X1142154Y622279D01*
X1138829Y622230D02*
X1138854Y622255D01*
X1142129D01*
X1144710D02*
X1144735Y622230D01*
X1142178Y622255D02*
X1144710D01*
X1142154Y622279D02*
X1142178Y622255D01*
X1144735Y626849D02*
X1145411Y627525D01*
X1144735Y622230D02*
Y626849D01*
X1157530Y622230D02*
X1161467D01*
X1164420D01*
X1176623Y637525D02*
X1179587Y634562D01*
X1174389Y637525D02*
X1176623D01*
X1179587Y632390D02*
Y634562D01*
Y632390D02*
X1179873Y632104D01*
X1180168D01*
X1178199Y645852D02*
Y648805D01*
X1178231Y652710D02*
X1178262Y652742D01*
X1178199Y648805D02*
X1178231Y648836D01*
X1174261Y667326D02*
X1174262Y667325D01*
Y660616D02*
X1174262Y660616D01*
X1191063Y667443D02*
X1193917D01*
X1191032Y667413D02*
X1191063Y667443D01*
X1193917D02*
X1193947Y667474D01*
X1120916Y722624D02*
X1121113D01*
X1118802Y724203D02*
X1118993Y724394D01*
X1118802Y723757D02*
Y724203D01*
X1119145Y724394D02*
X1120916Y722624D01*
X1117373Y722328D02*
X1118802Y723757D01*
X1118993Y724394D02*
X1119145D01*
X1117176Y722328D02*
X1117373D01*
X1048748Y652838D02*
X1049005Y652582D01*
X1015798Y663372D02*
Y663568D01*
Y664307D02*
Y667506D01*
X1015798Y667506D02*
X1015798Y667506D01*
X1018119Y667527D02*
X1018141Y667550D01*
X1015798Y667506D02*
X1015820Y667527D01*
X1018119D01*
X1016329Y671373D02*
X1016398Y671304D01*
X1013829Y671443D02*
X1013898Y671373D01*
X1016329D01*
X1012461Y693499D02*
X1012845Y693884D01*
X1008908Y690340D02*
Y691384D01*
X1011023Y693499D01*
X1012461D01*
X1012845Y693884D02*
Y694080D01*
X1099863Y623486D02*
X1100789Y622560D01*
X1092811Y624010D02*
X1093334Y623486D01*
X1099863D01*
X1102294Y674395D02*
Y677348D01*
X1102297Y677352D01*
Y679319D01*
X1102301Y679323D01*
X1101427Y634787D02*
Y636403D01*
X1101428Y633613D02*
Y634787D01*
X1101427Y634787D02*
X1101428Y634787D01*
X1135862Y712795D02*
X1135876Y712781D01*
X1135848Y715488D02*
X1135862Y715474D01*
X1135848Y715488D02*
X1135876Y715517D01*
Y720655D01*
X1135862Y712795D02*
Y715474D01*
X1134391Y722141D02*
X1135876Y720655D01*
X1132619Y722141D02*
X1134391D01*
X1132333Y722427D02*
X1132619Y722141D01*
X1132333Y722427D02*
Y722624D01*
X1135876Y708844D02*
Y712781D01*
Y708844D02*
X1139813D01*
X1131044Y711886D02*
X1132245D01*
X1133092Y712733D01*
X1135828D01*
X1130955Y711797D02*
X1131044Y711886D01*
X1107270Y714712D02*
X1108217Y713765D01*
X1105609Y714904D02*
X1105801Y714712D01*
X1108217Y713765D02*
X1108660D01*
X1105801Y714712D02*
X1107270D01*
X1049410Y634189D02*
X1053051D01*
X1049262Y634337D02*
X1049410Y634189D01*
X1053051D02*
X1053139Y634101D01*
D147*
X1109972Y624976D02*
X1110011Y625014D01*
X1108217Y623911D02*
X1109283Y624976D01*
X1109972D01*
X1120390Y648663D02*
X1120685Y651031D01*
X1069431Y636562D02*
X1072581D01*
X963042Y639376D02*
X963223Y639194D01*
X1108217Y623655D02*
Y623911D01*
X1107123Y622560D02*
X1108217Y623655D01*
X1100789Y622560D02*
X1107123D01*
D148*
X1107629Y631120D02*
X1107654Y631095D01*
Y628884D02*
X1107679Y628859D01*
X1107654Y628884D02*
Y631095D01*
X1131051Y707860D02*
X1132712Y706199D01*
X1130955Y707860D02*
X1131051D01*
X1132712Y706199D02*
X1132715D01*
X1105522Y711786D02*
X1108649D01*
X1105443Y711707D02*
X1105522Y711786D01*
X1108649D02*
X1108660Y711797D01*
D149*
X965228Y693103D02*
X966206Y694080D01*
X966325Y692856D02*
Y694080D01*
Y692856D02*
X972031D01*
X972538Y692348D02*
X977893D01*
X966206Y694080D02*
X967469D01*
X972031Y692856D02*
X972538Y692348D01*
X966128Y692703D02*
X966325Y692506D01*
X954325Y669977D02*
X955761D01*
X952249Y672053D02*
Y679317D01*
Y682847D01*
Y672053D02*
X954325Y669977D01*
X949748Y685348D02*
X952249Y682847D01*
X949748Y685348D02*
X954244D01*
X966128Y692703D02*
Y693328D01*
D150*
X963223Y636961D02*
Y639194D01*
X964257Y633236D02*
Y635926D01*
X963223Y636961D02*
X964257Y635926D01*
D151*
X961776Y630755D02*
X962109Y631088D01*
X964257Y633236D01*
X949349Y637499D02*
Y641841D01*
X949288Y641902D02*
X949349Y641841D01*
X949508Y637499D02*
X951446Y635561D01*
X952969Y630755D02*
X961776D01*
X951446Y632278D02*
Y635561D01*
Y632278D02*
X952969Y630755D01*
D152*
X967338Y687415D02*
X968375Y686378D01*
X964631Y687415D02*
X967338D01*
X968375Y685387D02*
Y686378D01*
Y685387D02*
X969411Y684350D01*
X976560D01*
X977893Y683018D01*
D153*
X946002Y634507D02*
Y637499D01*
D154*
X941585Y678923D02*
D03*
X993554D02*
D03*
D155*
X943947Y717702D02*
D03*
Y621246D02*
D03*
X1221506Y717702D02*
D03*
Y621246D02*
D03*
D156*
X989498Y620675D02*
D03*
X955483D02*
D03*
D157*
X989498Y637132D02*
D03*
X955483D02*
D03*
D158*
X961113Y635163D02*
D03*
X983869D02*
D03*
D159*
X1076260Y705134D02*
D03*
X1048760D02*
D03*
X1197642Y705134D02*
D03*
X1170142D02*
D03*
D160*
X1177914Y701189D02*
D03*
X1166459Y697042D02*
D03*
X1167743Y690967D02*
D03*
X1172979Y691238D02*
D03*
X1174436Y693930D02*
D03*
X1208829Y691860D02*
D03*
X1211697Y691899D02*
D03*
X1176336Y705282D02*
D03*
X1177953Y707419D02*
D03*
X1171554Y656011D02*
D03*
X1181227Y656955D02*
D03*
X1118403Y703001D02*
D03*
X1122199Y710362D02*
D03*
X1110947Y716360D02*
D03*
X1106514Y719053D02*
D03*
X1114178Y710424D02*
D03*
X1073283Y646089D02*
D03*
X1075837Y642899D02*
D03*
X1063510Y661894D02*
D03*
X1226642Y681320D02*
D03*
X1147054Y624257D02*
D03*
X1129927Y622062D02*
D03*
X1093120Y628873D02*
D03*
X1091138Y631145D02*
D03*
X1087070Y631318D02*
D03*
X1084799Y629076D02*
D03*
X1174012Y685502D02*
D03*
X1166359Y685615D02*
D03*
X1166999Y679975D02*
D03*
X1166410Y683095D02*
D03*
X1135850Y701889D02*
D03*
X1129971Y699986D02*
D03*
X1058121Y685222D02*
D03*
X1049262D02*
D03*
X1003002Y670458D02*
D03*
X1007564Y671444D02*
D03*
X1009892Y663568D02*
D03*
X1009747Y667515D02*
D03*
X1011847Y659157D02*
D03*
X1010876Y636994D02*
D03*
X1022754Y647654D02*
D03*
X1017711Y641027D02*
D03*
X1024042Y645245D02*
D03*
X1031045Y628449D02*
D03*
X1037421Y614311D02*
D03*
X1111859Y638396D02*
D03*
X1112825Y642013D02*
D03*
X1111129Y648352D02*
D03*
X1113727Y648242D02*
D03*
X1112017Y644485D02*
D03*
X1112989Y632888D02*
D03*
X1097794Y633471D02*
D03*
X1095207Y631742D02*
D03*
X1087741Y624699D02*
D03*
X1110011Y625014D02*
D03*
X1107629Y631120D02*
D03*
X1110678Y631572D02*
D03*
X1118892Y629470D02*
D03*
X1116700Y627844D02*
D03*
X1113598Y651968D02*
D03*
X1079482Y636340D02*
D03*
X1075837Y646836D02*
D03*
Y650773D02*
D03*
X1111095Y650956D02*
D03*
X1118451Y643750D02*
D03*
X1119286Y641287D02*
D03*
X1118586Y638536D02*
D03*
X1032622Y626223D02*
D03*
X1166936Y674227D02*
D03*
X1127185Y724302D02*
D03*
X989883Y645162D02*
D03*
X977463Y644155D02*
D03*
X983546Y648377D02*
D03*
X964616Y646836D02*
D03*
X953380Y646820D02*
D03*
X960811Y676002D02*
D03*
X963581Y667844D02*
D03*
X958498Y689363D02*
D03*
X1005029Y676009D02*
D03*
X1001202Y675194D02*
D03*
X1061983Y700488D02*
D03*
X1133747Y674963D02*
D03*
X1125898Y674959D02*
D03*
X1116071Y674296D02*
D03*
X1106606Y674405D02*
D03*
X1106505Y677391D02*
D03*
X1155505Y674413D02*
D03*
X1155735Y681398D02*
D03*
X1116520Y682152D02*
D03*
X943947Y646836D02*
D03*
X1135910Y676794D02*
D03*
X1128957Y676688D02*
D03*
X1106926Y722588D02*
D03*
X1139842Y715839D02*
D03*
X1139806Y701956D02*
D03*
X1121113Y716219D02*
D03*
X1125063Y716335D02*
D03*
X940010Y641915D02*
D03*
X984154Y661708D02*
D03*
X987198Y675968D02*
D03*
X944932Y682269D02*
D03*
X945837Y674579D02*
D03*
X1019211Y698031D02*
D03*
X945411Y662370D02*
D03*
X1056671Y614178D02*
D03*
X1049075Y615388D02*
D03*
X1050077Y626540D02*
D03*
X1054420Y631150D02*
D03*
X1042157Y631872D02*
D03*
X1157530Y636010D02*
D03*
X1174249Y623386D02*
D03*
X1148186Y681400D02*
D03*
X1144038Y675306D02*
D03*
X1114787Y724278D02*
D03*
X1087262Y682614D02*
D03*
X1120685Y651031D02*
D03*
X1041383Y700308D02*
D03*
X1074950Y682517D02*
D03*
X1074669Y677379D02*
D03*
X1020284Y681595D02*
D03*
X1185089Y650773D02*
D03*
X994144Y659631D02*
D03*
X993414Y683542D02*
D03*
X985145Y705037D02*
D03*
X1104634Y681598D02*
D03*
X1092419Y680768D02*
D03*
X1081697Y673997D02*
D03*
X1081764Y680835D02*
D03*
X1071872Y675225D02*
D03*
X1078462Y668124D02*
D03*
X1072033Y667899D02*
D03*
X1092071Y669654D02*
D03*
X1112754Y662275D02*
D03*
X1115489Y663258D02*
D03*
X1121410Y664118D02*
D03*
X1179565Y683378D02*
D03*
X1179751Y678848D02*
D03*
X1180116Y672963D02*
D03*
X1166063Y662229D02*
D03*
X1170403Y662189D02*
D03*
X1160790Y657849D02*
D03*
X1154074Y656353D02*
D03*
X1162565Y635902D02*
D03*
X1166846Y639231D02*
D03*
X1158007Y639134D02*
D03*
X1166798Y643239D02*
D03*
X1158103D02*
D03*
X1128394Y656734D02*
D03*
X1138682Y674022D02*
D03*
X1140466Y677444D02*
D03*
X1129883Y674164D02*
D03*
X1132250Y677225D02*
D03*
X1173343Y679972D02*
D03*
X1174062Y682762D02*
D03*
X1166113Y694078D02*
D03*
X951821Y621246D02*
D03*
X936073D02*
D03*
X943947Y629120D02*
D03*
Y613372D02*
D03*
X938042Y626167D02*
D03*
X949403Y626876D02*
D03*
X938374Y615847D02*
D03*
X949789Y615957D02*
D03*
X1229380Y621246D02*
D03*
X1213632D02*
D03*
X1221506Y629120D02*
D03*
Y613372D02*
D03*
X1215601Y626167D02*
D03*
X1226962Y626876D02*
D03*
X1215933Y615847D02*
D03*
X1227348Y615957D02*
D03*
X1229380Y717702D02*
D03*
X1213632D02*
D03*
X1221506Y725576D02*
D03*
Y709828D02*
D03*
X1215601Y722624D02*
D03*
X1226962Y723333D02*
D03*
X1215933Y712304D02*
D03*
X1227348Y712414D02*
D03*
X949789D02*
D03*
X938374Y712304D02*
D03*
X949403Y723333D02*
D03*
X938042Y722624D02*
D03*
X943947Y709828D02*
D03*
Y725576D02*
D03*
X936073Y717702D02*
D03*
X951821D02*
D03*
X1001232Y725347D02*
D03*
X987138Y725243D02*
D03*
X971897Y724825D02*
D03*
X956742Y724592D02*
D03*
X1091203Y620202D02*
D03*
X1084272Y620606D02*
D03*
X1119975Y625394D02*
D03*
X1122237Y629446D02*
D03*
X1122239Y626907D02*
D03*
X1139593Y625519D02*
D03*
X1140254Y631001D02*
D03*
X1140391Y633572D02*
D03*
X1140529Y636464D02*
D03*
X1140668Y642518D02*
D03*
X1134496Y641634D02*
D03*
X1138211Y642145D02*
D03*
X1138858Y644514D02*
D03*
X1140724Y646491D02*
D03*
X1140877Y649141D02*
D03*
X1140765Y653637D02*
D03*
X1127995Y664333D02*
D03*
X1131686Y664275D02*
D03*
X1138161Y664245D02*
D03*
X1138337Y661169D02*
D03*
X1135612Y662429D02*
D03*
X1133298Y662370D02*
D03*
X1129753Y662224D02*
D03*
X1126559Y661608D02*
D03*
X1130895Y656598D02*
D03*
X1137845Y654710D02*
D03*
X1134352Y655251D02*
D03*
X1067919Y640467D02*
D03*
X1063427Y643364D02*
D03*
X1068006Y618707D02*
D03*
X1065099Y615914D02*
D03*
X1004676Y713470D02*
D03*
X1013278Y716056D02*
D03*
X1013140Y707402D02*
D03*
X973703Y668811D02*
D03*
X973457Y678788D02*
D03*
X985080Y678723D02*
D03*
X981952Y678338D02*
D03*
X944808Y670834D02*
D03*
X946266Y665877D02*
D03*
X962998Y657613D02*
D03*
X972094Y657206D02*
D03*
X979993Y657137D02*
D03*
X990553Y661947D02*
D03*
X990452Y664733D02*
D03*
X988511Y679075D02*
D03*
Y683600D02*
D03*
X988840Y686921D02*
D03*
X988694Y691665D02*
D03*
X988915Y695896D02*
D03*
X988888Y700190D02*
D03*
X984404Y700488D02*
D03*
X978921Y700433D02*
D03*
X973573Y700217D02*
D03*
X967901Y700190D02*
D03*
X963688Y699947D02*
D03*
X946093Y700278D02*
D03*
X946147Y693077D02*
D03*
X946013Y688633D02*
D03*
X1022887Y629981D02*
D03*
X950359Y660456D02*
D03*
X1134120Y645011D02*
D03*
X973475Y618293D02*
D03*
X1062145Y614951D02*
D03*
X975297Y660638D02*
D03*
X967469Y690862D02*
D03*
X965228Y690837D02*
D03*
X967220Y693153D02*
D03*
X965228Y693103D02*
D03*
X967220Y694995D02*
D03*
X965378Y695070D02*
D03*
X949206Y700135D02*
D03*
X953499Y697074D02*
D03*
X957942Y699989D02*
D03*
X960746Y697476D02*
D03*
X954457Y694367D02*
D03*
X949685Y693002D02*
D03*
X954378Y691725D02*
D03*
X960599Y682212D02*
D03*
X960616Y684875D02*
D03*
X961083Y687555D02*
D03*
X970545Y670072D02*
D03*
X965243Y675975D02*
D03*
X987234Y667903D02*
D03*
X987254Y670458D02*
D03*
X956349Y660616D02*
D03*
X951821Y658647D02*
D03*
X948898Y658592D02*
D03*
X1044807Y723693D02*
D03*
X1052595D02*
D03*
X1048754Y720279D02*
D03*
X1044860Y709931D02*
D03*
X1052628Y710035D02*
D03*
X1072379Y723530D02*
D03*
X1079912Y723849D02*
D03*
X1076260Y717709D02*
D03*
X1072379Y709932D02*
D03*
X1079848Y710315D02*
D03*
X1050697Y700475D02*
D03*
X1055501Y703083D02*
D03*
Y706762D02*
D03*
X1201683Y723985D02*
D03*
X1193823Y723822D02*
D03*
X1197642Y716886D02*
D03*
X1193758Y710157D02*
D03*
X1201520Y710026D02*
D03*
X1173965Y710128D02*
D03*
X1166299Y710171D02*
D03*
X1170142Y716886D02*
D03*
X1166342Y723478D02*
D03*
X1173749Y723564D02*
D03*
X987254Y650773D02*
D03*
X1067963Y656679D02*
D03*
X1117176Y625183D02*
D03*
X1058412Y630328D02*
D03*
X992650Y655660D02*
D03*
X1067796Y662753D02*
D03*
X1068329Y669472D02*
D03*
X1068131Y675857D02*
D03*
X1068159Y682080D02*
D03*
X1137545Y615172D02*
D03*
X1143614D02*
D03*
X1151766D02*
D03*
X1158817D02*
D03*
X1166730Y615201D02*
D03*
X1173507D02*
D03*
X1170791Y622791D02*
D03*
X1068247Y631382D02*
D03*
X1086632Y689496D02*
D03*
X1080916Y689463D02*
D03*
X1070499Y688143D02*
D03*
X1072798Y616303D02*
D03*
X1078788Y615988D02*
D03*
X1084120Y615714D02*
D03*
X1089686Y615675D02*
D03*
X1094360Y615797D02*
D03*
X1099782Y615836D02*
D03*
X1105547Y615945D02*
D03*
X1110981Y615673D02*
D03*
X1116220Y615828D02*
D03*
X1130061Y616013D02*
D03*
X1123303Y615936D02*
D03*
X1127088Y615897D02*
D03*
X1132494Y616051D02*
D03*
X1180758Y616852D02*
D03*
X1185800Y623537D02*
D03*
X1185654Y634907D02*
D03*
X1185393Y644630D02*
D03*
X1185803Y656395D02*
D03*
X1185618Y668267D02*
D03*
X1185563Y678391D02*
D03*
X1185514Y685083D02*
D03*
X1177998Y688899D02*
D03*
X1165168Y688861D02*
D03*
X1155696Y689352D02*
D03*
X1144499Y689324D02*
D03*
X1135344Y689217D02*
D03*
X1127216Y689596D02*
D03*
X1121747Y689444D02*
D03*
X1115822Y689672D02*
D03*
X1105567Y689520D02*
D03*
X1098578Y689368D02*
D03*
X1093261Y689596D02*
D03*
X959906Y652960D02*
D03*
X965070Y653002D02*
D03*
X951610Y653045D02*
D03*
X944799Y704306D02*
D03*
X941722Y700844D02*
D03*
X941595Y692706D02*
D03*
X941545Y686437D02*
D03*
X941512Y674841D02*
D03*
X941413Y668801D02*
D03*
X942552Y654693D02*
D03*
X970665Y652701D02*
D03*
X976029Y652972D02*
D03*
X982043Y652917D02*
D03*
X993593Y664483D02*
D03*
Y669879D02*
D03*
X993642Y674687D02*
D03*
X993624Y689684D02*
D03*
X989987Y703878D02*
D03*
X976028Y704700D02*
D03*
X967112Y704876D02*
D03*
X958138Y704993D02*
D03*
X1128526Y631963D02*
D03*
X1128370Y629168D02*
D03*
X1125050Y629120D02*
D03*
X1034910Y626272D02*
D03*
X1133606Y631961D02*
D03*
X1136876Y631932D02*
D03*
X1135329Y630735D02*
D03*
X1137022Y629392D02*
D03*
X1133460Y629363D02*
D03*
X1124936Y632078D02*
D03*
X1126658Y630560D02*
D03*
X1132178Y641731D02*
D03*
X1126344Y649609D02*
D03*
X1127817Y651406D02*
D03*
X1124942Y651442D02*
D03*
X1131879Y646266D02*
D03*
X1068055Y616050D02*
D03*
X1052163Y616931D02*
D03*
X1042292Y617335D02*
D03*
X1028531Y626196D02*
D03*
X1136861Y625183D02*
D03*
X1166199Y630285D02*
D03*
X1043764Y646221D02*
D03*
X1161558Y670580D02*
D03*
X985255Y652863D02*
D03*
X993669Y696488D02*
D03*
X941756Y661167D02*
D03*
X949641Y705090D02*
D03*
X1057100Y646589D02*
D03*
X991739Y614305D02*
D03*
X1032792Y613842D02*
D03*
X1044557Y613669D02*
D03*
X1123877Y660682D02*
D03*
X1151102Y622303D02*
D03*
X1060487Y692357D02*
D03*
X1048773Y695459D02*
D03*
X1004971Y631088D02*
D03*
X1019325Y694026D02*
D03*
X1029041Y698052D02*
D03*
X1226771Y666100D02*
D03*
X1226604Y660986D02*
D03*
Y655927D02*
D03*
X1226544Y646279D02*
D03*
X1226665Y636188D02*
D03*
X1043522Y706830D02*
D03*
X1024426Y707230D02*
D03*
X1024448Y716363D02*
D03*
X1072598Y633660D02*
D03*
X1121026Y631535D02*
D03*
X985089Y639376D02*
D03*
X959892D02*
D03*
X1059656Y643843D02*
D03*
X1150640Y652742D02*
D03*
Y656679D02*
D03*
X1108679Y681581D02*
D03*
X1090867Y684084D02*
D03*
X1092316Y673784D02*
D03*
X1087648Y711797D02*
D03*
Y717702D02*
D03*
X1088731Y714750D02*
D03*
X1101428Y711797D02*
D03*
X1100345Y714750D02*
D03*
X1101428Y717702D02*
D03*
X1129066Y705632D02*
D03*
X1133150Y709821D02*
D03*
X1208646Y703612D02*
D03*
X1211697Y703513D02*
D03*
X1214551Y703612D02*
D03*
Y691800D02*
D03*
X1179519Y642408D02*
D03*
X1181152Y660616D02*
D03*
Y664553D02*
D03*
X1148183Y670396D02*
D03*
X1061613Y641824D02*
D03*
X1142129Y622255D02*
D03*
X1049082Y646246D02*
D03*
X1014579Y616272D02*
D03*
X1025422Y616181D02*
D03*
X1179587Y634562D02*
D03*
X1118993Y724394D02*
D03*
X1007975Y680740D02*
D03*
X1007924Y683253D02*
D03*
X1007998Y685612D02*
D03*
X1191032Y667413D02*
D03*
X1010315Y698055D02*
D03*
X1016398Y671304D02*
D03*
X1018141Y667550D02*
D03*
X1174261Y667326D02*
D03*
X1161467Y622230D02*
D03*
X1178199Y645852D02*
D03*
X948146Y633654D02*
D03*
X946002Y634507D02*
D03*
X962109Y631088D02*
D03*
X1018712Y650858D02*
D03*
X1080026Y626499D02*
D03*
X1047193Y629367D02*
D03*
X1061144Y631299D02*
D03*
X1196226Y655946D02*
D03*
X1191979Y676364D02*
D03*
Y664553D02*
D03*
X999072Y683911D02*
D03*
X998277Y678301D02*
D03*
X1073868Y656679D02*
D03*
X1075837Y658647D02*
D03*
X1015621Y691361D02*
D03*
X1050073Y630211D02*
D03*
X1022687Y660616D02*
D03*
X1044310Y627615D02*
D03*
X1134704Y651399D02*
D03*
X1134969Y637860D02*
D03*
X1079774Y623214D02*
D03*
X1025458Y630044D02*
D03*
X1028432Y630151D02*
D03*
X1034695Y630282D02*
D03*
X1047192Y626449D02*
D03*
X1037586Y626713D02*
D03*
X1009496Y660438D02*
D03*
X1005557Y659886D02*
D03*
X1037584Y631170D02*
D03*
X1153101Y628627D02*
D03*
X1131570Y716317D02*
D03*
X1072630Y662031D02*
D03*
X981939Y639376D02*
D03*
X963042D02*
D03*
X1170295Y694267D02*
D03*
X1034336Y643346D02*
D03*
X1029493Y643119D02*
D03*
X1002924Y616315D02*
D03*
X1010317Y613701D02*
D03*
X1160483Y678332D02*
D03*
Y676364D02*
D03*
X1162451D02*
D03*
X1092594Y667028D02*
D03*
X1135848Y715488D02*
D03*
X1117976Y715955D02*
D03*
X1132715Y706199D02*
D03*
X1105443Y711707D02*
D03*
X1105609Y714904D02*
D03*
X1014366Y659960D02*
D03*
X1015371Y634064D02*
D03*
X1005729Y669567D02*
D03*
X1154648Y667693D02*
D03*
X1170325Y682269D02*
D03*
X1190979Y671511D02*
D03*
X1196274Y681193D02*
D03*
X999235Y686580D02*
D03*
X999409Y689545D02*
D03*
X1006558Y693913D02*
D03*
X1032991Y715909D02*
D03*
X1004971Y644868D02*
D03*
X1012845D02*
D03*
Y650773D02*
D03*
X1004971D02*
D03*
X1008908Y647821D02*
D03*
X1091585Y640931D02*
D03*
X1085680D02*
D03*
Y646836D02*
D03*
X1091585D02*
D03*
X1103396Y640931D02*
D03*
X1097491D02*
D03*
X1103396Y646836D02*
D03*
X1097491D02*
D03*
X1103396Y652742D02*
D03*
X1097491D02*
D03*
Y658647D02*
D03*
X1103396D02*
D03*
X1091585Y652742D02*
D03*
X1085680D02*
D03*
X1091585Y658647D02*
D03*
X1085680D02*
D03*
X1094538Y649986D02*
D03*
X1081742Y666521D02*
D03*
X1079774Y664553D02*
D03*
X1075837Y654710D02*
D03*
X1073868Y652742D02*
D03*
Y648805D02*
D03*
X1163384Y650568D02*
D03*
X1163430Y653522D02*
D03*
X1102301Y679323D02*
D03*
X1115241Y698952D02*
D03*
X1113261Y704606D02*
D03*
X1152285Y642602D02*
D03*
X1169341Y634041D02*
D03*
X1162451Y678332D02*
D03*
X1122206Y673956D02*
D03*
M02*
