G04*
G04 #@! TF.GenerationSoftware,Altium Limited,Altium Designer,23.0.1 (38)*
G04*
G04 Layer_Color=65535*
%FSLAX25Y25*%
%MOIN*%
G70*
G04*
G04 #@! TF.SameCoordinates,19342238-8E0C-4B0D-84B5-E67248FCF62E*
G04*
G04*
G04 #@! TF.FilePolarity,Positive*
G04*
G01*
G75*
%ADD10C,0.00787*%
%ADD11C,0.00394*%
%ADD12C,0.00600*%
%ADD13C,0.00984*%
%ADD14C,0.01575*%
%ADD15C,0.00500*%
%ADD16C,0.00984*%
%ADD17C,0.00800*%
%ADD18C,0.00394*%
G36*
X976775Y720775D02*
X976517D01*
Y720757D01*
X976397D01*
Y720740D01*
X976328D01*
Y720723D01*
X976242D01*
Y720706D01*
X976191D01*
Y720689D01*
X976139D01*
Y720672D01*
X976087D01*
Y720654D01*
X976036D01*
Y720637D01*
X975984D01*
Y720620D01*
X975950D01*
Y720603D01*
X975916D01*
Y720585D01*
X975881D01*
Y720568D01*
X975847D01*
Y720551D01*
X975812D01*
Y720534D01*
X975778D01*
Y720517D01*
X975743D01*
Y720500D01*
X975709D01*
Y720482D01*
X975692D01*
Y720465D01*
X975657D01*
Y720448D01*
X975623D01*
Y720431D01*
X975606D01*
Y720414D01*
X975589D01*
Y720396D01*
X975554D01*
Y720379D01*
X975537D01*
Y720362D01*
X975503D01*
Y720345D01*
X975486D01*
Y720328D01*
X975468D01*
Y720310D01*
X975451D01*
Y720293D01*
X975434D01*
Y720276D01*
X975399D01*
Y720259D01*
X975382D01*
Y720242D01*
X975365D01*
Y720224D01*
X975348D01*
Y720207D01*
X975331D01*
Y720190D01*
X975313D01*
Y720173D01*
X975296D01*
Y720156D01*
X975279D01*
Y720138D01*
X975262D01*
Y720121D01*
X975245D01*
Y720104D01*
X975228D01*
Y720087D01*
X975210D01*
Y720070D01*
X975193D01*
Y720035D01*
X975176D01*
Y720018D01*
X975159D01*
Y720001D01*
X975142D01*
Y719984D01*
X975124D01*
Y719949D01*
X975107D01*
Y719932D01*
X975090D01*
Y719915D01*
X975073D01*
Y719880D01*
X975056D01*
Y719863D01*
X975038D01*
Y719829D01*
X975021D01*
Y719812D01*
X975004D01*
Y719777D01*
X974987D01*
Y719760D01*
X974970D01*
Y719726D01*
X974952D01*
Y719691D01*
X974935D01*
Y719657D01*
X974918D01*
Y719622D01*
X974901D01*
Y719588D01*
X974884D01*
Y719554D01*
X974866D01*
Y719519D01*
X974849D01*
Y719468D01*
X974832D01*
Y719433D01*
X974815D01*
Y719382D01*
X974798D01*
Y719330D01*
X974780D01*
Y719261D01*
X974763D01*
Y719210D01*
X974746D01*
Y719124D01*
X974729D01*
Y719038D01*
X974712D01*
Y718917D01*
X974694D01*
Y718694D01*
X973301D01*
Y718952D01*
X973318D01*
Y719124D01*
X973336D01*
Y719244D01*
X973353D01*
Y719347D01*
X973370D01*
Y719433D01*
X973387D01*
Y719519D01*
X973404D01*
Y719588D01*
X973422D01*
Y719640D01*
X973439D01*
Y719708D01*
X973456D01*
Y719760D01*
X973473D01*
Y719812D01*
X973490D01*
Y719863D01*
X973508D01*
Y719915D01*
X973525D01*
Y719949D01*
X973542D01*
Y720001D01*
X973559D01*
Y720035D01*
X973576D01*
Y720087D01*
X973594D01*
Y720121D01*
X973611D01*
Y720156D01*
X973628D01*
Y720190D01*
X973645D01*
Y720224D01*
X973662D01*
Y720259D01*
X973680D01*
Y720293D01*
X973697D01*
Y720328D01*
X973714D01*
Y720362D01*
X973731D01*
Y720396D01*
X973748D01*
Y720431D01*
X973766D01*
Y720448D01*
X973783D01*
Y720482D01*
X973800D01*
Y720517D01*
X973817D01*
Y720534D01*
X973834D01*
Y720568D01*
X973852D01*
Y720585D01*
X973869D01*
Y720620D01*
X973886D01*
Y720637D01*
X973903D01*
Y720654D01*
Y720672D01*
X973920D01*
Y720689D01*
X973938D01*
Y720723D01*
X973955D01*
Y720740D01*
X973972D01*
Y720775D01*
X973989D01*
Y720792D01*
X974006D01*
Y720809D01*
X974024D01*
Y720826D01*
X974041D01*
Y720861D01*
X974058D01*
Y720878D01*
X974075D01*
Y720895D01*
X974092D01*
Y720912D01*
X974110D01*
Y720947D01*
X974127D01*
Y720964D01*
X974144D01*
Y720981D01*
X974161D01*
Y720998D01*
X974178D01*
Y721016D01*
X974196D01*
Y721033D01*
X974213D01*
Y721050D01*
X974230D01*
Y721084D01*
X974247D01*
Y721102D01*
X974264D01*
Y721119D01*
X974282D01*
Y721136D01*
X974299D01*
Y721153D01*
X974316D01*
Y721170D01*
X974333D01*
Y721187D01*
X974350D01*
Y721205D01*
X974368D01*
Y721222D01*
X974385D01*
Y721239D01*
X974419D01*
Y721256D01*
X974436D01*
Y721274D01*
X974454D01*
Y721291D01*
X974471D01*
Y721308D01*
X974488D01*
Y721325D01*
X974505D01*
Y721342D01*
X974522D01*
Y721359D01*
X974540D01*
Y721377D01*
X974574D01*
Y721394D01*
X974591D01*
Y721411D01*
X974608D01*
Y721428D01*
X974626D01*
Y721446D01*
X974660D01*
Y721463D01*
X974677D01*
Y721480D01*
X974694D01*
Y721497D01*
X974729D01*
Y721514D01*
X974746D01*
Y721531D01*
X974763D01*
Y721549D01*
X974798D01*
Y721566D01*
X974815D01*
Y721583D01*
X974849D01*
Y721600D01*
X974866D01*
Y721618D01*
X974901D01*
Y721635D01*
X974935D01*
Y721652D01*
X974952D01*
Y721669D01*
X974987D01*
Y721686D01*
X975004D01*
Y721703D01*
X975038D01*
Y721721D01*
X975073D01*
Y721738D01*
X975107D01*
Y721755D01*
X975142D01*
Y721772D01*
X975159D01*
Y721790D01*
X975193D01*
Y721807D01*
X975228D01*
Y721824D01*
X975262D01*
Y721841D01*
X975313D01*
Y721858D01*
X975348D01*
Y721875D01*
X975382D01*
Y721893D01*
X975417D01*
Y721910D01*
X975468D01*
Y721927D01*
X975503D01*
Y721944D01*
X975554D01*
Y721961D01*
X975589D01*
Y721979D01*
X975640D01*
Y721996D01*
X975692D01*
Y722013D01*
X975743D01*
Y722030D01*
X975812D01*
Y722048D01*
X975864D01*
Y722065D01*
X975933D01*
Y722082D01*
X976019D01*
Y722099D01*
X976087D01*
Y722116D01*
X976191D01*
Y722133D01*
X976311D01*
Y722151D01*
X976466D01*
Y722168D01*
X976775D01*
Y720775D01*
D02*
G37*
G36*
Y723561D02*
X976483D01*
Y723544D01*
X976277D01*
Y723527D01*
X976139D01*
Y723509D01*
X976019D01*
Y723492D01*
X975916D01*
Y723475D01*
X975830D01*
Y723458D01*
X975743D01*
Y723441D01*
X975657D01*
Y723423D01*
X975589D01*
Y723406D01*
X975520D01*
Y723389D01*
X975468D01*
Y723372D01*
X975399D01*
Y723355D01*
X975348D01*
Y723337D01*
X975296D01*
Y723320D01*
X975245D01*
Y723303D01*
X975193D01*
Y723286D01*
X975142D01*
Y723269D01*
X975090D01*
Y723251D01*
X975038D01*
Y723234D01*
X975004D01*
Y723217D01*
X974952D01*
Y723200D01*
X974918D01*
Y723183D01*
X974884D01*
Y723165D01*
X974832D01*
Y723148D01*
X974798D01*
Y723131D01*
X974763D01*
Y723114D01*
X974729D01*
Y723097D01*
X974677D01*
Y723079D01*
X974643D01*
Y723062D01*
X974608D01*
Y723045D01*
X974574D01*
Y723028D01*
X974540D01*
Y723011D01*
X974505D01*
Y722993D01*
X974488D01*
Y722976D01*
X974454D01*
Y722959D01*
X974419D01*
Y722942D01*
X974385D01*
Y722925D01*
X974350D01*
Y722907D01*
X974333D01*
Y722890D01*
X974299D01*
Y722873D01*
X974264D01*
Y722856D01*
X974247D01*
Y722839D01*
X974213D01*
Y722821D01*
X974178D01*
Y722804D01*
X974161D01*
Y722787D01*
X974127D01*
Y722770D01*
X974110D01*
Y722753D01*
X974075D01*
Y722735D01*
X974058D01*
Y722718D01*
X974024D01*
Y722701D01*
X974006D01*
Y722684D01*
X973972D01*
Y722667D01*
X973955D01*
Y722649D01*
X973938D01*
Y722632D01*
X973903D01*
Y722615D01*
X973886D01*
Y722598D01*
X973869D01*
Y722581D01*
X973834D01*
Y722563D01*
X973817D01*
Y722546D01*
X973800D01*
Y722529D01*
X973766D01*
Y722512D01*
X973748D01*
Y722495D01*
X973731D01*
Y722477D01*
X973714D01*
Y722460D01*
X973680D01*
Y722443D01*
X973662D01*
Y722426D01*
X973645D01*
Y722409D01*
X973628D01*
Y722391D01*
X973611D01*
Y722374D01*
X973594D01*
Y722357D01*
X973559D01*
Y722340D01*
X973542D01*
Y722323D01*
X973525D01*
Y722305D01*
X973508D01*
Y722288D01*
X973490D01*
Y722271D01*
X973473D01*
Y722254D01*
X973456D01*
Y722237D01*
X973439D01*
Y722219D01*
X973422D01*
Y722202D01*
X973404D01*
Y722185D01*
X973387D01*
Y722168D01*
X973370D01*
Y722151D01*
X973353D01*
Y722133D01*
X973336D01*
Y722116D01*
X973318D01*
Y722099D01*
X973301D01*
Y722082D01*
X973284D01*
Y722065D01*
X973267D01*
Y722048D01*
X973250D01*
Y722030D01*
X973232D01*
Y722013D01*
X973215D01*
Y721996D01*
X973198D01*
Y721979D01*
X973181D01*
Y721961D01*
X973164D01*
Y721944D01*
X973147D01*
Y721927D01*
X973129D01*
Y721910D01*
X973112D01*
Y721875D01*
X973095D01*
Y721858D01*
X973078D01*
Y721841D01*
X973061D01*
Y721824D01*
X973043D01*
Y721807D01*
X973026D01*
Y721790D01*
X973009D01*
Y721755D01*
X972992D01*
Y721738D01*
X972974D01*
Y721721D01*
X972957D01*
Y721703D01*
X972940D01*
Y721669D01*
X972923D01*
Y721652D01*
X972906D01*
Y721635D01*
X972888D01*
Y721600D01*
X972871D01*
Y721583D01*
X972854D01*
Y721566D01*
X972837D01*
Y721531D01*
X972820D01*
Y721514D01*
X972803D01*
Y721480D01*
X972785D01*
Y721463D01*
X972768D01*
Y721446D01*
X972751D01*
Y721411D01*
X972734D01*
Y721394D01*
X972717D01*
Y721359D01*
X972699D01*
Y721342D01*
X972682D01*
Y721308D01*
X972665D01*
Y721274D01*
X972648D01*
Y721256D01*
X972631D01*
Y721222D01*
X972613D01*
Y721205D01*
X972596D01*
Y721170D01*
X972579D01*
Y721136D01*
X972562D01*
Y721102D01*
X972544D01*
Y721084D01*
X972527D01*
Y721050D01*
X972510D01*
Y721016D01*
X972493D01*
Y720981D01*
X972476D01*
Y720947D01*
X972458D01*
Y720912D01*
X972441D01*
Y720878D01*
X972424D01*
Y720844D01*
X972407D01*
Y720809D01*
X972390D01*
Y720775D01*
X972373D01*
Y720740D01*
X972355D01*
Y720706D01*
X972338D01*
Y720672D01*
X972321D01*
Y720620D01*
X972304D01*
Y720585D01*
X972287D01*
Y720551D01*
X972269D01*
Y720500D01*
X972252D01*
Y720465D01*
X972235D01*
Y720414D01*
X972218D01*
Y720362D01*
X972200D01*
Y720328D01*
X972183D01*
Y720276D01*
X972166D01*
Y720224D01*
X972149D01*
Y720173D01*
X972132D01*
Y720104D01*
X972114D01*
Y720052D01*
X972097D01*
Y719984D01*
X972080D01*
Y719932D01*
X972063D01*
Y719863D01*
X972046D01*
Y719794D01*
X972029D01*
Y719708D01*
X972011D01*
Y719622D01*
X971994D01*
Y719536D01*
X971977D01*
Y719433D01*
X971960D01*
Y719296D01*
X971943D01*
Y719141D01*
X971925D01*
Y718883D01*
X971908D01*
Y718694D01*
X970532D01*
Y718900D01*
Y718917D01*
Y719175D01*
X970549D01*
Y719364D01*
X970567D01*
Y719519D01*
X970584D01*
Y719640D01*
X970601D01*
Y719743D01*
X970618D01*
Y719846D01*
X970635D01*
Y719932D01*
X970653D01*
Y720018D01*
X970670D01*
Y720087D01*
X970687D01*
Y720173D01*
X970704D01*
Y720242D01*
X970721D01*
Y720310D01*
X970739D01*
Y720362D01*
X970756D01*
Y720431D01*
X970773D01*
Y720482D01*
X970790D01*
Y720551D01*
X970807D01*
Y720603D01*
X970825D01*
Y720654D01*
X970842D01*
Y720706D01*
X970859D01*
Y720757D01*
X970876D01*
Y720809D01*
X970893D01*
Y720861D01*
X970911D01*
Y720895D01*
X970928D01*
Y720947D01*
X970945D01*
Y720981D01*
X970962D01*
Y721033D01*
X970979D01*
Y721067D01*
X970997D01*
Y721119D01*
X971014D01*
Y721153D01*
X971031D01*
Y721187D01*
X971048D01*
Y721239D01*
X971065D01*
Y721274D01*
X971083D01*
Y721308D01*
X971100D01*
Y721342D01*
X971117D01*
Y721377D01*
X971134D01*
Y721411D01*
X971151D01*
Y721463D01*
X971169D01*
Y721497D01*
X971186D01*
Y721531D01*
X971203D01*
Y721549D01*
X971220D01*
Y721583D01*
X971237D01*
Y721618D01*
X971255D01*
Y721652D01*
X971272D01*
Y721686D01*
X971289D01*
Y721721D01*
X971306D01*
Y721755D01*
X971323D01*
Y721772D01*
X971341D01*
Y721807D01*
X971358D01*
Y721841D01*
X971375D01*
Y721875D01*
X971392D01*
Y721893D01*
X971409D01*
Y721927D01*
X971427D01*
Y721961D01*
X971444D01*
Y721979D01*
X971461D01*
Y722013D01*
X971478D01*
Y722030D01*
X971495D01*
Y722065D01*
X971513D01*
Y722099D01*
X971530D01*
Y722116D01*
X971547D01*
Y722151D01*
X971564D01*
Y722168D01*
X971581D01*
Y722202D01*
X971599D01*
Y722219D01*
X971616D01*
Y722254D01*
X971633D01*
Y722271D01*
X971650D01*
Y722288D01*
X971667D01*
Y722323D01*
X971684D01*
Y722340D01*
X971702D01*
Y722374D01*
X971719D01*
Y722391D01*
X971736D01*
Y722409D01*
X971753D01*
Y722443D01*
X971770D01*
Y722460D01*
X971788D01*
Y722477D01*
X971805D01*
Y722512D01*
X971822D01*
Y722529D01*
X971839D01*
Y722546D01*
X971856D01*
Y722581D01*
X971874D01*
Y722598D01*
X971891D01*
Y722615D01*
X971908D01*
Y722632D01*
X971925D01*
Y722667D01*
X971943D01*
Y722684D01*
X971960D01*
Y722701D01*
X971977D01*
Y722718D01*
X971994D01*
Y722735D01*
X972011D01*
Y722770D01*
X972029D01*
Y722787D01*
X972046D01*
Y722804D01*
X972063D01*
Y722821D01*
X972080D01*
Y722839D01*
X972097D01*
Y722856D01*
X972114D01*
Y722873D01*
X972132D01*
Y722890D01*
X972149D01*
Y722925D01*
X972166D01*
Y722942D01*
X972183D01*
Y722959D01*
X972200D01*
Y722976D01*
X972218D01*
Y722993D01*
X972235D01*
Y723011D01*
X972252D01*
Y723028D01*
X972269D01*
Y723045D01*
X972287D01*
Y723062D01*
X972304D01*
Y723079D01*
X972321D01*
Y723097D01*
X972338D01*
Y723114D01*
X972355D01*
Y723131D01*
X972373D01*
Y723148D01*
X972390D01*
Y723165D01*
X972407D01*
Y723183D01*
X972424D01*
Y723200D01*
X972441D01*
Y723217D01*
X972458D01*
Y723234D01*
X972476D01*
Y723251D01*
X972493D01*
Y723269D01*
X972510D01*
Y723286D01*
X972527D01*
Y723303D01*
X972544D01*
Y723320D01*
X972562D01*
Y723337D01*
X972596D01*
Y723355D01*
X972613D01*
Y723372D01*
X972631D01*
Y723389D01*
X972648D01*
Y723406D01*
X972665D01*
Y723423D01*
X972682D01*
Y723441D01*
X972699D01*
Y723458D01*
X972734D01*
Y723475D01*
X972751D01*
Y723492D01*
X972768D01*
Y723509D01*
X972785D01*
Y723527D01*
X972803D01*
Y723544D01*
X972837D01*
Y723561D01*
X972854D01*
Y723578D01*
X972871D01*
Y723595D01*
X972888D01*
Y723613D01*
X972923D01*
Y723630D01*
X972940D01*
Y723647D01*
X972957D01*
Y723664D01*
X972974D01*
Y723681D01*
X973009D01*
Y723699D01*
X973026D01*
Y723716D01*
X973043D01*
Y723733D01*
X973078D01*
Y723750D01*
X973095D01*
Y723767D01*
X973129D01*
Y723785D01*
X973147D01*
Y723802D01*
X973164D01*
Y723819D01*
X973198D01*
Y723836D01*
X973215D01*
Y723853D01*
X973250D01*
Y723871D01*
X973267D01*
Y723888D01*
X973301D01*
Y723905D01*
X973318D01*
Y723922D01*
X973353D01*
Y723939D01*
X973370D01*
Y723956D01*
X973404D01*
Y723974D01*
X973422D01*
Y723991D01*
X973456D01*
Y724008D01*
X973490D01*
Y724025D01*
X973508D01*
Y724043D01*
X973542D01*
Y724060D01*
X973559D01*
Y724077D01*
X973594D01*
Y724094D01*
X973628D01*
Y724111D01*
X973662D01*
Y724128D01*
X973680D01*
Y724146D01*
X973714D01*
Y724163D01*
X973748D01*
Y724180D01*
X973783D01*
Y724197D01*
X973817D01*
Y724215D01*
X973834D01*
Y724232D01*
X973869D01*
Y724249D01*
X973903D01*
Y724266D01*
X973938D01*
Y724283D01*
X973972D01*
Y724300D01*
X974006D01*
Y724318D01*
X974041D01*
Y724335D01*
X974075D01*
Y724352D01*
X974110D01*
Y724369D01*
X974161D01*
Y724387D01*
X974196D01*
Y724404D01*
X974230D01*
Y724421D01*
X974264D01*
Y724438D01*
X974299D01*
Y724455D01*
X974350D01*
Y724473D01*
X974385D01*
Y724490D01*
X974436D01*
Y724507D01*
X974471D01*
Y724524D01*
X974522D01*
Y724541D01*
X974557D01*
Y724558D01*
X974608D01*
Y724576D01*
X974660D01*
Y724593D01*
X974694D01*
Y724610D01*
X974746D01*
Y724627D01*
X974798D01*
Y724645D01*
X974849D01*
Y724662D01*
X974918D01*
Y724679D01*
X974970D01*
Y724696D01*
X975021D01*
Y724713D01*
X975090D01*
Y724730D01*
X975142D01*
Y724748D01*
X975210D01*
Y724765D01*
X975279D01*
Y724782D01*
X975348D01*
Y724799D01*
X975434D01*
Y724817D01*
X975520D01*
Y724834D01*
X975606D01*
Y724851D01*
X975692D01*
Y724868D01*
X975795D01*
Y724885D01*
X975916D01*
Y724902D01*
X976053D01*
Y724920D01*
X976242D01*
Y724937D01*
X976517D01*
Y724954D01*
X976775D01*
Y723561D01*
D02*
G37*
G36*
X977429Y719192D02*
X977532D01*
Y719175D01*
X977601D01*
Y719158D01*
X977653D01*
Y719141D01*
X977687D01*
Y719124D01*
X977721D01*
Y719106D01*
X977756D01*
Y719089D01*
X977790D01*
Y719072D01*
X977825D01*
Y719055D01*
X977842D01*
Y719038D01*
X977876D01*
Y719020D01*
X977893D01*
Y719003D01*
X977928D01*
Y718986D01*
X977945D01*
Y718969D01*
X977962D01*
Y718952D01*
X977979D01*
Y718934D01*
X977997D01*
Y718917D01*
X978014D01*
Y718900D01*
X978031D01*
Y718883D01*
X978048D01*
Y718866D01*
X978065D01*
Y718848D01*
X978083D01*
Y718831D01*
X978100D01*
Y718797D01*
X978117D01*
Y718780D01*
X978134D01*
Y718762D01*
X978151D01*
Y718728D01*
X978169D01*
Y718711D01*
X978186D01*
Y718677D01*
X978203D01*
Y718642D01*
X978220D01*
Y718608D01*
X978237D01*
Y718573D01*
X978255D01*
Y718522D01*
X978272D01*
Y718470D01*
X978289D01*
Y718401D01*
X978306D01*
Y718281D01*
X978323D01*
Y718075D01*
X978306D01*
Y717954D01*
X978289D01*
Y717885D01*
X978272D01*
Y717834D01*
X978255D01*
Y717782D01*
X978237D01*
Y717748D01*
X978220D01*
Y717713D01*
X978203D01*
Y717679D01*
X978186D01*
Y717645D01*
X978169D01*
Y717627D01*
X978151D01*
Y717593D01*
X978134D01*
Y717576D01*
X978117D01*
Y717558D01*
X978100D01*
Y717524D01*
X978083D01*
Y717507D01*
X978065D01*
Y717490D01*
X978048D01*
Y717473D01*
X978031D01*
Y717455D01*
X978014D01*
Y717438D01*
X977997D01*
Y717421D01*
X977979D01*
Y717404D01*
X977962D01*
Y717386D01*
X977945D01*
Y717369D01*
X977928D01*
Y717352D01*
X977893D01*
Y717335D01*
X977876D01*
Y717318D01*
X977842D01*
Y717301D01*
X977825D01*
Y717283D01*
X977790D01*
Y717266D01*
X977756D01*
Y717249D01*
X977721D01*
Y717232D01*
X977687D01*
Y717214D01*
X977653D01*
Y717197D01*
X977601D01*
Y717180D01*
X977532D01*
Y717163D01*
X977429D01*
Y717146D01*
X977137D01*
Y717163D01*
X977033D01*
Y717180D01*
X976965D01*
Y717197D01*
X976930D01*
Y717214D01*
X976879D01*
Y717232D01*
X976844D01*
Y717249D01*
X976810D01*
Y717266D01*
X976775D01*
Y717283D01*
X976741D01*
Y717301D01*
X976724D01*
Y717318D01*
X976690D01*
Y717335D01*
X976672D01*
Y717352D01*
X976655D01*
Y717369D01*
X976638D01*
Y717386D01*
X976604D01*
Y717404D01*
X976586D01*
Y717421D01*
X976569D01*
Y717438D01*
X976552D01*
Y717455D01*
X976535D01*
Y717473D01*
X976517D01*
Y717490D01*
X976500D01*
Y717507D01*
X976483D01*
Y717541D01*
X976466D01*
Y717558D01*
X976449D01*
Y717576D01*
X976431D01*
Y717610D01*
X976414D01*
Y717627D01*
X976397D01*
Y717662D01*
X976380D01*
Y717696D01*
X976363D01*
Y717731D01*
X976346D01*
Y717765D01*
X976328D01*
Y717799D01*
X976311D01*
Y717851D01*
X976294D01*
Y717903D01*
X976277D01*
Y717988D01*
X976260D01*
Y718384D01*
X976277D01*
Y718453D01*
X976294D01*
Y718522D01*
X976311D01*
Y718556D01*
X976328D01*
Y718590D01*
X976346D01*
Y718642D01*
X976363D01*
Y718659D01*
X976380D01*
Y718694D01*
X976397D01*
Y718728D01*
X976414D01*
Y718745D01*
X976431D01*
Y718780D01*
X976449D01*
Y718797D01*
X976466D01*
Y718814D01*
X976483D01*
Y718848D01*
X976500D01*
Y718866D01*
X976517D01*
Y718883D01*
X976535D01*
Y718900D01*
X976552D01*
Y718917D01*
X976569D01*
Y718934D01*
X976586D01*
Y718952D01*
X976604D01*
Y718969D01*
X976638D01*
Y718986D01*
X976655D01*
Y719003D01*
X976672D01*
Y719020D01*
X976690D01*
Y719038D01*
X976724D01*
Y719055D01*
X976741D01*
Y719072D01*
X976775D01*
Y719089D01*
X976810D01*
Y719106D01*
X976844D01*
Y719124D01*
X976879D01*
Y719141D01*
X976930D01*
Y719158D01*
X976982D01*
Y719175D01*
X977033D01*
Y719192D01*
X977137D01*
Y719210D01*
X977429D01*
Y719192D01*
D02*
G37*
G36*
X961847Y719158D02*
X962053D01*
Y719141D01*
X962191D01*
Y719124D01*
X962311D01*
Y719106D01*
X962414D01*
Y719089D01*
X962518D01*
Y719072D01*
X962603D01*
Y719055D01*
X962672D01*
Y719038D01*
X962741D01*
Y719020D01*
X962827D01*
Y719003D01*
X962879D01*
Y718986D01*
X962947D01*
Y718969D01*
X963016D01*
Y718952D01*
X963068D01*
Y718934D01*
X963119D01*
Y718917D01*
X963188D01*
Y718900D01*
X963240D01*
Y718883D01*
X963291D01*
Y718866D01*
X963343D01*
Y718848D01*
X963395D01*
Y718831D01*
X963446D01*
Y718814D01*
X963481D01*
Y718797D01*
X963532D01*
Y718780D01*
X963584D01*
Y718762D01*
X963618D01*
Y718745D01*
X963670D01*
Y718728D01*
X963704D01*
Y718711D01*
X963756D01*
Y718694D01*
X963790D01*
Y718677D01*
X963842D01*
Y718659D01*
X963876D01*
Y718642D01*
X963911D01*
Y718625D01*
X963945D01*
Y718608D01*
X963962D01*
Y716544D01*
X963945D01*
Y716561D01*
X963928D01*
Y716578D01*
X963893D01*
Y716595D01*
X963859D01*
Y716613D01*
X963825D01*
Y716630D01*
X963807D01*
Y716647D01*
X963773D01*
Y716664D01*
X963739D01*
Y716681D01*
X963704D01*
Y716699D01*
X963687D01*
Y716716D01*
X963653D01*
Y716733D01*
X963618D01*
Y716750D01*
X963584D01*
Y716767D01*
X963549D01*
Y716785D01*
X963515D01*
Y716802D01*
X963481D01*
Y716819D01*
X963446D01*
Y716836D01*
X963412D01*
Y716853D01*
X963377D01*
Y716871D01*
X963343D01*
Y716888D01*
X963309D01*
Y716905D01*
X963274D01*
Y716922D01*
X963240D01*
Y716939D01*
X963205D01*
Y716957D01*
X963171D01*
Y716974D01*
X963137D01*
Y716991D01*
X963085D01*
Y717008D01*
X963051D01*
Y717025D01*
X963016D01*
Y717042D01*
X962965D01*
Y717060D01*
X962930D01*
Y717077D01*
X962879D01*
Y717094D01*
X962844D01*
Y717111D01*
X962793D01*
Y717129D01*
X962741D01*
Y717146D01*
X962689D01*
Y717163D01*
X962638D01*
Y717180D01*
X962586D01*
Y717197D01*
X962535D01*
Y717214D01*
X962483D01*
Y717232D01*
X962414D01*
Y717249D01*
X962363D01*
Y717266D01*
X962294D01*
Y717283D01*
X962208D01*
Y717301D01*
X962139D01*
Y717318D01*
X962036D01*
Y717335D01*
X961933D01*
Y717352D01*
X961761D01*
Y717369D01*
X961348D01*
Y717352D01*
X961193D01*
Y717335D01*
X961090D01*
Y717318D01*
X961004D01*
Y717301D01*
X960935D01*
Y717283D01*
X960866D01*
Y717266D01*
X960815D01*
Y717249D01*
X960763D01*
Y717232D01*
X960712D01*
Y717214D01*
X960660D01*
Y717197D01*
X960626D01*
Y717180D01*
X960591D01*
Y717163D01*
X960557D01*
Y717146D01*
X960522D01*
Y717129D01*
X960488D01*
Y717111D01*
X960454D01*
Y717094D01*
X960419D01*
Y717077D01*
X960385D01*
Y717060D01*
X960368D01*
Y717042D01*
X960333D01*
Y717025D01*
X960316D01*
Y717008D01*
X960282D01*
Y716991D01*
X960264D01*
Y716974D01*
X960247D01*
Y716957D01*
X960213D01*
Y716939D01*
X960196D01*
Y716922D01*
X960178D01*
Y716905D01*
X960144D01*
Y716888D01*
X960127D01*
Y716871D01*
X960110D01*
Y716853D01*
X960092D01*
Y716836D01*
X960075D01*
Y716819D01*
X960058D01*
Y716802D01*
X960041D01*
Y716785D01*
X960024D01*
Y716767D01*
X960006D01*
Y716750D01*
X959989D01*
Y716733D01*
X959972D01*
Y716716D01*
X959955D01*
Y716699D01*
X959938D01*
Y716681D01*
X959920D01*
Y716664D01*
X959903D01*
Y716647D01*
X959886D01*
Y716630D01*
X959869D01*
Y716595D01*
X959852D01*
Y716578D01*
X959834D01*
Y716561D01*
X959817D01*
Y716544D01*
X959800D01*
Y716509D01*
X959783D01*
Y716492D01*
X959766D01*
Y716458D01*
X959748D01*
Y716441D01*
X959731D01*
Y716423D01*
X959714D01*
Y716389D01*
X959697D01*
Y716355D01*
X959680D01*
Y716337D01*
X959662D01*
Y716303D01*
X959645D01*
Y716269D01*
X959628D01*
Y716234D01*
X959611D01*
Y716217D01*
X959594D01*
Y716183D01*
X959576D01*
Y716148D01*
X959559D01*
Y716097D01*
X959542D01*
Y716062D01*
X959525D01*
Y716028D01*
X959508D01*
Y715976D01*
X959490D01*
Y715942D01*
X959473D01*
Y715890D01*
X959456D01*
Y715839D01*
X959439D01*
Y715787D01*
X959422D01*
Y715735D01*
X959404D01*
Y715667D01*
X959387D01*
Y715598D01*
X959370D01*
Y715529D01*
X959353D01*
Y715443D01*
X959336D01*
Y715340D01*
X959319D01*
Y715202D01*
X959301D01*
Y715013D01*
X959284D01*
Y714514D01*
X959301D01*
Y714325D01*
X959319D01*
Y714205D01*
X959336D01*
Y714102D01*
X959353D01*
Y714033D01*
X959370D01*
Y713964D01*
X959387D01*
Y713895D01*
X959404D01*
Y713826D01*
X959422D01*
Y713775D01*
X959439D01*
Y713723D01*
X959456D01*
Y713689D01*
X959473D01*
Y713637D01*
X959490D01*
Y713603D01*
X959508D01*
Y713551D01*
X959525D01*
Y713517D01*
X959542D01*
Y713482D01*
X959559D01*
Y713448D01*
X959576D01*
Y713414D01*
X959594D01*
Y713379D01*
X959611D01*
Y713362D01*
X959628D01*
Y713328D01*
X959645D01*
Y713293D01*
X959662D01*
Y713276D01*
X959680D01*
Y713242D01*
X959697D01*
Y713224D01*
X959714D01*
Y713190D01*
X959731D01*
Y713173D01*
X959748D01*
Y713138D01*
X959766D01*
Y713121D01*
X959783D01*
Y713104D01*
X959800D01*
Y713070D01*
X959817D01*
Y713052D01*
X959834D01*
Y713035D01*
X959852D01*
Y713018D01*
X959869D01*
Y713001D01*
X959886D01*
Y712984D01*
X959903D01*
Y712949D01*
X959920D01*
Y712932D01*
X959938D01*
Y712915D01*
X959955D01*
Y712898D01*
X959972D01*
Y712880D01*
X959989D01*
Y712863D01*
X960006D01*
Y712846D01*
X960024D01*
Y712829D01*
X960058D01*
Y712812D01*
X960075D01*
Y712794D01*
X960092D01*
Y712777D01*
X960110D01*
Y712760D01*
X960127D01*
Y712743D01*
X960144D01*
Y712726D01*
X960178D01*
Y712708D01*
X960196D01*
Y712691D01*
X960213D01*
Y712674D01*
X960247D01*
Y712657D01*
X960264D01*
Y712640D01*
X960282D01*
Y712622D01*
X960316D01*
Y712605D01*
X960350D01*
Y712588D01*
X960368D01*
Y712571D01*
X960402D01*
Y712554D01*
X960436D01*
Y712536D01*
X960454D01*
Y712519D01*
X960488D01*
Y712502D01*
X960522D01*
Y712485D01*
X960557D01*
Y712468D01*
X960591D01*
Y712450D01*
X960643D01*
Y712433D01*
X960677D01*
Y712416D01*
X960729D01*
Y712399D01*
X960780D01*
Y712382D01*
X960815D01*
Y712364D01*
X960884D01*
Y712347D01*
X960935D01*
Y712330D01*
X961004D01*
Y712313D01*
X961073D01*
Y712296D01*
X961176D01*
Y712278D01*
X961279D01*
Y712261D01*
X961451D01*
Y712244D01*
X961881D01*
Y712261D01*
X962036D01*
Y712278D01*
X962139D01*
Y712296D01*
X962242D01*
Y712313D01*
X962311D01*
Y712330D01*
X962380D01*
Y712347D01*
X962449D01*
Y712364D01*
X962518D01*
Y712382D01*
X962569D01*
Y712399D01*
X962638D01*
Y712416D01*
X962689D01*
Y712433D01*
X962741D01*
Y712450D01*
X962793D01*
Y712468D01*
X962827D01*
Y712485D01*
X962879D01*
Y712502D01*
X962930D01*
Y712519D01*
X962965D01*
Y712536D01*
X963016D01*
Y712554D01*
X963051D01*
Y712571D01*
X963102D01*
Y712588D01*
X963137D01*
Y712605D01*
X963171D01*
Y712622D01*
X963223D01*
Y712640D01*
X963257D01*
Y712657D01*
X963291D01*
Y712674D01*
X963326D01*
Y712691D01*
X963360D01*
Y712708D01*
X963395D01*
Y712726D01*
X963429D01*
Y712743D01*
X963463D01*
Y712760D01*
X963498D01*
Y712777D01*
X963532D01*
Y712794D01*
X963567D01*
Y712812D01*
X963601D01*
Y712829D01*
X963635D01*
Y712846D01*
X963670D01*
Y712863D01*
X963704D01*
Y712880D01*
X963739D01*
Y712898D01*
X963773D01*
Y712915D01*
X963790D01*
Y712932D01*
X963825D01*
Y712949D01*
X963859D01*
Y712966D01*
X963893D01*
Y712984D01*
X963911D01*
Y713001D01*
X963945D01*
Y713018D01*
X963962D01*
Y710954D01*
X963945D01*
Y710937D01*
X963893D01*
Y710920D01*
X963842D01*
Y710903D01*
X963790D01*
Y710885D01*
X963739D01*
Y710868D01*
X963687D01*
Y710851D01*
X963635D01*
Y710834D01*
X963567D01*
Y710816D01*
X963515D01*
Y710799D01*
X963463D01*
Y710782D01*
X963395D01*
Y710765D01*
X963343D01*
Y710748D01*
X963274D01*
Y710731D01*
X963205D01*
Y710713D01*
X963137D01*
Y710696D01*
X963085D01*
Y710679D01*
X963016D01*
Y710662D01*
X962947D01*
Y710644D01*
X962862D01*
Y710627D01*
X962793D01*
Y710610D01*
X962707D01*
Y710593D01*
X962638D01*
Y710576D01*
X962535D01*
Y710559D01*
X962449D01*
Y710541D01*
X962346D01*
Y710524D01*
X962242D01*
Y710507D01*
X962122D01*
Y710490D01*
X961967D01*
Y710472D01*
X961761D01*
Y710455D01*
X961193D01*
Y710472D01*
X960987D01*
Y710490D01*
X960849D01*
Y710507D01*
X960746D01*
Y710524D01*
X960660D01*
Y710541D01*
X960574D01*
Y710559D01*
X960505D01*
Y710576D01*
X960436D01*
Y710593D01*
X960368D01*
Y710610D01*
X960299D01*
Y710627D01*
X960247D01*
Y710644D01*
X960196D01*
Y710662D01*
X960144D01*
Y710679D01*
X960092D01*
Y710696D01*
X960058D01*
Y710713D01*
X960006D01*
Y710731D01*
X959972D01*
Y710748D01*
X959920D01*
Y710765D01*
X959886D01*
Y710782D01*
X959852D01*
Y710799D01*
X959800D01*
Y710816D01*
X959766D01*
Y710834D01*
X959731D01*
Y710851D01*
X959697D01*
Y710868D01*
X959662D01*
Y710885D01*
X959628D01*
Y710903D01*
X959611D01*
Y710920D01*
X959576D01*
Y710937D01*
X959542D01*
Y710954D01*
X959508D01*
Y710971D01*
X959473D01*
Y710989D01*
X959456D01*
Y711006D01*
X959422D01*
Y711023D01*
X959404D01*
Y711040D01*
X959370D01*
Y711057D01*
X959336D01*
Y711074D01*
X959319D01*
Y711092D01*
X959284D01*
Y711109D01*
X959267D01*
Y711126D01*
X959233D01*
Y711143D01*
X959215D01*
Y711161D01*
X959198D01*
Y711178D01*
X959164D01*
Y711195D01*
X959146D01*
Y711212D01*
X959129D01*
Y711229D01*
X959095D01*
Y711246D01*
X959078D01*
Y711264D01*
X959060D01*
Y711281D01*
X959026D01*
Y711298D01*
X959009D01*
Y711315D01*
X958992D01*
Y711333D01*
X958974D01*
Y711350D01*
X958940D01*
Y711367D01*
X958923D01*
Y711384D01*
X958906D01*
Y711401D01*
X958889D01*
Y711418D01*
X958871D01*
Y711436D01*
X958854D01*
Y711453D01*
X958837D01*
Y711470D01*
X958803D01*
Y711487D01*
X958785D01*
Y711505D01*
X958768D01*
Y711522D01*
X958751D01*
Y711539D01*
X958734D01*
Y711556D01*
X958716D01*
Y711573D01*
X958699D01*
Y711590D01*
X958682D01*
Y711608D01*
X958665D01*
Y711625D01*
X958648D01*
Y711642D01*
X958630D01*
Y711659D01*
X958613D01*
Y711677D01*
X958596D01*
Y711694D01*
X958579D01*
Y711711D01*
X958562D01*
Y711728D01*
X958545D01*
Y711745D01*
X958527D01*
Y711762D01*
X958510D01*
Y711780D01*
X958493D01*
Y711814D01*
X958476D01*
Y711831D01*
X958459D01*
Y711848D01*
X958441D01*
Y711866D01*
X958424D01*
Y711883D01*
X958407D01*
Y711900D01*
X958390D01*
Y711917D01*
X958372D01*
Y711952D01*
X958355D01*
Y711969D01*
X958338D01*
Y711986D01*
X958321D01*
Y712003D01*
X958304D01*
Y712038D01*
X958286D01*
Y712055D01*
X958269D01*
Y712072D01*
X958252D01*
Y712106D01*
X958235D01*
Y712124D01*
X958218D01*
Y712141D01*
X958200D01*
Y712175D01*
X958183D01*
Y712192D01*
X958166D01*
Y712210D01*
X958149D01*
Y712244D01*
X958132D01*
Y712261D01*
X958115D01*
Y712296D01*
X958097D01*
Y712313D01*
X958080D01*
Y712347D01*
X958063D01*
Y712364D01*
X958046D01*
Y712399D01*
X958029D01*
Y712416D01*
X958011D01*
Y712450D01*
X957994D01*
Y712485D01*
X957977D01*
Y712502D01*
X957960D01*
Y712536D01*
X957942D01*
Y712571D01*
X957925D01*
Y712605D01*
X957908D01*
Y712622D01*
X957891D01*
Y712657D01*
X957874D01*
Y712691D01*
X957857D01*
Y712726D01*
X957839D01*
Y712760D01*
X957822D01*
Y712794D01*
X957805D01*
Y712829D01*
X957788D01*
Y712863D01*
X957771D01*
Y712898D01*
X957753D01*
Y712949D01*
X957736D01*
Y712984D01*
X957719D01*
Y713018D01*
X957702D01*
Y713070D01*
X957685D01*
Y713104D01*
X957667D01*
Y713156D01*
X957650D01*
Y713207D01*
X957633D01*
Y713242D01*
X957616D01*
Y713293D01*
X957599D01*
Y713345D01*
X957581D01*
Y713414D01*
X957564D01*
Y713465D01*
X957547D01*
Y713534D01*
X957530D01*
Y713586D01*
X957513D01*
Y713671D01*
X957495D01*
Y713740D01*
X957478D01*
Y713826D01*
X957461D01*
Y713912D01*
X957444D01*
Y714015D01*
X957427D01*
Y714153D01*
X957409D01*
Y714308D01*
X957392D01*
Y714583D01*
X957375D01*
Y714979D01*
X957392D01*
Y715254D01*
X957409D01*
Y715426D01*
X957427D01*
Y715546D01*
X957444D01*
Y715649D01*
X957461D01*
Y715753D01*
X957478D01*
Y715821D01*
X957495D01*
Y715907D01*
X957513D01*
Y715976D01*
X957530D01*
Y716045D01*
X957547D01*
Y716097D01*
X957564D01*
Y716165D01*
X957581D01*
Y716217D01*
X957599D01*
Y716269D01*
X957616D01*
Y716320D01*
X957633D01*
Y716372D01*
X957650D01*
Y716423D01*
X957667D01*
Y716458D01*
X957685D01*
Y716509D01*
X957702D01*
Y716544D01*
X957719D01*
Y716595D01*
X957736D01*
Y716630D01*
X957753D01*
Y716664D01*
X957771D01*
Y716716D01*
X957788D01*
Y716750D01*
X957805D01*
Y716785D01*
X957822D01*
Y716819D01*
X957839D01*
Y716853D01*
X957857D01*
Y716888D01*
X957874D01*
Y716922D01*
X957891D01*
Y716957D01*
X957908D01*
Y716974D01*
X957925D01*
Y717008D01*
X957942D01*
Y717042D01*
X957960D01*
Y717077D01*
X957977D01*
Y717094D01*
X957994D01*
Y717129D01*
X958011D01*
Y717163D01*
X958029D01*
Y717180D01*
X958046D01*
Y717214D01*
X958063D01*
Y717232D01*
X958080D01*
Y717266D01*
X958097D01*
Y717283D01*
X958115D01*
Y717318D01*
X958132D01*
Y717335D01*
X958149D01*
Y717369D01*
X958166D01*
Y717386D01*
X958183D01*
Y717421D01*
X958200D01*
Y717438D01*
X958218D01*
Y717455D01*
X958235D01*
Y717490D01*
X958252D01*
Y717507D01*
X958269D01*
Y717524D01*
X958286D01*
Y717558D01*
X958304D01*
Y717576D01*
X958321D01*
Y717593D01*
X958338D01*
Y717610D01*
X958355D01*
Y717645D01*
X958372D01*
Y717662D01*
X958390D01*
Y717679D01*
X958407D01*
Y717696D01*
X958424D01*
Y717713D01*
X958441D01*
Y717748D01*
X958459D01*
Y717765D01*
X958476D01*
Y717782D01*
X958493D01*
Y717799D01*
X958510D01*
Y717816D01*
X958527D01*
Y717834D01*
X958545D01*
Y717851D01*
X958562D01*
Y717868D01*
X958579D01*
Y717885D01*
X958596D01*
Y717903D01*
X958613D01*
Y717920D01*
X958630D01*
Y717954D01*
X958648D01*
Y717971D01*
X958665D01*
Y717988D01*
X958682D01*
Y718006D01*
X958699D01*
Y718023D01*
X958716D01*
Y718040D01*
X958751D01*
Y718057D01*
X958768D01*
Y718075D01*
X958785D01*
Y718092D01*
X958803D01*
Y718109D01*
X958820D01*
Y718126D01*
X958837D01*
Y718143D01*
X958854D01*
Y718160D01*
X958871D01*
Y718178D01*
X958889D01*
Y718195D01*
X958906D01*
Y718212D01*
X958940D01*
Y718229D01*
X958957D01*
Y718247D01*
X958974D01*
Y718264D01*
X958992D01*
Y718281D01*
X959009D01*
Y718298D01*
X959043D01*
Y718315D01*
X959060D01*
Y718332D01*
X959078D01*
Y718350D01*
X959095D01*
Y718367D01*
X959129D01*
Y718384D01*
X959146D01*
Y718401D01*
X959164D01*
Y718419D01*
X959198D01*
Y718436D01*
X959215D01*
Y718453D01*
X959233D01*
Y718470D01*
X959267D01*
Y718487D01*
X959284D01*
Y718504D01*
X959319D01*
Y718522D01*
X959336D01*
Y718539D01*
X959370D01*
Y718556D01*
X959387D01*
Y718573D01*
X959422D01*
Y718590D01*
X959456D01*
Y718608D01*
X959473D01*
Y718625D01*
X959508D01*
Y718642D01*
X959542D01*
Y718659D01*
X959559D01*
Y718677D01*
X959594D01*
Y718694D01*
X959628D01*
Y718711D01*
X959662D01*
Y718728D01*
X959697D01*
Y718745D01*
X959731D01*
Y718762D01*
X959766D01*
Y718780D01*
X959800D01*
Y718797D01*
X959834D01*
Y718814D01*
X959869D01*
Y718831D01*
X959903D01*
Y718848D01*
X959938D01*
Y718866D01*
X959989D01*
Y718883D01*
X960024D01*
Y718900D01*
X960075D01*
Y718917D01*
X960110D01*
Y718934D01*
X960161D01*
Y718952D01*
X960213D01*
Y718969D01*
X960264D01*
Y718986D01*
X960316D01*
Y719003D01*
X960368D01*
Y719020D01*
X960436D01*
Y719038D01*
X960488D01*
Y719055D01*
X960557D01*
Y719072D01*
X960643D01*
Y719089D01*
X960729D01*
Y719106D01*
X960815D01*
Y719124D01*
X960935D01*
Y719141D01*
X961073D01*
Y719158D01*
X961262D01*
Y719175D01*
X961847D01*
Y719158D01*
D02*
G37*
G36*
X975210Y716183D02*
X975331D01*
Y714377D01*
X975245D01*
Y714394D01*
X975090D01*
Y714411D01*
X974780D01*
Y714394D01*
X974660D01*
Y714377D01*
X974591D01*
Y714360D01*
X974540D01*
Y714342D01*
X974505D01*
Y714325D01*
X974454D01*
Y714308D01*
X974419D01*
Y714291D01*
X974385D01*
Y714274D01*
X974368D01*
Y714256D01*
X974333D01*
Y714239D01*
X974316D01*
Y714222D01*
X974282D01*
Y714205D01*
X974264D01*
Y714187D01*
X974247D01*
Y714170D01*
X974230D01*
Y714153D01*
X974213D01*
Y714136D01*
X974196D01*
Y714119D01*
X974178D01*
Y714102D01*
X974161D01*
Y714084D01*
X974144D01*
Y714067D01*
X974127D01*
Y714033D01*
X974110D01*
Y714015D01*
X974092D01*
Y713998D01*
X974075D01*
Y713964D01*
X974058D01*
Y713947D01*
X974041D01*
Y713912D01*
X974024D01*
Y713878D01*
X974006D01*
Y713843D01*
X973989D01*
Y713809D01*
X973972D01*
Y713758D01*
X973955D01*
Y713723D01*
X973938D01*
Y713671D01*
X973920D01*
Y713603D01*
X973903D01*
Y713534D01*
X973886D01*
Y713448D01*
X973869D01*
Y713328D01*
X973852D01*
Y711677D01*
Y711659D01*
Y710576D01*
X972166D01*
Y716131D01*
X973817D01*
Y715305D01*
X973852D01*
Y715340D01*
X973869D01*
Y715357D01*
X973886D01*
Y715391D01*
X973903D01*
Y715426D01*
X973920D01*
Y715443D01*
X973938D01*
Y715477D01*
X973955D01*
Y715495D01*
X973972D01*
Y715512D01*
X973989D01*
Y715546D01*
X974006D01*
Y715563D01*
X974024D01*
Y715581D01*
X974041D01*
Y715615D01*
X974058D01*
Y715632D01*
X974075D01*
Y715649D01*
X974092D01*
Y715667D01*
X974110D01*
Y715684D01*
X974127D01*
Y715701D01*
X974144D01*
Y715718D01*
X974161D01*
Y715753D01*
X974178D01*
Y715770D01*
X974196D01*
Y715787D01*
X974213D01*
Y715804D01*
X974230D01*
Y715821D01*
X974264D01*
Y715839D01*
X974282D01*
Y715856D01*
X974299D01*
Y715873D01*
X974316D01*
Y715890D01*
X974333D01*
Y715907D01*
X974350D01*
Y715925D01*
X974385D01*
Y715942D01*
X974402D01*
Y715959D01*
X974419D01*
Y715976D01*
X974454D01*
Y715993D01*
X974471D01*
Y716011D01*
X974505D01*
Y716028D01*
X974522D01*
Y716045D01*
X974557D01*
Y716062D01*
X974591D01*
Y716079D01*
X974608D01*
Y716097D01*
X974643D01*
Y716114D01*
X974677D01*
Y716131D01*
X974729D01*
Y716148D01*
X974763D01*
Y716165D01*
X974832D01*
Y716183D01*
X974901D01*
Y716200D01*
X975210D01*
Y716183D01*
D02*
G37*
G36*
X978117Y710576D02*
X976466D01*
Y716131D01*
X978117D01*
Y710576D01*
D02*
G37*
G36*
X967471Y716217D02*
X967608D01*
Y716200D01*
X967694D01*
Y716183D01*
X967780D01*
Y716165D01*
X967832D01*
Y716148D01*
X967884D01*
Y716131D01*
X967935D01*
Y716114D01*
X967970D01*
Y716097D01*
X968021D01*
Y716079D01*
X968056D01*
Y716062D01*
X968090D01*
Y716045D01*
X968124D01*
Y716028D01*
X968159D01*
Y716011D01*
X968176D01*
Y715993D01*
X968210D01*
Y715976D01*
X968245D01*
Y715959D01*
X968262D01*
Y715942D01*
X968296D01*
Y715925D01*
X968314D01*
Y715907D01*
X968348D01*
Y715890D01*
X968365D01*
Y715873D01*
X968400D01*
Y715856D01*
X968417D01*
Y715839D01*
X968434D01*
Y715821D01*
X968468D01*
Y715804D01*
X968486D01*
Y715787D01*
X968503D01*
Y715770D01*
X968520D01*
Y715753D01*
X968554D01*
Y715735D01*
X968571D01*
Y715718D01*
X968589D01*
Y715701D01*
X968606D01*
Y715684D01*
X968623D01*
Y715667D01*
X968640D01*
Y715649D01*
X968657D01*
Y715632D01*
X968692D01*
Y715615D01*
X968709D01*
Y715598D01*
X968726D01*
Y715581D01*
X968744D01*
Y715563D01*
X968761D01*
Y715546D01*
X968778D01*
Y715529D01*
X968795D01*
Y715512D01*
X968812D01*
Y715495D01*
X968830D01*
Y715477D01*
X968847D01*
Y715460D01*
X968864D01*
Y715443D01*
X968881D01*
Y715426D01*
X968898D01*
Y715409D01*
X968915D01*
Y715391D01*
X968933D01*
Y715374D01*
X968950D01*
Y716131D01*
X970601D01*
Y711092D01*
Y711074D01*
Y710576D01*
X968950D01*
Y711522D01*
X968915D01*
Y711505D01*
X968898D01*
Y711470D01*
X968881D01*
Y711453D01*
X968864D01*
Y711418D01*
X968847D01*
Y711401D01*
X968830D01*
Y711384D01*
X968812D01*
Y711350D01*
X968795D01*
Y711333D01*
X968778D01*
Y711315D01*
X968761D01*
Y711298D01*
X968744D01*
Y711264D01*
X968726D01*
Y711246D01*
X968709D01*
Y711229D01*
X968692D01*
Y711212D01*
X968675D01*
Y711195D01*
X968657D01*
Y711161D01*
X968640D01*
Y711143D01*
X968623D01*
Y711126D01*
X968606D01*
Y711109D01*
X968589D01*
Y711092D01*
X968571D01*
Y711074D01*
X968554D01*
Y711057D01*
X968537D01*
Y711040D01*
X968520D01*
Y711023D01*
X968503D01*
Y711006D01*
X968486D01*
Y710989D01*
X968468D01*
Y710971D01*
X968451D01*
Y710954D01*
X968434D01*
Y710937D01*
X968417D01*
Y710920D01*
X968400D01*
Y710903D01*
X968382D01*
Y710885D01*
X968348D01*
Y710868D01*
X968331D01*
Y710851D01*
X968314D01*
Y710834D01*
X968296D01*
Y710816D01*
X968262D01*
Y710799D01*
X968245D01*
Y710782D01*
X968227D01*
Y710765D01*
X968193D01*
Y710748D01*
X968176D01*
Y710731D01*
X968141D01*
Y710713D01*
X968124D01*
Y710696D01*
X968090D01*
Y710679D01*
X968056D01*
Y710662D01*
X968021D01*
Y710644D01*
X967987D01*
Y710627D01*
X967952D01*
Y710610D01*
X967918D01*
Y710593D01*
X967866D01*
Y710576D01*
X967815D01*
Y710559D01*
X967763D01*
Y710541D01*
X967694D01*
Y710524D01*
X967626D01*
Y710507D01*
X967522D01*
Y710490D01*
X967385D01*
Y710472D01*
X966955D01*
Y710490D01*
X966817D01*
Y710507D01*
X966731D01*
Y710524D01*
X966662D01*
Y710541D01*
X966594D01*
Y710559D01*
X966542D01*
Y710576D01*
X966490D01*
Y710593D01*
X966439D01*
Y710610D01*
X966387D01*
Y710627D01*
X966353D01*
Y710644D01*
X966319D01*
Y710662D01*
X966284D01*
Y710679D01*
X966250D01*
Y710696D01*
X966215D01*
Y710713D01*
X966181D01*
Y710731D01*
X966146D01*
Y710748D01*
X966129D01*
Y710765D01*
X966095D01*
Y710782D01*
X966061D01*
Y710799D01*
X966043D01*
Y710816D01*
X966026D01*
Y710834D01*
X965992D01*
Y710851D01*
X965975D01*
Y710868D01*
X965940D01*
Y710885D01*
X965923D01*
Y710903D01*
X965906D01*
Y710920D01*
X965889D01*
Y710937D01*
X965854D01*
Y710954D01*
X965837D01*
Y710971D01*
X965820D01*
Y710989D01*
X965802D01*
Y711006D01*
X965785D01*
Y711023D01*
X965768D01*
Y711040D01*
X965751D01*
Y711057D01*
X965734D01*
Y711074D01*
X965699D01*
Y711092D01*
X965682D01*
Y711109D01*
X965665D01*
Y711143D01*
X965648D01*
Y711161D01*
X965631D01*
Y711178D01*
X965613D01*
Y711195D01*
X965596D01*
Y711212D01*
X965579D01*
Y711229D01*
X965562D01*
Y711246D01*
X965545D01*
Y711264D01*
X965527D01*
Y711298D01*
X965510D01*
Y711315D01*
X965493D01*
Y711333D01*
X965476D01*
Y711350D01*
X965458D01*
Y711384D01*
X965441D01*
Y711401D01*
X965424D01*
Y711418D01*
X965407D01*
Y711453D01*
X965390D01*
Y711470D01*
X965372D01*
Y711487D01*
X965355D01*
Y711522D01*
X965338D01*
Y711539D01*
X965321D01*
Y711573D01*
X965304D01*
Y711590D01*
X965287D01*
Y711625D01*
X965269D01*
Y711659D01*
X965252D01*
Y711677D01*
X965235D01*
Y711711D01*
X965218D01*
Y711745D01*
X965201D01*
Y711780D01*
X965183D01*
Y711814D01*
X965166D01*
Y711831D01*
X965149D01*
Y711866D01*
X965132D01*
Y711900D01*
X965114D01*
Y711952D01*
X965097D01*
Y711986D01*
X965080D01*
Y712020D01*
X965063D01*
Y712072D01*
X965046D01*
Y712106D01*
X965028D01*
Y712158D01*
X965011D01*
Y712192D01*
X964994D01*
Y712244D01*
X964977D01*
Y712296D01*
X964960D01*
Y712364D01*
X964942D01*
Y712416D01*
X964925D01*
Y712485D01*
X964908D01*
Y712571D01*
X964891D01*
Y712657D01*
X964874D01*
Y712743D01*
X964857D01*
Y712880D01*
X964839D01*
Y713052D01*
X964822D01*
Y713637D01*
X964839D01*
Y713809D01*
X964857D01*
Y713930D01*
X964874D01*
Y714015D01*
X964891D01*
Y714102D01*
X964908D01*
Y714170D01*
X964925D01*
Y714239D01*
X964942D01*
Y714308D01*
X964960D01*
Y714360D01*
X964977D01*
Y714411D01*
X964994D01*
Y714463D01*
X965011D01*
Y714514D01*
X965028D01*
Y714549D01*
X965046D01*
Y714600D01*
X965063D01*
Y714635D01*
X965080D01*
Y714669D01*
X965097D01*
Y714704D01*
X965114D01*
Y714738D01*
X965132D01*
Y714772D01*
X965149D01*
Y714807D01*
X965166D01*
Y714841D01*
X965183D01*
Y714876D01*
X965201D01*
Y714910D01*
X965218D01*
Y714944D01*
X965235D01*
Y714961D01*
X965252D01*
Y714996D01*
X965269D01*
Y715030D01*
X965287D01*
Y715048D01*
X965304D01*
Y715082D01*
X965321D01*
Y715099D01*
X965338D01*
Y715133D01*
X965355D01*
Y715151D01*
X965372D01*
Y715168D01*
X965390D01*
Y715202D01*
X965407D01*
Y715219D01*
X965424D01*
Y715254D01*
X965441D01*
Y715271D01*
X965458D01*
Y715288D01*
X965476D01*
Y715305D01*
X965493D01*
Y715340D01*
X965510D01*
Y715357D01*
X965527D01*
Y715374D01*
X965545D01*
Y715391D01*
X965562D01*
Y715409D01*
X965579D01*
Y715426D01*
X965596D01*
Y715460D01*
X965613D01*
Y715477D01*
X965631D01*
Y715495D01*
X965648D01*
Y715512D01*
X965665D01*
Y715529D01*
X965682D01*
Y715546D01*
X965699D01*
Y715563D01*
X965716D01*
Y715581D01*
X965734D01*
Y715598D01*
X965751D01*
Y715615D01*
X965768D01*
Y715632D01*
X965785D01*
Y715649D01*
X965802D01*
Y715667D01*
X965837D01*
Y715684D01*
X965854D01*
Y715701D01*
X965871D01*
Y715718D01*
X965889D01*
Y715735D01*
X965906D01*
Y715753D01*
X965940D01*
Y715770D01*
X965957D01*
Y715787D01*
X965975D01*
Y715804D01*
X965992D01*
Y715821D01*
X966026D01*
Y715839D01*
X966043D01*
Y715856D01*
X966078D01*
Y715873D01*
X966095D01*
Y715890D01*
X966129D01*
Y715907D01*
X966146D01*
Y715925D01*
X966181D01*
Y715942D01*
X966215D01*
Y715959D01*
X966232D01*
Y715976D01*
X966267D01*
Y715993D01*
X966301D01*
Y716011D01*
X966336D01*
Y716028D01*
X966370D01*
Y716045D01*
X966404D01*
Y716062D01*
X966456D01*
Y716079D01*
X966490D01*
Y716097D01*
X966542D01*
Y716114D01*
X966576D01*
Y716131D01*
X966628D01*
Y716148D01*
X966697D01*
Y716165D01*
X966766D01*
Y716183D01*
X966834D01*
Y716200D01*
X966938D01*
Y716217D01*
X967075D01*
Y716234D01*
X967471D01*
Y716217D01*
D02*
G37*
G36*
X998326Y722890D02*
X998412D01*
Y722873D01*
X998481D01*
Y722856D01*
X998532D01*
Y722839D01*
X998584D01*
Y722821D01*
X998635D01*
Y722804D01*
X998670D01*
Y722787D01*
X998721D01*
Y722770D01*
X998756D01*
Y722753D01*
X998790D01*
Y722735D01*
X998825D01*
Y722718D01*
X998859D01*
Y722701D01*
X998893D01*
Y722684D01*
X998911D01*
Y722667D01*
X998945D01*
Y722649D01*
X998979D01*
Y722632D01*
X998997D01*
Y722615D01*
X999031D01*
Y722598D01*
X999048D01*
Y722581D01*
X999083D01*
Y722563D01*
X999100D01*
Y722546D01*
X999134D01*
Y722529D01*
X999151D01*
Y722512D01*
X999186D01*
Y722495D01*
X999203D01*
Y722477D01*
X999220D01*
Y722460D01*
X999255D01*
Y722443D01*
X999272D01*
Y722426D01*
X999289D01*
Y722409D01*
X999323D01*
Y722374D01*
X999289D01*
Y722357D01*
X999272D01*
Y722340D01*
X999255D01*
Y722323D01*
X999237D01*
Y722305D01*
X999220D01*
Y722288D01*
X999186D01*
Y722271D01*
X999168D01*
Y722254D01*
X999151D01*
Y722237D01*
X999134D01*
Y722219D01*
X999117D01*
Y722202D01*
X999083D01*
Y722185D01*
X999065D01*
Y722168D01*
X999048D01*
Y722151D01*
X999031D01*
Y722133D01*
X999014D01*
Y722116D01*
X998979D01*
Y722099D01*
X998962D01*
Y722082D01*
X998945D01*
Y722065D01*
X998928D01*
Y722048D01*
X998911D01*
Y722030D01*
X998876D01*
Y722013D01*
X998859D01*
Y721996D01*
X998842D01*
Y721979D01*
X998825D01*
Y721961D01*
X998790D01*
Y721979D01*
X998756D01*
Y721996D01*
X998739D01*
Y722013D01*
X998704D01*
Y722030D01*
X998687D01*
Y722048D01*
X998653D01*
Y722065D01*
X998618D01*
Y722082D01*
X998601D01*
Y722099D01*
X998567D01*
Y722116D01*
X998532D01*
Y722133D01*
X998498D01*
Y722151D01*
X998463D01*
Y722168D01*
X998429D01*
Y722185D01*
X998377D01*
Y722202D01*
X998326D01*
Y722219D01*
X998205D01*
Y722237D01*
X997999D01*
Y722219D01*
X997896D01*
Y722202D01*
X997844D01*
Y722185D01*
X997810D01*
Y722168D01*
X997775D01*
Y722151D01*
X997741D01*
Y722133D01*
X997724D01*
Y722116D01*
X997707D01*
Y722099D01*
X997689D01*
Y722065D01*
X997672D01*
Y722030D01*
X997655D01*
Y721961D01*
X997638D01*
Y721875D01*
X997655D01*
Y721824D01*
X997672D01*
Y721790D01*
X997689D01*
Y721772D01*
X997707D01*
Y721738D01*
X997724D01*
Y721721D01*
X997741D01*
Y721703D01*
X997775D01*
Y721686D01*
X997793D01*
Y721669D01*
X997810D01*
Y721652D01*
X997844D01*
Y721635D01*
X997861D01*
Y721618D01*
X997896D01*
Y721600D01*
X997930D01*
Y721583D01*
X997965D01*
Y721566D01*
X997999D01*
Y721549D01*
X998033D01*
Y721531D01*
X998068D01*
Y721514D01*
X998102D01*
Y721497D01*
X998154D01*
Y721480D01*
X998188D01*
Y721463D01*
X998240D01*
Y721446D01*
X998291D01*
Y721428D01*
X998326D01*
Y721411D01*
X998377D01*
Y721394D01*
X998412D01*
Y721377D01*
X998463D01*
Y721359D01*
X998498D01*
Y721342D01*
X998532D01*
Y721325D01*
X998567D01*
Y721308D01*
X998601D01*
Y721291D01*
X998635D01*
Y721274D01*
X998670D01*
Y721256D01*
X998704D01*
Y721239D01*
X998739D01*
Y721222D01*
X998773D01*
Y721205D01*
X998807D01*
Y721187D01*
X998825D01*
Y721170D01*
X998859D01*
Y721153D01*
X998876D01*
Y721136D01*
X998911D01*
Y721119D01*
X998928D01*
Y721102D01*
X998962D01*
Y721084D01*
X998979D01*
Y721067D01*
X998997D01*
Y721050D01*
X999014D01*
Y721033D01*
X999048D01*
Y721016D01*
X999065D01*
Y720998D01*
X999083D01*
Y720981D01*
X999100D01*
Y720964D01*
X999117D01*
Y720947D01*
X999134D01*
Y720929D01*
X999151D01*
Y720895D01*
X999168D01*
Y720878D01*
X999186D01*
Y720861D01*
X999203D01*
Y720826D01*
X999220D01*
Y720809D01*
X999237D01*
Y720775D01*
X999255D01*
Y720740D01*
X999272D01*
Y720706D01*
X999289D01*
Y720672D01*
X999306D01*
Y720620D01*
X999323D01*
Y720568D01*
X999341D01*
Y720500D01*
X999358D01*
Y720156D01*
X999341D01*
Y720070D01*
X999323D01*
Y720018D01*
X999306D01*
Y719966D01*
X999289D01*
Y719932D01*
X999272D01*
Y719898D01*
X999255D01*
Y719863D01*
X999237D01*
Y719829D01*
X999220D01*
Y719812D01*
X999203D01*
Y719777D01*
X999186D01*
Y719760D01*
X999168D01*
Y719743D01*
X999151D01*
Y719708D01*
X999134D01*
Y719691D01*
X999117D01*
Y719674D01*
X999100D01*
Y719657D01*
X999083D01*
Y719640D01*
X999065D01*
Y719622D01*
X999048D01*
Y719605D01*
X999031D01*
Y719588D01*
X999014D01*
Y719571D01*
X998997D01*
Y719554D01*
X998979D01*
Y719536D01*
X998962D01*
Y719519D01*
X998928D01*
Y719502D01*
X998911D01*
Y719485D01*
X998893D01*
Y719468D01*
X998859D01*
Y719450D01*
X998842D01*
Y719433D01*
X998807D01*
Y719416D01*
X998790D01*
Y719399D01*
X998756D01*
Y719382D01*
X998721D01*
Y719364D01*
X998687D01*
Y719347D01*
X998653D01*
Y719330D01*
X998618D01*
Y719313D01*
X998567D01*
Y719296D01*
X998515D01*
Y719278D01*
X998463D01*
Y719261D01*
X998395D01*
Y719244D01*
X998291D01*
Y719227D01*
X997896D01*
Y719244D01*
X997775D01*
Y719261D01*
X997707D01*
Y719278D01*
X997638D01*
Y719296D01*
X997586D01*
Y719313D01*
X997552D01*
Y719330D01*
X997500D01*
Y719347D01*
X997466D01*
Y719364D01*
X997431D01*
Y719382D01*
X997397D01*
Y719399D01*
X997363D01*
Y719416D01*
X997328D01*
Y719433D01*
X997294D01*
Y719450D01*
X997277D01*
Y719468D01*
X997242D01*
Y719485D01*
X997225D01*
Y719502D01*
X997208D01*
Y719519D01*
X997174D01*
Y719536D01*
X997156D01*
Y719554D01*
X997139D01*
Y719571D01*
X997122D01*
Y719588D01*
X997087D01*
Y719605D01*
X997070D01*
Y719622D01*
X997053D01*
Y719640D01*
X997036D01*
Y719657D01*
X997019D01*
Y719674D01*
X997001D01*
Y719691D01*
X996984D01*
Y719708D01*
X996967D01*
Y719726D01*
X996950D01*
Y719743D01*
X996933D01*
Y719777D01*
X996916D01*
Y719794D01*
X996898D01*
Y719812D01*
X996881D01*
Y719829D01*
X996864D01*
Y719846D01*
X996847D01*
Y719880D01*
X996830D01*
Y719898D01*
X996812D01*
Y719915D01*
X996830D01*
Y719932D01*
X996864D01*
Y719949D01*
X996916D01*
Y719966D01*
X996950D01*
Y719984D01*
X996984D01*
Y720001D01*
X997019D01*
Y720018D01*
X997053D01*
Y720035D01*
X997105D01*
Y720052D01*
X997139D01*
Y720070D01*
X997174D01*
Y720087D01*
X997208D01*
Y720104D01*
X997242D01*
Y720121D01*
X997277D01*
Y720138D01*
X997328D01*
Y720156D01*
X997363D01*
Y720173D01*
X997397D01*
Y720190D01*
X997431D01*
Y720173D01*
X997466D01*
Y720156D01*
X997483D01*
Y720138D01*
X997500D01*
Y720121D01*
X997517D01*
Y720104D01*
X997552D01*
Y720087D01*
X997569D01*
Y720070D01*
X997603D01*
Y720052D01*
X997621D01*
Y720035D01*
X997655D01*
Y720018D01*
X997689D01*
Y720001D01*
X997724D01*
Y719984D01*
X997758D01*
Y719966D01*
X997793D01*
Y719949D01*
X997844D01*
Y719932D01*
X997896D01*
Y719915D01*
X997999D01*
Y719898D01*
X998188D01*
Y719915D01*
X998291D01*
Y719932D01*
X998343D01*
Y719949D01*
X998395D01*
Y719966D01*
X998429D01*
Y719984D01*
X998463D01*
Y720001D01*
X998481D01*
Y720018D01*
X998515D01*
Y720035D01*
X998532D01*
Y720052D01*
X998567D01*
Y720070D01*
X998584D01*
Y720087D01*
X998601D01*
Y720104D01*
X998618D01*
Y720138D01*
X998635D01*
Y720156D01*
X998653D01*
Y720190D01*
X998670D01*
Y720224D01*
X998687D01*
Y720396D01*
X998670D01*
Y720431D01*
X998653D01*
Y720465D01*
X998635D01*
Y720482D01*
X998618D01*
Y720517D01*
X998601D01*
Y720534D01*
X998584D01*
Y720551D01*
X998567D01*
Y720568D01*
X998549D01*
Y720585D01*
X998515D01*
Y720603D01*
X998498D01*
Y720620D01*
X998481D01*
Y720637D01*
X998446D01*
Y720654D01*
X998429D01*
Y720672D01*
X998395D01*
Y720689D01*
X998360D01*
Y720706D01*
X998326D01*
Y720723D01*
X998291D01*
Y720740D01*
X998257D01*
Y720757D01*
X998223D01*
Y720775D01*
X998188D01*
Y720792D01*
X998137D01*
Y720809D01*
X998102D01*
Y720826D01*
X998051D01*
Y720844D01*
X997999D01*
Y720861D01*
X997965D01*
Y720878D01*
X997913D01*
Y720895D01*
X997861D01*
Y720912D01*
X997827D01*
Y720929D01*
X997793D01*
Y720947D01*
X997741D01*
Y720964D01*
X997707D01*
Y720981D01*
X997672D01*
Y720998D01*
X997638D01*
Y721016D01*
X997603D01*
Y721033D01*
X997569D01*
Y721050D01*
X997535D01*
Y721067D01*
X997500D01*
Y721084D01*
X997466D01*
Y721102D01*
X997449D01*
Y721119D01*
X997414D01*
Y721136D01*
X997380D01*
Y721153D01*
X997363D01*
Y721170D01*
X997328D01*
Y721187D01*
X997311D01*
Y721205D01*
X997294D01*
Y721222D01*
X997260D01*
Y721239D01*
X997242D01*
Y721256D01*
X997225D01*
Y721274D01*
X997208D01*
Y721291D01*
X997191D01*
Y721308D01*
X997174D01*
Y721325D01*
X997156D01*
Y721342D01*
X997139D01*
Y721359D01*
X997122D01*
Y721377D01*
X997105D01*
Y721394D01*
X997087D01*
Y721428D01*
X997070D01*
Y721446D01*
X997053D01*
Y721480D01*
X997036D01*
Y721514D01*
X997019D01*
Y721549D01*
X997001D01*
Y721600D01*
X996984D01*
Y721652D01*
X996967D01*
Y721721D01*
X996950D01*
Y721858D01*
X996933D01*
Y721944D01*
X996950D01*
Y722082D01*
X996967D01*
Y722151D01*
X996984D01*
Y722202D01*
X997001D01*
Y722254D01*
X997019D01*
Y722288D01*
X997036D01*
Y722323D01*
X997053D01*
Y722357D01*
X997070D01*
Y722391D01*
X997087D01*
Y722409D01*
X997105D01*
Y722443D01*
X997122D01*
Y722460D01*
X997139D01*
Y722477D01*
X997156D01*
Y722495D01*
X997174D01*
Y722512D01*
X997191D01*
Y722546D01*
X997208D01*
Y722563D01*
X997242D01*
Y722581D01*
X997260D01*
Y722598D01*
X997277D01*
Y722615D01*
X997294D01*
Y722632D01*
X997311D01*
Y722649D01*
X997328D01*
Y722667D01*
X997363D01*
Y722684D01*
X997380D01*
Y722701D01*
X997414D01*
Y722718D01*
X997431D01*
Y722735D01*
X997466D01*
Y722753D01*
X997500D01*
Y722770D01*
X997535D01*
Y722787D01*
X997569D01*
Y722804D01*
X997603D01*
Y722821D01*
X997655D01*
Y722839D01*
X997707D01*
Y722856D01*
X997775D01*
Y722873D01*
X997844D01*
Y722890D01*
X997947D01*
Y722907D01*
X998326D01*
Y722890D01*
D02*
G37*
G36*
X988918D02*
X989021D01*
Y722873D01*
X989107D01*
Y722856D01*
X989159D01*
Y722839D01*
X989210D01*
Y722821D01*
X989262D01*
Y722804D01*
X989314D01*
Y722787D01*
X989348D01*
Y722770D01*
X989400D01*
Y722753D01*
X989434D01*
Y722735D01*
X989468D01*
Y722718D01*
X989503D01*
Y722701D01*
X989520D01*
Y722684D01*
X989554D01*
Y722667D01*
X989589D01*
Y722649D01*
X989606D01*
Y722632D01*
X989640D01*
Y722615D01*
X989657D01*
Y722598D01*
X989692D01*
Y722581D01*
X989709D01*
Y722563D01*
X989726D01*
Y722546D01*
X989761D01*
Y722529D01*
X989778D01*
Y722512D01*
X989795D01*
Y722495D01*
X989812D01*
Y722477D01*
X989830D01*
Y722460D01*
X989864D01*
Y722443D01*
X989881D01*
Y722426D01*
X989898D01*
Y722409D01*
X989915D01*
Y722391D01*
X989933D01*
Y722374D01*
X989950D01*
Y722340D01*
X989967D01*
Y722323D01*
X989984D01*
Y722305D01*
X990001D01*
Y722288D01*
X990019D01*
Y722271D01*
X990036D01*
Y722237D01*
X990053D01*
Y722219D01*
X990070D01*
Y722202D01*
X990088D01*
Y722168D01*
X990105D01*
Y722151D01*
X990122D01*
Y722116D01*
X990139D01*
Y722804D01*
X990913D01*
Y719330D01*
X990139D01*
Y719984D01*
X990122D01*
Y719966D01*
X990105D01*
Y719949D01*
X990088D01*
Y719915D01*
X990070D01*
Y719898D01*
X990053D01*
Y719880D01*
X990036D01*
Y719863D01*
X990019D01*
Y719829D01*
X990001D01*
Y719812D01*
X989984D01*
Y719794D01*
X989967D01*
Y719777D01*
X989950D01*
Y719760D01*
X989933D01*
Y719743D01*
X989915D01*
Y719726D01*
X989898D01*
Y719708D01*
X989881D01*
Y719691D01*
X989864D01*
Y719674D01*
X989847D01*
Y719657D01*
X989830D01*
Y719640D01*
X989812D01*
Y719622D01*
X989795D01*
Y719605D01*
X989761D01*
Y719588D01*
X989744D01*
Y719571D01*
X989726D01*
Y719554D01*
X989709D01*
Y719536D01*
X989675D01*
Y719519D01*
X989657D01*
Y719502D01*
X989623D01*
Y719485D01*
X989606D01*
Y719468D01*
X989571D01*
Y719450D01*
X989554D01*
Y719433D01*
X989520D01*
Y719416D01*
X989485D01*
Y719399D01*
X989451D01*
Y719382D01*
X989417D01*
Y719364D01*
X989382D01*
Y719347D01*
X989348D01*
Y719330D01*
X989296D01*
Y719313D01*
X989245D01*
Y719296D01*
X989193D01*
Y719278D01*
X989124D01*
Y719261D01*
X989056D01*
Y719244D01*
X988935D01*
Y719227D01*
X988522D01*
Y719244D01*
X988402D01*
Y719261D01*
X988333D01*
Y719278D01*
X988264D01*
Y719296D01*
X988213D01*
Y719313D01*
X988161D01*
Y719330D01*
X988110D01*
Y719347D01*
X988075D01*
Y719364D01*
X988024D01*
Y719382D01*
X987989D01*
Y719399D01*
X987955D01*
Y719416D01*
X987920D01*
Y719433D01*
X987903D01*
Y719450D01*
X987869D01*
Y719468D01*
X987834D01*
Y719485D01*
X987817D01*
Y719502D01*
X987783D01*
Y719519D01*
X987766D01*
Y719536D01*
X987748D01*
Y719554D01*
X987714D01*
Y719571D01*
X987697D01*
Y719588D01*
X987680D01*
Y719605D01*
X987645D01*
Y719622D01*
X987628D01*
Y719640D01*
X987611D01*
Y719657D01*
X987594D01*
Y719674D01*
X987576D01*
Y719691D01*
X987559D01*
Y719708D01*
X987542D01*
Y719726D01*
X987525D01*
Y719743D01*
X987508D01*
Y719760D01*
X987490D01*
Y719777D01*
X987473D01*
Y719794D01*
X987456D01*
Y719812D01*
X987439D01*
Y719829D01*
X987422D01*
Y719846D01*
X987404D01*
Y719880D01*
X987387D01*
Y719898D01*
X987370D01*
Y719915D01*
X987353D01*
Y719932D01*
X987336D01*
Y719966D01*
X987318D01*
Y719984D01*
X987301D01*
Y720018D01*
X987284D01*
Y720035D01*
X987267D01*
Y720070D01*
X987250D01*
Y720087D01*
X987232D01*
Y720121D01*
X987215D01*
Y720156D01*
X987198D01*
Y720190D01*
X987181D01*
Y720224D01*
X987164D01*
Y720259D01*
X987146D01*
Y720293D01*
X987129D01*
Y720328D01*
X987112D01*
Y720379D01*
X987095D01*
Y720414D01*
X987078D01*
Y720465D01*
X987060D01*
Y720534D01*
X987043D01*
Y720585D01*
X987026D01*
Y720672D01*
X987009D01*
Y720775D01*
X986992D01*
Y720912D01*
X986975D01*
Y721239D01*
X986992D01*
Y721274D01*
Y721291D01*
Y721377D01*
X987009D01*
Y721480D01*
X987026D01*
Y721549D01*
X987043D01*
Y721600D01*
X987060D01*
Y721669D01*
X987078D01*
Y721703D01*
X987095D01*
Y721755D01*
X987112D01*
Y721807D01*
X987129D01*
Y721841D01*
X987146D01*
Y721875D01*
X987164D01*
Y721910D01*
X987181D01*
Y721944D01*
X987198D01*
Y721979D01*
X987215D01*
Y721996D01*
X987232D01*
Y722030D01*
X987250D01*
Y722065D01*
X987267D01*
Y722082D01*
X987284D01*
Y722116D01*
X987301D01*
Y722133D01*
X987318D01*
Y722168D01*
X987336D01*
Y722185D01*
X987353D01*
Y722202D01*
X987370D01*
Y722219D01*
X987387D01*
Y722254D01*
X987404D01*
Y722271D01*
X987422D01*
Y722288D01*
X987439D01*
Y722305D01*
X987456D01*
Y722323D01*
X987473D01*
Y722340D01*
X987490D01*
Y722357D01*
X987508D01*
Y722374D01*
X987525D01*
Y722391D01*
X987542D01*
Y722409D01*
X987559D01*
Y722426D01*
X987576D01*
Y722443D01*
X987594D01*
Y722460D01*
X987611D01*
Y722477D01*
X987628D01*
Y722495D01*
X987645D01*
Y722512D01*
X987662D01*
Y722529D01*
X987680D01*
Y722546D01*
X987714D01*
Y722563D01*
X987731D01*
Y722581D01*
X987748D01*
Y722598D01*
X987766D01*
Y722615D01*
X987800D01*
Y722632D01*
X987817D01*
Y722649D01*
X987852D01*
Y722667D01*
X987869D01*
Y722684D01*
X987903D01*
Y722701D01*
X987938D01*
Y722718D01*
X987972D01*
Y722735D01*
X988006D01*
Y722753D01*
X988041D01*
Y722770D01*
X988075D01*
Y722787D01*
X988110D01*
Y722804D01*
X988161D01*
Y722821D01*
X988213D01*
Y722839D01*
X988264D01*
Y722856D01*
X988333D01*
Y722873D01*
X988402D01*
Y722890D01*
X988505D01*
Y722907D01*
X988918D01*
Y722890D01*
D02*
G37*
G36*
X984498Y720070D02*
X986338D01*
Y719330D01*
X983724D01*
Y722133D01*
Y722151D01*
Y724696D01*
X984498D01*
Y720070D01*
D02*
G37*
G36*
X992977Y722151D02*
X992994D01*
Y722185D01*
X993011D01*
Y722202D01*
X993029D01*
Y722219D01*
X993046D01*
Y722254D01*
X993063D01*
Y722271D01*
X993080D01*
Y722288D01*
X993097D01*
Y722323D01*
X993114D01*
Y722340D01*
X993132D01*
Y722357D01*
X993149D01*
Y722374D01*
X993166D01*
Y722391D01*
X993183D01*
Y722409D01*
X993200D01*
Y722443D01*
X993218D01*
Y722460D01*
X993235D01*
Y722477D01*
X993252D01*
Y722495D01*
X993287D01*
Y722512D01*
X993304D01*
Y722529D01*
X993321D01*
Y722546D01*
X993338D01*
Y722563D01*
X993355D01*
Y722581D01*
X993373D01*
Y722598D01*
X993407D01*
Y722615D01*
X993424D01*
Y722632D01*
X993458D01*
Y722649D01*
X993476D01*
Y722667D01*
X993510D01*
Y722684D01*
X993527D01*
Y722701D01*
X993562D01*
Y722718D01*
X993596D01*
Y722735D01*
X993631D01*
Y722753D01*
X993665D01*
Y722770D01*
X993699D01*
Y722787D01*
X993734D01*
Y722804D01*
X993785D01*
Y722821D01*
X993837D01*
Y722839D01*
X993888D01*
Y722856D01*
X993957D01*
Y722873D01*
X994043D01*
Y722890D01*
X994164D01*
Y722907D01*
X994594D01*
Y722890D01*
X994697D01*
Y722873D01*
X994783D01*
Y722856D01*
X994852D01*
Y722839D01*
X994903D01*
Y722821D01*
X994955D01*
Y722804D01*
X995006D01*
Y722787D01*
X995041D01*
Y722770D01*
X995075D01*
Y722753D01*
X995127D01*
Y722735D01*
X995144D01*
Y722718D01*
X995178D01*
Y722701D01*
X995213D01*
Y722684D01*
X995247D01*
Y722667D01*
X995264D01*
Y722649D01*
X995299D01*
Y722632D01*
X995316D01*
Y722615D01*
X995350D01*
Y722598D01*
X995368D01*
Y722581D01*
X995402D01*
Y722563D01*
X995419D01*
Y722546D01*
X995436D01*
Y722529D01*
X995454D01*
Y722512D01*
X995471D01*
Y722495D01*
X995505D01*
Y722477D01*
X995522D01*
Y722460D01*
X995540D01*
Y722443D01*
X995557D01*
Y722426D01*
X995574D01*
Y722409D01*
X995591D01*
Y722391D01*
X995608D01*
Y722374D01*
X995626D01*
Y722357D01*
X995643D01*
Y722340D01*
X995660D01*
Y722323D01*
X995677D01*
Y722305D01*
X995694D01*
Y722271D01*
X995712D01*
Y722254D01*
X995729D01*
Y722237D01*
X995746D01*
Y722219D01*
X995763D01*
Y722202D01*
X995780D01*
Y722168D01*
X995798D01*
Y722151D01*
X995815D01*
Y722133D01*
X995832D01*
Y722099D01*
X995849D01*
Y722082D01*
X995866D01*
Y722048D01*
X995883D01*
Y722013D01*
X995901D01*
Y721996D01*
X995918D01*
Y721961D01*
X995935D01*
Y721927D01*
X995952D01*
Y721893D01*
X995969D01*
Y721858D01*
X995987D01*
Y721824D01*
X996004D01*
Y721772D01*
X996021D01*
Y721738D01*
X996038D01*
Y721686D01*
X996056D01*
Y721635D01*
X996073D01*
Y721583D01*
X996090D01*
Y721514D01*
X996107D01*
Y721428D01*
X996124D01*
Y721308D01*
X996142D01*
Y720844D01*
X996124D01*
Y720740D01*
X996107D01*
Y720654D01*
X996090D01*
Y720585D01*
X996073D01*
Y720517D01*
X996056D01*
Y720465D01*
X996038D01*
Y720414D01*
X996021D01*
Y720379D01*
X996004D01*
Y720328D01*
X995987D01*
Y720293D01*
X995969D01*
Y720259D01*
X995952D01*
Y720224D01*
X995935D01*
Y720190D01*
X995918D01*
Y720156D01*
X995901D01*
Y720121D01*
X995883D01*
Y720104D01*
X995866D01*
Y720070D01*
X995849D01*
Y720052D01*
X995832D01*
Y720018D01*
X995815D01*
Y720001D01*
X995798D01*
Y719966D01*
X995780D01*
Y719949D01*
X995763D01*
Y719932D01*
X995746D01*
Y719898D01*
X995729D01*
Y719880D01*
X995712D01*
Y719863D01*
X995694D01*
Y719846D01*
X995677D01*
Y719829D01*
X995660D01*
Y719812D01*
X995643D01*
Y719777D01*
X995626D01*
Y719760D01*
X995608D01*
Y719743D01*
X995591D01*
Y719726D01*
X995574D01*
Y719708D01*
X995557D01*
Y719691D01*
X995540D01*
Y719674D01*
X995522D01*
Y719657D01*
X995505D01*
Y719640D01*
X995471D01*
Y719622D01*
X995454D01*
Y719605D01*
X995436D01*
Y719588D01*
X995419D01*
Y719571D01*
X995402D01*
Y719554D01*
X995368D01*
Y719536D01*
X995350D01*
Y719519D01*
X995333D01*
Y719502D01*
X995299D01*
Y719485D01*
X995282D01*
Y719468D01*
X995247D01*
Y719450D01*
X995230D01*
Y719433D01*
X995196D01*
Y719416D01*
X995161D01*
Y719399D01*
X995127D01*
Y719382D01*
X995092D01*
Y719364D01*
X995058D01*
Y719347D01*
X995024D01*
Y719330D01*
X994972D01*
Y719313D01*
X994920D01*
Y719296D01*
X994869D01*
Y719278D01*
X994817D01*
Y719261D01*
X994731D01*
Y719244D01*
X994628D01*
Y719227D01*
X994232D01*
Y719244D01*
X994112D01*
Y719261D01*
X994043D01*
Y719278D01*
X993974D01*
Y719296D01*
X993923D01*
Y719313D01*
X993871D01*
Y719330D01*
X993820D01*
Y719347D01*
X993785D01*
Y719364D01*
X993734D01*
Y719382D01*
X993699D01*
Y719399D01*
X993665D01*
Y719416D01*
X993631D01*
Y719433D01*
X993596D01*
Y719450D01*
X993579D01*
Y719468D01*
X993544D01*
Y719485D01*
X993510D01*
Y719502D01*
X993493D01*
Y719519D01*
X993458D01*
Y719536D01*
X993441D01*
Y719554D01*
X993424D01*
Y719571D01*
X993390D01*
Y719588D01*
X993373D01*
Y719605D01*
X993355D01*
Y719622D01*
X993338D01*
Y719640D01*
X993304D01*
Y719657D01*
X993287D01*
Y719674D01*
X993269D01*
Y719691D01*
X993252D01*
Y719708D01*
X993235D01*
Y719726D01*
X993218D01*
Y719743D01*
X993200D01*
Y719760D01*
X993183D01*
Y719777D01*
X993166D01*
Y719794D01*
X993149D01*
Y719829D01*
X993132D01*
Y719846D01*
X993114D01*
Y719863D01*
X993097D01*
Y719880D01*
X993080D01*
Y719915D01*
X993063D01*
Y719932D01*
X993046D01*
Y719949D01*
X993029D01*
Y719984D01*
X993011D01*
Y720001D01*
X992994D01*
Y720035D01*
X992977D01*
Y719330D01*
X992203D01*
Y723699D01*
Y723716D01*
Y724799D01*
X992977D01*
Y722151D01*
D02*
G37*
G36*
X999323Y712605D02*
X999306D01*
Y712485D01*
X999289D01*
Y712399D01*
X999272D01*
Y712313D01*
X999255D01*
Y712244D01*
X999237D01*
Y712192D01*
X999220D01*
Y712141D01*
X999203D01*
Y712089D01*
X999186D01*
Y712038D01*
X999168D01*
Y712003D01*
X999151D01*
Y711969D01*
X999134D01*
Y711934D01*
X999117D01*
Y711883D01*
X999100D01*
Y711848D01*
X999083D01*
Y711831D01*
X999065D01*
Y711797D01*
X999048D01*
Y711762D01*
X999031D01*
Y711728D01*
X999014D01*
Y711711D01*
X998997D01*
Y711677D01*
X998979D01*
Y711642D01*
X998962D01*
Y711625D01*
X998945D01*
Y711608D01*
X998928D01*
Y711573D01*
X998911D01*
Y711556D01*
X998893D01*
Y711522D01*
X998876D01*
Y711505D01*
X998859D01*
Y711487D01*
X998842D01*
Y711470D01*
X998825D01*
Y711436D01*
X998807D01*
Y711418D01*
X998790D01*
Y711401D01*
X998773D01*
Y711384D01*
X998756D01*
Y711367D01*
X998739D01*
Y711350D01*
X998721D01*
Y711333D01*
X998704D01*
Y711315D01*
X998687D01*
Y711298D01*
X998670D01*
Y711281D01*
X998653D01*
Y711264D01*
X998635D01*
Y711246D01*
X998618D01*
Y711229D01*
X998601D01*
Y711212D01*
X998584D01*
Y711195D01*
X998567D01*
Y711178D01*
X998549D01*
Y711161D01*
X998532D01*
Y711143D01*
X998515D01*
Y711126D01*
X998498D01*
Y711109D01*
X998463D01*
Y711092D01*
X998446D01*
Y711074D01*
X998429D01*
Y711057D01*
X998412D01*
Y711040D01*
X998377D01*
Y711023D01*
X998360D01*
Y711006D01*
X998343D01*
Y710989D01*
X998309D01*
Y710971D01*
X998291D01*
Y710954D01*
X998257D01*
Y710937D01*
X998240D01*
Y710920D01*
X998205D01*
Y710903D01*
X998188D01*
Y710885D01*
X998154D01*
Y710868D01*
X998119D01*
Y710851D01*
X998102D01*
Y710834D01*
X998068D01*
Y710816D01*
X998033D01*
Y710799D01*
X997999D01*
Y710782D01*
X997965D01*
Y710765D01*
X997930D01*
Y710748D01*
X997896D01*
Y710731D01*
X997861D01*
Y710713D01*
X997827D01*
Y710696D01*
X997775D01*
Y710679D01*
X997741D01*
Y710662D01*
X997689D01*
Y710644D01*
X997638D01*
Y710627D01*
X997586D01*
Y710610D01*
X997535D01*
Y710593D01*
X997483D01*
Y710576D01*
X997414D01*
Y710559D01*
X997328D01*
Y710541D01*
X997260D01*
Y710524D01*
X997156D01*
Y710507D01*
X997036D01*
Y710490D01*
X996847D01*
Y710472D01*
X996313D01*
Y710490D01*
X996124D01*
Y710507D01*
X996004D01*
Y710524D01*
X995901D01*
Y710541D01*
X995815D01*
Y710559D01*
X995746D01*
Y710576D01*
X995677D01*
Y710593D01*
X995608D01*
Y710610D01*
X995557D01*
Y710627D01*
X995505D01*
Y710644D01*
X995454D01*
Y710662D01*
X995402D01*
Y710679D01*
X995368D01*
Y710696D01*
X995316D01*
Y710713D01*
X995282D01*
Y710731D01*
X995247D01*
Y710748D01*
X995213D01*
Y710765D01*
X995178D01*
Y710782D01*
X995144D01*
Y710799D01*
X995110D01*
Y710816D01*
X995075D01*
Y710834D01*
X995041D01*
Y710851D01*
X995024D01*
Y710868D01*
X994989D01*
Y710885D01*
X994955D01*
Y710903D01*
X994938D01*
Y710920D01*
X994903D01*
Y710937D01*
X994886D01*
Y710954D01*
X994852D01*
Y710971D01*
X994834D01*
Y710989D01*
X994817D01*
Y711006D01*
X994783D01*
Y711023D01*
X994766D01*
Y711040D01*
X994748D01*
Y711057D01*
X994731D01*
Y711074D01*
X994697D01*
Y711092D01*
X994680D01*
Y711109D01*
X994662D01*
Y711126D01*
X994645D01*
Y711143D01*
X994628D01*
Y711161D01*
X994611D01*
Y711178D01*
X994594D01*
Y711195D01*
X994576D01*
Y711212D01*
X994559D01*
Y711229D01*
X994542D01*
Y711246D01*
X994525D01*
Y711264D01*
X994508D01*
Y711281D01*
X994490D01*
Y711298D01*
X994473D01*
Y711315D01*
X994456D01*
Y711333D01*
X994439D01*
Y711350D01*
X994422D01*
Y711367D01*
X994404D01*
Y711401D01*
X994387D01*
Y711418D01*
X994370D01*
Y711436D01*
X994353D01*
Y711453D01*
X994336D01*
Y711487D01*
X994318D01*
Y711505D01*
X994301D01*
Y711539D01*
X994284D01*
Y711556D01*
X994267D01*
Y711590D01*
X994250D01*
Y711608D01*
X994232D01*
Y711642D01*
X994215D01*
Y711659D01*
X994198D01*
Y711694D01*
X994181D01*
Y711728D01*
X994164D01*
Y711762D01*
X994146D01*
Y711797D01*
X994129D01*
Y711831D01*
X994112D01*
Y711866D01*
X994095D01*
Y711900D01*
X994078D01*
Y711934D01*
X994060D01*
Y711986D01*
X994043D01*
Y712020D01*
X994026D01*
Y712072D01*
X994009D01*
Y712124D01*
X993992D01*
Y712175D01*
X993974D01*
Y712227D01*
X993957D01*
Y712296D01*
X993940D01*
Y712364D01*
X993923D01*
Y712450D01*
X993906D01*
Y712571D01*
X993888D01*
Y712708D01*
X993871D01*
Y713052D01*
Y713070D01*
Y716131D01*
X995540D01*
Y713345D01*
X995557D01*
Y713173D01*
X995574D01*
Y713070D01*
X995591D01*
Y713001D01*
X995608D01*
Y712932D01*
X995626D01*
Y712880D01*
X995643D01*
Y712846D01*
X995660D01*
Y712794D01*
X995677D01*
Y712760D01*
X995694D01*
Y712708D01*
X995712D01*
Y712691D01*
X995729D01*
Y712657D01*
X995746D01*
Y712622D01*
X995763D01*
Y712588D01*
X995780D01*
Y712571D01*
X995798D01*
Y712536D01*
X995815D01*
Y712519D01*
X995832D01*
Y712502D01*
X995849D01*
Y712468D01*
X995866D01*
Y712450D01*
X995883D01*
Y712433D01*
X995901D01*
Y712416D01*
X995918D01*
Y712399D01*
X995935D01*
Y712382D01*
X995952D01*
Y712364D01*
X995969D01*
Y712347D01*
X995987D01*
Y712330D01*
X996004D01*
Y712313D01*
X996021D01*
Y712296D01*
X996038D01*
Y712278D01*
X996073D01*
Y712261D01*
X996090D01*
Y712244D01*
X996107D01*
Y712227D01*
X996142D01*
Y712210D01*
X996176D01*
Y712192D01*
X996210D01*
Y712175D01*
X996245D01*
Y712158D01*
X996296D01*
Y712141D01*
X996365D01*
Y712124D01*
X996451D01*
Y712106D01*
X996692D01*
Y712124D01*
X996795D01*
Y712141D01*
X996847D01*
Y712158D01*
X996898D01*
Y712175D01*
X996950D01*
Y712192D01*
X996984D01*
Y712210D01*
X997019D01*
Y712227D01*
X997053D01*
Y712244D01*
X997070D01*
Y712261D01*
X997105D01*
Y712278D01*
X997122D01*
Y712296D01*
X997156D01*
Y712313D01*
X997174D01*
Y712330D01*
X997191D01*
Y712347D01*
X997208D01*
Y712364D01*
X997225D01*
Y712382D01*
X997242D01*
Y712399D01*
X997260D01*
Y712416D01*
X997277D01*
Y712433D01*
X997294D01*
Y712450D01*
X997311D01*
Y712468D01*
X997328D01*
Y712485D01*
X997346D01*
Y712502D01*
X997363D01*
Y712519D01*
X997380D01*
Y712554D01*
X997397D01*
Y712571D01*
X997414D01*
Y712605D01*
X997431D01*
Y712622D01*
X997449D01*
Y712657D01*
X997466D01*
Y712691D01*
X997483D01*
Y712708D01*
X997500D01*
Y712743D01*
X997517D01*
Y712794D01*
X997535D01*
Y712829D01*
X997552D01*
Y712880D01*
X997569D01*
Y712932D01*
X997586D01*
Y712984D01*
X997603D01*
Y713052D01*
X997621D01*
Y713156D01*
X997638D01*
Y713310D01*
X997655D01*
Y716131D01*
X999323D01*
Y712605D01*
D02*
G37*
G36*
X981488Y715391D02*
X981505D01*
Y715409D01*
X981522D01*
Y715443D01*
X981540D01*
Y715460D01*
X981557D01*
Y715477D01*
X981574D01*
Y715495D01*
X981591D01*
Y715512D01*
X981608D01*
Y715529D01*
X981626D01*
Y715546D01*
X981643D01*
Y715563D01*
X981660D01*
Y715581D01*
X981677D01*
Y715598D01*
X981694D01*
Y715615D01*
X981712D01*
Y715632D01*
X981729D01*
Y715649D01*
X981746D01*
Y715667D01*
X981763D01*
Y715684D01*
X981780D01*
Y715701D01*
X981815D01*
Y715718D01*
X981832D01*
Y715735D01*
X981849D01*
Y715753D01*
X981866D01*
Y715770D01*
X981884D01*
Y715787D01*
X981918D01*
Y715804D01*
X981935D01*
Y715821D01*
X981952D01*
Y715839D01*
X981987D01*
Y715856D01*
X982004D01*
Y715873D01*
X982038D01*
Y715890D01*
X982055D01*
Y715907D01*
X982090D01*
Y715925D01*
X982107D01*
Y715942D01*
X982141D01*
Y715959D01*
X982176D01*
Y715976D01*
X982193D01*
Y715993D01*
X982228D01*
Y716011D01*
X982262D01*
Y716028D01*
X982296D01*
Y716045D01*
X982331D01*
Y716062D01*
X982365D01*
Y716079D01*
X982417D01*
Y716097D01*
X982451D01*
Y716114D01*
X982503D01*
Y716131D01*
X982554D01*
Y716148D01*
X982606D01*
Y716165D01*
X982675D01*
Y716183D01*
X982743D01*
Y716200D01*
X982829D01*
Y716217D01*
X982967D01*
Y716234D01*
X983363D01*
Y716217D01*
X983500D01*
Y716200D01*
X983603D01*
Y716183D01*
X983672D01*
Y716165D01*
X983741D01*
Y716148D01*
X983793D01*
Y716131D01*
X983844D01*
Y716114D01*
X983896D01*
Y716097D01*
X983947D01*
Y716079D01*
X983982D01*
Y716062D01*
X984016D01*
Y716045D01*
X984051D01*
Y716028D01*
X984085D01*
Y716011D01*
X984119D01*
Y715993D01*
X984154D01*
Y715976D01*
X984188D01*
Y715959D01*
X984223D01*
Y715942D01*
X984240D01*
Y715925D01*
X984274D01*
Y715907D01*
X984309D01*
Y715890D01*
X984326D01*
Y715873D01*
X984360D01*
Y715856D01*
X984377D01*
Y715839D01*
X984395D01*
Y715821D01*
X984429D01*
Y715804D01*
X984446D01*
Y715787D01*
X984463D01*
Y715770D01*
X984498D01*
Y715753D01*
X984515D01*
Y715735D01*
X984532D01*
Y715718D01*
X984549D01*
Y715701D01*
X984567D01*
Y715684D01*
X984601D01*
Y715667D01*
X984618D01*
Y715649D01*
X984635D01*
Y715632D01*
X984653D01*
Y715615D01*
X984670D01*
Y715598D01*
X984687D01*
Y715581D01*
X984704D01*
Y715563D01*
X984721D01*
Y715546D01*
X984739D01*
Y715529D01*
X984756D01*
Y715512D01*
X984773D01*
Y715495D01*
X984790D01*
Y715477D01*
X984807D01*
Y715460D01*
X984825D01*
Y715443D01*
X984842D01*
Y715409D01*
X984859D01*
Y715391D01*
X984876D01*
Y715374D01*
X984893D01*
Y715357D01*
X984911D01*
Y715340D01*
X984928D01*
Y715305D01*
X984945D01*
Y715288D01*
X984962D01*
Y715271D01*
X984979D01*
Y715254D01*
X984997D01*
Y715219D01*
X985014D01*
Y715202D01*
X985031D01*
Y715168D01*
X985048D01*
Y715151D01*
X985065D01*
Y715133D01*
X985083D01*
Y715099D01*
X985100D01*
Y715082D01*
X985117D01*
Y715048D01*
X985134D01*
Y715030D01*
X985151D01*
Y714996D01*
X985169D01*
Y714961D01*
X985186D01*
Y714944D01*
X985203D01*
Y714910D01*
X985220D01*
Y714876D01*
X985237D01*
Y714841D01*
X985255D01*
Y714807D01*
X985272D01*
Y714772D01*
X985289D01*
Y714738D01*
X985306D01*
Y714704D01*
X985323D01*
Y714669D01*
X985341D01*
Y714635D01*
X985358D01*
Y714583D01*
X985375D01*
Y714549D01*
X985392D01*
Y714497D01*
X985409D01*
Y714463D01*
X985427D01*
Y714411D01*
X985444D01*
Y714360D01*
X985461D01*
Y714308D01*
X985478D01*
Y714239D01*
X985495D01*
Y714170D01*
X985513D01*
Y714102D01*
X985530D01*
Y714033D01*
X985547D01*
Y713930D01*
X985564D01*
Y713826D01*
X985581D01*
Y713689D01*
X985598D01*
Y712966D01*
X985581D01*
Y712812D01*
X985564D01*
Y712708D01*
X985547D01*
Y712622D01*
X985530D01*
Y712554D01*
X985513D01*
Y712485D01*
X985495D01*
Y712416D01*
X985478D01*
Y712364D01*
X985461D01*
Y712313D01*
X985444D01*
Y712261D01*
X985427D01*
Y712210D01*
X985409D01*
Y712158D01*
X985392D01*
Y712124D01*
X985375D01*
Y712089D01*
X985358D01*
Y712038D01*
X985341D01*
Y712003D01*
X985323D01*
Y711969D01*
X985306D01*
Y711934D01*
X985289D01*
Y711900D01*
X985272D01*
Y711866D01*
X985255D01*
Y711831D01*
X985237D01*
Y711797D01*
X985220D01*
Y711780D01*
X985203D01*
Y711745D01*
X985186D01*
Y711711D01*
X985169D01*
Y711694D01*
X985151D01*
Y711659D01*
X985134D01*
Y711625D01*
X985117D01*
Y711608D01*
X985100D01*
Y711573D01*
X985083D01*
Y711556D01*
X985065D01*
Y711539D01*
X985048D01*
Y711505D01*
X985031D01*
Y711487D01*
X985014D01*
Y711453D01*
X984997D01*
Y711436D01*
X984979D01*
Y711418D01*
X984962D01*
Y711401D01*
X984945D01*
Y711367D01*
X984928D01*
Y711350D01*
X984911D01*
Y711333D01*
X984893D01*
Y711315D01*
X984876D01*
Y711298D01*
X984859D01*
Y711264D01*
X984842D01*
Y711246D01*
X984825D01*
Y711229D01*
X984807D01*
Y711212D01*
X984790D01*
Y711195D01*
X984773D01*
Y711178D01*
X984756D01*
Y711161D01*
X984739D01*
Y711143D01*
X984721D01*
Y711126D01*
X984704D01*
Y711109D01*
X984687D01*
Y711092D01*
X984670D01*
Y711074D01*
X984653D01*
Y711057D01*
X984635D01*
Y711040D01*
X984618D01*
Y711023D01*
X984601D01*
Y711006D01*
X984584D01*
Y710989D01*
X984549D01*
Y710971D01*
X984532D01*
Y710954D01*
X984515D01*
Y710937D01*
X984498D01*
Y710920D01*
X984481D01*
Y710903D01*
X984446D01*
Y710885D01*
X984429D01*
Y710868D01*
X984412D01*
Y710851D01*
X984377D01*
Y710834D01*
X984360D01*
Y710816D01*
X984326D01*
Y710799D01*
X984309D01*
Y710782D01*
X984274D01*
Y710765D01*
X984257D01*
Y710748D01*
X984223D01*
Y710731D01*
X984188D01*
Y710713D01*
X984154D01*
Y710696D01*
X984119D01*
Y710679D01*
X984085D01*
Y710662D01*
X984051D01*
Y710644D01*
X984016D01*
Y710627D01*
X983982D01*
Y710610D01*
X983930D01*
Y710593D01*
X983896D01*
Y710576D01*
X983844D01*
Y710559D01*
X983793D01*
Y710541D01*
X983724D01*
Y710524D01*
X983655D01*
Y710507D01*
X983552D01*
Y710490D01*
X983414D01*
Y710472D01*
X983036D01*
Y710490D01*
X982915D01*
Y710507D01*
X982829D01*
Y710524D01*
X982761D01*
Y710541D01*
X982692D01*
Y710559D01*
X982640D01*
Y710576D01*
X982589D01*
Y710593D01*
X982554D01*
Y710610D01*
X982520D01*
Y710627D01*
X982485D01*
Y710644D01*
X982451D01*
Y710662D01*
X982417D01*
Y710679D01*
X982382D01*
Y710696D01*
X982348D01*
Y710713D01*
X982314D01*
Y710731D01*
X982296D01*
Y710748D01*
X982262D01*
Y710765D01*
X982245D01*
Y710782D01*
X982210D01*
Y710799D01*
X982193D01*
Y710816D01*
X982159D01*
Y710834D01*
X982141D01*
Y710851D01*
X982107D01*
Y710868D01*
X982090D01*
Y710885D01*
X982073D01*
Y710903D01*
X982055D01*
Y710920D01*
X982021D01*
Y710937D01*
X982004D01*
Y710954D01*
X981987D01*
Y710971D01*
X981970D01*
Y710989D01*
X981935D01*
Y711006D01*
X981918D01*
Y711023D01*
X981901D01*
Y711040D01*
X981884D01*
Y711057D01*
X981866D01*
Y711074D01*
X981849D01*
Y711092D01*
X981832D01*
Y711109D01*
X981815D01*
Y711126D01*
X981798D01*
Y711143D01*
X981780D01*
Y711161D01*
X981746D01*
Y711178D01*
X981729D01*
Y711195D01*
X981712D01*
Y711212D01*
X981694D01*
Y711229D01*
X981677D01*
Y711246D01*
X981660D01*
Y711264D01*
X981643D01*
Y711281D01*
X981626D01*
Y711298D01*
X981608D01*
Y711315D01*
X981591D01*
Y711350D01*
X981574D01*
Y711367D01*
X981557D01*
Y711384D01*
X981540D01*
Y711401D01*
X981522D01*
Y711418D01*
X981505D01*
Y711436D01*
X981488D01*
Y711453D01*
X981471D01*
Y710576D01*
X979820D01*
Y719192D01*
X981488D01*
Y715391D01*
D02*
G37*
G36*
X989864Y716234D02*
X990036D01*
Y716217D01*
X990156D01*
Y716200D01*
X990242D01*
Y716183D01*
X990328D01*
Y716165D01*
X990397D01*
Y716148D01*
X990449D01*
Y716131D01*
X990517D01*
Y716114D01*
X990569D01*
Y716097D01*
X990621D01*
Y716079D01*
X990655D01*
Y716062D01*
X990707D01*
Y716045D01*
X990741D01*
Y716028D01*
X990775D01*
Y716011D01*
X990827D01*
Y715993D01*
X990861D01*
Y715976D01*
X990896D01*
Y715959D01*
X990930D01*
Y715942D01*
X990965D01*
Y715925D01*
X990982D01*
Y715907D01*
X991016D01*
Y715890D01*
X991051D01*
Y715873D01*
X991085D01*
Y715856D01*
X991102D01*
Y715839D01*
X991137D01*
Y715821D01*
X991154D01*
Y715804D01*
X991188D01*
Y715787D01*
X991205D01*
Y715770D01*
X991240D01*
Y715753D01*
X991257D01*
Y715735D01*
X991274D01*
Y715718D01*
X991309D01*
Y715701D01*
X991326D01*
Y715684D01*
X991343D01*
Y715667D01*
X991377D01*
Y715649D01*
X991395D01*
Y715632D01*
X991412D01*
Y715615D01*
X991429D01*
Y715598D01*
X991446D01*
Y715581D01*
X991481D01*
Y715563D01*
X991498D01*
Y715546D01*
X991515D01*
Y715529D01*
X991532D01*
Y715512D01*
X991549D01*
Y715495D01*
X991567D01*
Y715477D01*
X991584D01*
Y715460D01*
X991601D01*
Y715443D01*
X991618D01*
Y715426D01*
X991635D01*
Y715409D01*
X991653D01*
Y715391D01*
X991670D01*
Y715374D01*
X991687D01*
Y715357D01*
X991704D01*
Y715340D01*
X991721D01*
Y715323D01*
X991739D01*
Y715288D01*
X991756D01*
Y715271D01*
X991773D01*
Y715254D01*
X991790D01*
Y715237D01*
X991807D01*
Y715219D01*
X991825D01*
Y715185D01*
X991842D01*
Y715168D01*
X991859D01*
Y715151D01*
X991876D01*
Y715116D01*
X991893D01*
Y715099D01*
X991911D01*
Y715082D01*
X991928D01*
Y715048D01*
X991945D01*
Y715030D01*
X991962D01*
Y714996D01*
X991979D01*
Y714979D01*
X991997D01*
Y714944D01*
X992014D01*
Y714927D01*
X992031D01*
Y714893D01*
X992048D01*
Y714858D01*
X992065D01*
Y714841D01*
X992083D01*
Y714807D01*
X992100D01*
Y714772D01*
X992117D01*
Y714738D01*
X992134D01*
Y714704D01*
X992151D01*
Y714669D01*
X992169D01*
Y714635D01*
X992186D01*
Y714600D01*
X992203D01*
Y714549D01*
X992220D01*
Y714514D01*
X992237D01*
Y714463D01*
X992255D01*
Y714428D01*
X992272D01*
Y714377D01*
X992289D01*
Y714325D01*
X992306D01*
Y714274D01*
X992323D01*
Y714205D01*
X992341D01*
Y714136D01*
X992358D01*
Y714067D01*
X992375D01*
Y713981D01*
X992392D01*
Y713878D01*
X992409D01*
Y713740D01*
X992426D01*
Y713482D01*
X992444D01*
Y713242D01*
X992426D01*
Y712984D01*
X992409D01*
Y712846D01*
X992392D01*
Y712743D01*
X992375D01*
Y712657D01*
X992358D01*
Y712571D01*
X992341D01*
Y712502D01*
X992323D01*
Y712450D01*
X992306D01*
Y712382D01*
X992289D01*
Y712330D01*
X992272D01*
Y712278D01*
X992255D01*
Y712244D01*
X992237D01*
Y712192D01*
X992220D01*
Y712158D01*
X992203D01*
Y712106D01*
X992186D01*
Y712072D01*
X992169D01*
Y712038D01*
X992151D01*
Y712003D01*
X992134D01*
Y711969D01*
X992117D01*
Y711934D01*
X992100D01*
Y711900D01*
X992083D01*
Y711866D01*
X992065D01*
Y711848D01*
X992048D01*
Y711814D01*
X992031D01*
Y711780D01*
X992014D01*
Y711762D01*
X991997D01*
Y711728D01*
X991979D01*
Y711711D01*
X991962D01*
Y711677D01*
X991945D01*
Y711659D01*
X991928D01*
Y711625D01*
X991911D01*
Y711608D01*
X991893D01*
Y711573D01*
X991876D01*
Y711556D01*
X991859D01*
Y711539D01*
X991842D01*
Y711505D01*
X991825D01*
Y711487D01*
X991807D01*
Y711470D01*
X991790D01*
Y711453D01*
X991773D01*
Y711436D01*
X991756D01*
Y711401D01*
X991739D01*
Y711384D01*
X991721D01*
Y711367D01*
X991704D01*
Y711350D01*
X991687D01*
Y711333D01*
X991670D01*
Y711315D01*
X991653D01*
Y711298D01*
X991635D01*
Y711281D01*
X991618D01*
Y711264D01*
X991601D01*
Y711246D01*
X991584D01*
Y711229D01*
X991567D01*
Y711212D01*
X991549D01*
Y711195D01*
X991532D01*
Y711178D01*
X991515D01*
Y711161D01*
X991498D01*
Y711143D01*
X991481D01*
Y711126D01*
X991463D01*
Y711109D01*
X991429D01*
Y711092D01*
X991412D01*
Y711074D01*
X991395D01*
Y711057D01*
X991377D01*
Y711040D01*
X991360D01*
Y711023D01*
X991326D01*
Y711006D01*
X991309D01*
Y710989D01*
X991291D01*
Y710971D01*
X991257D01*
Y710954D01*
X991240D01*
Y710937D01*
X991205D01*
Y710920D01*
X991188D01*
Y710903D01*
X991154D01*
Y710885D01*
X991137D01*
Y710868D01*
X991102D01*
Y710851D01*
X991085D01*
Y710834D01*
X991051D01*
Y710816D01*
X991016D01*
Y710799D01*
X990982D01*
Y710782D01*
X990965D01*
Y710765D01*
X990930D01*
Y710748D01*
X990896D01*
Y710731D01*
X990861D01*
Y710713D01*
X990810D01*
Y710696D01*
X990775D01*
Y710679D01*
X990741D01*
Y710662D01*
X990689D01*
Y710644D01*
X990655D01*
Y710627D01*
X990603D01*
Y710610D01*
X990552D01*
Y710593D01*
X990500D01*
Y710576D01*
X990449D01*
Y710559D01*
X990380D01*
Y710541D01*
X990311D01*
Y710524D01*
X990225D01*
Y710507D01*
X990139D01*
Y710490D01*
X990019D01*
Y710472D01*
X989847D01*
Y710455D01*
X989314D01*
Y710472D01*
X989124D01*
Y710490D01*
X989004D01*
Y710507D01*
X988901D01*
Y710524D01*
X988815D01*
Y710541D01*
X988746D01*
Y710559D01*
X988677D01*
Y710576D01*
X988626D01*
Y710593D01*
X988557D01*
Y710610D01*
X988505D01*
Y710627D01*
X988471D01*
Y710644D01*
X988419D01*
Y710662D01*
X988385D01*
Y710679D01*
X988333D01*
Y710696D01*
X988299D01*
Y710713D01*
X988264D01*
Y710731D01*
X988230D01*
Y710748D01*
X988196D01*
Y710765D01*
X988161D01*
Y710782D01*
X988127D01*
Y710799D01*
X988092D01*
Y710816D01*
X988058D01*
Y710834D01*
X988041D01*
Y710851D01*
X988006D01*
Y710868D01*
X987972D01*
Y710885D01*
X987955D01*
Y710903D01*
X987920D01*
Y710920D01*
X987903D01*
Y710937D01*
X987869D01*
Y710954D01*
X987852D01*
Y710971D01*
X987834D01*
Y710989D01*
X987800D01*
Y711006D01*
X987783D01*
Y711023D01*
X987766D01*
Y711040D01*
X987748D01*
Y711057D01*
X987714D01*
Y711074D01*
X987697D01*
Y711092D01*
X987680D01*
Y711109D01*
X987662D01*
Y711126D01*
X987645D01*
Y711143D01*
X987628D01*
Y711161D01*
X987611D01*
Y711178D01*
X987594D01*
Y711195D01*
X987576D01*
Y711212D01*
X987559D01*
Y711229D01*
X987542D01*
Y711246D01*
X987525D01*
Y711264D01*
X987508D01*
Y711281D01*
X987490D01*
Y711298D01*
X987473D01*
Y711315D01*
X987456D01*
Y711333D01*
X987439D01*
Y711367D01*
X987422D01*
Y711384D01*
X987404D01*
Y711401D01*
X987387D01*
Y711418D01*
X987370D01*
Y711436D01*
X987353D01*
Y711470D01*
X987336D01*
Y711487D01*
X987318D01*
Y711505D01*
X987301D01*
Y711539D01*
X987284D01*
Y711556D01*
X987267D01*
Y711573D01*
X987250D01*
Y711608D01*
X987232D01*
Y711625D01*
X987215D01*
Y711659D01*
X987198D01*
Y711677D01*
X987181D01*
Y711711D01*
X987164D01*
Y711728D01*
X987146D01*
Y711762D01*
X987129D01*
Y711780D01*
X987112D01*
Y711814D01*
X987095D01*
Y711848D01*
X987078D01*
Y711883D01*
X987060D01*
Y711900D01*
X987043D01*
Y711934D01*
X987026D01*
Y711969D01*
X987009D01*
Y712003D01*
X986992D01*
Y712038D01*
X986975D01*
Y712072D01*
X986957D01*
Y712106D01*
X986940D01*
Y712158D01*
X986923D01*
Y712192D01*
X986906D01*
Y712227D01*
X986889D01*
Y712278D01*
X986871D01*
Y712330D01*
X986854D01*
Y712382D01*
X986837D01*
Y712433D01*
X986820D01*
Y712485D01*
X986802D01*
Y712554D01*
X986785D01*
Y712622D01*
X986768D01*
Y712691D01*
X986751D01*
Y712777D01*
X986734D01*
Y712898D01*
X986716D01*
Y713052D01*
X986699D01*
Y713654D01*
X986716D01*
Y713809D01*
X986734D01*
Y713930D01*
X986751D01*
Y714033D01*
X986768D01*
Y714102D01*
X986785D01*
Y714187D01*
X986802D01*
Y714239D01*
X986820D01*
Y714308D01*
X986837D01*
Y714360D01*
X986854D01*
Y714411D01*
X986871D01*
Y714463D01*
X986889D01*
Y714497D01*
X986906D01*
Y714549D01*
X986923D01*
Y714583D01*
X986940D01*
Y714617D01*
X986957D01*
Y714669D01*
X986975D01*
Y714704D01*
X986992D01*
Y714738D01*
X987009D01*
Y714772D01*
X987026D01*
Y714807D01*
X987043D01*
Y714824D01*
X987060D01*
Y714858D01*
X987078D01*
Y714893D01*
X987095D01*
Y714927D01*
X987112D01*
Y714944D01*
X987129D01*
Y714979D01*
X987146D01*
Y714996D01*
X987164D01*
Y715030D01*
X987181D01*
Y715048D01*
X987198D01*
Y715082D01*
X987215D01*
Y715099D01*
X987232D01*
Y715133D01*
X987250D01*
Y715151D01*
X987267D01*
Y715168D01*
X987284D01*
Y715185D01*
X987301D01*
Y715219D01*
X987318D01*
Y715237D01*
X987336D01*
Y715254D01*
X987353D01*
Y715271D01*
X987370D01*
Y715288D01*
X987387D01*
Y715323D01*
X987404D01*
Y715340D01*
X987422D01*
Y715357D01*
X987439D01*
Y715374D01*
X987456D01*
Y715391D01*
X987473D01*
Y715409D01*
X987490D01*
Y715426D01*
X987508D01*
Y715443D01*
X987525D01*
Y715460D01*
X987542D01*
Y715477D01*
X987559D01*
Y715495D01*
X987576D01*
Y715512D01*
X987594D01*
Y715529D01*
X987611D01*
Y715546D01*
X987645D01*
Y715563D01*
X987662D01*
Y715581D01*
X987680D01*
Y715598D01*
X987697D01*
Y715615D01*
X987714D01*
Y715632D01*
X987731D01*
Y715649D01*
X987766D01*
Y715667D01*
X987783D01*
Y715684D01*
X987800D01*
Y715701D01*
X987834D01*
Y715718D01*
X987852D01*
Y715735D01*
X987886D01*
Y715753D01*
X987903D01*
Y715770D01*
X987920D01*
Y715787D01*
X987955D01*
Y715804D01*
X987989D01*
Y715821D01*
X988006D01*
Y715839D01*
X988041D01*
Y715856D01*
X988058D01*
Y715873D01*
X988092D01*
Y715890D01*
X988127D01*
Y715907D01*
X988161D01*
Y715925D01*
X988196D01*
Y715942D01*
X988230D01*
Y715959D01*
X988264D01*
Y715976D01*
X988299D01*
Y715993D01*
X988333D01*
Y716011D01*
X988368D01*
Y716028D01*
X988419D01*
Y716045D01*
X988454D01*
Y716062D01*
X988505D01*
Y716079D01*
X988557D01*
Y716097D01*
X988608D01*
Y716114D01*
X988660D01*
Y716131D01*
X988729D01*
Y716148D01*
X988798D01*
Y716165D01*
X988866D01*
Y716183D01*
X988952D01*
Y716200D01*
X989038D01*
Y716217D01*
X989176D01*
Y716234D01*
X989348D01*
Y716251D01*
X989864D01*
Y716234D01*
D02*
G37*
G36*
X1164543Y705754D02*
X1164571D01*
X1164602Y705748D01*
X1164639Y705745D01*
X1164680Y705736D01*
X1164727Y705726D01*
X1164774Y705711D01*
X1164824Y705695D01*
X1164877Y705673D01*
X1164930Y705648D01*
X1164983Y705617D01*
X1165036Y705583D01*
X1165089Y705542D01*
X1165139Y705495D01*
X1165142Y705492D01*
X1165151Y705483D01*
X1165164Y705470D01*
X1165179Y705449D01*
X1165201Y705424D01*
X1165223Y705396D01*
X1165248Y705358D01*
X1165273Y705321D01*
X1165295Y705277D01*
X1165320Y705230D01*
X1165341Y705177D01*
X1165363Y705124D01*
X1165379Y705065D01*
X1165392Y705002D01*
X1165401Y704940D01*
X1165404Y704871D01*
Y702656D01*
X1164783D01*
Y704865D01*
Y704871D01*
Y704887D01*
X1164777Y704909D01*
X1164771Y704940D01*
X1164758Y704974D01*
X1164742Y705009D01*
X1164717Y705043D01*
X1164686Y705077D01*
X1164683Y705080D01*
X1164671Y705090D01*
X1164649Y705105D01*
X1164621Y705121D01*
X1164587Y705137D01*
X1164549Y705152D01*
X1164505Y705162D01*
X1164456Y705165D01*
X1164434D01*
X1164406Y705158D01*
X1164374Y705152D01*
X1164334Y705140D01*
X1164296Y705121D01*
X1164256Y705096D01*
X1164215Y705062D01*
X1164212Y705059D01*
X1164200Y705043D01*
X1164184Y705021D01*
X1164168Y704993D01*
X1164150Y704956D01*
X1164134Y704912D01*
X1164122Y704865D01*
X1164118Y704812D01*
Y702656D01*
X1163466D01*
Y704865D01*
Y704871D01*
Y704887D01*
X1163460Y704909D01*
X1163454Y704937D01*
X1163445Y704968D01*
X1163426Y705002D01*
X1163404Y705037D01*
X1163373Y705071D01*
X1163370Y705074D01*
X1163357Y705084D01*
X1163335Y705099D01*
X1163310Y705115D01*
X1163276Y705130D01*
X1163239Y705146D01*
X1163195Y705155D01*
X1163148Y705158D01*
X1163126D01*
X1163101Y705152D01*
X1163070Y705146D01*
X1163036Y705133D01*
X1162998Y705118D01*
X1162961Y705093D01*
X1162924Y705059D01*
X1162920Y705055D01*
X1162908Y705040D01*
X1162895Y705021D01*
X1162877Y704993D01*
X1162861Y704959D01*
X1162846Y704918D01*
X1162833Y704871D01*
X1162830Y704821D01*
Y702656D01*
X1162209D01*
Y704828D01*
Y704831D01*
Y704843D01*
X1162212Y704865D01*
Y704893D01*
X1162218Y704924D01*
X1162225Y704965D01*
X1162231Y705006D01*
X1162243Y705052D01*
X1162259Y705102D01*
X1162278Y705155D01*
X1162300Y705211D01*
X1162328Y705268D01*
X1162359Y705321D01*
X1162396Y705377D01*
X1162437Y705430D01*
X1162487Y705483D01*
X1162490Y705486D01*
X1162499Y705495D01*
X1162515Y705508D01*
X1162537Y705527D01*
X1162565Y705545D01*
X1162596Y705570D01*
X1162633Y705595D01*
X1162674Y705620D01*
X1162721Y705645D01*
X1162774Y705670D01*
X1162827Y705695D01*
X1162886Y705714D01*
X1162949Y705732D01*
X1163017Y705745D01*
X1163086Y705754D01*
X1163157Y705757D01*
X1163195D01*
X1163214Y705754D01*
X1163235D01*
X1163286Y705748D01*
X1163345Y705739D01*
X1163410Y705726D01*
X1163473Y705711D01*
X1163535Y705686D01*
X1163538D01*
X1163541Y705683D01*
X1163551Y705679D01*
X1163563Y705673D01*
X1163594Y705658D01*
X1163632Y705633D01*
X1163675Y705601D01*
X1163722Y705564D01*
X1163772Y705520D01*
X1163819Y705467D01*
Y705470D01*
X1163825Y705474D01*
X1163841Y705492D01*
X1163866Y705520D01*
X1163900Y705551D01*
X1163941Y705589D01*
X1163991Y705626D01*
X1164047Y705661D01*
X1164106Y705689D01*
X1164109D01*
X1164115Y705692D01*
X1164125Y705695D01*
X1164137Y705698D01*
X1164153Y705704D01*
X1164172Y705711D01*
X1164221Y705723D01*
X1164281Y705736D01*
X1164349Y705748D01*
X1164424Y705754D01*
X1164509Y705757D01*
X1164524D01*
X1164543Y705754D01*
D02*
G37*
G36*
X1160864D02*
X1160892D01*
X1160924Y705748D01*
X1160961Y705745D01*
X1161002Y705736D01*
X1161048Y705726D01*
X1161095Y705711D01*
X1161145Y705695D01*
X1161198Y705673D01*
X1161251Y705648D01*
X1161304Y705617D01*
X1161357Y705583D01*
X1161410Y705542D01*
X1161460Y705495D01*
X1161463Y705492D01*
X1161473Y705483D01*
X1161485Y705470D01*
X1161501Y705449D01*
X1161523Y705424D01*
X1161545Y705396D01*
X1161569Y705358D01*
X1161594Y705321D01*
X1161616Y705277D01*
X1161641Y705230D01*
X1161663Y705177D01*
X1161685Y705124D01*
X1161701Y705065D01*
X1161713Y705002D01*
X1161722Y704940D01*
X1161726Y704871D01*
Y702656D01*
X1161105D01*
Y704865D01*
Y704871D01*
Y704887D01*
X1161098Y704909D01*
X1161092Y704940D01*
X1161080Y704974D01*
X1161064Y705009D01*
X1161039Y705043D01*
X1161008Y705077D01*
X1161005Y705080D01*
X1160992Y705090D01*
X1160970Y705105D01*
X1160942Y705121D01*
X1160908Y705137D01*
X1160871Y705152D01*
X1160827Y705162D01*
X1160777Y705165D01*
X1160755D01*
X1160727Y705158D01*
X1160696Y705152D01*
X1160655Y705140D01*
X1160618Y705121D01*
X1160577Y705096D01*
X1160537Y705062D01*
X1160534Y705059D01*
X1160521Y705043D01*
X1160505Y705021D01*
X1160490Y704993D01*
X1160471Y704956D01*
X1160456Y704912D01*
X1160443Y704865D01*
X1160440Y704812D01*
Y702656D01*
X1159788D01*
Y704865D01*
Y704871D01*
Y704887D01*
X1159782Y704909D01*
X1159776Y704937D01*
X1159766Y704968D01*
X1159747Y705002D01*
X1159725Y705037D01*
X1159694Y705071D01*
X1159691Y705074D01*
X1159679Y705084D01*
X1159657Y705099D01*
X1159632Y705115D01*
X1159598Y705130D01*
X1159560Y705146D01*
X1159517Y705155D01*
X1159470Y705158D01*
X1159448D01*
X1159423Y705152D01*
X1159392Y705146D01*
X1159357Y705133D01*
X1159320Y705118D01*
X1159282Y705093D01*
X1159245Y705059D01*
X1159242Y705055D01*
X1159229Y705040D01*
X1159217Y705021D01*
X1159198Y704993D01*
X1159183Y704959D01*
X1159167Y704918D01*
X1159155Y704871D01*
X1159151Y704821D01*
Y702656D01*
X1158531D01*
Y704828D01*
Y704831D01*
Y704843D01*
X1158534Y704865D01*
Y704893D01*
X1158540Y704924D01*
X1158546Y704965D01*
X1158552Y705006D01*
X1158565Y705052D01*
X1158580Y705102D01*
X1158599Y705155D01*
X1158621Y705211D01*
X1158649Y705268D01*
X1158680Y705321D01*
X1158718Y705377D01*
X1158758Y705430D01*
X1158808Y705483D01*
X1158811Y705486D01*
X1158821Y705495D01*
X1158836Y705508D01*
X1158858Y705527D01*
X1158886Y705545D01*
X1158918Y705570D01*
X1158955Y705595D01*
X1158996Y705620D01*
X1159042Y705645D01*
X1159095Y705670D01*
X1159148Y705695D01*
X1159208Y705714D01*
X1159270Y705732D01*
X1159339Y705745D01*
X1159407Y705754D01*
X1159479Y705757D01*
X1159517D01*
X1159535Y705754D01*
X1159557D01*
X1159607Y705748D01*
X1159666Y705739D01*
X1159732Y705726D01*
X1159794Y705711D01*
X1159857Y705686D01*
X1159860D01*
X1159863Y705683D01*
X1159872Y705679D01*
X1159885Y705673D01*
X1159916Y705658D01*
X1159953Y705633D01*
X1159997Y705601D01*
X1160044Y705564D01*
X1160094Y705520D01*
X1160141Y705467D01*
Y705470D01*
X1160147Y705474D01*
X1160162Y705492D01*
X1160187Y705520D01*
X1160222Y705551D01*
X1160262Y705589D01*
X1160312Y705626D01*
X1160368Y705661D01*
X1160427Y705689D01*
X1160431D01*
X1160437Y705692D01*
X1160446Y705695D01*
X1160459Y705698D01*
X1160474Y705704D01*
X1160493Y705711D01*
X1160543Y705723D01*
X1160602Y705736D01*
X1160671Y705748D01*
X1160746Y705754D01*
X1160830Y705757D01*
X1160846D01*
X1160864Y705754D01*
D02*
G37*
G36*
X1154737Y705112D02*
X1154733D01*
X1154721Y705115D01*
X1154702D01*
X1154677Y705118D01*
X1154628Y705121D01*
X1154565D01*
X1154543Y705118D01*
X1154518D01*
X1154484Y705112D01*
X1154447Y705105D01*
X1154406Y705099D01*
X1154359Y705087D01*
X1154309Y705074D01*
X1154256Y705055D01*
X1154203Y705034D01*
X1154147Y705006D01*
X1154091Y704974D01*
X1154035Y704940D01*
X1153979Y704896D01*
X1153926Y704849D01*
X1153922Y704846D01*
X1153913Y704837D01*
X1153901Y704821D01*
X1153882Y704803D01*
X1153860Y704775D01*
X1153838Y704743D01*
X1153813Y704709D01*
X1153788Y704665D01*
X1153760Y704622D01*
X1153735Y704572D01*
X1153713Y704519D01*
X1153691Y704463D01*
X1153673Y704400D01*
X1153660Y704338D01*
X1153651Y704269D01*
X1153648Y704201D01*
Y704197D01*
Y704185D01*
X1153651Y704163D01*
Y704138D01*
X1153657Y704104D01*
X1153663Y704066D01*
X1153670Y704023D01*
X1153682Y703976D01*
X1153698Y703926D01*
X1153716Y703876D01*
X1153738Y703820D01*
X1153766Y703764D01*
X1153798Y703708D01*
X1153835Y703655D01*
X1153876Y703598D01*
X1153926Y703545D01*
X1153929Y703542D01*
X1153938Y703533D01*
X1153953Y703520D01*
X1153975Y703502D01*
X1154004Y703480D01*
X1154035Y703458D01*
X1154072Y703433D01*
X1154113Y703408D01*
X1154160Y703380D01*
X1154209Y703355D01*
X1154262Y703333D01*
X1154322Y703311D01*
X1154384Y703293D01*
X1154447Y703280D01*
X1154515Y703271D01*
X1154584Y703268D01*
X1154609D01*
X1154628Y703271D01*
X1154652D01*
X1154681Y703274D01*
X1154712Y703277D01*
X1154749Y703283D01*
Y702656D01*
X1154746D01*
X1154740Y702653D01*
X1154727D01*
X1154712Y702650D01*
X1154674Y702647D01*
X1154637Y702644D01*
X1154540D01*
X1154525Y702647D01*
X1154506D01*
X1154462Y702650D01*
X1154406Y702656D01*
X1154344Y702669D01*
X1154272Y702681D01*
X1154194Y702700D01*
X1154109Y702725D01*
X1154022Y702756D01*
X1153929Y702790D01*
X1153835Y702837D01*
X1153741Y702887D01*
X1153648Y702949D01*
X1153557Y703018D01*
X1153467Y703099D01*
X1153461Y703105D01*
X1153448Y703121D01*
X1153423Y703146D01*
X1153395Y703180D01*
X1153358Y703224D01*
X1153320Y703277D01*
X1153277Y703339D01*
X1153236Y703408D01*
X1153192Y703486D01*
X1153149Y703570D01*
X1153111Y703661D01*
X1153074Y703757D01*
X1153046Y703857D01*
X1153021Y703967D01*
X1153008Y704079D01*
X1153002Y704197D01*
Y704201D01*
Y704204D01*
Y704213D01*
Y704225D01*
X1153005Y704241D01*
Y704260D01*
X1153008Y704304D01*
X1153018Y704360D01*
X1153027Y704422D01*
X1153043Y704494D01*
X1153061Y704575D01*
X1153086Y704656D01*
X1153117Y704747D01*
X1153155Y704837D01*
X1153199Y704931D01*
X1153251Y705024D01*
X1153317Y705115D01*
X1153389Y705208D01*
X1153470Y705296D01*
X1153476Y705302D01*
X1153492Y705314D01*
X1153517Y705339D01*
X1153554Y705367D01*
X1153598Y705405D01*
X1153651Y705442D01*
X1153713Y705486D01*
X1153782Y705530D01*
X1153860Y705570D01*
X1153944Y705614D01*
X1154035Y705651D01*
X1154131Y705689D01*
X1154234Y705717D01*
X1154344Y705742D01*
X1154456Y705754D01*
X1154571Y705761D01*
X1154737D01*
Y705112D01*
D02*
G37*
G36*
X1146668Y702656D02*
X1146029D01*
Y703889D01*
X1145311D01*
Y702656D01*
X1144653D01*
Y705767D01*
X1145311D01*
Y704519D01*
X1146029D01*
Y705767D01*
X1146668D01*
Y702656D01*
D02*
G37*
G36*
X1152830Y703910D02*
X1151807D01*
Y704419D01*
X1152830D01*
Y703910D01*
D02*
G37*
G36*
X1149648Y703305D02*
X1150656D01*
Y702656D01*
X1149027D01*
Y705767D01*
X1149648D01*
Y703305D01*
D02*
G37*
G36*
X1148706Y705136D02*
X1147888D01*
X1147869Y705133D01*
X1147829Y705130D01*
X1147785Y705121D01*
X1147782D01*
X1147776Y705118D01*
X1147767Y705115D01*
X1147754Y705108D01*
X1147723Y705087D01*
X1147704Y705074D01*
X1147689Y705055D01*
X1147686Y705052D01*
X1147679Y705043D01*
X1147670Y705030D01*
X1147657Y705012D01*
X1147645Y704987D01*
X1147635Y704959D01*
X1147629Y704927D01*
X1147626Y704893D01*
Y704497D01*
X1148699D01*
Y703898D01*
X1147626D01*
Y703558D01*
Y703555D01*
Y703542D01*
Y703527D01*
Y703505D01*
X1147629Y703461D01*
Y703439D01*
X1147632Y703424D01*
Y703421D01*
X1147635Y703417D01*
X1147642Y703399D01*
X1147654Y703374D01*
X1147676Y703343D01*
X1147679Y703339D01*
X1147689Y703330D01*
X1147704Y703314D01*
X1147723Y703302D01*
X1147748Y703286D01*
X1147779Y703271D01*
X1147810Y703261D01*
X1147848Y703258D01*
X1148706D01*
Y702640D01*
X1147907D01*
X1147885Y702644D01*
X1147863D01*
X1147807Y702650D01*
X1147748Y702656D01*
X1147679Y702669D01*
X1147614Y702684D01*
X1147548Y702706D01*
X1147545D01*
X1147542Y702709D01*
X1147533Y702712D01*
X1147520Y702718D01*
X1147489Y702734D01*
X1147445Y702759D01*
X1147398Y702790D01*
X1147345Y702831D01*
X1147286Y702881D01*
X1147230Y702937D01*
Y702940D01*
X1147224Y702943D01*
X1147211Y702962D01*
X1147186Y702987D01*
X1147161Y703021D01*
X1147130Y703062D01*
X1147102Y703109D01*
X1147074Y703155D01*
X1147049Y703205D01*
X1147046Y703211D01*
X1147040Y703227D01*
X1147030Y703255D01*
X1147021Y703293D01*
X1147011Y703339D01*
X1147002Y703393D01*
X1146996Y703449D01*
X1146993Y703514D01*
Y704931D01*
Y704934D01*
Y704937D01*
Y704946D01*
Y704959D01*
X1146996Y704990D01*
X1146999Y705030D01*
X1147005Y705077D01*
X1147018Y705124D01*
X1147030Y705177D01*
X1147049Y705224D01*
X1147052Y705230D01*
X1147058Y705246D01*
X1147074Y705271D01*
X1147093Y705302D01*
X1147118Y705342D01*
X1147149Y705386D01*
X1147186Y705433D01*
X1147230Y705483D01*
X1147233Y705486D01*
X1147236Y705489D01*
X1147252Y705505D01*
X1147277Y705530D01*
X1147311Y705561D01*
X1147352Y705592D01*
X1147398Y705626D01*
X1147445Y705661D01*
X1147498Y705689D01*
X1147505Y705692D01*
X1147520Y705698D01*
X1147545Y705711D01*
X1147579Y705723D01*
X1147623Y705732D01*
X1147673Y705745D01*
X1147732Y705751D01*
X1147795Y705754D01*
X1148706D01*
Y705136D01*
D02*
G37*
G36*
X1151582Y702625D02*
X1150937D01*
Y705745D01*
X1151582D01*
Y702625D01*
D02*
G37*
G36*
X1156615Y705736D02*
X1156637D01*
X1156659Y705732D01*
X1156687D01*
X1156749Y705723D01*
X1156821Y705714D01*
X1156899Y705698D01*
X1156986Y705676D01*
X1157077Y705651D01*
X1157173Y705620D01*
X1157270Y705580D01*
X1157367Y705533D01*
X1157463Y705477D01*
X1157557Y705411D01*
X1157648Y705336D01*
X1157732Y705249D01*
X1157735Y705243D01*
X1157747Y705230D01*
X1157769Y705205D01*
X1157794Y705171D01*
X1157822Y705127D01*
X1157857Y705077D01*
X1157891Y705015D01*
X1157928Y704949D01*
X1157966Y704875D01*
X1158000Y704793D01*
X1158035Y704706D01*
X1158063Y704609D01*
X1158088Y704509D01*
X1158109Y704403D01*
X1158122Y704294D01*
X1158125Y704179D01*
Y704176D01*
Y704173D01*
Y704163D01*
Y704151D01*
X1158122Y704116D01*
X1158119Y704073D01*
X1158113Y704020D01*
X1158103Y703957D01*
X1158094Y703885D01*
X1158075Y703807D01*
X1158056Y703726D01*
X1158031Y703642D01*
X1157997Y703552D01*
X1157960Y703461D01*
X1157916Y703371D01*
X1157863Y703280D01*
X1157804Y703193D01*
X1157735Y703109D01*
X1157729Y703102D01*
X1157716Y703087D01*
X1157691Y703065D01*
X1157657Y703034D01*
X1157613Y702996D01*
X1157560Y702956D01*
X1157498Y702912D01*
X1157426Y702865D01*
X1157348Y702818D01*
X1157258Y702775D01*
X1157164Y702734D01*
X1157058Y702697D01*
X1156946Y702666D01*
X1156827Y702644D01*
X1156699Y702628D01*
X1156565Y702622D01*
X1156534D01*
X1156515Y702625D01*
X1156493D01*
X1156471Y702628D01*
X1156443D01*
X1156381Y702637D01*
X1156309Y702647D01*
X1156231Y702662D01*
X1156144Y702684D01*
X1156053Y702709D01*
X1155957Y702740D01*
X1155860Y702781D01*
X1155763Y702828D01*
X1155666Y702884D01*
X1155573Y702949D01*
X1155486Y703024D01*
X1155401Y703109D01*
X1155398Y703115D01*
X1155386Y703130D01*
X1155367Y703152D01*
X1155342Y703187D01*
X1155311Y703230D01*
X1155280Y703283D01*
X1155245Y703343D01*
X1155208Y703411D01*
X1155170Y703486D01*
X1155136Y703567D01*
X1155105Y703655D01*
X1155074Y703751D01*
X1155049Y703851D01*
X1155030Y703960D01*
X1155017Y704073D01*
X1155014Y704188D01*
Y704191D01*
Y704194D01*
Y704204D01*
Y704216D01*
X1155017Y704250D01*
X1155021Y704294D01*
X1155027Y704347D01*
X1155036Y704410D01*
X1155046Y704481D01*
X1155061Y704556D01*
X1155083Y704637D01*
X1155108Y704725D01*
X1155139Y704812D01*
X1155177Y704903D01*
X1155220Y704993D01*
X1155270Y705080D01*
X1155330Y705168D01*
X1155398Y705252D01*
X1155404Y705258D01*
X1155417Y705274D01*
X1155442Y705296D01*
X1155476Y705327D01*
X1155520Y705364D01*
X1155573Y705405D01*
X1155635Y705449D01*
X1155707Y705495D01*
X1155785Y705542D01*
X1155872Y705586D01*
X1155969Y705626D01*
X1156072Y705664D01*
X1156184Y705695D01*
X1156303Y705717D01*
X1156431Y705732D01*
X1156565Y705739D01*
X1156596D01*
X1156615Y705736D01*
D02*
G37*
G36*
X1164349Y701325D02*
X1164346D01*
X1164334Y701328D01*
X1164315D01*
X1164290Y701331D01*
X1164240Y701334D01*
X1164178D01*
X1164156Y701331D01*
X1164131D01*
X1164097Y701325D01*
X1164059Y701319D01*
X1164019Y701313D01*
X1163972Y701300D01*
X1163922Y701288D01*
X1163869Y701269D01*
X1163816Y701247D01*
X1163760Y701219D01*
X1163704Y701188D01*
X1163647Y701154D01*
X1163591Y701110D01*
X1163538Y701063D01*
X1163535Y701060D01*
X1163526Y701051D01*
X1163513Y701035D01*
X1163494Y701016D01*
X1163473Y700988D01*
X1163451Y700957D01*
X1163426Y700923D01*
X1163401Y700879D01*
X1163373Y700835D01*
X1163348Y700785D01*
X1163326Y700732D01*
X1163304Y700676D01*
X1163286Y700614D01*
X1163273Y700551D01*
X1163264Y700483D01*
X1163260Y700414D01*
Y700411D01*
Y700398D01*
X1163264Y700377D01*
Y700352D01*
X1163270Y700317D01*
X1163276Y700280D01*
X1163282Y700236D01*
X1163295Y700189D01*
X1163310Y700140D01*
X1163329Y700090D01*
X1163351Y700034D01*
X1163379Y699977D01*
X1163410Y699921D01*
X1163448Y699868D01*
X1163488Y699812D01*
X1163538Y699759D01*
X1163541Y699756D01*
X1163551Y699747D01*
X1163566Y699734D01*
X1163588Y699715D01*
X1163616Y699693D01*
X1163647Y699672D01*
X1163685Y699647D01*
X1163725Y699622D01*
X1163772Y699594D01*
X1163822Y699569D01*
X1163875Y699547D01*
X1163934Y699525D01*
X1163997Y699506D01*
X1164059Y699494D01*
X1164128Y699484D01*
X1164196Y699481D01*
X1164221D01*
X1164240Y699484D01*
X1164265D01*
X1164293Y699487D01*
X1164324Y699491D01*
X1164362Y699497D01*
Y698870D01*
X1164359D01*
X1164353Y698867D01*
X1164340D01*
X1164324Y698864D01*
X1164287Y698860D01*
X1164250Y698857D01*
X1164153D01*
X1164137Y698860D01*
X1164118D01*
X1164075Y698864D01*
X1164019Y698870D01*
X1163956Y698882D01*
X1163885Y698895D01*
X1163807Y698913D01*
X1163722Y698938D01*
X1163635Y698970D01*
X1163541Y699004D01*
X1163448Y699051D01*
X1163354Y699101D01*
X1163260Y699163D01*
X1163170Y699232D01*
X1163079Y699313D01*
X1163073Y699319D01*
X1163061Y699335D01*
X1163036Y699360D01*
X1163008Y699394D01*
X1162970Y699438D01*
X1162933Y699491D01*
X1162889Y699553D01*
X1162849Y699622D01*
X1162805Y699700D01*
X1162761Y699784D01*
X1162724Y699874D01*
X1162686Y699971D01*
X1162658Y700071D01*
X1162633Y700180D01*
X1162621Y700292D01*
X1162615Y700411D01*
Y700414D01*
Y700417D01*
Y700427D01*
Y700439D01*
X1162618Y700455D01*
Y700473D01*
X1162621Y700517D01*
X1162630Y700573D01*
X1162640Y700636D01*
X1162655Y700707D01*
X1162674Y700788D01*
X1162699Y700870D01*
X1162730Y700960D01*
X1162768Y701051D01*
X1162811Y701144D01*
X1162864Y701238D01*
X1162930Y701328D01*
X1163002Y701422D01*
X1163083Y701509D01*
X1163089Y701515D01*
X1163105Y701528D01*
X1163130Y701553D01*
X1163167Y701581D01*
X1163211Y701618D01*
X1163264Y701656D01*
X1163326Y701700D01*
X1163395Y701743D01*
X1163473Y701784D01*
X1163557Y701827D01*
X1163647Y701865D01*
X1163744Y701902D01*
X1163847Y701931D01*
X1163956Y701955D01*
X1164069Y701968D01*
X1164184Y701974D01*
X1164349D01*
Y701325D01*
D02*
G37*
G36*
X1162396D02*
X1162393D01*
X1162381Y701328D01*
X1162362D01*
X1162337Y701331D01*
X1162287Y701334D01*
X1162225D01*
X1162203Y701331D01*
X1162178D01*
X1162144Y701325D01*
X1162106Y701319D01*
X1162066Y701313D01*
X1162019Y701300D01*
X1161969Y701288D01*
X1161916Y701269D01*
X1161863Y701247D01*
X1161807Y701219D01*
X1161750Y701188D01*
X1161694Y701154D01*
X1161638Y701110D01*
X1161585Y701063D01*
X1161582Y701060D01*
X1161573Y701051D01*
X1161560Y701035D01*
X1161541Y701016D01*
X1161520Y700988D01*
X1161498Y700957D01*
X1161473Y700923D01*
X1161448Y700879D01*
X1161420Y700835D01*
X1161395Y700785D01*
X1161373Y700732D01*
X1161351Y700676D01*
X1161332Y700614D01*
X1161320Y700551D01*
X1161310Y700483D01*
X1161307Y700414D01*
Y700411D01*
Y700398D01*
X1161310Y700377D01*
Y700352D01*
X1161317Y700317D01*
X1161323Y700280D01*
X1161329Y700236D01*
X1161342Y700189D01*
X1161357Y700140D01*
X1161376Y700090D01*
X1161398Y700034D01*
X1161426Y699977D01*
X1161457Y699921D01*
X1161495Y699868D01*
X1161535Y699812D01*
X1161585Y699759D01*
X1161588Y699756D01*
X1161598Y699747D01*
X1161613Y699734D01*
X1161635Y699715D01*
X1161663Y699693D01*
X1161694Y699672D01*
X1161732Y699647D01*
X1161772Y699622D01*
X1161819Y699594D01*
X1161869Y699569D01*
X1161922Y699547D01*
X1161981Y699525D01*
X1162044Y699506D01*
X1162106Y699494D01*
X1162175Y699484D01*
X1162243Y699481D01*
X1162268D01*
X1162287Y699484D01*
X1162312D01*
X1162340Y699487D01*
X1162371Y699491D01*
X1162409Y699497D01*
Y698870D01*
X1162406D01*
X1162399Y698867D01*
X1162387D01*
X1162371Y698864D01*
X1162334Y698860D01*
X1162296Y698857D01*
X1162200D01*
X1162184Y698860D01*
X1162165D01*
X1162122Y698864D01*
X1162066Y698870D01*
X1162003Y698882D01*
X1161931Y698895D01*
X1161853Y698913D01*
X1161769Y698938D01*
X1161682Y698970D01*
X1161588Y699004D01*
X1161495Y699051D01*
X1161401Y699101D01*
X1161307Y699163D01*
X1161217Y699232D01*
X1161126Y699313D01*
X1161120Y699319D01*
X1161108Y699335D01*
X1161083Y699360D01*
X1161055Y699394D01*
X1161017Y699438D01*
X1160980Y699491D01*
X1160936Y699553D01*
X1160896Y699622D01*
X1160852Y699700D01*
X1160808Y699784D01*
X1160771Y699874D01*
X1160733Y699971D01*
X1160705Y700071D01*
X1160680Y700180D01*
X1160668Y700292D01*
X1160662Y700411D01*
Y700414D01*
Y700417D01*
Y700427D01*
Y700439D01*
X1160665Y700455D01*
Y700473D01*
X1160668Y700517D01*
X1160677Y700573D01*
X1160686Y700636D01*
X1160702Y700707D01*
X1160721Y700788D01*
X1160746Y700870D01*
X1160777Y700960D01*
X1160814Y701051D01*
X1160858Y701144D01*
X1160911Y701238D01*
X1160977Y701328D01*
X1161048Y701422D01*
X1161129Y701509D01*
X1161136Y701515D01*
X1161151Y701528D01*
X1161176Y701553D01*
X1161214Y701581D01*
X1161257Y701618D01*
X1161310Y701656D01*
X1161373Y701700D01*
X1161442Y701743D01*
X1161520Y701784D01*
X1161604Y701827D01*
X1161694Y701865D01*
X1161791Y701902D01*
X1161894Y701931D01*
X1162003Y701955D01*
X1162115Y701968D01*
X1162231Y701974D01*
X1162396D01*
Y701325D01*
D02*
G37*
G36*
X1157972D02*
X1157969D01*
X1157957Y701328D01*
X1157938D01*
X1157913Y701331D01*
X1157863Y701334D01*
X1157800D01*
X1157779Y701331D01*
X1157754D01*
X1157719Y701325D01*
X1157682Y701319D01*
X1157641Y701313D01*
X1157595Y701300D01*
X1157545Y701288D01*
X1157492Y701269D01*
X1157439Y701247D01*
X1157382Y701219D01*
X1157326Y701188D01*
X1157270Y701154D01*
X1157214Y701110D01*
X1157161Y701063D01*
X1157158Y701060D01*
X1157148Y701051D01*
X1157136Y701035D01*
X1157117Y701016D01*
X1157095Y700988D01*
X1157073Y700957D01*
X1157049Y700923D01*
X1157024Y700879D01*
X1156995Y700835D01*
X1156971Y700785D01*
X1156949Y700732D01*
X1156927Y700676D01*
X1156908Y700614D01*
X1156896Y700551D01*
X1156886Y700483D01*
X1156883Y700414D01*
Y700411D01*
Y700398D01*
X1156886Y700377D01*
Y700352D01*
X1156893Y700317D01*
X1156899Y700280D01*
X1156905Y700236D01*
X1156917Y700189D01*
X1156933Y700140D01*
X1156952Y700090D01*
X1156974Y700034D01*
X1157002Y699977D01*
X1157033Y699921D01*
X1157070Y699868D01*
X1157111Y699812D01*
X1157161Y699759D01*
X1157164Y699756D01*
X1157173Y699747D01*
X1157189Y699734D01*
X1157211Y699715D01*
X1157239Y699693D01*
X1157270Y699672D01*
X1157308Y699647D01*
X1157348Y699622D01*
X1157395Y699594D01*
X1157445Y699569D01*
X1157498Y699547D01*
X1157557Y699525D01*
X1157619Y699506D01*
X1157682Y699494D01*
X1157751Y699484D01*
X1157819Y699481D01*
X1157844D01*
X1157863Y699484D01*
X1157888D01*
X1157916Y699487D01*
X1157947Y699491D01*
X1157985Y699497D01*
Y698870D01*
X1157981D01*
X1157975Y698867D01*
X1157963D01*
X1157947Y698864D01*
X1157910Y698860D01*
X1157872Y698857D01*
X1157775D01*
X1157760Y698860D01*
X1157741D01*
X1157697Y698864D01*
X1157641Y698870D01*
X1157579Y698882D01*
X1157507Y698895D01*
X1157429Y698913D01*
X1157345Y698938D01*
X1157258Y698970D01*
X1157164Y699004D01*
X1157070Y699051D01*
X1156977Y699101D01*
X1156883Y699163D01*
X1156793Y699232D01*
X1156702Y699313D01*
X1156696Y699319D01*
X1156684Y699335D01*
X1156659Y699360D01*
X1156631Y699394D01*
X1156593Y699438D01*
X1156556Y699491D01*
X1156512Y699553D01*
X1156471Y699622D01*
X1156428Y699700D01*
X1156384Y699784D01*
X1156347Y699874D01*
X1156309Y699971D01*
X1156281Y700071D01*
X1156256Y700180D01*
X1156244Y700292D01*
X1156237Y700411D01*
Y700414D01*
Y700417D01*
Y700427D01*
Y700439D01*
X1156240Y700455D01*
Y700473D01*
X1156244Y700517D01*
X1156253Y700573D01*
X1156262Y700636D01*
X1156278Y700707D01*
X1156297Y700788D01*
X1156322Y700870D01*
X1156353Y700960D01*
X1156390Y701051D01*
X1156434Y701144D01*
X1156487Y701238D01*
X1156553Y701328D01*
X1156624Y701422D01*
X1156705Y701509D01*
X1156712Y701515D01*
X1156727Y701528D01*
X1156752Y701553D01*
X1156790Y701581D01*
X1156833Y701618D01*
X1156886Y701656D01*
X1156949Y701700D01*
X1157017Y701743D01*
X1157095Y701784D01*
X1157180Y701827D01*
X1157270Y701865D01*
X1157367Y701902D01*
X1157470Y701931D01*
X1157579Y701955D01*
X1157691Y701968D01*
X1157807Y701974D01*
X1157972D01*
Y701325D01*
D02*
G37*
G36*
X1144356Y701325D02*
X1144353D01*
X1144341Y701328D01*
X1144322D01*
X1144297Y701331D01*
X1144247Y701334D01*
X1144185D01*
X1144163Y701331D01*
X1144138D01*
X1144104Y701325D01*
X1144066Y701319D01*
X1144026Y701313D01*
X1143979Y701300D01*
X1143929Y701288D01*
X1143876Y701269D01*
X1143823Y701247D01*
X1143767Y701219D01*
X1143711Y701188D01*
X1143654Y701154D01*
X1143598Y701110D01*
X1143545Y701063D01*
X1143542Y701060D01*
X1143533Y701051D01*
X1143520Y701035D01*
X1143501Y701016D01*
X1143480Y700988D01*
X1143458Y700957D01*
X1143433Y700923D01*
X1143408Y700879D01*
X1143380Y700835D01*
X1143355Y700785D01*
X1143333Y700732D01*
X1143311Y700676D01*
X1143293Y700614D01*
X1143280Y700551D01*
X1143271Y700483D01*
X1143268Y700414D01*
Y700411D01*
Y700398D01*
X1143271Y700377D01*
Y700352D01*
X1143277Y700317D01*
X1143283Y700280D01*
X1143289Y700236D01*
X1143302Y700189D01*
X1143318Y700140D01*
X1143336Y700090D01*
X1143358Y700034D01*
X1143386Y699977D01*
X1143417Y699921D01*
X1143455Y699868D01*
X1143495Y699812D01*
X1143545Y699759D01*
X1143548Y699756D01*
X1143558Y699746D01*
X1143573Y699734D01*
X1143595Y699715D01*
X1143623Y699693D01*
X1143654Y699672D01*
X1143692Y699647D01*
X1143732Y699622D01*
X1143779Y699594D01*
X1143829Y699569D01*
X1143882Y699547D01*
X1143941Y699525D01*
X1144004Y699506D01*
X1144066Y699494D01*
X1144135Y699484D01*
X1144203Y699481D01*
X1144228D01*
X1144247Y699484D01*
X1144272D01*
X1144300Y699487D01*
X1144331Y699491D01*
X1144369Y699497D01*
Y698870D01*
X1144366D01*
X1144359Y698867D01*
X1144347D01*
X1144331Y698864D01*
X1144294Y698860D01*
X1144257Y698857D01*
X1144160D01*
X1144144Y698860D01*
X1144125D01*
X1144082Y698864D01*
X1144026Y698870D01*
X1143963Y698882D01*
X1143892Y698895D01*
X1143814Y698913D01*
X1143729Y698938D01*
X1143642Y698970D01*
X1143548Y699004D01*
X1143455Y699051D01*
X1143361Y699101D01*
X1143268Y699163D01*
X1143177Y699232D01*
X1143087Y699313D01*
X1143080Y699319D01*
X1143068Y699335D01*
X1143043Y699360D01*
X1143015Y699394D01*
X1142977Y699438D01*
X1142940Y699491D01*
X1142896Y699553D01*
X1142856Y699622D01*
X1142812Y699700D01*
X1142768Y699784D01*
X1142731Y699874D01*
X1142694Y699971D01*
X1142665Y700071D01*
X1142640Y700180D01*
X1142628Y700292D01*
X1142622Y700411D01*
Y700414D01*
Y700417D01*
Y700427D01*
Y700439D01*
X1142625Y700455D01*
Y700473D01*
X1142628Y700517D01*
X1142637Y700573D01*
X1142647Y700636D01*
X1142662Y700707D01*
X1142681Y700788D01*
X1142706Y700870D01*
X1142737Y700960D01*
X1142775Y701051D01*
X1142818Y701144D01*
X1142871Y701238D01*
X1142937Y701328D01*
X1143009Y701422D01*
X1143090Y701509D01*
X1143096Y701515D01*
X1143112Y701528D01*
X1143137Y701553D01*
X1143174Y701581D01*
X1143218Y701618D01*
X1143271Y701656D01*
X1143333Y701700D01*
X1143402Y701743D01*
X1143480Y701784D01*
X1143564Y701827D01*
X1143654Y701865D01*
X1143751Y701902D01*
X1143854Y701930D01*
X1143963Y701955D01*
X1144076Y701968D01*
X1144191Y701974D01*
X1144356D01*
Y701325D01*
D02*
G37*
G36*
X1155985Y698870D02*
X1155345D01*
Y700102D01*
X1154628D01*
Y698870D01*
X1153969D01*
Y701980D01*
X1154628D01*
Y700732D01*
X1155345D01*
Y701980D01*
X1155985D01*
Y698870D01*
D02*
G37*
G36*
X1160421Y699871D02*
Y699865D01*
Y699853D01*
X1160418Y699831D01*
X1160415Y699799D01*
X1160412Y699765D01*
X1160406Y699721D01*
X1160393Y699675D01*
X1160381Y699622D01*
X1160365Y699569D01*
X1160343Y699509D01*
X1160318Y699450D01*
X1160287Y699391D01*
X1160250Y699332D01*
X1160209Y699272D01*
X1160159Y699213D01*
X1160103Y699157D01*
X1160100Y699154D01*
X1160087Y699144D01*
X1160072Y699132D01*
X1160047Y699113D01*
X1160016Y699091D01*
X1159978Y699066D01*
X1159938Y699041D01*
X1159891Y699013D01*
X1159838Y698985D01*
X1159779Y698960D01*
X1159719Y698935D01*
X1159651Y698913D01*
X1159582Y698898D01*
X1159507Y698882D01*
X1159432Y698873D01*
X1159351Y698870D01*
X1159332D01*
X1159311Y698873D01*
X1159282Y698876D01*
X1159245Y698879D01*
X1159204Y698885D01*
X1159158Y698895D01*
X1159105Y698907D01*
X1159052Y698923D01*
X1158992Y698942D01*
X1158933Y698966D01*
X1158874Y698994D01*
X1158811Y699029D01*
X1158752Y699069D01*
X1158693Y699113D01*
X1158637Y699166D01*
X1158634Y699169D01*
X1158624Y699179D01*
X1158609Y699197D01*
X1158590Y699219D01*
X1158568Y699247D01*
X1158543Y699285D01*
X1158518Y699322D01*
X1158490Y699369D01*
X1158462Y699419D01*
X1158437Y699475D01*
X1158412Y699534D01*
X1158390Y699597D01*
X1158372Y699665D01*
X1158356Y699734D01*
X1158346Y699809D01*
X1158343Y699887D01*
Y701980D01*
X1158983D01*
Y699871D01*
Y699868D01*
Y699865D01*
X1158986Y699846D01*
X1158989Y699815D01*
X1158999Y699778D01*
X1159011Y699737D01*
X1159030Y699690D01*
X1159058Y699647D01*
X1159095Y699603D01*
X1159101Y699600D01*
X1159117Y699587D01*
X1159139Y699569D01*
X1159173Y699550D01*
X1159214Y699528D01*
X1159261Y699512D01*
X1159314Y699500D01*
X1159370Y699494D01*
X1159385D01*
X1159398Y699497D01*
X1159432Y699500D01*
X1159473Y699506D01*
X1159520Y699522D01*
X1159569Y699541D01*
X1159620Y699566D01*
X1159669Y699603D01*
X1159676Y699609D01*
X1159691Y699622D01*
X1159710Y699647D01*
X1159735Y699678D01*
X1159760Y699718D01*
X1159779Y699765D01*
X1159794Y699818D01*
X1159800Y699878D01*
Y701980D01*
X1160421D01*
Y699871D01*
D02*
G37*
G36*
X1147873Y701990D02*
X1147901Y701987D01*
X1147938Y701983D01*
X1147979Y701974D01*
X1148026Y701965D01*
X1148075Y701952D01*
X1148129Y701934D01*
X1148185Y701912D01*
X1148244Y701884D01*
X1148303Y701852D01*
X1148363Y701815D01*
X1148419Y701768D01*
X1148478Y701718D01*
X1148531Y701659D01*
X1148534Y701656D01*
X1148540Y701647D01*
X1148553Y701631D01*
X1148571Y701609D01*
X1148590Y701581D01*
X1148609Y701550D01*
X1148634Y701512D01*
X1148656Y701472D01*
X1148678Y701425D01*
X1148703Y701378D01*
X1148721Y701325D01*
X1148743Y701272D01*
X1148759Y701216D01*
X1148771Y701157D01*
X1148777Y701097D01*
X1148781Y701035D01*
Y701032D01*
Y701019D01*
Y701001D01*
X1148777Y700976D01*
X1148774Y700948D01*
X1148771Y700913D01*
X1148765Y700873D01*
X1148759Y700829D01*
X1148737Y700736D01*
X1148721Y700686D01*
X1148706Y700636D01*
X1148684Y700586D01*
X1148659Y700536D01*
X1148631Y700486D01*
X1148600Y700436D01*
X1148596Y700433D01*
X1148590Y700427D01*
X1148581Y700411D01*
X1148565Y700395D01*
X1148550Y700377D01*
X1148528Y700352D01*
X1148500Y700327D01*
X1148472Y700302D01*
X1148440Y700274D01*
X1148403Y700246D01*
X1148363Y700218D01*
X1148322Y700189D01*
X1148275Y700165D01*
X1148225Y700140D01*
X1148175Y700121D01*
X1148119Y700102D01*
X1148865Y698876D01*
X1148141D01*
X1147458Y700021D01*
Y698876D01*
X1146831D01*
Y701993D01*
X1147851D01*
X1147873Y701990D01*
D02*
G37*
G36*
X1149773Y699519D02*
X1150780D01*
Y698870D01*
X1149152D01*
Y701980D01*
X1149773D01*
Y699519D01*
D02*
G37*
G36*
X1164883Y701996D02*
X1164886Y701990D01*
X1164895Y701980D01*
X1164905Y701968D01*
X1164930Y701934D01*
X1164961Y701890D01*
X1164995Y701840D01*
X1165033Y701790D01*
X1165064Y701740D01*
X1165092Y701696D01*
X1165095Y701690D01*
X1165104Y701672D01*
X1165120Y701643D01*
X1165139Y701606D01*
X1165161Y701559D01*
X1165186Y701503D01*
X1165214Y701444D01*
X1165242Y701375D01*
Y701372D01*
X1165245Y701366D01*
X1165251Y701353D01*
X1165254Y701338D01*
X1165263Y701319D01*
X1165270Y701297D01*
X1165279Y701269D01*
X1165289Y701241D01*
X1165307Y701175D01*
X1165329Y701100D01*
X1165348Y701019D01*
X1165363Y700935D01*
Y700932D01*
X1165366Y700926D01*
Y700913D01*
X1165370Y700898D01*
X1165373Y700876D01*
X1165376Y700851D01*
X1165379Y700826D01*
X1165385Y700795D01*
X1165392Y700726D01*
X1165398Y700648D01*
X1165401Y700567D01*
X1165404Y700483D01*
Y700480D01*
Y700477D01*
Y700467D01*
Y700455D01*
Y700423D01*
X1165401Y700383D01*
Y700336D01*
X1165398Y700283D01*
X1165392Y700227D01*
X1165385Y700168D01*
Y700165D01*
Y700161D01*
X1165382Y700152D01*
Y700143D01*
X1165379Y700111D01*
X1165373Y700071D01*
X1165366Y700027D01*
X1165357Y699974D01*
X1165348Y699918D01*
X1165335Y699862D01*
Y699859D01*
X1165332Y699849D01*
X1165329Y699837D01*
X1165326Y699818D01*
X1165320Y699796D01*
X1165314Y699771D01*
X1165304Y699743D01*
X1165295Y699709D01*
X1165273Y699637D01*
X1165248Y699559D01*
X1165217Y699475D01*
X1165179Y699391D01*
Y699388D01*
X1165173Y699378D01*
X1165167Y699366D01*
X1165161Y699347D01*
X1165148Y699325D01*
X1165136Y699300D01*
X1165120Y699269D01*
X1165101Y699235D01*
X1165058Y699160D01*
X1165008Y699073D01*
X1164948Y698982D01*
X1164880Y698885D01*
X1164874D01*
X1164858Y698882D01*
X1164845D01*
X1164830Y698879D01*
X1164811Y698876D01*
X1164789Y698870D01*
X1164771D01*
X1164752Y698867D01*
X1164714D01*
X1164702Y698870D01*
X1164690Y698876D01*
X1164686Y698879D01*
X1164683Y698892D01*
X1164680Y698907D01*
Y698926D01*
X1164683Y698932D01*
X1164690Y698948D01*
X1164702Y698973D01*
X1164721Y699004D01*
X1164739Y699044D01*
X1164761Y699091D01*
X1164786Y699141D01*
X1164814Y699197D01*
X1164842Y699254D01*
X1164870Y699316D01*
X1164923Y699441D01*
X1164973Y699562D01*
X1164992Y699622D01*
X1165011Y699675D01*
Y699678D01*
X1165014Y699690D01*
X1165020Y699709D01*
X1165026Y699734D01*
X1165036Y699768D01*
X1165045Y699806D01*
X1165055Y699849D01*
X1165064Y699899D01*
X1165073Y699956D01*
X1165083Y700015D01*
X1165092Y700077D01*
X1165101Y700146D01*
X1165108Y700218D01*
X1165114Y700292D01*
X1165117Y700452D01*
Y700458D01*
Y700470D01*
Y700495D01*
Y700527D01*
X1165114Y700564D01*
X1165111Y700608D01*
X1165108Y700658D01*
X1165104Y700714D01*
X1165101Y700773D01*
X1165092Y700832D01*
X1165076Y700963D01*
X1165051Y701094D01*
X1165020Y701222D01*
Y701225D01*
X1165017Y701238D01*
X1165011Y701257D01*
X1165001Y701281D01*
X1164992Y701313D01*
X1164977Y701350D01*
X1164961Y701394D01*
X1164942Y701444D01*
X1164920Y701497D01*
X1164895Y701556D01*
X1164867Y701622D01*
X1164836Y701690D01*
X1164802Y701762D01*
X1164764Y701837D01*
X1164724Y701918D01*
X1164680Y701999D01*
X1164880D01*
X1164883Y701996D01*
D02*
G37*
G36*
X1146534Y701381D02*
X1145910D01*
Y698864D01*
X1145271D01*
Y701381D01*
X1144662D01*
Y701980D01*
X1146534D01*
Y701381D01*
D02*
G37*
G36*
X1153598Y701974D02*
X1153592Y701962D01*
X1153579Y701937D01*
X1153560Y701905D01*
X1153542Y701868D01*
X1153520Y701824D01*
X1153495Y701774D01*
X1153467Y701721D01*
X1153439Y701662D01*
X1153411Y701600D01*
X1153354Y701469D01*
X1153305Y701338D01*
X1153280Y701272D01*
X1153261Y701207D01*
Y701203D01*
X1153258Y701191D01*
X1153251Y701172D01*
X1153245Y701147D01*
X1153239Y701116D01*
X1153233Y701076D01*
X1153224Y701032D01*
X1153214Y700985D01*
X1153205Y700929D01*
X1153199Y700870D01*
X1153189Y700807D01*
X1153183Y700739D01*
X1153177Y700667D01*
X1153170Y700592D01*
X1153167Y700433D01*
Y700427D01*
Y700414D01*
Y700389D01*
X1153170Y700361D01*
Y700320D01*
X1153174Y700277D01*
X1153177Y700227D01*
X1153180Y700174D01*
X1153186Y700115D01*
X1153192Y700052D01*
X1153211Y699924D01*
X1153236Y699790D01*
X1153270Y699659D01*
Y699656D01*
X1153273Y699647D01*
X1153280Y699631D01*
X1153286Y699609D01*
X1153298Y699581D01*
X1153311Y699547D01*
X1153326Y699509D01*
X1153342Y699463D01*
X1153364Y699413D01*
X1153389Y699357D01*
X1153414Y699297D01*
X1153445Y699232D01*
X1153476Y699160D01*
X1153514Y699085D01*
X1153554Y699004D01*
X1153598Y698920D01*
Y698913D01*
X1153601Y698901D01*
X1153598Y698882D01*
X1153592Y698864D01*
X1153588Y698860D01*
X1153579Y698857D01*
X1153567Y698854D01*
X1153548Y698851D01*
X1153535D01*
X1153529Y698854D01*
X1153517D01*
X1153504Y698857D01*
X1153485Y698860D01*
X1153482D01*
X1153476Y698864D01*
X1153467D01*
X1153458Y698867D01*
X1153429Y698870D01*
X1153401D01*
X1153395Y698876D01*
X1153383Y698892D01*
X1153361Y698916D01*
X1153333Y698951D01*
X1153295Y698994D01*
X1153258Y699044D01*
X1153214Y699104D01*
X1153170Y699166D01*
X1153124Y699238D01*
X1153080Y699313D01*
X1153033Y699391D01*
X1152993Y699475D01*
X1152952Y699559D01*
X1152921Y699647D01*
X1152893Y699737D01*
X1152871Y699828D01*
Y699831D01*
X1152868Y699840D01*
Y699856D01*
X1152865Y699878D01*
X1152858Y699902D01*
X1152855Y699930D01*
X1152852Y699965D01*
X1152846Y699999D01*
X1152837Y700080D01*
X1152830Y700168D01*
X1152824Y700258D01*
X1152821Y700346D01*
Y700349D01*
Y700358D01*
Y700370D01*
Y700389D01*
X1152824Y700411D01*
Y700436D01*
Y700467D01*
X1152827Y700501D01*
X1152833Y700573D01*
X1152843Y700658D01*
X1152855Y700745D01*
X1152871Y700832D01*
Y700835D01*
X1152874Y700842D01*
X1152877Y700857D01*
X1152880Y700873D01*
X1152886Y700895D01*
X1152893Y700923D01*
X1152902Y700954D01*
X1152911Y700988D01*
X1152924Y701022D01*
X1152933Y701063D01*
X1152964Y701154D01*
X1152996Y701250D01*
X1153036Y701356D01*
Y701360D01*
X1153039Y701366D01*
X1153043Y701375D01*
X1153049Y701388D01*
X1153064Y701419D01*
X1153083Y701462D01*
X1153105Y701512D01*
X1153130Y701565D01*
X1153158Y701622D01*
X1153189Y701675D01*
X1153192Y701681D01*
X1153202Y701696D01*
X1153217Y701721D01*
X1153242Y701759D01*
X1153270Y701802D01*
X1153308Y701852D01*
X1153348Y701915D01*
X1153398Y701980D01*
X1153601D01*
X1153598Y701974D01*
D02*
G37*
G36*
X1156643Y695065D02*
X1155464Y698209D01*
X1156110D01*
X1156612Y696824D01*
X1157089Y698209D01*
X1157729D01*
X1156643Y695065D01*
D02*
G37*
G36*
X1159233Y696799D02*
X1159267Y696793D01*
X1159304Y696784D01*
X1159342Y696765D01*
X1159379Y696743D01*
X1159407Y696712D01*
X1159410D01*
X1159417Y696706D01*
X1159423Y696699D01*
X1159435Y696690D01*
X1159467Y696662D01*
X1159501Y696625D01*
X1159532Y696578D01*
X1159563Y696525D01*
X1159576Y696497D01*
X1159582Y696465D01*
X1159588Y696431D01*
X1159591Y696397D01*
Y696394D01*
Y696391D01*
Y696381D01*
Y696369D01*
X1159585Y696338D01*
X1159579Y696300D01*
X1159566Y696259D01*
X1159548Y696216D01*
X1159520Y696172D01*
X1159485Y696135D01*
X1159482Y696132D01*
X1159467Y696119D01*
X1159445Y696107D01*
X1159417Y696088D01*
X1159379Y696072D01*
X1159336Y696057D01*
X1159289Y696044D01*
X1159236Y696041D01*
X1159229D01*
X1159211Y696044D01*
X1159183Y696047D01*
X1159148Y696054D01*
X1159111Y696063D01*
X1159074Y696082D01*
X1159039Y696103D01*
X1159011Y696135D01*
X1159008D01*
X1159002Y696141D01*
X1158992Y696147D01*
X1158983Y696157D01*
X1158952Y696185D01*
X1158918Y696222D01*
X1158883Y696266D01*
X1158852Y696322D01*
X1158843Y696350D01*
X1158833Y696381D01*
X1158827Y696416D01*
X1158824Y696450D01*
Y696453D01*
Y696456D01*
Y696465D01*
X1158827Y696478D01*
X1158830Y696506D01*
X1158836Y696544D01*
X1158849Y696587D01*
X1158867Y696628D01*
X1158893Y696671D01*
X1158927Y696709D01*
X1158933Y696712D01*
X1158945Y696724D01*
X1158967Y696740D01*
X1158996Y696759D01*
X1159033Y696774D01*
X1159077Y696790D01*
X1159123Y696802D01*
X1159176Y696805D01*
X1159204D01*
X1159233Y696799D01*
D02*
G37*
G36*
X1162792Y695888D02*
X1162833Y695882D01*
X1162877Y695869D01*
X1162924Y695851D01*
X1162970Y695826D01*
X1163014Y695791D01*
X1163017D01*
X1163020Y695785D01*
X1163036Y695770D01*
X1163058Y695745D01*
X1163083Y695710D01*
X1163108Y695664D01*
X1163130Y695614D01*
X1163145Y695551D01*
X1163151Y695520D01*
Y695486D01*
Y695483D01*
Y695479D01*
Y695470D01*
Y695458D01*
X1163145Y695430D01*
X1163139Y695392D01*
X1163126Y695349D01*
X1163108Y695308D01*
X1163079Y695264D01*
X1163045Y695227D01*
X1163042Y695224D01*
X1163027Y695211D01*
X1163005Y695199D01*
X1162977Y695180D01*
X1162939Y695164D01*
X1162895Y695149D01*
X1162849Y695136D01*
X1162796Y695133D01*
X1162780D01*
X1162768Y695136D01*
X1162739Y695140D01*
X1162699Y695146D01*
X1162655Y695158D01*
X1162608Y695177D01*
X1162562Y695199D01*
X1162515Y695233D01*
X1162509Y695239D01*
X1162493Y695255D01*
X1162474Y695280D01*
X1162449Y695317D01*
X1162424Y695361D01*
X1162406Y695414D01*
X1162390Y695473D01*
X1162384Y695542D01*
Y695545D01*
Y695548D01*
Y695557D01*
X1162387Y695570D01*
X1162390Y695598D01*
X1162396Y695636D01*
X1162409Y695679D01*
X1162428Y695720D01*
X1162452Y695763D01*
X1162487Y695801D01*
X1162493Y695804D01*
X1162506Y695817D01*
X1162527Y695832D01*
X1162555Y695848D01*
X1162593Y695866D01*
X1162636Y695879D01*
X1162683Y695891D01*
X1162736Y695894D01*
X1162764D01*
X1162792Y695888D01*
D02*
G37*
G36*
X1159233Y695891D02*
X1159267Y695885D01*
X1159304Y695876D01*
X1159342Y695857D01*
X1159379Y695835D01*
X1159407Y695804D01*
X1159410D01*
X1159417Y695798D01*
X1159423Y695791D01*
X1159435Y695782D01*
X1159467Y695754D01*
X1159501Y695717D01*
X1159532Y695670D01*
X1159563Y695617D01*
X1159576Y695589D01*
X1159582Y695557D01*
X1159588Y695523D01*
X1159591Y695489D01*
Y695486D01*
Y695483D01*
Y695473D01*
Y695461D01*
X1159585Y695430D01*
X1159579Y695392D01*
X1159566Y695352D01*
X1159548Y695308D01*
X1159520Y695264D01*
X1159485Y695227D01*
X1159482Y695224D01*
X1159467Y695211D01*
X1159445Y695199D01*
X1159417Y695180D01*
X1159379Y695164D01*
X1159336Y695149D01*
X1159289Y695136D01*
X1159236Y695133D01*
X1159229D01*
X1159211Y695136D01*
X1159183Y695140D01*
X1159148Y695146D01*
X1159111Y695155D01*
X1159074Y695174D01*
X1159039Y695196D01*
X1159011Y695227D01*
X1159008D01*
X1159002Y695233D01*
X1158992Y695239D01*
X1158983Y695249D01*
X1158952Y695277D01*
X1158918Y695314D01*
X1158883Y695358D01*
X1158852Y695414D01*
X1158843Y695442D01*
X1158833Y695473D01*
X1158827Y695508D01*
X1158824Y695542D01*
Y695545D01*
Y695548D01*
Y695557D01*
X1158827Y695570D01*
X1158830Y695598D01*
X1158836Y695636D01*
X1158849Y695679D01*
X1158867Y695720D01*
X1158893Y695763D01*
X1158927Y695801D01*
X1158933Y695804D01*
X1158945Y695817D01*
X1158967Y695832D01*
X1158996Y695851D01*
X1159033Y695866D01*
X1159077Y695882D01*
X1159123Y695894D01*
X1159176Y695898D01*
X1159204D01*
X1159233Y695891D01*
D02*
G37*
G36*
X1158321Y695888D02*
X1158362Y695882D01*
X1158406Y695869D01*
X1158453Y695851D01*
X1158499Y695826D01*
X1158543Y695791D01*
X1158546D01*
X1158549Y695785D01*
X1158565Y695770D01*
X1158587Y695745D01*
X1158612Y695710D01*
X1158637Y695664D01*
X1158659Y695614D01*
X1158674Y695551D01*
X1158680Y695520D01*
Y695486D01*
Y695483D01*
Y695479D01*
Y695470D01*
Y695458D01*
X1158674Y695430D01*
X1158668Y695392D01*
X1158655Y695349D01*
X1158637Y695308D01*
X1158609Y695264D01*
X1158574Y695227D01*
X1158571Y695224D01*
X1158556Y695211D01*
X1158534Y695199D01*
X1158506Y695180D01*
X1158468Y695164D01*
X1158424Y695149D01*
X1158378Y695136D01*
X1158325Y695133D01*
X1158309D01*
X1158297Y695136D01*
X1158269Y695140D01*
X1158228Y695146D01*
X1158184Y695158D01*
X1158138Y695177D01*
X1158091Y695199D01*
X1158044Y695233D01*
X1158038Y695239D01*
X1158022Y695255D01*
X1158003Y695280D01*
X1157978Y695317D01*
X1157953Y695361D01*
X1157935Y695414D01*
X1157919Y695473D01*
X1157913Y695542D01*
Y695545D01*
Y695548D01*
Y695557D01*
X1157916Y695570D01*
X1157919Y695598D01*
X1157925Y695636D01*
X1157938Y695679D01*
X1157957Y695720D01*
X1157981Y695763D01*
X1158016Y695801D01*
X1158022Y695804D01*
X1158035Y695817D01*
X1158056Y695832D01*
X1158084Y695848D01*
X1158122Y695866D01*
X1158165Y695879D01*
X1158212Y695891D01*
X1158265Y695894D01*
X1158294D01*
X1158321Y695888D01*
D02*
G37*
G36*
X1152225Y698225D02*
X1152253Y698222D01*
X1152291Y698219D01*
X1152331Y698209D01*
X1152378Y698200D01*
X1152428Y698188D01*
X1152481Y698169D01*
X1152537Y698147D01*
X1152596Y698119D01*
X1152656Y698088D01*
X1152715Y698050D01*
X1152771Y698004D01*
X1152830Y697954D01*
X1152883Y697894D01*
X1152886Y697891D01*
X1152893Y697882D01*
X1152905Y697866D01*
X1152924Y697845D01*
X1152943Y697816D01*
X1152961Y697785D01*
X1152986Y697748D01*
X1153008Y697707D01*
X1153030Y697660D01*
X1153055Y697614D01*
X1153074Y697561D01*
X1153096Y697507D01*
X1153111Y697451D01*
X1153124Y697392D01*
X1153130Y697333D01*
X1153133Y697270D01*
Y697267D01*
Y697255D01*
Y697236D01*
X1153130Y697211D01*
X1153127Y697183D01*
X1153124Y697149D01*
X1153117Y697108D01*
X1153111Y697064D01*
X1153089Y696971D01*
X1153074Y696921D01*
X1153058Y696871D01*
X1153036Y696821D01*
X1153011Y696771D01*
X1152983Y696721D01*
X1152952Y696671D01*
X1152949Y696668D01*
X1152943Y696662D01*
X1152933Y696646D01*
X1152918Y696631D01*
X1152902Y696612D01*
X1152880Y696587D01*
X1152852Y696562D01*
X1152824Y696537D01*
X1152793Y696509D01*
X1152756Y696481D01*
X1152715Y696453D01*
X1152674Y696425D01*
X1152627Y696400D01*
X1152578Y696375D01*
X1152528Y696356D01*
X1152472Y696338D01*
X1153217Y695111D01*
X1152493D01*
X1151810Y696256D01*
Y695111D01*
X1151183D01*
Y698228D01*
X1152203D01*
X1152225Y698225D01*
D02*
G37*
G36*
X1164434Y698219D02*
X1164452Y698216D01*
X1164477Y698213D01*
X1164505Y698206D01*
X1164540Y698200D01*
X1164574Y698194D01*
X1164649Y698175D01*
X1164727Y698150D01*
X1164808Y698119D01*
X1164883Y698082D01*
X1164886D01*
X1164892Y698075D01*
X1164902Y698069D01*
X1164914Y698063D01*
X1164952Y698035D01*
X1164998Y698000D01*
X1165048Y697957D01*
X1165104Y697904D01*
X1165164Y697838D01*
X1165217Y697766D01*
Y697763D01*
X1165223Y697760D01*
X1165226Y697751D01*
X1165236Y697738D01*
X1165251Y697707D01*
X1165276Y697667D01*
X1165298Y697617D01*
X1165323Y697567D01*
X1165345Y697514D01*
X1165363Y697461D01*
X1165366Y697455D01*
X1165370Y697436D01*
X1165376Y697408D01*
X1165385Y697370D01*
X1165392Y697324D01*
X1165398Y697267D01*
X1165401Y697208D01*
X1165404Y697139D01*
Y697133D01*
Y697114D01*
X1165401Y697089D01*
X1165395Y697052D01*
X1165388Y697012D01*
X1165376Y696965D01*
X1165360Y696912D01*
X1165338Y696859D01*
X1165335Y696852D01*
X1165329Y696843D01*
X1165320Y696827D01*
X1165307Y696802D01*
X1165298Y696784D01*
X1165285Y696765D01*
X1165273Y696743D01*
X1165257Y696715D01*
X1165242Y696687D01*
X1165223Y696653D01*
X1165220Y696650D01*
X1165214Y696640D01*
X1165204Y696622D01*
X1165192Y696603D01*
X1165176Y696575D01*
X1165158Y696544D01*
X1165136Y696509D01*
X1165114Y696472D01*
X1165061Y696391D01*
X1165001Y696306D01*
X1164939Y696222D01*
X1164874Y696141D01*
X1164870Y696138D01*
X1164867Y696129D01*
X1164858Y696116D01*
X1164845Y696097D01*
X1164830Y696075D01*
X1164811Y696051D01*
X1164767Y695991D01*
X1164717Y695923D01*
X1164661Y695854D01*
X1164602Y695785D01*
X1164543Y695723D01*
X1165345D01*
Y695105D01*
X1163429D01*
X1164749Y697068D01*
X1164752Y697071D01*
X1164755Y697077D01*
X1164761Y697089D01*
X1164767Y697105D01*
X1164774Y697124D01*
X1164780Y697149D01*
X1164786Y697174D01*
Y697202D01*
Y697205D01*
Y697208D01*
X1164783Y697227D01*
X1164780Y697255D01*
X1164774Y697289D01*
X1164758Y697333D01*
X1164739Y697380D01*
X1164714Y697430D01*
X1164677Y697479D01*
Y697483D01*
X1164671Y697486D01*
X1164658Y697501D01*
X1164636Y697523D01*
X1164608Y697551D01*
X1164574Y697579D01*
X1164534Y697607D01*
X1164490Y697629D01*
X1164443Y697642D01*
X1164440D01*
X1164427Y697645D01*
X1164409D01*
X1164390Y697648D01*
X1164387D01*
X1164374Y697651D01*
X1164356Y697654D01*
X1164315D01*
X1164293Y697651D01*
X1164262Y697648D01*
X1164228Y697639D01*
X1164187Y697629D01*
X1164150Y697614D01*
X1164109Y697595D01*
X1164106Y697592D01*
X1164093Y697582D01*
X1164075Y697570D01*
X1164050Y697551D01*
X1164025Y697526D01*
X1164000Y697495D01*
X1163972Y697458D01*
X1163950Y697414D01*
Y697411D01*
X1163947Y697405D01*
X1163941Y697395D01*
X1163934Y697380D01*
X1163922Y697342D01*
X1163910Y697298D01*
Y697295D01*
X1163906Y697289D01*
Y697277D01*
X1163903Y697261D01*
X1163900Y697221D01*
X1163897Y697177D01*
Y697171D01*
Y697152D01*
X1163900Y697127D01*
X1163906Y697093D01*
X1163916Y697049D01*
X1163928Y697002D01*
X1163944Y696952D01*
X1163969Y696902D01*
X1163972Y696896D01*
X1163978Y696890D01*
X1163984Y696877D01*
X1163997Y696862D01*
X1164009Y696843D01*
X1164025Y696818D01*
X1164044Y696787D01*
X1163685Y696441D01*
X1163682Y696444D01*
X1163672Y696450D01*
X1163657Y696462D01*
X1163641Y696478D01*
X1163610Y696506D01*
X1163597Y696519D01*
X1163588Y696531D01*
X1163582Y696537D01*
X1163566Y696553D01*
X1163544Y696575D01*
X1163516Y696603D01*
X1163488Y696637D01*
X1163460Y696668D01*
X1163435Y696703D01*
X1163416Y696731D01*
Y696734D01*
X1163410Y696740D01*
X1163404Y696756D01*
X1163395Y696771D01*
X1163385Y696793D01*
X1163376Y696818D01*
X1163363Y696846D01*
X1163351Y696880D01*
X1163326Y696952D01*
X1163307Y697030D01*
X1163292Y697118D01*
X1163286Y697205D01*
Y697208D01*
Y697217D01*
Y697230D01*
X1163289Y697249D01*
Y697270D01*
X1163292Y697298D01*
X1163298Y697327D01*
X1163304Y697361D01*
X1163320Y697436D01*
X1163345Y697517D01*
X1163382Y697604D01*
X1163404Y697651D01*
X1163429Y697695D01*
Y697698D01*
X1163435Y697704D01*
X1163441Y697714D01*
X1163451Y697726D01*
X1163473Y697760D01*
X1163504Y697804D01*
X1163538Y697851D01*
X1163573Y697897D01*
X1163607Y697941D01*
X1163641Y697979D01*
X1163647Y697985D01*
X1163663Y697997D01*
X1163688Y698019D01*
X1163719Y698044D01*
X1163760Y698072D01*
X1163810Y698100D01*
X1163863Y698132D01*
X1163922Y698156D01*
X1163925D01*
X1163928Y698160D01*
X1163937Y698163D01*
X1163950Y698166D01*
X1163984Y698178D01*
X1164028Y698191D01*
X1164078Y698200D01*
X1164137Y698213D01*
X1164200Y698219D01*
X1164262Y698222D01*
X1164418D01*
X1164434Y698219D01*
D02*
G37*
G36*
X1162156Y695105D02*
X1161535D01*
Y698216D01*
X1162156D01*
Y695105D01*
D02*
G37*
G36*
X1155189Y697585D02*
X1154372D01*
X1154353Y697582D01*
X1154312Y697579D01*
X1154269Y697570D01*
X1154265D01*
X1154259Y697567D01*
X1154250Y697564D01*
X1154237Y697557D01*
X1154206Y697536D01*
X1154187Y697523D01*
X1154172Y697504D01*
X1154169Y697501D01*
X1154163Y697492D01*
X1154153Y697479D01*
X1154141Y697461D01*
X1154128Y697436D01*
X1154119Y697408D01*
X1154113Y697376D01*
X1154109Y697342D01*
Y696946D01*
X1155183D01*
Y696347D01*
X1154109D01*
Y696007D01*
Y696004D01*
Y695991D01*
Y695976D01*
Y695954D01*
X1154113Y695910D01*
Y695888D01*
X1154116Y695873D01*
Y695869D01*
X1154119Y695866D01*
X1154125Y695848D01*
X1154138Y695823D01*
X1154160Y695791D01*
X1154163Y695788D01*
X1154172Y695779D01*
X1154187Y695763D01*
X1154206Y695751D01*
X1154231Y695735D01*
X1154262Y695720D01*
X1154294Y695710D01*
X1154331Y695707D01*
X1155189D01*
Y695089D01*
X1154390D01*
X1154368Y695093D01*
X1154347D01*
X1154290Y695099D01*
X1154231Y695105D01*
X1154163Y695118D01*
X1154097Y695133D01*
X1154031Y695155D01*
X1154028D01*
X1154025Y695158D01*
X1154016Y695161D01*
X1154004Y695167D01*
X1153972Y695183D01*
X1153929Y695208D01*
X1153882Y695239D01*
X1153829Y695280D01*
X1153769Y695330D01*
X1153713Y695386D01*
Y695389D01*
X1153707Y695392D01*
X1153695Y695411D01*
X1153670Y695436D01*
X1153645Y695470D01*
X1153613Y695511D01*
X1153585Y695557D01*
X1153557Y695604D01*
X1153532Y695654D01*
X1153529Y695660D01*
X1153523Y695676D01*
X1153514Y695704D01*
X1153504Y695742D01*
X1153495Y695788D01*
X1153485Y695842D01*
X1153479Y695898D01*
X1153476Y695963D01*
Y697380D01*
Y697383D01*
Y697386D01*
Y697395D01*
Y697408D01*
X1153479Y697439D01*
X1153482Y697479D01*
X1153489Y697526D01*
X1153501Y697573D01*
X1153514Y697626D01*
X1153532Y697673D01*
X1153535Y697679D01*
X1153542Y697695D01*
X1153557Y697720D01*
X1153576Y697751D01*
X1153601Y697791D01*
X1153632Y697835D01*
X1153670Y697882D01*
X1153713Y697932D01*
X1153716Y697935D01*
X1153720Y697938D01*
X1153735Y697954D01*
X1153760Y697979D01*
X1153794Y698010D01*
X1153835Y698041D01*
X1153882Y698075D01*
X1153929Y698110D01*
X1153982Y698138D01*
X1153988Y698141D01*
X1154004Y698147D01*
X1154028Y698160D01*
X1154063Y698172D01*
X1154106Y698181D01*
X1154156Y698194D01*
X1154216Y698200D01*
X1154278Y698203D01*
X1155189D01*
Y697585D01*
D02*
G37*
%LPC*%
G36*
X967866Y714583D02*
X967591D01*
Y714566D01*
X967505D01*
Y714549D01*
X967436D01*
Y714532D01*
X967385D01*
Y714514D01*
X967333D01*
Y714497D01*
X967299D01*
Y714480D01*
X967264D01*
Y714463D01*
X967230D01*
Y714445D01*
X967196D01*
Y714428D01*
X967161D01*
Y714411D01*
X967144D01*
Y714394D01*
X967127D01*
Y714377D01*
X967092D01*
Y714360D01*
X967075D01*
Y714342D01*
X967058D01*
Y714325D01*
X967041D01*
Y714308D01*
X967024D01*
Y714291D01*
X967006D01*
Y714274D01*
X966989D01*
Y714256D01*
X966972D01*
Y714239D01*
X966955D01*
Y714222D01*
X966938D01*
Y714205D01*
X966920D01*
Y714187D01*
X966903D01*
Y714170D01*
X966886D01*
Y714153D01*
X966869D01*
Y714119D01*
X966852D01*
Y714102D01*
X966834D01*
Y714067D01*
X966817D01*
Y714050D01*
X966800D01*
Y714015D01*
X966783D01*
Y713998D01*
X966766D01*
Y713964D01*
X966748D01*
Y713930D01*
X966731D01*
Y713895D01*
X966714D01*
Y713861D01*
X966697D01*
Y713809D01*
X966680D01*
Y713758D01*
X966662D01*
Y713706D01*
X966645D01*
Y713654D01*
X966628D01*
Y713568D01*
X966611D01*
Y713482D01*
X966594D01*
Y713276D01*
X966576D01*
Y713156D01*
X966594D01*
Y712966D01*
X966611D01*
Y712880D01*
X966628D01*
Y712812D01*
X966645D01*
Y712743D01*
X966662D01*
Y712691D01*
X966680D01*
Y712657D01*
X966697D01*
Y712605D01*
X966714D01*
Y712571D01*
X966731D01*
Y712536D01*
X966748D01*
Y712519D01*
X966766D01*
Y712485D01*
X966783D01*
Y712468D01*
X966800D01*
Y712433D01*
X966817D01*
Y712416D01*
X966834D01*
Y712382D01*
X966852D01*
Y712364D01*
X966869D01*
Y712347D01*
X966886D01*
Y712330D01*
X966903D01*
Y712313D01*
X966920D01*
Y712296D01*
X966938D01*
Y712278D01*
X966955D01*
Y712261D01*
X966972D01*
Y712244D01*
X966989D01*
Y712227D01*
X967006D01*
Y712210D01*
X967041D01*
Y712192D01*
X967058D01*
Y712175D01*
X967075D01*
Y712158D01*
X967110D01*
Y712141D01*
X967144D01*
Y712124D01*
X967161D01*
Y712106D01*
X967196D01*
Y712089D01*
X967247D01*
Y712072D01*
X967282D01*
Y712055D01*
X967333D01*
Y712038D01*
X967385D01*
Y712020D01*
X967454D01*
Y712003D01*
X967574D01*
Y711986D01*
X967849D01*
Y712003D01*
X967952D01*
Y712020D01*
X968021D01*
Y712038D01*
X968073D01*
Y712055D01*
X968124D01*
Y712072D01*
X968159D01*
Y712089D01*
X968193D01*
Y712106D01*
X968227D01*
Y712124D01*
X968262D01*
Y712141D01*
X968296D01*
Y712158D01*
X968314D01*
Y712175D01*
X968348D01*
Y712192D01*
X968365D01*
Y712210D01*
X968382D01*
Y712227D01*
X968417D01*
Y712244D01*
X968434D01*
Y712261D01*
X968451D01*
Y712278D01*
X968468D01*
Y712296D01*
X968486D01*
Y712313D01*
X968503D01*
Y712330D01*
X968520D01*
Y712347D01*
X968537D01*
Y712364D01*
X968554D01*
Y712382D01*
X968571D01*
Y712399D01*
X968589D01*
Y712416D01*
X968606D01*
Y712450D01*
X968623D01*
Y712468D01*
X968640D01*
Y712485D01*
X968657D01*
Y712519D01*
X968675D01*
Y712536D01*
X968692D01*
Y712571D01*
X968709D01*
Y712588D01*
X968726D01*
Y712622D01*
X968744D01*
Y712657D01*
X968761D01*
Y712691D01*
X968778D01*
Y712726D01*
X968795D01*
Y712760D01*
X968812D01*
Y712812D01*
X968830D01*
Y712863D01*
X968847D01*
Y712915D01*
X968864D01*
Y712984D01*
X968881D01*
Y713018D01*
Y713035D01*
Y713087D01*
X968898D01*
Y713259D01*
X968915D01*
Y713379D01*
X968898D01*
Y713534D01*
X968881D01*
Y713620D01*
X968864D01*
Y713689D01*
X968847D01*
Y713740D01*
X968830D01*
Y713792D01*
X968812D01*
Y713826D01*
X968795D01*
Y713878D01*
X968778D01*
Y713912D01*
X968761D01*
Y713947D01*
X968744D01*
Y713964D01*
X968726D01*
Y713998D01*
X968709D01*
Y714015D01*
X968692D01*
Y714050D01*
X968675D01*
Y714067D01*
X968657D01*
Y714102D01*
X968640D01*
Y714119D01*
X968623D01*
Y714136D01*
X968606D01*
Y714153D01*
X968589D01*
Y714187D01*
X968571D01*
Y714205D01*
X968554D01*
Y714222D01*
X968537D01*
Y714239D01*
X968520D01*
Y714256D01*
X968503D01*
Y714274D01*
X968486D01*
Y714291D01*
X968468D01*
Y714308D01*
X968434D01*
Y714325D01*
X968417D01*
Y714342D01*
X968400D01*
Y714360D01*
X968382D01*
Y714377D01*
X968348D01*
Y714394D01*
X968331D01*
Y714411D01*
X968296D01*
Y714428D01*
X968279D01*
Y714445D01*
X968245D01*
Y714463D01*
X968210D01*
Y714480D01*
X968176D01*
Y714497D01*
X968141D01*
Y714514D01*
X968090D01*
Y714532D01*
X968038D01*
Y714549D01*
X967970D01*
Y714566D01*
X967866D01*
Y714583D01*
D02*
G37*
G36*
X989124Y722219D02*
X988901D01*
Y722202D01*
X988780D01*
Y722185D01*
X988694D01*
Y722168D01*
X988626D01*
Y722151D01*
X988591D01*
Y722133D01*
X988540D01*
Y722116D01*
X988505D01*
Y722099D01*
X988471D01*
Y722082D01*
X988436D01*
Y722065D01*
X988402D01*
Y722048D01*
X988368D01*
Y722030D01*
X988350D01*
Y722013D01*
X988316D01*
Y721996D01*
X988299D01*
Y721979D01*
X988264D01*
Y721961D01*
X988247D01*
Y721944D01*
X988230D01*
Y721927D01*
X988213D01*
Y721910D01*
X988196D01*
Y721893D01*
X988161D01*
Y721875D01*
X988144D01*
Y721858D01*
X988127D01*
Y721841D01*
X988110D01*
Y721824D01*
X988092D01*
Y721807D01*
X988075D01*
Y721772D01*
X988058D01*
Y721755D01*
X988041D01*
Y721738D01*
X988024D01*
Y721721D01*
X988006D01*
Y721686D01*
X987989D01*
Y721669D01*
X987972D01*
Y721652D01*
X987955D01*
Y721618D01*
X987938D01*
Y721583D01*
X987920D01*
Y721549D01*
X987903D01*
Y721514D01*
X987886D01*
Y721480D01*
X987869D01*
Y721446D01*
X987852D01*
Y721394D01*
X987834D01*
Y721325D01*
X987817D01*
Y721222D01*
X987800D01*
Y720929D01*
X987817D01*
Y720826D01*
X987834D01*
Y720757D01*
X987852D01*
Y720706D01*
X987869D01*
Y720654D01*
X987886D01*
Y720620D01*
X987903D01*
Y720585D01*
X987920D01*
Y720551D01*
X987938D01*
Y720517D01*
X987955D01*
Y720482D01*
X987972D01*
Y720448D01*
X987989D01*
Y720431D01*
X988006D01*
Y720414D01*
X988024D01*
Y720379D01*
X988041D01*
Y720362D01*
X988058D01*
Y720345D01*
X988075D01*
Y720328D01*
X988092D01*
Y720293D01*
X988110D01*
Y720276D01*
X988127D01*
Y720259D01*
X988144D01*
Y720242D01*
X988161D01*
Y720224D01*
X988178D01*
Y720207D01*
X988213D01*
Y720190D01*
X988230D01*
Y720173D01*
X988247D01*
Y720156D01*
X988264D01*
Y720138D01*
X988299D01*
Y720121D01*
X988316D01*
Y720104D01*
X988333D01*
Y720087D01*
X988368D01*
Y720070D01*
X988402D01*
Y720052D01*
X988436D01*
Y720035D01*
X988454D01*
Y720018D01*
X988488D01*
Y720001D01*
X988540D01*
Y719984D01*
X988574D01*
Y719966D01*
X988626D01*
Y719949D01*
X988694D01*
Y719932D01*
X988763D01*
Y719915D01*
X988901D01*
Y719898D01*
X989124D01*
Y719915D01*
X989262D01*
Y719932D01*
X989348D01*
Y719949D01*
X989400D01*
Y719966D01*
X989451D01*
Y719984D01*
X989503D01*
Y720001D01*
X989537D01*
Y720018D01*
X989571D01*
Y720035D01*
X989606D01*
Y720052D01*
X989640D01*
Y720070D01*
X989657D01*
Y720087D01*
X989692D01*
Y720104D01*
X989709D01*
Y720121D01*
X989744D01*
Y720138D01*
X989761D01*
Y720156D01*
X989778D01*
Y720173D01*
X989812D01*
Y720190D01*
X989830D01*
Y720207D01*
X989847D01*
Y720224D01*
X989864D01*
Y720242D01*
X989881D01*
Y720259D01*
X989898D01*
Y720276D01*
X989915D01*
Y720293D01*
X989933D01*
Y720310D01*
X989950D01*
Y720328D01*
X989967D01*
Y720345D01*
X989984D01*
Y720362D01*
X990001D01*
Y720396D01*
X990019D01*
Y720414D01*
X990036D01*
Y720448D01*
X990053D01*
Y720465D01*
X990070D01*
Y720500D01*
X990088D01*
Y720517D01*
X990105D01*
Y720551D01*
X990122D01*
Y720585D01*
X990139D01*
Y720620D01*
X990156D01*
Y720672D01*
X990174D01*
Y720706D01*
X990191D01*
Y720775D01*
X990208D01*
Y720844D01*
X990225D01*
Y720998D01*
X990242D01*
Y721136D01*
X990225D01*
Y721274D01*
X990208D01*
Y721359D01*
X990191D01*
Y721411D01*
X990174D01*
Y721463D01*
X990156D01*
Y721497D01*
X990139D01*
Y721531D01*
X990122D01*
Y721566D01*
X990105D01*
Y721600D01*
X990088D01*
Y721635D01*
X990070D01*
Y721652D01*
X990053D01*
Y721686D01*
X990036D01*
Y721703D01*
X990019D01*
Y721738D01*
X990001D01*
Y721755D01*
X989984D01*
Y721772D01*
X989967D01*
Y721790D01*
X989950D01*
Y721807D01*
X989933D01*
Y721824D01*
X989915D01*
Y721841D01*
X989898D01*
Y721858D01*
X989881D01*
Y721875D01*
X989864D01*
Y721893D01*
X989847D01*
Y721910D01*
X989830D01*
Y721927D01*
X989812D01*
Y721944D01*
X989795D01*
Y721961D01*
X989761D01*
Y721979D01*
X989744D01*
Y721996D01*
X989726D01*
Y722013D01*
X989692D01*
Y722030D01*
X989657D01*
Y722048D01*
X989640D01*
Y722065D01*
X989606D01*
Y722082D01*
X989571D01*
Y722099D01*
X989537D01*
Y722116D01*
X989503D01*
Y722133D01*
X989451D01*
Y722151D01*
X989400D01*
Y722168D01*
X989348D01*
Y722185D01*
X989262D01*
Y722202D01*
X989124D01*
Y722219D01*
D02*
G37*
G36*
X994215Y722237D02*
X993974D01*
Y722219D01*
X993854D01*
Y722202D01*
X993768D01*
Y722185D01*
X993717D01*
Y722168D01*
X993665D01*
Y722151D01*
X993613D01*
Y722133D01*
X993579D01*
Y722116D01*
X993544D01*
Y722099D01*
X993510D01*
Y722082D01*
X993476D01*
Y722065D01*
X993458D01*
Y722048D01*
X993424D01*
Y722030D01*
X993390D01*
Y722013D01*
X993373D01*
Y721996D01*
X993355D01*
Y721979D01*
X993321D01*
Y721961D01*
X993304D01*
Y721944D01*
X993287D01*
Y721927D01*
X993269D01*
Y721910D01*
X993252D01*
Y721893D01*
X993235D01*
Y721875D01*
X993218D01*
Y721858D01*
X993200D01*
Y721841D01*
X993183D01*
Y721824D01*
X993166D01*
Y721807D01*
X993149D01*
Y721790D01*
X993132D01*
Y721772D01*
X993114D01*
Y721755D01*
X993097D01*
Y721721D01*
X993080D01*
Y721703D01*
X993063D01*
Y721669D01*
X993046D01*
Y721652D01*
X993029D01*
Y721618D01*
X993011D01*
Y721583D01*
X992994D01*
Y721566D01*
X992977D01*
Y721531D01*
X992960D01*
Y721480D01*
X992943D01*
Y721446D01*
X992925D01*
Y721394D01*
X992908D01*
Y721325D01*
X992891D01*
Y721222D01*
X992874D01*
Y720929D01*
X992891D01*
Y720826D01*
X992908D01*
Y720757D01*
X992925D01*
Y720706D01*
X992943D01*
Y720654D01*
X992960D01*
Y720620D01*
X992977D01*
Y720585D01*
X992994D01*
Y720551D01*
X993011D01*
Y720517D01*
X993029D01*
Y720482D01*
X993046D01*
Y720465D01*
X993063D01*
Y720431D01*
X993080D01*
Y720414D01*
X993097D01*
Y720396D01*
X993114D01*
Y720379D01*
X993132D01*
Y720345D01*
X993149D01*
Y720328D01*
X993166D01*
Y720310D01*
X993183D01*
Y720293D01*
X993200D01*
Y720276D01*
X993218D01*
Y720259D01*
X993235D01*
Y720242D01*
X993252D01*
Y720224D01*
X993269D01*
Y720207D01*
X993304D01*
Y720190D01*
X993321D01*
Y720173D01*
X993338D01*
Y720156D01*
X993373D01*
Y720138D01*
X993390D01*
Y720121D01*
X993424D01*
Y720104D01*
X993441D01*
Y720087D01*
X993476D01*
Y720070D01*
X993510D01*
Y720052D01*
X993544D01*
Y720035D01*
X993579D01*
Y720018D01*
X993613D01*
Y720001D01*
X993665D01*
Y719984D01*
X993717D01*
Y719966D01*
X993785D01*
Y719949D01*
X993871D01*
Y719932D01*
X994009D01*
Y719915D01*
X994232D01*
Y719932D01*
X994370D01*
Y719949D01*
X994439D01*
Y719966D01*
X994508D01*
Y719984D01*
X994559D01*
Y720001D01*
X994594D01*
Y720018D01*
X994628D01*
Y720035D01*
X994662D01*
Y720052D01*
X994697D01*
Y720070D01*
X994731D01*
Y720087D01*
X994766D01*
Y720104D01*
X994783D01*
Y720121D01*
X994817D01*
Y720138D01*
X994834D01*
Y720156D01*
X994852D01*
Y720173D01*
X994886D01*
Y720190D01*
X994903D01*
Y720207D01*
X994920D01*
Y720224D01*
X994938D01*
Y720242D01*
X994955D01*
Y720259D01*
X994972D01*
Y720276D01*
X994989D01*
Y720293D01*
X995006D01*
Y720310D01*
X995024D01*
Y720328D01*
X995041D01*
Y720345D01*
X995058D01*
Y720362D01*
X995075D01*
Y720396D01*
X995092D01*
Y720414D01*
X995110D01*
Y720431D01*
X995127D01*
Y720465D01*
X995144D01*
Y720482D01*
X995161D01*
Y720517D01*
X995178D01*
Y720551D01*
X995196D01*
Y720585D01*
X995213D01*
Y720620D01*
X995230D01*
Y720654D01*
X995247D01*
Y720689D01*
X995264D01*
Y720740D01*
X995282D01*
Y720809D01*
X995299D01*
Y720912D01*
X995316D01*
Y721239D01*
X995299D01*
Y721342D01*
X995282D01*
Y721411D01*
X995264D01*
Y721463D01*
X995247D01*
Y721497D01*
X995230D01*
Y721531D01*
X995213D01*
Y721566D01*
X995196D01*
Y721600D01*
X995178D01*
Y721635D01*
X995161D01*
Y721669D01*
X995144D01*
Y721686D01*
X995127D01*
Y721721D01*
X995110D01*
Y721738D01*
X995092D01*
Y721755D01*
X995075D01*
Y721772D01*
X995058D01*
Y721807D01*
X995041D01*
Y721824D01*
X995024D01*
Y721841D01*
X995006D01*
Y721858D01*
X994989D01*
Y721875D01*
X994972D01*
Y721893D01*
X994955D01*
Y721910D01*
X994938D01*
Y721927D01*
X994920D01*
Y721944D01*
X994886D01*
Y721961D01*
X994869D01*
Y721979D01*
X994852D01*
Y721996D01*
X994834D01*
Y722013D01*
X994800D01*
Y722030D01*
X994783D01*
Y722048D01*
X994748D01*
Y722065D01*
X994714D01*
Y722082D01*
X994680D01*
Y722099D01*
X994662D01*
Y722116D01*
X994611D01*
Y722133D01*
X994576D01*
Y722151D01*
X994542D01*
Y722168D01*
X994490D01*
Y722185D01*
X994422D01*
Y722202D01*
X994336D01*
Y722219D01*
X994215D01*
Y722237D01*
D02*
G37*
G36*
X982795Y714583D02*
X982520D01*
Y714566D01*
X982417D01*
Y714549D01*
X982348D01*
Y714532D01*
X982296D01*
Y714514D01*
X982245D01*
Y714497D01*
X982210D01*
Y714480D01*
X982176D01*
Y714463D01*
X982141D01*
Y714445D01*
X982107D01*
Y714428D01*
X982073D01*
Y714411D01*
X982055D01*
Y714394D01*
X982021D01*
Y714377D01*
X982004D01*
Y714360D01*
X981987D01*
Y714342D01*
X981952D01*
Y714325D01*
X981935D01*
Y714308D01*
X981918D01*
Y714291D01*
X981901D01*
Y714274D01*
X981884D01*
Y714256D01*
X981866D01*
Y714239D01*
X981849D01*
Y714222D01*
X981832D01*
Y714205D01*
X981815D01*
Y714187D01*
X981798D01*
Y714153D01*
X981780D01*
Y714136D01*
X981763D01*
Y714119D01*
X981746D01*
Y714084D01*
X981729D01*
Y714067D01*
X981712D01*
Y714033D01*
X981694D01*
Y713998D01*
X981677D01*
Y713981D01*
X981660D01*
Y713947D01*
X981643D01*
Y713895D01*
X981626D01*
Y713861D01*
X981608D01*
Y713809D01*
X981591D01*
Y713758D01*
X981574D01*
Y713689D01*
X981557D01*
Y713620D01*
X981540D01*
Y713499D01*
X981522D01*
Y713087D01*
X981540D01*
Y712984D01*
X981557D01*
Y712915D01*
X981574D01*
Y712846D01*
X981591D01*
Y712794D01*
X981608D01*
Y712743D01*
X981626D01*
Y712708D01*
X981643D01*
Y712674D01*
X981660D01*
Y712640D01*
X981677D01*
Y712605D01*
X981694D01*
Y712571D01*
X981712D01*
Y712554D01*
X981729D01*
Y712519D01*
X981746D01*
Y712502D01*
X981763D01*
Y712468D01*
X981780D01*
Y712450D01*
X981798D01*
Y712433D01*
X981815D01*
Y712399D01*
X981832D01*
Y712382D01*
X981849D01*
Y712364D01*
X981866D01*
Y712347D01*
X981884D01*
Y712330D01*
X981901D01*
Y712313D01*
X981918D01*
Y712296D01*
X981935D01*
Y712278D01*
X981952D01*
Y712261D01*
X981970D01*
Y712244D01*
X982004D01*
Y712227D01*
X982021D01*
Y712210D01*
X982038D01*
Y712192D01*
X982073D01*
Y712175D01*
X982090D01*
Y712158D01*
X982124D01*
Y712141D01*
X982141D01*
Y712124D01*
X982176D01*
Y712106D01*
X982210D01*
Y712089D01*
X982262D01*
Y712072D01*
X982296D01*
Y712055D01*
X982348D01*
Y712038D01*
X982399D01*
Y712020D01*
X982485D01*
Y712003D01*
X982589D01*
Y711986D01*
X982864D01*
Y712003D01*
X982967D01*
Y712020D01*
X983036D01*
Y712038D01*
X983088D01*
Y712055D01*
X983139D01*
Y712072D01*
X983173D01*
Y712089D01*
X983208D01*
Y712106D01*
X983242D01*
Y712124D01*
X983277D01*
Y712141D01*
X983294D01*
Y712158D01*
X983328D01*
Y712175D01*
X983346D01*
Y712192D01*
X983363D01*
Y712210D01*
X983397D01*
Y712227D01*
X983414D01*
Y712244D01*
X983432D01*
Y712261D01*
X983449D01*
Y712278D01*
X983466D01*
Y712296D01*
X983483D01*
Y712313D01*
X983500D01*
Y712330D01*
X983517D01*
Y712347D01*
X983535D01*
Y712364D01*
X983552D01*
Y712399D01*
X983569D01*
Y712416D01*
X983586D01*
Y712433D01*
X983603D01*
Y712468D01*
X983621D01*
Y712485D01*
X983638D01*
Y712519D01*
X983655D01*
Y712536D01*
X983672D01*
Y712571D01*
X983689D01*
Y712605D01*
X983707D01*
Y712640D01*
X983724D01*
Y712674D01*
X983741D01*
Y712726D01*
X983758D01*
Y712777D01*
X983775D01*
Y712829D01*
X983793D01*
Y712898D01*
X983810D01*
Y712984D01*
X983827D01*
Y713104D01*
X983844D01*
Y713138D01*
Y713156D01*
Y713414D01*
X983827D01*
Y713534D01*
X983810D01*
Y713620D01*
X983793D01*
Y713689D01*
X983775D01*
Y713740D01*
X983758D01*
Y713775D01*
X983741D01*
Y713826D01*
X983724D01*
Y713861D01*
X983707D01*
Y713895D01*
X983689D01*
Y713930D01*
X983672D01*
Y713964D01*
X983655D01*
Y713998D01*
X983638D01*
Y714015D01*
X983621D01*
Y714050D01*
X983603D01*
Y714067D01*
X983586D01*
Y714084D01*
X983569D01*
Y714119D01*
X983552D01*
Y714136D01*
X983535D01*
Y714153D01*
X983517D01*
Y714170D01*
X983500D01*
Y714205D01*
X983483D01*
Y714222D01*
X983466D01*
Y714239D01*
X983449D01*
Y714256D01*
X983432D01*
Y714274D01*
X983414D01*
Y714291D01*
X983397D01*
Y714308D01*
X983363D01*
Y714325D01*
X983346D01*
Y714342D01*
X983328D01*
Y714360D01*
X983311D01*
Y714377D01*
X983277D01*
Y714394D01*
X983259D01*
Y714411D01*
X983242D01*
Y714428D01*
X983208D01*
Y714445D01*
X983173D01*
Y714463D01*
X983139D01*
Y714480D01*
X983105D01*
Y714497D01*
X983070D01*
Y714514D01*
X983019D01*
Y714532D01*
X982967D01*
Y714549D01*
X982898D01*
Y714566D01*
X982795D01*
Y714583D01*
D02*
G37*
G36*
X989709Y714738D02*
X989451D01*
Y714721D01*
X989331D01*
Y714704D01*
X989262D01*
Y714686D01*
X989210D01*
Y714669D01*
X989159D01*
Y714652D01*
X989124D01*
Y714635D01*
X989090D01*
Y714617D01*
X989056D01*
Y714600D01*
X989021D01*
Y714583D01*
X988987D01*
Y714566D01*
X988952D01*
Y714549D01*
X988935D01*
Y714532D01*
X988918D01*
Y714514D01*
X988883D01*
Y714497D01*
X988866D01*
Y714480D01*
X988849D01*
Y714463D01*
X988815D01*
Y714445D01*
X988798D01*
Y714428D01*
X988780D01*
Y714411D01*
X988763D01*
Y714394D01*
X988746D01*
Y714377D01*
X988729D01*
Y714360D01*
X988712D01*
Y714342D01*
X988694D01*
Y714325D01*
X988677D01*
Y714308D01*
X988660D01*
Y714274D01*
X988643D01*
Y714256D01*
X988626D01*
Y714239D01*
X988608D01*
Y714222D01*
X988591D01*
Y714187D01*
X988574D01*
Y714170D01*
X988557D01*
Y714136D01*
X988540D01*
Y714119D01*
X988522D01*
Y714084D01*
X988505D01*
Y714050D01*
X988488D01*
Y714015D01*
X988471D01*
Y713981D01*
X988454D01*
Y713947D01*
X988436D01*
Y713912D01*
X988419D01*
Y713861D01*
X988402D01*
Y713809D01*
X988385D01*
Y713740D01*
X988368D01*
Y713654D01*
X988350D01*
Y713534D01*
X988333D01*
Y713259D01*
X988350D01*
Y713121D01*
X988368D01*
Y713035D01*
X988385D01*
Y712966D01*
X988402D01*
Y712915D01*
X988419D01*
Y712863D01*
X988436D01*
Y712812D01*
X988454D01*
Y712777D01*
X988471D01*
Y712760D01*
Y712726D01*
X988488D01*
Y712691D01*
X988505D01*
Y712657D01*
X988522D01*
Y712622D01*
X988540D01*
Y712605D01*
X988557D01*
Y712571D01*
X988574D01*
Y712554D01*
X988591D01*
Y712519D01*
X988608D01*
Y712502D01*
X988626D01*
Y712468D01*
X988643D01*
Y712450D01*
X988660D01*
Y712433D01*
X988677D01*
Y712416D01*
X988694D01*
Y712382D01*
X988712D01*
Y712364D01*
X988729D01*
Y712347D01*
X988746D01*
Y712330D01*
X988763D01*
Y712313D01*
X988780D01*
Y712296D01*
X988798D01*
Y712278D01*
X988815D01*
Y712261D01*
X988832D01*
Y712244D01*
X988866D01*
Y712227D01*
X988883D01*
Y712210D01*
X988901D01*
Y712192D01*
X988918D01*
Y712175D01*
X988952D01*
Y712158D01*
X988970D01*
Y712141D01*
X989004D01*
Y712124D01*
X989021D01*
Y712106D01*
X989056D01*
Y712089D01*
X989090D01*
Y712072D01*
X989124D01*
Y712055D01*
X989176D01*
Y712038D01*
X989227D01*
Y712020D01*
X989279D01*
Y712003D01*
X989348D01*
Y711986D01*
X989451D01*
Y711969D01*
X989709D01*
Y711986D01*
X989812D01*
Y712003D01*
X989881D01*
Y712020D01*
X989933D01*
Y712038D01*
X989984D01*
Y712055D01*
X990019D01*
Y712072D01*
X990053D01*
Y712089D01*
X990088D01*
Y712106D01*
X990122D01*
Y712124D01*
X990156D01*
Y712141D01*
X990174D01*
Y712158D01*
X990208D01*
Y712175D01*
X990225D01*
Y712192D01*
X990242D01*
Y712210D01*
X990277D01*
Y712227D01*
X990294D01*
Y712244D01*
X990311D01*
Y712261D01*
X990328D01*
Y712278D01*
X990345D01*
Y712296D01*
X990363D01*
Y712313D01*
X990380D01*
Y712330D01*
X990397D01*
Y712347D01*
X990414D01*
Y712364D01*
X990431D01*
Y712382D01*
X990449D01*
Y712399D01*
X990466D01*
Y712416D01*
X990483D01*
Y712433D01*
X990500D01*
Y712468D01*
X990517D01*
Y712485D01*
X990535D01*
Y712502D01*
X990552D01*
Y712536D01*
X990569D01*
Y712554D01*
X990586D01*
Y712588D01*
X990603D01*
Y712605D01*
X990621D01*
Y712640D01*
X990638D01*
Y712674D01*
X990655D01*
Y712708D01*
X990672D01*
Y712743D01*
X990689D01*
Y712777D01*
X990707D01*
Y712829D01*
X990724D01*
Y712880D01*
X990741D01*
Y712932D01*
X990758D01*
Y712984D01*
X990775D01*
Y713070D01*
X990793D01*
Y713190D01*
X990810D01*
Y713499D01*
X990793D01*
Y713620D01*
X990775D01*
Y713689D01*
X990758D01*
Y713758D01*
X990741D01*
Y713809D01*
X990724D01*
Y713861D01*
X990707D01*
Y713912D01*
X990689D01*
Y713947D01*
X990672D01*
Y713981D01*
X990655D01*
Y714015D01*
X990638D01*
Y714050D01*
X990621D01*
Y714084D01*
X990603D01*
Y714102D01*
X990586D01*
Y714136D01*
X990569D01*
Y714170D01*
X990552D01*
Y714187D01*
X990535D01*
Y714205D01*
X990517D01*
Y714239D01*
X990500D01*
Y714256D01*
X990483D01*
Y714274D01*
X990466D01*
Y714291D01*
X990449D01*
Y714308D01*
X990431D01*
Y714342D01*
X990414D01*
Y714360D01*
X990397D01*
Y714377D01*
X990380D01*
Y714394D01*
X990363D01*
Y714411D01*
X990345D01*
Y714428D01*
X990328D01*
Y714445D01*
X990311D01*
Y714463D01*
X990277D01*
Y714480D01*
X990259D01*
Y714497D01*
X990242D01*
Y714514D01*
X990225D01*
Y714532D01*
X990191D01*
Y714549D01*
X990174D01*
Y714566D01*
X990139D01*
Y714583D01*
X990122D01*
Y714600D01*
X990088D01*
Y714617D01*
X990053D01*
Y714635D01*
X990019D01*
Y714652D01*
X989967D01*
Y714669D01*
X989933D01*
Y714686D01*
X989881D01*
Y714704D01*
X989812D01*
Y714721D01*
X989709D01*
Y714738D01*
D02*
G37*
G36*
X1156537Y705158D02*
X1156518D01*
X1156493Y705155D01*
X1156462D01*
X1156425Y705149D01*
X1156381Y705143D01*
X1156334Y705133D01*
X1156281Y705121D01*
X1156225Y705105D01*
X1156169Y705087D01*
X1156110Y705062D01*
X1156050Y705034D01*
X1155994Y705002D01*
X1155938Y704962D01*
X1155882Y704918D01*
X1155832Y704865D01*
X1155829Y704862D01*
X1155822Y704853D01*
X1155810Y704837D01*
X1155794Y704818D01*
X1155779Y704793D01*
X1155760Y704762D01*
X1155738Y704725D01*
X1155716Y704687D01*
X1155694Y704640D01*
X1155673Y704591D01*
X1155654Y704537D01*
X1155638Y704481D01*
X1155623Y704419D01*
X1155610Y704357D01*
X1155604Y704288D01*
X1155601Y704216D01*
Y704213D01*
Y704197D01*
X1155604Y704179D01*
Y704151D01*
X1155607Y704116D01*
X1155613Y704079D01*
X1155620Y704032D01*
X1155632Y703985D01*
X1155645Y703935D01*
X1155660Y703879D01*
X1155679Y703826D01*
X1155701Y703770D01*
X1155729Y703711D01*
X1155760Y703655D01*
X1155797Y703602D01*
X1155838Y703548D01*
X1155841Y703545D01*
X1155851Y703536D01*
X1155866Y703520D01*
X1155888Y703502D01*
X1155913Y703480D01*
X1155947Y703452D01*
X1155985Y703427D01*
X1156028Y703399D01*
X1156075Y703368D01*
X1156128Y703343D01*
X1156188Y703318D01*
X1156253Y703293D01*
X1156318Y703274D01*
X1156393Y703258D01*
X1156471Y703249D01*
X1156553Y703246D01*
X1156571D01*
X1156596Y703249D01*
X1156627D01*
X1156665Y703255D01*
X1156709Y703261D01*
X1156758Y703271D01*
X1156808Y703283D01*
X1156864Y703299D01*
X1156924Y703318D01*
X1156983Y703339D01*
X1157042Y703368D01*
X1157098Y703402D01*
X1157155Y703439D01*
X1157211Y703486D01*
X1157261Y703536D01*
X1157264Y703539D01*
X1157270Y703548D01*
X1157283Y703564D01*
X1157298Y703583D01*
X1157317Y703611D01*
X1157336Y703642D01*
X1157358Y703676D01*
X1157379Y703717D01*
X1157401Y703764D01*
X1157423Y703814D01*
X1157442Y703867D01*
X1157460Y703923D01*
X1157476Y703985D01*
X1157489Y704051D01*
X1157495Y704119D01*
X1157498Y704191D01*
Y704194D01*
Y704210D01*
Y704229D01*
X1157495Y704257D01*
X1157492Y704291D01*
X1157485Y704332D01*
X1157476Y704378D01*
X1157467Y704428D01*
X1157454Y704481D01*
X1157439Y704541D01*
X1157417Y704600D01*
X1157392Y704662D01*
X1157364Y704725D01*
X1157329Y704787D01*
X1157292Y704853D01*
X1157248Y704915D01*
X1157245Y704918D01*
X1157236Y704924D01*
X1157220Y704937D01*
X1157201Y704952D01*
X1157173Y704971D01*
X1157142Y704993D01*
X1157105Y705015D01*
X1157061Y705037D01*
X1157014Y705059D01*
X1156961Y705080D01*
X1156902Y705102D01*
X1156839Y705121D01*
X1156771Y705137D01*
X1156696Y705149D01*
X1156618Y705155D01*
X1156537Y705158D01*
D02*
G37*
G36*
X1147536Y701397D02*
X1147458D01*
Y700658D01*
X1147464D01*
X1147470Y700654D01*
X1147492D01*
X1147508Y700651D01*
X1147614D01*
X1147657Y700654D01*
X1147682D01*
X1147695Y700658D01*
X1147776D01*
X1147798Y700661D01*
X1147823D01*
X1147854Y700667D01*
X1147885Y700673D01*
X1147916Y700679D01*
X1147944Y700692D01*
X1147948Y700695D01*
X1147957Y700698D01*
X1147969Y700704D01*
X1147985Y700717D01*
X1148022Y700742D01*
X1148057Y700779D01*
X1148060Y700782D01*
X1148063Y700788D01*
X1148072Y700798D01*
X1148082Y700813D01*
X1148100Y700848D01*
X1148116Y700888D01*
Y700895D01*
X1148119Y700901D01*
Y700913D01*
X1148122Y700932D01*
X1148125Y700957D01*
X1148129Y700988D01*
X1148135Y701029D01*
Y701032D01*
Y701048D01*
Y701066D01*
X1148129Y701094D01*
X1148119Y701125D01*
X1148104Y701160D01*
X1148082Y701200D01*
X1148050Y701241D01*
X1148047Y701247D01*
X1148032Y701260D01*
X1148013Y701278D01*
X1147985Y701300D01*
X1147948Y701325D01*
X1147907Y701347D01*
X1147860Y701363D01*
X1147807Y701375D01*
X1147801D01*
X1147782Y701378D01*
X1147754Y701381D01*
X1147720Y701388D01*
X1147676Y701391D01*
X1147632Y701394D01*
X1147536Y701397D01*
D02*
G37*
G36*
X1151888Y697632D02*
X1151810D01*
Y696893D01*
X1151816D01*
X1151823Y696890D01*
X1151844D01*
X1151860Y696887D01*
X1151966D01*
X1152010Y696890D01*
X1152035D01*
X1152047Y696893D01*
X1152128D01*
X1152150Y696896D01*
X1152175D01*
X1152206Y696902D01*
X1152238Y696909D01*
X1152269Y696915D01*
X1152297Y696927D01*
X1152300Y696930D01*
X1152309Y696933D01*
X1152322Y696940D01*
X1152337Y696952D01*
X1152375Y696977D01*
X1152409Y697015D01*
X1152412Y697018D01*
X1152415Y697024D01*
X1152425Y697033D01*
X1152434Y697049D01*
X1152453Y697083D01*
X1152468Y697124D01*
Y697130D01*
X1152472Y697136D01*
Y697149D01*
X1152475Y697167D01*
X1152478Y697192D01*
X1152481Y697224D01*
X1152487Y697264D01*
Y697267D01*
Y697283D01*
Y697302D01*
X1152481Y697330D01*
X1152472Y697361D01*
X1152456Y697395D01*
X1152434Y697436D01*
X1152403Y697476D01*
X1152400Y697483D01*
X1152384Y697495D01*
X1152365Y697514D01*
X1152337Y697536D01*
X1152300Y697561D01*
X1152259Y697582D01*
X1152213Y697598D01*
X1152160Y697611D01*
X1152153D01*
X1152135Y697614D01*
X1152106Y697617D01*
X1152072Y697623D01*
X1152028Y697626D01*
X1151985Y697629D01*
X1151888Y697632D01*
D02*
G37*
%LPD*%
D10*
X968050Y682763D02*
G03*
X968050Y682763I-394J0D01*
G01*
X1005304Y691526D02*
G03*
X1005304Y691133I0J-197D01*
G01*
D02*
G03*
X1005304Y691526I0J197D01*
G01*
X1035231Y716521D02*
G03*
X1035231Y716521I-339J0D01*
G01*
X1002947Y707072D02*
G03*
X1002947Y707072I-339J0D01*
G01*
X963694Y679934D02*
X965564D01*
X969428Y679219D02*
X986357D01*
Y696148D01*
X969428D02*
X986357D01*
X969428Y679219D02*
Y696148D01*
X1142077Y660813D02*
X1147884D01*
X954892Y610360D02*
X990089D01*
X954892D02*
Y615911D01*
X990089Y610360D02*
Y615911D01*
X954892Y625439D02*
X954892Y631856D01*
X990089D02*
X990089Y625439D01*
X1181345Y703353D02*
Y703570D01*
X1181336Y706326D02*
Y706542D01*
X1060214Y706063D02*
Y706280D01*
X1060223Y703091D02*
Y703307D01*
D11*
X1123560Y713813D02*
G03*
X1123560Y713813I-197J0D01*
G01*
X1096143Y667690D02*
Y668490D01*
X1094243Y667690D02*
Y668490D01*
X1099321Y667725D02*
Y668525D01*
X1097421Y667725D02*
Y668525D01*
X1093220Y685188D02*
X1094020D01*
X1093220Y683288D02*
X1094020D01*
X1097338Y674979D02*
Y675779D01*
X1095438Y674979D02*
Y675779D01*
X1097338Y679716D02*
Y680516D01*
X1095438Y679716D02*
Y680516D01*
X1102078Y683288D02*
X1102878D01*
X1102078Y685188D02*
X1102878D01*
X1096291Y672393D02*
X1097091D01*
X1096291Y670493D02*
X1097091D01*
X1099859Y672393D02*
X1100659D01*
X1099859Y670493D02*
X1100659D01*
X1124642Y679959D02*
X1125442D01*
X1124642Y681859D02*
X1125442D01*
X1113631Y678975D02*
X1114431D01*
X1113631Y680875D02*
X1114431D01*
X1132332Y679959D02*
X1133132D01*
X1132332Y681859D02*
X1133132D01*
X1121071Y679341D02*
Y680141D01*
X1119171Y679341D02*
Y680141D01*
X1113631Y676022D02*
X1114431D01*
X1113631Y677922D02*
X1114431D01*
X1121071Y675772D02*
Y676572D01*
X1119171Y675772D02*
Y676572D01*
X1117328Y669198D02*
X1118128D01*
X1117328Y671098D02*
X1118128D01*
X1129257Y670064D02*
X1130057D01*
X1129257Y671964D02*
X1130057D01*
X1121383Y669198D02*
X1122183D01*
X1121383Y671098D02*
X1122183D01*
X1114925Y667779D02*
Y668579D01*
X1113025Y667779D02*
Y668579D01*
X1114067Y666002D02*
X1114867D01*
X1114067Y664102D02*
X1114867D01*
X1063891Y698151D02*
Y698951D01*
X1065791Y698151D02*
Y698951D01*
X1052080Y698151D02*
Y698951D01*
X1053980Y698151D02*
Y698951D01*
X1071350Y698372D02*
X1072150D01*
X1071350Y696472D02*
X1072150D01*
X1136925Y648689D02*
Y649489D01*
X1138825Y648689D02*
Y649489D01*
X1127404Y640766D02*
X1128204D01*
X1127404Y642666D02*
X1128204D01*
X1055675Y642952D02*
X1056475D01*
X1055675Y644852D02*
X1056475D01*
X1070713Y702088D02*
Y702888D01*
X1068813Y702088D02*
Y702888D01*
X1058705Y696472D02*
X1059505D01*
X1058705Y698372D02*
X1059505D01*
X1090201Y678298D02*
X1091001D01*
X1090201Y676398D02*
X1091001D01*
X1083311D02*
X1084111D01*
X1083311Y678298D02*
X1084111D01*
X966126Y677104D02*
X966926D01*
X966126Y679004D02*
X966926D01*
X961247Y696084D02*
X963609D01*
X961247Y690572D02*
X963609D01*
X946559Y645886D02*
X947359D01*
X946559Y647786D02*
X947359D01*
X1092541Y670461D02*
X1093341D01*
X1092541Y672361D02*
X1093341D01*
X1105281Y682795D02*
Y683595D01*
X1107181Y682795D02*
Y683595D01*
X1096913Y685188D02*
X1097713D01*
X1096913Y683288D02*
X1097713D01*
X1109886Y685188D02*
X1110686D01*
X1109886Y683288D02*
X1110686D01*
X1098391Y679960D02*
Y680760D01*
X1100291Y679960D02*
Y680760D01*
X1098391Y674921D02*
Y675721D01*
X1100291Y674921D02*
Y675721D01*
X1102937Y678298D02*
X1103737D01*
X1102937Y676398D02*
X1103737D01*
X1102937Y675345D02*
X1103737D01*
X1102937Y673445D02*
X1103737D01*
X1124642Y677007D02*
X1125442D01*
X1124642Y678907D02*
X1125442D01*
X1117689Y663174D02*
X1118489D01*
X1117689Y665074D02*
X1118489D01*
X1117571Y668145D02*
X1118371D01*
X1117571Y666245D02*
X1118371D01*
X1137374Y671964D02*
X1138174D01*
X1137374Y670064D02*
X1138174D01*
X1132828Y671657D02*
Y672457D01*
X1134728Y671657D02*
Y672457D01*
X1124954Y671598D02*
Y672398D01*
X1126854Y671598D02*
Y672398D01*
X1113025Y671775D02*
Y672576D01*
X1114925Y671775D02*
Y672576D01*
X1158055Y669508D02*
X1158855D01*
X1158055Y671408D02*
X1158855D01*
X1118677Y673985D02*
X1119477D01*
X1118677Y672085D02*
X1119477D01*
X1169375Y677991D02*
Y678791D01*
X1171275Y677991D02*
Y678791D01*
X1137871Y681553D02*
Y682353D01*
X1139771Y681553D02*
Y682353D01*
X1118118Y677616D02*
Y678416D01*
X1116218Y677616D02*
Y678416D01*
X1136819Y679466D02*
Y680266D01*
X1134919Y679466D02*
Y680266D01*
X1128029Y679466D02*
Y680266D01*
X1129929Y679466D02*
Y680266D01*
X1118677Y683828D02*
X1119477D01*
X1118677Y681928D02*
X1119477D01*
X1152643Y675039D02*
Y675839D01*
X1154543Y675039D02*
Y675839D01*
Y679960D02*
Y680760D01*
X1152643Y679960D02*
Y680760D01*
X1034892Y703628D02*
Y715340D01*
X1022294Y703628D02*
Y720065D01*
X1002609Y708253D02*
Y719966D01*
X1015207Y703529D02*
Y719966D01*
D12*
X1120210Y707801D02*
G03*
X1120210Y707801I-300J0D01*
G01*
X1123168Y644290D02*
G03*
X1123168Y644290I-250J0D01*
G01*
X1130430Y628196D02*
G03*
X1130430Y628196I-300J0D01*
G01*
X1217353Y691915D02*
Y702151D01*
X1206172Y691915D02*
Y693805D01*
Y700261D02*
Y702151D01*
X1174334Y695458D02*
X1176159D01*
X1174334Y698608D02*
X1176159D01*
X1179577Y698089D02*
Y699914D01*
X1182727Y698089D02*
Y699914D01*
X1168357Y698483D02*
Y700308D01*
X1171506Y698483D02*
Y700308D01*
X1129747Y720261D02*
X1131572D01*
X1129747Y717111D02*
X1131572D01*
X1110358Y720261D02*
X1112183D01*
X1110358Y717112D02*
X1112183D01*
X1119538Y719743D02*
Y721568D01*
X1122687Y719743D02*
Y721568D01*
X1134302Y705963D02*
Y707788D01*
X1137451Y705963D02*
Y707788D01*
X1136932Y711206D02*
X1138757D01*
X1136932Y714356D02*
X1138757D01*
X1123475Y719743D02*
Y721568D01*
X1126624Y719743D02*
Y721568D01*
X1046381Y645458D02*
X1048206D01*
X1046381Y642309D02*
X1048206D01*
X1054255Y632466D02*
X1056080D01*
X1054255Y635616D02*
X1056080D01*
X1054255Y637387D02*
X1056080D01*
X1054255Y640537D02*
X1056080D01*
X1175318Y659041D02*
X1177143D01*
X1175318Y662190D02*
X1177143D01*
X1145791Y620655D02*
X1147616D01*
X1145791Y623805D02*
X1147616D01*
X1115601Y635097D02*
Y636922D01*
X1118750Y635097D02*
Y636922D01*
X1038113Y705301D02*
X1039939D01*
X1038113Y708450D02*
X1039939D01*
X1118815Y645782D02*
Y647607D01*
X1121965Y645782D02*
Y647607D01*
X1118546Y659000D02*
X1120371D01*
X1118546Y662150D02*
X1120371D01*
X1151696Y672033D02*
X1153521D01*
X1151696Y668884D02*
X1153521D01*
X1191066Y695458D02*
X1192891D01*
X1191066Y698608D02*
X1192891D01*
X1114996Y645966D02*
Y647791D01*
X1118146Y645966D02*
Y647791D01*
X1073639Y642051D02*
X1075464D01*
X1073639Y638901D02*
X1075464D01*
X1077084Y662393D02*
Y664218D01*
X1073934Y662393D02*
Y664218D01*
X1108735Y627284D02*
X1110560D01*
X1108735Y630434D02*
X1110560D01*
X1154649Y623805D02*
X1156474D01*
X1154649Y620655D02*
X1156474D01*
X1012917Y665931D02*
X1014742D01*
X1012917Y669080D02*
X1014742D01*
X1012917Y661994D02*
X1014742D01*
X1012917Y665143D02*
X1014742D01*
X1187648Y698089D02*
Y699914D01*
X1184498Y698089D02*
Y699914D01*
X985956Y665177D02*
Y667002D01*
X982807Y665177D02*
Y667002D01*
X949368Y673017D02*
X951193D01*
X949368Y676166D02*
X951193D01*
X1013901Y695655D02*
X1015726D01*
X1013901Y692506D02*
X1015726D01*
X952812Y686547D02*
Y688372D01*
X955962Y686547D02*
Y688372D01*
X959636Y679306D02*
X961236D01*
X959636Y676157D02*
X961236D01*
X968947Y673595D02*
Y675195D01*
X972097Y673595D02*
Y675195D01*
X964780Y671762D02*
X966380D01*
X964780Y668613D02*
X966380D01*
X964859Y675824D02*
X966459D01*
X964859Y672675D02*
X966459D01*
X951717Y687120D02*
Y689482D01*
X947780Y687120D02*
Y689482D01*
X954186Y671177D02*
Y672777D01*
X957335Y671177D02*
Y672777D01*
X958484Y671249D02*
Y672849D01*
X961633Y671249D02*
Y672849D01*
X949656Y681285D02*
X952018D01*
X949656Y677348D02*
X952018D01*
X949025Y663919D02*
X950850D01*
X949025Y660770D02*
X950850D01*
X985956Y673051D02*
Y674876D01*
X982807Y673051D02*
Y674876D01*
X947300Y636273D02*
X948088D01*
X947300Y638723D02*
X948088D01*
X945154Y643871D02*
X947516D01*
X945154Y639934D02*
X947516D01*
X982309Y644975D02*
Y646575D01*
X979160Y644975D02*
Y646575D01*
X956927Y648411D02*
X958527D01*
X956927Y645261D02*
X958527D01*
X1082727Y674198D02*
X1090601D01*
X1082727Y668687D02*
Y674198D01*
Y668687D02*
X1090601D01*
Y674198D01*
X1079031Y676973D02*
Y677760D01*
X1076581Y676973D02*
Y677760D01*
X1074656Y673411D02*
X1077018D01*
X1074656Y669474D02*
X1077018D01*
X1079632Y680636D02*
X1081995D01*
X1079632Y684573D02*
X1081995D01*
X1141388Y705963D02*
Y707788D01*
X1138239Y705963D02*
Y707788D01*
X1112407Y703529D02*
X1114007D01*
X1112407Y700380D02*
X1114007D01*
X1127050Y704513D02*
X1128876D01*
X1127050Y701364D02*
X1128876D01*
X1130285Y723848D02*
X1131072D01*
X1130285Y721398D02*
X1131072D01*
X1118401Y720243D02*
Y721030D01*
X1115951Y720243D02*
Y721030D01*
X1013901Y696443D02*
X1015726D01*
X1013901Y699592D02*
X1015726D01*
X1010286Y676364D02*
X1012845D01*
Y676954D01*
X1003002Y676364D02*
Y676954D01*
Y676364D02*
X1005561D01*
X1003002Y689553D02*
Y690143D01*
X1003987D01*
X1012845Y689553D02*
Y690143D01*
X1010286D02*
X1012845D01*
X1165476Y620655D02*
X1167301D01*
X1165476Y623805D02*
X1167301D01*
X1135948D02*
X1137773D01*
X1135948Y620655D02*
X1137773D01*
X1181742Y629304D02*
Y630904D01*
X1178593Y629304D02*
Y630904D01*
X1149262Y648805D02*
Y658332D01*
X1151546Y660616D01*
X1163829D01*
Y648805D02*
Y660616D01*
X1149262Y648805D02*
X1163829D01*
X1175462Y655104D02*
X1177062D01*
X1175462Y658253D02*
X1177062D01*
X1175318Y662978D02*
X1177143D01*
X1175318Y666128D02*
X1177143D01*
X1175462Y651167D02*
X1177062D01*
X1175462Y654317D02*
X1177062D01*
X1175399Y647230D02*
X1176999D01*
X1175399Y650380D02*
X1176999D01*
X1197097Y650773D02*
Y666521D01*
X1197491Y650773D02*
Y666521D01*
Y684238D02*
X1225837D01*
X1197491Y666521D02*
Y684238D01*
X1196703Y666521D02*
X1197491D01*
X1196703Y650773D02*
Y666521D01*
Y650773D02*
X1197491D01*
Y633057D02*
Y650773D01*
Y633057D02*
X1225837D01*
Y684238D01*
X1195522Y668674D02*
Y670274D01*
X1192373Y668674D02*
Y670274D01*
X1005365Y664737D02*
Y666337D01*
X1008514Y664737D02*
Y666337D01*
X1004577Y664737D02*
Y666337D01*
X1001427Y664737D02*
Y666337D01*
X1002090Y635616D02*
X1003915D01*
X1002090Y632466D02*
X1003915D01*
X1010948Y669868D02*
X1012773D01*
X1010948Y673017D02*
X1012773D01*
X1110358Y724198D02*
X1112183D01*
X1110358Y721049D02*
X1112183D01*
X1001624Y617493D02*
Y619093D01*
X998475Y617493D02*
Y619093D01*
X1010076Y635616D02*
X1011676D01*
X1010076Y632466D02*
X1011676D01*
X1013435Y617493D02*
Y619093D01*
X1010286Y617493D02*
Y619093D01*
X1024262Y617461D02*
Y619061D01*
X1021113Y617461D02*
Y619061D01*
X1148259Y680542D02*
X1149047D01*
X1148259Y678091D02*
X1149047D01*
X1148259Y676605D02*
X1149047D01*
X1148259Y674155D02*
X1149047D01*
X1060680Y617493D02*
Y619093D01*
X1057530Y617493D02*
Y619093D01*
X1044735Y617493D02*
Y619093D01*
X1047884Y617493D02*
Y619093D01*
X1079538Y664986D02*
X1082538D01*
X1079538Y661985D02*
Y664986D01*
Y634985D02*
Y637986D01*
Y634985D02*
X1082538D01*
X1106538D02*
X1109538D01*
Y637986D01*
Y661985D02*
Y664986D01*
X1073637Y638136D02*
X1075462D01*
X1073637Y634987D02*
X1075462D01*
X1109989Y621686D02*
X1112351D01*
X1109989Y625623D02*
X1112351D01*
X1123312Y643109D02*
X1135910D01*
Y653345D01*
X1123312D02*
X1135910D01*
X1123312Y645471D02*
Y653345D01*
X1036073Y617493D02*
Y619093D01*
X1032924Y617493D02*
Y619093D01*
X1118823Y656787D02*
X1120423D01*
X1118823Y653637D02*
X1120423D01*
X1138017Y633312D02*
Y634112D01*
X1123844Y633312D02*
Y634112D01*
X1129749Y639224D02*
X1132149D01*
X1131149Y628200D02*
X1132149D01*
X1122687Y635097D02*
Y636922D01*
X1119538Y635097D02*
Y636922D01*
X1038258Y701364D02*
X1039857D01*
X1038258Y704513D02*
X1039857D01*
X1089420Y709159D02*
X1091309D01*
X1097766D02*
X1099656D01*
X1089420Y720340D02*
X1099656D01*
X1025399Y643471D02*
Y644258D01*
X1027849Y643471D02*
Y644258D01*
X1030321Y643471D02*
Y644258D01*
X1032771Y643471D02*
Y644258D01*
X1032746Y696443D02*
X1034346D01*
X1032746Y699592D02*
X1034346D01*
X1035242Y643471D02*
Y644258D01*
X1037692Y643471D02*
Y644258D01*
X1050487Y635635D02*
Y636422D01*
X1048037Y635635D02*
Y636422D01*
X1223475Y611403D02*
G03*
X1231349Y619277I0J7874D01*
G01*
Y719671D02*
G03*
X1223475Y727545I-7874J0D01*
G01*
X941979D02*
G03*
X934105Y719671I0J-7874D01*
G01*
Y619277D02*
G03*
X941979Y611403I7874J0D01*
G01*
X1231349Y619277D02*
Y719671D01*
X941979Y727545D02*
X1223475D01*
X941979Y611403D02*
X1223475D01*
X934105Y619277D02*
Y719671D01*
D13*
X1168775Y626425D02*
G03*
X1168775Y626425I-492J0D01*
G01*
X1016487Y656876D02*
G03*
X1016487Y656876I-492J0D01*
G01*
D14*
X1195916Y681088D02*
G03*
X1195916Y681088I-394J0D01*
G01*
D15*
X1164867Y682013D02*
G03*
X1164867Y682013I-250J0D01*
G01*
X960348Y680328D02*
Y688596D01*
X962316D01*
Y681458D02*
Y688596D01*
X961186Y680328D02*
X962316Y681458D01*
X960348Y680328D02*
X961186D01*
X965248Y656616D02*
Y664620D01*
X965648Y656616D02*
Y664620D01*
X966048Y656616D02*
Y664620D01*
X955148Y656616D02*
X970148D01*
Y657616D01*
X955148Y656616D02*
Y657616D01*
Y664620D02*
X970148D01*
X955148Y663616D02*
Y664620D01*
X970148Y663616D02*
Y664620D01*
X973308Y667047D02*
X981312D01*
X973308Y666647D02*
X981312D01*
X973308Y666247D02*
X981312D01*
X973308Y662147D02*
Y677147D01*
Y662147D02*
X974308D01*
X973308Y677147D02*
X974308D01*
X981312Y662147D02*
Y677147D01*
X980308D02*
X981312D01*
X980308Y662147D02*
X981312D01*
X1123763Y706213D02*
X1132163D01*
X1123763Y715413D02*
X1132163D01*
X1119505Y705596D02*
Y706313D01*
X1119495Y709313D02*
Y716023D01*
X1106981Y705596D02*
X1119505D01*
X1106981Y716023D02*
X1119495D01*
X1106981Y705596D02*
Y716023D01*
X1017372Y654665D02*
Y656285D01*
Y639356D02*
Y640976D01*
X1015752Y639356D02*
X1017372D01*
X1000443D02*
X1002063D01*
X1000443D02*
Y640976D01*
Y656285D02*
X1002063D01*
X1000443Y654665D02*
Y656285D01*
X978494Y645261D02*
Y648411D01*
X973770D02*
X978494D01*
X973770Y645261D02*
Y648411D01*
Y645261D02*
X978494D01*
X966191D02*
Y648411D01*
Y645261D02*
X970916D01*
Y648411D01*
X966191D02*
X970916D01*
X988704Y643539D02*
Y646688D01*
X983980D02*
X988704D01*
X983980Y643539D02*
Y646688D01*
Y643539D02*
X988704D01*
X1156967Y681691D02*
X1158514D01*
X1156967Y680143D02*
Y681691D01*
Y672691D02*
Y674238D01*
Y672691D02*
X1158514D01*
X1164421D02*
X1165967D01*
Y674238D01*
Y680291D02*
Y681472D01*
X1096789Y631906D02*
X1104789D01*
X1096789Y619906D02*
Y631906D01*
Y619906D02*
X1104789D01*
Y631906D01*
X1059379Y692209D02*
X1060757D01*
X1019418D02*
X1020796D01*
X1059379Y650870D02*
X1060757D01*
X1019418D02*
X1020796D01*
X1019418D02*
Y692209D01*
X1060757Y650870D02*
Y692209D01*
X1042825Y707929D02*
Y724268D01*
X1082195Y707986D02*
Y724268D01*
X1042825Y707929D02*
X1082195D01*
Y707986D01*
X1164207Y707929D02*
Y724268D01*
X1203577Y707986D02*
Y724268D01*
X1164207Y707929D02*
X1203577D01*
Y707986D01*
X993448Y635525D02*
X996072D01*
X996597Y636050D01*
Y637100D01*
X996072Y637624D01*
X993448D01*
X993973Y640773D02*
X993448Y640248D01*
Y639199D01*
X993973Y638674D01*
X994498D01*
X995023Y639199D01*
Y640248D01*
X995547Y640773D01*
X996072D01*
X996597Y640248D01*
Y639199D01*
X996072Y638674D01*
X993448Y641822D02*
X996597D01*
Y643397D01*
X996072Y643922D01*
X995547D01*
X995023Y643397D01*
Y641822D01*
Y643397D01*
X994498Y643922D01*
X993973D01*
X993448Y643397D01*
Y641822D01*
X1200483Y630800D02*
X1199434D01*
X1199959D01*
Y628176D01*
X1199434Y627651D01*
X1198909D01*
X1198384Y628176D01*
X1201533Y630800D02*
X1203632D01*
X1202582D01*
Y627651D01*
X1204681D02*
Y629750D01*
X1205731Y630800D01*
X1206781Y629750D01*
Y627651D01*
Y629225D01*
X1204681D01*
X1209929Y630275D02*
X1209404Y630800D01*
X1208355D01*
X1207830Y630275D01*
Y628176D01*
X1208355Y627651D01*
X1209404D01*
X1209929Y628176D01*
Y629225D01*
X1208880D01*
X1158803Y709344D02*
X1161951D01*
Y710918D01*
X1161426Y711443D01*
X1159327D01*
X1158803Y710918D01*
Y709344D01*
X1161951Y712493D02*
X1159852D01*
X1158803Y713542D01*
X1159852Y714592D01*
X1161951D01*
X1160377D01*
Y712493D01*
X1158803Y715641D02*
Y717740D01*
Y716691D01*
X1161951D01*
Y718790D02*
X1159852D01*
X1158803Y719839D01*
X1159852Y720889D01*
X1161951D01*
X1160377D01*
Y718790D01*
X1091289Y703565D02*
X1090764Y704090D01*
X1089714D01*
X1089190Y703565D01*
Y701466D01*
X1089714Y700942D01*
X1090764D01*
X1091289Y701466D01*
Y702516D01*
X1090239D01*
X1092338Y700942D02*
Y704090D01*
X1094437Y700942D01*
Y704090D01*
X1097586Y703565D02*
X1097061Y704090D01*
X1096012D01*
X1095487Y703565D01*
Y703041D01*
X1096012Y702516D01*
X1097061D01*
X1097586Y701991D01*
Y701466D01*
X1097061Y700942D01*
X1096012D01*
X1095487Y701466D01*
X1100734Y703565D02*
X1100210Y704090D01*
X1099160D01*
X1098635Y703565D01*
Y703041D01*
X1099160Y702516D01*
X1100210D01*
X1100734Y701991D01*
Y701466D01*
X1100210Y700942D01*
X1099160D01*
X1098635Y701466D01*
X1055970Y624827D02*
X1052822D01*
X1053871Y625877D01*
X1052822Y626926D01*
X1055970D01*
Y627976D02*
X1052822D01*
X1055970Y630075D01*
X1052822D01*
X1040475Y624146D02*
X1039950Y624671D01*
Y625720D01*
X1040475Y626245D01*
X1041000D01*
X1041525Y625720D01*
Y625196D01*
Y625720D01*
X1042049Y626245D01*
X1042574D01*
X1043099Y625720D01*
Y624671D01*
X1042574Y624146D01*
X1039950Y627295D02*
X1042049D01*
X1043099Y628344D01*
X1042049Y629394D01*
X1039950D01*
X1040475Y630443D02*
X1039950Y630968D01*
Y632018D01*
X1040475Y632542D01*
X1041000D01*
X1041525Y632018D01*
Y631493D01*
Y632018D01*
X1042049Y632542D01*
X1042574D01*
X1043099Y632018D01*
Y630968D01*
X1042574Y630443D01*
X1028785Y626530D02*
X1028260Y626005D01*
Y624956D01*
X1028785Y624431D01*
X1030884D01*
X1031409Y624956D01*
Y626005D01*
X1030884Y626530D01*
X1028785Y629678D02*
X1028260Y629154D01*
Y628104D01*
X1028785Y627579D01*
X1030884D01*
X1031409Y628104D01*
Y629154D01*
X1030884Y629678D01*
X1016676Y624268D02*
Y626367D01*
Y625317D01*
X1019825D01*
X1016676Y627416D02*
X1019825Y629515D01*
X1016676D02*
X1019825Y627416D01*
X1008404Y624675D02*
X1005255D01*
Y626250D01*
X1005780Y626775D01*
X1006830D01*
X1007354Y626250D01*
Y624675D01*
Y625725D02*
X1008404Y626775D01*
X1005255Y627824D02*
X1008404Y629923D01*
X1005255D02*
X1008404Y627824D01*
X993753Y626856D02*
Y624757D01*
X995327D01*
X994802Y625807D01*
Y626331D01*
X995327Y626856D01*
X996377D01*
X996902Y626331D01*
Y625282D01*
X996377Y624757D01*
X993753Y627906D02*
X995852D01*
X996902Y628955D01*
X995852Y630005D01*
X993753D01*
D16*
X1108030Y665485D02*
G03*
X1108030Y665485I-492J0D01*
G01*
D17*
X1020599Y648902D02*
G03*
X1020599Y648902I-197J0D01*
G01*
X1005339Y612009D02*
X1008539D01*
X993528Y612009D02*
X996728D01*
X1016629Y612009D02*
X1019829D01*
X1052673Y612009D02*
X1055873D01*
X1039788Y612009D02*
X1042988D01*
X1027977D02*
X1031177D01*
D18*
X1170083Y624631D02*
Y645419D01*
X1150883D02*
X1170083D01*
X1150883Y624631D02*
Y645419D01*
Y624631D02*
X1170083D01*
M02*
