G04*
G04 #@! TF.GenerationSoftware,Altium Limited,Altium Designer,23.0.1 (38)*
G04*
G04 Layer_Color=8388736*
%FSLAX25Y25*%
%MOIN*%
G70*
G04*
G04 #@! TF.SameCoordinates,19342238-8E0C-4B0D-84B5-E67248FCF62E*
G04*
G04*
G04 #@! TF.FilePolarity,Negative*
G04*
G01*
G75*
%ADD12C,0.00600*%
G04:AMPARAMS|DCode=68|XSize=42.37mil|YSize=44.34mil|CornerRadius=5.44mil|HoleSize=0mil|Usage=FLASHONLY|Rotation=270.000|XOffset=0mil|YOffset=0mil|HoleType=Round|Shape=RoundedRectangle|*
%AMROUNDEDRECTD68*
21,1,0.04237,0.03347,0,0,270.0*
21,1,0.03150,0.04434,0,0,270.0*
1,1,0.01087,-0.01673,-0.01575*
1,1,0.01087,-0.01673,0.01575*
1,1,0.01087,0.01673,0.01575*
1,1,0.01087,0.01673,-0.01575*
%
%ADD68ROUNDEDRECTD68*%
G04:AMPARAMS|DCode=69|XSize=44.34mil|YSize=89.61mil|CornerRadius=5.63mil|HoleSize=0mil|Usage=FLASHONLY|Rotation=270.000|XOffset=0mil|YOffset=0mil|HoleType=Round|Shape=RoundedRectangle|*
%AMROUNDEDRECTD69*
21,1,0.04434,0.07835,0,0,270.0*
21,1,0.03307,0.08961,0,0,270.0*
1,1,0.01127,-0.03917,-0.01654*
1,1,0.01127,-0.03917,0.01654*
1,1,0.01127,0.03917,0.01654*
1,1,0.01127,0.03917,-0.01654*
%
%ADD69ROUNDEDRECTD69*%
G04:AMPARAMS|DCode=70|XSize=26.38mil|YSize=22.44mil|CornerRadius=6.3mil|HoleSize=0mil|Usage=FLASHONLY|Rotation=90.000|XOffset=0mil|YOffset=0mil|HoleType=Round|Shape=RoundedRectangle|*
%AMROUNDEDRECTD70*
21,1,0.02638,0.00984,0,0,90.0*
21,1,0.01378,0.02244,0,0,90.0*
1,1,0.01260,0.00492,0.00689*
1,1,0.01260,0.00492,-0.00689*
1,1,0.01260,-0.00492,-0.00689*
1,1,0.01260,-0.00492,0.00689*
%
%ADD70ROUNDEDRECTD70*%
G04:AMPARAMS|DCode=71|XSize=26.38mil|YSize=22.44mil|CornerRadius=6.3mil|HoleSize=0mil|Usage=FLASHONLY|Rotation=0.000|XOffset=0mil|YOffset=0mil|HoleType=Round|Shape=RoundedRectangle|*
%AMROUNDEDRECTD71*
21,1,0.02638,0.00984,0,0,0.0*
21,1,0.01378,0.02244,0,0,0.0*
1,1,0.01260,0.00689,-0.00492*
1,1,0.01260,-0.00689,-0.00492*
1,1,0.01260,-0.00689,0.00492*
1,1,0.01260,0.00689,0.00492*
%
%ADD71ROUNDEDRECTD71*%
G04:AMPARAMS|DCode=72|XSize=14.57mil|YSize=18.5mil|CornerRadius=4.33mil|HoleSize=0mil|Usage=FLASHONLY|Rotation=90.000|XOffset=0mil|YOffset=0mil|HoleType=Round|Shape=RoundedRectangle|*
%AMROUNDEDRECTD72*
21,1,0.01457,0.00984,0,0,90.0*
21,1,0.00591,0.01850,0,0,90.0*
1,1,0.00866,0.00492,0.00295*
1,1,0.00866,0.00492,-0.00295*
1,1,0.00866,-0.00492,-0.00295*
1,1,0.00866,-0.00492,0.00295*
%
%ADD72ROUNDEDRECTD72*%
G04:AMPARAMS|DCode=73|XSize=14.57mil|YSize=18.5mil|CornerRadius=4.33mil|HoleSize=0mil|Usage=FLASHONLY|Rotation=180.000|XOffset=0mil|YOffset=0mil|HoleType=Round|Shape=RoundedRectangle|*
%AMROUNDEDRECTD73*
21,1,0.01457,0.00984,0,0,180.0*
21,1,0.00591,0.01850,0,0,180.0*
1,1,0.00866,-0.00295,0.00492*
1,1,0.00866,0.00295,0.00492*
1,1,0.00866,0.00295,-0.00492*
1,1,0.00866,-0.00295,-0.00492*
%
%ADD73ROUNDEDRECTD73*%
G04:AMPARAMS|DCode=74|XSize=14.57mil|YSize=16.54mil|CornerRadius=4.33mil|HoleSize=0mil|Usage=FLASHONLY|Rotation=90.000|XOffset=0mil|YOffset=0mil|HoleType=Round|Shape=RoundedRectangle|*
%AMROUNDEDRECTD74*
21,1,0.01457,0.00787,0,0,90.0*
21,1,0.00591,0.01654,0,0,90.0*
1,1,0.00866,0.00394,0.00295*
1,1,0.00866,0.00394,-0.00295*
1,1,0.00866,-0.00394,-0.00295*
1,1,0.00866,-0.00394,0.00295*
%
%ADD74ROUNDEDRECTD74*%
G04:AMPARAMS|DCode=75|XSize=14.57mil|YSize=16.54mil|CornerRadius=4.33mil|HoleSize=0mil|Usage=FLASHONLY|Rotation=0.000|XOffset=0mil|YOffset=0mil|HoleType=Round|Shape=RoundedRectangle|*
%AMROUNDEDRECTD75*
21,1,0.01457,0.00787,0,0,0.0*
21,1,0.00591,0.01654,0,0,0.0*
1,1,0.00866,0.00295,-0.00394*
1,1,0.00866,-0.00295,-0.00394*
1,1,0.00866,-0.00295,0.00394*
1,1,0.00866,0.00295,0.00394*
%
%ADD75ROUNDEDRECTD75*%
G04:AMPARAMS|DCode=76|XSize=26.38mil|YSize=20.47mil|CornerRadius=5.81mil|HoleSize=0mil|Usage=FLASHONLY|Rotation=90.000|XOffset=0mil|YOffset=0mil|HoleType=Round|Shape=RoundedRectangle|*
%AMROUNDEDRECTD76*
21,1,0.02638,0.00886,0,0,90.0*
21,1,0.01476,0.02047,0,0,90.0*
1,1,0.01161,0.00443,0.00738*
1,1,0.01161,0.00443,-0.00738*
1,1,0.01161,-0.00443,-0.00738*
1,1,0.01161,-0.00443,0.00738*
%
%ADD76ROUNDEDRECTD76*%
G04:AMPARAMS|DCode=77|XSize=20.7mil|YSize=13.81mil|CornerRadius=3.95mil|HoleSize=0mil|Usage=FLASHONLY|Rotation=180.000|XOffset=0mil|YOffset=0mil|HoleType=Round|Shape=RoundedRectangle|*
%AMROUNDEDRECTD77*
21,1,0.02070,0.00591,0,0,180.0*
21,1,0.01280,0.01381,0,0,180.0*
1,1,0.00791,-0.00640,0.00295*
1,1,0.00791,0.00640,0.00295*
1,1,0.00791,0.00640,-0.00295*
1,1,0.00791,-0.00640,-0.00295*
%
%ADD77ROUNDEDRECTD77*%
G04:AMPARAMS|DCode=78|XSize=26.38mil|YSize=20.47mil|CornerRadius=5.81mil|HoleSize=0mil|Usage=FLASHONLY|Rotation=0.000|XOffset=0mil|YOffset=0mil|HoleType=Round|Shape=RoundedRectangle|*
%AMROUNDEDRECTD78*
21,1,0.02638,0.00886,0,0,0.0*
21,1,0.01476,0.02047,0,0,0.0*
1,1,0.01161,0.00738,-0.00443*
1,1,0.01161,-0.00738,-0.00443*
1,1,0.01161,-0.00738,0.00443*
1,1,0.01161,0.00738,0.00443*
%
%ADD78ROUNDEDRECTD78*%
G04:AMPARAMS|DCode=79|XSize=35.43mil|YSize=30.32mil|CornerRadius=4.13mil|HoleSize=0mil|Usage=FLASHONLY|Rotation=0.000|XOffset=0mil|YOffset=0mil|HoleType=Round|Shape=RoundedRectangle|*
%AMROUNDEDRECTD79*
21,1,0.03543,0.02205,0,0,0.0*
21,1,0.02717,0.03032,0,0,0.0*
1,1,0.00827,0.01358,-0.01102*
1,1,0.00827,-0.01358,-0.01102*
1,1,0.00827,-0.01358,0.01102*
1,1,0.00827,0.01358,0.01102*
%
%ADD79ROUNDEDRECTD79*%
%ADD80R,0.14867X0.04158*%
G04:AMPARAMS|DCode=81|XSize=59.84mil|YSize=42.13mil|CornerRadius=5.32mil|HoleSize=0mil|Usage=FLASHONLY|Rotation=90.000|XOffset=0mil|YOffset=0mil|HoleType=Round|Shape=RoundedRectangle|*
%AMROUNDEDRECTD81*
21,1,0.05984,0.03150,0,0,90.0*
21,1,0.04921,0.04213,0,0,90.0*
1,1,0.01063,0.01575,0.02461*
1,1,0.01063,0.01575,-0.02461*
1,1,0.01063,-0.01575,-0.02461*
1,1,0.01063,-0.01575,0.02461*
%
%ADD81ROUNDEDRECTD81*%
G04:AMPARAMS|DCode=82|XSize=45.52mil|YSize=39.22mil|CornerRadius=10.56mil|HoleSize=0mil|Usage=FLASHONLY|Rotation=270.000|XOffset=0mil|YOffset=0mil|HoleType=Round|Shape=RoundedRectangle|*
%AMROUNDEDRECTD82*
21,1,0.04552,0.01811,0,0,270.0*
21,1,0.02441,0.03922,0,0,270.0*
1,1,0.02111,-0.00906,-0.01221*
1,1,0.02111,-0.00906,0.01221*
1,1,0.02111,0.00906,0.01221*
1,1,0.02111,0.00906,-0.01221*
%
%ADD82ROUNDEDRECTD82*%
G04:AMPARAMS|DCode=83|XSize=35.43mil|YSize=30.32mil|CornerRadius=4.13mil|HoleSize=0mil|Usage=FLASHONLY|Rotation=90.000|XOffset=0mil|YOffset=0mil|HoleType=Round|Shape=RoundedRectangle|*
%AMROUNDEDRECTD83*
21,1,0.03543,0.02205,0,0,90.0*
21,1,0.02717,0.03032,0,0,90.0*
1,1,0.00827,0.01102,0.01358*
1,1,0.00827,0.01102,-0.01358*
1,1,0.00827,-0.01102,-0.01358*
1,1,0.00827,-0.01102,0.01358*
%
%ADD83ROUNDEDRECTD83*%
G04:AMPARAMS|DCode=84|XSize=45.52mil|YSize=39.22mil|CornerRadius=10.56mil|HoleSize=0mil|Usage=FLASHONLY|Rotation=180.000|XOffset=0mil|YOffset=0mil|HoleType=Round|Shape=RoundedRectangle|*
%AMROUNDEDRECTD84*
21,1,0.04552,0.01811,0,0,180.0*
21,1,0.02441,0.03922,0,0,180.0*
1,1,0.02111,-0.01221,0.00906*
1,1,0.02111,0.01221,0.00906*
1,1,0.02111,0.01221,-0.00906*
1,1,0.02111,-0.01221,-0.00906*
%
%ADD84ROUNDEDRECTD84*%
G04:AMPARAMS|DCode=85|XSize=24.41mil|YSize=20.47mil|CornerRadius=5.81mil|HoleSize=0mil|Usage=FLASHONLY|Rotation=90.000|XOffset=0mil|YOffset=0mil|HoleType=Round|Shape=RoundedRectangle|*
%AMROUNDEDRECTD85*
21,1,0.02441,0.00886,0,0,90.0*
21,1,0.01280,0.02047,0,0,90.0*
1,1,0.01161,0.00443,0.00640*
1,1,0.01161,0.00443,-0.00640*
1,1,0.01161,-0.00443,-0.00640*
1,1,0.01161,-0.00443,0.00640*
%
%ADD85ROUNDEDRECTD85*%
G04:AMPARAMS|DCode=86|XSize=24.65mil|YSize=44.34mil|CornerRadius=2.58mil|HoleSize=0mil|Usage=FLASHONLY|Rotation=0.000|XOffset=0mil|YOffset=0mil|HoleType=Round|Shape=RoundedRectangle|*
%AMROUNDEDRECTD86*
21,1,0.02465,0.03917,0,0,0.0*
21,1,0.01949,0.04434,0,0,0.0*
1,1,0.00517,0.00974,-0.01959*
1,1,0.00517,-0.00974,-0.01959*
1,1,0.00517,-0.00974,0.01959*
1,1,0.00517,0.00974,0.01959*
%
%ADD86ROUNDEDRECTD86*%
G04:AMPARAMS|DCode=87|XSize=24.41mil|YSize=20.47mil|CornerRadius=5.81mil|HoleSize=0mil|Usage=FLASHONLY|Rotation=180.000|XOffset=0mil|YOffset=0mil|HoleType=Round|Shape=RoundedRectangle|*
%AMROUNDEDRECTD87*
21,1,0.02441,0.00886,0,0,180.0*
21,1,0.01280,0.02047,0,0,180.0*
1,1,0.01161,-0.00640,0.00443*
1,1,0.01161,0.00640,0.00443*
1,1,0.01161,0.00640,-0.00443*
1,1,0.01161,-0.00640,-0.00443*
%
%ADD87ROUNDEDRECTD87*%
G04:AMPARAMS|DCode=88|XSize=18.14mil|YSize=15.78mil|CornerRadius=4.45mil|HoleSize=0mil|Usage=FLASHONLY|Rotation=90.000|XOffset=0mil|YOffset=0mil|HoleType=Round|Shape=RoundedRectangle|*
%AMROUNDEDRECTD88*
21,1,0.01814,0.00689,0,0,90.0*
21,1,0.00925,0.01578,0,0,90.0*
1,1,0.00889,0.00345,0.00463*
1,1,0.00889,0.00345,-0.00463*
1,1,0.00889,-0.00345,-0.00463*
1,1,0.00889,-0.00345,0.00463*
%
%ADD88ROUNDEDRECTD88*%
G04:AMPARAMS|DCode=89|XSize=18.14mil|YSize=15.78mil|CornerRadius=4.45mil|HoleSize=0mil|Usage=FLASHONLY|Rotation=0.000|XOffset=0mil|YOffset=0mil|HoleType=Round|Shape=RoundedRectangle|*
%AMROUNDEDRECTD89*
21,1,0.01814,0.00689,0,0,0.0*
21,1,0.00925,0.01578,0,0,0.0*
1,1,0.00889,0.00463,-0.00345*
1,1,0.00889,-0.00463,-0.00345*
1,1,0.00889,-0.00463,0.00345*
1,1,0.00889,0.00463,0.00345*
%
%ADD89ROUNDEDRECTD89*%
G04:AMPARAMS|DCode=90|XSize=24.64mil|YSize=15.78mil|CornerRadius=2.38mil|HoleSize=0mil|Usage=FLASHONLY|Rotation=180.000|XOffset=0mil|YOffset=0mil|HoleType=Round|Shape=RoundedRectangle|*
%AMROUNDEDRECTD90*
21,1,0.02464,0.01102,0,0,180.0*
21,1,0.01988,0.01578,0,0,180.0*
1,1,0.00476,-0.00994,0.00551*
1,1,0.00476,0.00994,0.00551*
1,1,0.00476,0.00994,-0.00551*
1,1,0.00476,-0.00994,-0.00551*
%
%ADD90ROUNDEDRECTD90*%
G04:AMPARAMS|DCode=91|XSize=24.64mil|YSize=15.78mil|CornerRadius=2.38mil|HoleSize=0mil|Usage=FLASHONLY|Rotation=270.000|XOffset=0mil|YOffset=0mil|HoleType=Round|Shape=RoundedRectangle|*
%AMROUNDEDRECTD91*
21,1,0.02464,0.01102,0,0,270.0*
21,1,0.01988,0.01578,0,0,270.0*
1,1,0.00476,-0.00551,-0.00994*
1,1,0.00476,-0.00551,0.00994*
1,1,0.00476,0.00551,0.00994*
1,1,0.00476,0.00551,-0.00994*
%
%ADD91ROUNDEDRECTD91*%
%ADD92R,0.03743X0.07680*%
%ADD93R,0.01145X0.03743*%
%ADD94R,0.03743X0.01145*%
G04:AMPARAMS|DCode=95|XSize=73.04mil|YSize=28.35mil|CornerRadius=7.78mil|HoleSize=0mil|Usage=FLASHONLY|Rotation=180.000|XOffset=0mil|YOffset=0mil|HoleType=Round|Shape=RoundedRectangle|*
%AMROUNDEDRECTD95*
21,1,0.07304,0.01280,0,0,180.0*
21,1,0.05749,0.02835,0,0,180.0*
1,1,0.01555,-0.02874,0.00640*
1,1,0.01555,0.02874,0.00640*
1,1,0.01555,0.02874,-0.00640*
1,1,0.01555,-0.02874,-0.00640*
%
%ADD95ROUNDEDRECTD95*%
G04:AMPARAMS|DCode=96|XSize=60.07mil|YSize=19.72mil|CornerRadius=5.43mil|HoleSize=0mil|Usage=FLASHONLY|Rotation=0.000|XOffset=0mil|YOffset=0mil|HoleType=Round|Shape=RoundedRectangle|*
%AMROUNDEDRECTD96*
21,1,0.06007,0.00886,0,0,0.0*
21,1,0.04921,0.01972,0,0,0.0*
1,1,0.01086,0.02461,-0.00443*
1,1,0.01086,-0.02461,-0.00443*
1,1,0.01086,-0.02461,0.00443*
1,1,0.01086,0.02461,0.00443*
%
%ADD96ROUNDEDRECTD96*%
G04:AMPARAMS|DCode=97|XSize=32.13mil|YSize=112.84mil|CornerRadius=8.78mil|HoleSize=0mil|Usage=FLASHONLY|Rotation=270.000|XOffset=0mil|YOffset=0mil|HoleType=Round|Shape=RoundedRectangle|*
%AMROUNDEDRECTD97*
21,1,0.03213,0.09528,0,0,270.0*
21,1,0.01457,0.11284,0,0,270.0*
1,1,0.01757,-0.04764,-0.00728*
1,1,0.01757,-0.04764,0.00728*
1,1,0.01757,0.04764,0.00728*
1,1,0.01757,0.04764,-0.00728*
%
%ADD97ROUNDEDRECTD97*%
%ADD98O,0.01284X0.03450*%
%ADD99O,0.03450X0.01284*%
%ADD100R,0.10733X0.10733*%
G04:AMPARAMS|DCode=101|XSize=15.78mil|YSize=25.62mil|CornerRadius=2.38mil|HoleSize=0mil|Usage=FLASHONLY|Rotation=180.000|XOffset=0mil|YOffset=0mil|HoleType=Round|Shape=RoundedRectangle|*
%AMROUNDEDRECTD101*
21,1,0.01578,0.02087,0,0,180.0*
21,1,0.01102,0.02562,0,0,180.0*
1,1,0.00476,-0.00551,0.01043*
1,1,0.00476,0.00551,0.01043*
1,1,0.00476,0.00551,-0.01043*
1,1,0.00476,-0.00551,-0.01043*
%
%ADD101ROUNDEDRECTD101*%
G04:AMPARAMS|DCode=102|XSize=34.89mil|YSize=39.61mil|CornerRadius=6.28mil|HoleSize=0mil|Usage=FLASHONLY|Rotation=90.000|XOffset=0mil|YOffset=0mil|HoleType=Round|Shape=RoundedRectangle|*
%AMROUNDEDRECTD102*
21,1,0.03489,0.02705,0,0,90.0*
21,1,0.02232,0.03961,0,0,90.0*
1,1,0.01257,0.01352,0.01116*
1,1,0.01257,0.01352,-0.01116*
1,1,0.01257,-0.01352,-0.01116*
1,1,0.01257,-0.01352,0.01116*
%
%ADD102ROUNDEDRECTD102*%
%ADD103R,0.02662X0.04788*%
%ADD104R,0.01481X0.04788*%
G04:AMPARAMS|DCode=105|XSize=20.87mil|YSize=10.63mil|CornerRadius=4.53mil|HoleSize=0mil|Usage=FLASHONLY|Rotation=270.000|XOffset=0mil|YOffset=0mil|HoleType=Round|Shape=RoundedRectangle|*
%AMROUNDEDRECTD105*
21,1,0.02087,0.00158,0,0,270.0*
21,1,0.01181,0.01063,0,0,270.0*
1,1,0.00906,-0.00079,-0.00591*
1,1,0.00906,-0.00079,0.00591*
1,1,0.00906,0.00079,0.00591*
1,1,0.00906,0.00079,-0.00591*
%
%ADD105ROUNDEDRECTD105*%
G04:AMPARAMS|DCode=106|XSize=20.87mil|YSize=10.63mil|CornerRadius=4.53mil|HoleSize=0mil|Usage=FLASHONLY|Rotation=0.000|XOffset=0mil|YOffset=0mil|HoleType=Round|Shape=RoundedRectangle|*
%AMROUNDEDRECTD106*
21,1,0.02087,0.00158,0,0,0.0*
21,1,0.01181,0.01063,0,0,0.0*
1,1,0.00906,0.00591,-0.00079*
1,1,0.00906,-0.00591,-0.00079*
1,1,0.00906,-0.00591,0.00079*
1,1,0.00906,0.00591,0.00079*
%
%ADD106ROUNDEDRECTD106*%
G04:AMPARAMS|DCode=107|XSize=34.25mil|YSize=34.25mil|CornerRadius=4.53mil|HoleSize=0mil|Usage=FLASHONLY|Rotation=0.000|XOffset=0mil|YOffset=0mil|HoleType=Round|Shape=RoundedRectangle|*
%AMROUNDEDRECTD107*
21,1,0.03425,0.02520,0,0,0.0*
21,1,0.02520,0.03425,0,0,0.0*
1,1,0.00906,0.01260,-0.01260*
1,1,0.00906,-0.01260,-0.01260*
1,1,0.00906,-0.01260,0.01260*
1,1,0.00906,0.01260,0.01260*
%
%ADD107ROUNDEDRECTD107*%
G04:AMPARAMS|DCode=108|XSize=30.56mil|YSize=30.56mil|CornerRadius=4.26mil|HoleSize=0mil|Usage=FLASHONLY|Rotation=180.000|XOffset=0mil|YOffset=0mil|HoleType=Round|Shape=RoundedRectangle|*
%AMROUNDEDRECTD108*
21,1,0.03056,0.02205,0,0,180.0*
21,1,0.02205,0.03056,0,0,180.0*
1,1,0.00851,-0.01102,0.01102*
1,1,0.00851,0.01102,0.01102*
1,1,0.00851,0.01102,-0.01102*
1,1,0.00851,-0.01102,-0.01102*
%
%ADD108ROUNDEDRECTD108*%
G04:AMPARAMS|DCode=109|XSize=35.46mil|YSize=13.81mil|CornerRadius=3.95mil|HoleSize=0mil|Usage=FLASHONLY|Rotation=270.000|XOffset=0mil|YOffset=0mil|HoleType=Round|Shape=RoundedRectangle|*
%AMROUNDEDRECTD109*
21,1,0.03546,0.00591,0,0,270.0*
21,1,0.02756,0.01381,0,0,270.0*
1,1,0.00791,-0.00295,-0.01378*
1,1,0.00791,-0.00295,0.01378*
1,1,0.00791,0.00295,0.01378*
1,1,0.00791,0.00295,-0.01378*
%
%ADD109ROUNDEDRECTD109*%
G04:AMPARAMS|DCode=110|XSize=35.46mil|YSize=13.81mil|CornerRadius=3.95mil|HoleSize=0mil|Usage=FLASHONLY|Rotation=0.000|XOffset=0mil|YOffset=0mil|HoleType=Round|Shape=RoundedRectangle|*
%AMROUNDEDRECTD110*
21,1,0.03546,0.00591,0,0,0.0*
21,1,0.02756,0.01381,0,0,0.0*
1,1,0.00791,0.01378,-0.00295*
1,1,0.00791,-0.01378,-0.00295*
1,1,0.00791,-0.01378,0.00295*
1,1,0.00791,0.01378,0.00295*
%
%ADD110ROUNDEDRECTD110*%
G04:AMPARAMS|DCode=111|XSize=208.69mil|YSize=208.69mil|CornerRadius=11.34mil|HoleSize=0mil|Usage=FLASHONLY|Rotation=0.000|XOffset=0mil|YOffset=0mil|HoleType=Round|Shape=RoundedRectangle|*
%AMROUNDEDRECTD111*
21,1,0.20869,0.18602,0,0,0.0*
21,1,0.18602,0.20869,0,0,0.0*
1,1,0.02267,0.09301,-0.09301*
1,1,0.02267,-0.09301,-0.09301*
1,1,0.02267,-0.09301,0.09301*
1,1,0.02267,0.09301,0.09301*
%
%ADD111ROUNDEDRECTD111*%
%ADD112C,0.04937*%
G04:AMPARAMS|DCode=113|XSize=70.9mil|YSize=47.28mil|CornerRadius=12.32mil|HoleSize=0mil|Usage=FLASHONLY|Rotation=0.000|XOffset=0mil|YOffset=0mil|HoleType=Round|Shape=RoundedRectangle|*
%AMROUNDEDRECTD113*
21,1,0.07090,0.02264,0,0,0.0*
21,1,0.04626,0.04728,0,0,0.0*
1,1,0.02464,0.02313,-0.01132*
1,1,0.02464,-0.02313,-0.01132*
1,1,0.02464,-0.02313,0.01132*
1,1,0.02464,0.02313,0.01132*
%
%ADD113ROUNDEDRECTD113*%
G04:AMPARAMS|DCode=114|XSize=41.37mil|YSize=49.24mil|CornerRadius=2.97mil|HoleSize=0mil|Usage=FLASHONLY|Rotation=90.000|XOffset=0mil|YOffset=0mil|HoleType=Round|Shape=RoundedRectangle|*
%AMROUNDEDRECTD114*
21,1,0.04137,0.04331,0,0,90.0*
21,1,0.03543,0.04924,0,0,90.0*
1,1,0.00594,0.02165,0.01772*
1,1,0.00594,0.02165,-0.01772*
1,1,0.00594,-0.02165,-0.01772*
1,1,0.00594,-0.02165,0.01772*
%
%ADD114ROUNDEDRECTD114*%
G04:AMPARAMS|DCode=115|XSize=58.12mil|YSize=50.24mil|CornerRadius=3.86mil|HoleSize=0mil|Usage=FLASHONLY|Rotation=0.000|XOffset=0mil|YOffset=0mil|HoleType=Round|Shape=RoundedRectangle|*
%AMROUNDEDRECTD115*
21,1,0.05812,0.04252,0,0,0.0*
21,1,0.05039,0.05024,0,0,0.0*
1,1,0.00772,0.02520,-0.02126*
1,1,0.00772,-0.02520,-0.02126*
1,1,0.00772,-0.02520,0.02126*
1,1,0.00772,0.02520,0.02126*
%
%ADD115ROUNDEDRECTD115*%
G04:AMPARAMS|DCode=116|XSize=44.34mil|YSize=89.61mil|CornerRadius=5.63mil|HoleSize=0mil|Usage=FLASHONLY|Rotation=0.000|XOffset=0mil|YOffset=0mil|HoleType=Round|Shape=RoundedRectangle|*
%AMROUNDEDRECTD116*
21,1,0.04434,0.07835,0,0,0.0*
21,1,0.03307,0.08961,0,0,0.0*
1,1,0.01127,0.01654,-0.03917*
1,1,0.01127,-0.01654,-0.03917*
1,1,0.01127,-0.01654,0.03917*
1,1,0.01127,0.01654,0.03917*
%
%ADD116ROUNDEDRECTD116*%
G04:AMPARAMS|DCode=117|XSize=42.37mil|YSize=44.34mil|CornerRadius=5.44mil|HoleSize=0mil|Usage=FLASHONLY|Rotation=0.000|XOffset=0mil|YOffset=0mil|HoleType=Round|Shape=RoundedRectangle|*
%AMROUNDEDRECTD117*
21,1,0.04237,0.03347,0,0,0.0*
21,1,0.03150,0.04434,0,0,0.0*
1,1,0.01087,0.01575,-0.01673*
1,1,0.01087,-0.01575,-0.01673*
1,1,0.01087,-0.01575,0.01673*
1,1,0.01087,0.01575,0.01673*
%
%ADD117ROUNDEDRECTD117*%
G04:AMPARAMS|DCode=118|XSize=72.87mil|YSize=29.56mil|CornerRadius=10.65mil|HoleSize=0mil|Usage=FLASHONLY|Rotation=270.000|XOffset=0mil|YOffset=0mil|HoleType=Round|Shape=RoundedRectangle|*
%AMROUNDEDRECTD118*
21,1,0.07287,0.00827,0,0,270.0*
21,1,0.05158,0.02956,0,0,270.0*
1,1,0.02129,-0.00413,-0.02579*
1,1,0.02129,-0.00413,0.02579*
1,1,0.02129,0.00413,0.02579*
1,1,0.02129,0.00413,-0.02579*
%
%ADD118ROUNDEDRECTD118*%
G04:AMPARAMS|DCode=119|XSize=72.87mil|YSize=33.5mil|CornerRadius=12.03mil|HoleSize=0mil|Usage=FLASHONLY|Rotation=270.000|XOffset=0mil|YOffset=0mil|HoleType=Round|Shape=RoundedRectangle|*
%AMROUNDEDRECTD119*
21,1,0.07287,0.00945,0,0,270.0*
21,1,0.04882,0.03350,0,0,270.0*
1,1,0.02405,-0.00472,-0.02441*
1,1,0.02405,-0.00472,0.02441*
1,1,0.02405,0.00472,0.02441*
1,1,0.02405,0.00472,-0.02441*
%
%ADD119ROUNDEDRECTD119*%
G04:AMPARAMS|DCode=120|XSize=44.34mil|YSize=28.59mil|CornerRadius=4.06mil|HoleSize=0mil|Usage=FLASHONLY|Rotation=270.000|XOffset=0mil|YOffset=0mil|HoleType=Round|Shape=RoundedRectangle|*
%AMROUNDEDRECTD120*
21,1,0.04434,0.02047,0,0,270.0*
21,1,0.03622,0.02859,0,0,270.0*
1,1,0.00812,-0.01024,-0.01811*
1,1,0.00812,-0.01024,0.01811*
1,1,0.00812,0.01024,0.01811*
1,1,0.00812,0.01024,-0.01811*
%
%ADD120ROUNDEDRECTD120*%
%ADD121C,0.07874*%
%ADD122R,0.10792X0.16796*%
%ADD123R,0.07308X0.16796*%
%ADD124C,0.06206*%
%ADD125C,0.19985*%
%ADD126O,0.04237X0.07387*%
%ADD127O,0.04237X0.08568*%
%ADD128C,0.02859*%
G36*
X988727Y708008D02*
X990401Y707675D01*
X990409Y707672D01*
X990429Y707666D01*
X992005Y707013D01*
X992031Y706999D01*
X993450Y706051D01*
X993473Y706033D01*
X994679Y704826D01*
X994698Y704804D01*
X995646Y703385D01*
X995660Y703359D01*
X996313Y701783D01*
X996321Y701754D01*
X996654Y700081D01*
X996657Y700051D01*
Y699198D01*
Y658647D01*
Y657794D01*
X996654Y657765D01*
X996321Y656091D01*
X996319Y656083D01*
X996313Y656063D01*
X995660Y654487D01*
X995646Y654461D01*
X994698Y653042D01*
X994679Y653019D01*
X993473Y651813D01*
X993450Y651794D01*
X992031Y650846D01*
X992005Y650832D01*
X990429Y650179D01*
X990401Y650171D01*
X988727Y649838D01*
X988698Y649835D01*
X947294D01*
X946441Y649835D01*
X946411Y649838D01*
X944738Y650171D01*
X944710Y650179D01*
X943133Y650832D01*
X943107Y650846D01*
X941689Y651794D01*
X941689Y651794D01*
X941666Y651813D01*
X940459Y653019D01*
X940441Y653042D01*
X939493Y654461D01*
X939484Y654478D01*
X939479Y654487D01*
X938826Y656063D01*
X938819Y656085D01*
X938817Y656091D01*
X938484Y657765D01*
X938482Y657794D01*
X938482Y658647D01*
Y658647D01*
X938482Y699198D01*
Y700051D01*
X938484Y700081D01*
X938817Y701754D01*
X938826Y701783D01*
X939479Y703359D01*
X939493Y703385D01*
X940441Y704804D01*
X940459Y704826D01*
X941666Y706033D01*
X941689Y706051D01*
X943107Y706999D01*
X943124Y707009D01*
X943133Y707013D01*
X944710Y707666D01*
X944738Y707675D01*
X946411Y708008D01*
X946441Y708010D01*
X947293Y708010D01*
X947294Y708011D01*
X988698D01*
X988727Y708008D01*
D02*
G37*
G36*
X1180853Y692456D02*
X1182527Y692124D01*
X1182535Y692121D01*
X1182555Y692115D01*
X1184131Y691462D01*
X1184157Y691448D01*
X1185576Y690500D01*
X1185599Y690482D01*
X1186805Y689275D01*
X1186824Y689252D01*
X1187772Y687834D01*
X1187786Y687808D01*
X1188439Y686231D01*
X1188447Y686203D01*
X1188780Y684530D01*
X1188783Y684500D01*
Y683647D01*
Y656679D01*
D01*
Y621836D01*
Y620983D01*
X1188780Y620954D01*
X1188447Y619280D01*
X1188439Y619252D01*
X1187786Y617676D01*
X1187772Y617650D01*
X1186824Y616231D01*
X1186805Y616208D01*
X1185599Y615002D01*
X1185576Y614983D01*
X1184157Y614035D01*
X1184140Y614026D01*
X1184131Y614021D01*
X1182555Y613368D01*
X1182527Y613360D01*
X1180853Y613027D01*
X1180824Y613024D01*
X1179971Y613024D01*
X1179971Y613024D01*
X1073672Y613024D01*
X1072819Y613024D01*
X1072789Y613027D01*
X1071116Y613360D01*
X1071088Y613368D01*
X1069511Y614021D01*
X1069485Y614035D01*
X1068067Y614983D01*
X1068044Y615002D01*
X1066837Y616208D01*
X1066819Y616231D01*
X1065871Y617650D01*
X1065857Y617676D01*
X1065204Y619252D01*
X1065195Y619280D01*
X1064862Y620954D01*
X1064859Y620983D01*
Y620983D01*
D01*
D01*
X1064860Y621836D01*
X1064859Y621836D01*
Y653726D01*
Y656679D01*
D01*
Y683647D01*
Y684500D01*
X1064862Y684530D01*
X1065195Y686203D01*
X1065197Y686210D01*
X1065204Y686231D01*
X1065857Y687808D01*
X1065871Y687834D01*
X1066819Y689252D01*
X1066837Y689275D01*
X1068044Y690482D01*
X1068067Y690500D01*
X1069485Y691448D01*
X1069511Y691462D01*
X1071087Y692115D01*
X1071116Y692124D01*
X1072789Y692456D01*
X1072819Y692459D01*
X1180824D01*
X1180853Y692456D01*
D02*
G37*
%LPC*%
G36*
X987841Y701804D02*
X947297D01*
X947042Y701791D01*
X946538Y701691D01*
X946066Y701495D01*
X945641Y701212D01*
X945280Y700851D01*
X944997Y700426D01*
X944801Y699954D01*
X944701Y699450D01*
X944689Y699195D01*
Y658651D01*
X944701Y658396D01*
X944801Y657891D01*
X944997Y657419D01*
X945280Y656995D01*
X945641Y656634D01*
X946066Y656350D01*
X946538Y656155D01*
X947042Y656055D01*
X947297Y656042D01*
X987841D01*
X988097Y656055D01*
X988601Y656155D01*
X989073Y656350D01*
X989497Y656634D01*
X989858Y656995D01*
X990142Y657419D01*
X990337Y657891D01*
X990438Y658396D01*
X990450Y658651D01*
Y699195D01*
X990438Y699450D01*
X990337Y699954D01*
X990142Y700426D01*
X989858Y700851D01*
X989497Y701212D01*
X989073Y701495D01*
X988601Y701691D01*
X988097Y701791D01*
X987841Y701804D01*
D02*
G37*
G36*
X1179967Y686252D02*
X1073675D01*
X1073420Y686240D01*
X1072916Y686139D01*
X1072444Y685944D01*
X1072019Y685661D01*
X1071658Y685299D01*
X1071375Y684875D01*
X1071179Y684403D01*
X1071079Y683899D01*
X1071066Y683643D01*
Y656679D01*
D01*
Y621840D01*
X1071079Y621585D01*
X1071179Y621080D01*
X1071375Y620609D01*
X1071658Y620184D01*
X1072019Y619823D01*
X1072444Y619539D01*
X1072916Y619344D01*
X1073420Y619244D01*
X1073675Y619231D01*
X1179967D01*
X1180223Y619244D01*
X1180727Y619344D01*
X1181199Y619539D01*
X1181623Y619823D01*
X1181984Y620184D01*
X1182268Y620609D01*
X1182463Y621080D01*
X1182563Y621585D01*
X1182576Y621840D01*
Y653726D01*
Y656679D01*
D01*
Y683643D01*
X1182563Y683899D01*
X1182463Y684403D01*
X1182268Y684875D01*
X1181984Y685299D01*
X1181623Y685661D01*
X1181199Y685944D01*
X1180727Y686139D01*
X1180223Y686240D01*
X1179967Y686252D01*
D02*
G37*
%LPD*%
D12*
X1223475Y611403D02*
G03*
X1231349Y619277I0J7874D01*
G01*
Y719671D02*
G03*
X1223475Y727545I-7874J0D01*
G01*
X941979D02*
G03*
X934105Y719671I0J-7874D01*
G01*
Y619277D02*
G03*
X941979Y611403I7874J0D01*
G01*
X1231349Y619277D02*
Y719671D01*
X941979Y727545D02*
X1223475D01*
X941979Y611403D02*
X1223475D01*
X934105Y619277D02*
Y719671D01*
D68*
X1205758Y697033D02*
D03*
D69*
X1211762Y702840D02*
D03*
Y691226D02*
D03*
D70*
X1173278Y697033D02*
D03*
X1177215D02*
D03*
X1132628Y718686D02*
D03*
X1128691D02*
D03*
X1113239Y718687D02*
D03*
X1109302D02*
D03*
X1135876Y712781D02*
D03*
X1139813D02*
D03*
X1049262Y643884D02*
D03*
X1045325D02*
D03*
X1053199Y634041D02*
D03*
X1057136D02*
D03*
X1053199Y638962D02*
D03*
X1057136D02*
D03*
X1174262Y660616D02*
D03*
X1178199D02*
D03*
X1144735Y622230D02*
D03*
X1148672D02*
D03*
X1037057Y706876D02*
D03*
X1040994D02*
D03*
X1117490Y660575D02*
D03*
X1121427D02*
D03*
X1154577Y670458D02*
D03*
X1150640D02*
D03*
X1190010Y697033D02*
D03*
X1193947D02*
D03*
X1076520Y640476D02*
D03*
X1072583D02*
D03*
X1107679Y628859D02*
D03*
X1111616D02*
D03*
X1157530Y622230D02*
D03*
X1153593D02*
D03*
X1011861Y667506D02*
D03*
X1015798D02*
D03*
X1011861Y663568D02*
D03*
X1015798D02*
D03*
X948312Y674591D02*
D03*
X952249D02*
D03*
X1016782Y694080D02*
D03*
X1012845D02*
D03*
X951906Y662345D02*
D03*
X947969D02*
D03*
X1129932Y702939D02*
D03*
X1125994D02*
D03*
X1012845Y698017D02*
D03*
X1016782D02*
D03*
X1164420Y622230D02*
D03*
X1168357D02*
D03*
X1138829D02*
D03*
X1134892D02*
D03*
X1174262Y664553D02*
D03*
X1178199D02*
D03*
X1004971Y634041D02*
D03*
X1001034D02*
D03*
X1009892Y671443D02*
D03*
X1013829D02*
D03*
X1113239Y722624D02*
D03*
X1109302D02*
D03*
X1076518Y636562D02*
D03*
X1072581D02*
D03*
D71*
X1181152Y700970D02*
D03*
Y697033D02*
D03*
X1169932Y701364D02*
D03*
Y697427D02*
D03*
X1121113Y722624D02*
D03*
Y718687D02*
D03*
X1135876Y708844D02*
D03*
Y704907D02*
D03*
X1125050Y722624D02*
D03*
Y718687D02*
D03*
X1117176Y637978D02*
D03*
Y634041D02*
D03*
X1120390Y648663D02*
D03*
Y644726D02*
D03*
X1116571Y648847D02*
D03*
Y644910D02*
D03*
X1075509Y661337D02*
D03*
Y665274D02*
D03*
X1186073Y697033D02*
D03*
Y700970D02*
D03*
X984382Y664121D02*
D03*
Y668058D02*
D03*
X954387Y689428D02*
D03*
Y685491D02*
D03*
X984382Y671995D02*
D03*
Y675932D02*
D03*
X1139813Y704907D02*
D03*
Y708844D02*
D03*
X1121113Y634041D02*
D03*
Y637978D02*
D03*
D72*
X1095193Y669193D02*
D03*
Y666988D02*
D03*
X1098371Y669227D02*
D03*
Y667022D02*
D03*
X1096388Y676482D02*
D03*
Y674277D02*
D03*
Y681219D02*
D03*
Y679014D02*
D03*
X1120121Y680843D02*
D03*
Y678639D02*
D03*
Y677275D02*
D03*
Y675070D02*
D03*
X1113975Y669282D02*
D03*
Y667077D02*
D03*
D73*
X1092517Y684238D02*
D03*
X1094722D02*
D03*
X1103580D02*
D03*
X1101376D02*
D03*
X1095588Y671443D02*
D03*
X1097793D02*
D03*
X1099157D02*
D03*
X1101361D02*
D03*
X1126144Y680909D02*
D03*
X1123940D02*
D03*
X1115133Y679925D02*
D03*
X1112928D02*
D03*
X1133834Y680909D02*
D03*
X1131629D02*
D03*
X1115133Y676972D02*
D03*
X1112928D02*
D03*
X1118830Y670148D02*
D03*
X1116625D02*
D03*
X1130759Y671014D02*
D03*
X1128555D02*
D03*
X1122885Y670148D02*
D03*
X1120681D02*
D03*
X1113365Y665052D02*
D03*
X1115569D02*
D03*
D74*
X1064841Y699633D02*
D03*
Y697468D02*
D03*
X1053030Y699633D02*
D03*
Y697468D02*
D03*
X1137875Y650172D02*
D03*
Y648006D02*
D03*
X1069763Y701444D02*
D03*
Y703531D02*
D03*
X1106231Y684238D02*
D03*
Y682151D02*
D03*
X1099341Y681403D02*
D03*
Y679317D02*
D03*
Y676364D02*
D03*
Y674277D02*
D03*
X1133778Y673101D02*
D03*
Y671014D02*
D03*
X1125904Y673042D02*
D03*
Y670955D02*
D03*
X1113975Y673219D02*
D03*
Y671132D02*
D03*
X1170325Y679435D02*
D03*
Y677348D02*
D03*
X1138821Y682996D02*
D03*
Y680909D02*
D03*
X1117168Y676972D02*
D03*
Y679059D02*
D03*
X1135869Y678823D02*
D03*
Y680909D02*
D03*
X1128979D02*
D03*
Y678823D02*
D03*
X1153593Y676482D02*
D03*
Y674395D02*
D03*
Y679317D02*
D03*
Y681403D02*
D03*
D75*
X1072833Y697422D02*
D03*
X1070667D02*
D03*
X1126721Y641716D02*
D03*
X1128887D02*
D03*
X1055031Y643902D02*
D03*
X1057118D02*
D03*
X1058061Y697422D02*
D03*
X1060148D02*
D03*
X1091644Y677348D02*
D03*
X1089557D02*
D03*
X1082668D02*
D03*
X1084754D02*
D03*
X965483Y678054D02*
D03*
X967569D02*
D03*
X945916Y646836D02*
D03*
X948002D02*
D03*
X1091898Y671411D02*
D03*
X1093985D02*
D03*
X1098357Y684238D02*
D03*
X1096270D02*
D03*
X1111329Y684238D02*
D03*
X1109243D02*
D03*
X1104380Y677348D02*
D03*
X1102294D02*
D03*
X1104380Y674395D02*
D03*
X1102294D02*
D03*
X1123999Y677957D02*
D03*
X1126085D02*
D03*
X1117046Y664124D02*
D03*
X1119133D02*
D03*
X1119014Y667195D02*
D03*
X1116928D02*
D03*
X1138818Y671014D02*
D03*
X1136731D02*
D03*
X1157412Y670458D02*
D03*
X1159498D02*
D03*
X1120121Y673035D02*
D03*
X1118034D02*
D03*
X1120121Y682878D02*
D03*
X1118034D02*
D03*
D76*
X958436Y677731D02*
D03*
X962436D02*
D03*
X963580Y670188D02*
D03*
X967580D02*
D03*
X963659Y674250D02*
D03*
X967659D02*
D03*
X955727Y646836D02*
D03*
X959727D02*
D03*
X1111207Y701954D02*
D03*
X1115207D02*
D03*
X1178262Y656679D02*
D03*
X1174262D02*
D03*
X1178262Y652742D02*
D03*
X1174262D02*
D03*
X1178199Y648805D02*
D03*
X1174199D02*
D03*
X1008876Y634041D02*
D03*
X1012876D02*
D03*
X1117623Y655212D02*
D03*
X1121623D02*
D03*
X1041057Y702939D02*
D03*
X1037057D02*
D03*
X1035546Y698017D02*
D03*
X1031546D02*
D03*
D77*
X964631Y681509D02*
D03*
Y683477D02*
D03*
Y685446D02*
D03*
Y687415D02*
D03*
X958033D02*
D03*
Y685446D02*
D03*
Y683477D02*
D03*
Y681509D02*
D03*
D78*
X970522Y672395D02*
D03*
Y676395D02*
D03*
X955761Y669977D02*
D03*
Y673977D02*
D03*
X960058Y670049D02*
D03*
Y674049D02*
D03*
X980734Y647775D02*
D03*
Y643775D02*
D03*
X1180168Y632104D02*
D03*
Y628104D02*
D03*
X1193947Y671474D02*
D03*
Y667474D02*
D03*
X1006939Y663537D02*
D03*
Y667537D02*
D03*
X1003002D02*
D03*
Y663537D02*
D03*
X1000050Y620293D02*
D03*
Y616293D02*
D03*
X1011861Y620293D02*
D03*
Y616293D02*
D03*
X1022687Y620261D02*
D03*
Y616261D02*
D03*
X1059105Y620293D02*
D03*
Y616293D02*
D03*
X1046309D02*
D03*
Y620293D02*
D03*
X1034498D02*
D03*
Y616293D02*
D03*
D79*
X949748Y691254D02*
D03*
Y685348D02*
D03*
D80*
X977893Y683018D02*
D03*
Y692348D02*
D03*
D81*
X958728Y693328D02*
D03*
X966128D02*
D03*
D82*
X956349Y660616D02*
D03*
X968947D02*
D03*
D83*
X947884Y679317D02*
D03*
X953790D02*
D03*
X943382Y641902D02*
D03*
X949288D02*
D03*
X1072884Y671443D02*
D03*
X1078790D02*
D03*
X1083766Y682604D02*
D03*
X1077861D02*
D03*
X1114123Y623655D02*
D03*
X1108217D02*
D03*
D84*
X977308Y675946D02*
D03*
Y663348D02*
D03*
D85*
X946002Y637499D02*
D03*
X949349D02*
D03*
X1132333Y722624D02*
D03*
X1128987D02*
D03*
X1150345Y679316D02*
D03*
X1146998D02*
D03*
X1150345Y675379D02*
D03*
X1146998D02*
D03*
D86*
X1088829Y671443D02*
D03*
X1084498D02*
D03*
D87*
X1077805Y675675D02*
D03*
Y679022D02*
D03*
X1117176Y718982D02*
D03*
Y722328D02*
D03*
X1026625Y645556D02*
D03*
Y642210D02*
D03*
X1031546Y645556D02*
D03*
Y642210D02*
D03*
X1036467Y645556D02*
D03*
Y642210D02*
D03*
X1049262Y634337D02*
D03*
Y637683D02*
D03*
D88*
X1128947Y707821D02*
D03*
X1126979D02*
D03*
X1128947Y713805D02*
D03*
X1126979D02*
D03*
D89*
X1130955Y707860D02*
D03*
Y709828D02*
D03*
Y711797D02*
D03*
Y713765D02*
D03*
X1124971Y707860D02*
D03*
Y709828D02*
D03*
Y711797D02*
D03*
Y713765D02*
D03*
D90*
X1117817Y707860D02*
D03*
Y709828D02*
D03*
Y711797D02*
D03*
Y713765D02*
D03*
X1108660D02*
D03*
Y711797D02*
D03*
Y709828D02*
D03*
Y707860D02*
D03*
D91*
X1115207Y714403D02*
D03*
X1113239D02*
D03*
X1111270D02*
D03*
Y707222D02*
D03*
X1113239D02*
D03*
X1115207D02*
D03*
D92*
X1007924Y683253D02*
D03*
D93*
X1008908Y690340D02*
D03*
Y676167D02*
D03*
X1006939D02*
D03*
Y690340D02*
D03*
D94*
X1013042Y688175D02*
D03*
Y686206D02*
D03*
Y684238D02*
D03*
Y682269D02*
D03*
Y680301D02*
D03*
Y678332D02*
D03*
X1002806D02*
D03*
Y680301D02*
D03*
Y682269D02*
D03*
Y684238D02*
D03*
Y686206D02*
D03*
Y688175D02*
D03*
D95*
X1174389Y627525D02*
D03*
Y632525D02*
D03*
Y637525D02*
D03*
Y642525D02*
D03*
X1146577D02*
D03*
Y637525D02*
D03*
Y632525D02*
D03*
Y627525D02*
D03*
D96*
X1144979Y658549D02*
D03*
Y655990D02*
D03*
Y653431D02*
D03*
Y650872D02*
D03*
X1168113D02*
D03*
Y653431D02*
D03*
Y655990D02*
D03*
Y658549D02*
D03*
D97*
X1219676Y636147D02*
D03*
X1203652D02*
D03*
X1219676Y641147D02*
D03*
X1203652D02*
D03*
X1219676Y646147D02*
D03*
X1203652D02*
D03*
X1219676Y651147D02*
D03*
X1203652D02*
D03*
X1219676Y656147D02*
D03*
X1203652D02*
D03*
X1219676Y661147D02*
D03*
X1203652D02*
D03*
X1219676Y666147D02*
D03*
X1203652D02*
D03*
X1219676Y671147D02*
D03*
X1203652D02*
D03*
X1219676Y676147D02*
D03*
X1203652D02*
D03*
X1219676Y681147D02*
D03*
X1203652D02*
D03*
D98*
X1013829Y655399D02*
D03*
X1011861D02*
D03*
X1009892D02*
D03*
X1007924D02*
D03*
X1005955D02*
D03*
X1003987D02*
D03*
Y640242D02*
D03*
X1005955D02*
D03*
X1007924D02*
D03*
X1009892D02*
D03*
X1011861D02*
D03*
X1013829D02*
D03*
D99*
X1001329Y652742D02*
D03*
Y650773D02*
D03*
Y648805D02*
D03*
Y646836D02*
D03*
Y644868D02*
D03*
Y642899D02*
D03*
X1016487D02*
D03*
Y644868D02*
D03*
Y646836D02*
D03*
Y648805D02*
D03*
Y650773D02*
D03*
Y652742D02*
D03*
D100*
X1008908Y647821D02*
D03*
D101*
X974853Y646836D02*
D03*
X977412D02*
D03*
X969833D02*
D03*
X967274D02*
D03*
X985063Y645114D02*
D03*
X987622D02*
D03*
D102*
X1006939Y620498D02*
D03*
Y614120D02*
D03*
X995128Y620498D02*
D03*
Y614120D02*
D03*
X1018229Y620498D02*
D03*
Y614120D02*
D03*
X1054273Y620498D02*
D03*
Y614120D02*
D03*
X1041388Y620498D02*
D03*
Y614120D02*
D03*
X1029577Y620498D02*
D03*
Y614120D02*
D03*
D103*
X985089Y639376D02*
D03*
X981939D02*
D03*
X963042D02*
D03*
X959892D02*
D03*
D104*
X965601D02*
D03*
X979380D02*
D03*
X967569D02*
D03*
X977412D02*
D03*
X969538D02*
D03*
X975443D02*
D03*
X971506D02*
D03*
X973475D02*
D03*
D105*
X1163435Y680852D02*
D03*
X1161467D02*
D03*
X1159498D02*
D03*
Y673529D02*
D03*
X1161467D02*
D03*
X1163435D02*
D03*
D106*
X1157806Y679159D02*
D03*
Y677191D02*
D03*
Y675222D02*
D03*
X1165128D02*
D03*
Y677191D02*
D03*
Y679159D02*
D03*
D107*
X1161467Y677191D02*
D03*
D108*
X1183506Y704948D02*
D03*
X1179176D02*
D03*
X1058053Y704685D02*
D03*
X1062383D02*
D03*
D109*
X1105365Y663568D02*
D03*
X1103396D02*
D03*
X1101427D02*
D03*
X1099459D02*
D03*
X1097491D02*
D03*
X1095522D02*
D03*
X1093554D02*
D03*
X1091584D02*
D03*
X1089616D02*
D03*
X1087648D02*
D03*
X1085680D02*
D03*
X1083710D02*
D03*
Y636403D02*
D03*
X1085680D02*
D03*
X1087648D02*
D03*
X1089616D02*
D03*
X1091584D02*
D03*
X1093554D02*
D03*
X1095522D02*
D03*
X1097491D02*
D03*
X1099459D02*
D03*
X1101427D02*
D03*
X1103396D02*
D03*
X1105365D02*
D03*
D110*
X1080955Y660813D02*
D03*
Y658844D02*
D03*
Y656876D02*
D03*
Y654907D02*
D03*
Y652939D02*
D03*
Y650970D02*
D03*
Y649002D02*
D03*
Y647032D02*
D03*
Y645064D02*
D03*
Y643095D02*
D03*
Y641127D02*
D03*
Y639158D02*
D03*
X1108121D02*
D03*
Y641127D02*
D03*
Y643095D02*
D03*
Y645064D02*
D03*
Y647032D02*
D03*
Y649002D02*
D03*
Y650970D02*
D03*
Y652939D02*
D03*
Y654907D02*
D03*
Y656876D02*
D03*
Y658844D02*
D03*
Y660813D02*
D03*
D111*
X1094538Y649986D02*
D03*
D112*
X1092811Y624010D02*
D03*
X1034498Y637978D02*
D03*
X1040404D02*
D03*
D113*
X1100789Y622560D02*
D03*
Y629252D02*
D03*
D114*
X1126265Y645668D02*
D03*
X1132958D02*
D03*
Y650786D02*
D03*
X1126265D02*
D03*
D115*
X1126600Y636862D02*
D03*
Y630562D02*
D03*
X1135261D02*
D03*
Y636862D02*
D03*
D116*
X1100345Y714750D02*
D03*
X1088731D02*
D03*
D117*
X1094538Y708746D02*
D03*
D118*
X1022764Y652838D02*
D03*
X1057410D02*
D03*
Y690240D02*
D03*
X1022764D02*
D03*
D119*
X1027095Y652838D02*
D03*
X1031426D02*
D03*
X1035756D02*
D03*
X1040087D02*
D03*
X1044418D02*
D03*
X1048748D02*
D03*
X1053079D02*
D03*
Y690240D02*
D03*
X1048748D02*
D03*
X1044418D02*
D03*
X1040087D02*
D03*
X1035756D02*
D03*
X1031426D02*
D03*
X1027095D02*
D03*
D120*
X1032825Y719966D02*
D03*
Y703628D02*
D03*
X1024361Y719966D02*
D03*
Y703628D02*
D03*
X1004676D02*
D03*
Y719966D02*
D03*
X1013140Y703628D02*
D03*
Y719966D02*
D03*
D121*
X1204774Y618293D02*
D03*
X1207727Y722624D02*
D03*
X939026Y635025D02*
D03*
X1001034Y696049D02*
D03*
D122*
X1076260Y716886D02*
D03*
X1048760D02*
D03*
X1197642Y716886D02*
D03*
X1170142D02*
D03*
D123*
X1062510Y716886D02*
D03*
X1183892Y716886D02*
D03*
D124*
X941585Y678923D02*
D03*
X993554D02*
D03*
D125*
X943947Y717702D02*
D03*
Y621246D02*
D03*
X1221506Y717702D02*
D03*
Y621246D02*
D03*
D126*
X989498Y620675D02*
D03*
X955483D02*
D03*
D127*
X989498Y637132D02*
D03*
X955483D02*
D03*
D128*
X961113Y635163D02*
D03*
X983869D02*
D03*
M02*
