G04*
G04 #@! TF.GenerationSoftware,Altium Limited,Altium Designer,23.0.1 (38)*
G04*
G04 Layer_Physical_Order=3*
G04 Layer_Color=6736896*
%FSLAX25Y25*%
%MOIN*%
G70*
G04*
G04 #@! TF.SameCoordinates,19342238-8E0C-4B0D-84B5-E67248FCF62E*
G04*
G04*
G04 #@! TF.FilePolarity,Positive*
G04*
G01*
G75*
%ADD12C,0.00600*%
%ADD146C,0.01200*%
%ADD154C,0.05906*%
%ADD155C,0.19685*%
%ADD156O,0.03937X0.07087*%
%ADD157O,0.03937X0.08268*%
%ADD159C,0.03819*%
%ADD160C,0.02200*%
%ADD161C,0.02400*%
G36*
X1225677Y726930D02*
X1227051Y726361D01*
X1228287Y725535D01*
X1229339Y724483D01*
X1230165Y723247D01*
X1230734Y721873D01*
X1231024Y720414D01*
Y719671D01*
Y619277D01*
Y618534D01*
X1230734Y617075D01*
X1230165Y615701D01*
X1229339Y614465D01*
X1228287Y613413D01*
X1227051Y612587D01*
X1225677Y612018D01*
X1224218Y611728D01*
X1010680D01*
X1010615Y612201D01*
X1011167Y612429D01*
X1011589Y612851D01*
X1011817Y613403D01*
Y613999D01*
X1011589Y614551D01*
X1011167Y614973D01*
X1010615Y615201D01*
X1010019D01*
X1009467Y614973D01*
X1009045Y614551D01*
X1008817Y613999D01*
Y613403D01*
X1009045Y612851D01*
X1009467Y612429D01*
X1010019Y612201D01*
X1009954Y611728D01*
X941235D01*
X939777Y612018D01*
X938403Y612587D01*
X937166Y613413D01*
X936115Y614465D01*
X935289Y615701D01*
X934719Y617075D01*
X934429Y618534D01*
Y619277D01*
Y719671D01*
Y720414D01*
X934719Y721873D01*
X935289Y723247D01*
X936115Y724483D01*
X937166Y725535D01*
X938403Y726361D01*
X939777Y726930D01*
X941235Y727220D01*
X1224218D01*
X1225677Y726930D01*
D02*
G37*
%LPC*%
G36*
X1119291Y725894D02*
X1118695D01*
X1118143Y725666D01*
X1117721Y725244D01*
X1117493Y724693D01*
Y724096D01*
X1117721Y723545D01*
X1118143Y723123D01*
X1118695Y722894D01*
X1119291D01*
X1119843Y723123D01*
X1120265Y723545D01*
X1120493Y724096D01*
Y724693D01*
X1120265Y725244D01*
X1119843Y725666D01*
X1119291Y725894D01*
D02*
G37*
G36*
X1127483Y725802D02*
X1126886D01*
X1126335Y725574D01*
X1125913Y725152D01*
X1125685Y724601D01*
Y724004D01*
X1125913Y723453D01*
X1126335Y723031D01*
X1126886Y722802D01*
X1127483D01*
X1128034Y723031D01*
X1128456Y723453D01*
X1128685Y724004D01*
Y724601D01*
X1128456Y725152D01*
X1128034Y725574D01*
X1127483Y725802D01*
D02*
G37*
G36*
X1115085Y725778D02*
X1114488D01*
X1113937Y725550D01*
X1113515Y725128D01*
X1113287Y724576D01*
Y723980D01*
X1113515Y723428D01*
X1113937Y723006D01*
X1114488Y722778D01*
X1115085D01*
X1115636Y723006D01*
X1116058Y723428D01*
X1116287Y723980D01*
Y724576D01*
X1116058Y725128D01*
X1115636Y725550D01*
X1115085Y725778D01*
D02*
G37*
G36*
X1131868Y717817D02*
X1131271D01*
X1130720Y717589D01*
X1130298Y717167D01*
X1130070Y716615D01*
Y716018D01*
X1130298Y715467D01*
X1130720Y715045D01*
X1131271Y714817D01*
X1131868D01*
X1132419Y715045D01*
X1132841Y715467D01*
X1133070Y716018D01*
Y716615D01*
X1132841Y717167D01*
X1132419Y717589D01*
X1131868Y717817D01*
D02*
G37*
G36*
X1118274Y717455D02*
X1117677D01*
X1117126Y717227D01*
X1116704Y716805D01*
X1116648Y716669D01*
X1115428D01*
X1115155Y716614D01*
X1114924Y716460D01*
X1110100Y711636D01*
X1109946Y711405D01*
X1109891Y711132D01*
Y675790D01*
X1108170Y674069D01*
X1108015Y673837D01*
X1107961Y673564D01*
Y660979D01*
X1107461Y660772D01*
X1106775Y661458D01*
Y669879D01*
X1106651Y670503D01*
X1106297Y671032D01*
X1103932Y673397D01*
Y679323D01*
X1103808Y679947D01*
X1103454Y680476D01*
X1102925Y680830D01*
X1102301Y680954D01*
X1101676Y680830D01*
X1101147Y680476D01*
X1100794Y679947D01*
X1100669Y679323D01*
Y672721D01*
X1100794Y672097D01*
X1101147Y671568D01*
X1103512Y669203D01*
Y660782D01*
X1103636Y660158D01*
X1103990Y659629D01*
X1110701Y652918D01*
X1110555Y652356D01*
X1110245Y652228D01*
X1109823Y651806D01*
X1109767Y651670D01*
X1104563D01*
X1104290Y651615D01*
X1104058Y651461D01*
X1097601Y645003D01*
X1083472D01*
X1083199Y644949D01*
X1082967Y644794D01*
X1080397Y642224D01*
X1079935Y642416D01*
Y647389D01*
X1079881Y647662D01*
X1079726Y647893D01*
X1078310Y649309D01*
X1078079Y649464D01*
X1077806Y649518D01*
X1077357D01*
X1077148Y650018D01*
X1077337Y650475D01*
Y651072D01*
X1077109Y651623D01*
X1076687Y652045D01*
X1076135Y652273D01*
X1075830D01*
X1075628Y652348D01*
X1075509Y652623D01*
X1075741Y653177D01*
X1075830Y653210D01*
X1076135D01*
X1076687Y653439D01*
X1077109Y653861D01*
X1077337Y654412D01*
Y655009D01*
X1077109Y655560D01*
X1076687Y655982D01*
X1076135Y656210D01*
X1075830D01*
X1075493Y656335D01*
X1075368Y656672D01*
Y656685D01*
X1075493Y657023D01*
X1075830Y657147D01*
X1076135D01*
X1076687Y657376D01*
X1077109Y657798D01*
X1077337Y658349D01*
Y658946D01*
X1077109Y659497D01*
X1076687Y659919D01*
X1076399Y660038D01*
X1076263Y660609D01*
X1077524Y661870D01*
X1080351D01*
X1080624Y661925D01*
X1080856Y662080D01*
X1082247Y663471D01*
X1082402Y663703D01*
X1082456Y663976D01*
Y665193D01*
X1082592Y665250D01*
X1083014Y665672D01*
X1083243Y666223D01*
Y666820D01*
X1083014Y667371D01*
X1082592Y667793D01*
X1082041Y668021D01*
X1081444D01*
X1080893Y667793D01*
X1080471Y667371D01*
X1080243Y666820D01*
Y666515D01*
X1080118Y666177D01*
X1079781Y666053D01*
X1079476D01*
X1078924Y665824D01*
X1078502Y665402D01*
X1078446Y665267D01*
X1043709D01*
X1020296Y688680D01*
X1020064Y688834D01*
X1019791Y688889D01*
X1008015D01*
X1007742Y688834D01*
X1007511Y688680D01*
X1003455Y684624D01*
X1000400D01*
X1000344Y684760D01*
X1000263Y684841D01*
X1000085Y685309D01*
X1000507Y685731D01*
X1000735Y686282D01*
Y686878D01*
X1000507Y687430D01*
X1000220Y687717D01*
X1000255Y688232D01*
X1000287Y688303D01*
X1000680Y688696D01*
X1000909Y689247D01*
Y689844D01*
X1000680Y690395D01*
X1000258Y690817D01*
X999707Y691045D01*
X999110D01*
X998559Y690817D01*
X998137Y690395D01*
X997922Y689877D01*
X997723Y689744D01*
X995472Y687492D01*
X995317Y687261D01*
X995263Y686988D01*
Y682304D01*
X995317Y682031D01*
X995472Y681799D01*
X997236Y680035D01*
X997348Y679766D01*
X997238Y679383D01*
X997006Y679151D01*
X996777Y678600D01*
Y678003D01*
X997006Y677452D01*
X997369Y677088D01*
Y661280D01*
X997423Y661007D01*
X997578Y660775D01*
X1009994Y648359D01*
Y644052D01*
X1010048Y643779D01*
X1010203Y643547D01*
X1015701Y638050D01*
X1015932Y637895D01*
X1016205Y637841D01*
X1020739D01*
X1024628Y633952D01*
X1024436Y633490D01*
X1017055D01*
X1016871Y633766D01*
Y634363D01*
X1016642Y634914D01*
X1016220Y635336D01*
X1015669Y635564D01*
X1015072D01*
X1014521Y635336D01*
X1014099Y634914D01*
X1013871Y634363D01*
Y633766D01*
X1013686Y633490D01*
X990904D01*
X990787Y633441D01*
X990663Y633417D01*
X990254Y633143D01*
X989498Y632993D01*
X988743Y633143D01*
X988334Y633417D01*
X988210Y633441D01*
X988093Y633490D01*
X985277D01*
X985070Y633990D01*
X985292Y634212D01*
X985548Y634829D01*
Y635497D01*
X985292Y636114D01*
X984820Y636587D01*
X984203Y636842D01*
X983534D01*
X982917Y636587D01*
X982445Y636114D01*
X982189Y635497D01*
X981689Y635297D01*
X965178Y651808D01*
X964872Y651935D01*
X964858D01*
X964466Y652098D01*
X964165Y652398D01*
X964003Y652790D01*
Y652804D01*
X963876Y653110D01*
X957421Y659566D01*
X957621Y659766D01*
X957849Y660317D01*
Y660914D01*
X957621Y661465D01*
X957199Y661887D01*
X956647Y662116D01*
X956051D01*
X955499Y661887D01*
X955299Y661687D01*
X955080Y661906D01*
X954774Y662033D01*
X946900D01*
X946594Y661906D01*
X946467Y661600D01*
Y647821D01*
X946594Y647514D01*
X953445Y640663D01*
X953486Y640646D01*
X953511Y640609D01*
X953635Y640584D01*
X953751Y640536D01*
X953792Y640553D01*
X953836Y640544D01*
X953941Y640615D01*
X954011Y640644D01*
X954016Y640645D01*
X954020Y640647D01*
X954058Y640663D01*
X954063Y640676D01*
X954727Y641120D01*
X955483Y641270D01*
X956238Y641120D01*
X956878Y640692D01*
X957306Y640052D01*
X957465Y639254D01*
Y636823D01*
X957591Y636517D01*
X959127Y634981D01*
X959433Y634854D01*
Y634829D01*
X959689Y634212D01*
X960161Y633739D01*
X960779Y633484D01*
X960804D01*
X960931Y633177D01*
X961252Y632857D01*
X961218Y632318D01*
X960838Y631938D01*
X960609Y631387D01*
Y630790D01*
X960838Y630238D01*
X961260Y629817D01*
X961811Y629588D01*
X962408D01*
X962959Y629817D01*
X963272Y630129D01*
X963878Y630231D01*
X973169Y620939D01*
X973475Y620813D01*
X987084D01*
X987390Y620939D01*
X987516Y621246D01*
Y622207D01*
X987675Y623005D01*
X988103Y623645D01*
X988743Y624073D01*
X989498Y624223D01*
X990254Y624073D01*
X990894Y623645D01*
X991322Y623005D01*
X991480Y622207D01*
Y621246D01*
X991607Y620939D01*
X991913Y620813D01*
X1020719D01*
X1021025Y620939D01*
X1028741Y628655D01*
X1029062Y628788D01*
X1029544Y628490D01*
X1029545Y628488D01*
Y628151D01*
X1029773Y627599D01*
X1030109Y627264D01*
Y623834D01*
X1030163Y623561D01*
X1030318Y623330D01*
X1033500Y620147D01*
X1033731Y619993D01*
X1034004Y619938D01*
X1048707D01*
X1048914Y619438D01*
X1046514Y617038D01*
X1044341D01*
X1044068Y616984D01*
X1043836Y616829D01*
X1043256Y616249D01*
X1039715D01*
X1038151Y617813D01*
X1037920Y617968D01*
X1037646Y618022D01*
X1033810D01*
X1032050Y619782D01*
X1031819Y619937D01*
X1031546Y619991D01*
X1001034D01*
X1000761Y619937D01*
X1000529Y619782D01*
X999545Y618798D01*
X999545Y618798D01*
X998770Y618022D01*
X993160D01*
X992887Y617968D01*
X992655Y617813D01*
X991880Y617038D01*
X990207D01*
X989934Y616984D01*
X989702Y616829D01*
X988927Y616054D01*
X976723D01*
X974918Y617859D01*
X974975Y617994D01*
Y618591D01*
X974747Y619143D01*
X974325Y619564D01*
X973773Y619793D01*
X973176D01*
X972625Y619564D01*
X972203Y619143D01*
X971975Y618591D01*
Y617994D01*
X972203Y617443D01*
X972625Y617021D01*
X973176Y616793D01*
X973773D01*
X973909Y616849D01*
X975923Y614836D01*
X976154Y614681D01*
X976428Y614627D01*
X989223D01*
X989496Y614681D01*
X989727Y614836D01*
X990503Y615611D01*
X992176D01*
X992449Y615665D01*
X992680Y615820D01*
X993456Y616595D01*
X999065D01*
X999339Y616649D01*
X999570Y616804D01*
X1000554Y617788D01*
X1000554Y617788D01*
X1001330Y618564D01*
X1031250D01*
X1033010Y616804D01*
X1033241Y616649D01*
X1033514Y616595D01*
X1037265D01*
X1037523Y616272D01*
X1037321Y615811D01*
X1037123D01*
X1036572Y615583D01*
X1036150Y615161D01*
X1035921Y614609D01*
Y614013D01*
X1036150Y613461D01*
X1036572Y613039D01*
X1037123Y612811D01*
X1037720D01*
X1038271Y613039D01*
X1038693Y613461D01*
X1038921Y614013D01*
Y614450D01*
X1038943Y614490D01*
X1039252Y614773D01*
X1039371Y614831D01*
X1039420Y614822D01*
X1043552D01*
X1043825Y614876D01*
X1044057Y615031D01*
X1044637Y615611D01*
X1046810D01*
X1047083Y615665D01*
X1047575Y615393D01*
Y615089D01*
X1047803Y614538D01*
X1048225Y614116D01*
X1048777Y613888D01*
X1049374D01*
X1049925Y614116D01*
X1050347Y614538D01*
X1050575Y615089D01*
Y615686D01*
X1050347Y616237D01*
X1049925Y616659D01*
X1049374Y616888D01*
X1049090D01*
X1048882Y617388D01*
X1050058Y618564D01*
X1057522D01*
X1060701Y615385D01*
X1060645Y615249D01*
Y614652D01*
X1060873Y614101D01*
X1061295Y613679D01*
X1061846Y613450D01*
X1062443D01*
X1062994Y613679D01*
X1063416Y614101D01*
X1063645Y614652D01*
Y615249D01*
X1063416Y615800D01*
X1062994Y616222D01*
X1062443Y616451D01*
X1061846D01*
X1061710Y616394D01*
X1058666Y619438D01*
X1058873Y619938D01*
X1081149D01*
X1081422Y619993D01*
X1081654Y620147D01*
X1085779Y624273D01*
X1086351Y624137D01*
X1086470Y623849D01*
X1086892Y623427D01*
X1087443Y623199D01*
X1088040D01*
X1088591Y623427D01*
X1089013Y623849D01*
X1089069Y623985D01*
X1091699D01*
X1098189Y617495D01*
X1098421Y617340D01*
X1098694Y617286D01*
X1161173D01*
X1161446Y617340D01*
X1161678Y617495D01*
X1169846Y625662D01*
X1170000Y625894D01*
X1170055Y626167D01*
Y632713D01*
X1170191Y632769D01*
X1170613Y633191D01*
X1170841Y633743D01*
Y634339D01*
X1170613Y634891D01*
X1170191Y635313D01*
X1169639Y635541D01*
X1169043D01*
X1168491Y635313D01*
X1168069Y634891D01*
X1167841Y634339D01*
Y633743D01*
X1168069Y633191D01*
X1168491Y632769D01*
X1168627Y632713D01*
Y626463D01*
X1160878Y618713D01*
X1152339D01*
X1152147Y619175D01*
X1153605Y620633D01*
X1153760Y620865D01*
X1153815Y621138D01*
Y627299D01*
X1153951Y627356D01*
X1154372Y627777D01*
X1154601Y628329D01*
Y628926D01*
X1154372Y629477D01*
X1153951Y629899D01*
X1153399Y630127D01*
X1152802D01*
X1152251Y629899D01*
X1151829Y629477D01*
X1151601Y628926D01*
Y628329D01*
X1151829Y627777D01*
X1152251Y627356D01*
X1152387Y627299D01*
Y621434D01*
X1150797Y619843D01*
X1147474D01*
X1147283Y620305D01*
X1150225Y623247D01*
X1150379Y623479D01*
X1150434Y623752D01*
Y630051D01*
X1152702Y632319D01*
X1154553D01*
X1154826Y632373D01*
X1155058Y632528D01*
X1157096Y634566D01*
X1157232Y634510D01*
X1157828D01*
X1158380Y634738D01*
X1158802Y635160D01*
X1159030Y635711D01*
Y636308D01*
X1158802Y636859D01*
X1158380Y637281D01*
X1157828Y637509D01*
X1157232D01*
X1156680Y637281D01*
X1156258Y636859D01*
X1156030Y636308D01*
Y635711D01*
X1156086Y635575D01*
X1154257Y633746D01*
X1152406D01*
X1152133Y633692D01*
X1151902Y633537D01*
X1149216Y630851D01*
X1149061Y630620D01*
X1149006Y630346D01*
Y624768D01*
X1148507Y624669D01*
X1148325Y625106D01*
X1147903Y625528D01*
X1147352Y625757D01*
X1146755D01*
X1146204Y625528D01*
X1146135Y625459D01*
X1146132Y625459D01*
X1141838D01*
X1141564Y625405D01*
X1141333Y625250D01*
X1139844Y623761D01*
X1135473D01*
X1134093Y625142D01*
X1133862Y625296D01*
X1133589Y625351D01*
X1129863D01*
X1129640Y625834D01*
X1130525Y626720D01*
X1143048D01*
X1143321Y626774D01*
X1143553Y626929D01*
X1147208Y630583D01*
X1147363Y630815D01*
X1147417Y631088D01*
Y642604D01*
X1154668Y649855D01*
X1162056D01*
X1162113Y649719D01*
X1162535Y649297D01*
X1163086Y649068D01*
X1163683D01*
X1164234Y649297D01*
X1164656Y649719D01*
X1164884Y650270D01*
Y650867D01*
X1164656Y651418D01*
X1164340Y651734D01*
X1164298Y652091D01*
X1164359Y652329D01*
X1164701Y652672D01*
X1164930Y653224D01*
Y653820D01*
X1164701Y654372D01*
X1164279Y654794D01*
X1163728Y655022D01*
X1163131D01*
X1162580Y654794D01*
X1162158Y654372D01*
X1161930Y653820D01*
Y653739D01*
X1161430Y653532D01*
X1150601Y664360D01*
Y665362D01*
X1150547Y665635D01*
X1150392Y665867D01*
X1132646Y683613D01*
X1132414Y683768D01*
X1132141Y683823D01*
X1131053D01*
X1121826Y693049D01*
Y700291D01*
X1121772Y700564D01*
X1121617Y700796D01*
X1119846Y702567D01*
X1119903Y702703D01*
Y703300D01*
X1119674Y703851D01*
X1119252Y704273D01*
X1118701Y704501D01*
X1118104D01*
X1117553Y704273D01*
X1117131Y703851D01*
X1116903Y703300D01*
Y702703D01*
X1117131Y702151D01*
X1117553Y701729D01*
X1118104Y701501D01*
X1118701D01*
X1118837Y701557D01*
X1120399Y699996D01*
Y692754D01*
X1120453Y692481D01*
X1120608Y692249D01*
X1130253Y682604D01*
X1130484Y682449D01*
X1130757Y682395D01*
X1131845D01*
X1149174Y665067D01*
Y664065D01*
X1149228Y663792D01*
X1149383Y663560D01*
X1161199Y651744D01*
X1161008Y651282D01*
X1154372D01*
X1154099Y651228D01*
X1153868Y651073D01*
X1146198Y643404D01*
X1146044Y643172D01*
X1145990Y642899D01*
Y631384D01*
X1142753Y628147D01*
X1130229D01*
X1129956Y628093D01*
X1129725Y627938D01*
X1125715Y623928D01*
X1111699D01*
X1111391Y624428D01*
X1111510Y624716D01*
Y625313D01*
X1111282Y625864D01*
X1110860Y626286D01*
X1110309Y626514D01*
X1109712D01*
X1109161Y626286D01*
X1108739Y625864D01*
X1108510Y625313D01*
Y624716D01*
X1108630Y624428D01*
X1108322Y623928D01*
X1106780D01*
X1098621Y632087D01*
X1098643Y632199D01*
X1099065Y632621D01*
X1099294Y633173D01*
Y633769D01*
X1099122Y634184D01*
X1099355Y634684D01*
X1106824D01*
X1108039Y633468D01*
X1108271Y633314D01*
X1108544Y633259D01*
X1109591D01*
X1109648Y633159D01*
X1109744Y632759D01*
X1109407Y632422D01*
X1109317Y632206D01*
X1109280Y632185D01*
X1108743Y632127D01*
X1108478Y632391D01*
X1107927Y632620D01*
X1107330D01*
X1106779Y632391D01*
X1106357Y631969D01*
X1106129Y631418D01*
Y630821D01*
X1106357Y630270D01*
X1106779Y629848D01*
X1107330Y629620D01*
X1107927D01*
X1108478Y629848D01*
X1108900Y630270D01*
X1108990Y630486D01*
X1109027Y630507D01*
X1109564Y630566D01*
X1109829Y630301D01*
X1110380Y630072D01*
X1110977D01*
X1111528Y630301D01*
X1111780Y630553D01*
X1111785D01*
X1111970Y630429D01*
X1112243Y630374D01*
X1113734D01*
X1114008Y630429D01*
X1114239Y630583D01*
X1117263Y633607D01*
X1119522D01*
X1119795Y633661D01*
X1120026Y633816D01*
X1123252Y637042D01*
X1123407Y637273D01*
X1123461Y637546D01*
Y645387D01*
X1123407Y645660D01*
X1123252Y645891D01*
X1120146Y648997D01*
X1120393Y649458D01*
X1120685Y649400D01*
X1121309Y649524D01*
X1121838Y649878D01*
X1122022Y650062D01*
X1122376Y650591D01*
X1122500Y651215D01*
Y655855D01*
X1122376Y656479D01*
X1122022Y657009D01*
X1117320Y661711D01*
X1116991Y661931D01*
X1116808Y662310D01*
X1116827Y662568D01*
X1116990Y662959D01*
Y663556D01*
X1116761Y664108D01*
X1116339Y664530D01*
X1115788Y664758D01*
X1115191D01*
X1114640Y664530D01*
X1114218Y664108D01*
X1114125Y663884D01*
X1113527Y663682D01*
X1113379Y663782D01*
X1112754Y663906D01*
X1112130Y663782D01*
X1112068Y663740D01*
X1111568Y664008D01*
Y671806D01*
X1113743Y673982D01*
X1113898Y674213D01*
X1113952Y674486D01*
Y697413D01*
X1114185Y697554D01*
X1114452Y697655D01*
X1114943Y697452D01*
X1115540D01*
X1116091Y697681D01*
X1116513Y698103D01*
X1116741Y698654D01*
Y699251D01*
X1116513Y699802D01*
X1116091Y700224D01*
X1115540Y700452D01*
X1114943D01*
X1114452Y700249D01*
X1114185Y700350D01*
X1113952Y700492D01*
Y701038D01*
X1115745Y702831D01*
X1115900Y703062D01*
X1115954Y703336D01*
Y709272D01*
X1115900Y709545D01*
X1115745Y709777D01*
X1115596Y709926D01*
X1115678Y710125D01*
Y710722D01*
X1115450Y711273D01*
X1115028Y711695D01*
X1114476Y711924D01*
X1113879D01*
X1113328Y711695D01*
X1112906Y711273D01*
X1112678Y710722D01*
Y710125D01*
X1112906Y709574D01*
X1113328Y709152D01*
X1113879Y708923D01*
X1114476D01*
X1114527Y708890D01*
Y706115D01*
X1114027Y705913D01*
X1113559Y706106D01*
X1112963D01*
X1112411Y705878D01*
X1111989Y705456D01*
X1111819Y705045D01*
X1111319Y705144D01*
Y710836D01*
X1115724Y715241D01*
X1116648D01*
X1116704Y715105D01*
X1117126Y714683D01*
X1117677Y714455D01*
X1118274D01*
X1118826Y714683D01*
X1119248Y715105D01*
X1119476Y715657D01*
Y716253D01*
X1119248Y716805D01*
X1118826Y717227D01*
X1118274Y717455D01*
D02*
G37*
G36*
X1132924Y720690D02*
X1110442D01*
X1110052Y720613D01*
X1109721Y720392D01*
X1105733Y716404D01*
X1105311D01*
X1104760Y716175D01*
X1104338Y715753D01*
X1104109Y715202D01*
Y714605D01*
X1104338Y714054D01*
X1104760Y713632D01*
X1104812Y713610D01*
Y713069D01*
X1104593Y712979D01*
X1104171Y712557D01*
X1103943Y712005D01*
Y711409D01*
X1104171Y710857D01*
X1104593Y710435D01*
X1105144Y710207D01*
X1105741D01*
X1106292Y710435D01*
X1106714Y710857D01*
X1106943Y711409D01*
Y712005D01*
X1106714Y712557D01*
X1106292Y712979D01*
X1106240Y713000D01*
Y713541D01*
X1106459Y713632D01*
X1106881Y714054D01*
X1107109Y714605D01*
Y714896D01*
X1110865Y718651D01*
X1132501D01*
X1134637Y716515D01*
Y716399D01*
X1134576Y716338D01*
X1134348Y715787D01*
Y715190D01*
X1134576Y714639D01*
X1134998Y714217D01*
X1135550Y713988D01*
X1136147D01*
X1136698Y714217D01*
X1137120Y714639D01*
X1137348Y715190D01*
Y715787D01*
X1137120Y716338D01*
X1136698Y716760D01*
X1136676Y716769D01*
Y716938D01*
X1136599Y717328D01*
X1136378Y717659D01*
X1133645Y720392D01*
X1133314Y720613D01*
X1132924Y720690D01*
D02*
G37*
G36*
X1097491Y719474D02*
X1091585D01*
X1091279Y719347D01*
X1091152Y719041D01*
Y711797D01*
X1091279Y711491D01*
X1091585Y711364D01*
X1097491D01*
X1097797Y711491D01*
X1097923Y711797D01*
Y719041D01*
X1097797Y719347D01*
X1097491Y719474D01*
D02*
G37*
G36*
X1153613Y719325D02*
X1147593D01*
X1147287Y719198D01*
X1147160Y718892D01*
Y711668D01*
X1147287Y711361D01*
X1147593Y711235D01*
X1153613D01*
X1153919Y711361D01*
X1154046Y711668D01*
Y718892D01*
X1153919Y719198D01*
X1153613Y719325D01*
D02*
G37*
G36*
X1122498Y711862D02*
X1121901D01*
X1121350Y711634D01*
X1120928Y711212D01*
X1120699Y710660D01*
Y710064D01*
X1120928Y709512D01*
X1121350Y709090D01*
X1121901Y708862D01*
X1122498D01*
X1123049Y709090D01*
X1123471Y709512D01*
X1123699Y710064D01*
Y710660D01*
X1123471Y711212D01*
X1123049Y711634D01*
X1122498Y711862D01*
D02*
G37*
G36*
X1129763Y713046D02*
X1126163D01*
X1125857Y712919D01*
X1125730Y712613D01*
Y709013D01*
X1125857Y708706D01*
X1126163Y708580D01*
X1129763D01*
X1130069Y708706D01*
X1130196Y709013D01*
Y712613D01*
X1130069Y712919D01*
X1129763Y713046D01*
D02*
G37*
G36*
X1133013Y707699D02*
X1132416D01*
X1131865Y707470D01*
X1131443Y707048D01*
X1131215Y706497D01*
Y705900D01*
X1131443Y705349D01*
X1131865Y704927D01*
X1132416Y704699D01*
X1133013D01*
X1133564Y704927D01*
X1133986Y705349D01*
X1134215Y705900D01*
Y706497D01*
X1133986Y707048D01*
X1133564Y707470D01*
X1133013Y707699D01*
D02*
G37*
G36*
X1010614Y699555D02*
X1010017D01*
X1009466Y699326D01*
X1009044Y698904D01*
X1008815Y698353D01*
Y697756D01*
X1009044Y697205D01*
X1009466Y696783D01*
X1010017Y696555D01*
X1010614D01*
X1011165Y696783D01*
X1011587Y697205D01*
X1011815Y697756D01*
Y698353D01*
X1011587Y698904D01*
X1011165Y699326D01*
X1010614Y699555D01*
D02*
G37*
G36*
X1006857Y695413D02*
X1006260D01*
X1005708Y695185D01*
X1005286Y694763D01*
X1005058Y694211D01*
Y693615D01*
X1005286Y693063D01*
X1005708Y692641D01*
X1006260Y692413D01*
X1006857D01*
X1007408Y692641D01*
X1007830Y693063D01*
X1008058Y693615D01*
Y694211D01*
X1007830Y694763D01*
X1007408Y695185D01*
X1006857Y695413D01*
D02*
G37*
G36*
X1170578Y697033D02*
X1170034D01*
X1169464Y696920D01*
X1168927Y696697D01*
X1168443Y696374D01*
X1168032Y695963D01*
X1167708Y695479D01*
X1167486Y694942D01*
X1167373Y694371D01*
Y693607D01*
X1167735Y692733D01*
X1168404Y692064D01*
X1169278Y691701D01*
X1170903D01*
X1171817Y692080D01*
X1172517Y692780D01*
X1172896Y693694D01*
Y694716D01*
X1172797Y695212D01*
X1172603Y695680D01*
X1172322Y696101D01*
X1171964Y696459D01*
X1171543Y696740D01*
X1171075Y696934D01*
X1170578Y697033D01*
D02*
G37*
G36*
X1015919Y692861D02*
X1015323D01*
X1014771Y692633D01*
X1014349Y692211D01*
X1014121Y691659D01*
Y691063D01*
X1014349Y690511D01*
X1014771Y690089D01*
X1015323Y689861D01*
X1015919D01*
X1016471Y690089D01*
X1016893Y690511D01*
X1017121Y691063D01*
Y691659D01*
X1016893Y692211D01*
X1016471Y692633D01*
X1015919Y692861D01*
D02*
G37*
G36*
X965676Y696570D02*
X965080D01*
X964528Y696341D01*
X964106Y695919D01*
X963878Y695368D01*
Y694771D01*
X964106Y694220D01*
X964165Y694161D01*
X963957Y693953D01*
X963729Y693401D01*
Y692805D01*
X963957Y692253D01*
X964240Y691970D01*
X963957Y691687D01*
X963729Y691136D01*
Y690539D01*
X963957Y689988D01*
X964379Y689566D01*
X964930Y689337D01*
X965527D01*
X966078Y689566D01*
X966361Y689849D01*
X966619Y689591D01*
X967171Y689362D01*
X967768D01*
X968319Y689591D01*
X968741Y690013D01*
X968969Y690564D01*
Y691161D01*
X968741Y691712D01*
X968321Y692132D01*
X968492Y692303D01*
X968720Y692854D01*
Y693451D01*
X968492Y694002D01*
X968420Y694074D01*
X968492Y694145D01*
X968720Y694697D01*
Y695293D01*
X968492Y695845D01*
X968070Y696267D01*
X967519Y696495D01*
X966922D01*
X966371Y696267D01*
X966336Y696233D01*
X966228Y696341D01*
X965676Y696570D01*
D02*
G37*
G36*
X1148484Y682900D02*
X1147888D01*
X1147336Y682671D01*
X1146914Y682249D01*
X1146686Y681698D01*
Y681101D01*
X1146914Y680550D01*
X1147336Y680128D01*
X1147888Y679900D01*
X1148484D01*
X1149036Y680128D01*
X1149458Y680550D01*
X1149686Y681101D01*
Y681698D01*
X1149458Y682249D01*
X1149036Y682671D01*
X1148484Y682900D01*
D02*
G37*
G36*
X1226940Y682820D02*
X1226343D01*
X1225792Y682591D01*
X1225370Y682169D01*
X1225142Y681618D01*
Y681021D01*
X1225370Y680470D01*
X1225792Y680048D01*
X1226343Y679820D01*
X1226940D01*
X1227491Y680048D01*
X1227913Y680470D01*
X1228142Y681021D01*
Y681618D01*
X1227913Y682169D01*
X1227491Y682591D01*
X1226940Y682820D01*
D02*
G37*
G36*
X1170609Y685036D02*
X1170065D01*
X1169494Y684922D01*
X1168957Y684699D01*
X1168473Y684376D01*
X1168062Y683965D01*
X1167739Y683481D01*
X1167516Y682944D01*
X1167403Y682374D01*
Y681609D01*
X1167765Y680735D01*
X1168434Y680066D01*
X1169308Y679704D01*
X1170934D01*
X1171848Y680083D01*
X1172548Y680782D01*
X1172926Y681696D01*
Y682718D01*
X1172827Y683215D01*
X1172634Y683682D01*
X1172352Y684103D01*
X1171994Y684462D01*
X1171573Y684743D01*
X1171105Y684937D01*
X1170609Y685036D01*
D02*
G37*
G36*
X1196572Y682693D02*
X1195976D01*
X1195424Y682465D01*
X1195002Y682043D01*
X1194774Y681492D01*
Y680895D01*
X1195002Y680343D01*
X1195424Y679921D01*
X1195976Y679693D01*
X1196572D01*
X1197124Y679921D01*
X1197546Y680343D01*
X1197774Y680895D01*
Y681492D01*
X1197546Y682043D01*
X1197124Y682465D01*
X1196572Y682693D01*
D02*
G37*
G36*
X1041681Y701808D02*
X1041084D01*
X1040533Y701580D01*
X1040111Y701158D01*
X1039883Y700607D01*
Y700010D01*
X1040111Y699459D01*
X1040533Y699037D01*
X1041084Y698808D01*
X1041681D01*
X1041817Y698865D01*
X1043434Y697248D01*
X1043665Y697093D01*
X1043938Y697039D01*
X1057905D01*
X1069133Y685812D01*
Y684323D01*
X1069187Y684050D01*
X1069342Y683818D01*
X1073955Y679205D01*
Y678707D01*
X1073819Y678651D01*
X1073397Y678229D01*
X1073169Y677677D01*
Y677081D01*
X1073397Y676529D01*
X1073819Y676107D01*
X1074371Y675879D01*
X1074967D01*
X1075519Y676107D01*
X1075941Y676529D01*
X1076169Y677081D01*
Y677677D01*
X1075941Y678229D01*
X1075519Y678651D01*
X1075383Y678707D01*
Y679500D01*
X1075328Y679774D01*
X1075174Y680005D01*
X1075174Y680005D01*
X1074662Y680517D01*
X1074869Y681017D01*
X1075248D01*
X1075800Y681245D01*
X1076222Y681667D01*
X1076450Y682219D01*
Y682815D01*
X1076222Y683367D01*
X1075800Y683788D01*
X1075248Y684017D01*
X1074652D01*
X1074100Y683788D01*
X1073678Y683367D01*
X1073450Y682815D01*
Y682436D01*
X1072950Y682229D01*
X1070560Y684619D01*
Y686107D01*
X1070506Y686380D01*
X1070351Y686612D01*
X1058706Y698257D01*
X1058474Y698412D01*
X1058201Y698466D01*
X1044234D01*
X1042826Y699874D01*
X1042883Y700010D01*
Y700607D01*
X1042654Y701158D01*
X1042232Y701580D01*
X1041681Y701808D01*
D02*
G37*
G36*
X1192277Y677864D02*
X1191680D01*
X1191129Y677635D01*
X1190707Y677213D01*
X1190479Y676662D01*
Y676065D01*
X1190707Y675514D01*
X1191129Y675092D01*
X1191680Y674864D01*
X1192277D01*
X1192828Y675092D01*
X1193250Y675514D01*
X1193479Y676065D01*
Y676662D01*
X1193250Y677213D01*
X1192828Y677635D01*
X1192277Y677864D01*
D02*
G37*
G36*
X965541Y677475D02*
X964944D01*
X964393Y677247D01*
X963971Y676825D01*
X963743Y676274D01*
Y675677D01*
X963971Y675126D01*
X964393Y674704D01*
X964944Y674475D01*
X965541D01*
X966092Y674704D01*
X966514Y675126D01*
X966743Y675677D01*
Y676274D01*
X966514Y676825D01*
X966092Y677247D01*
X965541Y677475D01*
D02*
G37*
G36*
X1144336Y676806D02*
X1143740D01*
X1143188Y676577D01*
X1142766Y676155D01*
X1142538Y675604D01*
Y675007D01*
X1142766Y674456D01*
X1143188Y674034D01*
X1143740Y673806D01*
X1144336D01*
X1144888Y674034D01*
X1145310Y674456D01*
X1145538Y675007D01*
Y675604D01*
X1145310Y676155D01*
X1144888Y676577D01*
X1144336Y676806D01*
D02*
G37*
G36*
X1122504Y675456D02*
X1121907D01*
X1121356Y675227D01*
X1120934Y674805D01*
X1120706Y674254D01*
Y673657D01*
X1120934Y673106D01*
X1121356Y672684D01*
X1121907Y672456D01*
X1122504D01*
X1123055Y672684D01*
X1123477Y673106D01*
X1123706Y673657D01*
Y674254D01*
X1123477Y674805D01*
X1123055Y675227D01*
X1122504Y675456D01*
D02*
G37*
G36*
X1191277Y673011D02*
X1190680D01*
X1190129Y672783D01*
X1189707Y672361D01*
X1189479Y671810D01*
Y671213D01*
X1189707Y670662D01*
X1190129Y670240D01*
X1190680Y670011D01*
X1191277D01*
X1191828Y670240D01*
X1192250Y670662D01*
X1192479Y671213D01*
Y671810D01*
X1192250Y672361D01*
X1191828Y672783D01*
X1191277Y673011D01*
D02*
G37*
G36*
X970844Y671572D02*
X970247D01*
X969696Y671343D01*
X969274Y670921D01*
X969046Y670370D01*
Y669773D01*
X969274Y669222D01*
X969696Y668800D01*
X970247Y668572D01*
X970844D01*
X971395Y668800D01*
X971817Y669222D01*
X972046Y669773D01*
Y670370D01*
X971817Y670921D01*
X971395Y671343D01*
X970844Y671572D01*
D02*
G37*
G36*
X1046876Y718877D02*
X1012104D01*
X1011831Y718822D01*
X1011599Y718668D01*
X1007116Y714184D01*
X1006004D01*
X1005947Y714320D01*
X1005525Y714742D01*
X1004974Y714970D01*
X1004377D01*
X1003826Y714742D01*
X1003404Y714320D01*
X1003176Y713768D01*
Y713172D01*
X1003404Y712620D01*
X1003826Y712198D01*
X1004377Y711970D01*
X1004974D01*
X1005525Y712198D01*
X1005947Y712620D01*
X1006004Y712756D01*
X1007411D01*
X1007684Y712811D01*
X1007916Y712965D01*
X1012400Y717449D01*
X1031703D01*
X1031910Y716949D01*
X1031719Y716758D01*
X1031491Y716207D01*
Y715610D01*
X1031719Y715059D01*
X1032141Y714637D01*
X1032692Y714409D01*
X1033289D01*
X1033840Y714637D01*
X1034262Y715059D01*
X1034491Y715610D01*
Y716207D01*
X1034262Y716758D01*
X1034071Y716949D01*
X1034278Y717449D01*
X1046581D01*
X1050760Y713269D01*
X1050992Y713115D01*
X1051265Y713060D01*
X1057918D01*
X1077748Y693230D01*
Y669452D01*
X1077612Y669396D01*
X1077190Y668974D01*
X1076962Y668423D01*
Y667826D01*
X1077190Y667275D01*
X1077612Y666853D01*
X1078164Y666624D01*
X1078760D01*
X1079312Y666853D01*
X1079734Y667275D01*
X1079962Y667826D01*
Y668423D01*
X1079734Y668974D01*
X1079312Y669396D01*
X1079176Y669452D01*
Y693526D01*
X1079121Y693799D01*
X1078967Y694030D01*
X1058718Y714279D01*
X1058487Y714433D01*
X1058214Y714488D01*
X1051561D01*
X1047381Y718668D01*
X1047149Y718822D01*
X1046876Y718877D01*
D02*
G37*
G36*
X987553Y671958D02*
X986956D01*
X986405Y671730D01*
X985983Y671308D01*
X985754Y670757D01*
Y670160D01*
X985983Y669609D01*
X986074Y669518D01*
X986384Y669175D01*
X985962Y668753D01*
X985734Y668201D01*
Y667605D01*
X985962Y667054D01*
X986384Y666632D01*
X986935Y666403D01*
X987532D01*
X988083Y666632D01*
X988505Y667054D01*
X988734Y667605D01*
Y668201D01*
X988505Y668753D01*
X988414Y668844D01*
X988104Y669187D01*
X988526Y669609D01*
X988754Y670160D01*
Y670757D01*
X988526Y671308D01*
X988104Y671730D01*
X987553Y671958D01*
D02*
G37*
G36*
X1154947Y669193D02*
X1154350D01*
X1153798Y668964D01*
X1153376Y668543D01*
X1153148Y667991D01*
Y667394D01*
X1153376Y666843D01*
X1153798Y666421D01*
X1154350Y666193D01*
X1154947D01*
X1155498Y666421D01*
X1155920Y666843D01*
X1156148Y667394D01*
Y667991D01*
X1155920Y668543D01*
X1155498Y668964D01*
X1154947Y669193D01*
D02*
G37*
G36*
X1174560Y668826D02*
X1173963D01*
X1173412Y668597D01*
X1172990Y668175D01*
X1172762Y667624D01*
Y667027D01*
X1172990Y666476D01*
X1173412Y666054D01*
X1173963Y665826D01*
X1174560D01*
X1175111Y666054D01*
X1175533Y666476D01*
X1175762Y667027D01*
Y667624D01*
X1175533Y668175D01*
X1175111Y668597D01*
X1174560Y668826D01*
D02*
G37*
G36*
X1092892Y668528D02*
X1092295D01*
X1091744Y668300D01*
X1091322Y667878D01*
X1091094Y667326D01*
Y666730D01*
X1091322Y666178D01*
X1091744Y665756D01*
X1092295Y665528D01*
X1092892D01*
X1093443Y665756D01*
X1093865Y666178D01*
X1094094Y666730D01*
Y667326D01*
X1093865Y667878D01*
X1093443Y668300D01*
X1092892Y668528D01*
D02*
G37*
G36*
X1191331Y668913D02*
X1190734D01*
X1190183Y668684D01*
X1189761Y668262D01*
X1189532Y667711D01*
Y667114D01*
X1189761Y666563D01*
X1190183Y666141D01*
X1190576Y665978D01*
X1190725Y665539D01*
X1190722Y665417D01*
X1190707Y665402D01*
X1190479Y664851D01*
Y664254D01*
X1190707Y663703D01*
X1191129Y663281D01*
X1191680Y663053D01*
X1192277D01*
X1192828Y663281D01*
X1193250Y663703D01*
X1193479Y664254D01*
Y664851D01*
X1193250Y665402D01*
X1192828Y665824D01*
X1192435Y665987D01*
X1192286Y666426D01*
X1192289Y666548D01*
X1192304Y666563D01*
X1192532Y667114D01*
Y667711D01*
X1192304Y668262D01*
X1191882Y668684D01*
X1191331Y668913D01*
D02*
G37*
G36*
X975595Y662138D02*
X974998D01*
X974447Y661910D01*
X974025Y661488D01*
X973797Y660937D01*
Y660340D01*
X974025Y659789D01*
X974447Y659367D01*
X974998Y659138D01*
X975595D01*
X976146Y659367D01*
X976568Y659789D01*
X976797Y660340D01*
Y660937D01*
X976568Y661488D01*
X976146Y661910D01*
X975595Y662138D01*
D02*
G37*
G36*
X1181525Y658455D02*
X1180928D01*
X1180377Y658227D01*
X1179955Y657805D01*
X1179727Y657254D01*
Y656657D01*
X1179955Y656106D01*
X1180377Y655684D01*
X1180928Y655455D01*
X1181525D01*
X1182076Y655684D01*
X1182498Y656106D01*
X1182727Y656657D01*
Y657254D01*
X1182498Y657805D01*
X1182076Y658227D01*
X1181525Y658455D01*
D02*
G37*
G36*
X1171852Y657511D02*
X1171256D01*
X1170704Y657283D01*
X1170282Y656861D01*
X1170054Y656310D01*
Y655713D01*
X1170282Y655161D01*
X1170704Y654740D01*
X1171256Y654511D01*
X1171852D01*
X1172404Y654740D01*
X1172826Y655161D01*
X1173054Y655713D01*
Y656310D01*
X1172826Y656861D01*
X1172404Y657283D01*
X1171852Y657511D01*
D02*
G37*
G36*
X1196525Y657446D02*
X1195928D01*
X1195376Y657218D01*
X1194954Y656796D01*
X1194726Y656244D01*
Y655648D01*
X1194954Y655096D01*
X1195376Y654674D01*
X1195928Y654446D01*
X1196525D01*
X1197076Y654674D01*
X1197498Y655096D01*
X1197726Y655648D01*
Y656244D01*
X1197498Y656796D01*
X1197076Y657218D01*
X1196525Y657446D01*
D02*
G37*
G36*
X1178498Y647352D02*
X1177901D01*
X1177349Y647124D01*
X1176928Y646702D01*
X1176699Y646150D01*
Y645554D01*
X1176928Y645002D01*
X1177349Y644580D01*
X1177901Y644352D01*
X1178498D01*
X1179049Y644580D01*
X1179471Y645002D01*
X1179699Y645554D01*
Y646150D01*
X1179471Y646702D01*
X1179049Y647124D01*
X1178498Y647352D01*
D02*
G37*
G36*
X1152584Y644102D02*
X1151987D01*
X1151436Y643873D01*
X1151014Y643451D01*
X1150785Y642900D01*
Y642303D01*
X1151014Y641752D01*
X1151436Y641330D01*
X1151987Y641102D01*
X1152584D01*
X1153135Y641330D01*
X1153557Y641752D01*
X1153785Y642303D01*
Y642900D01*
X1153557Y643451D01*
X1153135Y643873D01*
X1152584Y644102D01*
D02*
G37*
G36*
X982238Y640876D02*
X981641D01*
X981090Y640647D01*
X980668Y640225D01*
X980439Y639674D01*
Y639077D01*
X980668Y638526D01*
X981090Y638104D01*
X981641Y637876D01*
X982238D01*
X982789Y638104D01*
X983211Y638526D01*
X983439Y639077D01*
Y639674D01*
X983211Y640225D01*
X982789Y640647D01*
X982238Y640876D01*
D02*
G37*
G36*
X1135003Y652899D02*
X1134406D01*
X1133855Y652670D01*
X1133433Y652248D01*
X1133204Y651697D01*
Y651100D01*
X1133433Y650549D01*
X1133855Y650127D01*
X1134406Y649898D01*
X1134762D01*
X1135696Y648965D01*
Y639798D01*
X1135259Y639360D01*
X1134671D01*
X1134119Y639132D01*
X1133697Y638710D01*
X1133469Y638159D01*
Y637562D01*
X1133697Y637011D01*
X1134119Y636589D01*
X1134671Y636360D01*
X1135267D01*
X1135819Y636589D01*
X1136241Y637011D01*
X1136469Y637562D01*
Y638159D01*
X1136354Y638437D01*
X1136915Y638998D01*
X1137069Y639229D01*
X1137124Y639502D01*
Y649260D01*
X1137069Y649533D01*
X1136915Y649765D01*
X1136021Y650658D01*
X1136205Y651100D01*
Y651697D01*
X1135976Y652248D01*
X1135554Y652670D01*
X1135003Y652899D01*
D02*
G37*
G36*
X1179885Y636062D02*
X1179288D01*
X1178737Y635833D01*
X1178315Y635411D01*
X1178087Y634860D01*
Y634263D01*
X1178315Y633712D01*
X1178737Y633290D01*
X1179288Y633062D01*
X1179885D01*
X1180436Y633290D01*
X1180858Y633712D01*
X1181087Y634263D01*
Y634860D01*
X1180858Y635411D01*
X1180436Y635833D01*
X1179885Y636062D01*
D02*
G37*
G36*
X946301Y636007D02*
X945704D01*
X945152Y635778D01*
X944730Y635356D01*
X944502Y634805D01*
Y634208D01*
X944730Y633657D01*
X945152Y633235D01*
X945704Y633007D01*
X946301D01*
X946719Y633180D01*
X946874Y632804D01*
X947296Y632383D01*
X947847Y632154D01*
X948444D01*
X948995Y632383D01*
X949417Y632804D01*
X949646Y633356D01*
Y633953D01*
X949417Y634504D01*
X948995Y634926D01*
X948444Y635154D01*
X947847D01*
X947429Y634981D01*
X947274Y635356D01*
X946852Y635778D01*
X946301Y636007D01*
D02*
G37*
G36*
X1174547Y624886D02*
X1173950D01*
X1173399Y624658D01*
X1172977Y624236D01*
X1172749Y623685D01*
Y623088D01*
X1172977Y622537D01*
X1173399Y622115D01*
X1173950Y621886D01*
X1174547D01*
X1175099Y622115D01*
X1175521Y622537D01*
X1175749Y623088D01*
Y623685D01*
X1175521Y624236D01*
X1175099Y624658D01*
X1174547Y624886D01*
D02*
G37*
G36*
X1161765Y623730D02*
X1161169D01*
X1160617Y623502D01*
X1160195Y623080D01*
X1159967Y622528D01*
Y621932D01*
X1160195Y621380D01*
X1160617Y620958D01*
X1161169Y620730D01*
X1161765D01*
X1162317Y620958D01*
X1162739Y621380D01*
X1162967Y621932D01*
Y622528D01*
X1162739Y623080D01*
X1162317Y623502D01*
X1161765Y623730D01*
D02*
G37*
G36*
X1003223Y617815D02*
X1002626D01*
X1002075Y617587D01*
X1001653Y617165D01*
X1001424Y616613D01*
Y616017D01*
X1001653Y615465D01*
X1002075Y615043D01*
X1002626Y614815D01*
X1003223D01*
X1003774Y615043D01*
X1004196Y615465D01*
X1004424Y616017D01*
Y616613D01*
X1004196Y617165D01*
X1003774Y617587D01*
X1003223Y617815D01*
D02*
G37*
G36*
X1014877Y617772D02*
X1014281D01*
X1013729Y617544D01*
X1013307Y617122D01*
X1013079Y616571D01*
Y615974D01*
X1013307Y615423D01*
X1013729Y615001D01*
X1014281Y614773D01*
X1014877D01*
X1015429Y615001D01*
X1015851Y615423D01*
X1016079Y615974D01*
Y616571D01*
X1015851Y617122D01*
X1015429Y617544D01*
X1014877Y617772D01*
D02*
G37*
G36*
X1025720Y617681D02*
X1025123D01*
X1024572Y617453D01*
X1024150Y617031D01*
X1023922Y616479D01*
Y615883D01*
X1024150Y615331D01*
X1024572Y614909D01*
X1025123Y614681D01*
X1025720D01*
X1026271Y614909D01*
X1026693Y615331D01*
X1026922Y615883D01*
Y616479D01*
X1026693Y617031D01*
X1026271Y617453D01*
X1025720Y617681D01*
D02*
G37*
%LPD*%
G36*
X1042908Y664048D02*
X1043140Y663893D01*
X1043413Y663839D01*
X1062981D01*
X1063080Y663339D01*
X1062661Y663165D01*
X1062239Y662743D01*
X1062010Y662192D01*
Y661595D01*
X1062239Y661044D01*
X1062661Y660622D01*
X1063212Y660394D01*
X1063809D01*
X1064360Y660622D01*
X1064782Y661044D01*
X1065010Y661595D01*
Y662192D01*
X1064782Y662743D01*
X1064360Y663165D01*
X1063940Y663339D01*
X1064040Y663839D01*
X1071769D01*
X1071868Y663339D01*
X1071781Y663303D01*
X1071359Y662881D01*
X1071130Y662329D01*
Y661733D01*
X1071359Y661181D01*
X1071781Y660759D01*
X1072332Y660531D01*
X1072929D01*
X1073480Y660759D01*
X1073902Y661181D01*
X1074130Y661733D01*
Y662329D01*
X1073902Y662881D01*
X1073480Y663303D01*
X1073392Y663339D01*
X1073492Y663839D01*
X1077938D01*
X1077966Y663798D01*
X1077698Y663298D01*
X1077228D01*
X1076955Y663244D01*
X1076724Y663089D01*
X1064802Y651167D01*
X1064648Y650936D01*
X1064593Y650663D01*
Y644972D01*
X1064093Y644712D01*
X1063725Y644865D01*
X1063128D01*
X1062577Y644636D01*
X1062155Y644214D01*
X1061927Y643663D01*
Y643334D01*
X1061911Y643324D01*
X1061314D01*
X1060763Y643095D01*
X1060341Y642673D01*
X1060113Y642122D01*
Y641526D01*
X1060232Y641238D01*
X1059924Y640738D01*
X1037954D01*
X1035780Y642911D01*
X1035836Y643047D01*
Y643644D01*
X1035608Y644196D01*
X1035186Y644617D01*
X1034634Y644846D01*
X1034038D01*
X1033486Y644617D01*
X1033064Y644196D01*
X1032945Y643908D01*
X1032702Y643795D01*
X1032374Y643793D01*
X1030238Y645929D01*
X1030006Y646084D01*
X1029733Y646138D01*
X1025270D01*
X1024892Y646517D01*
X1024340Y646745D01*
X1023744D01*
X1023192Y646517D01*
X1022770Y646095D01*
X1022542Y645543D01*
Y644947D01*
X1022770Y644395D01*
X1023192Y643973D01*
X1023744Y643745D01*
X1024340D01*
X1024892Y643973D01*
X1025314Y644395D01*
X1025444Y644711D01*
X1028256D01*
X1028463Y644211D01*
X1028221Y643969D01*
X1027993Y643418D01*
Y642821D01*
X1028221Y642270D01*
X1028643Y641848D01*
X1029194Y641619D01*
X1029791D01*
X1029927Y641676D01*
X1035114Y636489D01*
X1035345Y636334D01*
X1035618Y636280D01*
X1044641D01*
X1044849Y635780D01*
X1042440Y633372D01*
X1041896D01*
X1039738Y635530D01*
X1039506Y635685D01*
X1039233Y635739D01*
X1029074D01*
X1015359Y649454D01*
Y658831D01*
X1015638Y659110D01*
X1015866Y659661D01*
Y660258D01*
X1015638Y660809D01*
X1015216Y661231D01*
X1014665Y661460D01*
X1014068D01*
X1013517Y661231D01*
X1013095Y660809D01*
X1012866Y660258D01*
Y659661D01*
X1013095Y659110D01*
X1013517Y658688D01*
X1013931Y658516D01*
Y649216D01*
X1013872Y649092D01*
X1013822Y649036D01*
X1013504Y648775D01*
X1013122D01*
X1011331Y650566D01*
X1011331Y650566D01*
X999877Y662020D01*
Y664073D01*
X1000375Y664136D01*
X1000529Y663904D01*
X1004113Y660320D01*
X1004057Y660184D01*
Y659588D01*
X1004285Y659036D01*
X1004707Y658614D01*
X1005259Y658386D01*
X1005855D01*
X1006407Y658614D01*
X1006829Y659036D01*
X1007057Y659588D01*
Y660184D01*
X1006829Y660736D01*
X1006407Y661158D01*
X1005855Y661386D01*
X1005259D01*
X1005123Y661330D01*
X1001748Y664705D01*
Y672131D01*
X1003507Y673891D01*
X1003662Y674122D01*
X1003716Y674395D01*
Y678675D01*
X1003662Y678948D01*
X1003507Y679179D01*
X1000649Y682038D01*
X1000418Y682192D01*
X1000177Y682240D01*
X1000154Y682276D01*
X1000122Y682345D01*
X1000030Y682747D01*
X1000344Y683061D01*
X1000400Y683197D01*
X1003751D01*
X1004024Y683251D01*
X1004256Y683406D01*
X1006036Y685186D01*
X1006607Y685050D01*
X1006726Y684762D01*
X1007019Y684470D01*
X1006652Y684103D01*
X1006424Y683552D01*
Y682955D01*
X1006652Y682404D01*
X1007074Y681982D01*
X1007078Y681964D01*
X1006704Y681590D01*
X1006475Y681039D01*
Y680442D01*
X1006704Y679891D01*
X1007125Y679469D01*
X1007677Y679240D01*
X1008033D01*
X1015124Y672149D01*
X1014898Y671602D01*
Y671006D01*
X1015126Y670454D01*
X1015548Y670032D01*
X1016099Y669804D01*
X1016696D01*
X1017247Y670032D01*
X1017669Y670454D01*
X1017898Y671006D01*
Y671602D01*
X1017669Y672154D01*
X1017247Y672576D01*
X1017210Y672591D01*
X1017148Y672899D01*
X1016928Y673230D01*
X1009475Y680682D01*
Y681039D01*
X1009247Y681590D01*
X1008825Y682012D01*
X1008821Y682030D01*
X1009195Y682404D01*
X1009424Y682955D01*
Y683552D01*
X1009195Y684103D01*
X1008903Y684396D01*
X1009270Y684762D01*
X1009498Y685314D01*
Y685910D01*
X1009270Y686462D01*
X1008848Y686884D01*
X1008661Y686961D01*
X1008760Y687461D01*
X1019495D01*
X1042908Y664048D01*
D02*
G37*
G36*
X1109823Y650106D02*
X1109966Y649964D01*
X1110235Y649671D01*
X1109966Y649310D01*
X1109857Y649201D01*
X1109629Y648650D01*
Y648053D01*
X1109857Y647502D01*
X1110279Y647080D01*
X1110830Y646852D01*
X1111427D01*
X1111522Y646891D01*
X1111929Y646485D01*
X1111722Y645985D01*
X1111719D01*
X1111168Y645756D01*
X1110746Y645334D01*
X1110517Y644783D01*
Y644186D01*
X1110746Y643635D01*
X1111154Y643227D01*
X1111151Y643151D01*
X1111035Y642727D01*
X1105155D01*
X1104288Y643593D01*
X1104057Y643748D01*
X1103784Y643802D01*
X1099072D01*
X1098881Y644264D01*
X1104859Y650242D01*
X1109767D01*
X1109823Y650106D01*
D02*
G37*
G36*
X1072478Y656117D02*
X1072597Y655829D01*
X1073019Y655407D01*
X1073570Y655179D01*
X1073875D01*
X1074078Y655104D01*
X1074197Y654829D01*
X1073964Y654275D01*
X1073875Y654242D01*
X1073570D01*
X1073019Y654013D01*
X1072597Y653591D01*
X1072369Y653040D01*
Y652443D01*
X1072597Y651892D01*
X1073019Y651470D01*
X1073570Y651242D01*
X1073875D01*
X1074078Y651167D01*
X1074197Y650892D01*
X1073964Y650338D01*
X1073875Y650305D01*
X1073570D01*
X1073019Y650076D01*
X1072597Y649654D01*
X1072369Y649103D01*
Y648506D01*
X1072597Y647955D01*
X1072651Y647901D01*
X1072553Y647411D01*
X1072433Y647361D01*
X1072011Y646939D01*
X1071783Y646388D01*
Y645791D01*
X1072011Y645240D01*
X1072433Y644818D01*
X1072849Y644646D01*
Y642850D01*
X1069303Y639305D01*
X1064425D01*
X1064218Y639805D01*
X1065812Y641399D01*
X1065966Y641630D01*
X1066021Y641903D01*
Y650367D01*
X1071907Y656253D01*
X1072478Y656117D01*
D02*
G37*
G36*
X1104355Y641508D02*
X1104586Y641354D01*
X1104859Y641299D01*
X1111497D01*
X1111553Y641163D01*
X1111975Y640741D01*
X1112526Y640513D01*
X1113123D01*
X1113674Y640741D01*
X1114096Y641163D01*
X1114139Y641266D01*
X1114639Y641167D01*
Y638475D01*
X1113645Y637481D01*
X1113221Y637764D01*
X1113359Y638098D01*
Y638694D01*
X1113131Y639246D01*
X1112709Y639668D01*
X1112157Y639896D01*
X1111561D01*
X1111105Y639707D01*
X1110981Y639790D01*
X1110708Y639844D01*
X1087320D01*
X1087047Y639790D01*
X1086815Y639635D01*
X1080650Y633470D01*
X1078354D01*
X1078265Y633538D01*
X1077996Y633970D01*
X1078012Y634049D01*
Y634982D01*
X1078512Y635189D01*
X1078633Y635068D01*
X1079184Y634840D01*
X1079781D01*
X1080332Y635068D01*
X1080754Y635490D01*
X1080982Y636042D01*
Y636638D01*
X1080754Y637190D01*
X1080332Y637612D01*
X1080044Y637731D01*
X1079908Y638302D01*
X1083981Y642375D01*
X1103488D01*
X1104355Y641508D01*
D02*
G37*
G36*
X1088486Y629906D02*
Y628998D01*
X1081015Y621528D01*
X1080901Y621558D01*
X1080785Y622104D01*
X1081046Y622365D01*
X1081274Y622916D01*
Y623513D01*
X1081046Y624064D01*
X1080624Y624486D01*
X1080500Y624537D01*
X1080508Y625075D01*
X1080875Y625227D01*
X1081297Y625649D01*
X1081526Y626201D01*
Y626797D01*
X1081297Y627349D01*
X1080875Y627771D01*
X1080324Y627999D01*
X1080160D01*
X1079917Y628499D01*
X1080019Y628629D01*
X1082257D01*
X1082530Y628683D01*
X1082761Y628838D01*
X1082799Y628876D01*
X1083030Y628831D01*
X1083331Y628701D01*
X1083527Y628227D01*
X1083949Y627805D01*
X1084501Y627576D01*
X1085097D01*
X1085649Y627805D01*
X1086071Y628227D01*
X1086299Y628778D01*
Y629375D01*
X1086250Y629493D01*
X1086633Y629876D01*
X1086772Y629818D01*
X1087368D01*
X1087920Y630047D01*
X1087986Y630113D01*
X1088486Y629906D01*
D02*
G37*
G36*
X1075123Y635996D02*
Y634561D01*
X1069281Y628719D01*
X1055231D01*
X1054761Y629189D01*
X1054922Y629735D01*
X1055270Y629879D01*
X1055692Y630301D01*
X1055920Y630852D01*
Y631449D01*
X1055692Y632000D01*
X1055270Y632422D01*
X1054719Y632651D01*
X1054122D01*
X1054086Y632636D01*
X1052298Y634425D01*
X1052292Y634428D01*
X1052444Y634928D01*
X1073107D01*
X1073380Y634983D01*
X1073611Y635137D01*
X1074661Y636188D01*
X1075123Y635996D01*
D02*
G37*
G36*
X1033690Y631399D02*
X1033423Y631132D01*
X1033195Y630581D01*
Y629984D01*
X1033423Y629432D01*
X1033845Y629011D01*
X1034396Y628782D01*
X1034993D01*
X1035210Y628872D01*
X1035540Y628543D01*
X1035771Y628388D01*
X1036044Y628334D01*
X1036379D01*
X1036586Y627834D01*
X1036315Y627562D01*
X1036086Y627011D01*
Y626414D01*
X1036315Y625863D01*
X1036737Y625441D01*
X1037288Y625213D01*
X1037885D01*
X1038436Y625441D01*
X1038858Y625863D01*
X1039086Y626414D01*
Y627011D01*
X1038858Y627562D01*
X1038586Y627834D01*
X1038793Y628334D01*
X1039680D01*
X1046186Y621828D01*
X1045995Y621366D01*
X1034300D01*
X1031536Y624130D01*
Y627029D01*
X1031895Y627177D01*
X1032317Y627599D01*
X1032545Y628151D01*
Y628747D01*
X1032317Y629299D01*
X1031895Y629721D01*
X1031343Y629949D01*
X1030747D01*
X1030415Y629811D01*
X1029933Y630109D01*
X1029932Y630111D01*
Y630449D01*
X1029732Y630931D01*
Y631899D01*
X1033483D01*
X1033690Y631399D01*
D02*
G37*
G36*
X963570Y652804D02*
Y652704D01*
X963798Y652152D01*
X964220Y651730D01*
X964772Y651502D01*
X964872D01*
X983317Y633057D01*
X988093D01*
X988574Y632735D01*
X989498Y632551D01*
X990423Y632735D01*
X990904Y633057D01*
X1014257D01*
X1014521Y632793D01*
X1015072Y632564D01*
X1015669D01*
X1016220Y632793D01*
X1016484Y633057D01*
X1025523D01*
X1026471Y632108D01*
X1026703Y631953D01*
X1026976Y631899D01*
X1029299D01*
Y629826D01*
X1020719Y621246D01*
X991913D01*
Y622250D01*
X991730Y623174D01*
X991206Y623957D01*
X990423Y624481D01*
X989498Y624664D01*
X988574Y624481D01*
X987791Y623957D01*
X987267Y623174D01*
X987084Y622250D01*
Y621246D01*
X973475D01*
X963609Y631111D01*
Y631387D01*
X963381Y631938D01*
X962959Y632360D01*
X962408Y632588D01*
X962132D01*
X961237Y633484D01*
X961447D01*
X962064Y633739D01*
X962536Y634212D01*
X962792Y634829D01*
Y635497D01*
X962536Y636114D01*
X962064Y636587D01*
X961447Y636842D01*
X960779D01*
X960161Y636587D01*
X959689Y636114D01*
X959433Y635497D01*
Y635287D01*
X957898Y636823D01*
Y639297D01*
X957714Y640221D01*
X957190Y641005D01*
X956407Y641528D01*
X955483Y641712D01*
X954558Y641528D01*
X953775Y641005D01*
X953751Y640969D01*
X946900Y647821D01*
Y661600D01*
X954774D01*
X963570Y652804D01*
D02*
G37*
G36*
X1134673Y622543D02*
X1134905Y622388D01*
X1135178Y622334D01*
X1140139D01*
X1140629Y621977D01*
Y621956D01*
X1140858Y621405D01*
X1140617Y620938D01*
X1127643D01*
X1127452Y621400D01*
X1129975Y623923D01*
X1133293D01*
X1134673Y622543D01*
D02*
G37*
G36*
X1093966Y632623D02*
X1093935Y632592D01*
X1093707Y632040D01*
Y631444D01*
X1093935Y630892D01*
X1094357Y630470D01*
X1094909Y630242D01*
X1095505D01*
X1095641Y630298D01*
X1104540Y621400D01*
X1104348Y620938D01*
X1101939D01*
X1094527Y628350D01*
X1094620Y628575D01*
Y629172D01*
X1094392Y629723D01*
X1093970Y630145D01*
X1093419Y630373D01*
X1092984D01*
X1092686Y630706D01*
X1092634Y630835D01*
X1092638Y630846D01*
Y631443D01*
X1092410Y631994D01*
X1091988Y632416D01*
X1091436Y632645D01*
X1091490Y633123D01*
X1093759D01*
X1093966Y632623D01*
D02*
G37*
%LPC*%
G36*
X1020583Y683095D02*
X1019986D01*
X1019435Y682866D01*
X1019013Y682444D01*
X1018784Y681893D01*
Y681296D01*
X1019013Y680745D01*
X1019435Y680323D01*
X1019571Y680267D01*
Y668948D01*
X1019071Y668741D01*
X1018991Y668821D01*
X1018439Y669050D01*
X1017842D01*
X1017291Y668821D01*
X1016869Y668399D01*
X1016641Y667848D01*
Y667251D01*
X1016869Y666700D01*
X1017291Y666278D01*
X1017641Y666133D01*
X1017866Y665977D01*
X1017998Y665575D01*
Y652186D01*
X1017862Y652130D01*
X1017440Y651708D01*
X1017212Y651156D01*
Y650560D01*
X1017440Y650008D01*
X1017862Y649586D01*
X1018414Y649358D01*
X1019010D01*
X1019561Y649586D01*
X1019983Y650008D01*
X1020212Y650560D01*
Y651156D01*
X1019983Y651708D01*
X1019561Y652130D01*
X1019425Y652186D01*
Y665279D01*
X1020789Y666643D01*
X1020944Y666874D01*
X1020998Y667147D01*
Y680267D01*
X1021134Y680323D01*
X1021556Y680745D01*
X1021784Y681296D01*
Y681893D01*
X1021556Y682444D01*
X1021134Y682866D01*
X1020583Y683095D01*
D02*
G37*
G36*
X1006027Y671067D02*
X1005431D01*
X1004879Y670838D01*
X1004457Y670416D01*
X1004229Y669865D01*
Y669268D01*
X1004457Y668717D01*
X1004879Y668295D01*
X1005431Y668067D01*
X1006027D01*
X1006579Y668295D01*
X1007001Y668717D01*
X1007229Y669268D01*
Y669865D01*
X1007001Y670416D01*
X1006579Y670838D01*
X1006027Y671067D01*
D02*
G37*
G36*
X1022986Y662116D02*
X1022389D01*
X1021838Y661887D01*
X1021416Y661465D01*
X1021187Y660914D01*
Y660317D01*
X1021416Y659766D01*
X1021838Y659344D01*
X1022389Y659116D01*
X1022986D01*
X1023537Y659344D01*
X1023959Y659766D01*
X1024187Y660317D01*
Y660914D01*
X1023959Y661465D01*
X1023537Y661887D01*
X1022986Y662116D01*
D02*
G37*
G36*
X1009795Y661938D02*
X1009198D01*
X1008647Y661710D01*
X1008225Y661288D01*
X1007996Y660737D01*
Y660140D01*
X1008225Y659589D01*
X1008647Y659167D01*
X1009198Y658938D01*
X1009795D01*
X1010346Y659167D01*
X1010768Y659589D01*
X1010996Y660140D01*
Y660737D01*
X1010768Y661288D01*
X1010346Y661710D01*
X1009795Y661938D01*
D02*
G37*
G36*
X1049381Y647746D02*
X1048784D01*
X1048233Y647518D01*
X1047811Y647096D01*
X1047582Y646545D01*
Y645948D01*
X1047811Y645396D01*
X1048233Y644975D01*
X1048784Y644746D01*
X1049381D01*
X1049932Y644975D01*
X1050354Y645396D01*
X1050582Y645948D01*
Y646545D01*
X1050354Y647096D01*
X1049932Y647518D01*
X1049381Y647746D01*
D02*
G37*
G36*
X1061442Y632799D02*
X1060845D01*
X1060294Y632570D01*
X1059872Y632148D01*
X1059644Y631597D01*
Y631000D01*
X1059872Y630449D01*
X1060294Y630027D01*
X1060845Y629799D01*
X1061442D01*
X1061993Y630027D01*
X1062415Y630449D01*
X1062644Y631000D01*
Y631597D01*
X1062415Y632148D01*
X1061993Y632570D01*
X1061442Y632799D01*
D02*
G37*
G36*
X951909Y654544D02*
X951312D01*
X950761Y654316D01*
X950339Y653894D01*
X950111Y653343D01*
Y652746D01*
X950339Y652195D01*
X950761Y651773D01*
X951312Y651545D01*
X951909D01*
X952460Y651773D01*
X952882Y652195D01*
X953111Y652746D01*
Y653343D01*
X952882Y653894D01*
X952460Y654316D01*
X951909Y654544D01*
D02*
G37*
G36*
X960205Y654460D02*
X959608D01*
X959057Y654232D01*
X958635Y653809D01*
X958406Y653258D01*
Y652662D01*
X958635Y652110D01*
X959057Y651688D01*
X959608Y651460D01*
X960205D01*
X960756Y651688D01*
X961178Y652110D01*
X961406Y652662D01*
Y653258D01*
X961178Y653809D01*
X960756Y654232D01*
X960205Y654460D01*
D02*
G37*
G36*
X964915Y648336D02*
X964318D01*
X963767Y648108D01*
X963345Y647686D01*
X963116Y647135D01*
Y646538D01*
X963345Y645987D01*
X963767Y645565D01*
X964318Y645336D01*
X964915D01*
X965466Y645565D01*
X965888Y645987D01*
X966117Y646538D01*
Y647135D01*
X965888Y647686D01*
X965466Y648108D01*
X964915Y648336D01*
D02*
G37*
G36*
X953678Y648320D02*
X953081D01*
X952530Y648092D01*
X952108Y647670D01*
X951880Y647118D01*
Y646522D01*
X952108Y645970D01*
X952530Y645548D01*
X953081Y645320D01*
X953678D01*
X954229Y645548D01*
X954651Y645970D01*
X954879Y646522D01*
Y647118D01*
X954651Y647670D01*
X954229Y648092D01*
X953678Y648320D01*
D02*
G37*
G36*
X963340Y640876D02*
X962743D01*
X962192Y640647D01*
X961770Y640225D01*
X961542Y639674D01*
Y639077D01*
X961770Y638526D01*
X962192Y638104D01*
X962743Y637876D01*
X963340D01*
X963891Y638104D01*
X964313Y638526D01*
X964542Y639077D01*
Y639674D01*
X964313Y640225D01*
X963891Y640647D01*
X963340Y640876D01*
D02*
G37*
G36*
X960190D02*
X959594D01*
X959042Y640647D01*
X958620Y640225D01*
X958392Y639674D01*
Y639077D01*
X958620Y638526D01*
X959042Y638104D01*
X959594Y637876D01*
X960190D01*
X960742Y638104D01*
X961164Y638526D01*
X961392Y639077D01*
Y639674D01*
X961164Y640225D01*
X960742Y640647D01*
X960190Y640876D01*
D02*
G37*
G36*
X1005269Y632588D02*
X1004673D01*
X1004121Y632360D01*
X1003699Y631938D01*
X1003471Y631387D01*
Y630790D01*
X1003699Y630238D01*
X1004121Y629817D01*
X1004673Y629588D01*
X1005269D01*
X1005821Y629817D01*
X1006242Y630238D01*
X1006471Y630790D01*
Y631387D01*
X1006242Y631938D01*
X1005821Y632360D01*
X1005269Y632588D01*
D02*
G37*
%LPD*%
D12*
X1111926Y647496D02*
G03*
X1111922Y647501I-429J-419D01*
G01*
X1121113Y692754D02*
Y700291D01*
X1118403Y703001D02*
X1121113Y700291D01*
X1115240Y703336D02*
Y709272D01*
X1114178Y710335D02*
X1115240Y709272D01*
X1114178Y710335D02*
Y710424D01*
X1073283Y646089D02*
X1073562Y645810D01*
Y642555D02*
Y645810D01*
X1149720Y623752D02*
Y630346D01*
X1152406Y633033D02*
X1154553D01*
X1149720Y630346D02*
X1152406Y633033D01*
X1146193Y620224D02*
X1149720Y623752D01*
X1091994Y624699D02*
X1098694Y617999D01*
X1161173D02*
X1169341Y626167D01*
X1098694Y617999D02*
X1161173D01*
X1099573Y619130D02*
X1151092D01*
X1153101Y621138D01*
Y628627D01*
X1101643Y620224D02*
X1146193D01*
X1146132Y624746D02*
X1146621Y624257D01*
X1141838Y624746D02*
X1146132D01*
X1146621Y624257D02*
X1147054D01*
X1140139Y623048D02*
X1141838Y624746D01*
X1090960Y627742D02*
X1099573Y619130D01*
X1135178Y623048D02*
X1140139D01*
X1129679Y624637D02*
X1133589D01*
X1135178Y623048D01*
X1126288Y621246D02*
X1129679Y624637D01*
X1106484Y623214D02*
X1126010D01*
X1130229Y627433D02*
X1143048D01*
X1126010Y623214D02*
X1130229Y627433D01*
X1093120Y628747D02*
X1101643Y620224D01*
X1090960Y627742D02*
Y630967D01*
X1091138Y631145D01*
X1093120Y628747D02*
Y628873D01*
X1089199Y628702D02*
Y632688D01*
X1090348Y633836D01*
X1096642D01*
X1081149Y620652D02*
X1089199Y628702D01*
X1074669Y679500D02*
Y679500D01*
Y677379D02*
Y679500D01*
X1122747Y637546D02*
Y645387D01*
X1119522Y634321D02*
X1122747Y637546D01*
X1110854Y661217D02*
X1118423Y653648D01*
Y649711D02*
Y653648D01*
X1110854Y661217D02*
Y663201D01*
X1109743Y660787D02*
X1117264Y653266D01*
X1109743Y660787D02*
Y673218D01*
X1117264Y649293D02*
Y653266D01*
X1116264Y648716D02*
Y652684D01*
X1108675Y660273D02*
Y673564D01*
Y660273D02*
X1116264Y652684D01*
X1109743Y673218D02*
X1111955Y675430D01*
X1110605Y675494D02*
Y711132D01*
X1115428Y715955D01*
X1037658Y640024D02*
X1063427D01*
X1034336Y643346D02*
X1037658Y640024D01*
X1073107Y635642D02*
X1079222Y641757D01*
X1077806Y648805D02*
X1079222Y647389D01*
Y641757D02*
Y647389D01*
X1073868Y648805D02*
X1077806D01*
X1010826Y650062D02*
X1012827Y648061D01*
X1013589D02*
X1027857Y633793D01*
X1012827Y648061D02*
X1013589D01*
X999163Y661724D02*
X1010826Y650062D01*
Y650062D02*
Y650062D01*
X999163Y661724D02*
Y676491D01*
X1036141Y632613D02*
X1037584Y631170D01*
X1026976Y632613D02*
X1036141D01*
X1021034Y638554D02*
X1026976Y632613D01*
X1016205Y638554D02*
X1021034D01*
X1010708Y644052D02*
X1016205Y638554D01*
X1010708Y644052D02*
Y648654D01*
X998082Y661280D02*
Y678106D01*
Y661280D02*
X1010708Y648654D01*
X1014645Y649159D02*
X1028778Y635025D01*
X1014645Y649159D02*
Y659681D01*
X1028778Y635025D02*
X1039233D01*
X1024042Y645245D02*
X1024222Y645425D01*
X1029733D01*
X998082Y678106D02*
X998277Y678301D01*
X1030822Y623834D02*
Y628226D01*
X1031045Y628449D01*
X1118423Y649711D02*
X1122747Y645387D01*
X1121575Y638979D02*
Y644982D01*
X1117264Y649293D02*
X1121575Y644982D01*
X1120466Y642467D02*
Y644514D01*
X1116264Y648716D02*
X1120466Y644514D01*
X1118736Y636141D02*
X1121575Y638979D01*
X1119286Y641287D02*
X1120466Y642467D01*
X1113422Y632888D02*
X1113943Y633410D01*
X1116826Y636141D02*
X1118736D01*
X1113943Y633410D02*
X1114096D01*
X1116826Y636141D01*
X1112922Y632888D02*
X1113422D01*
X1108544Y633973D02*
X1111837D01*
X1112922Y632888D01*
X1107119Y635398D02*
X1108544Y633973D01*
X1107782Y636544D02*
X1109109Y635218D01*
X1113805D02*
X1116436Y637849D01*
X1109109Y635218D02*
X1113805D01*
X1113502Y636329D02*
X1115353Y638179D01*
X1109912Y636329D02*
X1113502D01*
X1108534Y637707D02*
X1109912Y636329D01*
X1111442Y638396D02*
X1111859D01*
X1087320Y639131D02*
X1110708D01*
X1111442Y638396D01*
X1112981Y646442D02*
X1115353Y644070D01*
Y638179D02*
Y644070D01*
X1113727Y648242D02*
X1116436Y645532D01*
Y637849D02*
Y645532D01*
X1104859Y642013D02*
X1112825D01*
X1103784Y643089D02*
X1104859Y642013D01*
X1104563Y650956D02*
X1111095D01*
X1097896Y644289D02*
X1104563Y650956D01*
X1111129Y648294D02*
Y648352D01*
X1087610Y637707D02*
X1108534D01*
X1087862Y636544D02*
X1107782D01*
X1088312Y635398D02*
X1107119D01*
X1097794Y633471D02*
X1097825Y633440D01*
X1095207Y631742D02*
X1105703Y621246D01*
X1082257Y629343D02*
X1088312Y635398D01*
X1087741Y624699D02*
X1091994D01*
X1081783Y630465D02*
X1087862Y636544D01*
X1081600Y631696D02*
X1087610Y637707D01*
X1080945Y632756D02*
X1087320Y639131D01*
X1077778Y632756D02*
X1080945D01*
X1097825Y631874D02*
X1106484Y623214D01*
X1110678Y631572D02*
X1110985Y631266D01*
X1078413Y631696D02*
X1081600D01*
X1077298Y636701D02*
X1083685Y643089D01*
X1077298Y634049D02*
Y636701D01*
X1075837Y636655D02*
X1083472Y644289D01*
X1072908Y636994D02*
X1077806Y641892D01*
X1075837Y646836D02*
X1075848Y646825D01*
X1111926Y647496D02*
X1112981Y646442D01*
X1111129Y648294D02*
X1111922Y647501D01*
X1083685Y643089D02*
X1103784D01*
X1110985Y631266D02*
X1112065D01*
X1112243Y631088D01*
X1113734D01*
X1116967Y634321D01*
X1119522D01*
X1110854Y663201D02*
X1110854Y663201D01*
Y663201D02*
Y672102D01*
X1083472Y644289D02*
X1097896D01*
X1052363Y624254D02*
X1070971D01*
X1050077Y626540D02*
X1052363Y624254D01*
X1050822Y628340D02*
X1053730Y625432D01*
X1048652Y628340D02*
X1050822D01*
X1047626Y629367D02*
X1048652Y628340D01*
X1051793Y633920D02*
X1054420Y631293D01*
Y631150D02*
Y631293D01*
X1046751Y633920D02*
X1051793D01*
X1042272Y632194D02*
X1045720Y635642D01*
X1039233Y635025D02*
X1042157Y632101D01*
Y631872D02*
Y632101D01*
X1042272Y631986D02*
Y632194D01*
X1154553Y633033D02*
X1157530Y636010D01*
X1041383Y700308D02*
X1043938Y697753D01*
X1058201D01*
X1069846Y684323D02*
Y686107D01*
X1058201Y697753D02*
X1069846Y686107D01*
Y684323D02*
X1074669Y679500D01*
X1020284Y667147D02*
Y681595D01*
X1018712Y665575D02*
X1020284Y667147D01*
X1058214Y713774D02*
X1078462Y693526D01*
Y668124D02*
Y693526D01*
X1143048Y627433D02*
X1146703Y631088D01*
X1134969Y638061D02*
X1136410Y639502D01*
X1134704Y650965D02*
X1136410Y649260D01*
Y639502D02*
Y649260D01*
X1031914Y643222D02*
Y643243D01*
Y643222D02*
X1036545Y638591D01*
X1029733Y645425D02*
X1031914Y643243D01*
X1036545Y638591D02*
X1069599D01*
X1073562Y642555D01*
X1108675Y673564D02*
X1110605Y675494D01*
X1110854Y672102D02*
X1113239Y674486D01*
Y701334D01*
X1111955Y703301D02*
X1113261Y704606D01*
X1111955Y675430D02*
Y703301D01*
X1113239Y701334D02*
X1115240Y703336D01*
X1004676Y713470D02*
X1007411D01*
X1012104Y718163D01*
X1057818Y619277D02*
X1062145Y614951D01*
X1049763Y619277D02*
X1057818D01*
X1044341Y616324D02*
X1046810D01*
X1049763Y619277D01*
X1043552Y615535D02*
X1044341Y616324D01*
X1039420Y615535D02*
X1043552D01*
X1037646Y617309D02*
X1039420Y615535D01*
X1033514Y617309D02*
X1037646D01*
X1031546Y619277D02*
X1033514Y617309D01*
X1001034Y619277D02*
X1031546D01*
X1000050Y618293D02*
Y618293D01*
X1001034Y619277D01*
X999065Y617309D02*
X1000050Y618293D01*
X993160Y617309D02*
X999065D01*
X989223Y615340D02*
X990207Y616324D01*
X992176D01*
X993160Y617309D01*
X973475Y618293D02*
X976428Y615340D01*
X989223D01*
X1018712Y650858D02*
Y665575D01*
X998802Y686580D02*
X999235D01*
X998278Y686056D02*
X998802Y686580D01*
X998131Y686056D02*
X998278D01*
X997111Y685037D02*
X998131Y686056D01*
X997111Y682843D02*
Y685037D01*
Y682843D02*
X998421Y681533D01*
X1000144D01*
X995976Y686988D02*
X998228Y689239D01*
X995976Y682304D02*
X997887Y680393D01*
X995976Y682304D02*
Y686988D01*
X997887Y680393D02*
X999358D01*
X1000486Y679264D01*
X1000144Y681533D02*
X1003002Y678675D01*
X999163Y676491D02*
X1000486Y677814D01*
Y679264D01*
X1003002Y674395D02*
Y678675D01*
X1105703Y621246D02*
X1126288D01*
X1070454Y625432D02*
X1077778Y632756D01*
X1070971Y624254D02*
X1078413Y631696D01*
X1071374Y622915D02*
X1078925Y630465D01*
X1081783D01*
X1079420Y629343D02*
X1082257D01*
X1071866Y621788D02*
X1079420Y629343D01*
X1146703Y631088D02*
Y642899D01*
X1154372Y650568D01*
X1097825Y631874D02*
Y633440D01*
X1154372Y650568D02*
X1163384D01*
X1132141Y683109D02*
X1149888Y665362D01*
X1130757Y683109D02*
X1132141D01*
X1149888Y664065D02*
X1163384Y650568D01*
X1149888Y664065D02*
Y665362D01*
X1030822Y623834D02*
X1034004Y620652D01*
X1081149D01*
X1047235Y621788D02*
X1071866D01*
X1039976Y629047D02*
X1047235Y621788D01*
X1069577Y628005D02*
X1075837Y634266D01*
X1050020Y632920D02*
X1054935Y628005D01*
X1069577D01*
X1070014Y626765D02*
X1077298Y634049D01*
X1054570Y626765D02*
X1070014D01*
X1051413Y629922D02*
X1054570Y626765D01*
X1053730Y625432D02*
X1070454D01*
X1077454Y646825D02*
X1077806Y646473D01*
X1075848Y646825D02*
X1077454D01*
X1077806Y641892D02*
Y646473D01*
X1036044Y629047D02*
X1039976D01*
X1034809Y630282D02*
X1036044Y629047D01*
X1034695Y630282D02*
X1034809D01*
X1041432Y630051D02*
X1042882D01*
X1027857Y633793D02*
X1037691D01*
X1041432Y630051D01*
X1042882D02*
X1046751Y633920D01*
X1047453Y632920D02*
X1050020D01*
X1075837Y634266D02*
Y636655D01*
X1049120Y622915D02*
X1071374D01*
X1047193Y629367D02*
X1047626D01*
X1044310Y627615D02*
Y629777D01*
X1047453Y632920D01*
X1050362Y629922D02*
X1051413D01*
X1050073Y630211D02*
X1050362Y629922D01*
X1047203Y624832D02*
X1049120Y622915D01*
X1063427Y640024D02*
X1065307Y641903D01*
Y650663D01*
X1077228Y662584D01*
X1169341Y626167D02*
Y634041D01*
X1001034Y664409D02*
Y672427D01*
Y664409D02*
X1005557Y659886D01*
X1001034Y672427D02*
X1003002Y674395D01*
X999072Y683911D02*
X1003751D01*
X999102Y689239D02*
X999409Y689545D01*
X998228Y689239D02*
X999102D01*
X1043413Y664553D02*
X1079774D01*
X1019791Y688175D02*
X1043413Y664553D01*
X1008015Y688175D02*
X1019791D01*
X1121113Y692754D02*
X1130757Y683109D01*
X1115428Y715955D02*
X1117976D01*
X1045720Y635642D02*
X1073107D01*
X1035618Y636994D02*
X1072908D01*
X1047203Y624832D02*
Y626439D01*
X1047192Y626449D02*
X1047203Y626439D01*
X1046876Y718163D02*
X1051265Y713774D01*
X1058214D01*
X1012104Y718163D02*
X1046876D01*
X1003751Y683911D02*
X1008015Y688175D01*
X1134969Y637860D02*
Y638061D01*
X1134704Y650965D02*
Y651399D01*
X1081742Y663976D02*
Y666521D01*
X1080351Y662584D02*
X1081742Y663976D01*
X1077228Y662584D02*
X1080351D01*
X1029493Y643119D02*
X1035618Y636994D01*
X1014366Y659960D02*
X1014645Y659681D01*
X1223475Y611403D02*
G03*
X1231349Y619277I0J7874D01*
G01*
Y719671D02*
G03*
X1223475Y727545I-7874J0D01*
G01*
X941979D02*
G03*
X934105Y719671I0J-7874D01*
G01*
Y619277D02*
G03*
X941979Y611403I7874J0D01*
G01*
X1231349Y619277D02*
Y719671D01*
X941979Y727545D02*
X1223475D01*
X941979Y611403D02*
X1223475D01*
X934105Y619277D02*
Y719671D01*
D146*
X1105675Y714904D02*
X1110442Y719671D01*
X1132924D01*
X1135657Y715680D02*
Y716938D01*
Y715680D02*
X1135848Y715488D01*
X1132924Y719671D02*
X1135657Y716938D01*
X1016206Y671495D02*
Y672509D01*
X1007975Y680740D02*
X1016206Y672509D01*
Y671495D02*
X1016398Y671304D01*
D154*
X941585Y678923D02*
D03*
X993554D02*
D03*
D155*
X943947Y717702D02*
D03*
Y621246D02*
D03*
X1221506Y717702D02*
D03*
Y621246D02*
D03*
D156*
X989498Y620675D02*
D03*
X955483D02*
D03*
D157*
X989498Y637132D02*
D03*
X955483D02*
D03*
D159*
X1076260Y705134D02*
D03*
X1048760D02*
D03*
X1197642Y705134D02*
D03*
X1170142D02*
D03*
D160*
X1177914Y701189D02*
D03*
X1166459Y697042D02*
D03*
X1167743Y690967D02*
D03*
X1172979Y691238D02*
D03*
X1174436Y693930D02*
D03*
X1208829Y691860D02*
D03*
X1211697Y691899D02*
D03*
X1176336Y705282D02*
D03*
X1177953Y707419D02*
D03*
X1118403Y703001D02*
D03*
X1110947Y716360D02*
D03*
X1106514Y719053D02*
D03*
X1114178Y710424D02*
D03*
X1073283Y646089D02*
D03*
X1147054Y624257D02*
D03*
X1129927Y622062D02*
D03*
X1093120Y628873D02*
D03*
X1091138Y631145D02*
D03*
X1174012Y685502D02*
D03*
X1166359Y685615D02*
D03*
X1166999Y679975D02*
D03*
X1166410Y683095D02*
D03*
X1135850Y701889D02*
D03*
X1129971Y699986D02*
D03*
X1058121Y685222D02*
D03*
X1049262D02*
D03*
X1003002Y670458D02*
D03*
X1007564Y671444D02*
D03*
X1009892Y663568D02*
D03*
X1009747Y667515D02*
D03*
X1011847Y659157D02*
D03*
X1010876Y636994D02*
D03*
X1022754Y647654D02*
D03*
X1024042Y645245D02*
D03*
X1031045Y628449D02*
D03*
X1111859Y638396D02*
D03*
X1112825Y642013D02*
D03*
X1111129Y648352D02*
D03*
X1113727Y648242D02*
D03*
X1112989Y632888D02*
D03*
X1097794Y633471D02*
D03*
X1095207Y631742D02*
D03*
X1087741Y624699D02*
D03*
X1110678Y631572D02*
D03*
X1118892Y629470D02*
D03*
X1116700Y627844D02*
D03*
X1113598Y651968D02*
D03*
X1075837Y646836D02*
D03*
X1111095Y650956D02*
D03*
X1119286Y641287D02*
D03*
X1032622Y626223D02*
D03*
X1166936Y674227D02*
D03*
X989883Y645162D02*
D03*
X977463Y644155D02*
D03*
X983546Y648377D02*
D03*
X960811Y676002D02*
D03*
X963581Y667844D02*
D03*
X958498Y689363D02*
D03*
X1005029Y676009D02*
D03*
X1061983Y700488D02*
D03*
X1133747Y674963D02*
D03*
X1125898Y674959D02*
D03*
X1116071Y674296D02*
D03*
X1106606Y674405D02*
D03*
X1106505Y677391D02*
D03*
X1155505Y674413D02*
D03*
X1155735Y681398D02*
D03*
X1116520Y682152D02*
D03*
X943947Y646836D02*
D03*
X1135910Y676794D02*
D03*
X1128957Y676688D02*
D03*
X1106926Y722588D02*
D03*
X1139842Y715839D02*
D03*
X1139806Y701956D02*
D03*
X1121113Y716219D02*
D03*
X1125063Y716335D02*
D03*
X940010Y641915D02*
D03*
X984154Y661708D02*
D03*
X987198Y675968D02*
D03*
X944932Y682269D02*
D03*
X945837Y674579D02*
D03*
X1019211Y698031D02*
D03*
X945411Y662370D02*
D03*
X1056671Y614178D02*
D03*
X1050077Y626540D02*
D03*
X1054420Y631150D02*
D03*
X1042157Y631872D02*
D03*
X1157530Y636010D02*
D03*
X1087262Y682614D02*
D03*
X1120685Y651031D02*
D03*
X1041383Y700308D02*
D03*
X1074669Y677379D02*
D03*
X1020284Y681595D02*
D03*
X1185089Y650773D02*
D03*
X994144Y659631D02*
D03*
X993414Y683542D02*
D03*
X985145Y705037D02*
D03*
X1104634Y681598D02*
D03*
X1092419Y680768D02*
D03*
X1081697Y673997D02*
D03*
X1081764Y680835D02*
D03*
X1071872Y675225D02*
D03*
X1078462Y668124D02*
D03*
X1072033Y667899D02*
D03*
X1092071Y669654D02*
D03*
X1112754Y662275D02*
D03*
X1121410Y664118D02*
D03*
X1179565Y683378D02*
D03*
X1179751Y678848D02*
D03*
X1180116Y672963D02*
D03*
X1166063Y662229D02*
D03*
X1170403Y662189D02*
D03*
X1160790Y657849D02*
D03*
X1154074Y656353D02*
D03*
X1162565Y635902D02*
D03*
X1166846Y639231D02*
D03*
X1158007Y639134D02*
D03*
X1166798Y643239D02*
D03*
X1158103D02*
D03*
X1128394Y656734D02*
D03*
X1138682Y674022D02*
D03*
X1140466Y677444D02*
D03*
X1129883Y674164D02*
D03*
X1132250Y677225D02*
D03*
X1173343Y679972D02*
D03*
X1174062Y682762D02*
D03*
X1166113Y694078D02*
D03*
X951821Y621246D02*
D03*
X936073D02*
D03*
X943947Y629120D02*
D03*
Y613372D02*
D03*
X938042Y626167D02*
D03*
X949403Y626876D02*
D03*
X938374Y615847D02*
D03*
X949789Y615957D02*
D03*
X1229380Y621246D02*
D03*
X1213632D02*
D03*
X1221506Y629120D02*
D03*
Y613372D02*
D03*
X1215601Y626167D02*
D03*
X1226962Y626876D02*
D03*
X1215933Y615847D02*
D03*
X1227348Y615957D02*
D03*
X1229380Y717702D02*
D03*
X1213632D02*
D03*
X1221506Y725576D02*
D03*
Y709828D02*
D03*
X1215601Y722624D02*
D03*
X1226962Y723333D02*
D03*
X1215933Y712304D02*
D03*
X1227348Y712414D02*
D03*
X949789D02*
D03*
X938374Y712304D02*
D03*
X949403Y723333D02*
D03*
X938042Y722624D02*
D03*
X943947Y709828D02*
D03*
Y725576D02*
D03*
X936073Y717702D02*
D03*
X951821D02*
D03*
X1001232Y725347D02*
D03*
X987138Y725243D02*
D03*
X971897Y724825D02*
D03*
X956742Y724592D02*
D03*
X1091203Y620202D02*
D03*
X1084272Y620606D02*
D03*
X1119975Y625394D02*
D03*
X1122237Y629446D02*
D03*
X1122239Y626907D02*
D03*
X1139593Y625519D02*
D03*
X1140254Y631001D02*
D03*
X1140391Y633572D02*
D03*
X1140529Y636464D02*
D03*
X1140668Y642518D02*
D03*
X1134496Y641634D02*
D03*
X1138211Y642145D02*
D03*
X1138858Y644514D02*
D03*
X1140724Y646491D02*
D03*
X1140877Y649141D02*
D03*
X1140765Y653637D02*
D03*
X1127995Y664333D02*
D03*
X1131686Y664275D02*
D03*
X1138161Y664245D02*
D03*
X1138337Y661169D02*
D03*
X1135612Y662429D02*
D03*
X1133298Y662370D02*
D03*
X1129753Y662224D02*
D03*
X1126559Y661608D02*
D03*
X1130895Y656598D02*
D03*
X1137845Y654710D02*
D03*
X1134352Y655251D02*
D03*
X1067919Y640467D02*
D03*
X1068006Y618707D02*
D03*
X1065099Y615914D02*
D03*
X1004676Y713470D02*
D03*
X1013278Y716056D02*
D03*
X1013140Y707402D02*
D03*
X973703Y668811D02*
D03*
X973457Y678788D02*
D03*
X985080Y678723D02*
D03*
X981952Y678338D02*
D03*
X944808Y670834D02*
D03*
X946266Y665877D02*
D03*
X962998Y657613D02*
D03*
X972094Y657206D02*
D03*
X979993Y657137D02*
D03*
X990553Y661947D02*
D03*
X990452Y664733D02*
D03*
X988511Y679075D02*
D03*
Y683600D02*
D03*
X988840Y686921D02*
D03*
X988694Y691665D02*
D03*
X988915Y695896D02*
D03*
X988888Y700190D02*
D03*
X984404Y700488D02*
D03*
X978921Y700433D02*
D03*
X973573Y700217D02*
D03*
X967901Y700190D02*
D03*
X963688Y699947D02*
D03*
X946093Y700278D02*
D03*
X946147Y693077D02*
D03*
X946013Y688633D02*
D03*
X1022887Y629981D02*
D03*
X950359Y660456D02*
D03*
X1134120Y645011D02*
D03*
X973475Y618293D02*
D03*
X1062145Y614951D02*
D03*
X949206Y700135D02*
D03*
X953499Y697074D02*
D03*
X957942Y699989D02*
D03*
X960746Y697476D02*
D03*
X954457Y694367D02*
D03*
X949685Y693002D02*
D03*
X954378Y691725D02*
D03*
X960599Y682212D02*
D03*
X960616Y684875D02*
D03*
X961083Y687555D02*
D03*
X956349Y660616D02*
D03*
X951821Y658647D02*
D03*
X948898Y658592D02*
D03*
X1044807Y723693D02*
D03*
X1052595D02*
D03*
X1048754Y720279D02*
D03*
X1044860Y709931D02*
D03*
X1052628Y710035D02*
D03*
X1072379Y723530D02*
D03*
X1079912Y723849D02*
D03*
X1076260Y717709D02*
D03*
X1072379Y709932D02*
D03*
X1079848Y710315D02*
D03*
X1050697Y700475D02*
D03*
X1055501Y703083D02*
D03*
Y706762D02*
D03*
X1201683Y723985D02*
D03*
X1193823Y723822D02*
D03*
X1197642Y716886D02*
D03*
X1193758Y710157D02*
D03*
X1201520Y710026D02*
D03*
X1173965Y710128D02*
D03*
X1166299Y710171D02*
D03*
X1170142Y716886D02*
D03*
X1166342Y723478D02*
D03*
X1173749Y723564D02*
D03*
X987254Y650773D02*
D03*
X1067963Y656679D02*
D03*
X1117176Y625183D02*
D03*
X1058412Y630328D02*
D03*
X992650Y655660D02*
D03*
X1067796Y662753D02*
D03*
X1068329Y669472D02*
D03*
X1068131Y675857D02*
D03*
X1068159Y682080D02*
D03*
X1137545Y615172D02*
D03*
X1143614D02*
D03*
X1151766D02*
D03*
X1158817D02*
D03*
X1166730Y615201D02*
D03*
X1173507D02*
D03*
X1170791Y622791D02*
D03*
X1068247Y631382D02*
D03*
X1086632Y689496D02*
D03*
X1080916Y689463D02*
D03*
X1070499Y688143D02*
D03*
X1072798Y616303D02*
D03*
X1078788Y615988D02*
D03*
X1084120Y615714D02*
D03*
X1089686Y615675D02*
D03*
X1094360Y615797D02*
D03*
X1099782Y615836D02*
D03*
X1105547Y615945D02*
D03*
X1110981Y615673D02*
D03*
X1116220Y615828D02*
D03*
X1130061Y616013D02*
D03*
X1123303Y615936D02*
D03*
X1127088Y615897D02*
D03*
X1132494Y616051D02*
D03*
X1180758Y616852D02*
D03*
X1185800Y623537D02*
D03*
X1185654Y634907D02*
D03*
X1185393Y644630D02*
D03*
X1185803Y656395D02*
D03*
X1185618Y668267D02*
D03*
X1185563Y678391D02*
D03*
X1185514Y685083D02*
D03*
X1177998Y688899D02*
D03*
X1165168Y688861D02*
D03*
X1155696Y689352D02*
D03*
X1144499Y689324D02*
D03*
X1135344Y689217D02*
D03*
X1127216Y689596D02*
D03*
X1121747Y689444D02*
D03*
X1115822Y689672D02*
D03*
X1105567Y689520D02*
D03*
X1098578Y689368D02*
D03*
X1093261Y689596D02*
D03*
X965070Y653002D02*
D03*
X944799Y704306D02*
D03*
X941722Y700844D02*
D03*
X941595Y692706D02*
D03*
X941545Y686437D02*
D03*
X941512Y674841D02*
D03*
X941413Y668801D02*
D03*
X942552Y654693D02*
D03*
X970665Y652701D02*
D03*
X976029Y652972D02*
D03*
X982043Y652917D02*
D03*
X993593Y664483D02*
D03*
Y669879D02*
D03*
X993642Y674687D02*
D03*
X993624Y689684D02*
D03*
X989987Y703878D02*
D03*
X976028Y704700D02*
D03*
X967112Y704876D02*
D03*
X958138Y704993D02*
D03*
X1128526Y631963D02*
D03*
X1128370Y629168D02*
D03*
X1125050Y629120D02*
D03*
X1034910Y626272D02*
D03*
X1133606Y631961D02*
D03*
X1136876Y631932D02*
D03*
X1135329Y630735D02*
D03*
X1137022Y629392D02*
D03*
X1133460Y629363D02*
D03*
X1124936Y632078D02*
D03*
X1126658Y630560D02*
D03*
X1132178Y641731D02*
D03*
X1126344Y649609D02*
D03*
X1127817Y651406D02*
D03*
X1124942Y651442D02*
D03*
X1131879Y646266D02*
D03*
X1068055Y616050D02*
D03*
X1052163Y616931D02*
D03*
X1042292Y617335D02*
D03*
X1028531Y626196D02*
D03*
X1136861Y625183D02*
D03*
X1166199Y630285D02*
D03*
X1043764Y646221D02*
D03*
X1161558Y670580D02*
D03*
X985255Y652863D02*
D03*
X993669Y696488D02*
D03*
X941756Y661167D02*
D03*
X949641Y705090D02*
D03*
X1057100Y646589D02*
D03*
X991739Y614305D02*
D03*
X1032792Y613842D02*
D03*
X1044557Y613669D02*
D03*
X1123877Y660682D02*
D03*
X1151102Y622303D02*
D03*
X1060487Y692357D02*
D03*
X1048773Y695459D02*
D03*
X1019325Y694026D02*
D03*
X1029041Y698052D02*
D03*
X1226771Y666100D02*
D03*
X1226604Y660986D02*
D03*
Y655927D02*
D03*
X1226544Y646279D02*
D03*
X1226665Y636188D02*
D03*
X1043522Y706830D02*
D03*
X1024426Y707230D02*
D03*
X1024448Y716363D02*
D03*
X1072598Y633660D02*
D03*
X1121026Y631535D02*
D03*
X985089Y639376D02*
D03*
X1059656Y643843D02*
D03*
X1150640Y652742D02*
D03*
Y656679D02*
D03*
X1108679Y681581D02*
D03*
X1090867Y684084D02*
D03*
X1092316Y673784D02*
D03*
X1087648Y711797D02*
D03*
Y717702D02*
D03*
X1088731Y714750D02*
D03*
X1101428Y711797D02*
D03*
X1100345Y714750D02*
D03*
X1101428Y717702D02*
D03*
X1129066Y705632D02*
D03*
X1133150Y709821D02*
D03*
X1208646Y703612D02*
D03*
X1211697Y703513D02*
D03*
X1214551Y703612D02*
D03*
Y691800D02*
D03*
X1179519Y642408D02*
D03*
X1181152Y660616D02*
D03*
Y664553D02*
D03*
X1148183Y670396D02*
D03*
X1007975Y680740D02*
D03*
X1016398Y671304D02*
D03*
X1018712Y650858D02*
D03*
X1047193Y629367D02*
D03*
X999072Y683911D02*
D03*
X998277Y678301D02*
D03*
X1050073Y630211D02*
D03*
X1044310Y627615D02*
D03*
X1134704Y651399D02*
D03*
X1134969Y637860D02*
D03*
X1025458Y630044D02*
D03*
X1028432Y630151D02*
D03*
X1034695Y630282D02*
D03*
X1047192Y626449D02*
D03*
X1005557Y659886D02*
D03*
X1037584Y631170D02*
D03*
X1153101Y628627D02*
D03*
X1034336Y643346D02*
D03*
X1029493Y643119D02*
D03*
X1160483Y678332D02*
D03*
Y676364D02*
D03*
X1162451D02*
D03*
X1135848Y715488D02*
D03*
X1117976Y715955D02*
D03*
X1105609Y714904D02*
D03*
X1014366Y659960D02*
D03*
X999235Y686580D02*
D03*
X999409Y689545D02*
D03*
X1004971Y644868D02*
D03*
X1012845Y650773D02*
D03*
X1004971D02*
D03*
X1008908Y647821D02*
D03*
X1091585Y640931D02*
D03*
X1085680D02*
D03*
Y646836D02*
D03*
X1091585D02*
D03*
X1103396Y640931D02*
D03*
X1097491D02*
D03*
X1103396Y646836D02*
D03*
X1097491D02*
D03*
X1103396Y652742D02*
D03*
X1097491D02*
D03*
Y658647D02*
D03*
X1103396D02*
D03*
X1091585Y652742D02*
D03*
X1085680D02*
D03*
X1091585Y658647D02*
D03*
X1085680D02*
D03*
X1094538Y649986D02*
D03*
X1081742Y666521D02*
D03*
X1079774Y664553D02*
D03*
X1073868Y648805D02*
D03*
X1163384Y650568D02*
D03*
X1102301Y679323D02*
D03*
X1113261Y704606D02*
D03*
X1169341Y634041D02*
D03*
X1162451Y678332D02*
D03*
D161*
X1105143Y660782D02*
X1113598Y652327D01*
X1105143Y660782D02*
Y669879D01*
X1113598Y651968D02*
Y652327D01*
X1102301Y672721D02*
X1105143Y669879D01*
X1116166Y660558D02*
X1120869Y655855D01*
X1112790Y662140D02*
X1114371Y660558D01*
X1116166D01*
X1112754Y662275D02*
X1112790Y662240D01*
X1120869Y651215D02*
Y655855D01*
X1112790Y662140D02*
Y662240D01*
X1120685Y651031D02*
X1120869Y651215D01*
X1102301Y672721D02*
Y679323D01*
M02*
