G04*
G04 #@! TF.GenerationSoftware,Altium Limited,Altium Designer,23.0.1 (38)*
G04*
G04 Layer_Physical_Order=6*
G04 Layer_Color=16711680*
%FSLAX25Y25*%
%MOIN*%
G70*
G04*
G04 #@! TF.SameCoordinates,19342238-8E0C-4B0D-84B5-E67248FCF62E*
G04*
G04*
G04 #@! TF.FilePolarity,Positive*
G04*
G01*
G75*
%ADD12C,0.00600*%
%ADD17C,0.00800*%
%ADD66R,0.10492X0.16496*%
%ADD129C,0.00664*%
%ADD144C,0.01000*%
%ADD145C,0.01600*%
%ADD146C,0.01200*%
%ADD147C,0.02000*%
%ADD153C,0.03200*%
%ADD154C,0.05906*%
%ADD155C,0.19685*%
%ADD156O,0.03937X0.07087*%
%ADD157O,0.03937X0.08268*%
%ADD158C,0.02559*%
%ADD159C,0.03819*%
%ADD160C,0.02200*%
%ADD161C,0.02400*%
G04:AMPARAMS|DCode=162|XSize=70.87mil|YSize=9.84mil|CornerRadius=0.49mil|HoleSize=0mil|Usage=FLASHONLY|Rotation=270.000|XOffset=0mil|YOffset=0mil|HoleType=Round|Shape=RoundedRectangle|*
%AMROUNDEDRECTD162*
21,1,0.07087,0.00886,0,0,270.0*
21,1,0.06988,0.00984,0,0,270.0*
1,1,0.00098,-0.00443,-0.03494*
1,1,0.00098,-0.00443,0.03494*
1,1,0.00098,0.00443,0.03494*
1,1,0.00098,0.00443,-0.03494*
%
%ADD162ROUNDEDRECTD162*%
%ADD163R,0.05709X0.07874*%
%ADD164R,0.03150X0.05906*%
%ADD165C,0.01500*%
G36*
X1225677Y726930D02*
X1227051Y726361D01*
X1228287Y725535D01*
X1229339Y724483D01*
X1230165Y723247D01*
X1230734Y721873D01*
X1231024Y720414D01*
Y719671D01*
Y619277D01*
Y618534D01*
X1230734Y617075D01*
X1230165Y615701D01*
X1229339Y614465D01*
X1228287Y613413D01*
X1227051Y612587D01*
X1225677Y612018D01*
X1224218Y611728D01*
X1010680D01*
X1010615Y612201D01*
X1011167Y612429D01*
X1011589Y612851D01*
X1011817Y613403D01*
Y613999D01*
X1011589Y614551D01*
X1011167Y614973D01*
X1011031Y615029D01*
Y620391D01*
X1020042Y629402D01*
X1020197Y629634D01*
X1020251Y629907D01*
Y639201D01*
X1020197Y639474D01*
X1020042Y639706D01*
X1019155Y640593D01*
X1019211Y640729D01*
Y641326D01*
X1018983Y641877D01*
X1018561Y642299D01*
X1018010Y642527D01*
X1017413D01*
X1016862Y642299D01*
X1016440Y641877D01*
X1016211Y641326D01*
Y640729D01*
X1016440Y640177D01*
X1016862Y639755D01*
X1017413Y639527D01*
X1018010D01*
X1018146Y639583D01*
X1018824Y638905D01*
Y630202D01*
X1009812Y621191D01*
X1009658Y620960D01*
X1009603Y620686D01*
Y615029D01*
X1009467Y614973D01*
X1009045Y614551D01*
X1008817Y613999D01*
Y613403D01*
X1009045Y612851D01*
X1009467Y612429D01*
X1010019Y612201D01*
X1009954Y611728D01*
X941235D01*
X939777Y612018D01*
X938403Y612587D01*
X937166Y613413D01*
X936115Y614465D01*
X935289Y615701D01*
X934719Y617075D01*
X934429Y618534D01*
Y619277D01*
Y719671D01*
Y720414D01*
X934719Y721873D01*
X935289Y723247D01*
X936115Y724483D01*
X937166Y725535D01*
X938403Y726361D01*
X939777Y726930D01*
X941235Y727220D01*
X1224218D01*
X1225677Y726930D01*
D02*
G37*
%LPC*%
G36*
X1119291Y725894D02*
X1118695D01*
X1118143Y725666D01*
X1117721Y725244D01*
X1117493Y724693D01*
Y724096D01*
X1117721Y723545D01*
X1118143Y723123D01*
X1118695Y722894D01*
X1119291D01*
X1119843Y723123D01*
X1120265Y723545D01*
X1120493Y724096D01*
Y724693D01*
X1120265Y725244D01*
X1119843Y725666D01*
X1119291Y725894D01*
D02*
G37*
G36*
X1127483Y725802D02*
X1126886D01*
X1126335Y725574D01*
X1125913Y725152D01*
X1125685Y724601D01*
Y724004D01*
X1125913Y723453D01*
X1126335Y723031D01*
X1126886Y722802D01*
X1127483D01*
X1128034Y723031D01*
X1128456Y723453D01*
X1128685Y724004D01*
Y724601D01*
X1128456Y725152D01*
X1128034Y725574D01*
X1127483Y725802D01*
D02*
G37*
G36*
X1115085Y725778D02*
X1114488D01*
X1113937Y725550D01*
X1113515Y725128D01*
X1113287Y724576D01*
Y723980D01*
X1113515Y723428D01*
X1113937Y723006D01*
X1114488Y722778D01*
X1115085D01*
X1115636Y723006D01*
X1116058Y723428D01*
X1116287Y723980D01*
Y724576D01*
X1116058Y725128D01*
X1115636Y725550D01*
X1115085Y725778D01*
D02*
G37*
G36*
X1131868Y717817D02*
X1131271D01*
X1130720Y717589D01*
X1130298Y717167D01*
X1130070Y716615D01*
Y716018D01*
X1130298Y715467D01*
X1130720Y715045D01*
X1131271Y714817D01*
X1131868D01*
X1132419Y715045D01*
X1132841Y715467D01*
X1133070Y716018D01*
Y716615D01*
X1132841Y717167D01*
X1132419Y717589D01*
X1131868Y717817D01*
D02*
G37*
G36*
X1118274Y717455D02*
X1117677D01*
X1117126Y717227D01*
X1116704Y716805D01*
X1116476Y716253D01*
Y715657D01*
X1116704Y715105D01*
X1117126Y714683D01*
X1117677Y714455D01*
X1118274D01*
X1118826Y714683D01*
X1119248Y715105D01*
X1119476Y715657D01*
Y716253D01*
X1119248Y716805D01*
X1118826Y717227D01*
X1118274Y717455D01*
D02*
G37*
G36*
X1033289Y717409D02*
X1032692D01*
X1032141Y717180D01*
X1031719Y716758D01*
X1031491Y716207D01*
Y715610D01*
X1031719Y715059D01*
X1032141Y714637D01*
X1032692Y714409D01*
X1033289D01*
X1033840Y714637D01*
X1034262Y715059D01*
X1034491Y715610D01*
Y716207D01*
X1034262Y716758D01*
X1033840Y717180D01*
X1033289Y717409D01*
D02*
G37*
G36*
X1136147Y716988D02*
X1135550D01*
X1134998Y716760D01*
X1134576Y716338D01*
X1134348Y715787D01*
Y715190D01*
X1134576Y714639D01*
X1134998Y714217D01*
X1135550Y713988D01*
X1136147D01*
X1136698Y714217D01*
X1137120Y714639D01*
X1137348Y715190D01*
Y715787D01*
X1137120Y716338D01*
X1136698Y716760D01*
X1136147Y716988D01*
D02*
G37*
G36*
X1004974Y714970D02*
X1004377D01*
X1003826Y714742D01*
X1003404Y714320D01*
X1003176Y713768D01*
Y713172D01*
X1003404Y712620D01*
X1003826Y712198D01*
X1004377Y711970D01*
X1004974D01*
X1005525Y712198D01*
X1005947Y712620D01*
X1006176Y713172D01*
Y713768D01*
X1005947Y714320D01*
X1005525Y714742D01*
X1004974Y714970D01*
D02*
G37*
G36*
X1097491Y719474D02*
X1091585D01*
X1091279Y719347D01*
X1091152Y719041D01*
Y711797D01*
X1091279Y711491D01*
X1091585Y711364D01*
X1097491D01*
X1097797Y711491D01*
X1097923Y711797D01*
Y719041D01*
X1097797Y719347D01*
X1097491Y719474D01*
D02*
G37*
G36*
X1153613Y719325D02*
X1147593D01*
X1147287Y719198D01*
X1147160Y718892D01*
Y711668D01*
X1147287Y711361D01*
X1147593Y711235D01*
X1153613D01*
X1153919Y711361D01*
X1154046Y711668D01*
Y718892D01*
X1153919Y719198D01*
X1153613Y719325D01*
D02*
G37*
G36*
X1105908Y716404D02*
X1105311D01*
X1104760Y716175D01*
X1104338Y715753D01*
X1104109Y715202D01*
Y714605D01*
X1104338Y714054D01*
X1104760Y713632D01*
X1104812Y713610D01*
Y713069D01*
X1104593Y712979D01*
X1104171Y712557D01*
X1103943Y712005D01*
Y711409D01*
X1104171Y710857D01*
X1104593Y710435D01*
X1105144Y710207D01*
X1105741D01*
X1106292Y710435D01*
X1106714Y710857D01*
X1106943Y711409D01*
Y712005D01*
X1106714Y712557D01*
X1106292Y712979D01*
X1106240Y713000D01*
Y713541D01*
X1106459Y713632D01*
X1106881Y714054D01*
X1107109Y714605D01*
Y715202D01*
X1106881Y715753D01*
X1106459Y716175D01*
X1105908Y716404D01*
D02*
G37*
G36*
X1114476Y711924D02*
X1113879D01*
X1113328Y711695D01*
X1112906Y711273D01*
X1112678Y710722D01*
Y710125D01*
X1112906Y709574D01*
X1113328Y709152D01*
X1113879Y708923D01*
X1114476D01*
X1115028Y709152D01*
X1115450Y709574D01*
X1115678Y710125D01*
Y710722D01*
X1115450Y711273D01*
X1115028Y711695D01*
X1114476Y711924D01*
D02*
G37*
G36*
X1129763Y713046D02*
X1126163D01*
X1125857Y712919D01*
X1125730Y712613D01*
Y709013D01*
X1125857Y708706D01*
X1126163Y708580D01*
X1129763D01*
X1130069Y708706D01*
X1130196Y709013D01*
Y712613D01*
X1130069Y712919D01*
X1129763Y713046D01*
D02*
G37*
G36*
X1133013Y707699D02*
X1132416D01*
X1131865Y707470D01*
X1131443Y707048D01*
X1131215Y706497D01*
Y705900D01*
X1131443Y705349D01*
X1131865Y704927D01*
X1132416Y704699D01*
X1133013D01*
X1133564Y704927D01*
X1133986Y705349D01*
X1134215Y705900D01*
Y706497D01*
X1133986Y707048D01*
X1133564Y707470D01*
X1133013Y707699D01*
D02*
G37*
G36*
X1113559Y706106D02*
X1112963D01*
X1112411Y705878D01*
X1111989Y705456D01*
X1111761Y704905D01*
Y704308D01*
X1111989Y703757D01*
X1112411Y703335D01*
X1112963Y703106D01*
X1113559D01*
X1114111Y703335D01*
X1114532Y703757D01*
X1114761Y704308D01*
Y704905D01*
X1114532Y705456D01*
X1114111Y705878D01*
X1113559Y706106D01*
D02*
G37*
G36*
X1118701Y704501D02*
X1118104D01*
X1117553Y704273D01*
X1117131Y703851D01*
X1116903Y703300D01*
Y702703D01*
X1117131Y702151D01*
X1117553Y701729D01*
X1118104Y701501D01*
X1118701D01*
X1119252Y701729D01*
X1119674Y702151D01*
X1119903Y702703D01*
Y703300D01*
X1119674Y703851D01*
X1119252Y704273D01*
X1118701Y704501D01*
D02*
G37*
G36*
X1122498Y711862D02*
X1121901D01*
X1121350Y711634D01*
X1120928Y711212D01*
X1120699Y710660D01*
Y710064D01*
X1120928Y709512D01*
X1121350Y709090D01*
X1121384Y709076D01*
Y701410D01*
X1119741Y699768D01*
X1116527D01*
X1116513Y699802D01*
X1116091Y700224D01*
X1115540Y700452D01*
X1114943D01*
X1114392Y700224D01*
X1113970Y699802D01*
X1113741Y699251D01*
Y698654D01*
X1113970Y698103D01*
X1114392Y697681D01*
X1114943Y697452D01*
X1115540D01*
X1116091Y697681D01*
X1116513Y698103D01*
X1116527Y698137D01*
X1120079D01*
X1120079Y698137D01*
X1120391Y698199D01*
X1120656Y698376D01*
X1122776Y700496D01*
X1122953Y700761D01*
X1123015Y701073D01*
X1123015Y701073D01*
Y709076D01*
X1123049Y709090D01*
X1123471Y709512D01*
X1123699Y710064D01*
Y710660D01*
X1123471Y711212D01*
X1123049Y711634D01*
X1122498Y711862D01*
D02*
G37*
G36*
X1041681Y701808D02*
X1041084D01*
X1040533Y701580D01*
X1040111Y701158D01*
X1039883Y700607D01*
Y700010D01*
X1040111Y699459D01*
X1040533Y699037D01*
X1041084Y698808D01*
X1041681D01*
X1042232Y699037D01*
X1042654Y699459D01*
X1042883Y700010D01*
Y700607D01*
X1042654Y701158D01*
X1042232Y701580D01*
X1041681Y701808D01*
D02*
G37*
G36*
X1010614Y699555D02*
X1010017D01*
X1009466Y699326D01*
X1009044Y698904D01*
X1008815Y698353D01*
Y697756D01*
X1009044Y697205D01*
X1009466Y696783D01*
X1010017Y696555D01*
X1010614D01*
X1011165Y696783D01*
X1011587Y697205D01*
X1011815Y697756D01*
Y698353D01*
X1011587Y698904D01*
X1011165Y699326D01*
X1010614Y699555D01*
D02*
G37*
G36*
X1015919Y692861D02*
X1015323D01*
X1014771Y692633D01*
X1014349Y692211D01*
X1014121Y691659D01*
Y691063D01*
X1014349Y690511D01*
X1014771Y690089D01*
X1015323Y689861D01*
X1015919D01*
X1016471Y690089D01*
X1016893Y690511D01*
X1017121Y691063D01*
Y691659D01*
X1016893Y692211D01*
X1016471Y692633D01*
X1015919Y692861D01*
D02*
G37*
G36*
X965676Y696570D02*
X965080D01*
X964528Y696341D01*
X964106Y695919D01*
X963878Y695368D01*
Y694771D01*
X964106Y694220D01*
X964165Y694161D01*
X963957Y693953D01*
X963729Y693401D01*
Y692805D01*
X963957Y692253D01*
X964240Y691970D01*
X963957Y691687D01*
X963729Y691136D01*
Y690539D01*
X963957Y689988D01*
X964379Y689566D01*
X964930Y689337D01*
X965527D01*
X966078Y689566D01*
X966361Y689849D01*
X966619Y689591D01*
X967171Y689362D01*
X967768D01*
X968319Y689591D01*
X968741Y690013D01*
X968969Y690564D01*
Y691161D01*
X968741Y691712D01*
X968321Y692132D01*
X968492Y692303D01*
X968720Y692854D01*
Y693451D01*
X968492Y694002D01*
X968420Y694074D01*
X968492Y694145D01*
X968720Y694697D01*
Y695293D01*
X968492Y695845D01*
X968070Y696267D01*
X967519Y696495D01*
X966922D01*
X966371Y696267D01*
X966336Y696233D01*
X966228Y696341D01*
X965676Y696570D01*
D02*
G37*
G36*
X999707Y691045D02*
X999110D01*
X998559Y690817D01*
X998137Y690395D01*
X997909Y689844D01*
Y689247D01*
X998137Y688696D01*
X998424Y688409D01*
X998388Y687894D01*
X998357Y687823D01*
X997964Y687430D01*
X997735Y686878D01*
Y686282D01*
X997964Y685731D01*
X998044Y685649D01*
X998223Y685182D01*
X997801Y684760D01*
X997573Y684209D01*
Y683612D01*
X997801Y683061D01*
X998223Y682639D01*
X998774Y682411D01*
X999371D01*
X999922Y682639D01*
X1000344Y683061D01*
X1000572Y683612D01*
Y684209D01*
X1000344Y684760D01*
X1000263Y684841D01*
X1000085Y685309D01*
X1000507Y685731D01*
X1000735Y686282D01*
Y686878D01*
X1000507Y687430D01*
X1000220Y687717D01*
X1000255Y688232D01*
X1000287Y688303D01*
X1000680Y688696D01*
X1000909Y689247D01*
Y689844D01*
X1000680Y690395D01*
X1000258Y690817D01*
X999707Y691045D01*
D02*
G37*
G36*
X1075248Y684017D02*
X1074652D01*
X1074100Y683788D01*
X1073678Y683367D01*
X1073450Y682815D01*
Y682219D01*
X1073678Y681667D01*
X1074100Y681245D01*
X1074652Y681017D01*
X1075248D01*
X1075800Y681245D01*
X1076222Y681667D01*
X1076450Y682219D01*
Y682815D01*
X1076222Y683367D01*
X1075800Y683788D01*
X1075248Y684017D01*
D02*
G37*
G36*
X1020583Y683095D02*
X1019986D01*
X1019435Y682866D01*
X1019013Y682444D01*
X1018784Y681893D01*
Y681296D01*
X1019013Y680745D01*
X1019435Y680323D01*
X1019986Y680095D01*
X1020583D01*
X1021134Y680323D01*
X1021556Y680745D01*
X1021784Y681296D01*
Y681893D01*
X1021556Y682444D01*
X1021134Y682866D01*
X1020583Y683095D01*
D02*
G37*
G36*
X1226940Y682820D02*
X1226343D01*
X1225792Y682591D01*
X1225370Y682169D01*
X1225142Y681618D01*
Y681021D01*
X1225370Y680470D01*
X1225792Y680048D01*
X1226343Y679820D01*
X1226940D01*
X1227491Y680048D01*
X1227913Y680470D01*
X1228142Y681021D01*
Y681618D01*
X1227913Y682169D01*
X1227491Y682591D01*
X1226940Y682820D01*
D02*
G37*
G36*
X1170578Y697033D02*
X1170034D01*
X1169464Y696920D01*
X1168927Y696697D01*
X1168443Y696374D01*
X1168032Y695963D01*
X1167708Y695479D01*
X1167486Y694942D01*
X1167373Y694371D01*
Y693607D01*
X1167403Y693534D01*
Y682374D01*
Y681609D01*
X1167765Y680735D01*
X1168434Y680066D01*
X1169308Y679704D01*
X1170934D01*
X1171848Y680083D01*
X1172548Y680782D01*
X1172926Y681696D01*
Y682718D01*
X1172896Y682871D01*
Y693941D01*
Y694716D01*
X1172797Y695212D01*
X1172603Y695680D01*
X1172322Y696101D01*
X1171964Y696459D01*
X1171543Y696740D01*
X1171075Y696934D01*
X1170578Y697033D01*
D02*
G37*
G36*
X1008296Y687112D02*
X1007700D01*
X1007148Y686884D01*
X1006726Y686462D01*
X1006498Y685910D01*
Y685314D01*
X1006726Y684762D01*
X1007019Y684470D01*
X1006652Y684103D01*
X1006424Y683552D01*
Y682955D01*
X1006652Y682404D01*
X1007074Y681982D01*
X1007078Y681964D01*
X1006704Y681590D01*
X1006475Y681039D01*
Y680442D01*
X1006704Y679891D01*
X1007125Y679469D01*
X1007677Y679240D01*
X1008274D01*
X1008825Y679469D01*
X1009247Y679891D01*
X1009475Y680442D01*
Y681039D01*
X1009247Y681590D01*
X1008825Y682012D01*
X1008821Y682030D01*
X1009195Y682404D01*
X1009424Y682955D01*
Y683552D01*
X1009195Y684103D01*
X1008903Y684396D01*
X1009270Y684762D01*
X1009498Y685314D01*
Y685910D01*
X1009270Y686462D01*
X1008848Y686884D01*
X1008296Y687112D01*
D02*
G37*
G36*
X998576Y679801D02*
X997979D01*
X997427Y679573D01*
X997006Y679151D01*
X996777Y678600D01*
Y678003D01*
X997006Y677452D01*
X997427Y677030D01*
X997979Y676801D01*
X998576D01*
X999127Y677030D01*
X999549Y677452D01*
X999777Y678003D01*
Y678600D01*
X999549Y679151D01*
X999127Y679573D01*
X998576Y679801D01*
D02*
G37*
G36*
X1159085Y685510D02*
X1147020D01*
X1146747Y685456D01*
X1146516Y685301D01*
X1143533Y682318D01*
X1143379Y682087D01*
X1143324Y681814D01*
Y676634D01*
X1143188Y676577D01*
X1142766Y676155D01*
X1142538Y675604D01*
Y675062D01*
X1139551Y672075D01*
X1131374D01*
X1131101Y672021D01*
X1130869Y671866D01*
X1119899Y660896D01*
X1115336D01*
X1115063Y660842D01*
X1114832Y660687D01*
X1105294Y651150D01*
X1105140Y650918D01*
X1105085Y650645D01*
Y639520D01*
X1102069Y636503D01*
X1091541D01*
X1091268Y636449D01*
X1091037Y636294D01*
X1087504Y632762D01*
X1087368Y632818D01*
X1086772D01*
X1086220Y632590D01*
X1085798Y632168D01*
X1085742Y632032D01*
X1079868D01*
X1077898Y634002D01*
Y635096D01*
X1077972Y635161D01*
X1078366Y635334D01*
X1078633Y635068D01*
X1079184Y634840D01*
X1079781D01*
X1080332Y635068D01*
X1080754Y635490D01*
X1080982Y636042D01*
Y636638D01*
X1080754Y637190D01*
X1080332Y637612D01*
X1079781Y637840D01*
X1079184D01*
X1078633Y637612D01*
X1078211Y637190D01*
X1077982Y636638D01*
Y636047D01*
X1077966Y636032D01*
X1077555Y635768D01*
X1073077Y640245D01*
Y641765D01*
X1073023Y642038D01*
X1072868Y642270D01*
X1064221Y650917D01*
X1063990Y651072D01*
X1063716Y651126D01*
X1055706D01*
X1055432Y651072D01*
X1055201Y650917D01*
X1051885Y647601D01*
X1051730Y647369D01*
X1051676Y647096D01*
Y643370D01*
X1050726Y642420D01*
X1050571Y642188D01*
X1050517Y641915D01*
Y641008D01*
X1050049Y640832D01*
X1049924Y640883D01*
X1049705Y640974D01*
X1048819D01*
X1048475Y640832D01*
X1048080D01*
X1048018Y640857D01*
X1047737Y640974D01*
X1046851D01*
X1046632Y640883D01*
X1046507Y640832D01*
X1046039Y641008D01*
Y642875D01*
X1047511Y644347D01*
X1047665Y644579D01*
X1047708Y644792D01*
X1047879Y644895D01*
X1048220Y644987D01*
X1048233Y644975D01*
X1048784Y644746D01*
X1049381D01*
X1049932Y644975D01*
X1050354Y645396D01*
X1050582Y645948D01*
Y646545D01*
X1050354Y647096D01*
X1049932Y647518D01*
X1049381Y647746D01*
X1048936D01*
X1048691Y648204D01*
X1048691Y648208D01*
X1052511Y652028D01*
X1072541D01*
X1072597Y651892D01*
X1073019Y651470D01*
X1073570Y651242D01*
X1073875D01*
X1074078Y651167D01*
X1074197Y650892D01*
X1073964Y650338D01*
X1073875Y650305D01*
X1073570D01*
X1073019Y650076D01*
X1072597Y649654D01*
X1072369Y649103D01*
Y648506D01*
X1072597Y647955D01*
X1072651Y647901D01*
X1072553Y647411D01*
X1072433Y647361D01*
X1072011Y646939D01*
X1071783Y646388D01*
Y645791D01*
X1072011Y645240D01*
X1072433Y644818D01*
X1072984Y644589D01*
X1073581D01*
X1074132Y644818D01*
X1074554Y645240D01*
X1074585Y645314D01*
X1075194Y645479D01*
X1075539Y645336D01*
X1076135D01*
X1076687Y645565D01*
X1077109Y645987D01*
X1077337Y646538D01*
Y647135D01*
X1077109Y647686D01*
X1076687Y648108D01*
X1076135Y648336D01*
X1075830D01*
X1075628Y648411D01*
X1075509Y648686D01*
X1075741Y649240D01*
X1075830Y649273D01*
X1076135D01*
X1076687Y649502D01*
X1077109Y649924D01*
X1077337Y650475D01*
Y651072D01*
X1077109Y651623D01*
X1076687Y652045D01*
X1076135Y652273D01*
X1075830D01*
X1075628Y652348D01*
X1075509Y652623D01*
X1075741Y653177D01*
X1075830Y653210D01*
X1076135D01*
X1076687Y653439D01*
X1077109Y653861D01*
X1077337Y654412D01*
Y655009D01*
X1077109Y655560D01*
X1076687Y655982D01*
X1076135Y656210D01*
X1075830D01*
X1075493Y656335D01*
X1075368Y656672D01*
Y656685D01*
X1075493Y657023D01*
X1075830Y657147D01*
X1076135D01*
X1076687Y657376D01*
X1077109Y657798D01*
X1077337Y658349D01*
Y658634D01*
X1077770Y658819D01*
X1078143Y658518D01*
Y645543D01*
X1077130Y644531D01*
X1075837D01*
X1075213Y644406D01*
X1074683Y644053D01*
X1074330Y643524D01*
X1074206Y642899D01*
X1074330Y642275D01*
X1074683Y641746D01*
X1075213Y641392D01*
X1075837Y641268D01*
X1077806D01*
X1078430Y641392D01*
X1078959Y641746D01*
X1080928Y643714D01*
X1081281Y644243D01*
X1081405Y644868D01*
Y659235D01*
X1081281Y659860D01*
X1080928Y660389D01*
X1078132Y663185D01*
X1077603Y663538D01*
X1076978Y663662D01*
X1076436D01*
Y675748D01*
X1100195D01*
X1100819Y675872D01*
X1101348Y676225D01*
X1102965Y677842D01*
X1103454Y678169D01*
X1103808Y678698D01*
X1103932Y679323D01*
X1103808Y679947D01*
X1103454Y680476D01*
X1102925Y680830D01*
X1102301Y680954D01*
X1102138D01*
X1101514Y680830D01*
X1100985Y680476D01*
X1099519Y679010D01*
X1074669D01*
X1074045Y678886D01*
X1073515Y678533D01*
X1073162Y678003D01*
X1073038Y677379D01*
X1073162Y676755D01*
X1073173Y676738D01*
Y663662D01*
X1072630D01*
X1072006Y663538D01*
X1071477Y663185D01*
X1071123Y662655D01*
X1070999Y662031D01*
X1071123Y661407D01*
X1071303Y661138D01*
X1071035Y660638D01*
X1065029D01*
X1064821Y661138D01*
X1065010Y661595D01*
Y662192D01*
X1064782Y662743D01*
X1064360Y663165D01*
X1063809Y663394D01*
X1063212D01*
X1062661Y663165D01*
X1062239Y662743D01*
X1062010Y662192D01*
Y661595D01*
X1062200Y661138D01*
X1061991Y660638D01*
X1051523D01*
X1051250Y660584D01*
X1051019Y660429D01*
X1038915Y648325D01*
X1038760Y648094D01*
X1038706Y647821D01*
Y641008D01*
X1038238Y640832D01*
X1038113Y640883D01*
X1037894Y640974D01*
X1037008D01*
X1036664Y640832D01*
X1036269D01*
X1036207Y640857D01*
X1035926Y640974D01*
X1035040D01*
X1034696Y640832D01*
X1034301D01*
X1034176Y640883D01*
X1033957Y640974D01*
X1033071D01*
X1032836Y641237D01*
X1032530Y641364D01*
X1030480D01*
X1030362Y641779D01*
X1030358Y641864D01*
X1030764Y642270D01*
X1030993Y642821D01*
Y643418D01*
X1030764Y643969D01*
X1030342Y644391D01*
X1029791Y644620D01*
X1029194D01*
X1028643Y644391D01*
X1028221Y643969D01*
X1027993Y643418D01*
Y642821D01*
X1028221Y642270D01*
X1028627Y641864D01*
X1028623Y641779D01*
X1028505Y641364D01*
X1026624D01*
X1026318Y641237D01*
X1021397Y636316D01*
X1021270Y636010D01*
Y628135D01*
X1021397Y627829D01*
X1021703Y627703D01*
X1028593D01*
X1028899Y627829D01*
X1029026Y628135D01*
Y628223D01*
X1029045Y628233D01*
X1029161Y628214D01*
X1029616Y627979D01*
X1029773Y627599D01*
X1030195Y627177D01*
X1030747Y626949D01*
X1031343D01*
X1031895Y627177D01*
X1032317Y627599D01*
X1032545Y628151D01*
Y628747D01*
X1032317Y629299D01*
X1031895Y629721D01*
X1032121Y630148D01*
X1032733Y630759D01*
X1033020Y630648D01*
X1033195Y630514D01*
Y629984D01*
X1033423Y629432D01*
X1033845Y629011D01*
X1034396Y628782D01*
X1034993D01*
X1035544Y629011D01*
X1035966Y629432D01*
X1036121Y629805D01*
X1036597Y629957D01*
X1036681Y629951D01*
X1036734Y629899D01*
X1037285Y629670D01*
X1037882D01*
X1038338Y629859D01*
X1038530Y629748D01*
X1038628Y629665D01*
X1038743Y629527D01*
X1038706Y629342D01*
Y628368D01*
X1038206Y628080D01*
X1037885Y628213D01*
X1037288D01*
X1036737Y627984D01*
X1036315Y627562D01*
X1036086Y627011D01*
Y626414D01*
X1036315Y625863D01*
X1036586Y625592D01*
X1036664Y625084D01*
X1036522Y624740D01*
Y617752D01*
X1036664Y617408D01*
X1037008Y617265D01*
X1037894D01*
X1038238Y617408D01*
X1038633D01*
X1038695Y617382D01*
X1038977Y617265D01*
X1039863D01*
X1040206Y617408D01*
X1040349Y617752D01*
Y624740D01*
X1040206Y625084D01*
X1040133Y625114D01*
Y629046D01*
X1041576Y630489D01*
X1041859Y630372D01*
X1042456D01*
X1043007Y630600D01*
X1043429Y631022D01*
X1043657Y631573D01*
Y632170D01*
X1043515Y632513D01*
X1043790Y633013D01*
X1043800D01*
X1044143Y633156D01*
X1044538D01*
X1044601Y633130D01*
X1044882Y633013D01*
X1045768D01*
X1046029Y633122D01*
X1046529Y632920D01*
Y630716D01*
X1046343Y630638D01*
X1045921Y630216D01*
X1045693Y629665D01*
Y629068D01*
X1045697Y629056D01*
X1045274Y628773D01*
X1045160Y628887D01*
X1044608Y629115D01*
X1044012D01*
X1043460Y628887D01*
X1043038Y628465D01*
X1042810Y627914D01*
Y627317D01*
X1043038Y626765D01*
X1043460Y626344D01*
X1044012Y626115D01*
X1044608D01*
X1045160Y626344D01*
X1045192Y626376D01*
X1045692Y626169D01*
Y626151D01*
X1045921Y625600D01*
X1046343Y625178D01*
X1046343Y625178D01*
X1046507Y625084D01*
X1046365Y624740D01*
Y617752D01*
X1046507Y617408D01*
X1046851Y617265D01*
X1047737D01*
X1048080Y617408D01*
X1048135D01*
X1048314Y617238D01*
X1048226Y616663D01*
X1048211Y616645D01*
X1047803Y616237D01*
X1047575Y615686D01*
Y615089D01*
X1047803Y614538D01*
X1048225Y614116D01*
X1048777Y613888D01*
X1049374D01*
X1049925Y614116D01*
X1050347Y614538D01*
X1050575Y615089D01*
Y615686D01*
X1050347Y616237D01*
X1049925Y616659D01*
X1049669Y616765D01*
X1049698Y617162D01*
X1049737Y617278D01*
X1050049Y617408D01*
X1050191Y617752D01*
Y624740D01*
X1050375Y625040D01*
X1050926Y625268D01*
X1051348Y625690D01*
X1051577Y626242D01*
Y626838D01*
X1051348Y627390D01*
X1050926Y627812D01*
X1050375Y628040D01*
X1049778D01*
X1049227Y627812D01*
X1048916Y627500D01*
X1048703Y627405D01*
X1048296Y627467D01*
X1048160Y627603D01*
X1048087Y627908D01*
X1048160Y628213D01*
X1048464Y628517D01*
X1048603Y628853D01*
X1049136Y629003D01*
X1049164Y628999D01*
X1049224Y628939D01*
X1049775Y628711D01*
X1050372D01*
X1050923Y628939D01*
X1051345Y629361D01*
X1051573Y629913D01*
Y630509D01*
X1051345Y631061D01*
X1050923Y631483D01*
X1050372Y631711D01*
X1050016D01*
X1049976Y631751D01*
Y632979D01*
X1050444Y633156D01*
X1050569Y633104D01*
X1050788Y633013D01*
X1051674D01*
X1052017Y633156D01*
X1052413D01*
X1052475Y633130D01*
X1052756Y633013D01*
X1053642D01*
X1053876Y633110D01*
X1053897Y633098D01*
X1053883Y632657D01*
X1053794Y632515D01*
X1053571Y632422D01*
X1053149Y632000D01*
X1052920Y631449D01*
Y630852D01*
X1053149Y630301D01*
X1053571Y629879D01*
X1054122Y629650D01*
X1054719D01*
X1055270Y629879D01*
X1055692Y630301D01*
X1055920Y630852D01*
Y631449D01*
X1055842Y631639D01*
X1057216Y633013D01*
X1057579D01*
X1057861Y633130D01*
X1057923Y633156D01*
X1058395Y632990D01*
Y632919D01*
X1058450Y632646D01*
X1058604Y632414D01*
X1059644Y631375D01*
Y631000D01*
X1059872Y630449D01*
X1060294Y630027D01*
X1060830Y629805D01*
X1060945Y629633D01*
X1062925Y627654D01*
X1063156Y627499D01*
X1063430Y627445D01*
X1068629D01*
X1073364Y622710D01*
X1073595Y622555D01*
X1073868Y622501D01*
X1078446D01*
X1078502Y622365D01*
X1078924Y621943D01*
X1079476Y621714D01*
X1080072D01*
X1080624Y621943D01*
X1081046Y622365D01*
X1081102Y622501D01*
X1084400D01*
X1089128Y617772D01*
X1089359Y617618D01*
X1089632Y617563D01*
X1120758D01*
X1121031Y617618D01*
X1121263Y617772D01*
X1126776Y623285D01*
X1131855D01*
X1138490Y616651D01*
X1138721Y616497D01*
X1138994Y616442D01*
X1174527D01*
X1174800Y616497D01*
X1175032Y616651D01*
X1195825Y637444D01*
X1195980Y637676D01*
X1196034Y637949D01*
Y654446D01*
X1196525D01*
X1197076Y654674D01*
X1197498Y655096D01*
X1197726Y655648D01*
Y656244D01*
X1197498Y656796D01*
X1197076Y657218D01*
X1196525Y657446D01*
X1195928D01*
X1195376Y657218D01*
X1195215Y657056D01*
X1194715Y657263D01*
Y660374D01*
X1195338Y660997D01*
X1195492Y661228D01*
X1195547Y661501D01*
Y679389D01*
X1195943Y679707D01*
X1195976Y679693D01*
X1196572D01*
X1197124Y679921D01*
X1197546Y680343D01*
X1197774Y680895D01*
Y681492D01*
X1197546Y682043D01*
X1197124Y682465D01*
X1196572Y682693D01*
X1195976D01*
X1195424Y682465D01*
X1195002Y682043D01*
X1194774Y681492D01*
Y680895D01*
X1194830Y680759D01*
X1194328Y680257D01*
X1194174Y680025D01*
X1194119Y679752D01*
Y661797D01*
X1193497Y661174D01*
X1193342Y660943D01*
X1193287Y660670D01*
Y639079D01*
X1193192Y639015D01*
X1192692Y639283D01*
Y663225D01*
X1192828Y663281D01*
X1193250Y663703D01*
X1193479Y664254D01*
Y664851D01*
X1193250Y665402D01*
X1192828Y665824D01*
X1192435Y665987D01*
X1192286Y666426D01*
X1192289Y666548D01*
X1192304Y666563D01*
X1192532Y667114D01*
Y667711D01*
X1192304Y668262D01*
X1191882Y668684D01*
X1191331Y668913D01*
X1190734D01*
X1190183Y668684D01*
X1189761Y668262D01*
X1189532Y667711D01*
Y667114D01*
X1189761Y666563D01*
X1190183Y666141D01*
X1190308Y666089D01*
X1190499Y665516D01*
X1190350Y665267D01*
X1184400D01*
X1176735Y672931D01*
X1176504Y673086D01*
X1176231Y673140D01*
X1161128D01*
X1152364Y681904D01*
X1152133Y682059D01*
X1151859Y682113D01*
X1149514D01*
X1149458Y682249D01*
X1149036Y682671D01*
X1148484Y682900D01*
X1147888D01*
X1147336Y682671D01*
X1146914Y682249D01*
X1146686Y681698D01*
Y681101D01*
X1146914Y680550D01*
X1147336Y680128D01*
X1147888Y679900D01*
X1148484D01*
X1149036Y680128D01*
X1149458Y680550D01*
X1149514Y680686D01*
X1151564D01*
X1160328Y671922D01*
X1160559Y671767D01*
X1160832Y671713D01*
X1175935D01*
X1183600Y664048D01*
X1183832Y663893D01*
X1184105Y663839D01*
X1190651D01*
X1190707Y663703D01*
X1191129Y663281D01*
X1191265Y663225D01*
Y638548D01*
X1176249Y623532D01*
X1175926Y623631D01*
X1175733Y623723D01*
X1175521Y624236D01*
X1175099Y624658D01*
X1175054Y624676D01*
X1175154Y625176D01*
X1176729D01*
Y631882D01*
X1172898D01*
X1172779Y631882D01*
X1172398D01*
X1172279Y631882D01*
X1170055D01*
Y632713D01*
X1170191Y632769D01*
X1170613Y633191D01*
X1170841Y633743D01*
Y634339D01*
X1170613Y634891D01*
X1170191Y635313D01*
X1169639Y635541D01*
X1169043D01*
X1168491Y635313D01*
X1168069Y634891D01*
X1167841Y634339D01*
Y633743D01*
X1168069Y633191D01*
X1168491Y632769D01*
X1168627Y632713D01*
Y631882D01*
X1168449D01*
Y625176D01*
X1172279D01*
X1172398Y625176D01*
X1172779D01*
X1172898Y625176D01*
X1173344D01*
X1173444Y624676D01*
X1173399Y624658D01*
X1172977Y624236D01*
X1172749Y623685D01*
Y623088D01*
X1172904Y622715D01*
X1171250Y621061D01*
X1163072D01*
X1162813Y621561D01*
X1162967Y621932D01*
Y622528D01*
X1162739Y623080D01*
X1162317Y623502D01*
X1161765Y623730D01*
X1161169D01*
X1161069Y623689D01*
X1160082Y624676D01*
X1160289Y625176D01*
X1163737D01*
Y631882D01*
X1161201D01*
Y633052D01*
X1161147Y633325D01*
X1160992Y633557D01*
X1158974Y635575D01*
X1159030Y635711D01*
Y636308D01*
X1158802Y636859D01*
X1158380Y637281D01*
X1157828Y637509D01*
X1157232D01*
X1156680Y637281D01*
X1156258Y636859D01*
X1156030Y636308D01*
Y635711D01*
X1156258Y635160D01*
X1156680Y634738D01*
X1157232Y634510D01*
X1157828D01*
X1157964Y634566D01*
X1159774Y632756D01*
Y632202D01*
X1159406Y631882D01*
X1159274Y631882D01*
X1155457D01*
Y631882D01*
X1155076D01*
Y631882D01*
X1153815D01*
Y641450D01*
X1153760Y641723D01*
X1153627Y641922D01*
X1153785Y642303D01*
Y642900D01*
X1153557Y643451D01*
X1153135Y643873D01*
X1152584Y644102D01*
X1151987D01*
X1151436Y643873D01*
X1151014Y643451D01*
X1150785Y642900D01*
Y642303D01*
X1151014Y641752D01*
X1151436Y641330D01*
X1151987Y641102D01*
X1152387D01*
Y631882D01*
X1151126D01*
X1151126Y631882D01*
X1150745D01*
Y631882D01*
X1150626Y631882D01*
X1146914D01*
X1146795Y631882D01*
Y631882D01*
X1146414D01*
Y631882D01*
X1142465D01*
Y625176D01*
X1145270D01*
X1145604Y624676D01*
X1145554Y624555D01*
Y623958D01*
X1145782Y623407D01*
X1146204Y622985D01*
X1146755Y622757D01*
X1147352D01*
X1147903Y622985D01*
X1148325Y623407D01*
X1148554Y623958D01*
Y624288D01*
X1148774Y624508D01*
X1148958Y624783D01*
X1149358Y624829D01*
X1149521Y624800D01*
X1149540Y624770D01*
X1150373Y623937D01*
X1150605Y623783D01*
X1150878Y623728D01*
X1152777D01*
X1155983Y620523D01*
X1155791Y620061D01*
X1140149D01*
X1133462Y626748D01*
X1133231Y626902D01*
X1132958Y626957D01*
X1125896D01*
X1125622Y626902D01*
X1125391Y626748D01*
X1119634Y620991D01*
X1098755D01*
X1092872Y626873D01*
X1093079Y627374D01*
X1093419D01*
X1093970Y627602D01*
X1094392Y628024D01*
X1094620Y628575D01*
Y629172D01*
X1094392Y629723D01*
X1093970Y630145D01*
X1093419Y630373D01*
X1092984D01*
X1092686Y630706D01*
X1092634Y630835D01*
X1092638Y630846D01*
Y631443D01*
X1092410Y631994D01*
X1091988Y632416D01*
X1091436Y632645D01*
X1090840D01*
X1090289Y632416D01*
X1089867Y631994D01*
X1089638Y631443D01*
Y630846D01*
X1089867Y630295D01*
X1089869Y630293D01*
X1089622Y629832D01*
X1089616Y629833D01*
X1088414D01*
X1088206Y630333D01*
X1088342Y630469D01*
X1088570Y631020D01*
Y631617D01*
X1088514Y631753D01*
X1091837Y635076D01*
X1096570D01*
X1096777Y634576D01*
X1096522Y634321D01*
X1096294Y633769D01*
Y633430D01*
X1095819Y633112D01*
X1095505Y633242D01*
X1094909D01*
X1094357Y633014D01*
X1093935Y632592D01*
X1093707Y632040D01*
Y631444D01*
X1093935Y630892D01*
X1094357Y630470D01*
X1094909Y630242D01*
X1095505D01*
X1096057Y630470D01*
X1096479Y630892D01*
X1096707Y631444D01*
Y631783D01*
X1097182Y632101D01*
X1097495Y631971D01*
X1098092D01*
X1098643Y632199D01*
X1099065Y632621D01*
X1099294Y633173D01*
Y633769D01*
X1099065Y634321D01*
X1098810Y634576D01*
X1099017Y635076D01*
X1102365D01*
X1102638Y635130D01*
X1102869Y635285D01*
X1106304Y638720D01*
X1106458Y638951D01*
X1106513Y639224D01*
Y650350D01*
X1115632Y659469D01*
X1120195D01*
X1120468Y659523D01*
X1120700Y659678D01*
X1131669Y670648D01*
X1139847D01*
X1140120Y670702D01*
X1140351Y670857D01*
X1143429Y673934D01*
X1143740Y673806D01*
X1144336D01*
X1144888Y674034D01*
X1145310Y674456D01*
X1145538Y675007D01*
Y675604D01*
X1145310Y676155D01*
X1144888Y676577D01*
X1144752Y676634D01*
Y681518D01*
X1147316Y684082D01*
X1158789D01*
X1167012Y675859D01*
X1167244Y675704D01*
X1167517Y675650D01*
X1190651D01*
X1190707Y675514D01*
X1191129Y675092D01*
X1191680Y674864D01*
X1192277D01*
X1192828Y675092D01*
X1193250Y675514D01*
X1193479Y676065D01*
Y676662D01*
X1193250Y677213D01*
X1192828Y677635D01*
X1192277Y677864D01*
X1191680D01*
X1191129Y677635D01*
X1190707Y677213D01*
X1190651Y677077D01*
X1167812D01*
X1159589Y685301D01*
X1159358Y685456D01*
X1159085Y685510D01*
D02*
G37*
G36*
X965541Y677475D02*
X964944D01*
X964393Y677247D01*
X963971Y676825D01*
X963743Y676274D01*
Y675677D01*
X963971Y675126D01*
X964393Y674704D01*
X964944Y674475D01*
X965541D01*
X966092Y674704D01*
X966514Y675126D01*
X966743Y675677D01*
Y676274D01*
X966514Y676825D01*
X966092Y677247D01*
X965541Y677475D01*
D02*
G37*
G36*
X1122504Y675456D02*
X1121907D01*
X1121356Y675227D01*
X1120934Y674805D01*
X1120706Y674254D01*
Y673657D01*
X1120934Y673106D01*
X1121356Y672684D01*
X1121907Y672456D01*
X1122504D01*
X1123055Y672684D01*
X1123477Y673106D01*
X1123706Y673657D01*
Y674254D01*
X1123477Y674805D01*
X1123055Y675227D01*
X1122504Y675456D01*
D02*
G37*
G36*
X1191277Y673011D02*
X1190680D01*
X1190129Y672783D01*
X1189707Y672361D01*
X1189479Y671810D01*
Y671213D01*
X1189707Y670662D01*
X1190129Y670240D01*
X1190680Y670011D01*
X1191277D01*
X1191828Y670240D01*
X1192250Y670662D01*
X1192479Y671213D01*
Y671810D01*
X1192250Y672361D01*
X1191828Y672783D01*
X1191277Y673011D01*
D02*
G37*
G36*
X1016696Y672804D02*
X1016099D01*
X1015548Y672576D01*
X1015126Y672154D01*
X1014898Y671602D01*
Y671006D01*
X1015126Y670454D01*
X1015548Y670032D01*
X1016099Y669804D01*
X1016696D01*
X1017247Y670032D01*
X1017669Y670454D01*
X1017898Y671006D01*
Y671602D01*
X1017669Y672154D01*
X1017247Y672576D01*
X1016696Y672804D01*
D02*
G37*
G36*
X1006857Y695413D02*
X1006260D01*
X1005708Y695185D01*
X1005286Y694763D01*
X1005058Y694211D01*
Y693615D01*
X1005286Y693063D01*
X1005708Y692641D01*
X1006260Y692413D01*
X1006857D01*
X1006992Y692469D01*
X1010163Y689299D01*
Y671505D01*
X1007660Y669002D01*
X1007258Y669250D01*
X1007229Y669278D01*
Y669865D01*
X1007001Y670416D01*
X1006579Y670838D01*
X1006027Y671067D01*
X1005431D01*
X1004879Y670838D01*
X1004457Y670416D01*
X1004229Y669865D01*
Y669268D01*
X1004457Y668717D01*
X1004506Y668669D01*
Y663817D01*
X994865Y654177D01*
X994607Y654228D01*
X992582D01*
X989293Y657516D01*
Y670458D01*
X989138Y671239D01*
X988696Y671900D01*
X988035Y672342D01*
X987254Y672498D01*
X986474Y672342D01*
X985812Y671900D01*
X985370Y671239D01*
X985215Y670458D01*
Y656672D01*
X985370Y655891D01*
X985812Y655230D01*
X990295Y650747D01*
X990957Y650305D01*
X991737Y650150D01*
X991737Y650150D01*
X992568D01*
Y629190D01*
X962754D01*
X962654Y629690D01*
X962959Y629817D01*
X963381Y630238D01*
X963609Y630790D01*
Y631387D01*
X963381Y631938D01*
X962959Y632360D01*
X962408Y632588D01*
X961811D01*
X961260Y632360D01*
X960838Y631938D01*
X960609Y631387D01*
Y630790D01*
X960838Y630238D01*
X961260Y629817D01*
X961564Y629690D01*
X961465Y629190D01*
X957452D01*
X951547Y635096D01*
X950885Y635538D01*
X950105Y635693D01*
X948991D01*
X948735Y635949D01*
X948074Y636391D01*
X947293Y636546D01*
X946002D01*
X945222Y636391D01*
X944560Y635949D01*
X944118Y635287D01*
X943963Y634507D01*
X944118Y633726D01*
X944560Y633065D01*
X945222Y632623D01*
X946002Y632467D01*
X946449D01*
X946704Y632212D01*
X946704Y632212D01*
X947365Y631770D01*
X948146Y631615D01*
X948146Y631615D01*
X949260D01*
X955166Y625709D01*
X955827Y625267D01*
X956608Y625112D01*
X999928D01*
Y618496D01*
X999928Y618496D01*
X999990Y618184D01*
X1000167Y617919D01*
X1001438Y616647D01*
X1001424Y616613D01*
Y616017D01*
X1001653Y615465D01*
X1002075Y615043D01*
X1002626Y614815D01*
X1003223D01*
X1003774Y615043D01*
X1004196Y615465D01*
X1004424Y616017D01*
Y616613D01*
X1004196Y617165D01*
X1003774Y617587D01*
X1003223Y617815D01*
X1002626D01*
X1002592Y617801D01*
X1001559Y618834D01*
Y625112D01*
X1008457D01*
X1009238Y625267D01*
X1009899Y625709D01*
X1016813Y632622D01*
X1017255Y633284D01*
X1017410Y634064D01*
X1017255Y634845D01*
X1016813Y635506D01*
X1016151Y635948D01*
X1015371Y636103D01*
X1014590Y635948D01*
X1013929Y635506D01*
X1007613Y629190D01*
X996646D01*
Y652189D01*
X996595Y652447D01*
X1003595Y659446D01*
X1004170Y659314D01*
X1004285Y659036D01*
X1004707Y658614D01*
X1005259Y658386D01*
X1005855D01*
X1006407Y658614D01*
X1006829Y659036D01*
X1007057Y659588D01*
Y660184D01*
X1006829Y660736D01*
X1006407Y661158D01*
X1006129Y661273D01*
X1005997Y661848D01*
X1006594Y662445D01*
X1006724Y662639D01*
X1007224Y662488D01*
Y661997D01*
X1007278Y661724D01*
X1007433Y661493D01*
X1008053Y660873D01*
X1007996Y660737D01*
Y660140D01*
X1008225Y659589D01*
X1008647Y659167D01*
X1009198Y658938D01*
X1009795D01*
X1010346Y659167D01*
X1010768Y659589D01*
X1010996Y660140D01*
Y660737D01*
X1010768Y661288D01*
X1010346Y661710D01*
X1009795Y661938D01*
X1009198D01*
X1009062Y661882D01*
X1008651Y662293D01*
Y667974D01*
X1011381Y670704D01*
X1011536Y670936D01*
X1011590Y671209D01*
Y689595D01*
X1011536Y689868D01*
X1011381Y690099D01*
X1008002Y693479D01*
X1008058Y693615D01*
Y694211D01*
X1007830Y694763D01*
X1007408Y695185D01*
X1006857Y695413D01*
D02*
G37*
G36*
X970844Y671572D02*
X970247D01*
X969696Y671343D01*
X969274Y670921D01*
X969046Y670370D01*
Y669773D01*
X969274Y669222D01*
X969696Y668800D01*
X970247Y668572D01*
X970844D01*
X971395Y668800D01*
X971817Y669222D01*
X972046Y669773D01*
Y670370D01*
X971817Y670921D01*
X971395Y671343D01*
X970844Y671572D01*
D02*
G37*
G36*
X1078760Y669624D02*
X1078164D01*
X1077612Y669396D01*
X1077190Y668974D01*
X1076962Y668423D01*
Y667826D01*
X1077190Y667275D01*
X1077612Y666853D01*
X1078164Y666624D01*
X1078760D01*
X1079312Y666853D01*
X1079734Y667275D01*
X1079962Y667826D01*
Y668423D01*
X1079734Y668974D01*
X1079312Y669396D01*
X1078760Y669624D01*
D02*
G37*
G36*
X1018439Y669050D02*
X1017842D01*
X1017291Y668821D01*
X1016869Y668399D01*
X1016641Y667848D01*
Y667251D01*
X1016869Y666700D01*
X1017291Y666278D01*
X1017842Y666049D01*
X1018439D01*
X1018991Y666278D01*
X1019413Y666700D01*
X1019641Y667251D01*
Y667848D01*
X1019413Y668399D01*
X1018991Y668821D01*
X1018439Y669050D01*
D02*
G37*
G36*
X1174560Y668826D02*
X1173963D01*
X1173412Y668597D01*
X1172990Y668175D01*
X1172762Y667624D01*
Y667027D01*
X1172990Y666476D01*
X1173412Y666054D01*
X1173963Y665826D01*
X1174560D01*
X1175111Y666054D01*
X1175533Y666476D01*
X1175762Y667027D01*
Y667624D01*
X1175533Y668175D01*
X1175111Y668597D01*
X1174560Y668826D01*
D02*
G37*
G36*
X1092892Y668528D02*
X1092295D01*
X1091744Y668300D01*
X1091322Y667878D01*
X1091094Y667326D01*
Y666730D01*
X1091322Y666178D01*
X1091744Y665756D01*
X1092295Y665528D01*
X1092892D01*
X1093443Y665756D01*
X1093865Y666178D01*
X1094094Y666730D01*
Y667326D01*
X1093865Y667878D01*
X1093443Y668300D01*
X1092892Y668528D01*
D02*
G37*
G36*
X1115788Y664758D02*
X1115191D01*
X1114640Y664530D01*
X1114218Y664108D01*
X1114081Y663777D01*
X1113668Y663577D01*
X1113503Y663588D01*
X1113053Y663775D01*
X1112456D01*
X1111905Y663546D01*
X1111483Y663124D01*
X1111254Y662573D01*
Y661976D01*
X1111483Y661425D01*
X1111905Y661003D01*
X1112456Y660775D01*
X1113053D01*
X1113604Y661003D01*
X1114026Y661425D01*
X1114163Y661756D01*
X1114576Y661955D01*
X1114741Y661944D01*
X1115191Y661758D01*
X1115788D01*
X1116339Y661986D01*
X1116761Y662408D01*
X1116990Y662959D01*
Y663556D01*
X1116761Y664108D01*
X1116339Y664530D01*
X1115788Y664758D01*
D02*
G37*
G36*
X1082041Y668021D02*
X1081444D01*
X1080893Y667793D01*
X1080471Y667371D01*
X1080243Y666820D01*
Y666515D01*
X1080118Y666177D01*
X1079781Y666053D01*
X1079476D01*
X1078924Y665824D01*
X1078502Y665402D01*
X1078274Y664851D01*
Y664254D01*
X1078502Y663703D01*
X1078924Y663281D01*
X1079476Y663053D01*
X1080072D01*
X1080624Y663281D01*
X1081046Y663703D01*
X1081274Y664254D01*
Y664559D01*
X1081398Y664897D01*
X1081736Y665021D01*
X1082041D01*
X1082592Y665250D01*
X1083014Y665672D01*
X1083243Y666223D01*
Y666820D01*
X1083014Y667371D01*
X1082592Y667793D01*
X1082041Y668021D01*
D02*
G37*
G36*
X1154947Y669193D02*
X1154350D01*
X1153798Y668964D01*
X1153376Y668543D01*
X1153304Y668367D01*
X1144692Y659756D01*
X1137365D01*
X1136878Y660243D01*
X1136415Y660553D01*
X1135868Y660661D01*
X1135868Y660661D01*
X1127358D01*
X1126812Y660553D01*
X1126787Y660536D01*
X1126495D01*
X1126495Y660536D01*
X1125949Y660427D01*
X1125486Y660118D01*
X1125486Y660118D01*
X1123474Y658106D01*
X1119618D01*
X1119618Y658106D01*
X1119072Y657998D01*
X1118608Y657688D01*
X1118608Y657688D01*
X1116010Y655089D01*
X1115700Y654626D01*
X1115592Y654080D01*
X1115592Y654080D01*
Y653395D01*
X1114072D01*
X1113896Y653468D01*
X1113300D01*
X1112749Y653239D01*
X1112327Y652817D01*
X1112239Y652606D01*
X1111991Y652287D01*
X1111635Y652356D01*
X1111393Y652456D01*
X1110797D01*
X1110245Y652228D01*
X1109823Y651806D01*
X1109595Y651254D01*
Y650658D01*
X1109823Y650106D01*
X1109966Y649964D01*
X1110235Y649671D01*
X1109966Y649310D01*
X1109857Y649201D01*
X1109629Y648650D01*
Y648053D01*
X1109857Y647502D01*
X1110279Y647080D01*
X1110830Y646852D01*
X1111427D01*
X1111979Y647080D01*
X1112046Y647148D01*
X1112455Y647392D01*
X1112877Y646970D01*
X1113428Y646742D01*
X1114025D01*
X1114331Y646868D01*
X1114831Y646571D01*
Y645629D01*
X1114632Y645331D01*
X1114524Y644785D01*
X1114524Y644785D01*
Y643088D01*
X1114366Y643005D01*
X1114024Y642935D01*
X1113674Y643285D01*
X1113330Y643427D01*
X1113289Y643635D01*
X1113517Y644186D01*
Y644783D01*
X1113289Y645334D01*
X1112867Y645756D01*
X1112316Y645985D01*
X1111719D01*
X1111168Y645756D01*
X1110746Y645334D01*
X1110517Y644783D01*
Y644186D01*
X1110746Y643635D01*
X1111168Y643213D01*
X1111512Y643070D01*
X1111553Y642863D01*
X1111325Y642311D01*
Y641715D01*
X1111553Y641163D01*
X1111975Y640741D01*
X1112526Y640513D01*
X1113123D01*
X1113674Y640741D01*
X1114061Y641128D01*
X1114270Y641121D01*
X1114587Y641043D01*
X1114632Y640817D01*
X1114659Y640778D01*
Y637151D01*
X1114323Y636816D01*
X1113107D01*
X1112900Y637316D01*
X1113131Y637546D01*
X1113359Y638098D01*
Y638694D01*
X1113131Y639246D01*
X1112709Y639668D01*
X1112157Y639896D01*
X1111561D01*
X1111009Y639668D01*
X1110587Y639246D01*
X1110359Y638694D01*
Y638098D01*
X1110587Y637546D01*
X1110833Y637300D01*
X1110681Y636760D01*
X1110412Y636707D01*
X1109949Y636398D01*
X1109949Y636398D01*
X1107169Y633617D01*
X1106859Y633154D01*
X1106751Y632608D01*
X1106751Y632608D01*
Y632363D01*
X1106357Y631969D01*
X1106129Y631418D01*
Y630821D01*
X1106357Y630270D01*
X1106779Y629848D01*
X1107330Y629620D01*
X1107927D01*
X1108478Y629848D01*
X1108900Y630270D01*
X1108990Y630486D01*
X1109052Y630522D01*
X1109095Y630535D01*
X1109574Y630522D01*
X1109639Y630490D01*
X1109829Y630301D01*
X1110380Y630072D01*
X1110977D01*
X1111528Y630301D01*
X1111950Y630723D01*
X1112102Y631091D01*
X1112306Y631211D01*
X1112522Y631142D01*
X1112660Y630574D01*
X1109039Y626953D01*
X1108730Y626490D01*
X1108621Y625943D01*
X1108621Y625943D01*
Y625580D01*
X1108510Y625313D01*
Y624716D01*
X1108739Y624164D01*
X1109161Y623742D01*
X1109712Y623514D01*
X1110309D01*
X1110860Y623742D01*
X1111282Y624164D01*
X1111510Y624716D01*
Y625313D01*
X1111489Y625365D01*
X1119254Y633129D01*
X1119254Y633130D01*
X1122795Y636671D01*
X1122795Y636671D01*
X1123105Y637134D01*
X1123213Y637681D01*
X1123213Y637681D01*
Y649875D01*
X1123213Y649876D01*
X1123105Y650422D01*
X1122795Y650885D01*
X1122795Y650885D01*
X1122067Y651613D01*
X1121956Y651881D01*
X1121534Y652303D01*
X1120983Y652531D01*
X1120386D01*
X1119835Y652303D01*
X1119413Y651881D01*
X1119185Y651329D01*
Y650733D01*
X1119413Y650181D01*
X1119835Y649759D01*
X1119918Y649725D01*
X1120358Y649284D01*
Y642989D01*
X1119858Y642674D01*
X1119584Y642787D01*
X1118988D01*
X1118436Y642559D01*
X1118014Y642137D01*
X1117477Y642147D01*
X1117379Y642219D01*
Y644249D01*
X1117577Y644546D01*
X1117686Y645092D01*
Y646934D01*
X1118028Y647276D01*
X1118028Y647276D01*
X1118338Y647739D01*
X1118447Y648285D01*
X1118446Y648285D01*
Y653489D01*
X1120209Y655251D01*
X1124065D01*
X1124065Y655251D01*
X1124612Y655360D01*
X1125075Y655669D01*
X1127086Y657681D01*
X1127233D01*
X1127233Y657681D01*
X1127779Y657790D01*
X1127804Y657806D01*
X1135277D01*
X1135764Y657319D01*
X1135764Y657319D01*
X1136227Y657010D01*
X1136774Y656901D01*
X1136774Y656901D01*
X1145284D01*
X1145284Y656901D01*
X1145830Y657010D01*
X1146293Y657319D01*
X1155323Y666349D01*
X1155498Y666421D01*
X1155920Y666843D01*
X1156148Y667394D01*
Y667991D01*
X1155920Y668543D01*
X1155498Y668964D01*
X1154947Y669193D01*
D02*
G37*
G36*
X975595Y662138D02*
X974998D01*
X974447Y661910D01*
X974025Y661488D01*
X973797Y660937D01*
Y660340D01*
X974025Y659789D01*
X974447Y659367D01*
X974998Y659138D01*
X975595D01*
X976146Y659367D01*
X976568Y659789D01*
X976797Y660340D01*
Y660937D01*
X976568Y661488D01*
X976146Y661910D01*
X975595Y662138D01*
D02*
G37*
G36*
X1022986Y662116D02*
X1022389D01*
X1021838Y661887D01*
X1021416Y661465D01*
X1021187Y660914D01*
Y660317D01*
X1021416Y659766D01*
X1021838Y659344D01*
X1022389Y659116D01*
X1022986D01*
X1023537Y659344D01*
X1023959Y659766D01*
X1024187Y660317D01*
Y660914D01*
X1023959Y661465D01*
X1023537Y661887D01*
X1022986Y662116D01*
D02*
G37*
G36*
X956647D02*
X956051D01*
X955499Y661887D01*
X955077Y661465D01*
X954849Y660914D01*
Y660317D01*
X955077Y659766D01*
X955499Y659344D01*
X956051Y659116D01*
X956647D01*
X957199Y659344D01*
X957621Y659766D01*
X957849Y660317D01*
Y660914D01*
X957621Y661465D01*
X957199Y661887D01*
X956647Y662116D01*
D02*
G37*
G36*
X1014665Y661460D02*
X1014068D01*
X1013517Y661231D01*
X1013095Y660809D01*
X1012866Y660258D01*
Y659661D01*
X1013095Y659110D01*
X1013517Y658688D01*
X1014068Y658460D01*
X1014665D01*
X1015216Y658688D01*
X1015638Y659110D01*
X1015866Y659661D01*
Y660258D01*
X1015638Y660809D01*
X1015216Y661231D01*
X1014665Y661460D01*
D02*
G37*
G36*
X950658Y661956D02*
X950061D01*
X949510Y661728D01*
X949088Y661306D01*
X948859Y660755D01*
Y660158D01*
X948815Y660092D01*
X948600D01*
X948048Y659863D01*
X947626Y659441D01*
X947398Y658890D01*
Y658293D01*
X947626Y657742D01*
X948048Y657320D01*
X948600Y657092D01*
X949196D01*
X949747Y657320D01*
X950072Y657644D01*
X950312Y657721D01*
X950680Y657667D01*
X950972Y657376D01*
X951523Y657147D01*
X952120D01*
X952671Y657376D01*
X953093Y657798D01*
X953321Y658349D01*
Y658946D01*
X953093Y659497D01*
X952671Y659919D01*
X952120Y660147D01*
X951866D01*
X951859Y660158D01*
Y660755D01*
X951631Y661306D01*
X951209Y661728D01*
X950658Y661956D01*
D02*
G37*
G36*
X1181525Y658455D02*
X1180928D01*
X1180377Y658227D01*
X1179955Y657805D01*
X1179727Y657254D01*
Y656657D01*
X1179955Y656106D01*
X1180377Y655684D01*
X1180928Y655455D01*
X1181525D01*
X1182076Y655684D01*
X1182498Y656106D01*
X1182727Y656657D01*
Y657254D01*
X1182498Y657805D01*
X1182076Y658227D01*
X1181525Y658455D01*
D02*
G37*
G36*
X1171852Y657511D02*
X1171256D01*
X1170704Y657283D01*
X1170282Y656861D01*
X1170054Y656310D01*
Y655713D01*
X1170282Y655161D01*
X1170704Y654740D01*
X1171256Y654511D01*
X1171852D01*
X1172404Y654740D01*
X1172826Y655161D01*
X1173054Y655713D01*
Y656310D01*
X1172826Y656861D01*
X1172404Y657283D01*
X1171852Y657511D01*
D02*
G37*
G36*
X1135003Y652899D02*
X1134406D01*
X1133855Y652670D01*
X1133433Y652248D01*
X1133204Y651697D01*
Y651100D01*
X1133433Y650549D01*
X1133855Y650127D01*
X1134406Y649898D01*
X1135003D01*
X1135554Y650127D01*
X1135976Y650549D01*
X1136205Y651100D01*
Y651697D01*
X1135976Y652248D01*
X1135554Y652670D01*
X1135003Y652899D01*
D02*
G37*
G36*
X1019010Y652358D02*
X1018414D01*
X1017862Y652130D01*
X1017440Y651708D01*
X1017212Y651156D01*
Y650560D01*
X1017440Y650008D01*
X1017862Y649586D01*
X1018414Y649358D01*
X1019010D01*
X1019561Y649586D01*
X1019983Y650008D01*
X1020212Y650560D01*
Y651156D01*
X1019983Y651708D01*
X1019561Y652130D01*
X1019010Y652358D01*
D02*
G37*
G36*
X1163728Y655022D02*
X1163131D01*
X1162580Y654794D01*
X1162158Y654372D01*
X1161930Y653820D01*
Y653224D01*
X1162158Y652672D01*
X1162474Y652356D01*
X1162516Y651999D01*
X1162455Y651761D01*
X1162113Y651418D01*
X1161884Y650867D01*
Y650270D01*
X1162113Y649719D01*
X1162535Y649297D01*
X1163086Y649068D01*
X1163683D01*
X1164234Y649297D01*
X1164656Y649719D01*
X1164884Y650270D01*
Y650867D01*
X1164656Y651418D01*
X1164340Y651734D01*
X1164298Y652091D01*
X1164359Y652329D01*
X1164701Y652672D01*
X1164930Y653224D01*
Y653820D01*
X1164701Y654372D01*
X1164279Y654794D01*
X1163728Y655022D01*
D02*
G37*
G36*
X1178498Y647352D02*
X1177901D01*
X1177349Y647124D01*
X1176928Y646702D01*
X1176699Y646150D01*
Y645554D01*
X1176928Y645002D01*
X1177349Y644580D01*
X1177901Y644352D01*
X1178498D01*
X1179049Y644580D01*
X1179471Y645002D01*
X1179699Y645554D01*
Y646150D01*
X1179471Y646702D01*
X1179049Y647124D01*
X1178498Y647352D01*
D02*
G37*
G36*
X1024340Y646745D02*
X1023744D01*
X1023192Y646517D01*
X1022770Y646095D01*
X1022542Y645543D01*
Y644947D01*
X1022770Y644395D01*
X1023192Y643973D01*
X1023744Y643745D01*
X1024340D01*
X1024892Y643973D01*
X1025314Y644395D01*
X1025542Y644947D01*
Y645543D01*
X1025314Y646095D01*
X1024892Y646517D01*
X1024340Y646745D01*
D02*
G37*
G36*
X1034634Y644846D02*
X1034038D01*
X1033486Y644617D01*
X1033064Y644196D01*
X1032836Y643644D01*
Y643047D01*
X1033064Y642496D01*
X1033486Y642074D01*
X1034038Y641846D01*
X1034634D01*
X1035186Y642074D01*
X1035608Y642496D01*
X1035836Y643047D01*
Y643644D01*
X1035608Y644196D01*
X1035186Y644617D01*
X1034634Y644846D01*
D02*
G37*
G36*
X982238Y640876D02*
X981641D01*
X981466Y640803D01*
X963515D01*
X963340Y640876D01*
X962743D01*
X962192Y640647D01*
X961770Y640225D01*
X961542Y639674D01*
Y639077D01*
X961770Y638526D01*
X962192Y638104D01*
X962743Y637876D01*
X963340D01*
X963515Y637948D01*
X981466D01*
X981641Y637876D01*
X982238D01*
X982789Y638104D01*
X983211Y638526D01*
X983439Y639077D01*
Y639674D01*
X983211Y640225D01*
X982789Y640647D01*
X982238Y640876D01*
D02*
G37*
G36*
X1135267Y639360D02*
X1134671D01*
X1134119Y639132D01*
X1133697Y638710D01*
X1133469Y638159D01*
Y637562D01*
X1133697Y637011D01*
X1134119Y636589D01*
X1134671Y636360D01*
X1135267D01*
X1135819Y636589D01*
X1136241Y637011D01*
X1136469Y637562D01*
Y638159D01*
X1136241Y638710D01*
X1135819Y639132D01*
X1135267Y639360D01*
D02*
G37*
G36*
X984203Y636842D02*
X983534D01*
X982917Y636587D01*
X982445Y636114D01*
X982189Y635497D01*
Y634829D01*
X982445Y634212D01*
X982917Y633739D01*
X983534Y633484D01*
X984203D01*
X984820Y633739D01*
X985292Y634212D01*
X985548Y634829D01*
Y635497D01*
X985292Y636114D01*
X984820Y636587D01*
X984203Y636842D01*
D02*
G37*
G36*
X961447D02*
X960779D01*
X960161Y636587D01*
X959689Y636114D01*
X959433Y635497D01*
Y634829D01*
X959689Y634212D01*
X960161Y633739D01*
X960779Y633484D01*
X961447D01*
X962064Y633739D01*
X962536Y634212D01*
X962792Y634829D01*
Y635497D01*
X962536Y636114D01*
X962064Y636587D01*
X961447Y636842D01*
D02*
G37*
G36*
X1179885Y636062D02*
X1179288D01*
X1178737Y635833D01*
X1178315Y635411D01*
X1178087Y634860D01*
Y634263D01*
X1178315Y633712D01*
X1178737Y633290D01*
X1179288Y633062D01*
X1179885D01*
X1180436Y633290D01*
X1180858Y633712D01*
X1181087Y634263D01*
Y634860D01*
X1180858Y635411D01*
X1180436Y635833D01*
X1179885Y636062D01*
D02*
G37*
G36*
X1142428Y623755D02*
X1141831D01*
X1141279Y623526D01*
X1140858Y623104D01*
X1140629Y622553D01*
Y621956D01*
X1140858Y621405D01*
X1141279Y620983D01*
X1141831Y620754D01*
X1142428D01*
X1142979Y620983D01*
X1143401Y621405D01*
X1143629Y621956D01*
Y622553D01*
X1143401Y623104D01*
X1142979Y623526D01*
X1142428Y623755D01*
D02*
G37*
G36*
X973773Y619793D02*
X973176D01*
X972625Y619564D01*
X972203Y619143D01*
X971975Y618591D01*
Y617994D01*
X972203Y617443D01*
X972625Y617021D01*
X973176Y616793D01*
X973773D01*
X974325Y617021D01*
X974747Y617443D01*
X974975Y617994D01*
Y618591D01*
X974747Y619143D01*
X974325Y619564D01*
X973773Y619793D01*
D02*
G37*
G36*
X1014877Y617772D02*
X1014281D01*
X1013729Y617544D01*
X1013307Y617122D01*
X1013079Y616571D01*
Y615974D01*
X1013307Y615423D01*
X1013729Y615001D01*
X1014281Y614773D01*
X1014877D01*
X1015429Y615001D01*
X1015851Y615423D01*
X1016079Y615974D01*
Y616571D01*
X1015851Y617122D01*
X1015429Y617544D01*
X1014877Y617772D01*
D02*
G37*
G36*
X1025720Y617681D02*
X1025123D01*
X1024572Y617453D01*
X1024150Y617031D01*
X1023922Y616479D01*
Y615883D01*
X1024150Y615331D01*
X1024572Y614909D01*
X1025123Y614681D01*
X1025720D01*
X1026271Y614909D01*
X1026693Y615331D01*
X1026922Y615883D01*
Y616479D01*
X1026693Y617031D01*
X1026271Y617453D01*
X1025720Y617681D01*
D02*
G37*
G36*
X1062443Y616451D02*
X1061846D01*
X1061295Y616222D01*
X1060873Y615800D01*
X1060645Y615249D01*
Y614652D01*
X1060873Y614101D01*
X1061295Y613679D01*
X1061846Y613450D01*
X1062443D01*
X1062994Y613679D01*
X1063416Y614101D01*
X1063645Y614652D01*
Y615249D01*
X1063416Y615800D01*
X1062994Y616222D01*
X1062443Y616451D01*
D02*
G37*
G36*
X1033957Y625226D02*
X1033071D01*
X1032727Y625084D01*
X1032585Y624740D01*
Y617752D01*
X1032727Y617408D01*
X1032993Y617298D01*
Y616765D01*
X1033047Y616492D01*
X1033202Y616260D01*
X1034584Y614878D01*
X1034815Y614723D01*
X1035088Y614669D01*
X1035882D01*
X1035921Y614609D01*
Y614013D01*
X1036150Y613461D01*
X1036572Y613039D01*
X1037123Y612811D01*
X1037720D01*
X1038271Y613039D01*
X1038693Y613461D01*
X1038921Y614013D01*
Y614609D01*
X1038693Y615161D01*
X1038271Y615583D01*
X1037720Y615811D01*
X1037123D01*
X1036931Y615731D01*
X1036775Y615887D01*
X1036543Y616042D01*
X1036270Y616097D01*
X1035384D01*
X1034420Y617061D01*
Y617695D01*
D01*
X1034443Y617752D01*
Y624740D01*
X1034301Y625084D01*
X1033957Y625226D01*
D02*
G37*
%LPD*%
G36*
X1072425Y657113D02*
X1072369Y656977D01*
Y656380D01*
X1072597Y655829D01*
X1072742Y655684D01*
X1072759Y655605D01*
X1072651Y655068D01*
X1072618Y655046D01*
X1072369Y654797D01*
X1051588D01*
X1051315Y654743D01*
X1051083Y654588D01*
X1045189Y648694D01*
X1045035Y648463D01*
X1044981Y648189D01*
Y645535D01*
X1042852Y643407D01*
X1042697Y643175D01*
X1042656Y642969D01*
X1042156Y643019D01*
Y647564D01*
X1052532Y657939D01*
X1071599D01*
X1072425Y657113D01*
D02*
G37*
G36*
X1067449Y642429D02*
X1067326Y641845D01*
X1067069Y641739D01*
X1066647Y641317D01*
X1066419Y640765D01*
Y640169D01*
X1066647Y639617D01*
X1067069Y639195D01*
X1067620Y638967D01*
X1067963D01*
Y633057D01*
X1060089D01*
Y642399D01*
X1060506Y642571D01*
X1060928Y642993D01*
X1061156Y643545D01*
Y643967D01*
X1062057Y644868D01*
X1065010D01*
X1067449Y642429D01*
D02*
G37*
G36*
X1032530Y633057D02*
X1028593Y629120D01*
Y628135D01*
X1021703D01*
Y636010D01*
X1026624Y640931D01*
X1032530D01*
Y633057D01*
D02*
G37*
G36*
X1069400Y640694D02*
Y639074D01*
X1069455Y638800D01*
X1069609Y638569D01*
X1074148Y634030D01*
Y631663D01*
X1074203Y631390D01*
X1074357Y631158D01*
X1078582Y626933D01*
X1078526Y626797D01*
Y626201D01*
X1078754Y625649D01*
X1079176Y625227D01*
X1079300Y625176D01*
X1079292Y624638D01*
X1078924Y624486D01*
X1078502Y624064D01*
X1078446Y623928D01*
X1074164D01*
X1069429Y628663D01*
X1069198Y628818D01*
X1068925Y628872D01*
X1063725D01*
X1062282Y630315D01*
X1062415Y630449D01*
X1062644Y631000D01*
Y631597D01*
X1062415Y632148D01*
X1062647Y632624D01*
X1067963D01*
X1068269Y632751D01*
X1068396Y633057D01*
Y638967D01*
X1068269Y639273D01*
X1067963Y639400D01*
X1067706D01*
X1067314Y639563D01*
X1067014Y639863D01*
X1066852Y640255D01*
Y640679D01*
X1067014Y641072D01*
X1067314Y641372D01*
X1067491Y641445D01*
X1067521Y641475D01*
X1067562Y641482D01*
X1067635Y641588D01*
X1067717Y641670D01*
X1067733Y641685D01*
X1067817Y641747D01*
X1068231Y641863D01*
X1069400Y640694D01*
D02*
G37*
G36*
X1096624Y619453D02*
X1096432Y618991D01*
X1089928D01*
X1085200Y623719D01*
X1084968Y623874D01*
X1084695Y623928D01*
X1081102D01*
X1081046Y624064D01*
X1080624Y624486D01*
X1080500Y624537D01*
X1080508Y625075D01*
X1080875Y625227D01*
X1081297Y625649D01*
X1081354Y625785D01*
X1086053D01*
X1086361Y625285D01*
X1086241Y624997D01*
Y624401D01*
X1086470Y623849D01*
X1086892Y623427D01*
X1087443Y623199D01*
X1088040D01*
X1088591Y623427D01*
X1089013Y623849D01*
X1089241Y624401D01*
Y624997D01*
X1089122Y625285D01*
X1089430Y625785D01*
X1090291D01*
X1096624Y619453D01*
D02*
G37*
D12*
X1053701Y646383D02*
X1056275Y648957D01*
X1053199Y641772D02*
X1053701Y642274D01*
X1053199Y636994D02*
Y641772D01*
X1053701Y642274D02*
Y646383D01*
X1052390Y647096D02*
X1055706Y650412D01*
X1051231Y641915D02*
X1052390Y643074D01*
Y647096D01*
X1051231Y636994D02*
Y641915D01*
X1074862Y631663D02*
Y634326D01*
X1070114Y639074D02*
Y640989D01*
Y639074D02*
X1074862Y634326D01*
X1071149Y639601D02*
X1076071Y634679D01*
X1071149Y639601D02*
Y641506D01*
X1076071Y632728D02*
Y634679D01*
X1072363Y639949D02*
Y641765D01*
X1077184Y633707D02*
Y635129D01*
X1072363Y639949D02*
X1077184Y635129D01*
X1076071Y632728D02*
X1079722Y629076D01*
X1077184Y633707D02*
X1079572Y631318D01*
X1055706Y650412D02*
X1063716D01*
X1072363Y641765D01*
X1063699Y648957D02*
X1071149Y641506D01*
X1056275Y648957D02*
X1063699D01*
X1065460Y645643D02*
X1070114Y640989D01*
X1058911Y645643D02*
X1065460D01*
X1079572Y631318D02*
X1087070D01*
X1087244Y631492D01*
X1091541Y635790D01*
X1079722Y629076D02*
X1084799D01*
X1074862Y631663D02*
X1080026Y626499D01*
X1051523Y659924D02*
X1074182D01*
X1039420Y647821D02*
X1051523Y659924D01*
X1074182D02*
X1075459Y658647D01*
X1147945Y626326D02*
X1148770Y627151D01*
X1120758Y618277D02*
X1126480Y623999D01*
X1132151D02*
X1138994Y617156D01*
X1126480Y623999D02*
X1132151D01*
X1132606Y625180D02*
X1139631Y618156D01*
X1126247Y625180D02*
X1132606D01*
X1120344Y619277D02*
X1126247Y625180D01*
X1125896Y626243D02*
X1132958D01*
X1139854Y619347D01*
X1119930Y620277D02*
X1125896Y626243D01*
X1091541Y635790D02*
X1102365D01*
X1084842Y629120D02*
X1089616D01*
X1084799Y629076D02*
X1084842Y629120D01*
X1089616D02*
X1098459Y620277D01*
X1019537Y629907D02*
Y639201D01*
X1017711Y641027D02*
X1019537Y639201D01*
X1035088Y615383D02*
X1036270D01*
X1033706Y616765D02*
Y621054D01*
Y616765D02*
X1035088Y615383D01*
X1037342Y614311D02*
X1037421D01*
X1036270Y615383D02*
X1037342Y614311D01*
X1033514Y621246D02*
X1033706Y621054D01*
X1090587Y626499D02*
X1097809Y619277D01*
X1080026Y626499D02*
X1090587D01*
X1049454Y621438D02*
Y625485D01*
X1050077Y626107D01*
X1049262Y621246D02*
X1049454Y621438D01*
X1050077Y626107D02*
Y626540D01*
X1054420Y631150D02*
Y631227D01*
X1057136Y633943D01*
X1039420Y629342D02*
X1041950Y631872D01*
X1042157D01*
X1039420Y621246D02*
Y629342D01*
X1152285Y642266D02*
X1153101Y641450D01*
Y628627D02*
Y641450D01*
X1152285Y642266D02*
Y642602D01*
X1160487Y629804D02*
Y633052D01*
X1157530Y636010D02*
X1160487Y633052D01*
X1174249Y623050D02*
Y623386D01*
X1171546Y620347D02*
X1174249Y623050D01*
X1148770Y627151D02*
X1150045Y625876D01*
X1147020Y684796D02*
X1159085D01*
X1144038Y681814D02*
X1147020Y684796D01*
X1159085D02*
X1167517Y676364D01*
X1144038Y675306D02*
Y681814D01*
X1148186Y681400D02*
X1151859D01*
X1160832Y672427D01*
X1102365Y635790D02*
X1105799Y639224D01*
Y650645D01*
X1131374Y671362D02*
X1139847D01*
X1144038Y675553D01*
X1160832Y672427D02*
X1176231D01*
X1120195Y660183D02*
X1131374Y671362D01*
X1115336Y660183D02*
X1120195D01*
X1105799Y650645D02*
X1115336Y660183D01*
X1167517Y676364D02*
X1191979D01*
X1079774Y623214D02*
X1084695D01*
X1089632Y618277D02*
X1120758D01*
X1084695Y623214D02*
X1089632Y618277D01*
X1097809Y619277D02*
X1120344D01*
X1098459Y620277D02*
X1119930D01*
X1047243Y629417D02*
Y636943D01*
X1047294Y636994D01*
X1047193Y629367D02*
X1047243Y629417D01*
X1059109Y632919D02*
X1060729Y631299D01*
X1061144D01*
X1059109Y632919D02*
Y636989D01*
X1059105Y636994D02*
X1059109Y636989D01*
X1061450Y630138D02*
X1063430Y628158D01*
X1061450Y630138D02*
Y630993D01*
X1063430Y628158D02*
X1068925D01*
X1073868Y623214D01*
X1079774D01*
X1150045Y625275D02*
X1150878Y624442D01*
X1153073D02*
X1157168Y620347D01*
X1150878Y624442D02*
X1153073D01*
X1150045Y625275D02*
Y625876D01*
X1157168Y620347D02*
X1171546D01*
X1139854Y619347D02*
X1171960D01*
X1173781Y618156D02*
X1194001Y638376D01*
X1139631Y618156D02*
X1173781D01*
X1171960Y619347D02*
X1171966Y619353D01*
X1173080D02*
X1191979Y638252D01*
X1171966Y619353D02*
X1173080D01*
X1138994Y617156D02*
X1174527D01*
X1195320Y637949D01*
Y654795D01*
X1194001Y638376D02*
Y660670D01*
X1191979Y638252D02*
Y664553D01*
X1196226Y655700D02*
Y655946D01*
X1195320Y654795D02*
X1196226Y655700D01*
X1194833Y679752D02*
X1196274Y681193D01*
X1194833Y661501D02*
Y679752D01*
X1194001Y660670D02*
X1194833Y661501D01*
X1184105Y664553D02*
X1191979D01*
X1176231Y672427D02*
X1184105Y664553D01*
X1041443Y647859D02*
X1052236Y658653D01*
X1071894D01*
X1073868Y656679D01*
X1051588Y654083D02*
X1072665D01*
X1073123Y654542D01*
X1045694Y648189D02*
X1051588Y654083D01*
X1075669Y654542D02*
X1075837Y654710D01*
X1073123Y654542D02*
X1075669D01*
X1075459Y658647D02*
X1075837D01*
X1010876Y671209D02*
Y689595D01*
X1007937Y668270D02*
X1010876Y671209D01*
X1007937Y661997D02*
Y668270D01*
Y661997D02*
X1009496Y660438D01*
X1006558Y693913D02*
X1010876Y689595D01*
X1049262Y631455D02*
Y636994D01*
X1050073Y630211D02*
Y630644D01*
X1049262Y631455D02*
X1050073Y630644D01*
X1057136Y633943D02*
Y636994D01*
X1031045Y628449D02*
Y630081D01*
X1033514Y632550D02*
Y636994D01*
X1031045Y630081D02*
X1033514Y632550D01*
X1047243Y621296D02*
X1047294Y621246D01*
X1047243Y621296D02*
Y626399D01*
X1047192Y626449D02*
X1047243Y626399D01*
X1037519Y626645D02*
X1037586Y626713D01*
X1037451Y621246D02*
X1037519Y621313D01*
Y626645D01*
X1035483Y631503D02*
Y636994D01*
X1034695Y630715D02*
X1035483Y631503D01*
X1034695Y630282D02*
Y630715D01*
X1037518Y631236D02*
Y636927D01*
Y631236D02*
X1037584Y631170D01*
X1037451Y636994D02*
X1037518Y636927D01*
X1153101Y628529D02*
Y628627D01*
X1160487Y629804D02*
X1161762Y628529D01*
X1169341Y629612D02*
X1170424Y628529D01*
X1169341Y629612D02*
Y634041D01*
X1010317Y620686D02*
X1019537Y629907D01*
X1010317Y613701D02*
Y620686D01*
X1055168Y641900D02*
X1058911Y645643D01*
X1055168Y636994D02*
Y641900D01*
X1045325Y636994D02*
Y643171D01*
X1047006Y644852D01*
Y647533D01*
X1043357Y642902D02*
X1045694Y645240D01*
Y648189D01*
X1047006Y647533D02*
X1052215Y652742D01*
X1073868D01*
X1041388Y636994D02*
X1041443Y637048D01*
Y647859D01*
X1043357Y636994D02*
Y642902D01*
X1039420Y636994D02*
Y647821D01*
X1223475Y611403D02*
G03*
X1231349Y619277I0J7874D01*
G01*
Y719671D02*
G03*
X1223475Y727545I-7874J0D01*
G01*
X941979D02*
G03*
X934105Y719671I0J-7874D01*
G01*
Y619277D02*
G03*
X941979Y611403I7874J0D01*
G01*
X1231349Y619277D02*
Y719671D01*
X941979Y727545D02*
X1223475D01*
X941979Y611403D02*
X1223475D01*
X934105Y619277D02*
Y719671D01*
D17*
X1120079Y698952D02*
X1122199Y701073D01*
Y710362D01*
X1115241Y698952D02*
X1120079D01*
X1000744Y618496D02*
Y627151D01*
Y618496D02*
X1002924Y616315D01*
D66*
X1076260Y716886D02*
D03*
X1048760D02*
D03*
X1197642Y716886D02*
D03*
X1170142D02*
D03*
D129*
X1170295Y694267D02*
X1170325Y694237D01*
Y682269D02*
Y694237D01*
D144*
X1031553Y621253D02*
Y624829D01*
X1032622Y625898D01*
Y626223D01*
X1028531Y625871D02*
X1029569Y624833D01*
X1031546Y621246D02*
X1031553Y621253D01*
X1056671Y614178D02*
Y614502D01*
X1055168Y616005D02*
Y618202D01*
Y616005D02*
X1056671Y614502D01*
X1128253Y650970D02*
X1129971D01*
X1127817Y651406D02*
X1128253Y650970D01*
X1035475Y621253D02*
Y625382D01*
X1034910Y625947D02*
Y626272D01*
Y625947D02*
X1035475Y625382D01*
Y621253D02*
X1035483Y621246D01*
X1065010Y618210D02*
X1065018Y618202D01*
X1065902D01*
X1065010Y618210D02*
Y621246D01*
X1065902Y618202D02*
X1068055Y616050D01*
X1063042Y621246D02*
X1065010D01*
X1061073D02*
X1063042D01*
X1059105D02*
X1061073D01*
X1057136D02*
X1059105D01*
X1051807Y617287D02*
Y617634D01*
X1051231Y618210D02*
Y621246D01*
Y618210D02*
X1051807Y617634D01*
Y617287D02*
X1052163Y616931D01*
X1042292Y617335D02*
X1042616D01*
X1045317Y618202D02*
X1045325Y618210D01*
X1043483Y618202D02*
X1045317D01*
X1042616Y617335D02*
X1043483Y618202D01*
X1045325Y618210D02*
Y621246D01*
X1029569Y621253D02*
X1029577Y621246D01*
X1029569Y621253D02*
Y624833D01*
X1028531Y625871D02*
Y626196D01*
X1027617Y621253D02*
Y624957D01*
X1028531Y625871D01*
X1027609Y621246D02*
X1027617Y621253D01*
D145*
X994607Y652189D02*
X1005729Y663311D01*
Y669567D01*
X1029577Y636994D02*
X1031546D01*
X1028432Y630219D02*
X1029577Y631365D01*
Y636994D01*
X1028432Y630151D02*
Y630219D01*
X1025573Y630159D02*
Y632522D01*
X1025458Y630044D02*
X1025573Y630159D01*
X1027609Y634558D02*
Y636994D01*
X1025573Y632522D02*
X1027609Y634558D01*
D146*
X1063427Y643292D02*
Y643364D01*
Y643292D02*
X1065010Y641708D01*
X1064920D02*
X1065010D01*
X1063042Y636994D02*
Y639829D01*
X1064920Y641708D01*
X1065010Y636994D02*
Y641708D01*
X1061804Y641067D02*
X1063042Y639829D01*
X1061804Y641067D02*
Y641633D01*
X1061613Y641824D02*
X1061804Y641633D01*
X1061073Y636994D02*
X1061181Y637102D01*
Y641122D01*
X1157432Y628529D02*
X1158406Y627554D01*
X1160895Y622421D02*
X1161276D01*
X1161467Y622230D01*
X1158406Y624910D02*
Y627554D01*
Y624910D02*
X1160895Y622421D01*
D147*
X1117019Y651968D02*
Y654080D01*
X1113598Y651968D02*
X1117019D01*
Y648285D02*
Y651968D01*
Y654080D02*
X1119618Y656679D01*
X1110049Y625943D02*
X1118244Y634139D01*
X1114914Y635388D02*
X1116086Y636560D01*
X1110958Y635388D02*
X1114914D01*
X1110011Y625014D02*
X1110049Y625052D01*
X1116086Y636560D02*
Y641228D01*
X1107629Y631120D02*
Y631174D01*
X1108178Y632608D02*
X1110958Y635388D01*
X1115951Y641363D02*
X1116086Y641228D01*
X1115951Y641363D02*
Y644785D01*
X1116258Y645092D01*
Y647525D01*
X1108178Y631723D02*
Y632608D01*
X1107629Y631174D02*
X1108178Y631723D01*
X1118244Y634139D02*
X1118244D01*
X1110049Y625052D02*
Y625943D01*
X1118244Y634139D02*
X1121786Y637681D01*
Y649876D01*
X1116258Y647525D02*
X1117019Y648285D01*
X1120685Y650977D02*
X1121786Y649876D01*
X1120685Y650977D02*
Y651031D01*
X1136774Y658328D02*
X1145284D01*
X1154648Y667693D01*
X1127358Y659234D02*
X1135868D01*
X1136774Y658328D01*
X1127233Y659108D02*
X1127358Y659234D01*
X1126495Y659108D02*
X1127233D01*
X1124065Y656679D02*
X1126495Y659108D01*
X1119618Y656679D02*
X1124065D01*
X963042Y639376D02*
X981939D01*
D153*
X994607Y627151D02*
X1000744D01*
X956608D02*
X994607D01*
Y652189D01*
X1008457Y627151D02*
X1015371Y634064D01*
X1000744Y627151D02*
X1008457D01*
X987254Y656672D02*
Y670458D01*
Y656672D02*
X991737Y652189D01*
X994607D01*
X950105Y633654D02*
X956608Y627151D01*
X948146Y633654D02*
X950105D01*
X946002Y634507D02*
X947293D01*
X948146Y633654D01*
D154*
X941585Y678923D02*
D03*
X993554D02*
D03*
D155*
X943947Y717702D02*
D03*
Y621246D02*
D03*
X1221506Y717702D02*
D03*
Y621246D02*
D03*
D156*
X989498Y620675D02*
D03*
X955483D02*
D03*
D157*
X989498Y637132D02*
D03*
X955483D02*
D03*
D158*
X961113Y635163D02*
D03*
X983869D02*
D03*
D159*
X1076260Y705134D02*
D03*
X1048760D02*
D03*
X1197642Y705134D02*
D03*
X1170142D02*
D03*
D160*
X1177914Y701189D02*
D03*
X1166459Y697042D02*
D03*
X1167743Y690967D02*
D03*
X1172979Y691238D02*
D03*
X1174436Y693930D02*
D03*
X1208829Y691860D02*
D03*
X1211697Y691899D02*
D03*
X1176336Y705282D02*
D03*
X1177953Y707419D02*
D03*
X1171554Y656011D02*
D03*
X1181227Y656955D02*
D03*
X1118403Y703001D02*
D03*
X1122199Y710362D02*
D03*
X1110947Y716360D02*
D03*
X1106514Y719053D02*
D03*
X1114178Y710424D02*
D03*
X1073283Y646089D02*
D03*
X1075837Y642899D02*
D03*
X1063510Y661894D02*
D03*
X1226642Y681320D02*
D03*
X1147054Y624257D02*
D03*
X1129927Y622062D02*
D03*
X1093120Y628873D02*
D03*
X1091138Y631145D02*
D03*
X1087070Y631318D02*
D03*
X1084799Y629076D02*
D03*
X1174012Y685502D02*
D03*
X1166359Y685615D02*
D03*
X1166999Y679975D02*
D03*
X1166410Y683095D02*
D03*
X1135850Y701889D02*
D03*
X1129971Y699986D02*
D03*
X1058121Y685222D02*
D03*
X1049262D02*
D03*
X1003002Y670458D02*
D03*
X1007564Y671444D02*
D03*
X1009892Y663568D02*
D03*
X1009747Y667515D02*
D03*
X1011847Y659157D02*
D03*
X1010876Y636994D02*
D03*
X1022754Y647654D02*
D03*
X1017711Y641027D02*
D03*
X1024042Y645245D02*
D03*
X1031045Y628449D02*
D03*
X1037421Y614311D02*
D03*
X1111859Y638396D02*
D03*
X1112825Y642013D02*
D03*
X1111129Y648352D02*
D03*
X1113727Y648242D02*
D03*
X1112017Y644485D02*
D03*
X1112989Y632888D02*
D03*
X1097794Y633471D02*
D03*
X1095207Y631742D02*
D03*
X1087741Y624699D02*
D03*
X1110011Y625014D02*
D03*
X1107629Y631120D02*
D03*
X1110678Y631572D02*
D03*
X1118892Y629470D02*
D03*
X1116700Y627844D02*
D03*
X1113598Y651968D02*
D03*
X1079482Y636340D02*
D03*
X1075837Y646836D02*
D03*
Y650773D02*
D03*
X1111095Y650956D02*
D03*
X1118451Y643750D02*
D03*
X1119286Y641287D02*
D03*
X1118586Y638536D02*
D03*
X1032622Y626223D02*
D03*
X1166936Y674227D02*
D03*
X1127185Y724302D02*
D03*
X989883Y645162D02*
D03*
X977463Y644155D02*
D03*
X983546Y648377D02*
D03*
X964616Y646836D02*
D03*
X953380Y646820D02*
D03*
X960811Y676002D02*
D03*
X963581Y667844D02*
D03*
X958498Y689363D02*
D03*
X1005029Y676009D02*
D03*
X1001202Y675194D02*
D03*
X1061983Y700488D02*
D03*
X1133747Y674963D02*
D03*
X1125898Y674959D02*
D03*
X1116071Y674296D02*
D03*
X1106606Y674405D02*
D03*
X1106505Y677391D02*
D03*
X1155505Y674413D02*
D03*
X1155735Y681398D02*
D03*
X1116520Y682152D02*
D03*
X943947Y646836D02*
D03*
X1135910Y676794D02*
D03*
X1128957Y676688D02*
D03*
X1106926Y722588D02*
D03*
X1139842Y715839D02*
D03*
X1139806Y701956D02*
D03*
X1121113Y716219D02*
D03*
X1125063Y716335D02*
D03*
X940010Y641915D02*
D03*
X984154Y661708D02*
D03*
X987198Y675968D02*
D03*
X944932Y682269D02*
D03*
X945837Y674579D02*
D03*
X1019211Y698031D02*
D03*
X945411Y662370D02*
D03*
X1056671Y614178D02*
D03*
X1049075Y615388D02*
D03*
X1050077Y626540D02*
D03*
X1054420Y631150D02*
D03*
X1042157Y631872D02*
D03*
X1157530Y636010D02*
D03*
X1174249Y623386D02*
D03*
X1148186Y681400D02*
D03*
X1144038Y675306D02*
D03*
X1114787Y724278D02*
D03*
X1087262Y682614D02*
D03*
X1120685Y651031D02*
D03*
X1041383Y700308D02*
D03*
X1074950Y682517D02*
D03*
X1074669Y677379D02*
D03*
X1020284Y681595D02*
D03*
X1185089Y650773D02*
D03*
X994144Y659631D02*
D03*
X993414Y683542D02*
D03*
X985145Y705037D02*
D03*
X1104634Y681598D02*
D03*
X1092419Y680768D02*
D03*
X1081697Y673997D02*
D03*
X1081764Y680835D02*
D03*
X1071872Y675225D02*
D03*
X1078462Y668124D02*
D03*
X1072033Y667899D02*
D03*
X1092071Y669654D02*
D03*
X1112754Y662275D02*
D03*
X1115489Y663258D02*
D03*
X1121410Y664118D02*
D03*
X1179565Y683378D02*
D03*
X1179751Y678848D02*
D03*
X1180116Y672963D02*
D03*
X1166063Y662229D02*
D03*
X1170403Y662189D02*
D03*
X1160790Y657849D02*
D03*
X1154074Y656353D02*
D03*
X1162565Y635902D02*
D03*
X1166846Y639231D02*
D03*
X1158007Y639134D02*
D03*
X1166798Y643239D02*
D03*
X1158103D02*
D03*
X1128394Y656734D02*
D03*
X1138682Y674022D02*
D03*
X1140466Y677444D02*
D03*
X1129883Y674164D02*
D03*
X1132250Y677225D02*
D03*
X1173343Y679972D02*
D03*
X1174062Y682762D02*
D03*
X1166113Y694078D02*
D03*
X951821Y621246D02*
D03*
X936073D02*
D03*
X943947Y629120D02*
D03*
Y613372D02*
D03*
X938042Y626167D02*
D03*
X949403Y626876D02*
D03*
X938374Y615847D02*
D03*
X949789Y615957D02*
D03*
X1229380Y621246D02*
D03*
X1213632D02*
D03*
X1221506Y629120D02*
D03*
Y613372D02*
D03*
X1215601Y626167D02*
D03*
X1226962Y626876D02*
D03*
X1215933Y615847D02*
D03*
X1227348Y615957D02*
D03*
X1229380Y717702D02*
D03*
X1213632D02*
D03*
X1221506Y725576D02*
D03*
Y709828D02*
D03*
X1215601Y722624D02*
D03*
X1226962Y723333D02*
D03*
X1215933Y712304D02*
D03*
X1227348Y712414D02*
D03*
X949789D02*
D03*
X938374Y712304D02*
D03*
X949403Y723333D02*
D03*
X938042Y722624D02*
D03*
X943947Y709828D02*
D03*
Y725576D02*
D03*
X936073Y717702D02*
D03*
X951821D02*
D03*
X1001232Y725347D02*
D03*
X987138Y725243D02*
D03*
X971897Y724825D02*
D03*
X956742Y724592D02*
D03*
X1091203Y620202D02*
D03*
X1084272Y620606D02*
D03*
X1119975Y625394D02*
D03*
X1122237Y629446D02*
D03*
X1122239Y626907D02*
D03*
X1139593Y625519D02*
D03*
X1140254Y631001D02*
D03*
X1140391Y633572D02*
D03*
X1140529Y636464D02*
D03*
X1140668Y642518D02*
D03*
X1134496Y641634D02*
D03*
X1138211Y642145D02*
D03*
X1138858Y644514D02*
D03*
X1140724Y646491D02*
D03*
X1140877Y649141D02*
D03*
X1140765Y653637D02*
D03*
X1127995Y664333D02*
D03*
X1131686Y664275D02*
D03*
X1138161Y664245D02*
D03*
X1138337Y661169D02*
D03*
X1135612Y662429D02*
D03*
X1133298Y662370D02*
D03*
X1129753Y662224D02*
D03*
X1126559Y661608D02*
D03*
X1130895Y656598D02*
D03*
X1137845Y654710D02*
D03*
X1134352Y655251D02*
D03*
X1067919Y640467D02*
D03*
X1063427Y643364D02*
D03*
X1068006Y618707D02*
D03*
X1065099Y615914D02*
D03*
X1004676Y713470D02*
D03*
X1013278Y716056D02*
D03*
X1013140Y707402D02*
D03*
X973703Y668811D02*
D03*
X973457Y678788D02*
D03*
X985080Y678723D02*
D03*
X981952Y678338D02*
D03*
X944808Y670834D02*
D03*
X946266Y665877D02*
D03*
X962998Y657613D02*
D03*
X972094Y657206D02*
D03*
X979993Y657137D02*
D03*
X990553Y661947D02*
D03*
X990452Y664733D02*
D03*
X988511Y679075D02*
D03*
Y683600D02*
D03*
X988840Y686921D02*
D03*
X988694Y691665D02*
D03*
X988915Y695896D02*
D03*
X988888Y700190D02*
D03*
X984404Y700488D02*
D03*
X978921Y700433D02*
D03*
X973573Y700217D02*
D03*
X967901Y700190D02*
D03*
X963688Y699947D02*
D03*
X946093Y700278D02*
D03*
X946147Y693077D02*
D03*
X946013Y688633D02*
D03*
X1022887Y629981D02*
D03*
X950359Y660456D02*
D03*
X1134120Y645011D02*
D03*
X973475Y618293D02*
D03*
X1062145Y614951D02*
D03*
X975297Y660638D02*
D03*
X967469Y690862D02*
D03*
X965228Y690837D02*
D03*
X967220Y693153D02*
D03*
X965228Y693103D02*
D03*
X967220Y694995D02*
D03*
X965378Y695070D02*
D03*
X949206Y700135D02*
D03*
X953499Y697074D02*
D03*
X957942Y699989D02*
D03*
X960746Y697476D02*
D03*
X954457Y694367D02*
D03*
X949685Y693002D02*
D03*
X954378Y691725D02*
D03*
X960599Y682212D02*
D03*
X960616Y684875D02*
D03*
X961083Y687555D02*
D03*
X970545Y670072D02*
D03*
X965243Y675975D02*
D03*
X987234Y667903D02*
D03*
X987254Y670458D02*
D03*
X956349Y660616D02*
D03*
X951821Y658647D02*
D03*
X948898Y658592D02*
D03*
X1044807Y723693D02*
D03*
X1052595D02*
D03*
X1048754Y720279D02*
D03*
X1044860Y709931D02*
D03*
X1052628Y710035D02*
D03*
X1072379Y723530D02*
D03*
X1079912Y723849D02*
D03*
X1076260Y717709D02*
D03*
X1072379Y709932D02*
D03*
X1079848Y710315D02*
D03*
X1050697Y700475D02*
D03*
X1055501Y703083D02*
D03*
Y706762D02*
D03*
X1201683Y723985D02*
D03*
X1193823Y723822D02*
D03*
X1197642Y716886D02*
D03*
X1193758Y710157D02*
D03*
X1201520Y710026D02*
D03*
X1173965Y710128D02*
D03*
X1166299Y710171D02*
D03*
X1170142Y716886D02*
D03*
X1166342Y723478D02*
D03*
X1173749Y723564D02*
D03*
X987254Y650773D02*
D03*
X1067963Y656679D02*
D03*
X1117176Y625183D02*
D03*
X1058412Y630328D02*
D03*
X992650Y655660D02*
D03*
X1067796Y662753D02*
D03*
X1068329Y669472D02*
D03*
X1068131Y675857D02*
D03*
X1068159Y682080D02*
D03*
X1137545Y615172D02*
D03*
X1143614D02*
D03*
X1151766D02*
D03*
X1158817D02*
D03*
X1166730Y615201D02*
D03*
X1173507D02*
D03*
X1170791Y622791D02*
D03*
X1068247Y631382D02*
D03*
X1086632Y689496D02*
D03*
X1080916Y689463D02*
D03*
X1070499Y688143D02*
D03*
X1072798Y616303D02*
D03*
X1078788Y615988D02*
D03*
X1084120Y615714D02*
D03*
X1089686Y615675D02*
D03*
X1094360Y615797D02*
D03*
X1099782Y615836D02*
D03*
X1105547Y615945D02*
D03*
X1110981Y615673D02*
D03*
X1116220Y615828D02*
D03*
X1130061Y616013D02*
D03*
X1123303Y615936D02*
D03*
X1127088Y615897D02*
D03*
X1132494Y616051D02*
D03*
X1180758Y616852D02*
D03*
X1185800Y623537D02*
D03*
X1185654Y634907D02*
D03*
X1185393Y644630D02*
D03*
X1185803Y656395D02*
D03*
X1185618Y668267D02*
D03*
X1185563Y678391D02*
D03*
X1185514Y685083D02*
D03*
X1177998Y688899D02*
D03*
X1165168Y688861D02*
D03*
X1155696Y689352D02*
D03*
X1144499Y689324D02*
D03*
X1135344Y689217D02*
D03*
X1127216Y689596D02*
D03*
X1121747Y689444D02*
D03*
X1115822Y689672D02*
D03*
X1105567Y689520D02*
D03*
X1098578Y689368D02*
D03*
X1093261Y689596D02*
D03*
X959906Y652960D02*
D03*
X965070Y653002D02*
D03*
X951610Y653045D02*
D03*
X944799Y704306D02*
D03*
X941722Y700844D02*
D03*
X941595Y692706D02*
D03*
X941545Y686437D02*
D03*
X941512Y674841D02*
D03*
X941413Y668801D02*
D03*
X942552Y654693D02*
D03*
X970665Y652701D02*
D03*
X976029Y652972D02*
D03*
X982043Y652917D02*
D03*
X993593Y664483D02*
D03*
Y669879D02*
D03*
X993642Y674687D02*
D03*
X993624Y689684D02*
D03*
X989987Y703878D02*
D03*
X976028Y704700D02*
D03*
X967112Y704876D02*
D03*
X958138Y704993D02*
D03*
X1128526Y631963D02*
D03*
X1128370Y629168D02*
D03*
X1125050Y629120D02*
D03*
X1034910Y626272D02*
D03*
X1133606Y631961D02*
D03*
X1136876Y631932D02*
D03*
X1135329Y630735D02*
D03*
X1137022Y629392D02*
D03*
X1133460Y629363D02*
D03*
X1124936Y632078D02*
D03*
X1126658Y630560D02*
D03*
X1132178Y641731D02*
D03*
X1126344Y649609D02*
D03*
X1127817Y651406D02*
D03*
X1124942Y651442D02*
D03*
X1131879Y646266D02*
D03*
X1068055Y616050D02*
D03*
X1052163Y616931D02*
D03*
X1042292Y617335D02*
D03*
X1028531Y626196D02*
D03*
X1136861Y625183D02*
D03*
X1166199Y630285D02*
D03*
X1043764Y646221D02*
D03*
X1161558Y670580D02*
D03*
X985255Y652863D02*
D03*
X993669Y696488D02*
D03*
X941756Y661167D02*
D03*
X949641Y705090D02*
D03*
X1057100Y646589D02*
D03*
X991739Y614305D02*
D03*
X1032792Y613842D02*
D03*
X1044557Y613669D02*
D03*
X1123877Y660682D02*
D03*
X1151102Y622303D02*
D03*
X1060487Y692357D02*
D03*
X1048773Y695459D02*
D03*
X1004971Y631088D02*
D03*
X1019325Y694026D02*
D03*
X1029041Y698052D02*
D03*
X1226771Y666100D02*
D03*
X1226604Y660986D02*
D03*
Y655927D02*
D03*
X1226544Y646279D02*
D03*
X1226665Y636188D02*
D03*
X1043522Y706830D02*
D03*
X1024426Y707230D02*
D03*
X1024448Y716363D02*
D03*
X1072598Y633660D02*
D03*
X1121026Y631535D02*
D03*
X985089Y639376D02*
D03*
X959892D02*
D03*
X1059656Y643843D02*
D03*
X1150640Y652742D02*
D03*
Y656679D02*
D03*
X1108679Y681581D02*
D03*
X1090867Y684084D02*
D03*
X1092316Y673784D02*
D03*
X1087648Y711797D02*
D03*
Y717702D02*
D03*
X1088731Y714750D02*
D03*
X1101428Y711797D02*
D03*
X1100345Y714750D02*
D03*
X1101428Y717702D02*
D03*
X1129066Y705632D02*
D03*
X1133150Y709821D02*
D03*
X1208646Y703612D02*
D03*
X1211697Y703513D02*
D03*
X1214551Y703612D02*
D03*
Y691800D02*
D03*
X1179519Y642408D02*
D03*
X1181152Y660616D02*
D03*
Y664553D02*
D03*
X1148183Y670396D02*
D03*
X1061613Y641824D02*
D03*
X1142129Y622255D02*
D03*
X1049082Y646246D02*
D03*
X1014579Y616272D02*
D03*
X1025422Y616181D02*
D03*
X1179587Y634562D02*
D03*
X1118993Y724394D02*
D03*
X1007975Y680740D02*
D03*
X1007924Y683253D02*
D03*
X1007998Y685612D02*
D03*
X1191032Y667413D02*
D03*
X1010315Y698055D02*
D03*
X1016398Y671304D02*
D03*
X1018141Y667550D02*
D03*
X1174261Y667326D02*
D03*
X1161467Y622230D02*
D03*
X1178199Y645852D02*
D03*
X948146Y633654D02*
D03*
X946002Y634507D02*
D03*
X962109Y631088D02*
D03*
X1018712Y650858D02*
D03*
X1080026Y626499D02*
D03*
X1047193Y629367D02*
D03*
X1061144Y631299D02*
D03*
X1196226Y655946D02*
D03*
X1191979Y676364D02*
D03*
Y664553D02*
D03*
X999072Y683911D02*
D03*
X998277Y678301D02*
D03*
X1073868Y656679D02*
D03*
X1075837Y658647D02*
D03*
X1015621Y691361D02*
D03*
X1050073Y630211D02*
D03*
X1022687Y660616D02*
D03*
X1044310Y627615D02*
D03*
X1134704Y651399D02*
D03*
X1134969Y637860D02*
D03*
X1079774Y623214D02*
D03*
X1025458Y630044D02*
D03*
X1028432Y630151D02*
D03*
X1034695Y630282D02*
D03*
X1047192Y626449D02*
D03*
X1037586Y626713D02*
D03*
X1009496Y660438D02*
D03*
X1005557Y659886D02*
D03*
X1037584Y631170D02*
D03*
X1153101Y628627D02*
D03*
X1131570Y716317D02*
D03*
X1072630Y662031D02*
D03*
X981939Y639376D02*
D03*
X963042D02*
D03*
X1170295Y694267D02*
D03*
X1034336Y643346D02*
D03*
X1029493Y643119D02*
D03*
X1002924Y616315D02*
D03*
X1010317Y613701D02*
D03*
X1160483Y678332D02*
D03*
Y676364D02*
D03*
X1162451D02*
D03*
X1092594Y667028D02*
D03*
X1135848Y715488D02*
D03*
X1117976Y715955D02*
D03*
X1132715Y706199D02*
D03*
X1105443Y711707D02*
D03*
X1105609Y714904D02*
D03*
X1014366Y659960D02*
D03*
X1015371Y634064D02*
D03*
X1005729Y669567D02*
D03*
X1154648Y667693D02*
D03*
X1170325Y682269D02*
D03*
X1190979Y671511D02*
D03*
X1196274Y681193D02*
D03*
X999235Y686580D02*
D03*
X999409Y689545D02*
D03*
X1006558Y693913D02*
D03*
X1032991Y715909D02*
D03*
X1004971Y644868D02*
D03*
X1012845D02*
D03*
Y650773D02*
D03*
X1004971D02*
D03*
X1008908Y647821D02*
D03*
X1091585Y640931D02*
D03*
X1085680D02*
D03*
Y646836D02*
D03*
X1091585D02*
D03*
X1103396Y640931D02*
D03*
X1097491D02*
D03*
X1103396Y646836D02*
D03*
X1097491D02*
D03*
X1103396Y652742D02*
D03*
X1097491D02*
D03*
Y658647D02*
D03*
X1103396D02*
D03*
X1091585Y652742D02*
D03*
X1085680D02*
D03*
X1091585Y658647D02*
D03*
X1085680D02*
D03*
X1094538Y649986D02*
D03*
X1081742Y666521D02*
D03*
X1079774Y664553D02*
D03*
X1075837Y654710D02*
D03*
X1073868Y652742D02*
D03*
Y648805D02*
D03*
X1163384Y650568D02*
D03*
X1163430Y653522D02*
D03*
X1102301Y679323D02*
D03*
X1115241Y698952D02*
D03*
X1113261Y704606D02*
D03*
X1152285Y642602D02*
D03*
X1169341Y634041D02*
D03*
X1162451Y678332D02*
D03*
X1122206Y673956D02*
D03*
D161*
X1075837Y642899D02*
X1077806D01*
X1079774Y644868D01*
X1074804Y662031D02*
Y677244D01*
X1102138Y679323D02*
X1102301D01*
X1100195Y677379D02*
X1102138Y679323D01*
X1074669Y677379D02*
X1100195D01*
X1074804Y662031D02*
X1076978D01*
X1072630D02*
X1074804D01*
X1076978D02*
X1079774Y659235D01*
Y644868D02*
Y659235D01*
D162*
X1027609Y621246D02*
D03*
X1031546D02*
D03*
X1035483D02*
D03*
X1033514D02*
D03*
X1039420D02*
D03*
X1043357D02*
D03*
X1041388D02*
D03*
X1047294D02*
D03*
X1051231D02*
D03*
X1053199D02*
D03*
X1049262D02*
D03*
X1055168D02*
D03*
X1061073D02*
D03*
X1063042D02*
D03*
X1065010D02*
D03*
X1027609Y636994D02*
D03*
X1031546D02*
D03*
X1035483D02*
D03*
X1033514D02*
D03*
X1039420D02*
D03*
X1043357D02*
D03*
X1041388D02*
D03*
X1047294D02*
D03*
X1051231D02*
D03*
X1053199D02*
D03*
X1049262D02*
D03*
X1055168D02*
D03*
X1029577Y621246D02*
D03*
X1037451D02*
D03*
X1045325D02*
D03*
X1029577Y636994D02*
D03*
X1037451D02*
D03*
X1045325D02*
D03*
X1057136D02*
D03*
X1059105D02*
D03*
X1061073D02*
D03*
X1063042D02*
D03*
X1065010D02*
D03*
X1057136Y621246D02*
D03*
X1059105D02*
D03*
D163*
X1129971Y618293D02*
D03*
X1184105D02*
D03*
X1129971Y650970D02*
D03*
X1184105D02*
D03*
D164*
X1174754Y628529D02*
D03*
X1170424D02*
D03*
X1166093D02*
D03*
X1161762D02*
D03*
X1157432D02*
D03*
X1153101D02*
D03*
X1148770D02*
D03*
X1144439D02*
D03*
D165*
X1147945Y625338D02*
Y626326D01*
X1147054Y624446D02*
X1147945Y625338D01*
X1147054Y624257D02*
Y624446D01*
X1147945Y626326D02*
Y627704D01*
X1148770Y628529D01*
M02*
