G04*
G04 #@! TF.GenerationSoftware,Altium Limited,Altium Designer,23.0.1 (38)*
G04*
G04 Layer_Color=32896*
%FSLAX25Y25*%
%MOIN*%
G70*
G04*
G04 #@! TF.SameCoordinates,19342238-8E0C-4B0D-84B5-E67248FCF62E*
G04*
G04*
G04 #@! TF.FilePolarity,Positive*
G04*
G01*
G75*
%ADD10C,0.00787*%
%ADD12C,0.00600*%
G36*
X1104797Y693055D02*
X1105087Y692648D01*
X1101344Y674381D01*
X1081239Y678270D01*
X1080972Y678693D01*
X1085370Y695588D01*
X1104797Y693055D01*
D02*
G37*
G36*
X1036565Y674242D02*
Y674225D01*
Y669956D01*
X1035809D01*
Y670645D01*
X1035792D01*
Y670611D01*
X1035775D01*
Y670594D01*
X1035759D01*
Y670561D01*
X1035742D01*
Y670544D01*
X1035725D01*
Y670527D01*
X1035708D01*
Y670493D01*
X1035691D01*
Y670477D01*
X1035675D01*
Y670460D01*
X1035658D01*
Y670443D01*
X1035641D01*
Y670409D01*
X1035624D01*
Y670393D01*
X1035607D01*
Y670376D01*
X1035591D01*
Y670359D01*
X1035574D01*
Y670342D01*
X1035557D01*
Y670325D01*
X1035540D01*
Y670309D01*
X1035523D01*
Y670292D01*
X1035507D01*
Y670275D01*
X1035490D01*
Y670258D01*
X1035456D01*
Y670241D01*
X1035439D01*
Y670225D01*
X1035423D01*
Y670208D01*
X1035406D01*
Y670191D01*
X1035372D01*
Y670174D01*
X1035355D01*
Y670157D01*
X1035338D01*
Y670141D01*
X1035305D01*
Y670124D01*
X1035288D01*
Y670107D01*
X1035254D01*
Y670090D01*
X1035221D01*
Y670073D01*
X1035204D01*
Y670056D01*
X1035170D01*
Y670040D01*
X1035137D01*
Y670023D01*
X1035103D01*
Y670006D01*
X1035069D01*
Y669989D01*
X1035019D01*
Y669972D01*
X1034986D01*
Y669956D01*
X1034935D01*
Y669939D01*
X1034885D01*
Y669922D01*
X1034834D01*
Y669905D01*
X1034767D01*
Y669888D01*
X1034700D01*
Y669872D01*
X1034582D01*
Y669855D01*
X1034196D01*
Y669872D01*
X1034095D01*
Y669888D01*
X1034011D01*
Y669905D01*
X1033960D01*
Y669922D01*
X1033910D01*
Y669939D01*
X1033859D01*
Y669956D01*
X1033809D01*
Y669972D01*
X1033775D01*
Y669989D01*
X1033742D01*
Y670006D01*
X1033708D01*
Y670023D01*
X1033674D01*
Y670040D01*
X1033641D01*
Y670056D01*
X1033607D01*
Y670073D01*
X1033590D01*
Y670090D01*
X1033557D01*
Y670107D01*
X1033540D01*
Y670124D01*
X1033506D01*
Y670141D01*
X1033490D01*
Y670157D01*
X1033473D01*
Y670174D01*
X1033439D01*
Y670191D01*
X1033422D01*
Y670208D01*
X1033405D01*
Y670225D01*
X1033389D01*
Y670241D01*
X1033372D01*
Y670258D01*
X1033338D01*
Y670275D01*
X1033321D01*
Y670292D01*
X1033305D01*
Y670309D01*
X1033288D01*
Y670325D01*
X1033271D01*
Y670342D01*
X1033254D01*
Y670359D01*
X1033237D01*
Y670376D01*
X1033221D01*
Y670393D01*
X1033204D01*
Y670426D01*
X1033187D01*
Y670443D01*
X1033170D01*
Y670460D01*
X1033153D01*
Y670477D01*
X1033137D01*
Y670493D01*
X1033120D01*
Y670510D01*
X1033103D01*
Y670544D01*
X1033086D01*
Y670561D01*
X1033069D01*
Y670577D01*
X1033053D01*
Y670611D01*
X1033036D01*
Y670628D01*
X1033019D01*
Y670661D01*
X1033002D01*
Y670678D01*
X1032985D01*
Y670712D01*
X1032969D01*
Y670729D01*
X1032952D01*
Y670762D01*
X1032935D01*
Y670796D01*
X1032918D01*
Y670830D01*
X1032901D01*
Y670863D01*
X1032885D01*
Y670897D01*
X1032868D01*
Y670930D01*
X1032851D01*
Y670981D01*
X1032834D01*
Y671014D01*
X1032817D01*
Y671065D01*
X1032800D01*
Y671115D01*
X1032784D01*
Y671183D01*
X1032767D01*
Y671250D01*
X1032750D01*
Y671334D01*
X1032733D01*
Y671435D01*
X1032716D01*
Y671888D01*
X1032733D01*
Y672006D01*
X1032750D01*
Y672090D01*
X1032767D01*
Y672157D01*
X1032784D01*
Y672208D01*
X1032800D01*
Y672258D01*
X1032817D01*
Y672309D01*
X1032834D01*
Y672342D01*
X1032851D01*
Y672393D01*
X1032868D01*
Y672426D01*
X1032885D01*
Y672460D01*
X1032901D01*
Y672494D01*
X1032918D01*
Y672527D01*
X1032935D01*
Y672561D01*
X1032952D01*
Y672578D01*
X1032969D01*
Y672611D01*
X1032985D01*
Y672645D01*
X1033002D01*
Y672662D01*
X1033019D01*
Y672695D01*
X1033036D01*
Y672712D01*
X1033053D01*
Y672729D01*
X1033069D01*
Y672762D01*
X1033086D01*
Y672779D01*
X1033103D01*
Y672796D01*
X1033120D01*
Y672813D01*
X1033137D01*
Y672830D01*
X1033153D01*
Y672863D01*
X1033170D01*
Y672880D01*
X1033187D01*
Y672897D01*
X1033204D01*
Y672914D01*
X1033221D01*
Y672931D01*
X1033237D01*
Y672947D01*
X1033254D01*
Y672964D01*
X1033271D01*
Y672981D01*
X1033288D01*
Y672998D01*
X1033305D01*
Y673015D01*
X1033321D01*
Y673032D01*
X1033338D01*
Y673048D01*
X1033372D01*
Y673065D01*
X1033389D01*
Y673082D01*
X1033405D01*
Y673099D01*
X1033422D01*
Y673115D01*
X1033439D01*
Y673132D01*
X1033473D01*
Y673149D01*
X1033490D01*
Y673166D01*
X1033523D01*
Y673183D01*
X1033540D01*
Y673200D01*
X1033574D01*
Y673216D01*
X1033590D01*
Y673233D01*
X1033624D01*
Y673250D01*
X1033658D01*
Y673267D01*
X1033691D01*
Y673284D01*
X1033708D01*
Y673300D01*
X1033759D01*
Y673317D01*
X1033792D01*
Y673334D01*
X1033826D01*
Y673351D01*
X1033876D01*
Y673368D01*
X1033927D01*
Y673384D01*
X1033977D01*
Y673401D01*
X1034044D01*
Y673418D01*
X1034128D01*
Y673435D01*
X1034229D01*
Y673452D01*
X1034649D01*
Y673435D01*
X1034767D01*
Y673418D01*
X1034851D01*
Y673401D01*
X1034918D01*
Y673384D01*
X1034969D01*
Y673368D01*
X1035019D01*
Y673351D01*
X1035069D01*
Y673334D01*
X1035103D01*
Y673317D01*
X1035137D01*
Y673300D01*
X1035170D01*
Y673284D01*
X1035204D01*
Y673267D01*
X1035238D01*
Y673250D01*
X1035271D01*
Y673233D01*
X1035288D01*
Y673216D01*
X1035322D01*
Y673200D01*
X1035338D01*
Y673183D01*
X1035372D01*
Y673166D01*
X1035389D01*
Y673149D01*
X1035423D01*
Y673132D01*
X1035439D01*
Y673115D01*
X1035456D01*
Y673099D01*
X1035473D01*
Y673082D01*
X1035490D01*
Y673065D01*
X1035507D01*
Y673048D01*
X1035540D01*
Y673032D01*
X1035557D01*
Y673015D01*
X1035574D01*
Y672998D01*
X1035591D01*
Y672964D01*
X1035607D01*
Y672947D01*
X1035624D01*
Y672931D01*
X1035641D01*
Y672914D01*
X1035658D01*
Y672897D01*
X1035675D01*
Y672880D01*
X1035691D01*
Y672847D01*
X1035708D01*
Y672830D01*
X1035725D01*
Y672813D01*
X1035742D01*
Y672779D01*
X1035759D01*
Y672762D01*
X1035775D01*
Y672746D01*
X1035792D01*
Y672712D01*
X1035809D01*
Y675301D01*
X1036565D01*
Y674242D01*
D02*
G37*
G36*
X1040179Y673435D02*
X1040280D01*
Y673418D01*
X1040347D01*
Y673401D01*
X1040415D01*
Y673384D01*
X1040465D01*
Y673368D01*
X1040515D01*
Y673351D01*
X1040566D01*
Y673334D01*
X1040599D01*
Y673317D01*
X1040633D01*
Y673300D01*
X1040667D01*
Y673284D01*
X1040700D01*
Y673267D01*
X1040734D01*
Y673250D01*
X1040767D01*
Y673233D01*
X1040801D01*
Y673216D01*
X1040818D01*
Y673200D01*
X1040851D01*
Y673183D01*
X1040868D01*
Y673166D01*
X1040902D01*
Y673149D01*
X1040919D01*
Y673132D01*
X1040936D01*
Y673115D01*
X1040952D01*
Y673099D01*
X1040986D01*
Y673082D01*
X1041003D01*
Y673065D01*
X1041020D01*
Y673048D01*
X1041036D01*
Y673032D01*
X1041053D01*
Y673015D01*
X1041070D01*
Y672998D01*
X1041087D01*
Y672981D01*
X1041104D01*
Y672964D01*
X1041120D01*
Y672947D01*
X1041137D01*
Y672931D01*
X1041154D01*
Y672914D01*
X1041171D01*
Y672897D01*
X1041188D01*
Y672880D01*
X1041204D01*
Y672863D01*
X1041221D01*
Y672847D01*
X1041238D01*
Y672830D01*
X1041255D01*
Y672813D01*
X1041272D01*
Y672779D01*
X1041288D01*
Y672762D01*
X1041305D01*
Y672746D01*
X1041322D01*
Y672729D01*
X1041339D01*
Y672695D01*
X1041356D01*
Y672679D01*
X1041373D01*
Y672645D01*
X1041389D01*
Y672628D01*
X1041406D01*
Y672594D01*
X1041423D01*
Y672561D01*
X1041440D01*
Y672544D01*
X1041457D01*
Y672510D01*
X1041473D01*
Y672477D01*
X1041490D01*
Y672443D01*
X1041507D01*
Y672410D01*
X1041524D01*
Y672376D01*
X1041541D01*
Y672326D01*
X1041558D01*
Y672275D01*
X1041574D01*
Y672241D01*
X1041591D01*
Y672174D01*
X1041608D01*
Y672124D01*
X1041625D01*
Y672057D01*
X1041642D01*
Y671956D01*
X1041658D01*
Y671872D01*
Y671855D01*
Y671821D01*
X1041675D01*
Y671502D01*
X1041658D01*
Y671368D01*
X1041642D01*
Y671267D01*
X1041625D01*
Y671183D01*
X1041608D01*
Y671132D01*
X1041591D01*
Y671065D01*
X1041574D01*
Y671014D01*
X1041558D01*
Y670981D01*
X1041541D01*
Y670930D01*
X1041524D01*
Y670897D01*
X1041507D01*
Y670863D01*
X1041490D01*
Y670830D01*
X1041473D01*
Y670796D01*
X1041457D01*
Y670762D01*
X1041440D01*
Y670729D01*
X1041423D01*
Y670695D01*
X1041406D01*
Y670678D01*
X1041389D01*
Y670645D01*
X1041373D01*
Y670628D01*
X1041356D01*
Y670594D01*
X1041339D01*
Y670577D01*
X1041322D01*
Y670544D01*
X1041305D01*
Y670527D01*
X1041288D01*
Y670510D01*
X1041272D01*
Y670493D01*
X1041255D01*
Y670460D01*
X1041238D01*
Y670443D01*
X1041221D01*
Y670426D01*
X1041204D01*
Y670409D01*
X1041188D01*
Y670393D01*
X1041171D01*
Y670376D01*
X1041154D01*
Y670359D01*
X1041137D01*
Y670342D01*
X1041120D01*
Y670325D01*
X1041104D01*
Y670309D01*
X1041087D01*
Y670292D01*
X1041070D01*
Y670275D01*
X1041053D01*
Y670258D01*
X1041036D01*
Y670241D01*
X1041020D01*
Y670225D01*
X1040986D01*
Y670208D01*
X1040969D01*
Y670191D01*
X1040952D01*
Y670174D01*
X1040919D01*
Y670157D01*
X1040902D01*
Y670141D01*
X1040885D01*
Y670124D01*
X1040851D01*
Y670107D01*
X1040835D01*
Y670090D01*
X1040801D01*
Y670073D01*
X1040767D01*
Y670056D01*
X1040751D01*
Y670040D01*
X1040717D01*
Y670023D01*
X1040683D01*
Y670006D01*
X1040650D01*
Y669989D01*
X1040599D01*
Y669972D01*
X1040566D01*
Y669956D01*
X1040515D01*
Y669939D01*
X1040465D01*
Y669922D01*
X1040415D01*
Y669905D01*
X1040347D01*
Y669888D01*
X1040280D01*
Y669872D01*
X1040162D01*
Y669855D01*
X1039759D01*
Y669872D01*
X1039641D01*
Y669888D01*
X1039574D01*
Y669905D01*
X1039507D01*
Y669922D01*
X1039456D01*
Y669939D01*
X1039406D01*
Y669956D01*
X1039356D01*
Y669972D01*
X1039322D01*
Y669989D01*
X1039288D01*
Y670006D01*
X1039255D01*
Y670023D01*
X1039221D01*
Y670040D01*
X1039188D01*
Y670056D01*
X1039154D01*
Y670073D01*
X1039137D01*
Y670090D01*
X1039104D01*
Y670107D01*
X1039087D01*
Y670124D01*
X1039053D01*
Y670141D01*
X1039036D01*
Y670157D01*
X1039003D01*
Y670174D01*
X1038986D01*
Y670191D01*
X1038969D01*
Y670208D01*
X1038952D01*
Y670225D01*
X1038919D01*
Y670241D01*
X1038902D01*
Y670258D01*
X1038885D01*
Y670275D01*
X1038868D01*
Y670292D01*
X1038851D01*
Y670309D01*
X1038834D01*
Y670325D01*
X1038818D01*
Y670342D01*
X1038801D01*
Y670359D01*
X1038784D01*
Y670376D01*
X1038767D01*
Y670393D01*
X1038750D01*
Y670409D01*
X1038734D01*
Y670426D01*
X1038717D01*
Y670443D01*
X1038700D01*
Y670477D01*
X1038683D01*
Y670493D01*
X1038667D01*
Y670510D01*
X1038650D01*
Y670527D01*
X1038633D01*
Y670561D01*
X1038616D01*
Y670577D01*
X1038599D01*
Y670594D01*
X1038582D01*
Y669956D01*
X1037826D01*
Y673351D01*
X1038582D01*
Y672679D01*
X1038599D01*
Y672712D01*
X1038616D01*
Y672729D01*
X1038633D01*
Y672762D01*
X1038650D01*
Y672779D01*
X1038667D01*
Y672796D01*
X1038683D01*
Y672830D01*
X1038700D01*
Y672847D01*
X1038717D01*
Y672863D01*
X1038734D01*
Y672880D01*
X1038750D01*
Y672897D01*
X1038767D01*
Y672931D01*
X1038784D01*
Y672947D01*
X1038801D01*
Y672964D01*
X1038818D01*
Y672981D01*
X1038834D01*
Y672998D01*
X1038851D01*
Y673015D01*
X1038885D01*
Y673032D01*
X1038902D01*
Y673048D01*
X1038919D01*
Y673065D01*
X1038935D01*
Y673082D01*
X1038952D01*
Y673099D01*
X1038986D01*
Y673115D01*
X1039003D01*
Y673132D01*
X1039019D01*
Y673149D01*
X1039053D01*
Y673166D01*
X1039070D01*
Y673183D01*
X1039104D01*
Y673200D01*
X1039120D01*
Y673216D01*
X1039154D01*
Y673233D01*
X1039188D01*
Y673250D01*
X1039204D01*
Y673267D01*
X1039238D01*
Y673284D01*
X1039272D01*
Y673300D01*
X1039305D01*
Y673317D01*
X1039356D01*
Y673334D01*
X1039389D01*
Y673351D01*
X1039440D01*
Y673368D01*
X1039490D01*
Y673384D01*
X1039540D01*
Y673401D01*
X1039591D01*
Y673418D01*
X1039675D01*
Y673435D01*
X1039776D01*
Y673452D01*
X1040179D01*
Y673435D01*
D02*
G37*
G36*
X1127888Y690821D02*
X1128198Y690429D01*
X1125390Y671021D01*
X1102307Y674205D01*
X1102019Y674614D01*
X1105854Y692800D01*
X1127888Y690821D01*
D02*
G37*
G36*
X1044852Y672712D02*
Y672695D01*
Y669956D01*
X1042297D01*
Y670678D01*
X1044096D01*
Y675200D01*
X1044852D01*
Y672712D01*
D02*
G37*
G36*
X1030951Y673435D02*
X1031052D01*
Y673418D01*
X1031120D01*
Y673401D01*
X1031187D01*
Y673384D01*
X1031237D01*
Y673368D01*
X1031288D01*
Y673351D01*
X1031321D01*
Y673334D01*
X1031355D01*
Y673317D01*
X1031388D01*
Y673300D01*
X1031422D01*
Y673284D01*
X1031456D01*
Y673267D01*
X1031473D01*
Y673250D01*
X1031506D01*
Y673233D01*
X1031523D01*
Y673216D01*
X1031557D01*
Y673200D01*
X1031573D01*
Y673183D01*
X1031590D01*
Y673166D01*
X1031607D01*
Y673149D01*
X1031624D01*
Y673132D01*
X1031641D01*
Y673115D01*
X1031674D01*
Y673099D01*
X1031691D01*
Y673065D01*
X1031708D01*
Y673048D01*
X1031725D01*
Y673032D01*
X1031742D01*
Y673015D01*
X1031758D01*
Y672998D01*
X1031775D01*
Y672964D01*
X1031792D01*
Y672947D01*
X1031809D01*
Y672914D01*
X1031826D01*
Y672880D01*
X1031842D01*
Y672847D01*
X1031859D01*
Y672813D01*
X1031876D01*
Y672762D01*
X1031893D01*
Y672712D01*
X1031910D01*
Y672645D01*
X1031926D01*
Y672510D01*
X1031943D01*
Y672426D01*
X1031926D01*
Y672292D01*
X1031910D01*
Y672225D01*
X1031893D01*
Y672174D01*
X1031876D01*
Y672124D01*
X1031859D01*
Y672090D01*
X1031842D01*
Y672057D01*
X1031826D01*
Y672023D01*
X1031809D01*
Y672006D01*
X1031792D01*
Y671973D01*
X1031775D01*
Y671956D01*
X1031758D01*
Y671939D01*
X1031742D01*
Y671922D01*
X1031725D01*
Y671905D01*
X1031708D01*
Y671888D01*
X1031691D01*
Y671872D01*
X1031674D01*
Y671855D01*
X1031658D01*
Y671838D01*
X1031641D01*
Y671821D01*
X1031624D01*
Y671805D01*
X1031590D01*
Y671788D01*
X1031573D01*
Y671771D01*
X1031557D01*
Y671754D01*
X1031523D01*
Y671737D01*
X1031506D01*
Y671720D01*
X1031473D01*
Y671704D01*
X1031439D01*
Y671687D01*
X1031422D01*
Y671670D01*
X1031388D01*
Y671653D01*
X1031355D01*
Y671636D01*
X1031321D01*
Y671620D01*
X1031288D01*
Y671603D01*
X1031254D01*
Y671586D01*
X1031221D01*
Y671569D01*
X1031187D01*
Y671552D01*
X1031153D01*
Y671535D01*
X1031103D01*
Y671519D01*
X1031069D01*
Y671502D01*
X1031036D01*
Y671485D01*
X1030985D01*
Y671468D01*
X1030935D01*
Y671452D01*
X1030901D01*
Y671435D01*
X1030851D01*
Y671418D01*
X1030800D01*
Y671401D01*
X1030767D01*
Y671384D01*
X1030716D01*
Y671368D01*
X1030683D01*
Y671351D01*
X1030649D01*
Y671334D01*
X1030615D01*
Y671317D01*
X1030582D01*
Y671300D01*
X1030548D01*
Y671283D01*
X1030515D01*
Y671267D01*
X1030481D01*
Y671250D01*
X1030464D01*
Y671233D01*
X1030431D01*
Y671216D01*
X1030414D01*
Y671199D01*
X1030397D01*
Y671183D01*
X1030363D01*
Y671166D01*
X1030346D01*
Y671149D01*
X1030330D01*
Y671132D01*
X1030313D01*
Y671115D01*
X1030296D01*
Y671082D01*
X1030279D01*
Y671065D01*
X1030262D01*
Y671031D01*
X1030246D01*
Y670998D01*
X1030229D01*
Y670830D01*
X1030246D01*
Y670796D01*
X1030262D01*
Y670762D01*
X1030279D01*
Y670746D01*
X1030296D01*
Y670712D01*
X1030313D01*
Y670695D01*
X1030330D01*
Y670678D01*
X1030346D01*
Y670661D01*
X1030380D01*
Y670645D01*
X1030397D01*
Y670628D01*
X1030431D01*
Y670611D01*
X1030447D01*
Y670594D01*
X1030481D01*
Y670577D01*
X1030515D01*
Y670561D01*
X1030565D01*
Y670544D01*
X1030615D01*
Y670527D01*
X1030716D01*
Y670510D01*
X1030901D01*
Y670527D01*
X1031002D01*
Y670544D01*
X1031052D01*
Y670561D01*
X1031103D01*
Y670577D01*
X1031136D01*
Y670594D01*
X1031170D01*
Y670611D01*
X1031204D01*
Y670628D01*
X1031237D01*
Y670645D01*
X1031271D01*
Y670661D01*
X1031288D01*
Y670678D01*
X1031321D01*
Y670695D01*
X1031338D01*
Y670712D01*
X1031372D01*
Y670729D01*
X1031388D01*
Y670746D01*
X1031405D01*
Y670762D01*
X1031422D01*
Y670779D01*
X1031456D01*
Y670796D01*
X1031489D01*
Y670779D01*
X1031523D01*
Y670762D01*
X1031557D01*
Y670746D01*
X1031607D01*
Y670729D01*
X1031641D01*
Y670712D01*
X1031674D01*
Y670695D01*
X1031708D01*
Y670678D01*
X1031742D01*
Y670661D01*
X1031775D01*
Y670645D01*
X1031826D01*
Y670628D01*
X1031859D01*
Y670611D01*
X1031893D01*
Y670594D01*
X1031926D01*
Y670577D01*
X1031960D01*
Y670561D01*
X1032010D01*
Y670544D01*
X1032044D01*
Y670527D01*
X1032061D01*
Y670510D01*
X1032044D01*
Y670493D01*
X1032027D01*
Y670460D01*
X1032010D01*
Y670443D01*
X1031994D01*
Y670426D01*
X1031977D01*
Y670409D01*
X1031960D01*
Y670393D01*
X1031943D01*
Y670359D01*
X1031926D01*
Y670342D01*
X1031910D01*
Y670325D01*
X1031893D01*
Y670309D01*
X1031876D01*
Y670292D01*
X1031859D01*
Y670275D01*
X1031842D01*
Y670258D01*
X1031826D01*
Y670241D01*
X1031809D01*
Y670225D01*
X1031792D01*
Y670208D01*
X1031758D01*
Y670191D01*
X1031742D01*
Y670174D01*
X1031725D01*
Y670157D01*
X1031708D01*
Y670141D01*
X1031674D01*
Y670124D01*
X1031658D01*
Y670107D01*
X1031641D01*
Y670090D01*
X1031607D01*
Y670073D01*
X1031590D01*
Y670056D01*
X1031557D01*
Y670040D01*
X1031523D01*
Y670023D01*
X1031489D01*
Y670006D01*
X1031456D01*
Y669989D01*
X1031422D01*
Y669972D01*
X1031388D01*
Y669956D01*
X1031338D01*
Y669939D01*
X1031304D01*
Y669922D01*
X1031254D01*
Y669905D01*
X1031187D01*
Y669888D01*
X1031120D01*
Y669872D01*
X1031002D01*
Y669855D01*
X1030615D01*
Y669872D01*
X1030515D01*
Y669888D01*
X1030447D01*
Y669905D01*
X1030397D01*
Y669922D01*
X1030346D01*
Y669939D01*
X1030296D01*
Y669956D01*
X1030262D01*
Y669972D01*
X1030229D01*
Y669989D01*
X1030195D01*
Y670006D01*
X1030161D01*
Y670023D01*
X1030128D01*
Y670040D01*
X1030111D01*
Y670056D01*
X1030077D01*
Y670073D01*
X1030061D01*
Y670090D01*
X1030027D01*
Y670107D01*
X1030010D01*
Y670124D01*
X1029994D01*
Y670141D01*
X1029960D01*
Y670157D01*
X1029943D01*
Y670174D01*
X1029926D01*
Y670191D01*
X1029909D01*
Y670208D01*
X1029893D01*
Y670225D01*
X1029876D01*
Y670241D01*
X1029859D01*
Y670258D01*
X1029842D01*
Y670275D01*
X1029825D01*
Y670292D01*
X1029809D01*
Y670309D01*
X1029792D01*
Y670325D01*
X1029775D01*
Y670359D01*
X1029758D01*
Y670376D01*
X1029741D01*
Y670393D01*
X1029725D01*
Y670426D01*
X1029708D01*
Y670443D01*
X1029691D01*
Y670477D01*
X1029674D01*
Y670510D01*
X1029657D01*
Y670544D01*
X1029640D01*
Y670577D01*
X1029624D01*
Y670628D01*
X1029607D01*
Y670678D01*
X1029590D01*
Y670762D01*
X1029573D01*
Y671099D01*
X1029590D01*
Y671166D01*
X1029607D01*
Y671216D01*
X1029624D01*
Y671267D01*
X1029640D01*
Y671300D01*
X1029657D01*
Y671334D01*
X1029674D01*
Y671368D01*
X1029691D01*
Y671401D01*
X1029708D01*
Y671418D01*
X1029725D01*
Y671452D01*
X1029741D01*
Y671468D01*
X1029758D01*
Y671485D01*
X1029775D01*
Y671519D01*
X1029792D01*
Y671535D01*
X1029809D01*
Y671552D01*
X1029825D01*
Y671569D01*
X1029842D01*
Y671586D01*
X1029859D01*
Y671603D01*
X1029876D01*
Y671620D01*
X1029909D01*
Y671636D01*
X1029926D01*
Y671653D01*
X1029943D01*
Y671670D01*
X1029960D01*
Y671687D01*
X1029994D01*
Y671704D01*
X1030010D01*
Y671720D01*
X1030044D01*
Y671737D01*
X1030061D01*
Y671754D01*
X1030094D01*
Y671771D01*
X1030111D01*
Y671788D01*
X1030145D01*
Y671805D01*
X1030178D01*
Y671821D01*
X1030212D01*
Y671838D01*
X1030246D01*
Y671855D01*
X1030279D01*
Y671872D01*
X1030313D01*
Y671888D01*
X1030346D01*
Y671905D01*
X1030380D01*
Y671922D01*
X1030414D01*
Y671939D01*
X1030447D01*
Y671956D01*
X1030498D01*
Y671973D01*
X1030531D01*
Y671989D01*
X1030582D01*
Y672006D01*
X1030615D01*
Y672023D01*
X1030666D01*
Y672040D01*
X1030716D01*
Y672057D01*
X1030750D01*
Y672073D01*
X1030800D01*
Y672090D01*
X1030834D01*
Y672107D01*
X1030867D01*
Y672124D01*
X1030901D01*
Y672141D01*
X1030935D01*
Y672157D01*
X1030968D01*
Y672174D01*
X1031002D01*
Y672191D01*
X1031036D01*
Y672208D01*
X1031052D01*
Y672225D01*
X1031086D01*
Y672241D01*
X1031103D01*
Y672258D01*
X1031120D01*
Y672275D01*
X1031153D01*
Y672292D01*
X1031170D01*
Y672309D01*
X1031187D01*
Y672342D01*
X1031204D01*
Y672359D01*
X1031221D01*
Y672393D01*
X1031237D01*
Y672443D01*
X1031254D01*
Y672527D01*
X1031237D01*
Y672594D01*
X1031221D01*
Y672628D01*
X1031204D01*
Y672662D01*
X1031187D01*
Y672679D01*
X1031170D01*
Y672695D01*
X1031153D01*
Y672712D01*
X1031120D01*
Y672729D01*
X1031086D01*
Y672746D01*
X1031052D01*
Y672762D01*
X1031002D01*
Y672779D01*
X1030901D01*
Y672796D01*
X1030699D01*
Y672779D01*
X1030582D01*
Y672762D01*
X1030531D01*
Y672746D01*
X1030481D01*
Y672729D01*
X1030447D01*
Y672712D01*
X1030414D01*
Y672695D01*
X1030380D01*
Y672679D01*
X1030346D01*
Y672662D01*
X1030313D01*
Y672645D01*
X1030296D01*
Y672628D01*
X1030262D01*
Y672611D01*
X1030229D01*
Y672594D01*
X1030212D01*
Y672578D01*
X1030178D01*
Y672561D01*
X1030161D01*
Y672544D01*
X1030128D01*
Y672527D01*
X1030094D01*
Y672544D01*
X1030077D01*
Y672561D01*
X1030061D01*
Y672578D01*
X1030044D01*
Y672594D01*
X1030010D01*
Y672611D01*
X1029994D01*
Y672628D01*
X1029977D01*
Y672645D01*
X1029960D01*
Y672662D01*
X1029943D01*
Y672679D01*
X1029909D01*
Y672695D01*
X1029893D01*
Y672712D01*
X1029876D01*
Y672729D01*
X1029859D01*
Y672746D01*
X1029842D01*
Y672762D01*
X1029809D01*
Y672779D01*
X1029792D01*
Y672796D01*
X1029775D01*
Y672813D01*
X1029758D01*
Y672830D01*
X1029741D01*
Y672847D01*
X1029708D01*
Y672863D01*
X1029691D01*
Y672880D01*
X1029674D01*
Y672897D01*
X1029657D01*
Y672914D01*
X1029640D01*
Y672931D01*
X1029607D01*
Y672964D01*
X1029640D01*
Y672981D01*
X1029657D01*
Y672998D01*
X1029674D01*
Y673015D01*
X1029708D01*
Y673032D01*
X1029725D01*
Y673048D01*
X1029741D01*
Y673065D01*
X1029775D01*
Y673082D01*
X1029792D01*
Y673099D01*
X1029825D01*
Y673115D01*
X1029842D01*
Y673132D01*
X1029876D01*
Y673149D01*
X1029893D01*
Y673166D01*
X1029926D01*
Y673183D01*
X1029943D01*
Y673200D01*
X1029977D01*
Y673216D01*
X1030010D01*
Y673233D01*
X1030027D01*
Y673250D01*
X1030061D01*
Y673267D01*
X1030094D01*
Y673284D01*
X1030128D01*
Y673300D01*
X1030161D01*
Y673317D01*
X1030195D01*
Y673334D01*
X1030246D01*
Y673351D01*
X1030279D01*
Y673368D01*
X1030330D01*
Y673384D01*
X1030380D01*
Y673401D01*
X1030431D01*
Y673418D01*
X1030498D01*
Y673435D01*
X1030582D01*
Y673452D01*
X1030951D01*
Y673435D01*
D02*
G37*
G36*
X1051894Y675435D02*
X1052163D01*
Y675418D01*
X1052348D01*
Y675401D01*
X1052483D01*
Y675385D01*
X1052600D01*
Y675368D01*
X1052701D01*
Y675351D01*
X1052785D01*
Y675334D01*
X1052869D01*
Y675317D01*
X1052953D01*
Y675301D01*
X1053037D01*
Y675284D01*
X1053105D01*
Y675267D01*
X1053172D01*
Y675250D01*
X1053239D01*
Y675233D01*
X1053290D01*
Y675216D01*
X1053357D01*
Y675200D01*
X1053407D01*
Y675183D01*
X1053458D01*
Y675166D01*
X1053525D01*
Y675149D01*
X1053575D01*
Y675133D01*
X1053626D01*
Y675116D01*
X1053676D01*
Y675099D01*
X1053710D01*
Y675082D01*
X1053760D01*
Y675065D01*
X1053811D01*
Y675048D01*
X1053844D01*
Y675032D01*
X1053895D01*
Y675015D01*
X1053928D01*
Y674998D01*
X1053979D01*
Y674981D01*
X1054012D01*
Y674964D01*
X1054063D01*
Y674948D01*
X1054096D01*
Y674931D01*
X1054130D01*
Y674914D01*
X1054163D01*
Y674897D01*
X1054197D01*
Y674880D01*
X1054248D01*
Y674864D01*
X1054281D01*
Y674847D01*
X1054315D01*
Y674830D01*
X1054348D01*
Y674813D01*
X1054382D01*
Y674796D01*
X1054416D01*
Y674780D01*
X1054449D01*
Y674763D01*
X1054483D01*
Y674746D01*
X1054517D01*
Y674729D01*
X1054533D01*
Y674712D01*
X1054567D01*
Y674695D01*
X1054601D01*
Y674679D01*
X1054634D01*
Y674662D01*
X1054668D01*
Y674645D01*
X1054685D01*
Y674628D01*
X1054718D01*
Y674611D01*
X1054752D01*
Y674595D01*
X1054785D01*
Y674578D01*
X1054802D01*
Y674561D01*
X1054836D01*
Y674544D01*
X1054853D01*
Y674527D01*
X1054886D01*
Y674511D01*
X1054920D01*
Y674494D01*
X1054937D01*
Y674477D01*
X1054970D01*
Y674460D01*
X1054987D01*
Y674443D01*
X1055021D01*
Y674427D01*
X1055038D01*
Y674410D01*
X1055071D01*
Y674393D01*
X1055088D01*
Y674376D01*
X1055122D01*
Y674359D01*
X1055138D01*
Y674342D01*
X1055172D01*
Y674326D01*
X1055189D01*
Y674309D01*
X1055206D01*
Y674292D01*
X1055239D01*
Y674275D01*
X1055256D01*
Y674259D01*
X1055290D01*
Y674242D01*
X1055307D01*
Y674225D01*
X1055323D01*
Y674208D01*
X1055357D01*
Y674191D01*
X1055374D01*
Y674174D01*
X1055390D01*
Y674158D01*
X1055407D01*
Y674141D01*
X1055441D01*
Y674124D01*
X1055458D01*
Y674107D01*
X1055475D01*
Y674090D01*
X1055491D01*
Y674074D01*
X1055525D01*
Y674057D01*
X1055542D01*
Y674040D01*
X1055559D01*
Y674023D01*
X1055575D01*
Y674006D01*
X1055592D01*
Y673989D01*
X1055626D01*
Y673973D01*
X1055643D01*
Y673956D01*
X1055659D01*
Y673939D01*
X1055676D01*
Y673922D01*
X1055693D01*
Y673906D01*
X1055710D01*
Y673889D01*
X1055727D01*
Y673872D01*
X1055760D01*
Y673855D01*
X1055777D01*
Y673838D01*
X1055794D01*
Y673821D01*
X1055811D01*
Y673805D01*
X1055828D01*
Y673788D01*
X1055844D01*
Y673771D01*
X1055861D01*
Y673754D01*
X1055878D01*
Y673737D01*
X1055895D01*
Y673721D01*
X1055912D01*
Y673704D01*
X1055928D01*
Y673687D01*
X1055945D01*
Y673670D01*
X1055962D01*
Y673653D01*
X1055979D01*
Y673637D01*
X1055996D01*
Y673620D01*
X1056012D01*
Y673603D01*
X1056029D01*
Y673586D01*
X1056046D01*
Y673569D01*
X1056063D01*
Y673553D01*
X1056080D01*
Y673536D01*
X1056096D01*
Y673519D01*
X1056113D01*
Y673502D01*
X1056130D01*
Y673485D01*
X1056147D01*
Y673468D01*
X1056164D01*
Y673435D01*
X1056180D01*
Y673418D01*
X1056197D01*
Y673401D01*
X1056214D01*
Y673384D01*
X1056231D01*
Y673368D01*
X1056248D01*
Y673351D01*
X1056265D01*
Y673334D01*
X1056281D01*
Y673317D01*
X1056298D01*
Y673284D01*
X1056315D01*
Y673267D01*
X1056332D01*
Y673250D01*
X1056349D01*
Y673233D01*
X1056365D01*
Y673216D01*
X1056382D01*
Y673183D01*
X1056399D01*
Y673166D01*
X1056416D01*
Y673149D01*
X1056433D01*
Y673132D01*
X1056449D01*
Y673099D01*
X1056466D01*
Y673082D01*
X1056483D01*
Y673065D01*
X1056500D01*
Y673032D01*
X1056517D01*
Y673015D01*
X1056534D01*
Y672998D01*
X1056550D01*
Y672964D01*
X1056567D01*
Y672947D01*
X1056584D01*
Y672931D01*
X1056601D01*
Y672897D01*
X1056618D01*
Y672880D01*
X1056634D01*
Y672847D01*
X1056651D01*
Y672830D01*
X1056668D01*
Y672813D01*
X1056685D01*
Y672779D01*
X1056702D01*
Y672762D01*
X1056718D01*
Y672729D01*
X1056735D01*
Y672712D01*
X1056752D01*
Y672679D01*
X1056769D01*
Y672662D01*
X1056786D01*
Y672628D01*
X1056802D01*
Y672594D01*
X1056819D01*
Y672578D01*
X1056836D01*
Y672544D01*
X1056853D01*
Y672527D01*
X1056870D01*
Y672494D01*
X1056886D01*
Y672460D01*
X1056903D01*
Y672443D01*
X1056920D01*
Y672410D01*
X1056937D01*
Y672376D01*
X1056954D01*
Y672342D01*
X1056971D01*
Y672326D01*
X1056987D01*
Y672292D01*
X1057004D01*
Y672258D01*
X1057021D01*
Y672225D01*
X1057038D01*
Y672191D01*
X1057055D01*
Y672157D01*
X1057071D01*
Y672124D01*
X1057088D01*
Y672107D01*
X1057105D01*
Y672073D01*
X1057122D01*
Y672040D01*
X1057139D01*
Y671989D01*
X1057155D01*
Y671956D01*
X1057172D01*
Y671922D01*
X1057189D01*
Y671888D01*
X1057206D01*
Y671855D01*
X1057223D01*
Y671821D01*
X1057239D01*
Y671771D01*
X1057256D01*
Y671737D01*
X1057273D01*
Y671704D01*
X1057290D01*
Y671653D01*
X1057307D01*
Y671620D01*
X1057323D01*
Y671569D01*
X1057340D01*
Y671535D01*
X1057357D01*
Y671485D01*
X1057374D01*
Y671452D01*
X1057391D01*
Y671401D01*
X1057407D01*
Y671351D01*
X1057424D01*
Y671300D01*
X1057441D01*
Y671250D01*
X1057458D01*
Y671199D01*
X1057475D01*
Y671149D01*
X1057491D01*
Y671082D01*
X1057508D01*
Y671031D01*
X1057525D01*
Y670964D01*
X1057542D01*
Y670914D01*
X1057559D01*
Y670846D01*
X1057576D01*
Y670779D01*
X1057592D01*
Y670695D01*
X1057609D01*
Y670628D01*
X1057626D01*
Y670544D01*
X1057643D01*
Y670460D01*
X1057660D01*
Y670359D01*
X1057676D01*
Y670258D01*
X1057693D01*
Y670141D01*
X1057710D01*
Y669989D01*
X1057727D01*
Y669804D01*
X1057744D01*
Y669552D01*
Y669535D01*
Y669334D01*
X1056399D01*
Y669519D01*
X1056382D01*
Y669771D01*
X1056365D01*
Y669922D01*
X1056349D01*
Y670056D01*
X1056332D01*
Y670157D01*
X1056315D01*
Y670241D01*
X1056298D01*
Y670325D01*
X1056281D01*
Y670409D01*
X1056265D01*
Y670477D01*
X1056248D01*
Y670544D01*
X1056231D01*
Y670594D01*
X1056214D01*
Y670661D01*
X1056197D01*
Y670712D01*
X1056180D01*
Y670779D01*
X1056164D01*
Y670830D01*
X1056147D01*
Y670880D01*
X1056130D01*
Y670930D01*
X1056113D01*
Y670964D01*
X1056096D01*
Y671014D01*
X1056080D01*
Y671065D01*
X1056063D01*
Y671099D01*
X1056046D01*
Y671149D01*
X1056029D01*
Y671183D01*
X1056012D01*
Y671216D01*
X1055996D01*
Y671267D01*
X1055979D01*
Y671300D01*
X1055962D01*
Y671334D01*
X1055945D01*
Y671368D01*
X1055928D01*
Y671401D01*
X1055912D01*
Y671435D01*
X1055895D01*
Y671468D01*
X1055878D01*
Y671502D01*
X1055861D01*
Y671535D01*
X1055844D01*
Y671569D01*
X1055828D01*
Y671603D01*
X1055811D01*
Y671636D01*
X1055794D01*
Y671670D01*
X1055777D01*
Y671687D01*
X1055760D01*
Y671720D01*
X1055744D01*
Y671754D01*
X1055727D01*
Y671788D01*
X1055710D01*
Y671805D01*
X1055693D01*
Y671838D01*
X1055676D01*
Y671855D01*
X1055659D01*
Y671888D01*
X1055643D01*
Y671922D01*
X1055626D01*
Y671939D01*
X1055609D01*
Y671973D01*
X1055592D01*
Y671989D01*
X1055575D01*
Y672023D01*
X1055559D01*
Y672040D01*
X1055542D01*
Y672057D01*
X1055525D01*
Y672090D01*
X1055508D01*
Y672107D01*
X1055491D01*
Y672141D01*
X1055475D01*
Y672157D01*
X1055458D01*
Y672174D01*
X1055441D01*
Y672208D01*
X1055424D01*
Y672225D01*
X1055407D01*
Y672241D01*
X1055390D01*
Y672275D01*
X1055374D01*
Y672292D01*
X1055357D01*
Y672309D01*
X1055340D01*
Y672326D01*
X1055323D01*
Y672359D01*
X1055307D01*
Y672376D01*
X1055290D01*
Y672393D01*
X1055273D01*
Y672410D01*
X1055256D01*
Y672426D01*
X1055239D01*
Y672443D01*
X1055223D01*
Y672477D01*
X1055206D01*
Y672494D01*
X1055189D01*
Y672510D01*
X1055172D01*
Y672527D01*
X1055155D01*
Y672544D01*
X1055138D01*
Y672561D01*
X1055122D01*
Y672578D01*
X1055105D01*
Y672594D01*
X1055088D01*
Y672611D01*
X1055071D01*
Y672628D01*
X1055054D01*
Y672645D01*
X1055038D01*
Y672662D01*
X1055021D01*
Y672679D01*
X1055004D01*
Y672695D01*
X1054987D01*
Y672712D01*
X1054970D01*
Y672729D01*
X1054953D01*
Y672746D01*
X1054937D01*
Y672762D01*
X1054920D01*
Y672779D01*
X1054903D01*
Y672796D01*
X1054886D01*
Y672813D01*
X1054869D01*
Y672830D01*
X1054853D01*
Y672847D01*
X1054836D01*
Y672863D01*
X1054819D01*
Y672880D01*
X1054802D01*
Y672897D01*
X1054785D01*
Y672914D01*
X1054752D01*
Y672931D01*
X1054735D01*
Y672947D01*
X1054718D01*
Y672964D01*
X1054701D01*
Y672981D01*
X1054685D01*
Y672998D01*
X1054668D01*
Y673015D01*
X1054634D01*
Y673032D01*
X1054617D01*
Y673048D01*
X1054601D01*
Y673065D01*
X1054584D01*
Y673082D01*
X1054550D01*
Y673099D01*
X1054533D01*
Y673115D01*
X1054517D01*
Y673132D01*
X1054483D01*
Y673149D01*
X1054466D01*
Y673166D01*
X1054449D01*
Y673183D01*
X1054416D01*
Y673200D01*
X1054399D01*
Y673216D01*
X1054382D01*
Y673233D01*
X1054348D01*
Y673250D01*
X1054332D01*
Y673267D01*
X1054298D01*
Y673284D01*
X1054281D01*
Y673300D01*
X1054248D01*
Y673317D01*
X1054231D01*
Y673334D01*
X1054197D01*
Y673351D01*
X1054180D01*
Y673368D01*
X1054147D01*
Y673384D01*
X1054113D01*
Y673401D01*
X1054096D01*
Y673418D01*
X1054063D01*
Y673435D01*
X1054029D01*
Y673452D01*
X1054012D01*
Y673468D01*
X1053979D01*
Y673485D01*
X1053945D01*
Y673502D01*
X1053911D01*
Y673519D01*
X1053878D01*
Y673536D01*
X1053861D01*
Y673553D01*
X1053827D01*
Y673569D01*
X1053794D01*
Y673586D01*
X1053760D01*
Y673603D01*
X1053726D01*
Y673620D01*
X1053693D01*
Y673637D01*
X1053642D01*
Y673653D01*
X1053609D01*
Y673670D01*
X1053575D01*
Y673687D01*
X1053542D01*
Y673704D01*
X1053491D01*
Y673721D01*
X1053458D01*
Y673737D01*
X1053424D01*
Y673754D01*
X1053374D01*
Y673771D01*
X1053340D01*
Y673788D01*
X1053290D01*
Y673805D01*
X1053239D01*
Y673821D01*
X1053189D01*
Y673838D01*
X1053138D01*
Y673855D01*
X1053088D01*
Y673872D01*
X1053037D01*
Y673889D01*
X1052987D01*
Y673906D01*
X1052920D01*
Y673922D01*
X1052869D01*
Y673939D01*
X1052802D01*
Y673956D01*
X1052735D01*
Y673973D01*
X1052651D01*
Y673989D01*
X1052567D01*
Y674006D01*
X1052483D01*
Y674023D01*
X1052382D01*
Y674040D01*
X1052264D01*
Y674057D01*
X1052130D01*
Y674074D01*
X1051928D01*
Y674090D01*
X1051642D01*
Y675452D01*
X1051894D01*
Y675435D01*
D02*
G37*
G36*
X1051945Y672712D02*
X1052096D01*
Y672695D01*
X1052214D01*
Y672679D01*
X1052315D01*
Y672662D01*
X1052382D01*
Y672645D01*
X1052466D01*
Y672628D01*
X1052533D01*
Y672611D01*
X1052584D01*
Y672594D01*
X1052651D01*
Y672578D01*
X1052701D01*
Y672561D01*
X1052752D01*
Y672544D01*
X1052802D01*
Y672527D01*
X1052836D01*
Y672510D01*
X1052886D01*
Y672494D01*
X1052920D01*
Y672477D01*
X1052970D01*
Y672460D01*
X1053004D01*
Y672443D01*
X1053037D01*
Y672426D01*
X1053071D01*
Y672410D01*
X1053121D01*
Y672393D01*
X1053155D01*
Y672376D01*
X1053189D01*
Y672359D01*
X1053222D01*
Y672342D01*
X1053239D01*
Y672326D01*
X1053273D01*
Y672309D01*
X1053306D01*
Y672292D01*
X1053340D01*
Y672275D01*
X1053374D01*
Y672258D01*
X1053390D01*
Y672241D01*
X1053424D01*
Y672225D01*
X1053441D01*
Y672208D01*
X1053474D01*
Y672191D01*
X1053508D01*
Y672174D01*
X1053525D01*
Y672157D01*
X1053558D01*
Y672141D01*
X1053575D01*
Y672124D01*
X1053609D01*
Y672107D01*
X1053626D01*
Y672090D01*
X1053642D01*
Y672073D01*
X1053676D01*
Y672057D01*
X1053693D01*
Y672040D01*
X1053710D01*
Y672023D01*
X1053743D01*
Y672006D01*
X1053760D01*
Y671989D01*
X1053777D01*
Y671973D01*
X1053794D01*
Y671956D01*
X1053827D01*
Y671939D01*
X1053844D01*
Y671922D01*
X1053861D01*
Y671905D01*
X1053878D01*
Y671888D01*
X1053895D01*
Y671872D01*
X1053911D01*
Y671855D01*
X1053928D01*
Y671838D01*
X1053945D01*
Y671821D01*
X1053979D01*
Y671805D01*
X1053996D01*
Y671788D01*
X1054012D01*
Y671771D01*
X1054029D01*
Y671754D01*
X1054046D01*
Y671737D01*
X1054063D01*
Y671720D01*
X1054080D01*
Y671704D01*
X1054096D01*
Y671687D01*
X1054113D01*
Y671670D01*
X1054130D01*
Y671636D01*
X1054147D01*
Y671620D01*
X1054163D01*
Y671603D01*
X1054180D01*
Y671586D01*
X1054197D01*
Y671569D01*
X1054214D01*
Y671552D01*
X1054231D01*
Y671535D01*
X1054248D01*
Y671502D01*
X1054264D01*
Y671485D01*
X1054281D01*
Y671468D01*
X1054298D01*
Y671452D01*
X1054315D01*
Y671418D01*
X1054332D01*
Y671401D01*
X1054348D01*
Y671384D01*
X1054365D01*
Y671368D01*
X1054382D01*
Y671334D01*
X1054399D01*
Y671317D01*
X1054416D01*
Y671283D01*
X1054432D01*
Y671267D01*
X1054449D01*
Y671250D01*
Y671233D01*
X1054466D01*
Y671216D01*
X1054483D01*
Y671183D01*
X1054500D01*
Y671166D01*
X1054517D01*
Y671132D01*
X1054533D01*
Y671115D01*
X1054550D01*
Y671082D01*
X1054567D01*
Y671048D01*
X1054584D01*
Y671031D01*
X1054601D01*
Y670998D01*
X1054617D01*
Y670964D01*
X1054634D01*
Y670930D01*
X1054651D01*
Y670897D01*
X1054668D01*
Y670863D01*
X1054685D01*
Y670830D01*
X1054701D01*
Y670796D01*
X1054718D01*
Y670762D01*
X1054735D01*
Y670729D01*
X1054752D01*
Y670695D01*
X1054769D01*
Y670645D01*
X1054785D01*
Y670611D01*
X1054802D01*
Y670561D01*
X1054819D01*
Y670527D01*
X1054836D01*
Y670477D01*
X1054853D01*
Y670426D01*
X1054869D01*
Y670376D01*
X1054886D01*
Y670325D01*
X1054903D01*
Y670258D01*
X1054920D01*
Y670208D01*
X1054937D01*
Y670141D01*
X1054953D01*
Y670056D01*
X1054970D01*
Y669972D01*
X1054987D01*
Y669872D01*
X1055004D01*
Y669754D01*
X1055021D01*
Y669586D01*
X1055038D01*
Y669334D01*
X1053676D01*
Y669552D01*
X1053659D01*
Y669670D01*
X1053642D01*
Y669754D01*
X1053626D01*
Y669838D01*
X1053609D01*
Y669888D01*
X1053592D01*
Y669956D01*
X1053575D01*
Y670006D01*
X1053558D01*
Y670056D01*
X1053542D01*
Y670090D01*
X1053525D01*
Y670141D01*
X1053508D01*
Y670174D01*
X1053491D01*
Y670208D01*
X1053474D01*
Y670241D01*
X1053458D01*
Y670275D01*
X1053441D01*
Y670309D01*
X1053424D01*
Y670342D01*
X1053407D01*
Y670376D01*
X1053390D01*
Y670393D01*
X1053374D01*
Y670426D01*
X1053357D01*
Y670443D01*
X1053340D01*
Y670477D01*
X1053323D01*
Y670493D01*
X1053306D01*
Y670527D01*
X1053290D01*
Y670544D01*
X1053273D01*
Y670561D01*
X1053256D01*
Y670594D01*
X1053239D01*
Y670611D01*
X1053222D01*
Y670628D01*
X1053205D01*
Y670645D01*
X1053189D01*
Y670678D01*
X1053172D01*
Y670695D01*
X1053155D01*
Y670712D01*
X1053138D01*
Y670729D01*
X1053121D01*
Y670746D01*
X1053105D01*
Y670762D01*
X1053088D01*
Y670779D01*
X1053071D01*
Y670796D01*
X1053054D01*
Y670813D01*
X1053037D01*
Y670830D01*
X1053021D01*
Y670846D01*
X1053004D01*
Y670863D01*
X1052987D01*
Y670880D01*
X1052953D01*
Y670897D01*
X1052936D01*
Y670914D01*
X1052920D01*
Y670930D01*
X1052903D01*
Y670947D01*
X1052886D01*
Y670964D01*
X1052853D01*
Y670981D01*
X1052836D01*
Y670998D01*
X1052802D01*
Y671014D01*
X1052785D01*
Y671031D01*
X1052769D01*
Y671048D01*
X1052735D01*
Y671065D01*
X1052701D01*
Y671082D01*
X1052684D01*
Y671099D01*
X1052651D01*
Y671115D01*
X1052617D01*
Y671132D01*
X1052584D01*
Y671149D01*
X1052550D01*
Y671166D01*
X1052516D01*
Y671183D01*
X1052483D01*
Y671199D01*
X1052449D01*
Y671216D01*
X1052415D01*
Y671233D01*
X1052365D01*
Y671250D01*
X1052315D01*
Y671267D01*
X1052264D01*
Y671283D01*
X1052214D01*
Y671300D01*
X1052163D01*
Y671317D01*
X1052079D01*
Y671334D01*
X1052012D01*
Y671351D01*
X1051894D01*
Y671368D01*
X1051642D01*
Y672729D01*
X1051945D01*
Y672712D01*
D02*
G37*
G36*
X1051289Y669821D02*
X1051390D01*
Y669804D01*
X1051441D01*
Y669788D01*
X1051491D01*
Y669771D01*
X1051542D01*
Y669754D01*
X1051575D01*
Y669737D01*
X1051609D01*
Y669720D01*
X1051642D01*
Y669703D01*
X1051676D01*
Y669687D01*
X1051693D01*
Y669670D01*
X1051726D01*
Y669653D01*
X1051743D01*
Y669636D01*
X1051760D01*
Y669619D01*
X1051777D01*
Y669603D01*
X1051810D01*
Y669586D01*
X1051827D01*
Y669569D01*
X1051844D01*
Y669552D01*
X1051861D01*
Y669535D01*
X1051878D01*
Y669519D01*
X1051894D01*
Y669502D01*
X1051911D01*
Y669485D01*
X1051928D01*
Y669451D01*
X1051945D01*
Y669434D01*
X1051962D01*
Y669418D01*
X1051978D01*
Y669384D01*
X1051995D01*
Y669367D01*
X1052012D01*
Y669334D01*
X1052029D01*
Y669300D01*
X1052046D01*
Y669283D01*
X1052063D01*
Y669233D01*
X1052079D01*
Y669199D01*
X1052096D01*
Y669166D01*
X1052113D01*
Y669098D01*
X1052130D01*
Y669031D01*
X1052147D01*
Y668645D01*
X1052130D01*
Y668561D01*
X1052113D01*
Y668510D01*
X1052096D01*
Y668460D01*
X1052079D01*
Y668426D01*
X1052063D01*
Y668392D01*
X1052046D01*
Y668359D01*
X1052029D01*
Y668325D01*
X1052012D01*
Y668292D01*
X1051995D01*
Y668275D01*
X1051978D01*
Y668241D01*
X1051962D01*
Y668224D01*
X1051945D01*
Y668208D01*
X1051928D01*
Y668174D01*
X1051911D01*
Y668157D01*
X1051894D01*
Y668140D01*
X1051878D01*
Y668123D01*
X1051861D01*
Y668107D01*
X1051844D01*
Y668090D01*
X1051827D01*
Y668073D01*
X1051810D01*
Y668056D01*
X1051777D01*
Y668040D01*
X1051760D01*
Y668023D01*
X1051743D01*
Y668006D01*
X1051726D01*
Y667989D01*
X1051693D01*
Y667972D01*
X1051676D01*
Y667955D01*
X1051642D01*
Y667939D01*
X1051609D01*
Y667922D01*
X1051575D01*
Y667905D01*
X1051542D01*
Y667888D01*
X1051491D01*
Y667871D01*
X1051457D01*
Y667855D01*
X1051390D01*
Y667838D01*
X1051289D01*
Y667821D01*
X1051004D01*
Y667838D01*
X1050903D01*
Y667855D01*
X1050836D01*
Y667871D01*
X1050785D01*
Y667888D01*
X1050751D01*
Y667905D01*
X1050718D01*
Y667922D01*
X1050684D01*
Y667939D01*
X1050651D01*
Y667955D01*
X1050617D01*
Y667972D01*
X1050600D01*
Y667989D01*
X1050567D01*
Y668006D01*
X1050550D01*
Y668023D01*
X1050516D01*
Y668040D01*
X1050499D01*
Y668056D01*
X1050483D01*
Y668073D01*
X1050466D01*
Y668090D01*
X1050449D01*
Y668107D01*
X1050432D01*
Y668123D01*
X1050415D01*
Y668140D01*
X1050399D01*
Y668157D01*
X1050382D01*
Y668174D01*
X1050365D01*
Y668191D01*
X1050348D01*
Y668224D01*
X1050331D01*
Y668241D01*
X1050315D01*
Y668258D01*
X1050298D01*
Y668292D01*
X1050281D01*
Y668308D01*
X1050264D01*
Y668342D01*
X1050247D01*
Y668376D01*
X1050230D01*
Y668409D01*
X1050214D01*
Y668443D01*
X1050197D01*
Y668493D01*
X1050180D01*
Y668544D01*
X1050163D01*
Y668611D01*
X1050146D01*
Y668729D01*
X1050130D01*
Y668930D01*
X1050146D01*
Y669048D01*
X1050163D01*
Y669115D01*
X1050180D01*
Y669166D01*
X1050197D01*
Y669216D01*
X1050214D01*
Y669250D01*
X1050230D01*
Y669283D01*
X1050247D01*
Y669317D01*
X1050264D01*
Y669350D01*
X1050281D01*
Y669367D01*
X1050298D01*
Y669401D01*
X1050315D01*
Y669418D01*
X1050331D01*
Y669434D01*
X1050348D01*
Y669468D01*
X1050365D01*
Y669485D01*
X1050382D01*
Y669502D01*
X1050399D01*
Y669519D01*
X1050415D01*
Y669535D01*
X1050432D01*
Y669552D01*
X1050449D01*
Y669569D01*
X1050466D01*
Y669586D01*
X1050483D01*
Y669603D01*
X1050499D01*
Y669619D01*
X1050516D01*
Y669636D01*
X1050550D01*
Y669653D01*
X1050567D01*
Y669670D01*
X1050600D01*
Y669687D01*
X1050617D01*
Y669703D01*
X1050651D01*
Y669720D01*
X1050684D01*
Y669737D01*
X1050718D01*
Y669754D01*
X1050751D01*
Y669771D01*
X1050785D01*
Y669788D01*
X1050836D01*
Y669804D01*
X1050903D01*
Y669821D01*
X1051004D01*
Y669838D01*
X1051289D01*
Y669821D01*
D02*
G37*
G36*
X1048667Y661400D02*
X1047054D01*
Y662257D01*
X1047037D01*
Y662241D01*
X1047020D01*
Y662224D01*
X1047003D01*
Y662207D01*
X1046986D01*
Y662190D01*
X1046970D01*
Y662173D01*
X1046953D01*
Y662157D01*
X1046936D01*
Y662123D01*
X1046919D01*
Y662106D01*
X1046902D01*
Y662089D01*
X1046886D01*
Y662073D01*
X1046869D01*
Y662056D01*
X1046852D01*
Y662039D01*
X1046835D01*
Y662022D01*
X1046818D01*
Y662005D01*
X1046802D01*
Y661988D01*
X1046785D01*
Y661972D01*
X1046751D01*
Y661955D01*
X1046734D01*
Y661938D01*
X1046717D01*
Y661921D01*
X1046701D01*
Y661904D01*
X1046684D01*
Y661888D01*
X1046667D01*
Y661871D01*
X1046650D01*
Y661854D01*
X1046634D01*
Y661837D01*
X1046617D01*
Y661820D01*
X1046600D01*
Y661804D01*
X1046566D01*
Y661787D01*
X1046550D01*
Y661770D01*
X1046533D01*
Y661753D01*
X1046516D01*
Y661736D01*
X1046482D01*
Y661720D01*
X1046465D01*
Y661703D01*
X1046449D01*
Y661686D01*
X1046432D01*
Y661669D01*
X1046398D01*
Y661652D01*
X1046381D01*
Y661636D01*
X1046348D01*
Y661619D01*
X1046331D01*
Y661602D01*
X1046297D01*
Y661585D01*
X1046280D01*
Y661568D01*
X1046247D01*
Y661552D01*
X1046230D01*
Y661535D01*
X1046196D01*
Y661518D01*
X1046163D01*
Y661501D01*
X1046129D01*
Y661484D01*
X1046096D01*
Y661468D01*
X1046062D01*
Y661451D01*
X1046028D01*
Y661434D01*
X1045995D01*
Y661417D01*
X1045961D01*
Y661400D01*
X1045911D01*
Y661383D01*
X1045860D01*
Y661367D01*
X1045793D01*
Y661350D01*
X1045726D01*
Y661333D01*
X1045642D01*
Y661316D01*
X1045524D01*
Y661299D01*
X1045154D01*
Y661316D01*
X1045020D01*
Y661333D01*
X1044919D01*
Y661350D01*
X1044852D01*
Y661367D01*
X1044785D01*
Y661383D01*
X1044734D01*
Y661400D01*
X1044684D01*
Y661417D01*
X1044650D01*
Y661434D01*
X1044600D01*
Y661451D01*
X1044566D01*
Y661468D01*
X1044532D01*
Y661484D01*
X1044499D01*
Y661501D01*
X1044465D01*
Y661518D01*
X1044432D01*
Y661535D01*
X1044398D01*
Y661552D01*
X1044364D01*
Y661568D01*
X1044331D01*
Y661585D01*
X1044314D01*
Y661602D01*
X1044280D01*
Y661619D01*
X1044264D01*
Y661636D01*
X1044230D01*
Y661652D01*
X1044213D01*
Y661669D01*
X1044180D01*
Y661686D01*
X1044163D01*
Y661703D01*
X1044146D01*
Y661720D01*
X1044112D01*
Y661736D01*
X1044096D01*
Y661753D01*
X1044079D01*
Y661770D01*
X1044062D01*
Y661787D01*
X1044045D01*
Y661804D01*
X1044011D01*
Y661820D01*
X1043995D01*
Y661837D01*
X1043978D01*
Y661854D01*
X1043961D01*
Y661871D01*
X1043944D01*
Y661888D01*
X1043927D01*
Y661904D01*
X1043911D01*
Y661921D01*
X1043894D01*
Y661938D01*
X1043877D01*
Y661955D01*
X1043860D01*
Y661972D01*
X1043843D01*
Y661988D01*
X1043826D01*
Y662005D01*
X1043810D01*
Y662022D01*
X1043793D01*
Y662039D01*
X1043776D01*
Y662056D01*
X1043759D01*
Y662073D01*
X1043742D01*
Y662106D01*
X1043726D01*
Y662123D01*
X1043709D01*
Y662140D01*
X1043692D01*
Y662157D01*
X1043675D01*
Y662173D01*
X1043659D01*
Y662207D01*
X1043642D01*
Y662224D01*
X1043625D01*
Y662241D01*
X1043608D01*
Y662257D01*
X1043591D01*
Y662291D01*
X1043574D01*
Y662308D01*
X1043558D01*
Y662341D01*
X1043541D01*
Y662358D01*
X1043524D01*
Y662375D01*
X1043507D01*
Y662409D01*
X1043490D01*
Y662426D01*
X1043474D01*
Y662459D01*
X1043457D01*
Y662493D01*
X1043440D01*
Y662510D01*
X1043423D01*
Y662543D01*
X1043406D01*
Y662577D01*
X1043390D01*
Y662594D01*
X1043373D01*
Y662627D01*
X1043356D01*
Y662661D01*
X1043339D01*
Y662695D01*
X1043322D01*
Y662728D01*
X1043305D01*
Y662762D01*
X1043289D01*
Y662795D01*
X1043272D01*
Y662829D01*
X1043255D01*
Y662879D01*
X1043238D01*
Y662913D01*
X1043221D01*
Y662947D01*
X1043205D01*
Y662997D01*
X1043188D01*
Y663048D01*
X1043171D01*
Y663098D01*
X1043154D01*
Y663148D01*
X1043137D01*
Y663199D01*
X1043121D01*
Y663266D01*
X1043104D01*
Y663333D01*
X1043087D01*
Y663400D01*
X1043070D01*
Y663484D01*
X1043053D01*
Y663585D01*
X1043037D01*
Y663737D01*
X1043020D01*
Y664442D01*
X1043037D01*
Y664577D01*
X1043053D01*
Y664678D01*
X1043070D01*
Y664779D01*
X1043087D01*
Y664846D01*
X1043104D01*
Y664913D01*
X1043121D01*
Y664980D01*
X1043137D01*
Y665048D01*
X1043154D01*
Y665098D01*
X1043171D01*
Y665148D01*
X1043188D01*
Y665199D01*
X1043205D01*
Y665233D01*
X1043221D01*
Y665283D01*
X1043238D01*
Y665316D01*
X1043255D01*
Y665367D01*
X1043272D01*
Y665401D01*
X1043289D01*
Y665434D01*
X1043305D01*
Y665468D01*
X1043322D01*
Y665501D01*
X1043339D01*
Y665535D01*
X1043356D01*
Y665569D01*
X1043373D01*
Y665602D01*
X1043390D01*
Y665636D01*
X1043406D01*
Y665669D01*
X1043423D01*
Y665686D01*
X1043440D01*
Y665720D01*
X1043457D01*
Y665754D01*
X1043474D01*
Y665770D01*
X1043490D01*
Y665804D01*
X1043507D01*
Y665821D01*
X1043524D01*
Y665854D01*
X1043541D01*
Y665871D01*
X1043558D01*
Y665888D01*
X1043574D01*
Y665922D01*
X1043591D01*
Y665938D01*
X1043608D01*
Y665972D01*
X1043625D01*
Y665989D01*
X1043642D01*
Y666006D01*
X1043659D01*
Y666022D01*
X1043675D01*
Y666056D01*
X1043692D01*
Y666073D01*
X1043709D01*
Y666090D01*
X1043726D01*
Y666107D01*
X1043742D01*
Y666123D01*
X1043759D01*
Y666157D01*
X1043776D01*
Y666174D01*
X1043793D01*
Y666191D01*
X1043810D01*
Y666207D01*
X1043826D01*
Y666224D01*
X1043843D01*
Y666241D01*
X1043860D01*
Y666258D01*
X1043877D01*
Y666275D01*
X1043894D01*
Y666291D01*
X1043911D01*
Y666308D01*
X1043927D01*
Y666325D01*
X1043944D01*
Y666342D01*
X1043961D01*
Y666359D01*
X1043978D01*
Y666375D01*
X1043995D01*
Y666392D01*
X1044028D01*
Y666409D01*
X1044045D01*
Y666426D01*
X1044062D01*
Y666443D01*
X1044079D01*
Y666460D01*
X1044096D01*
Y666476D01*
X1044129D01*
Y666493D01*
X1044146D01*
Y666510D01*
X1044163D01*
Y666527D01*
X1044196D01*
Y666543D01*
X1044213D01*
Y666560D01*
X1044230D01*
Y666577D01*
X1044264D01*
Y666594D01*
X1044280D01*
Y666611D01*
X1044314D01*
Y666628D01*
X1044348D01*
Y666644D01*
X1044364D01*
Y666661D01*
X1044398D01*
Y666678D01*
X1044432D01*
Y666695D01*
X1044465D01*
Y666712D01*
X1044499D01*
Y666728D01*
X1044532D01*
Y666745D01*
X1044566D01*
Y666762D01*
X1044600D01*
Y666779D01*
X1044633D01*
Y666796D01*
X1044684D01*
Y666813D01*
X1044734D01*
Y666829D01*
X1044785D01*
Y666846D01*
X1044835D01*
Y666863D01*
X1044902D01*
Y666880D01*
X1044969D01*
Y666896D01*
X1045070D01*
Y666913D01*
X1045205D01*
Y666930D01*
X1045591D01*
Y666913D01*
X1045726D01*
Y666896D01*
X1045810D01*
Y666880D01*
X1045877D01*
Y666863D01*
X1045944D01*
Y666846D01*
X1045995D01*
Y666829D01*
X1046045D01*
Y666813D01*
X1046096D01*
Y666796D01*
X1046129D01*
Y666779D01*
X1046180D01*
Y666762D01*
X1046213D01*
Y666745D01*
X1046247D01*
Y666728D01*
X1046280D01*
Y666712D01*
X1046314D01*
Y666695D01*
X1046348D01*
Y666678D01*
X1046365D01*
Y666661D01*
X1046398D01*
Y666644D01*
X1046432D01*
Y666628D01*
X1046449D01*
Y666611D01*
X1046482D01*
Y666594D01*
X1046499D01*
Y666577D01*
X1046533D01*
Y666560D01*
X1046550D01*
Y666543D01*
X1046583D01*
Y666527D01*
X1046600D01*
Y666510D01*
X1046617D01*
Y666493D01*
X1046650D01*
Y666476D01*
X1046667D01*
Y666460D01*
X1046684D01*
Y666443D01*
X1046701D01*
Y666426D01*
X1046717D01*
Y666409D01*
X1046751D01*
Y666392D01*
X1046768D01*
Y666375D01*
X1046785D01*
Y666359D01*
X1046802D01*
Y666342D01*
X1046818D01*
Y666325D01*
X1046835D01*
Y666308D01*
X1046852D01*
Y666291D01*
X1046869D01*
Y666275D01*
X1046886D01*
Y666258D01*
X1046902D01*
Y666241D01*
X1046919D01*
Y666224D01*
X1046936D01*
Y666207D01*
X1046953D01*
Y666191D01*
X1046970D01*
Y666174D01*
X1046986D01*
Y666157D01*
X1047003D01*
Y666123D01*
X1047020D01*
Y666107D01*
X1047037D01*
Y669821D01*
X1048667D01*
Y661400D01*
D02*
G37*
G36*
X1061122Y666913D02*
X1061257D01*
Y666896D01*
X1061357D01*
Y666880D01*
X1061425D01*
Y666863D01*
X1061492D01*
Y666846D01*
X1061559D01*
Y666829D01*
X1061609D01*
Y666813D01*
X1061643D01*
Y666796D01*
X1061694D01*
Y666779D01*
X1061727D01*
Y666762D01*
X1061778D01*
Y666745D01*
X1061811D01*
Y666728D01*
X1061845D01*
Y666712D01*
X1061878D01*
Y666695D01*
X1061912D01*
Y666678D01*
X1061946D01*
Y666661D01*
X1061963D01*
Y666644D01*
X1061996D01*
Y666628D01*
X1062030D01*
Y666611D01*
X1062047D01*
Y666594D01*
X1062080D01*
Y666577D01*
X1062097D01*
Y666560D01*
X1062131D01*
Y666543D01*
X1062147D01*
Y666527D01*
X1062181D01*
Y666510D01*
X1062198D01*
Y666493D01*
X1062215D01*
Y666476D01*
X1062231D01*
Y666460D01*
X1062265D01*
Y666443D01*
X1062282D01*
Y666426D01*
X1062299D01*
Y666409D01*
X1062315D01*
Y666392D01*
X1062332D01*
Y666375D01*
X1062366D01*
Y666359D01*
X1062383D01*
Y666342D01*
X1062399D01*
Y666325D01*
X1062416D01*
Y666308D01*
X1062433D01*
Y666291D01*
X1062450D01*
Y666275D01*
X1062467D01*
Y666258D01*
X1062484D01*
Y666241D01*
X1062500D01*
Y666224D01*
X1062517D01*
Y666207D01*
X1062534D01*
Y666191D01*
X1062551D01*
Y666174D01*
X1062568D01*
Y666140D01*
X1062584D01*
Y666123D01*
X1062601D01*
Y666107D01*
X1062618D01*
Y666090D01*
X1062635D01*
Y666073D01*
X1062652D01*
Y666056D01*
X1062668D01*
Y666022D01*
X1062685D01*
Y666006D01*
X1062702D01*
Y665989D01*
X1062719D01*
Y665972D01*
X1062736D01*
Y665938D01*
X1062753D01*
Y665922D01*
X1062769D01*
Y665888D01*
X1062786D01*
Y665871D01*
X1062803D01*
Y665854D01*
X1062820D01*
Y665821D01*
X1062836D01*
Y665804D01*
X1062853D01*
Y665770D01*
X1062870D01*
Y665754D01*
X1062887D01*
Y665720D01*
X1062904D01*
Y665686D01*
X1062921D01*
Y665669D01*
X1062937D01*
Y665636D01*
X1062954D01*
Y665602D01*
X1062971D01*
Y665569D01*
X1062988D01*
Y665535D01*
X1063005D01*
Y665501D01*
X1063021D01*
Y665468D01*
X1063038D01*
Y665434D01*
X1063055D01*
Y665401D01*
X1063072D01*
Y665367D01*
X1063089D01*
Y665333D01*
X1063105D01*
Y665283D01*
X1063122D01*
Y665249D01*
X1063139D01*
Y665199D01*
X1063156D01*
Y665148D01*
X1063173D01*
Y665098D01*
X1063190D01*
Y665048D01*
X1063206D01*
Y664980D01*
X1063223D01*
Y664913D01*
X1063240D01*
Y664846D01*
X1063257D01*
Y664762D01*
X1063274D01*
Y664678D01*
X1063290D01*
Y664560D01*
X1063307D01*
Y664392D01*
X1063324D01*
Y663821D01*
X1063307D01*
Y663653D01*
X1063290D01*
Y663518D01*
X1063274D01*
Y663434D01*
X1063257D01*
Y663350D01*
X1063240D01*
Y663266D01*
X1063223D01*
Y663199D01*
X1063206D01*
Y663148D01*
X1063190D01*
Y663081D01*
X1063173D01*
Y663031D01*
X1063156D01*
Y662980D01*
X1063139D01*
Y662947D01*
X1063122D01*
Y662896D01*
X1063105D01*
Y662863D01*
X1063089D01*
Y662812D01*
X1063072D01*
Y662779D01*
X1063055D01*
Y662745D01*
X1063038D01*
Y662695D01*
X1063021D01*
Y662661D01*
X1063005D01*
Y662627D01*
X1062988D01*
Y662610D01*
X1062971D01*
Y662577D01*
X1062954D01*
Y662543D01*
X1062937D01*
Y662510D01*
X1062921D01*
Y662476D01*
X1062904D01*
Y662459D01*
X1062887D01*
Y662426D01*
X1062870D01*
Y662392D01*
X1062853D01*
Y662375D01*
X1062836D01*
Y662341D01*
X1062820D01*
Y662325D01*
X1062803D01*
Y662291D01*
X1062786D01*
Y662274D01*
X1062769D01*
Y662257D01*
X1062753D01*
Y662224D01*
X1062736D01*
Y662207D01*
X1062719D01*
Y662190D01*
X1062702D01*
Y662157D01*
X1062685D01*
Y662140D01*
X1062668D01*
Y662123D01*
X1062652D01*
Y662106D01*
X1062635D01*
Y662073D01*
X1062618D01*
Y662056D01*
X1062601D01*
Y662039D01*
X1062584D01*
Y662022D01*
X1062568D01*
Y662005D01*
X1062551D01*
Y661988D01*
X1062534D01*
Y661972D01*
X1062517D01*
Y661955D01*
X1062500D01*
Y661921D01*
X1062484D01*
Y661904D01*
X1062467D01*
Y661888D01*
X1062433D01*
Y661871D01*
X1062416D01*
Y661854D01*
X1062399D01*
Y661837D01*
X1062383D01*
Y661820D01*
X1062366D01*
Y661804D01*
X1062349D01*
Y661787D01*
X1062332D01*
Y661770D01*
X1062315D01*
Y661753D01*
X1062282D01*
Y661736D01*
X1062265D01*
Y661720D01*
X1062248D01*
Y661703D01*
X1062231D01*
Y661686D01*
X1062198D01*
Y661669D01*
X1062181D01*
Y661652D01*
X1062147D01*
Y661636D01*
X1062131D01*
Y661619D01*
X1062114D01*
Y661602D01*
X1062080D01*
Y661585D01*
X1062047D01*
Y661568D01*
X1062030D01*
Y661552D01*
X1061996D01*
Y661535D01*
X1061963D01*
Y661518D01*
X1061929D01*
Y661501D01*
X1061895D01*
Y661484D01*
X1061862D01*
Y661468D01*
X1061828D01*
Y661451D01*
X1061794D01*
Y661434D01*
X1061744D01*
Y661417D01*
X1061694D01*
Y661400D01*
X1061643D01*
Y661383D01*
X1061593D01*
Y661367D01*
X1061526D01*
Y661350D01*
X1061458D01*
Y661333D01*
X1061374D01*
Y661316D01*
X1061240D01*
Y661299D01*
X1060820D01*
Y661316D01*
X1060685D01*
Y661333D01*
X1060584D01*
Y661350D01*
X1060517D01*
Y661367D01*
X1060450D01*
Y661383D01*
X1060399D01*
Y661400D01*
X1060349D01*
Y661417D01*
X1060299D01*
Y661434D01*
X1060265D01*
Y661451D01*
X1060231D01*
Y661468D01*
X1060198D01*
Y661484D01*
X1060164D01*
Y661501D01*
X1060130D01*
Y661518D01*
X1060097D01*
Y661535D01*
X1060080D01*
Y661552D01*
X1060046D01*
Y661568D01*
X1060030D01*
Y661585D01*
X1059996D01*
Y661602D01*
X1059979D01*
Y661619D01*
X1059962D01*
Y661636D01*
X1059929D01*
Y661652D01*
X1059912D01*
Y661669D01*
X1059895D01*
Y661686D01*
X1059878D01*
Y661703D01*
X1059845D01*
Y661720D01*
X1059828D01*
Y661736D01*
X1059811D01*
Y661753D01*
X1059794D01*
Y661770D01*
X1059777D01*
Y661787D01*
X1059761D01*
Y661804D01*
X1059744D01*
Y661820D01*
X1059727D01*
Y661837D01*
X1059710D01*
Y661854D01*
X1059693D01*
Y661871D01*
X1059677D01*
Y661888D01*
X1059660D01*
Y661904D01*
X1059643D01*
Y661921D01*
X1059626D01*
Y661938D01*
X1059609D01*
Y661955D01*
X1059593D01*
Y661972D01*
X1059576D01*
Y662005D01*
X1059559D01*
Y662022D01*
X1059542D01*
Y662039D01*
X1059525D01*
Y662056D01*
X1059509D01*
Y662073D01*
X1059492D01*
Y662106D01*
X1059475D01*
Y662123D01*
X1059458D01*
Y662140D01*
X1059441D01*
Y662157D01*
X1059424D01*
Y662190D01*
X1059408D01*
Y662207D01*
X1059391D01*
Y662224D01*
X1059374D01*
Y662257D01*
X1059357D01*
Y662274D01*
X1059340D01*
Y662308D01*
X1059324D01*
Y662325D01*
X1059290D01*
Y661400D01*
X1057676D01*
Y661888D01*
Y661904D01*
Y666829D01*
X1059290D01*
Y666090D01*
X1059307D01*
Y666107D01*
X1059324D01*
Y666123D01*
X1059340D01*
Y666140D01*
X1059357D01*
Y666157D01*
X1059374D01*
Y666174D01*
X1059391D01*
Y666191D01*
X1059408D01*
Y666207D01*
X1059424D01*
Y666224D01*
X1059441D01*
Y666241D01*
X1059458D01*
Y666258D01*
X1059475D01*
Y666275D01*
X1059492D01*
Y666291D01*
X1059509D01*
Y666308D01*
X1059525D01*
Y666325D01*
X1059542D01*
Y666342D01*
X1059576D01*
Y666359D01*
X1059593D01*
Y666375D01*
X1059609D01*
Y666392D01*
X1059626D01*
Y666409D01*
X1059643D01*
Y666426D01*
X1059660D01*
Y666443D01*
X1059677D01*
Y666460D01*
X1059710D01*
Y666476D01*
X1059727D01*
Y666493D01*
X1059744D01*
Y666510D01*
X1059761D01*
Y666527D01*
X1059794D01*
Y666543D01*
X1059811D01*
Y666560D01*
X1059828D01*
Y666577D01*
X1059861D01*
Y666594D01*
X1059878D01*
Y666611D01*
X1059912D01*
Y666628D01*
X1059929D01*
Y666644D01*
X1059962D01*
Y666661D01*
X1059979D01*
Y666678D01*
X1060013D01*
Y666695D01*
X1060046D01*
Y666712D01*
X1060063D01*
Y666728D01*
X1060097D01*
Y666745D01*
X1060130D01*
Y666762D01*
X1060164D01*
Y666779D01*
X1060198D01*
Y666796D01*
X1060248D01*
Y666813D01*
X1060282D01*
Y666829D01*
X1060332D01*
Y666846D01*
X1060382D01*
Y666863D01*
X1060433D01*
Y666880D01*
X1060517D01*
Y666896D01*
X1060601D01*
Y666913D01*
X1060736D01*
Y666930D01*
X1061122D01*
Y666913D01*
D02*
G37*
G36*
X1066803Y669788D02*
X1066988D01*
Y669771D01*
X1067123D01*
Y669754D01*
X1067240D01*
Y669737D01*
X1067324D01*
Y669720D01*
X1067408D01*
Y669703D01*
X1067492D01*
Y669687D01*
X1067560D01*
Y669670D01*
X1067610D01*
Y669653D01*
X1067677D01*
Y669636D01*
X1067728D01*
Y669619D01*
X1067778D01*
Y669603D01*
X1067828D01*
Y669586D01*
X1067879D01*
Y669569D01*
X1067929D01*
Y669552D01*
X1067963D01*
Y669535D01*
X1068013D01*
Y669519D01*
X1068047D01*
Y669502D01*
X1068097D01*
Y669485D01*
X1068131D01*
Y669468D01*
X1068165D01*
Y669451D01*
X1068198D01*
Y669434D01*
X1068232D01*
Y669418D01*
X1068266D01*
Y669401D01*
X1068299D01*
Y669384D01*
X1068333D01*
Y669367D01*
X1068366D01*
Y669350D01*
X1068400D01*
Y669334D01*
X1068434D01*
Y669317D01*
X1068467D01*
Y669300D01*
X1068484D01*
Y669283D01*
X1068518D01*
Y669266D01*
X1068551D01*
Y669250D01*
X1068568D01*
Y669233D01*
X1068602D01*
Y669216D01*
X1068635D01*
Y669199D01*
X1068652D01*
Y669182D01*
X1068686D01*
Y669166D01*
X1068703D01*
Y669149D01*
X1068736D01*
Y669132D01*
X1068753D01*
Y669115D01*
X1068787D01*
Y669098D01*
X1068803D01*
Y669082D01*
X1068820D01*
Y669065D01*
X1068854D01*
Y669048D01*
X1068871D01*
Y669031D01*
X1068887D01*
Y669014D01*
X1068921D01*
Y668997D01*
X1068938D01*
Y668981D01*
X1068955D01*
Y668964D01*
X1068972D01*
Y668947D01*
X1069005D01*
Y668930D01*
X1069022D01*
Y668914D01*
X1069039D01*
Y668897D01*
X1069055D01*
Y668880D01*
X1069072D01*
Y668863D01*
X1069106D01*
Y668846D01*
X1069123D01*
Y668829D01*
X1069140D01*
Y668813D01*
X1069156D01*
Y668796D01*
X1069173D01*
Y668779D01*
X1069190D01*
Y668762D01*
X1069207D01*
Y668745D01*
X1069224D01*
Y668729D01*
X1069240D01*
Y668712D01*
X1069257D01*
Y668695D01*
X1069291D01*
Y668678D01*
X1069308D01*
Y668661D01*
X1069324D01*
Y668645D01*
X1069341D01*
Y668628D01*
X1069358D01*
Y668611D01*
X1069375D01*
Y668577D01*
X1069392D01*
Y668561D01*
X1069409D01*
Y668544D01*
X1069425D01*
Y668527D01*
X1069442D01*
Y668510D01*
X1069459D01*
Y668493D01*
X1069476D01*
Y668476D01*
X1069493D01*
Y668460D01*
X1069509D01*
Y668443D01*
X1069526D01*
Y668426D01*
X1069543D01*
Y668409D01*
X1069560D01*
Y668376D01*
X1069577D01*
Y668359D01*
X1069593D01*
Y668342D01*
X1069610D01*
Y668325D01*
X1069627D01*
Y668308D01*
X1069644D01*
Y668275D01*
X1069661D01*
Y668258D01*
X1069677D01*
Y668241D01*
X1069694D01*
Y668224D01*
X1069711D01*
Y668191D01*
X1069728D01*
Y668174D01*
X1069745D01*
Y668157D01*
X1069761D01*
Y668123D01*
X1069778D01*
Y668107D01*
X1069795D01*
Y668090D01*
X1069812D01*
Y668056D01*
X1069829D01*
Y668040D01*
X1069845D01*
Y668006D01*
X1069862D01*
Y667989D01*
X1069879D01*
Y667955D01*
X1069896D01*
Y667939D01*
X1069913D01*
Y667905D01*
X1069930D01*
Y667888D01*
X1069946D01*
Y667855D01*
X1069963D01*
Y667838D01*
X1069980D01*
Y667804D01*
X1069997D01*
Y667770D01*
X1070014D01*
Y667754D01*
X1070030D01*
Y667720D01*
X1070047D01*
Y667687D01*
X1070064D01*
Y667653D01*
X1070081D01*
Y667636D01*
X1070098D01*
Y667602D01*
X1070114D01*
Y667569D01*
X1070131D01*
Y667535D01*
X1070148D01*
Y667502D01*
X1070165D01*
Y667468D01*
X1070182D01*
Y667434D01*
X1070199D01*
Y667401D01*
X1070215D01*
Y667350D01*
X1070232D01*
Y667317D01*
X1070249D01*
Y667283D01*
X1070266D01*
Y667233D01*
X1070282D01*
Y667199D01*
X1070299D01*
Y667149D01*
X1070316D01*
Y667115D01*
X1070333D01*
Y667065D01*
X1070350D01*
Y667014D01*
X1070367D01*
Y666964D01*
X1070383D01*
Y666913D01*
X1070400D01*
Y666863D01*
X1070417D01*
Y666796D01*
X1070434D01*
Y666745D01*
X1070451D01*
Y666678D01*
X1070467D01*
Y666611D01*
X1070484D01*
Y666527D01*
X1070501D01*
Y666460D01*
X1070518D01*
Y666359D01*
X1070535D01*
Y666258D01*
X1070551D01*
Y666140D01*
X1070568D01*
Y665972D01*
X1070585D01*
Y665703D01*
X1070602D01*
Y665316D01*
X1070585D01*
Y665048D01*
X1070568D01*
Y664896D01*
X1070551D01*
Y664762D01*
X1070535D01*
Y664661D01*
X1070518D01*
Y664577D01*
X1070501D01*
Y664493D01*
X1070484D01*
Y664426D01*
X1070467D01*
Y664342D01*
X1070451D01*
Y664291D01*
X1070434D01*
Y664224D01*
X1070417D01*
Y664174D01*
X1070400D01*
Y664106D01*
X1070383D01*
Y664056D01*
X1070367D01*
Y664006D01*
X1070350D01*
Y663972D01*
X1070333D01*
Y663921D01*
X1070316D01*
Y663871D01*
X1070299D01*
Y663837D01*
X1070282D01*
Y663787D01*
X1070266D01*
Y663753D01*
X1070249D01*
Y663720D01*
X1070232D01*
Y663669D01*
X1070215D01*
Y663636D01*
X1070199D01*
Y663602D01*
X1070182D01*
Y663568D01*
X1070165D01*
Y663535D01*
X1070148D01*
Y663501D01*
X1070131D01*
Y663468D01*
X1070114D01*
Y663434D01*
X1070098D01*
Y663400D01*
X1070081D01*
Y663384D01*
X1070064D01*
Y663350D01*
X1070047D01*
Y663316D01*
X1070030D01*
Y663283D01*
X1070014D01*
Y663266D01*
X1069997D01*
Y663232D01*
X1069980D01*
Y663199D01*
X1069963D01*
Y663182D01*
X1069946D01*
Y663148D01*
X1069930D01*
Y663132D01*
X1069913D01*
Y663098D01*
X1069896D01*
Y663081D01*
X1069879D01*
Y663048D01*
X1069862D01*
Y663031D01*
X1069845D01*
Y662997D01*
X1069829D01*
Y662980D01*
X1069812D01*
Y662963D01*
X1069795D01*
Y662930D01*
X1069778D01*
Y662913D01*
X1069761D01*
Y662896D01*
X1069745D01*
Y662863D01*
X1069728D01*
Y662846D01*
X1069711D01*
Y662829D01*
X1069694D01*
Y662795D01*
X1069677D01*
Y662779D01*
X1069661D01*
Y662762D01*
X1069644D01*
Y662745D01*
X1069627D01*
Y662711D01*
X1069610D01*
Y662695D01*
X1069593D01*
Y662678D01*
X1069577D01*
Y662661D01*
X1069560D01*
Y662644D01*
X1069543D01*
Y662627D01*
X1069526D01*
Y662610D01*
X1069509D01*
Y662577D01*
X1069493D01*
Y662560D01*
X1069476D01*
Y662543D01*
X1069459D01*
Y662526D01*
X1069442D01*
Y662510D01*
X1069425D01*
Y662493D01*
X1069409D01*
Y662476D01*
X1069392D01*
Y662459D01*
X1069375D01*
Y662442D01*
X1069358D01*
Y662426D01*
X1069341D01*
Y662409D01*
X1069324D01*
Y662392D01*
X1069308D01*
Y662375D01*
X1069291D01*
Y662358D01*
X1069274D01*
Y662341D01*
X1069257D01*
Y662325D01*
X1069240D01*
Y662308D01*
X1069224D01*
Y662291D01*
X1069207D01*
Y662274D01*
X1069173D01*
Y662257D01*
X1069156D01*
Y662241D01*
X1069140D01*
Y662224D01*
X1069123D01*
Y662207D01*
X1069106D01*
Y662190D01*
X1069089D01*
Y662173D01*
X1069072D01*
Y662157D01*
X1069039D01*
Y662140D01*
X1069022D01*
Y662123D01*
X1069005D01*
Y662106D01*
X1068988D01*
Y662089D01*
X1068955D01*
Y662073D01*
X1068938D01*
Y662056D01*
X1068921D01*
Y662039D01*
X1068887D01*
Y662022D01*
X1068871D01*
Y662005D01*
X1068854D01*
Y661988D01*
X1068820D01*
Y661972D01*
X1068803D01*
Y661955D01*
X1068787D01*
Y661938D01*
X1068753D01*
Y661921D01*
X1068736D01*
Y661904D01*
X1068703D01*
Y661888D01*
X1068686D01*
Y661871D01*
X1068652D01*
Y661854D01*
X1068618D01*
Y661837D01*
X1068602D01*
Y661820D01*
X1068568D01*
Y661804D01*
X1068551D01*
Y661787D01*
X1068518D01*
Y661770D01*
X1068484D01*
Y661753D01*
X1068450D01*
Y661736D01*
X1068417D01*
Y661720D01*
X1068400D01*
Y661703D01*
X1068366D01*
Y661686D01*
X1068333D01*
Y661669D01*
X1068299D01*
Y661652D01*
X1068266D01*
Y661636D01*
X1068232D01*
Y661619D01*
X1068182D01*
Y661602D01*
X1068148D01*
Y661585D01*
X1068114D01*
Y661568D01*
X1068064D01*
Y661552D01*
X1068030D01*
Y661535D01*
X1067980D01*
Y661518D01*
X1067946D01*
Y661501D01*
X1067896D01*
Y661484D01*
X1067845D01*
Y661468D01*
X1067795D01*
Y661451D01*
X1067745D01*
Y661434D01*
X1067677D01*
Y661417D01*
X1067610D01*
Y661400D01*
X1067543D01*
Y661383D01*
X1067476D01*
Y661367D01*
X1067391D01*
Y661350D01*
X1067307D01*
Y661333D01*
X1067207D01*
Y661316D01*
X1067072D01*
Y661299D01*
X1066870D01*
Y661283D01*
X1066316D01*
Y661299D01*
X1066114D01*
Y661316D01*
X1065963D01*
Y661333D01*
X1065845D01*
Y661350D01*
X1065744D01*
Y661367D01*
X1065644D01*
Y661383D01*
X1065559D01*
Y661400D01*
X1065459D01*
Y661417D01*
X1065391D01*
Y661434D01*
X1065307D01*
Y661451D01*
X1065240D01*
Y661468D01*
X1065156D01*
Y661484D01*
X1065089D01*
Y661501D01*
X1065022D01*
Y661518D01*
X1064971D01*
Y661535D01*
X1064904D01*
Y661552D01*
X1064837D01*
Y661568D01*
X1064769D01*
Y661585D01*
X1064719D01*
Y661602D01*
X1064652D01*
Y661619D01*
X1064601D01*
Y661636D01*
X1064551D01*
Y661652D01*
X1064484D01*
Y661669D01*
X1064433D01*
Y661686D01*
X1064383D01*
Y661703D01*
X1064332D01*
Y661720D01*
X1064282D01*
Y661736D01*
X1064232D01*
Y661753D01*
X1064181D01*
Y661770D01*
X1064164D01*
Y663787D01*
X1064181D01*
Y663770D01*
X1064215D01*
Y663753D01*
X1064232D01*
Y663737D01*
X1064265D01*
Y663720D01*
X1064299D01*
Y663703D01*
X1064332D01*
Y663686D01*
X1064349D01*
Y663669D01*
X1064383D01*
Y663653D01*
X1064417D01*
Y663636D01*
X1064450D01*
Y663619D01*
X1064484D01*
Y663602D01*
X1064517D01*
Y663585D01*
X1064551D01*
Y663568D01*
X1064585D01*
Y663552D01*
X1064618D01*
Y663535D01*
X1064652D01*
Y663518D01*
X1064685D01*
Y663501D01*
X1064719D01*
Y663484D01*
X1064753D01*
Y663468D01*
X1064786D01*
Y663451D01*
X1064820D01*
Y663434D01*
X1064853D01*
Y663417D01*
X1064887D01*
Y663400D01*
X1064937D01*
Y663384D01*
X1064971D01*
Y663367D01*
X1065005D01*
Y663350D01*
X1065055D01*
Y663333D01*
X1065089D01*
Y663316D01*
X1065139D01*
Y663300D01*
X1065173D01*
Y663283D01*
X1065223D01*
Y663266D01*
X1065274D01*
Y663249D01*
X1065307D01*
Y663232D01*
X1065358D01*
Y663215D01*
X1065408D01*
Y663199D01*
X1065459D01*
Y663182D01*
X1065526D01*
Y663165D01*
X1065576D01*
Y663148D01*
X1065644D01*
Y663132D01*
X1065711D01*
Y663115D01*
X1065778D01*
Y663098D01*
X1065845D01*
Y663081D01*
X1065946D01*
Y663064D01*
X1066047D01*
Y663048D01*
X1066198D01*
Y663031D01*
X1066618D01*
Y663048D01*
X1066786D01*
Y663064D01*
X1066887D01*
Y663081D01*
X1066988D01*
Y663098D01*
X1067055D01*
Y663115D01*
X1067123D01*
Y663132D01*
X1067173D01*
Y663148D01*
X1067240D01*
Y663165D01*
X1067274D01*
Y663182D01*
X1067324D01*
Y663199D01*
X1067375D01*
Y663215D01*
X1067408D01*
Y663232D01*
X1067459D01*
Y663249D01*
X1067492D01*
Y663266D01*
X1067526D01*
Y663283D01*
X1067560D01*
Y663300D01*
X1067593D01*
Y663316D01*
X1067610D01*
Y663333D01*
X1067644D01*
Y663350D01*
X1067677D01*
Y663367D01*
X1067694D01*
Y663384D01*
X1067728D01*
Y663400D01*
X1067761D01*
Y663417D01*
X1067778D01*
Y663434D01*
X1067795D01*
Y663451D01*
X1067828D01*
Y663468D01*
X1067845D01*
Y663484D01*
X1067862D01*
Y663501D01*
X1067896D01*
Y663518D01*
X1067913D01*
Y663535D01*
X1067929D01*
Y663552D01*
X1067946D01*
Y663568D01*
X1067963D01*
Y663585D01*
X1067980D01*
Y663602D01*
X1068013D01*
Y663619D01*
X1068030D01*
Y663636D01*
X1068047D01*
Y663653D01*
X1068064D01*
Y663669D01*
X1068081D01*
Y663686D01*
X1068097D01*
Y663703D01*
X1068114D01*
Y663720D01*
X1068131D01*
Y663753D01*
X1068148D01*
Y663770D01*
X1068165D01*
Y663787D01*
X1068182D01*
Y663804D01*
X1068198D01*
Y663821D01*
X1068215D01*
Y663837D01*
X1068232D01*
Y663871D01*
X1068249D01*
Y663888D01*
X1068266D01*
Y663905D01*
X1068282D01*
Y663938D01*
X1068299D01*
Y663955D01*
X1068316D01*
Y663989D01*
X1068333D01*
Y664006D01*
X1068350D01*
Y664039D01*
X1068366D01*
Y664056D01*
X1068383D01*
Y664089D01*
X1068400D01*
Y664123D01*
X1068417D01*
Y664140D01*
X1068434D01*
Y664174D01*
X1068450D01*
Y664207D01*
X1068467D01*
Y664241D01*
X1068484D01*
Y664274D01*
X1068501D01*
Y664308D01*
X1068518D01*
Y664359D01*
X1068534D01*
Y664392D01*
X1068551D01*
Y664442D01*
X1068568D01*
Y664476D01*
X1068585D01*
Y664527D01*
X1068602D01*
Y664577D01*
X1068618D01*
Y664644D01*
X1068635D01*
Y664711D01*
X1068652D01*
Y664779D01*
X1068669D01*
Y664846D01*
X1068686D01*
Y664947D01*
X1068703D01*
Y665064D01*
X1068719D01*
Y665249D01*
X1068736D01*
Y665737D01*
X1068719D01*
Y665922D01*
X1068703D01*
Y666056D01*
X1068686D01*
Y666157D01*
X1068669D01*
Y666241D01*
X1068652D01*
Y666308D01*
X1068635D01*
Y666375D01*
X1068618D01*
Y666443D01*
X1068602D01*
Y666493D01*
X1068585D01*
Y666543D01*
X1068568D01*
Y666594D01*
X1068551D01*
Y666644D01*
X1068534D01*
Y666678D01*
X1068518D01*
Y666728D01*
X1068501D01*
Y666762D01*
X1068484D01*
Y666796D01*
X1068467D01*
Y666846D01*
X1068450D01*
Y666880D01*
X1068434D01*
Y666913D01*
X1068417D01*
Y666930D01*
X1068400D01*
Y666964D01*
X1068383D01*
Y666997D01*
X1068366D01*
Y667031D01*
X1068350D01*
Y667048D01*
X1068333D01*
Y667081D01*
X1068316D01*
Y667115D01*
X1068299D01*
Y667132D01*
X1068282D01*
Y667149D01*
X1068266D01*
Y667182D01*
X1068249D01*
Y667199D01*
X1068232D01*
Y667233D01*
X1068215D01*
Y667249D01*
X1068198D01*
Y667266D01*
X1068182D01*
Y667283D01*
X1068165D01*
Y667317D01*
X1068148D01*
Y667334D01*
X1068131D01*
Y667350D01*
X1068114D01*
Y667367D01*
X1068097D01*
Y667384D01*
X1068081D01*
Y667401D01*
X1068064D01*
Y667418D01*
X1068047D01*
Y667434D01*
X1068030D01*
Y667451D01*
X1068013D01*
Y667468D01*
X1067997D01*
Y667485D01*
X1067980D01*
Y667502D01*
X1067963D01*
Y667518D01*
X1067946D01*
Y667535D01*
X1067929D01*
Y667552D01*
X1067913D01*
Y667569D01*
X1067896D01*
Y667586D01*
X1067862D01*
Y667602D01*
X1067845D01*
Y667619D01*
X1067828D01*
Y667636D01*
X1067795D01*
Y667653D01*
X1067778D01*
Y667670D01*
X1067761D01*
Y667687D01*
X1067728D01*
Y667703D01*
X1067711D01*
Y667720D01*
X1067677D01*
Y667737D01*
X1067661D01*
Y667754D01*
X1067627D01*
Y667770D01*
X1067593D01*
Y667787D01*
X1067560D01*
Y667804D01*
X1067526D01*
Y667821D01*
X1067492D01*
Y667838D01*
X1067459D01*
Y667855D01*
X1067425D01*
Y667871D01*
X1067391D01*
Y667888D01*
X1067341D01*
Y667905D01*
X1067291D01*
Y667922D01*
X1067240D01*
Y667939D01*
X1067190D01*
Y667955D01*
X1067123D01*
Y667972D01*
X1067055D01*
Y667989D01*
X1066971D01*
Y668006D01*
X1066870D01*
Y668023D01*
X1066719D01*
Y668040D01*
X1066316D01*
Y668023D01*
X1066148D01*
Y668006D01*
X1066047D01*
Y667989D01*
X1065946D01*
Y667972D01*
X1065879D01*
Y667955D01*
X1065795D01*
Y667939D01*
X1065728D01*
Y667922D01*
X1065677D01*
Y667905D01*
X1065610D01*
Y667888D01*
X1065559D01*
Y667871D01*
X1065509D01*
Y667855D01*
X1065459D01*
Y667838D01*
X1065408D01*
Y667821D01*
X1065358D01*
Y667804D01*
X1065307D01*
Y667787D01*
X1065257D01*
Y667770D01*
X1065223D01*
Y667754D01*
X1065173D01*
Y667737D01*
X1065139D01*
Y667720D01*
X1065089D01*
Y667703D01*
X1065055D01*
Y667687D01*
X1065022D01*
Y667670D01*
X1064971D01*
Y667653D01*
X1064937D01*
Y667636D01*
X1064904D01*
Y667619D01*
X1064870D01*
Y667602D01*
X1064837D01*
Y667586D01*
X1064803D01*
Y667569D01*
X1064769D01*
Y667552D01*
X1064736D01*
Y667535D01*
X1064702D01*
Y667518D01*
X1064669D01*
Y667502D01*
X1064635D01*
Y667485D01*
X1064601D01*
Y667468D01*
X1064568D01*
Y667451D01*
X1064534D01*
Y667434D01*
X1064501D01*
Y667418D01*
X1064467D01*
Y667401D01*
X1064433D01*
Y667384D01*
X1064417D01*
Y667367D01*
X1064383D01*
Y667350D01*
X1064349D01*
Y667334D01*
X1064316D01*
Y667317D01*
X1064299D01*
Y667300D01*
X1064265D01*
Y667283D01*
X1064232D01*
Y667266D01*
X1064198D01*
Y667249D01*
X1064181D01*
Y667233D01*
X1064164D01*
Y669250D01*
X1064181D01*
Y669266D01*
X1064215D01*
Y669283D01*
X1064248D01*
Y669300D01*
X1064282D01*
Y669317D01*
X1064332D01*
Y669334D01*
X1064366D01*
Y669350D01*
X1064417D01*
Y669367D01*
X1064450D01*
Y669384D01*
X1064501D01*
Y669401D01*
X1064534D01*
Y669418D01*
X1064585D01*
Y669434D01*
X1064635D01*
Y669451D01*
X1064669D01*
Y669468D01*
X1064719D01*
Y669485D01*
X1064769D01*
Y669502D01*
X1064820D01*
Y669519D01*
X1064870D01*
Y669535D01*
X1064921D01*
Y669552D01*
X1064988D01*
Y669569D01*
X1065038D01*
Y669586D01*
X1065089D01*
Y669603D01*
X1065156D01*
Y669619D01*
X1065223D01*
Y669636D01*
X1065274D01*
Y669653D01*
X1065358D01*
Y669670D01*
X1065425D01*
Y669687D01*
X1065492D01*
Y669703D01*
X1065576D01*
Y669720D01*
X1065677D01*
Y669737D01*
X1065778D01*
Y669754D01*
X1065896D01*
Y669771D01*
X1066030D01*
Y669788D01*
X1066232D01*
Y669804D01*
X1066803D01*
Y669788D01*
D02*
G37*
G36*
X1034935Y663837D02*
Y663821D01*
Y663484D01*
X1034918D01*
Y663350D01*
X1034901D01*
Y663232D01*
X1034885D01*
Y663148D01*
X1034868D01*
Y663081D01*
X1034851D01*
Y663014D01*
X1034834D01*
Y662963D01*
X1034817D01*
Y662913D01*
X1034801D01*
Y662863D01*
X1034784D01*
Y662812D01*
X1034767D01*
Y662779D01*
X1034750D01*
Y662728D01*
X1034733D01*
Y662695D01*
X1034717D01*
Y662661D01*
X1034700D01*
Y662627D01*
X1034683D01*
Y662594D01*
X1034666D01*
Y662560D01*
X1034649D01*
Y662526D01*
X1034632D01*
Y662493D01*
X1034616D01*
Y662459D01*
X1034599D01*
Y662442D01*
X1034582D01*
Y662409D01*
X1034565D01*
Y662392D01*
X1034548D01*
Y662358D01*
X1034532D01*
Y662341D01*
X1034515D01*
Y662308D01*
X1034498D01*
Y662291D01*
X1034481D01*
Y662257D01*
X1034464D01*
Y662241D01*
X1034448D01*
Y662224D01*
X1034431D01*
Y662207D01*
X1034414D01*
Y662173D01*
X1034397D01*
Y662157D01*
X1034380D01*
Y662140D01*
X1034364D01*
Y662123D01*
X1034347D01*
Y662106D01*
X1034330D01*
Y662089D01*
X1034313D01*
Y662073D01*
X1034296D01*
Y662056D01*
X1034280D01*
Y662039D01*
X1034263D01*
Y662022D01*
X1034246D01*
Y662005D01*
X1034229D01*
Y661988D01*
X1034212D01*
Y661972D01*
X1034196D01*
Y661955D01*
X1034179D01*
Y661938D01*
X1034162D01*
Y661921D01*
X1034145D01*
Y661904D01*
X1034128D01*
Y661888D01*
X1034095D01*
Y661871D01*
X1034078D01*
Y661854D01*
X1034061D01*
Y661837D01*
X1034044D01*
Y661820D01*
X1034011D01*
Y661804D01*
X1033994D01*
Y661787D01*
X1033977D01*
Y661770D01*
X1033943D01*
Y661753D01*
X1033927D01*
Y661736D01*
X1033893D01*
Y661720D01*
X1033876D01*
Y661703D01*
X1033842D01*
Y661686D01*
X1033809D01*
Y661669D01*
X1033792D01*
Y661652D01*
X1033759D01*
Y661636D01*
X1033725D01*
Y661619D01*
X1033691D01*
Y661602D01*
X1033658D01*
Y661585D01*
X1033624D01*
Y661568D01*
X1033590D01*
Y661552D01*
X1033557D01*
Y661535D01*
X1033523D01*
Y661518D01*
X1033473D01*
Y661501D01*
X1033439D01*
Y661484D01*
X1033389D01*
Y661468D01*
X1033338D01*
Y661451D01*
X1033288D01*
Y661434D01*
X1033237D01*
Y661417D01*
X1033170D01*
Y661400D01*
X1033103D01*
Y661383D01*
X1033036D01*
Y661367D01*
X1032952D01*
Y661350D01*
X1032851D01*
Y661333D01*
X1032733D01*
Y661316D01*
X1032548D01*
Y661299D01*
X1032027D01*
Y661316D01*
X1031842D01*
Y661333D01*
X1031725D01*
Y661350D01*
X1031624D01*
Y661367D01*
X1031557D01*
Y661383D01*
X1031473D01*
Y661400D01*
X1031405D01*
Y661417D01*
X1031355D01*
Y661434D01*
X1031304D01*
Y661451D01*
X1031254D01*
Y661468D01*
X1031204D01*
Y661484D01*
X1031153D01*
Y661501D01*
X1031120D01*
Y661518D01*
X1031069D01*
Y661535D01*
X1031036D01*
Y661552D01*
X1031002D01*
Y661568D01*
X1030968D01*
Y661585D01*
X1030935D01*
Y661602D01*
X1030901D01*
Y661619D01*
X1030867D01*
Y661636D01*
X1030834D01*
Y661652D01*
X1030800D01*
Y661669D01*
X1030783D01*
Y661686D01*
X1030750D01*
Y661703D01*
X1030716D01*
Y661720D01*
X1030699D01*
Y661736D01*
X1030666D01*
Y661753D01*
X1030649D01*
Y661770D01*
X1030615D01*
Y661787D01*
X1030599D01*
Y661804D01*
X1030565D01*
Y661820D01*
X1030548D01*
Y661837D01*
X1030531D01*
Y661854D01*
X1030498D01*
Y661871D01*
X1030481D01*
Y661888D01*
X1030464D01*
Y661904D01*
X1030447D01*
Y661921D01*
X1030414D01*
Y661938D01*
X1030397D01*
Y661955D01*
X1030380D01*
Y661972D01*
X1030363D01*
Y661988D01*
X1030346D01*
Y662005D01*
X1030330D01*
Y662022D01*
X1030313D01*
Y662039D01*
X1030296D01*
Y662056D01*
X1030279D01*
Y662073D01*
X1030262D01*
Y662089D01*
X1030246D01*
Y662106D01*
X1030229D01*
Y662123D01*
X1030212D01*
Y662140D01*
X1030195D01*
Y662157D01*
X1030178D01*
Y662173D01*
X1030161D01*
Y662190D01*
X1030145D01*
Y662207D01*
X1030128D01*
Y662224D01*
X1030111D01*
Y662241D01*
X1030094D01*
Y662274D01*
X1030077D01*
Y662291D01*
X1030061D01*
Y662308D01*
X1030044D01*
Y662325D01*
X1030027D01*
Y662358D01*
X1030010D01*
Y662375D01*
X1029994D01*
Y662409D01*
X1029977D01*
Y662426D01*
X1029960D01*
Y662442D01*
X1029943D01*
Y662476D01*
X1029926D01*
Y662510D01*
X1029909D01*
Y662526D01*
X1029893D01*
Y662560D01*
X1029876D01*
Y662594D01*
X1029859D01*
Y662627D01*
X1029842D01*
Y662644D01*
X1029825D01*
Y662678D01*
X1029809D01*
Y662728D01*
X1029792D01*
Y662762D01*
X1029775D01*
Y662795D01*
X1029758D01*
Y662829D01*
X1029741D01*
Y662879D01*
X1029725D01*
Y662930D01*
X1029708D01*
Y662980D01*
X1029691D01*
Y663031D01*
X1029674D01*
Y663098D01*
X1029657D01*
Y663182D01*
X1029640D01*
Y663266D01*
X1029624D01*
Y663384D01*
X1029607D01*
Y666829D01*
X1031237D01*
Y664073D01*
X1031254D01*
Y663921D01*
X1031271D01*
Y663821D01*
X1031288D01*
Y663753D01*
X1031304D01*
Y663703D01*
X1031321D01*
Y663653D01*
X1031338D01*
Y663602D01*
X1031355D01*
Y663568D01*
X1031372D01*
Y663518D01*
X1031388D01*
Y663484D01*
X1031405D01*
Y663468D01*
X1031422D01*
Y663434D01*
X1031439D01*
Y663400D01*
X1031456D01*
Y663384D01*
X1031473D01*
Y663350D01*
X1031489D01*
Y663333D01*
X1031506D01*
Y663300D01*
X1031523D01*
Y663283D01*
X1031540D01*
Y663266D01*
X1031557D01*
Y663249D01*
X1031573D01*
Y663232D01*
X1031590D01*
Y663215D01*
X1031607D01*
Y663199D01*
X1031624D01*
Y663182D01*
X1031641D01*
Y663165D01*
X1031658D01*
Y663148D01*
X1031674D01*
Y663132D01*
X1031691D01*
Y663115D01*
X1031708D01*
Y663098D01*
X1031725D01*
Y663081D01*
X1031758D01*
Y663064D01*
X1031775D01*
Y663048D01*
X1031809D01*
Y663031D01*
X1031826D01*
Y663014D01*
X1031859D01*
Y662997D01*
X1031893D01*
Y662980D01*
X1031926D01*
Y662963D01*
X1031977D01*
Y662947D01*
X1032027D01*
Y662930D01*
X1032078D01*
Y662913D01*
X1032178D01*
Y662896D01*
X1032414D01*
Y662913D01*
X1032498D01*
Y662930D01*
X1032565D01*
Y662947D01*
X1032615D01*
Y662963D01*
X1032649D01*
Y662980D01*
X1032683D01*
Y662997D01*
X1032716D01*
Y663014D01*
X1032750D01*
Y663031D01*
X1032767D01*
Y663048D01*
X1032784D01*
Y663064D01*
X1032817D01*
Y663081D01*
X1032834D01*
Y663098D01*
X1032851D01*
Y663115D01*
X1032868D01*
Y663132D01*
X1032885D01*
Y663148D01*
X1032901D01*
Y663165D01*
X1032918D01*
Y663182D01*
X1032935D01*
Y663199D01*
X1032952D01*
Y663215D01*
X1032969D01*
Y663232D01*
X1032985D01*
Y663249D01*
X1033002D01*
Y663283D01*
X1033019D01*
Y663300D01*
X1033036D01*
Y663316D01*
X1033053D01*
Y663350D01*
X1033069D01*
Y663367D01*
X1033086D01*
Y663400D01*
X1033103D01*
Y663434D01*
X1033120D01*
Y663468D01*
X1033137D01*
Y663484D01*
X1033153D01*
Y663535D01*
X1033170D01*
Y663568D01*
X1033187D01*
Y663619D01*
X1033204D01*
Y663653D01*
X1033221D01*
Y663703D01*
X1033237D01*
Y663770D01*
X1033254D01*
Y663837D01*
X1033271D01*
Y663938D01*
X1033288D01*
Y664106D01*
X1033305D01*
Y666829D01*
X1034935D01*
Y663837D01*
D02*
G37*
G36*
X1053474Y666880D02*
X1053542D01*
Y666863D01*
X1053609D01*
Y666846D01*
X1053642D01*
Y666829D01*
X1053693D01*
Y666813D01*
X1053726D01*
Y666796D01*
X1053760D01*
Y666779D01*
X1053777D01*
Y666762D01*
X1053811D01*
Y666745D01*
X1053844D01*
Y666728D01*
X1053861D01*
Y666712D01*
X1053895D01*
Y666695D01*
X1053911D01*
Y666678D01*
X1053945D01*
Y666661D01*
X1053962D01*
Y666644D01*
X1053979D01*
Y666628D01*
X1054012D01*
Y666611D01*
X1054029D01*
Y666594D01*
X1054046D01*
Y666577D01*
X1054063D01*
Y666560D01*
X1054080D01*
Y666543D01*
X1054096D01*
Y666527D01*
X1054130D01*
Y666510D01*
X1054147D01*
Y666493D01*
X1054163D01*
Y666476D01*
X1054180D01*
Y666460D01*
X1054197D01*
Y666426D01*
X1054214D01*
Y666409D01*
X1054231D01*
Y666392D01*
X1054248D01*
Y666375D01*
X1054264D01*
Y666359D01*
X1054281D01*
Y666342D01*
X1054298D01*
Y666325D01*
X1054315D01*
Y666291D01*
X1054332D01*
Y666275D01*
X1054348D01*
Y666258D01*
X1054365D01*
Y666224D01*
X1054382D01*
Y666207D01*
X1054399D01*
Y666191D01*
X1054416D01*
Y666157D01*
X1054432D01*
Y666140D01*
X1054449D01*
Y666107D01*
X1054466D01*
Y666073D01*
X1054483D01*
Y666056D01*
X1054500D01*
Y666022D01*
X1054533D01*
Y666829D01*
X1056147D01*
Y661400D01*
X1054500D01*
Y662459D01*
Y662476D01*
Y664089D01*
X1054483D01*
Y664207D01*
X1054466D01*
Y664291D01*
X1054449D01*
Y664359D01*
X1054432D01*
Y664426D01*
X1054416D01*
Y664476D01*
X1054399D01*
Y664510D01*
X1054382D01*
Y664560D01*
X1054365D01*
Y664594D01*
X1054348D01*
Y664627D01*
X1054332D01*
Y664661D01*
X1054315D01*
Y664695D01*
X1054298D01*
Y664711D01*
X1054281D01*
Y664745D01*
X1054264D01*
Y664762D01*
X1054248D01*
Y664779D01*
X1054231D01*
Y664812D01*
X1054214D01*
Y664829D01*
X1054197D01*
Y664846D01*
X1054180D01*
Y664863D01*
X1054163D01*
Y664880D01*
X1054147D01*
Y664896D01*
X1054130D01*
Y664913D01*
X1054113D01*
Y664930D01*
X1054096D01*
Y664947D01*
X1054080D01*
Y664964D01*
X1054046D01*
Y664980D01*
X1054029D01*
Y664997D01*
X1053996D01*
Y665014D01*
X1053979D01*
Y665031D01*
X1053945D01*
Y665048D01*
X1053911D01*
Y665064D01*
X1053861D01*
Y665081D01*
X1053827D01*
Y665098D01*
X1053777D01*
Y665115D01*
X1053710D01*
Y665132D01*
X1053592D01*
Y665148D01*
X1053290D01*
Y665132D01*
X1053138D01*
Y665115D01*
X1053054D01*
Y666880D01*
X1053172D01*
Y666896D01*
X1053474D01*
Y666880D01*
D02*
G37*
G36*
X1051945Y661400D02*
X1050331D01*
Y666829D01*
X1051945D01*
Y661400D01*
D02*
G37*
G36*
X1039356Y666930D02*
X1039524D01*
Y666913D01*
X1039658D01*
Y666896D01*
X1039742D01*
Y666880D01*
X1039826D01*
Y666863D01*
X1039893D01*
Y666846D01*
X1039961D01*
Y666829D01*
X1040028D01*
Y666813D01*
X1040078D01*
Y666796D01*
X1040129D01*
Y666779D01*
X1040179D01*
Y666762D01*
X1040230D01*
Y666745D01*
X1040263D01*
Y666728D01*
X1040314D01*
Y666712D01*
X1040347D01*
Y666695D01*
X1040381D01*
Y666678D01*
X1040415D01*
Y666661D01*
X1040448D01*
Y666644D01*
X1040482D01*
Y666628D01*
X1040515D01*
Y666611D01*
X1040549D01*
Y666594D01*
X1040583D01*
Y666577D01*
X1040616D01*
Y666560D01*
X1040633D01*
Y666543D01*
X1040667D01*
Y666527D01*
X1040683D01*
Y666510D01*
X1040717D01*
Y666493D01*
X1040751D01*
Y666476D01*
X1040767D01*
Y666460D01*
X1040784D01*
Y666443D01*
X1040818D01*
Y666426D01*
X1040835D01*
Y666409D01*
X1040868D01*
Y666392D01*
X1040885D01*
Y666375D01*
X1040902D01*
Y666359D01*
X1040936D01*
Y666342D01*
X1040952D01*
Y666325D01*
X1040969D01*
Y666308D01*
X1040986D01*
Y666291D01*
X1041003D01*
Y666275D01*
X1041020D01*
Y666258D01*
X1041053D01*
Y666241D01*
X1041070D01*
Y666224D01*
X1041087D01*
Y666207D01*
X1041104D01*
Y666191D01*
X1041120D01*
Y666174D01*
X1041137D01*
Y666157D01*
X1041154D01*
Y666140D01*
X1041171D01*
Y666123D01*
X1041188D01*
Y666107D01*
X1041204D01*
Y666090D01*
X1041221D01*
Y666073D01*
X1041238D01*
Y666056D01*
X1041255D01*
Y666039D01*
X1041272D01*
Y666006D01*
X1041288D01*
Y665989D01*
X1041305D01*
Y665972D01*
X1041322D01*
Y665955D01*
X1041339D01*
Y665938D01*
X1041356D01*
Y665905D01*
X1041373D01*
Y665888D01*
X1041389D01*
Y665871D01*
X1041406D01*
Y665854D01*
X1041423D01*
Y665821D01*
X1041440D01*
Y665804D01*
X1041457D01*
Y665770D01*
X1041473D01*
Y665754D01*
X1041490D01*
Y665720D01*
X1041507D01*
Y665703D01*
X1041524D01*
Y665669D01*
X1041541D01*
Y665653D01*
X1041558D01*
Y665619D01*
X1041574D01*
Y665586D01*
X1041591D01*
Y665552D01*
X1041608D01*
Y665535D01*
X1041625D01*
Y665501D01*
X1041642D01*
Y665468D01*
X1041658D01*
Y665434D01*
X1041675D01*
Y665401D01*
X1041692D01*
Y665350D01*
X1041709D01*
Y665316D01*
X1041726D01*
Y665283D01*
X1041742D01*
Y665233D01*
X1041759D01*
Y665199D01*
X1041776D01*
Y665148D01*
X1041793D01*
Y665098D01*
X1041810D01*
Y665048D01*
X1041826D01*
Y664980D01*
X1041843D01*
Y664930D01*
X1041860D01*
Y664846D01*
X1041877D01*
Y664779D01*
X1041894D01*
Y664678D01*
X1041910D01*
Y664560D01*
X1041927D01*
Y664409D01*
X1041944D01*
Y663821D01*
X1041927D01*
Y663669D01*
X1041910D01*
Y663552D01*
X1041894D01*
Y663468D01*
X1041877D01*
Y663400D01*
X1041860D01*
Y663333D01*
X1041843D01*
Y663266D01*
X1041826D01*
Y663215D01*
X1041810D01*
Y663165D01*
X1041793D01*
Y663115D01*
X1041776D01*
Y663064D01*
X1041759D01*
Y663014D01*
X1041742D01*
Y662980D01*
X1041726D01*
Y662947D01*
X1041709D01*
Y662896D01*
X1041692D01*
Y662863D01*
X1041675D01*
Y662829D01*
X1041658D01*
Y662795D01*
X1041642D01*
Y662762D01*
X1041625D01*
Y662728D01*
X1041608D01*
Y662695D01*
X1041591D01*
Y662678D01*
X1041574D01*
Y662644D01*
X1041558D01*
Y662610D01*
X1041541D01*
Y662577D01*
X1041524D01*
Y662560D01*
X1041507D01*
Y662526D01*
X1041490D01*
Y662510D01*
X1041473D01*
Y662476D01*
X1041457D01*
Y662459D01*
X1041440D01*
Y662426D01*
X1041423D01*
Y662409D01*
X1041406D01*
Y662375D01*
X1041389D01*
Y662358D01*
X1041373D01*
Y662341D01*
X1041356D01*
Y662308D01*
X1041339D01*
Y662291D01*
X1041322D01*
Y662274D01*
X1041305D01*
Y662241D01*
X1041288D01*
Y662224D01*
X1041272D01*
Y662207D01*
X1041255D01*
Y662190D01*
X1041238D01*
Y662173D01*
X1041221D01*
Y662140D01*
X1041204D01*
Y662123D01*
X1041188D01*
Y662106D01*
X1041171D01*
Y662089D01*
X1041154D01*
Y662073D01*
X1041137D01*
Y662056D01*
X1041120D01*
Y662039D01*
X1041104D01*
Y662022D01*
X1041087D01*
Y662005D01*
X1041070D01*
Y661988D01*
X1041053D01*
Y661972D01*
X1041036D01*
Y661955D01*
X1041020D01*
Y661938D01*
X1041003D01*
Y661921D01*
X1040986D01*
Y661904D01*
X1040969D01*
Y661888D01*
X1040952D01*
Y661871D01*
X1040919D01*
Y661854D01*
X1040902D01*
Y661837D01*
X1040885D01*
Y661820D01*
X1040868D01*
Y661804D01*
X1040835D01*
Y661787D01*
X1040818D01*
Y661770D01*
X1040801D01*
Y661753D01*
X1040767D01*
Y661736D01*
X1040751D01*
Y661720D01*
X1040717D01*
Y661703D01*
X1040700D01*
Y661686D01*
X1040667D01*
Y661669D01*
X1040633D01*
Y661652D01*
X1040616D01*
Y661636D01*
X1040583D01*
Y661619D01*
X1040549D01*
Y661602D01*
X1040515D01*
Y661585D01*
X1040482D01*
Y661568D01*
X1040448D01*
Y661552D01*
X1040415D01*
Y661535D01*
X1040381D01*
Y661518D01*
X1040347D01*
Y661501D01*
X1040297D01*
Y661484D01*
X1040263D01*
Y661468D01*
X1040213D01*
Y661451D01*
X1040179D01*
Y661434D01*
X1040129D01*
Y661417D01*
X1040061D01*
Y661400D01*
X1040011D01*
Y661383D01*
X1039944D01*
Y661367D01*
X1039877D01*
Y661350D01*
X1039793D01*
Y661333D01*
X1039692D01*
Y661316D01*
X1039574D01*
Y661299D01*
X1039389D01*
Y661283D01*
X1038868D01*
Y661299D01*
X1038700D01*
Y661316D01*
X1038582D01*
Y661333D01*
X1038498D01*
Y661350D01*
X1038414D01*
Y661367D01*
X1038347D01*
Y661383D01*
X1038280D01*
Y661400D01*
X1038229D01*
Y661417D01*
X1038179D01*
Y661434D01*
X1038129D01*
Y661451D01*
X1038078D01*
Y661468D01*
X1038044D01*
Y661484D01*
X1037994D01*
Y661501D01*
X1037961D01*
Y661518D01*
X1037927D01*
Y661535D01*
X1037877D01*
Y661552D01*
X1037843D01*
Y661568D01*
X1037809D01*
Y661585D01*
X1037776D01*
Y661602D01*
X1037759D01*
Y661619D01*
X1037725D01*
Y661636D01*
X1037692D01*
Y661652D01*
X1037658D01*
Y661669D01*
X1037641D01*
Y661686D01*
X1037607D01*
Y661703D01*
X1037591D01*
Y661720D01*
X1037557D01*
Y661736D01*
X1037540D01*
Y661753D01*
X1037507D01*
Y661770D01*
X1037490D01*
Y661787D01*
X1037456D01*
Y661804D01*
X1037440D01*
Y661820D01*
X1037423D01*
Y661837D01*
X1037389D01*
Y661854D01*
X1037372D01*
Y661871D01*
X1037355D01*
Y661888D01*
X1037339D01*
Y661904D01*
X1037322D01*
Y661921D01*
X1037288D01*
Y661938D01*
X1037271D01*
Y661955D01*
X1037255D01*
Y661972D01*
X1037238D01*
Y661988D01*
X1037221D01*
Y662005D01*
X1037204D01*
Y662022D01*
X1037187D01*
Y662039D01*
X1037171D01*
Y662056D01*
X1037154D01*
Y662073D01*
X1037137D01*
Y662089D01*
X1037120D01*
Y662106D01*
X1037103D01*
Y662123D01*
X1037086D01*
Y662140D01*
X1037070D01*
Y662157D01*
X1037053D01*
Y662173D01*
X1037036D01*
Y662190D01*
X1037019D01*
Y662207D01*
X1037002D01*
Y662241D01*
X1036986D01*
Y662257D01*
X1036969D01*
Y662274D01*
X1036952D01*
Y662291D01*
X1036935D01*
Y662308D01*
X1036918D01*
Y662341D01*
X1036902D01*
Y662358D01*
X1036885D01*
Y662375D01*
X1036868D01*
Y662409D01*
X1036851D01*
Y662426D01*
X1036834D01*
Y662459D01*
X1036818D01*
Y662476D01*
X1036801D01*
Y662510D01*
X1036784D01*
Y662526D01*
X1036767D01*
Y662560D01*
X1036750D01*
Y662577D01*
X1036734D01*
Y662610D01*
X1036717D01*
Y662644D01*
X1036700D01*
Y662661D01*
X1036683D01*
Y662695D01*
X1036666D01*
Y662728D01*
X1036650D01*
Y662762D01*
X1036633D01*
Y662795D01*
X1036616D01*
Y662829D01*
X1036599D01*
Y662863D01*
X1036582D01*
Y662896D01*
X1036565D01*
Y662947D01*
X1036549D01*
Y662980D01*
X1036532D01*
Y663031D01*
X1036515D01*
Y663064D01*
X1036498D01*
Y663115D01*
X1036481D01*
Y663165D01*
X1036465D01*
Y663232D01*
X1036448D01*
Y663283D01*
X1036431D01*
Y663350D01*
X1036414D01*
Y663434D01*
X1036397D01*
Y663518D01*
X1036381D01*
Y663619D01*
X1036364D01*
Y663753D01*
X1036347D01*
Y664006D01*
X1036330D01*
Y664241D01*
X1036347D01*
Y664493D01*
X1036364D01*
Y664627D01*
X1036381D01*
Y664728D01*
X1036397D01*
Y664812D01*
X1036414D01*
Y664880D01*
X1036431D01*
Y664947D01*
X1036448D01*
Y665014D01*
X1036465D01*
Y665064D01*
X1036481D01*
Y665115D01*
X1036498D01*
Y665165D01*
X1036515D01*
Y665199D01*
X1036532D01*
Y665249D01*
X1036549D01*
Y665283D01*
X1036565D01*
Y665333D01*
X1036582D01*
Y665367D01*
X1036599D01*
Y665401D01*
X1036616D01*
Y665434D01*
X1036633D01*
Y665468D01*
X1036650D01*
Y665501D01*
X1036666D01*
Y665535D01*
X1036683D01*
Y665569D01*
X1036700D01*
Y665586D01*
X1036717D01*
Y665619D01*
X1036734D01*
Y665653D01*
X1036750D01*
Y665669D01*
X1036767D01*
Y665703D01*
X1036784D01*
Y665720D01*
X1036801D01*
Y665754D01*
X1036818D01*
Y665770D01*
X1036834D01*
Y665804D01*
X1036851D01*
Y665821D01*
X1036868D01*
Y665838D01*
X1036885D01*
Y665871D01*
X1036902D01*
Y665888D01*
X1036918D01*
Y665905D01*
X1036935D01*
Y665938D01*
X1036952D01*
Y665955D01*
X1036969D01*
Y665972D01*
X1036986D01*
Y665989D01*
X1037002D01*
Y666006D01*
X1037019D01*
Y666039D01*
X1037036D01*
Y666056D01*
X1037053D01*
Y666073D01*
X1037070D01*
Y666090D01*
X1037086D01*
Y666107D01*
X1037103D01*
Y666123D01*
X1037120D01*
Y666140D01*
X1037137D01*
Y666157D01*
X1037154D01*
Y666174D01*
X1037171D01*
Y666191D01*
X1037187D01*
Y666207D01*
X1037204D01*
Y666224D01*
X1037221D01*
Y666241D01*
X1037238D01*
Y666258D01*
X1037255D01*
Y666275D01*
X1037271D01*
Y666291D01*
X1037305D01*
Y666308D01*
X1037322D01*
Y666325D01*
X1037339D01*
Y666342D01*
X1037355D01*
Y666359D01*
X1037372D01*
Y666375D01*
X1037406D01*
Y666392D01*
X1037423D01*
Y666409D01*
X1037440D01*
Y666426D01*
X1037473D01*
Y666443D01*
X1037490D01*
Y666460D01*
X1037507D01*
Y666476D01*
X1037540D01*
Y666493D01*
X1037557D01*
Y666510D01*
X1037591D01*
Y666527D01*
X1037607D01*
Y666543D01*
X1037641D01*
Y666560D01*
X1037658D01*
Y666577D01*
X1037692D01*
Y666594D01*
X1037725D01*
Y666611D01*
X1037759D01*
Y666628D01*
X1037776D01*
Y666644D01*
X1037809D01*
Y666661D01*
X1037843D01*
Y666678D01*
X1037877D01*
Y666695D01*
X1037910D01*
Y666712D01*
X1037961D01*
Y666728D01*
X1037994D01*
Y666745D01*
X1038028D01*
Y666762D01*
X1038078D01*
Y666779D01*
X1038112D01*
Y666796D01*
X1038162D01*
Y666813D01*
X1038213D01*
Y666829D01*
X1038280D01*
Y666846D01*
X1038330D01*
Y666863D01*
X1038398D01*
Y666880D01*
X1038482D01*
Y666896D01*
X1038566D01*
Y666913D01*
X1038683D01*
Y666930D01*
X1038851D01*
Y666947D01*
X1039356D01*
Y666930D01*
D02*
G37*
G36*
X1100835Y673881D02*
X1101109Y673463D01*
X1096655Y653814D01*
X1075285Y658284D01*
X1075029Y658714D01*
X1080659Y677724D01*
X1100835Y673881D01*
D02*
G37*
G36*
X1125372Y670338D02*
X1122407Y648841D01*
X1122000Y648552D01*
X1097651Y653450D01*
X1097379Y653870D01*
X1101865Y673588D01*
X1125372Y670338D01*
D02*
G37*
G36*
X1069932Y644868D02*
X1067963D01*
Y659631D01*
X1069932D01*
Y644868D01*
D02*
G37*
G36*
X1110236Y650194D02*
X1116055Y624009D01*
X1115742Y623619D01*
X1105315D01*
Y626572D01*
X1109252Y628540D01*
X1105315Y648225D01*
X1100394Y651178D01*
Y651768D01*
X1100780Y652085D01*
X1110236Y650194D01*
D02*
G37*
G36*
X1038598Y657526D02*
X1038666Y657517D01*
X1038735Y657504D01*
X1038797Y657485D01*
X1038857Y657467D01*
X1038910Y657442D01*
X1038963Y657417D01*
X1039010Y657392D01*
X1039050Y657367D01*
X1039088Y657342D01*
X1039119Y657317D01*
X1039147Y657298D01*
X1039169Y657279D01*
X1039184Y657267D01*
X1039194Y657258D01*
X1039197Y657255D01*
X1039247Y657201D01*
X1039287Y657148D01*
X1039325Y657092D01*
X1039356Y657039D01*
X1039384Y656983D01*
X1039406Y656927D01*
X1039425Y656874D01*
X1039440Y656824D01*
X1039453Y656777D01*
X1039459Y656737D01*
X1039465Y656696D01*
X1039471Y656665D01*
Y656637D01*
X1039474Y656615D01*
Y656602D01*
Y656599D01*
Y654428D01*
X1038854D01*
Y656593D01*
X1038850Y656643D01*
X1038838Y656690D01*
X1038822Y656730D01*
X1038807Y656765D01*
X1038788Y656793D01*
X1038776Y656812D01*
X1038763Y656827D01*
X1038760Y656830D01*
X1038723Y656865D01*
X1038685Y656889D01*
X1038648Y656905D01*
X1038613Y656918D01*
X1038582Y656924D01*
X1038557Y656930D01*
X1038535D01*
X1038489Y656927D01*
X1038445Y656918D01*
X1038408Y656902D01*
X1038373Y656886D01*
X1038348Y656871D01*
X1038326Y656855D01*
X1038314Y656846D01*
X1038311Y656843D01*
X1038280Y656808D01*
X1038258Y656774D01*
X1038239Y656740D01*
X1038230Y656708D01*
X1038223Y656680D01*
X1038217Y656659D01*
Y656643D01*
Y656637D01*
Y654428D01*
X1037565D01*
Y656584D01*
X1037562Y656637D01*
X1037549Y656684D01*
X1037534Y656727D01*
X1037515Y656765D01*
X1037500Y656793D01*
X1037484Y656815D01*
X1037471Y656830D01*
X1037468Y656833D01*
X1037428Y656868D01*
X1037387Y656893D01*
X1037350Y656911D01*
X1037309Y656924D01*
X1037278Y656930D01*
X1037250Y656936D01*
X1037228D01*
X1037178Y656933D01*
X1037134Y656924D01*
X1037097Y656908D01*
X1037063Y656893D01*
X1037035Y656877D01*
X1037013Y656861D01*
X1037000Y656852D01*
X1036997Y656849D01*
X1036966Y656815D01*
X1036941Y656780D01*
X1036925Y656746D01*
X1036913Y656712D01*
X1036907Y656680D01*
X1036901Y656659D01*
Y656643D01*
Y656637D01*
Y654428D01*
X1036280D01*
Y656643D01*
X1036283Y656712D01*
X1036292Y656774D01*
X1036305Y656836D01*
X1036320Y656896D01*
X1036342Y656949D01*
X1036364Y657002D01*
X1036389Y657049D01*
X1036411Y657092D01*
X1036436Y657130D01*
X1036461Y657167D01*
X1036482Y657195D01*
X1036504Y657220D01*
X1036520Y657242D01*
X1036532Y657255D01*
X1036542Y657264D01*
X1036545Y657267D01*
X1036595Y657314D01*
X1036648Y657354D01*
X1036701Y657389D01*
X1036754Y657420D01*
X1036807Y657445D01*
X1036860Y657467D01*
X1036910Y657482D01*
X1036957Y657498D01*
X1037003Y657507D01*
X1037044Y657517D01*
X1037082Y657520D01*
X1037113Y657526D01*
X1037141D01*
X1037159Y657529D01*
X1037175D01*
X1037259Y657526D01*
X1037334Y657520D01*
X1037403Y657507D01*
X1037462Y657495D01*
X1037512Y657482D01*
X1037531Y657476D01*
X1037546Y657470D01*
X1037559Y657467D01*
X1037568Y657464D01*
X1037574Y657460D01*
X1037578D01*
X1037637Y657432D01*
X1037693Y657398D01*
X1037743Y657361D01*
X1037784Y657323D01*
X1037818Y657292D01*
X1037843Y657264D01*
X1037858Y657245D01*
X1037865Y657242D01*
Y657239D01*
X1037911Y657292D01*
X1037961Y657336D01*
X1038008Y657373D01*
X1038052Y657404D01*
X1038089Y657429D01*
X1038120Y657445D01*
X1038133Y657451D01*
X1038142Y657454D01*
X1038145Y657457D01*
X1038148D01*
X1038211Y657482D01*
X1038273Y657498D01*
X1038339Y657510D01*
X1038398Y657520D01*
X1038448Y657526D01*
X1038470D01*
X1038489Y657529D01*
X1038526D01*
X1038598Y657526D01*
D02*
G37*
G36*
X1034919Y657526D02*
X1034988Y657517D01*
X1035057Y657504D01*
X1035119Y657485D01*
X1035178Y657467D01*
X1035231Y657442D01*
X1035284Y657417D01*
X1035331Y657392D01*
X1035372Y657367D01*
X1035409Y657342D01*
X1035440Y657317D01*
X1035468Y657298D01*
X1035490Y657279D01*
X1035506Y657267D01*
X1035515Y657258D01*
X1035518Y657255D01*
X1035568Y657201D01*
X1035609Y657148D01*
X1035646Y657092D01*
X1035677Y657039D01*
X1035705Y656983D01*
X1035727Y656927D01*
X1035746Y656874D01*
X1035762Y656824D01*
X1035774Y656777D01*
X1035780Y656737D01*
X1035787Y656696D01*
X1035793Y656665D01*
Y656637D01*
X1035796Y656615D01*
Y656602D01*
Y656599D01*
Y654428D01*
X1035175D01*
Y656593D01*
X1035172Y656643D01*
X1035159Y656690D01*
X1035144Y656730D01*
X1035128Y656765D01*
X1035110Y656793D01*
X1035097Y656812D01*
X1035085Y656827D01*
X1035081Y656830D01*
X1035044Y656865D01*
X1035007Y656889D01*
X1034969Y656905D01*
X1034935Y656918D01*
X1034904Y656924D01*
X1034879Y656930D01*
X1034857D01*
X1034810Y656927D01*
X1034766Y656918D01*
X1034729Y656902D01*
X1034695Y656886D01*
X1034670Y656871D01*
X1034648Y656855D01*
X1034635Y656846D01*
X1034632Y656843D01*
X1034601Y656808D01*
X1034579Y656774D01*
X1034560Y656740D01*
X1034551Y656708D01*
X1034545Y656680D01*
X1034539Y656659D01*
Y656643D01*
Y656637D01*
Y654428D01*
X1033887D01*
Y656584D01*
X1033883Y656637D01*
X1033871Y656684D01*
X1033855Y656727D01*
X1033837Y656765D01*
X1033821Y656793D01*
X1033805Y656815D01*
X1033793Y656830D01*
X1033790Y656833D01*
X1033749Y656868D01*
X1033709Y656893D01*
X1033671Y656911D01*
X1033631Y656924D01*
X1033599Y656930D01*
X1033572Y656936D01*
X1033550D01*
X1033500Y656933D01*
X1033456Y656924D01*
X1033419Y656908D01*
X1033384Y656893D01*
X1033356Y656877D01*
X1033334Y656861D01*
X1033322Y656852D01*
X1033319Y656849D01*
X1033288Y656815D01*
X1033263Y656780D01*
X1033247Y656746D01*
X1033235Y656712D01*
X1033228Y656680D01*
X1033222Y656659D01*
Y656643D01*
Y656637D01*
Y654428D01*
X1032601D01*
Y656643D01*
X1032604Y656712D01*
X1032614Y656774D01*
X1032626Y656836D01*
X1032642Y656896D01*
X1032664Y656949D01*
X1032685Y657002D01*
X1032710Y657049D01*
X1032732Y657092D01*
X1032757Y657130D01*
X1032782Y657167D01*
X1032804Y657195D01*
X1032826Y657220D01*
X1032841Y657242D01*
X1032854Y657255D01*
X1032863Y657264D01*
X1032866Y657267D01*
X1032916Y657314D01*
X1032969Y657354D01*
X1033022Y657389D01*
X1033075Y657420D01*
X1033128Y657445D01*
X1033181Y657467D01*
X1033231Y657482D01*
X1033278Y657498D01*
X1033325Y657507D01*
X1033366Y657517D01*
X1033403Y657520D01*
X1033434Y657526D01*
X1033462D01*
X1033481Y657529D01*
X1033497D01*
X1033581Y657526D01*
X1033656Y657520D01*
X1033724Y657507D01*
X1033784Y657495D01*
X1033834Y657482D01*
X1033852Y657476D01*
X1033868Y657470D01*
X1033880Y657467D01*
X1033890Y657464D01*
X1033896Y657460D01*
X1033899D01*
X1033958Y657432D01*
X1034015Y657398D01*
X1034064Y657361D01*
X1034105Y657323D01*
X1034139Y657292D01*
X1034164Y657264D01*
X1034180Y657245D01*
X1034186Y657242D01*
Y657239D01*
X1034233Y657292D01*
X1034283Y657336D01*
X1034330Y657373D01*
X1034373Y657404D01*
X1034411Y657429D01*
X1034442Y657445D01*
X1034454Y657451D01*
X1034464Y657454D01*
X1034467Y657457D01*
X1034470D01*
X1034532Y657482D01*
X1034595Y657498D01*
X1034660Y657510D01*
X1034720Y657520D01*
X1034770Y657526D01*
X1034791D01*
X1034810Y657529D01*
X1034848D01*
X1034919Y657526D01*
D02*
G37*
G36*
X1065994Y654428D02*
X1065336D01*
Y655660D01*
X1064619D01*
Y654428D01*
X1063979D01*
Y657538D01*
X1064619D01*
Y656290D01*
X1065336D01*
Y657538D01*
X1065994D01*
Y654428D01*
D02*
G37*
G36*
X1043549Y657526D02*
X1043661Y657514D01*
X1043771Y657488D01*
X1043874Y657460D01*
X1043970Y657423D01*
X1044061Y657386D01*
X1044145Y657342D01*
X1044223Y657301D01*
X1044292Y657258D01*
X1044354Y657214D01*
X1044407Y657176D01*
X1044451Y657139D01*
X1044488Y657111D01*
X1044513Y657086D01*
X1044529Y657074D01*
X1044535Y657067D01*
X1044616Y656980D01*
X1044688Y656886D01*
X1044753Y656796D01*
X1044807Y656702D01*
X1044850Y656609D01*
X1044888Y656518D01*
X1044919Y656428D01*
X1044944Y656347D01*
X1044963Y656265D01*
X1044978Y656194D01*
X1044987Y656131D01*
X1044997Y656075D01*
X1045000Y656032D01*
Y656013D01*
X1045003Y655997D01*
Y655985D01*
Y655975D01*
Y655972D01*
Y655969D01*
X1044997Y655851D01*
X1044984Y655738D01*
X1044959Y655629D01*
X1044931Y655529D01*
X1044894Y655432D01*
X1044856Y655342D01*
X1044813Y655258D01*
X1044769Y655180D01*
X1044729Y655111D01*
X1044685Y655049D01*
X1044648Y654996D01*
X1044610Y654952D01*
X1044582Y654918D01*
X1044557Y654893D01*
X1044545Y654877D01*
X1044538Y654871D01*
X1044448Y654790D01*
X1044357Y654721D01*
X1044264Y654659D01*
X1044170Y654609D01*
X1044077Y654562D01*
X1043983Y654528D01*
X1043896Y654496D01*
X1043811Y654471D01*
X1043733Y654453D01*
X1043661Y654440D01*
X1043599Y654428D01*
X1043543Y654422D01*
X1043499Y654418D01*
X1043481D01*
X1043465Y654415D01*
X1043368D01*
X1043331Y654418D01*
X1043293Y654422D01*
X1043278Y654425D01*
X1043265D01*
X1043259Y654428D01*
X1043256D01*
Y655055D01*
X1043293Y655049D01*
X1043325Y655046D01*
X1043353Y655042D01*
X1043378D01*
X1043396Y655039D01*
X1043421D01*
X1043490Y655042D01*
X1043559Y655052D01*
X1043621Y655064D01*
X1043683Y655083D01*
X1043743Y655105D01*
X1043796Y655127D01*
X1043846Y655152D01*
X1043892Y655180D01*
X1043933Y655205D01*
X1043970Y655230D01*
X1044002Y655252D01*
X1044030Y655273D01*
X1044051Y655292D01*
X1044067Y655304D01*
X1044077Y655314D01*
X1044080Y655317D01*
X1044129Y655370D01*
X1044170Y655426D01*
X1044207Y655479D01*
X1044239Y655535D01*
X1044267Y655592D01*
X1044289Y655648D01*
X1044307Y655698D01*
X1044323Y655748D01*
X1044335Y655794D01*
X1044342Y655838D01*
X1044348Y655875D01*
X1044354Y655910D01*
Y655935D01*
X1044357Y655957D01*
Y655969D01*
Y655972D01*
X1044354Y656041D01*
X1044345Y656110D01*
X1044332Y656172D01*
X1044314Y656234D01*
X1044292Y656290D01*
X1044270Y656344D01*
X1044245Y656393D01*
X1044217Y656437D01*
X1044192Y656481D01*
X1044167Y656515D01*
X1044145Y656546D01*
X1044123Y656574D01*
X1044105Y656593D01*
X1044092Y656609D01*
X1044083Y656618D01*
X1044080Y656621D01*
X1044027Y656668D01*
X1043970Y656712D01*
X1043914Y656746D01*
X1043858Y656777D01*
X1043802Y656805D01*
X1043749Y656827D01*
X1043696Y656846D01*
X1043646Y656858D01*
X1043599Y656871D01*
X1043559Y656877D01*
X1043521Y656883D01*
X1043487Y656889D01*
X1043462D01*
X1043440Y656893D01*
X1043378D01*
X1043328Y656889D01*
X1043303Y656886D01*
X1043284D01*
X1043272Y656883D01*
X1043268D01*
Y657532D01*
X1043434D01*
X1043549Y657526D01*
D02*
G37*
G36*
X1061620Y654428D02*
X1059992D01*
Y655077D01*
X1060999D01*
Y657538D01*
X1061620D01*
Y654428D01*
D02*
G37*
G36*
X1053792Y657514D02*
X1053848Y657510D01*
X1053901Y657504D01*
X1053951Y657492D01*
X1053998Y657479D01*
X1054045Y657460D01*
X1054085Y657442D01*
X1054123Y657420D01*
X1054157Y657401D01*
X1054188Y657379D01*
X1054216Y657358D01*
X1054238Y657339D01*
X1054260Y657320D01*
X1054276Y657308D01*
X1054285Y657295D01*
X1054291Y657289D01*
X1054294Y657286D01*
X1054369Y657205D01*
X1054435Y657117D01*
X1054494Y657027D01*
X1054541Y656943D01*
X1054563Y656905D01*
X1054578Y656868D01*
X1054594Y656836D01*
X1054610Y656808D01*
X1054619Y656783D01*
X1054625Y656768D01*
X1054628Y656755D01*
X1054632Y656752D01*
X1054663Y656668D01*
X1054691Y656577D01*
X1054719Y656487D01*
X1054744Y656403D01*
X1054756Y656362D01*
X1054766Y656328D01*
X1054772Y656294D01*
X1054781Y656269D01*
X1054784Y656244D01*
X1054791Y656228D01*
X1054794Y656216D01*
Y656212D01*
X1054797Y656197D01*
X1054803Y656172D01*
X1054809Y656141D01*
X1054815Y656103D01*
X1054825Y656060D01*
X1054831Y656016D01*
X1054850Y655919D01*
X1054859Y655869D01*
X1054869Y655826D01*
X1054878Y655782D01*
X1054884Y655744D01*
X1054890Y655713D01*
X1054897Y655688D01*
X1054900Y655673D01*
Y655666D01*
X1054909Y655610D01*
X1054922Y655560D01*
X1054931Y655510D01*
X1054940Y655470D01*
X1054953Y655429D01*
X1054962Y655395D01*
X1054972Y655361D01*
X1054981Y655333D01*
X1054987Y655311D01*
X1054996Y655289D01*
X1055003Y655270D01*
X1055009Y655258D01*
X1055012Y655245D01*
X1055015Y655239D01*
X1055018Y655233D01*
X1055034Y655205D01*
X1055050Y655180D01*
X1055065Y655158D01*
X1055081Y655139D01*
X1055112Y655111D01*
X1055140Y655092D01*
X1055165Y655080D01*
X1055184Y655074D01*
X1055196Y655070D01*
X1055202D01*
X1055430Y655061D01*
Y654428D01*
X1055118Y654440D01*
X1055046Y654447D01*
X1054981Y654459D01*
X1054915Y654481D01*
X1054856Y654509D01*
X1054803Y654540D01*
X1054750Y654578D01*
X1054703Y654618D01*
X1054659Y654659D01*
X1054622Y654696D01*
X1054591Y654737D01*
X1054560Y654774D01*
X1054538Y654805D01*
X1054519Y654833D01*
X1054504Y654855D01*
X1054497Y654868D01*
X1054494Y654874D01*
X1054460Y654940D01*
X1054432Y655008D01*
X1054379Y655155D01*
X1054335Y655301D01*
X1054316Y655373D01*
X1054301Y655442D01*
X1054285Y655507D01*
X1054276Y655567D01*
X1054266Y655620D01*
X1054257Y655663D01*
X1054251Y655701D01*
X1054248Y655729D01*
X1054245Y655748D01*
Y655754D01*
X1054232Y655844D01*
X1054220Y655932D01*
X1054204Y656013D01*
X1054191Y656084D01*
X1054185Y656113D01*
X1054179Y656141D01*
X1054173Y656166D01*
X1054170Y656187D01*
X1054167Y656203D01*
X1054163Y656216D01*
X1054160Y656222D01*
Y656225D01*
X1054145Y656281D01*
X1054132Y656331D01*
X1054117Y656381D01*
X1054101Y656425D01*
X1054085Y656465D01*
X1054070Y656506D01*
X1054057Y656540D01*
X1054042Y656571D01*
X1054029Y656599D01*
X1054020Y656624D01*
X1054008Y656646D01*
X1053998Y656662D01*
X1053992Y656674D01*
X1053986Y656687D01*
X1053983Y656690D01*
Y656693D01*
X1053961Y656727D01*
X1053936Y656758D01*
X1053914Y656786D01*
X1053889Y656808D01*
X1053867Y656827D01*
X1053845Y656843D01*
X1053802Y656868D01*
X1053764Y656883D01*
X1053736Y656889D01*
X1053717Y656893D01*
X1053546D01*
Y657532D01*
X1053792Y657514D01*
D02*
G37*
G36*
X1053268Y656939D02*
X1052660D01*
Y654422D01*
X1052020D01*
Y656939D01*
X1051396D01*
Y657538D01*
X1053268D01*
Y656939D01*
D02*
G37*
G36*
X1050242Y657514D02*
X1050310Y657504D01*
X1050379Y657488D01*
X1050444Y657470D01*
X1050504Y657448D01*
X1050560Y657423D01*
X1050613Y657395D01*
X1050663Y657370D01*
X1050706Y657342D01*
X1050744Y657314D01*
X1050778Y657289D01*
X1050806Y657267D01*
X1050828Y657248D01*
X1050847Y657233D01*
X1050856Y657223D01*
X1050859Y657220D01*
X1050912Y657164D01*
X1050956Y657108D01*
X1050997Y657052D01*
X1051028Y656992D01*
X1051056Y656936D01*
X1051081Y656883D01*
X1051100Y656830D01*
X1051115Y656780D01*
X1051128Y656734D01*
X1051137Y656693D01*
X1051143Y656656D01*
X1051146Y656624D01*
X1051149Y656596D01*
X1051153Y656577D01*
Y656565D01*
Y656562D01*
Y656515D01*
Y654422D01*
X1050538D01*
Y655401D01*
X1049739D01*
Y654422D01*
X1049143D01*
Y656568D01*
X1049146Y656637D01*
X1049156Y656705D01*
X1049172Y656768D01*
X1049190Y656830D01*
X1049215Y656886D01*
X1049240Y656943D01*
X1049268Y656992D01*
X1049296Y657039D01*
X1049327Y657083D01*
X1049356Y657120D01*
X1049380Y657152D01*
X1049402Y657180D01*
X1049424Y657201D01*
X1049440Y657217D01*
X1049449Y657226D01*
X1049452Y657230D01*
X1049512Y657279D01*
X1049571Y657323D01*
X1049633Y657364D01*
X1049696Y657395D01*
X1049755Y657423D01*
X1049814Y657448D01*
X1049870Y657467D01*
X1049926Y657482D01*
X1049976Y657492D01*
X1050023Y657501D01*
X1050064Y657507D01*
X1050098Y657514D01*
X1050126D01*
X1050148Y657517D01*
X1050167D01*
X1050242Y657514D01*
D02*
G37*
G36*
X1048791Y656939D02*
X1048182D01*
Y654422D01*
X1047543D01*
Y656939D01*
X1046919D01*
Y657538D01*
X1048791D01*
Y656939D01*
D02*
G37*
G36*
X1062915Y657523D02*
X1062974Y657517D01*
X1063024Y657504D01*
X1063068Y657495D01*
X1063102Y657482D01*
X1063127Y657470D01*
X1063143Y657464D01*
X1063149Y657460D01*
X1063202Y657432D01*
X1063249Y657398D01*
X1063296Y657364D01*
X1063336Y657333D01*
X1063371Y657301D01*
X1063396Y657276D01*
X1063411Y657261D01*
X1063414Y657258D01*
X1063417Y657255D01*
X1063461Y657205D01*
X1063498Y657158D01*
X1063530Y657114D01*
X1063555Y657074D01*
X1063573Y657042D01*
X1063589Y657017D01*
X1063595Y657002D01*
X1063598Y656996D01*
X1063617Y656949D01*
X1063630Y656896D01*
X1063642Y656849D01*
X1063648Y656802D01*
X1063651Y656762D01*
X1063655Y656730D01*
Y656718D01*
Y656708D01*
Y656705D01*
Y656702D01*
Y655286D01*
X1063651Y655220D01*
X1063645Y655164D01*
X1063636Y655111D01*
X1063626Y655064D01*
X1063617Y655027D01*
X1063608Y654999D01*
X1063601Y654983D01*
X1063598Y654977D01*
X1063573Y654927D01*
X1063545Y654880D01*
X1063517Y654833D01*
X1063486Y654793D01*
X1063461Y654759D01*
X1063436Y654734D01*
X1063424Y654715D01*
X1063417Y654712D01*
Y654709D01*
X1063361Y654652D01*
X1063302Y654602D01*
X1063249Y654562D01*
X1063202Y654531D01*
X1063158Y654506D01*
X1063127Y654490D01*
X1063115Y654484D01*
X1063105Y654481D01*
X1063102Y654478D01*
X1063099D01*
X1063034Y654456D01*
X1062968Y654440D01*
X1062899Y654428D01*
X1062840Y654422D01*
X1062784Y654415D01*
X1062762D01*
X1062740Y654412D01*
X1061942D01*
Y655030D01*
X1062800D01*
X1062837Y655033D01*
X1062868Y655042D01*
X1062899Y655058D01*
X1062924Y655074D01*
X1062943Y655086D01*
X1062959Y655102D01*
X1062968Y655111D01*
X1062971Y655114D01*
X1062993Y655145D01*
X1063006Y655170D01*
X1063012Y655189D01*
X1063015Y655192D01*
Y655195D01*
X1063018Y655211D01*
Y655233D01*
X1063021Y655276D01*
Y655298D01*
Y655314D01*
Y655326D01*
Y655330D01*
Y655670D01*
X1061948D01*
Y656269D01*
X1063021D01*
Y656665D01*
X1063018Y656699D01*
X1063012Y656730D01*
X1063002Y656758D01*
X1062990Y656783D01*
X1062977Y656802D01*
X1062968Y656815D01*
X1062962Y656824D01*
X1062959Y656827D01*
X1062943Y656846D01*
X1062924Y656858D01*
X1062893Y656880D01*
X1062881Y656886D01*
X1062871Y656889D01*
X1062865Y656893D01*
X1062862D01*
X1062818Y656902D01*
X1062778Y656905D01*
X1062759Y656908D01*
X1061942D01*
Y657526D01*
X1062853D01*
X1062915Y657523D01*
D02*
G37*
G36*
X1059711Y654397D02*
X1059065D01*
Y657517D01*
X1059711D01*
Y654397D01*
D02*
G37*
G36*
X1057399Y657504D02*
X1057527Y657488D01*
X1057645Y657467D01*
X1057758Y657436D01*
X1057861Y657398D01*
X1057957Y657358D01*
X1058045Y657314D01*
X1058123Y657267D01*
X1058195Y657220D01*
X1058257Y657176D01*
X1058310Y657136D01*
X1058354Y657098D01*
X1058388Y657067D01*
X1058413Y657046D01*
X1058425Y657030D01*
X1058432Y657024D01*
X1058500Y656939D01*
X1058560Y656852D01*
X1058609Y656765D01*
X1058653Y656674D01*
X1058691Y656584D01*
X1058722Y656496D01*
X1058747Y656409D01*
X1058769Y656328D01*
X1058784Y656253D01*
X1058794Y656181D01*
X1058803Y656119D01*
X1058809Y656066D01*
X1058812Y656022D01*
X1058815Y655988D01*
Y655975D01*
Y655966D01*
Y655963D01*
Y655960D01*
X1058812Y655844D01*
X1058800Y655732D01*
X1058781Y655623D01*
X1058756Y655523D01*
X1058725Y655426D01*
X1058694Y655339D01*
X1058659Y655258D01*
X1058622Y655183D01*
X1058584Y655114D01*
X1058550Y655055D01*
X1058519Y655002D01*
X1058488Y654958D01*
X1058463Y654924D01*
X1058444Y654902D01*
X1058432Y654886D01*
X1058428Y654880D01*
X1058344Y654796D01*
X1058257Y654721D01*
X1058163Y654656D01*
X1058067Y654599D01*
X1057970Y654553D01*
X1057873Y654512D01*
X1057776Y654481D01*
X1057686Y654456D01*
X1057599Y654434D01*
X1057521Y654418D01*
X1057449Y654409D01*
X1057386Y654400D01*
X1057358D01*
X1057337Y654397D01*
X1057315D01*
X1057296Y654393D01*
X1057265D01*
X1057131Y654400D01*
X1057003Y654415D01*
X1056884Y654437D01*
X1056772Y654468D01*
X1056666Y654506D01*
X1056572Y654546D01*
X1056482Y654590D01*
X1056404Y654637D01*
X1056332Y654684D01*
X1056269Y654727D01*
X1056216Y654768D01*
X1056173Y654805D01*
X1056138Y654837D01*
X1056114Y654858D01*
X1056101Y654874D01*
X1056095Y654880D01*
X1056026Y654964D01*
X1055967Y655052D01*
X1055914Y655142D01*
X1055870Y655233D01*
X1055833Y655323D01*
X1055798Y655414D01*
X1055773Y655498D01*
X1055755Y655579D01*
X1055736Y655657D01*
X1055727Y655729D01*
X1055717Y655791D01*
X1055711Y655844D01*
X1055708Y655888D01*
X1055705Y655922D01*
Y655935D01*
Y655944D01*
Y655947D01*
Y655950D01*
X1055708Y656066D01*
X1055720Y656175D01*
X1055742Y656281D01*
X1055767Y656381D01*
X1055795Y656478D01*
X1055830Y656565D01*
X1055864Y656646D01*
X1055901Y656721D01*
X1055939Y656786D01*
X1055973Y656849D01*
X1056007Y656899D01*
X1056035Y656943D01*
X1056060Y656977D01*
X1056082Y657002D01*
X1056095Y657014D01*
X1056098Y657021D01*
X1056182Y657108D01*
X1056273Y657183D01*
X1056366Y657248D01*
X1056463Y657304D01*
X1056560Y657351D01*
X1056656Y657392D01*
X1056753Y657423D01*
X1056843Y657448D01*
X1056931Y657470D01*
X1057009Y657485D01*
X1057081Y657495D01*
X1057143Y657504D01*
X1057171D01*
X1057193Y657507D01*
X1057215D01*
X1057234Y657510D01*
X1057265D01*
X1057399Y657504D01*
D02*
G37*
G36*
X1041574D02*
X1041702Y657488D01*
X1041821Y657467D01*
X1041933Y657436D01*
X1042036Y657398D01*
X1042133Y657358D01*
X1042220Y657314D01*
X1042298Y657267D01*
X1042370Y657220D01*
X1042432Y657176D01*
X1042485Y657136D01*
X1042529Y657098D01*
X1042563Y657067D01*
X1042588Y657046D01*
X1042601Y657030D01*
X1042607Y657024D01*
X1042676Y656939D01*
X1042735Y656852D01*
X1042785Y656765D01*
X1042828Y656674D01*
X1042866Y656584D01*
X1042897Y656496D01*
X1042922Y656409D01*
X1042944Y656328D01*
X1042959Y656253D01*
X1042969Y656181D01*
X1042978Y656119D01*
X1042984Y656066D01*
X1042988Y656022D01*
X1042991Y655988D01*
Y655975D01*
Y655966D01*
Y655963D01*
Y655960D01*
X1042988Y655844D01*
X1042975Y655732D01*
X1042956Y655623D01*
X1042931Y655523D01*
X1042900Y655426D01*
X1042869Y655339D01*
X1042835Y655258D01*
X1042797Y655183D01*
X1042760Y655114D01*
X1042725Y655055D01*
X1042694Y655002D01*
X1042663Y654958D01*
X1042638Y654924D01*
X1042619Y654902D01*
X1042607Y654886D01*
X1042604Y654880D01*
X1042520Y654796D01*
X1042432Y654721D01*
X1042339Y654656D01*
X1042242Y654599D01*
X1042145Y654553D01*
X1042048Y654512D01*
X1041952Y654481D01*
X1041861Y654456D01*
X1041774Y654434D01*
X1041696Y654418D01*
X1041624Y654409D01*
X1041562Y654400D01*
X1041534D01*
X1041512Y654397D01*
X1041490D01*
X1041471Y654393D01*
X1041440D01*
X1041306Y654400D01*
X1041178Y654415D01*
X1041059Y654437D01*
X1040947Y654468D01*
X1040841Y654506D01*
X1040748Y654546D01*
X1040657Y654590D01*
X1040579Y654637D01*
X1040507Y654684D01*
X1040445Y654727D01*
X1040392Y654768D01*
X1040348Y654805D01*
X1040314Y654837D01*
X1040289Y654858D01*
X1040276Y654874D01*
X1040270Y654880D01*
X1040201Y654964D01*
X1040142Y655052D01*
X1040089Y655142D01*
X1040045Y655233D01*
X1040008Y655323D01*
X1039974Y655414D01*
X1039949Y655498D01*
X1039930Y655579D01*
X1039911Y655657D01*
X1039902Y655729D01*
X1039893Y655791D01*
X1039886Y655844D01*
X1039883Y655888D01*
X1039880Y655922D01*
Y655935D01*
Y655944D01*
Y655947D01*
Y655950D01*
X1039883Y656066D01*
X1039896Y656175D01*
X1039917Y656281D01*
X1039942Y656381D01*
X1039971Y656478D01*
X1040005Y656565D01*
X1040039Y656646D01*
X1040077Y656721D01*
X1040114Y656786D01*
X1040148Y656849D01*
X1040183Y656899D01*
X1040211Y656943D01*
X1040236Y656977D01*
X1040258Y657002D01*
X1040270Y657014D01*
X1040273Y657021D01*
X1040357Y657108D01*
X1040448Y657183D01*
X1040541Y657248D01*
X1040638Y657304D01*
X1040735Y657351D01*
X1040832Y657392D01*
X1040928Y657423D01*
X1041019Y657448D01*
X1041106Y657470D01*
X1041184Y657485D01*
X1041256Y657495D01*
X1041318Y657504D01*
X1041346D01*
X1041368Y657507D01*
X1041390D01*
X1041409Y657510D01*
X1041440D01*
X1041574Y657504D01*
D02*
G37*
G36*
X1054647Y650641D02*
X1053989D01*
Y651874D01*
X1053271D01*
Y650641D01*
X1052631D01*
Y653752D01*
X1053271D01*
Y652504D01*
X1053989D01*
Y653752D01*
X1054647D01*
Y650641D01*
D02*
G37*
G36*
X1050273Y651658D02*
X1050270Y651580D01*
X1050260Y651506D01*
X1050245Y651437D01*
X1050226Y651368D01*
X1050204Y651306D01*
X1050179Y651247D01*
X1050154Y651191D01*
X1050126Y651141D01*
X1050098Y651094D01*
X1050073Y651056D01*
X1050048Y651019D01*
X1050026Y650991D01*
X1050008Y650969D01*
X1049992Y650950D01*
X1049983Y650941D01*
X1049979Y650938D01*
X1049923Y650885D01*
X1049864Y650841D01*
X1049805Y650801D01*
X1049742Y650766D01*
X1049683Y650738D01*
X1049624Y650713D01*
X1049565Y650694D01*
X1049512Y650679D01*
X1049459Y650666D01*
X1049412Y650657D01*
X1049371Y650651D01*
X1049334Y650648D01*
X1049306Y650644D01*
X1049284Y650641D01*
X1049265D01*
X1049184Y650644D01*
X1049109Y650654D01*
X1049034Y650669D01*
X1048965Y650685D01*
X1048897Y650707D01*
X1048838Y650732D01*
X1048778Y650757D01*
X1048725Y650785D01*
X1048678Y650813D01*
X1048638Y650838D01*
X1048600Y650863D01*
X1048569Y650885D01*
X1048544Y650903D01*
X1048529Y650916D01*
X1048516Y650925D01*
X1048513Y650928D01*
X1048457Y650985D01*
X1048407Y651044D01*
X1048367Y651103D01*
X1048329Y651162D01*
X1048298Y651222D01*
X1048273Y651281D01*
X1048251Y651340D01*
X1048235Y651393D01*
X1048223Y651446D01*
X1048211Y651493D01*
X1048204Y651537D01*
X1048201Y651571D01*
X1048198Y651602D01*
X1048195Y651624D01*
Y651637D01*
Y651643D01*
Y653752D01*
X1048816D01*
Y651649D01*
X1048822Y651590D01*
X1048838Y651537D01*
X1048856Y651490D01*
X1048881Y651449D01*
X1048906Y651418D01*
X1048925Y651393D01*
X1048941Y651381D01*
X1048947Y651375D01*
X1048997Y651337D01*
X1049047Y651312D01*
X1049097Y651294D01*
X1049143Y651278D01*
X1049184Y651272D01*
X1049218Y651268D01*
X1049231Y651265D01*
X1049246D01*
X1049302Y651272D01*
X1049356Y651284D01*
X1049402Y651300D01*
X1049443Y651322D01*
X1049477Y651340D01*
X1049499Y651359D01*
X1049515Y651371D01*
X1049521Y651375D01*
X1049558Y651418D01*
X1049586Y651462D01*
X1049605Y651509D01*
X1049618Y651549D01*
X1049627Y651587D01*
X1049630Y651618D01*
X1049633Y651637D01*
Y651640D01*
Y651643D01*
Y653752D01*
X1050273D01*
Y651658D01*
D02*
G37*
G36*
X1064541Y653740D02*
X1064653Y653727D01*
X1064762Y653702D01*
X1064865Y653674D01*
X1064962Y653637D01*
X1065052Y653599D01*
X1065137Y653555D01*
X1065215Y653515D01*
X1065283Y653471D01*
X1065345Y653428D01*
X1065399Y653390D01*
X1065442Y653353D01*
X1065480Y653325D01*
X1065505Y653300D01*
X1065520Y653287D01*
X1065526Y653281D01*
X1065608Y653194D01*
X1065679Y653100D01*
X1065745Y653010D01*
X1065798Y652916D01*
X1065842Y652822D01*
X1065879Y652732D01*
X1065910Y652641D01*
X1065935Y652560D01*
X1065954Y652479D01*
X1065969Y652407D01*
X1065979Y652345D01*
X1065988Y652289D01*
X1065991Y652245D01*
Y652226D01*
X1065994Y652211D01*
Y652198D01*
Y652189D01*
Y652186D01*
Y652183D01*
X1065988Y652064D01*
X1065976Y651952D01*
X1065951Y651843D01*
X1065923Y651743D01*
X1065885Y651646D01*
X1065848Y651555D01*
X1065804Y651471D01*
X1065761Y651393D01*
X1065720Y651325D01*
X1065676Y651262D01*
X1065639Y651209D01*
X1065601Y651165D01*
X1065573Y651131D01*
X1065548Y651106D01*
X1065536Y651091D01*
X1065530Y651084D01*
X1065439Y651003D01*
X1065349Y650935D01*
X1065255Y650872D01*
X1065161Y650822D01*
X1065068Y650775D01*
X1064974Y650741D01*
X1064887Y650710D01*
X1064803Y650685D01*
X1064725Y650666D01*
X1064653Y650654D01*
X1064590Y650641D01*
X1064534Y650635D01*
X1064491Y650632D01*
X1064472D01*
X1064456Y650629D01*
X1064360D01*
X1064322Y650632D01*
X1064285Y650635D01*
X1064269Y650638D01*
X1064257D01*
X1064250Y650641D01*
X1064247D01*
Y651268D01*
X1064285Y651262D01*
X1064316Y651259D01*
X1064344Y651256D01*
X1064369D01*
X1064388Y651253D01*
X1064413D01*
X1064481Y651256D01*
X1064550Y651265D01*
X1064612Y651278D01*
X1064675Y651297D01*
X1064734Y651318D01*
X1064787Y651340D01*
X1064837Y651365D01*
X1064884Y651393D01*
X1064924Y651418D01*
X1064962Y651443D01*
X1064993Y651465D01*
X1065021Y651487D01*
X1065043Y651506D01*
X1065059Y651518D01*
X1065068Y651528D01*
X1065071Y651531D01*
X1065121Y651584D01*
X1065161Y651640D01*
X1065199Y651693D01*
X1065230Y651749D01*
X1065258Y651805D01*
X1065280Y651861D01*
X1065299Y651911D01*
X1065314Y651961D01*
X1065327Y652008D01*
X1065333Y652052D01*
X1065339Y652089D01*
X1065345Y652123D01*
Y652148D01*
X1065349Y652170D01*
Y652183D01*
Y652186D01*
X1065345Y652254D01*
X1065336Y652323D01*
X1065324Y652386D01*
X1065305Y652448D01*
X1065283Y652504D01*
X1065261Y652557D01*
X1065236Y652607D01*
X1065208Y652651D01*
X1065183Y652694D01*
X1065158Y652729D01*
X1065137Y652760D01*
X1065115Y652788D01*
X1065096Y652807D01*
X1065084Y652822D01*
X1065074Y652832D01*
X1065071Y652835D01*
X1065018Y652881D01*
X1064962Y652925D01*
X1064906Y652959D01*
X1064849Y652991D01*
X1064793Y653019D01*
X1064740Y653041D01*
X1064687Y653059D01*
X1064637Y653072D01*
X1064590Y653084D01*
X1064550Y653091D01*
X1064513Y653097D01*
X1064478Y653103D01*
X1064453D01*
X1064431Y653106D01*
X1064369D01*
X1064319Y653103D01*
X1064294Y653100D01*
X1064275D01*
X1064263Y653097D01*
X1064260D01*
Y653746D01*
X1064425D01*
X1064541Y653740D01*
D02*
G37*
G36*
X1050925D02*
X1051037Y653727D01*
X1051146Y653702D01*
X1051249Y653674D01*
X1051346Y653637D01*
X1051437Y653599D01*
X1051521Y653555D01*
X1051599Y653515D01*
X1051667Y653471D01*
X1051730Y653428D01*
X1051783Y653390D01*
X1051827Y653353D01*
X1051864Y653325D01*
X1051889Y653300D01*
X1051905Y653287D01*
X1051911Y653281D01*
X1051992Y653194D01*
X1052064Y653100D01*
X1052129Y653010D01*
X1052182Y652916D01*
X1052226Y652822D01*
X1052263Y652732D01*
X1052295Y652641D01*
X1052320Y652560D01*
X1052338Y652479D01*
X1052354Y652407D01*
X1052363Y652345D01*
X1052373Y652289D01*
X1052376Y652245D01*
Y652226D01*
X1052379Y652211D01*
Y652198D01*
Y652189D01*
Y652186D01*
Y652183D01*
X1052373Y652064D01*
X1052360Y651952D01*
X1052335Y651843D01*
X1052307Y651743D01*
X1052270Y651646D01*
X1052232Y651555D01*
X1052188Y651471D01*
X1052145Y651393D01*
X1052104Y651325D01*
X1052061Y651262D01*
X1052023Y651209D01*
X1051986Y651165D01*
X1051958Y651131D01*
X1051933Y651106D01*
X1051920Y651091D01*
X1051914Y651084D01*
X1051824Y651003D01*
X1051733Y650935D01*
X1051639Y650872D01*
X1051546Y650822D01*
X1051452Y650775D01*
X1051359Y650741D01*
X1051271Y650710D01*
X1051187Y650685D01*
X1051109Y650666D01*
X1051037Y650654D01*
X1050975Y650641D01*
X1050919Y650635D01*
X1050875Y650632D01*
X1050856D01*
X1050841Y650629D01*
X1050744D01*
X1050706Y650632D01*
X1050669Y650635D01*
X1050653Y650638D01*
X1050641D01*
X1050635Y650641D01*
X1050632D01*
Y651268D01*
X1050669Y651262D01*
X1050700Y651259D01*
X1050728Y651256D01*
X1050753D01*
X1050772Y651253D01*
X1050797D01*
X1050866Y651256D01*
X1050934Y651265D01*
X1050997Y651278D01*
X1051059Y651297D01*
X1051118Y651318D01*
X1051171Y651340D01*
X1051221Y651365D01*
X1051268Y651393D01*
X1051309Y651418D01*
X1051346Y651443D01*
X1051377Y651465D01*
X1051405Y651487D01*
X1051427Y651506D01*
X1051443Y651518D01*
X1051452Y651528D01*
X1051455Y651531D01*
X1051505Y651584D01*
X1051546Y651640D01*
X1051583Y651693D01*
X1051614Y651749D01*
X1051643Y651805D01*
X1051664Y651861D01*
X1051683Y651911D01*
X1051699Y651961D01*
X1051711Y652008D01*
X1051717Y652052D01*
X1051724Y652089D01*
X1051730Y652123D01*
Y652148D01*
X1051733Y652170D01*
Y652183D01*
Y652186D01*
X1051730Y652254D01*
X1051721Y652323D01*
X1051708Y652386D01*
X1051689Y652448D01*
X1051667Y652504D01*
X1051646Y652557D01*
X1051621Y652607D01*
X1051593Y652651D01*
X1051568Y652694D01*
X1051543Y652729D01*
X1051521Y652760D01*
X1051499Y652788D01*
X1051480Y652807D01*
X1051468Y652822D01*
X1051458Y652832D01*
X1051455Y652835D01*
X1051402Y652881D01*
X1051346Y652925D01*
X1051290Y652959D01*
X1051234Y652991D01*
X1051178Y653019D01*
X1051125Y653041D01*
X1051071Y653059D01*
X1051022Y653072D01*
X1050975Y653084D01*
X1050934Y653091D01*
X1050897Y653097D01*
X1050863Y653103D01*
X1050838D01*
X1050816Y653106D01*
X1050753D01*
X1050703Y653103D01*
X1050678Y653100D01*
X1050660D01*
X1050647Y653097D01*
X1050644D01*
Y653746D01*
X1050809D01*
X1050925Y653740D01*
D02*
G37*
G36*
X1046501D02*
X1046613Y653727D01*
X1046722Y653702D01*
X1046825Y653674D01*
X1046922Y653637D01*
X1047012Y653599D01*
X1047097Y653555D01*
X1047175Y653515D01*
X1047243Y653471D01*
X1047306Y653428D01*
X1047359Y653390D01*
X1047402Y653353D01*
X1047440Y653325D01*
X1047465Y653300D01*
X1047480Y653287D01*
X1047487Y653281D01*
X1047568Y653194D01*
X1047639Y653100D01*
X1047705Y653010D01*
X1047758Y652916D01*
X1047802Y652822D01*
X1047839Y652732D01*
X1047870Y652641D01*
X1047895Y652560D01*
X1047914Y652479D01*
X1047930Y652407D01*
X1047939Y652345D01*
X1047948Y652289D01*
X1047952Y652245D01*
Y652226D01*
X1047955Y652211D01*
Y652198D01*
Y652189D01*
Y652186D01*
Y652183D01*
X1047948Y652064D01*
X1047936Y651952D01*
X1047911Y651843D01*
X1047883Y651743D01*
X1047845Y651646D01*
X1047808Y651555D01*
X1047764Y651471D01*
X1047721Y651393D01*
X1047680Y651325D01*
X1047636Y651262D01*
X1047599Y651209D01*
X1047561Y651165D01*
X1047534Y651131D01*
X1047509Y651106D01*
X1047496Y651091D01*
X1047490Y651084D01*
X1047399Y651003D01*
X1047309Y650935D01*
X1047215Y650872D01*
X1047122Y650822D01*
X1047028Y650775D01*
X1046934Y650741D01*
X1046847Y650710D01*
X1046763Y650685D01*
X1046685Y650666D01*
X1046613Y650654D01*
X1046551Y650641D01*
X1046494Y650635D01*
X1046451Y650632D01*
X1046432D01*
X1046416Y650629D01*
X1046320D01*
X1046282Y650632D01*
X1046245Y650635D01*
X1046229Y650638D01*
X1046217D01*
X1046211Y650641D01*
X1046208D01*
Y651268D01*
X1046245Y651262D01*
X1046276Y651259D01*
X1046304Y651256D01*
X1046329D01*
X1046348Y651253D01*
X1046373D01*
X1046441Y651256D01*
X1046510Y651265D01*
X1046572Y651278D01*
X1046635Y651297D01*
X1046694Y651318D01*
X1046747Y651340D01*
X1046797Y651365D01*
X1046844Y651393D01*
X1046885Y651418D01*
X1046922Y651443D01*
X1046953Y651465D01*
X1046981Y651487D01*
X1047003Y651506D01*
X1047019Y651518D01*
X1047028Y651528D01*
X1047031Y651531D01*
X1047081Y651584D01*
X1047122Y651640D01*
X1047159Y651693D01*
X1047190Y651749D01*
X1047218Y651805D01*
X1047240Y651861D01*
X1047259Y651911D01*
X1047274Y651961D01*
X1047287Y652008D01*
X1047293Y652052D01*
X1047299Y652089D01*
X1047306Y652123D01*
Y652148D01*
X1047309Y652170D01*
Y652183D01*
Y652186D01*
X1047306Y652254D01*
X1047296Y652323D01*
X1047284Y652386D01*
X1047265Y652448D01*
X1047243Y652504D01*
X1047221Y652557D01*
X1047196Y652607D01*
X1047168Y652651D01*
X1047143Y652694D01*
X1047118Y652729D01*
X1047097Y652760D01*
X1047075Y652788D01*
X1047056Y652807D01*
X1047044Y652822D01*
X1047034Y652832D01*
X1047031Y652835D01*
X1046978Y652881D01*
X1046922Y652925D01*
X1046866Y652959D01*
X1046810Y652991D01*
X1046753Y653019D01*
X1046700Y653041D01*
X1046647Y653059D01*
X1046597Y653072D01*
X1046551Y653084D01*
X1046510Y653091D01*
X1046473Y653097D01*
X1046438Y653103D01*
X1046413D01*
X1046391Y653106D01*
X1046329D01*
X1046279Y653103D01*
X1046254Y653100D01*
X1046235D01*
X1046223Y653097D01*
X1046220D01*
Y653746D01*
X1046385D01*
X1046501Y653740D01*
D02*
G37*
G36*
X1044548D02*
X1044660Y653727D01*
X1044769Y653702D01*
X1044872Y653674D01*
X1044969Y653637D01*
X1045059Y653599D01*
X1045144Y653555D01*
X1045222Y653515D01*
X1045290Y653471D01*
X1045353Y653428D01*
X1045406Y653390D01*
X1045449Y653353D01*
X1045487Y653325D01*
X1045512Y653300D01*
X1045527Y653287D01*
X1045533Y653281D01*
X1045615Y653194D01*
X1045686Y653100D01*
X1045752Y653010D01*
X1045805Y652916D01*
X1045849Y652822D01*
X1045886Y652732D01*
X1045917Y652641D01*
X1045942Y652560D01*
X1045961Y652479D01*
X1045977Y652407D01*
X1045986Y652345D01*
X1045995Y652289D01*
X1045998Y652245D01*
Y652226D01*
X1046002Y652211D01*
Y652198D01*
Y652189D01*
Y652186D01*
Y652183D01*
X1045995Y652064D01*
X1045983Y651952D01*
X1045958Y651843D01*
X1045930Y651743D01*
X1045892Y651646D01*
X1045855Y651555D01*
X1045811Y651471D01*
X1045767Y651393D01*
X1045727Y651325D01*
X1045683Y651262D01*
X1045646Y651209D01*
X1045608Y651165D01*
X1045580Y651131D01*
X1045555Y651106D01*
X1045543Y651091D01*
X1045537Y651084D01*
X1045446Y651003D01*
X1045356Y650935D01*
X1045262Y650872D01*
X1045168Y650822D01*
X1045075Y650775D01*
X1044981Y650741D01*
X1044894Y650710D01*
X1044810Y650685D01*
X1044732Y650666D01*
X1044660Y650654D01*
X1044598Y650641D01*
X1044541Y650635D01*
X1044498Y650632D01*
X1044479D01*
X1044463Y650629D01*
X1044367D01*
X1044329Y650632D01*
X1044292Y650635D01*
X1044276Y650638D01*
X1044264D01*
X1044258Y650641D01*
X1044254D01*
Y651268D01*
X1044292Y651262D01*
X1044323Y651259D01*
X1044351Y651256D01*
X1044376D01*
X1044395Y651253D01*
X1044420D01*
X1044488Y651256D01*
X1044557Y651265D01*
X1044619Y651278D01*
X1044682Y651297D01*
X1044741Y651318D01*
X1044794Y651340D01*
X1044844Y651365D01*
X1044891Y651393D01*
X1044931Y651418D01*
X1044969Y651443D01*
X1045000Y651465D01*
X1045028Y651487D01*
X1045050Y651506D01*
X1045065Y651518D01*
X1045075Y651528D01*
X1045078Y651531D01*
X1045128Y651584D01*
X1045168Y651640D01*
X1045206Y651693D01*
X1045237Y651749D01*
X1045265Y651805D01*
X1045287Y651861D01*
X1045306Y651911D01*
X1045321Y651961D01*
X1045334Y652008D01*
X1045340Y652052D01*
X1045346Y652089D01*
X1045353Y652123D01*
Y652148D01*
X1045356Y652170D01*
Y652183D01*
Y652186D01*
X1045353Y652254D01*
X1045343Y652323D01*
X1045331Y652386D01*
X1045312Y652448D01*
X1045290Y652504D01*
X1045268Y652557D01*
X1045243Y652607D01*
X1045215Y652651D01*
X1045190Y652694D01*
X1045165Y652729D01*
X1045144Y652760D01*
X1045122Y652788D01*
X1045103Y652807D01*
X1045090Y652822D01*
X1045081Y652832D01*
X1045078Y652835D01*
X1045025Y652881D01*
X1044969Y652925D01*
X1044913Y652959D01*
X1044856Y652991D01*
X1044800Y653019D01*
X1044747Y653041D01*
X1044694Y653059D01*
X1044644Y653072D01*
X1044598Y653084D01*
X1044557Y653091D01*
X1044520Y653097D01*
X1044485Y653103D01*
X1044460D01*
X1044438Y653106D01*
X1044376D01*
X1044326Y653103D01*
X1044301Y653100D01*
X1044282D01*
X1044270Y653097D01*
X1044267D01*
Y653746D01*
X1044432D01*
X1044548Y653740D01*
D02*
G37*
G36*
X1061786Y650648D02*
X1061158D01*
Y651793D01*
X1060475Y650648D01*
X1059751D01*
X1060497Y651874D01*
X1060441Y651893D01*
X1060391Y651911D01*
X1060341Y651936D01*
X1060294Y651961D01*
X1060254Y651989D01*
X1060213Y652017D01*
X1060176Y652045D01*
X1060145Y652073D01*
X1060116Y652098D01*
X1060088Y652123D01*
X1060067Y652148D01*
X1060051Y652167D01*
X1060035Y652183D01*
X1060026Y652198D01*
X1060020Y652205D01*
X1060017Y652208D01*
X1059985Y652257D01*
X1059957Y652307D01*
X1059932Y652357D01*
X1059910Y652407D01*
X1059895Y652457D01*
X1059879Y652507D01*
X1059857Y652601D01*
X1059851Y652644D01*
X1059845Y652685D01*
X1059842Y652719D01*
X1059839Y652747D01*
X1059836Y652772D01*
Y652791D01*
Y652804D01*
Y652807D01*
X1059839Y652869D01*
X1059845Y652928D01*
X1059857Y652988D01*
X1059873Y653044D01*
X1059895Y653097D01*
X1059914Y653150D01*
X1059939Y653197D01*
X1059960Y653243D01*
X1059982Y653284D01*
X1060007Y653322D01*
X1060026Y653353D01*
X1060045Y653381D01*
X1060063Y653403D01*
X1060076Y653418D01*
X1060082Y653428D01*
X1060085Y653431D01*
X1060138Y653490D01*
X1060198Y653540D01*
X1060254Y653587D01*
X1060313Y653624D01*
X1060372Y653655D01*
X1060431Y653683D01*
X1060488Y653705D01*
X1060541Y653724D01*
X1060591Y653736D01*
X1060637Y653746D01*
X1060678Y653755D01*
X1060715Y653758D01*
X1060744Y653761D01*
X1060765Y653764D01*
X1061786D01*
Y650648D01*
D02*
G37*
G36*
X1059464Y650641D02*
X1057836D01*
Y651290D01*
X1058843D01*
Y653752D01*
X1059464D01*
Y650641D01*
D02*
G37*
G36*
X1043892Y653690D02*
X1043852Y653609D01*
X1043814Y653534D01*
X1043780Y653462D01*
X1043749Y653393D01*
X1043721Y653328D01*
X1043696Y653268D01*
X1043674Y653215D01*
X1043655Y653165D01*
X1043640Y653122D01*
X1043624Y653084D01*
X1043615Y653053D01*
X1043605Y653028D01*
X1043599Y653010D01*
X1043596Y652997D01*
Y652994D01*
X1043565Y652866D01*
X1043540Y652735D01*
X1043524Y652604D01*
X1043515Y652545D01*
X1043512Y652485D01*
X1043509Y652429D01*
X1043505Y652379D01*
X1043502Y652336D01*
X1043499Y652298D01*
Y652267D01*
Y652242D01*
Y652229D01*
Y652223D01*
X1043502Y652064D01*
X1043509Y651989D01*
X1043515Y651918D01*
X1043524Y651849D01*
X1043534Y651786D01*
X1043543Y651727D01*
X1043552Y651671D01*
X1043562Y651621D01*
X1043571Y651577D01*
X1043580Y651540D01*
X1043590Y651506D01*
X1043596Y651481D01*
X1043602Y651462D01*
X1043605Y651449D01*
Y651446D01*
X1043624Y651393D01*
X1043643Y651334D01*
X1043693Y651212D01*
X1043746Y651088D01*
X1043774Y651025D01*
X1043802Y650969D01*
X1043830Y650913D01*
X1043855Y650863D01*
X1043877Y650816D01*
X1043896Y650775D01*
X1043914Y650744D01*
X1043927Y650719D01*
X1043933Y650704D01*
X1043936Y650698D01*
Y650679D01*
X1043933Y650663D01*
X1043930Y650651D01*
X1043927Y650648D01*
X1043914Y650641D01*
X1043902Y650638D01*
X1043864D01*
X1043846Y650641D01*
X1043827D01*
X1043805Y650648D01*
X1043786Y650651D01*
X1043771Y650654D01*
X1043758D01*
X1043743Y650657D01*
X1043736D01*
X1043668Y650754D01*
X1043608Y650844D01*
X1043559Y650932D01*
X1043515Y651006D01*
X1043496Y651041D01*
X1043481Y651072D01*
X1043468Y651097D01*
X1043456Y651119D01*
X1043449Y651137D01*
X1043443Y651150D01*
X1043437Y651159D01*
Y651162D01*
X1043400Y651247D01*
X1043368Y651331D01*
X1043343Y651409D01*
X1043322Y651481D01*
X1043312Y651515D01*
X1043303Y651543D01*
X1043297Y651568D01*
X1043290Y651590D01*
X1043287Y651609D01*
X1043284Y651621D01*
X1043281Y651630D01*
Y651634D01*
X1043268Y651690D01*
X1043259Y651746D01*
X1043250Y651799D01*
X1043243Y651843D01*
X1043237Y651883D01*
X1043234Y651914D01*
Y651924D01*
X1043231Y651933D01*
Y651936D01*
Y651939D01*
X1043225Y651999D01*
X1043219Y652055D01*
X1043215Y652108D01*
Y652155D01*
X1043212Y652195D01*
Y652226D01*
Y652239D01*
Y652248D01*
Y652251D01*
Y652254D01*
X1043215Y652339D01*
X1043219Y652420D01*
X1043225Y652498D01*
X1043231Y652566D01*
X1043237Y652598D01*
X1043240Y652623D01*
X1043243Y652647D01*
X1043247Y652669D01*
X1043250Y652685D01*
Y652698D01*
X1043253Y652704D01*
Y652707D01*
X1043268Y652791D01*
X1043287Y652872D01*
X1043309Y652947D01*
X1043328Y653013D01*
X1043337Y653041D01*
X1043346Y653069D01*
X1043353Y653091D01*
X1043362Y653109D01*
X1043365Y653125D01*
X1043371Y653137D01*
X1043375Y653144D01*
Y653147D01*
X1043403Y653215D01*
X1043431Y653275D01*
X1043456Y653331D01*
X1043477Y653378D01*
X1043496Y653415D01*
X1043512Y653443D01*
X1043521Y653462D01*
X1043524Y653468D01*
X1043552Y653512D01*
X1043583Y653562D01*
X1043621Y653612D01*
X1043655Y653661D01*
X1043686Y653705D01*
X1043711Y653740D01*
X1043721Y653752D01*
X1043730Y653761D01*
X1043733Y653768D01*
X1043736Y653771D01*
X1043936D01*
X1043892Y653690D01*
D02*
G37*
G36*
X1063954Y653153D02*
X1063346D01*
Y650635D01*
X1062706D01*
Y653153D01*
X1062082D01*
Y653752D01*
X1063954D01*
Y653153D01*
D02*
G37*
G36*
X1055268Y653687D02*
X1055309Y653624D01*
X1055346Y653574D01*
X1055374Y653531D01*
X1055399Y653493D01*
X1055415Y653468D01*
X1055424Y653452D01*
X1055427Y653446D01*
X1055458Y653393D01*
X1055486Y653337D01*
X1055511Y653284D01*
X1055533Y653234D01*
X1055552Y653190D01*
X1055567Y653159D01*
X1055574Y653147D01*
X1055577Y653137D01*
X1055580Y653131D01*
Y653128D01*
X1055620Y653022D01*
X1055652Y652925D01*
X1055683Y652835D01*
X1055692Y652794D01*
X1055705Y652760D01*
X1055714Y652726D01*
X1055723Y652694D01*
X1055730Y652666D01*
X1055736Y652644D01*
X1055739Y652629D01*
X1055742Y652613D01*
X1055745Y652607D01*
Y652604D01*
X1055761Y652517D01*
X1055773Y652429D01*
X1055783Y652345D01*
X1055789Y652273D01*
X1055792Y652239D01*
Y652208D01*
Y652183D01*
X1055795Y652161D01*
Y652142D01*
Y652130D01*
Y652120D01*
Y652117D01*
X1055792Y652030D01*
X1055786Y651939D01*
X1055780Y651852D01*
X1055770Y651771D01*
X1055764Y651736D01*
X1055761Y651702D01*
X1055758Y651674D01*
X1055752Y651649D01*
X1055748Y651627D01*
Y651612D01*
X1055745Y651602D01*
Y651599D01*
X1055723Y651509D01*
X1055695Y651418D01*
X1055664Y651331D01*
X1055624Y651247D01*
X1055583Y651162D01*
X1055536Y651084D01*
X1055493Y651010D01*
X1055446Y650938D01*
X1055402Y650875D01*
X1055358Y650816D01*
X1055321Y650766D01*
X1055284Y650723D01*
X1055256Y650688D01*
X1055234Y650663D01*
X1055221Y650648D01*
X1055215Y650641D01*
X1055187D01*
X1055159Y650638D01*
X1055149Y650635D01*
X1055140D01*
X1055134Y650632D01*
X1055131D01*
X1055112Y650629D01*
X1055099Y650626D01*
X1055087D01*
X1055081Y650623D01*
X1055068D01*
X1055050Y650626D01*
X1055037Y650629D01*
X1055028Y650632D01*
X1055025Y650635D01*
X1055018Y650654D01*
X1055015Y650673D01*
X1055018Y650685D01*
Y650691D01*
X1055062Y650775D01*
X1055103Y650857D01*
X1055140Y650932D01*
X1055171Y651003D01*
X1055202Y651069D01*
X1055227Y651128D01*
X1055252Y651184D01*
X1055274Y651234D01*
X1055290Y651281D01*
X1055305Y651318D01*
X1055318Y651353D01*
X1055330Y651381D01*
X1055337Y651403D01*
X1055343Y651418D01*
X1055346Y651428D01*
Y651431D01*
X1055380Y651562D01*
X1055405Y651696D01*
X1055424Y651824D01*
X1055430Y651886D01*
X1055436Y651945D01*
X1055439Y651999D01*
X1055443Y652048D01*
X1055446Y652092D01*
Y652133D01*
X1055449Y652161D01*
Y652186D01*
Y652198D01*
Y652205D01*
X1055446Y652364D01*
X1055439Y652438D01*
X1055433Y652510D01*
X1055427Y652579D01*
X1055418Y652641D01*
X1055411Y652701D01*
X1055402Y652757D01*
X1055393Y652804D01*
X1055383Y652847D01*
X1055377Y652888D01*
X1055371Y652919D01*
X1055365Y652944D01*
X1055358Y652963D01*
X1055355Y652975D01*
Y652978D01*
X1055337Y653044D01*
X1055312Y653109D01*
X1055262Y653240D01*
X1055206Y653371D01*
X1055177Y653434D01*
X1055149Y653493D01*
X1055121Y653546D01*
X1055096Y653596D01*
X1055075Y653640D01*
X1055056Y653677D01*
X1055037Y653708D01*
X1055025Y653733D01*
X1055018Y653746D01*
X1055015Y653752D01*
X1055218D01*
X1055268Y653687D01*
D02*
G37*
G36*
X1060534Y646836D02*
X1059449Y649981D01*
X1060088D01*
X1060566Y648596D01*
X1061068Y649981D01*
X1061714D01*
X1060534Y646836D01*
D02*
G37*
G36*
X1037262Y649407D02*
X1036701D01*
X1036707Y649392D01*
X1036723Y649351D01*
X1036744Y649304D01*
X1036766Y649257D01*
X1036791Y649211D01*
X1036813Y649170D01*
X1036823Y649154D01*
X1036829Y649142D01*
X1036832Y649136D01*
X1036835Y649132D01*
X1036888Y649045D01*
X1036935Y648961D01*
X1036982Y648886D01*
X1037019Y648817D01*
X1037038Y648786D01*
X1037053Y648761D01*
X1037066Y648736D01*
X1037078Y648718D01*
X1037088Y648702D01*
X1037094Y648690D01*
X1037100Y648683D01*
Y648680D01*
X1037109Y648649D01*
X1037122Y648615D01*
X1037131Y648580D01*
X1037141Y648546D01*
X1037147Y648515D01*
X1037153Y648487D01*
X1037159Y648471D01*
Y648468D01*
Y648465D01*
X1037109Y648484D01*
X1037066Y648496D01*
X1037022Y648505D01*
X1036985Y648512D01*
X1036954Y648515D01*
X1036932Y648518D01*
X1036910D01*
X1036857Y648515D01*
X1036807Y648509D01*
X1036763Y648499D01*
X1036723Y648487D01*
X1036688Y648474D01*
X1036660Y648465D01*
X1036645Y648459D01*
X1036638Y648455D01*
X1036592Y648430D01*
X1036551Y648403D01*
X1036517Y648371D01*
X1036489Y648343D01*
X1036467Y648318D01*
X1036451Y648296D01*
X1036442Y648284D01*
X1036439Y648278D01*
X1036417Y648234D01*
X1036401Y648193D01*
X1036389Y648153D01*
X1036383Y648115D01*
X1036376Y648081D01*
X1036373Y648056D01*
Y648040D01*
Y648034D01*
X1036376Y647997D01*
X1036379Y647959D01*
X1036398Y647891D01*
X1036420Y647828D01*
X1036448Y647772D01*
X1036476Y647728D01*
X1036492Y647710D01*
X1036501Y647691D01*
X1036510Y647679D01*
X1036520Y647669D01*
X1036523Y647666D01*
X1036526Y647663D01*
X1036554Y647635D01*
X1036588Y647610D01*
X1036623Y647591D01*
X1036657Y647573D01*
X1036685Y647560D01*
X1036710Y647551D01*
X1036726Y647548D01*
X1036729Y647544D01*
X1036732D01*
X1036763Y647538D01*
X1036794Y647532D01*
X1036829Y647529D01*
X1036860Y647526D01*
X1036891Y647523D01*
X1036975D01*
X1037010Y647526D01*
X1037022D01*
X1037031Y647529D01*
X1037041D01*
X1037082Y647535D01*
X1037125Y647541D01*
X1037144Y647544D01*
X1037159D01*
X1037169Y647548D01*
X1037172D01*
Y646942D01*
X1037169Y646930D01*
X1037166Y646917D01*
X1037144Y646899D01*
X1037119Y646883D01*
X1037085Y646874D01*
X1037053Y646867D01*
X1037028Y646864D01*
X1037000D01*
X1036954Y646867D01*
X1036907Y646871D01*
X1036807Y646886D01*
X1036713Y646911D01*
X1036626Y646936D01*
X1036585Y646948D01*
X1036548Y646961D01*
X1036517Y646974D01*
X1036489Y646986D01*
X1036467Y646995D01*
X1036451Y647002D01*
X1036439Y647008D01*
X1036436D01*
X1036376Y647030D01*
X1036320Y647051D01*
X1036270Y647077D01*
X1036227Y647101D01*
X1036186Y647126D01*
X1036152Y647151D01*
X1036121Y647176D01*
X1036092Y647201D01*
X1036067Y647226D01*
X1036049Y647248D01*
X1036033Y647267D01*
X1036021Y647282D01*
X1036011Y647298D01*
X1036005Y647307D01*
X1035999Y647314D01*
Y647317D01*
X1035952Y647385D01*
X1035911Y647451D01*
X1035877Y647513D01*
X1035849Y647569D01*
X1035830Y647616D01*
X1035821Y647635D01*
X1035815Y647650D01*
X1035812Y647663D01*
X1035808Y647672D01*
X1035805Y647679D01*
Y647682D01*
X1035787Y647750D01*
X1035774Y647816D01*
X1035762Y647878D01*
X1035756Y647938D01*
X1035752Y647984D01*
Y648006D01*
X1035749Y648022D01*
Y648037D01*
Y648047D01*
Y648053D01*
Y648056D01*
X1035752Y648131D01*
X1035762Y648206D01*
X1035774Y648271D01*
X1035787Y648331D01*
X1035799Y648381D01*
X1035805Y648399D01*
X1035812Y648418D01*
X1035818Y648430D01*
X1035821Y648440D01*
X1035824Y648446D01*
Y648449D01*
X1035855Y648518D01*
X1035890Y648580D01*
X1035927Y648640D01*
X1035961Y648690D01*
X1035996Y648730D01*
X1036021Y648761D01*
X1036030Y648774D01*
X1036039Y648783D01*
X1036042Y648786D01*
X1036046Y648789D01*
X1036242Y648977D01*
X1035734Y649972D01*
X1037262D01*
Y649407D01*
D02*
G37*
G36*
X1044432Y649991D02*
X1044495Y649984D01*
X1044554Y649972D01*
X1044604Y649963D01*
X1044648Y649950D01*
X1044682Y649937D01*
X1044694Y649934D01*
X1044704Y649931D01*
X1044707Y649928D01*
X1044710D01*
X1044769Y649903D01*
X1044822Y649872D01*
X1044872Y649844D01*
X1044913Y649816D01*
X1044944Y649791D01*
X1044969Y649769D01*
X1044984Y649756D01*
X1044991Y649750D01*
X1045025Y649713D01*
X1045059Y649669D01*
X1045094Y649622D01*
X1045128Y649576D01*
X1045159Y649532D01*
X1045181Y649498D01*
X1045190Y649485D01*
X1045197Y649476D01*
X1045203Y649470D01*
Y649466D01*
X1045228Y649423D01*
X1045250Y649376D01*
X1045287Y649289D01*
X1045312Y649207D01*
X1045328Y649132D01*
X1045334Y649098D01*
X1045340Y649070D01*
X1045343Y649042D01*
Y649020D01*
X1045346Y649002D01*
Y648989D01*
Y648980D01*
Y648977D01*
X1045340Y648889D01*
X1045325Y648802D01*
X1045306Y648724D01*
X1045281Y648652D01*
X1045268Y648618D01*
X1045256Y648590D01*
X1045247Y648565D01*
X1045237Y648543D01*
X1045228Y648527D01*
X1045222Y648512D01*
X1045215Y648505D01*
Y648502D01*
X1045197Y648474D01*
X1045172Y648440D01*
X1045144Y648409D01*
X1045115Y648374D01*
X1045087Y648346D01*
X1045065Y648324D01*
X1045050Y648309D01*
X1045044Y648303D01*
X1045034Y648290D01*
X1045022Y648278D01*
X1044991Y648250D01*
X1044975Y648234D01*
X1044959Y648221D01*
X1044950Y648215D01*
X1044947Y648212D01*
X1044588Y648559D01*
X1044607Y648590D01*
X1044623Y648615D01*
X1044635Y648633D01*
X1044648Y648649D01*
X1044654Y648661D01*
X1044660Y648668D01*
X1044663Y648674D01*
X1044688Y648724D01*
X1044704Y648774D01*
X1044716Y648820D01*
X1044725Y648864D01*
X1044732Y648899D01*
X1044735Y648923D01*
Y648942D01*
Y648948D01*
X1044732Y648992D01*
X1044729Y649033D01*
X1044725Y649048D01*
Y649061D01*
X1044722Y649067D01*
Y649070D01*
X1044710Y649114D01*
X1044697Y649151D01*
X1044691Y649167D01*
X1044685Y649176D01*
X1044682Y649183D01*
Y649186D01*
X1044660Y649229D01*
X1044632Y649267D01*
X1044607Y649298D01*
X1044582Y649323D01*
X1044557Y649342D01*
X1044538Y649354D01*
X1044526Y649363D01*
X1044523Y649367D01*
X1044482Y649385D01*
X1044445Y649401D01*
X1044404Y649410D01*
X1044370Y649420D01*
X1044339Y649423D01*
X1044317Y649426D01*
X1044276D01*
X1044258Y649423D01*
X1044245Y649420D01*
X1044242D01*
X1044223Y649416D01*
X1044204D01*
X1044192Y649413D01*
X1044189D01*
X1044142Y649401D01*
X1044098Y649379D01*
X1044058Y649351D01*
X1044024Y649323D01*
X1043995Y649295D01*
X1043974Y649273D01*
X1043961Y649257D01*
X1043955Y649254D01*
Y649251D01*
X1043917Y649201D01*
X1043892Y649151D01*
X1043874Y649104D01*
X1043858Y649061D01*
X1043852Y649026D01*
X1043849Y648998D01*
X1043846Y648980D01*
Y648977D01*
Y648973D01*
Y648945D01*
X1043852Y648920D01*
X1043858Y648895D01*
X1043864Y648877D01*
X1043871Y648861D01*
X1043877Y648849D01*
X1043880Y648842D01*
X1043883Y648839D01*
X1045203Y646877D01*
X1043287D01*
Y647495D01*
X1044089D01*
X1044030Y647557D01*
X1043970Y647626D01*
X1043914Y647694D01*
X1043864Y647763D01*
X1043821Y647822D01*
X1043802Y647847D01*
X1043786Y647869D01*
X1043774Y647888D01*
X1043764Y647900D01*
X1043761Y647909D01*
X1043758Y647913D01*
X1043693Y647994D01*
X1043630Y648078D01*
X1043571Y648162D01*
X1043518Y648243D01*
X1043496Y648281D01*
X1043474Y648315D01*
X1043456Y648346D01*
X1043440Y648374D01*
X1043427Y648393D01*
X1043418Y648412D01*
X1043412Y648421D01*
X1043409Y648424D01*
X1043390Y648459D01*
X1043375Y648487D01*
X1043359Y648515D01*
X1043346Y648537D01*
X1043334Y648555D01*
X1043325Y648574D01*
X1043312Y648599D01*
X1043303Y648615D01*
X1043297Y648624D01*
X1043293Y648630D01*
X1043272Y648683D01*
X1043256Y648736D01*
X1043243Y648783D01*
X1043237Y648824D01*
X1043231Y648861D01*
X1043228Y648886D01*
Y648905D01*
Y648911D01*
X1043231Y648980D01*
X1043234Y649039D01*
X1043240Y649095D01*
X1043247Y649142D01*
X1043256Y649179D01*
X1043262Y649207D01*
X1043265Y649226D01*
X1043268Y649232D01*
X1043287Y649285D01*
X1043309Y649338D01*
X1043334Y649388D01*
X1043356Y649438D01*
X1043381Y649479D01*
X1043396Y649510D01*
X1043406Y649522D01*
X1043409Y649532D01*
X1043415Y649535D01*
Y649538D01*
X1043468Y649610D01*
X1043527Y649675D01*
X1043583Y649728D01*
X1043633Y649772D01*
X1043680Y649806D01*
X1043718Y649834D01*
X1043730Y649841D01*
X1043740Y649847D01*
X1043746Y649853D01*
X1043749D01*
X1043824Y649891D01*
X1043905Y649922D01*
X1043983Y649947D01*
X1044058Y649966D01*
X1044092Y649972D01*
X1044126Y649978D01*
X1044154Y649984D01*
X1044179Y649987D01*
X1044198Y649991D01*
X1044214Y649994D01*
X1044370D01*
X1044432Y649991D01*
D02*
G37*
G36*
X1038673D02*
X1038735Y649984D01*
X1038794Y649972D01*
X1038844Y649963D01*
X1038888Y649950D01*
X1038922Y649937D01*
X1038935Y649934D01*
X1038944Y649931D01*
X1038947Y649928D01*
X1038950D01*
X1039010Y649903D01*
X1039063Y649872D01*
X1039113Y649844D01*
X1039153Y649816D01*
X1039184Y649791D01*
X1039209Y649769D01*
X1039225Y649756D01*
X1039231Y649750D01*
X1039266Y649713D01*
X1039300Y649669D01*
X1039334Y649622D01*
X1039368Y649576D01*
X1039400Y649532D01*
X1039421Y649498D01*
X1039431Y649485D01*
X1039437Y649476D01*
X1039443Y649470D01*
Y649466D01*
X1039468Y649423D01*
X1039490Y649376D01*
X1039528Y649289D01*
X1039552Y649207D01*
X1039568Y649132D01*
X1039574Y649098D01*
X1039581Y649070D01*
X1039584Y649042D01*
Y649020D01*
X1039587Y649002D01*
Y648989D01*
Y648980D01*
Y648977D01*
X1039581Y648889D01*
X1039565Y648802D01*
X1039546Y648724D01*
X1039521Y648652D01*
X1039509Y648618D01*
X1039496Y648590D01*
X1039487Y648565D01*
X1039478Y648543D01*
X1039468Y648527D01*
X1039462Y648512D01*
X1039456Y648505D01*
Y648502D01*
X1039437Y648474D01*
X1039412Y648440D01*
X1039384Y648409D01*
X1039356Y648374D01*
X1039328Y648346D01*
X1039306Y648324D01*
X1039290Y648309D01*
X1039284Y648303D01*
X1039275Y648290D01*
X1039262Y648278D01*
X1039231Y648250D01*
X1039215Y648234D01*
X1039200Y648221D01*
X1039191Y648215D01*
X1039187Y648212D01*
X1038829Y648559D01*
X1038847Y648590D01*
X1038863Y648615D01*
X1038875Y648633D01*
X1038888Y648649D01*
X1038894Y648661D01*
X1038900Y648668D01*
X1038904Y648674D01*
X1038929Y648724D01*
X1038944Y648774D01*
X1038957Y648820D01*
X1038966Y648864D01*
X1038972Y648899D01*
X1038975Y648923D01*
Y648942D01*
Y648948D01*
X1038972Y648992D01*
X1038969Y649033D01*
X1038966Y649048D01*
Y649061D01*
X1038963Y649067D01*
Y649070D01*
X1038950Y649114D01*
X1038938Y649151D01*
X1038932Y649167D01*
X1038925Y649176D01*
X1038922Y649183D01*
Y649186D01*
X1038900Y649229D01*
X1038872Y649267D01*
X1038847Y649298D01*
X1038822Y649323D01*
X1038797Y649342D01*
X1038779Y649354D01*
X1038766Y649363D01*
X1038763Y649367D01*
X1038723Y649385D01*
X1038685Y649401D01*
X1038645Y649410D01*
X1038610Y649420D01*
X1038579Y649423D01*
X1038557Y649426D01*
X1038517D01*
X1038498Y649423D01*
X1038485Y649420D01*
X1038482D01*
X1038464Y649416D01*
X1038445D01*
X1038432Y649413D01*
X1038429D01*
X1038383Y649401D01*
X1038339Y649379D01*
X1038298Y649351D01*
X1038264Y649323D01*
X1038236Y649295D01*
X1038214Y649273D01*
X1038202Y649257D01*
X1038195Y649254D01*
Y649251D01*
X1038158Y649201D01*
X1038133Y649151D01*
X1038114Y649104D01*
X1038099Y649061D01*
X1038092Y649026D01*
X1038089Y648998D01*
X1038086Y648980D01*
Y648977D01*
Y648973D01*
Y648945D01*
X1038092Y648920D01*
X1038099Y648895D01*
X1038105Y648877D01*
X1038111Y648861D01*
X1038117Y648849D01*
X1038120Y648842D01*
X1038124Y648839D01*
X1039443Y646877D01*
X1037528D01*
Y647495D01*
X1038329D01*
X1038270Y647557D01*
X1038211Y647626D01*
X1038155Y647694D01*
X1038105Y647763D01*
X1038061Y647822D01*
X1038042Y647847D01*
X1038027Y647869D01*
X1038014Y647888D01*
X1038005Y647900D01*
X1038002Y647909D01*
X1037999Y647913D01*
X1037933Y647994D01*
X1037871Y648078D01*
X1037811Y648162D01*
X1037759Y648243D01*
X1037737Y648281D01*
X1037715Y648315D01*
X1037696Y648346D01*
X1037681Y648374D01*
X1037668Y648393D01*
X1037659Y648412D01*
X1037652Y648421D01*
X1037649Y648424D01*
X1037631Y648459D01*
X1037615Y648487D01*
X1037599Y648515D01*
X1037587Y648537D01*
X1037574Y648555D01*
X1037565Y648574D01*
X1037553Y648599D01*
X1037543Y648615D01*
X1037537Y648624D01*
X1037534Y648630D01*
X1037512Y648683D01*
X1037496Y648736D01*
X1037484Y648783D01*
X1037478Y648824D01*
X1037471Y648861D01*
X1037468Y648886D01*
Y648905D01*
Y648911D01*
X1037471Y648980D01*
X1037475Y649039D01*
X1037481Y649095D01*
X1037487Y649142D01*
X1037496Y649179D01*
X1037503Y649207D01*
X1037506Y649226D01*
X1037509Y649232D01*
X1037528Y649285D01*
X1037549Y649338D01*
X1037574Y649388D01*
X1037596Y649438D01*
X1037621Y649479D01*
X1037637Y649510D01*
X1037646Y649522D01*
X1037649Y649532D01*
X1037656Y649535D01*
Y649538D01*
X1037709Y649610D01*
X1037768Y649675D01*
X1037824Y649728D01*
X1037874Y649772D01*
X1037921Y649806D01*
X1037958Y649834D01*
X1037971Y649841D01*
X1037980Y649847D01*
X1037986Y649853D01*
X1037989D01*
X1038064Y649891D01*
X1038145Y649922D01*
X1038223Y649947D01*
X1038298Y649966D01*
X1038333Y649972D01*
X1038367Y649978D01*
X1038395Y649984D01*
X1038420Y649987D01*
X1038439Y649991D01*
X1038454Y649994D01*
X1038610D01*
X1038673Y649991D01*
D02*
G37*
G36*
X1058054Y648574D02*
X1058101Y648562D01*
X1058145Y648546D01*
X1058182Y648530D01*
X1058210Y648512D01*
X1058232Y648496D01*
X1058244Y648484D01*
X1058251Y648481D01*
X1058285Y648443D01*
X1058310Y648399D01*
X1058329Y648359D01*
X1058341Y648315D01*
X1058347Y648278D01*
X1058350Y648250D01*
X1058354Y648237D01*
Y648228D01*
Y648225D01*
Y648221D01*
X1058350Y648187D01*
X1058344Y648153D01*
X1058335Y648122D01*
X1058325Y648094D01*
X1058294Y648037D01*
X1058260Y647994D01*
X1058226Y647956D01*
X1058195Y647928D01*
X1058185Y647919D01*
X1058176Y647913D01*
X1058169Y647906D01*
X1058166D01*
X1058138Y647875D01*
X1058104Y647853D01*
X1058067Y647835D01*
X1058029Y647825D01*
X1057995Y647819D01*
X1057967Y647816D01*
X1057948Y647813D01*
X1057942D01*
X1057889Y647816D01*
X1057842Y647828D01*
X1057798Y647844D01*
X1057761Y647860D01*
X1057733Y647878D01*
X1057711Y647891D01*
X1057695Y647903D01*
X1057692Y647906D01*
X1057658Y647944D01*
X1057630Y647988D01*
X1057611Y648031D01*
X1057599Y648072D01*
X1057592Y648109D01*
X1057586Y648140D01*
Y648153D01*
Y648162D01*
Y648165D01*
Y648169D01*
X1057589Y648203D01*
X1057595Y648237D01*
X1057602Y648268D01*
X1057614Y648296D01*
X1057645Y648349D01*
X1057677Y648396D01*
X1057711Y648434D01*
X1057742Y648462D01*
X1057755Y648471D01*
X1057761Y648477D01*
X1057767Y648484D01*
X1057770D01*
X1057798Y648515D01*
X1057836Y648537D01*
X1057873Y648555D01*
X1057911Y648565D01*
X1057945Y648571D01*
X1057973Y648577D01*
X1058001D01*
X1058054Y648574D01*
D02*
G37*
G36*
X1058965Y647663D02*
X1059012Y647650D01*
X1059056Y647638D01*
X1059093Y647619D01*
X1059121Y647604D01*
X1059143Y647588D01*
X1059155Y647576D01*
X1059162Y647573D01*
X1059196Y647535D01*
X1059221Y647491D01*
X1059240Y647451D01*
X1059252Y647407D01*
X1059258Y647370D01*
X1059262Y647342D01*
X1059265Y647329D01*
Y647320D01*
Y647317D01*
Y647314D01*
X1059258Y647245D01*
X1059243Y647186D01*
X1059224Y647133D01*
X1059199Y647089D01*
X1059174Y647051D01*
X1059155Y647026D01*
X1059140Y647011D01*
X1059134Y647005D01*
X1059087Y646970D01*
X1059040Y646948D01*
X1058993Y646930D01*
X1058949Y646917D01*
X1058909Y646911D01*
X1058881Y646908D01*
X1058868Y646905D01*
X1058853D01*
X1058800Y646908D01*
X1058753Y646920D01*
X1058709Y646936D01*
X1058672Y646952D01*
X1058644Y646970D01*
X1058622Y646983D01*
X1058606Y646995D01*
X1058603Y646999D01*
X1058569Y647036D01*
X1058541Y647080D01*
X1058522Y647120D01*
X1058510Y647164D01*
X1058503Y647201D01*
X1058497Y647229D01*
Y647242D01*
Y647251D01*
Y647254D01*
Y647257D01*
Y647292D01*
X1058503Y647323D01*
X1058519Y647385D01*
X1058541Y647435D01*
X1058566Y647482D01*
X1058591Y647516D01*
X1058613Y647541D01*
X1058628Y647557D01*
X1058631Y647563D01*
X1058634D01*
X1058678Y647598D01*
X1058725Y647622D01*
X1058772Y647641D01*
X1058815Y647654D01*
X1058856Y647660D01*
X1058884Y647666D01*
X1058912D01*
X1058965Y647663D01*
D02*
G37*
G36*
X1058054Y647666D02*
X1058101Y647654D01*
X1058145Y647638D01*
X1058182Y647622D01*
X1058210Y647604D01*
X1058232Y647588D01*
X1058244Y647576D01*
X1058251Y647573D01*
X1058285Y647535D01*
X1058310Y647491D01*
X1058329Y647451D01*
X1058341Y647407D01*
X1058347Y647370D01*
X1058350Y647342D01*
X1058354Y647329D01*
Y647320D01*
Y647317D01*
Y647314D01*
X1058350Y647279D01*
X1058344Y647245D01*
X1058335Y647214D01*
X1058325Y647186D01*
X1058294Y647129D01*
X1058260Y647086D01*
X1058226Y647048D01*
X1058195Y647020D01*
X1058185Y647011D01*
X1058176Y647005D01*
X1058169Y646999D01*
X1058166D01*
X1058138Y646967D01*
X1058104Y646945D01*
X1058067Y646927D01*
X1058029Y646917D01*
X1057995Y646911D01*
X1057967Y646908D01*
X1057948Y646905D01*
X1057942D01*
X1057889Y646908D01*
X1057842Y646920D01*
X1057798Y646936D01*
X1057761Y646952D01*
X1057733Y646970D01*
X1057711Y646983D01*
X1057695Y646995D01*
X1057692Y646999D01*
X1057658Y647036D01*
X1057630Y647080D01*
X1057611Y647123D01*
X1057599Y647164D01*
X1057592Y647201D01*
X1057586Y647232D01*
Y647245D01*
Y647254D01*
Y647257D01*
Y647261D01*
X1057589Y647295D01*
X1057595Y647329D01*
X1057602Y647360D01*
X1057614Y647389D01*
X1057645Y647441D01*
X1057677Y647488D01*
X1057711Y647526D01*
X1057742Y647554D01*
X1057755Y647563D01*
X1057761Y647569D01*
X1057767Y647576D01*
X1057770D01*
X1057798Y647607D01*
X1057836Y647629D01*
X1057873Y647647D01*
X1057911Y647657D01*
X1057945Y647663D01*
X1057973Y647669D01*
X1058001D01*
X1058054Y647666D01*
D02*
G37*
G36*
X1054494Y647663D02*
X1054541Y647650D01*
X1054585Y647638D01*
X1054622Y647619D01*
X1054650Y647604D01*
X1054672Y647588D01*
X1054685Y647576D01*
X1054691Y647573D01*
X1054725Y647535D01*
X1054750Y647491D01*
X1054769Y647451D01*
X1054781Y647407D01*
X1054787Y647370D01*
X1054791Y647342D01*
X1054794Y647329D01*
Y647320D01*
Y647317D01*
Y647314D01*
X1054787Y647245D01*
X1054772Y647186D01*
X1054753Y647133D01*
X1054728Y647089D01*
X1054703Y647051D01*
X1054685Y647026D01*
X1054669Y647011D01*
X1054663Y647005D01*
X1054616Y646970D01*
X1054569Y646948D01*
X1054522Y646930D01*
X1054479Y646917D01*
X1054438Y646911D01*
X1054410Y646908D01*
X1054397Y646905D01*
X1054382D01*
X1054329Y646908D01*
X1054282Y646920D01*
X1054238Y646936D01*
X1054201Y646952D01*
X1054173Y646970D01*
X1054151Y646983D01*
X1054135Y646995D01*
X1054132Y646999D01*
X1054098Y647036D01*
X1054070Y647080D01*
X1054051Y647120D01*
X1054039Y647164D01*
X1054032Y647201D01*
X1054026Y647229D01*
Y647242D01*
Y647251D01*
Y647254D01*
Y647257D01*
Y647292D01*
X1054032Y647323D01*
X1054048Y647385D01*
X1054070Y647435D01*
X1054095Y647482D01*
X1054120Y647516D01*
X1054142Y647541D01*
X1054157Y647557D01*
X1054160Y647563D01*
X1054163D01*
X1054207Y647598D01*
X1054254Y647622D01*
X1054301Y647641D01*
X1054344Y647654D01*
X1054385Y647660D01*
X1054413Y647666D01*
X1054441D01*
X1054494Y647663D01*
D02*
G37*
G36*
X1065994Y646883D02*
X1065367D01*
Y648028D01*
X1064684Y646883D01*
X1063960D01*
X1064706Y648109D01*
X1064650Y648128D01*
X1064600Y648147D01*
X1064550Y648172D01*
X1064503Y648197D01*
X1064463Y648225D01*
X1064422Y648253D01*
X1064385Y648281D01*
X1064353Y648309D01*
X1064325Y648334D01*
X1064297Y648359D01*
X1064275Y648384D01*
X1064260Y648403D01*
X1064244Y648418D01*
X1064235Y648434D01*
X1064229Y648440D01*
X1064225Y648443D01*
X1064194Y648493D01*
X1064166Y648543D01*
X1064141Y648593D01*
X1064119Y648643D01*
X1064104Y648693D01*
X1064088Y648742D01*
X1064066Y648836D01*
X1064060Y648880D01*
X1064054Y648920D01*
X1064051Y648955D01*
X1064048Y648983D01*
X1064044Y649008D01*
Y649026D01*
Y649039D01*
Y649042D01*
X1064048Y649104D01*
X1064054Y649164D01*
X1064066Y649223D01*
X1064082Y649279D01*
X1064104Y649332D01*
X1064122Y649385D01*
X1064147Y649432D01*
X1064169Y649479D01*
X1064191Y649519D01*
X1064216Y649557D01*
X1064235Y649588D01*
X1064254Y649616D01*
X1064272Y649638D01*
X1064285Y649654D01*
X1064291Y649663D01*
X1064294Y649666D01*
X1064347Y649725D01*
X1064406Y649775D01*
X1064463Y649822D01*
X1064522Y649860D01*
X1064581Y649891D01*
X1064640Y649919D01*
X1064697Y649941D01*
X1064750Y649959D01*
X1064799Y649972D01*
X1064846Y649981D01*
X1064887Y649991D01*
X1064924Y649994D01*
X1064952Y649997D01*
X1064974Y650000D01*
X1065994D01*
Y646883D01*
D02*
G37*
G36*
X1055642Y646877D02*
X1055021D01*
Y649987D01*
X1055642D01*
Y646877D01*
D02*
G37*
G36*
X1047471Y649984D02*
X1048610Y646877D01*
X1048385D01*
X1047243Y649991D01*
X1047471Y649984D01*
D02*
G37*
G36*
X1062962Y649972D02*
X1063021Y649966D01*
X1063071Y649953D01*
X1063115Y649944D01*
X1063149Y649931D01*
X1063174Y649919D01*
X1063190Y649913D01*
X1063196Y649909D01*
X1063249Y649881D01*
X1063296Y649847D01*
X1063342Y649813D01*
X1063383Y649782D01*
X1063417Y649750D01*
X1063442Y649725D01*
X1063458Y649710D01*
X1063461Y649707D01*
X1063464Y649704D01*
X1063508Y649654D01*
X1063545Y649607D01*
X1063577Y649563D01*
X1063601Y649522D01*
X1063620Y649491D01*
X1063636Y649466D01*
X1063642Y649451D01*
X1063645Y649444D01*
X1063664Y649398D01*
X1063676Y649345D01*
X1063689Y649298D01*
X1063695Y649251D01*
X1063698Y649211D01*
X1063701Y649179D01*
Y649167D01*
Y649157D01*
Y649154D01*
Y649151D01*
Y647735D01*
X1063698Y647669D01*
X1063692Y647613D01*
X1063683Y647560D01*
X1063673Y647513D01*
X1063664Y647476D01*
X1063655Y647448D01*
X1063648Y647432D01*
X1063645Y647426D01*
X1063620Y647376D01*
X1063592Y647329D01*
X1063564Y647282D01*
X1063533Y647242D01*
X1063508Y647207D01*
X1063483Y647183D01*
X1063470Y647164D01*
X1063464Y647161D01*
Y647158D01*
X1063408Y647101D01*
X1063349Y647051D01*
X1063296Y647011D01*
X1063249Y646980D01*
X1063205Y646955D01*
X1063174Y646939D01*
X1063161Y646933D01*
X1063152Y646930D01*
X1063149Y646927D01*
X1063146D01*
X1063080Y646905D01*
X1063015Y646889D01*
X1062946Y646877D01*
X1062887Y646871D01*
X1062831Y646864D01*
X1062809D01*
X1062787Y646861D01*
X1061988D01*
Y647479D01*
X1062846D01*
X1062884Y647482D01*
X1062915Y647491D01*
X1062946Y647507D01*
X1062971Y647523D01*
X1062990Y647535D01*
X1063006Y647551D01*
X1063015Y647560D01*
X1063018Y647563D01*
X1063040Y647594D01*
X1063052Y647619D01*
X1063059Y647638D01*
X1063062Y647641D01*
Y647644D01*
X1063065Y647660D01*
Y647682D01*
X1063068Y647725D01*
Y647747D01*
Y647763D01*
Y647775D01*
Y647779D01*
Y648118D01*
X1061995D01*
Y648718D01*
X1063068D01*
Y649114D01*
X1063065Y649148D01*
X1063059Y649179D01*
X1063049Y649207D01*
X1063037Y649232D01*
X1063024Y649251D01*
X1063015Y649264D01*
X1063009Y649273D01*
X1063006Y649276D01*
X1062990Y649295D01*
X1062971Y649307D01*
X1062940Y649329D01*
X1062928Y649335D01*
X1062918Y649338D01*
X1062912Y649342D01*
X1062909D01*
X1062865Y649351D01*
X1062825Y649354D01*
X1062806Y649357D01*
X1061988D01*
Y649975D01*
X1062899D01*
X1062962Y649972D01*
D02*
G37*
G36*
X1052401Y649953D02*
X1052529Y649937D01*
X1052647Y649916D01*
X1052759Y649885D01*
X1052862Y649847D01*
X1052959Y649806D01*
X1053047Y649763D01*
X1053125Y649716D01*
X1053196Y649669D01*
X1053259Y649625D01*
X1053312Y649585D01*
X1053355Y649547D01*
X1053390Y649516D01*
X1053415Y649495D01*
X1053427Y649479D01*
X1053433Y649473D01*
X1053502Y649388D01*
X1053561Y649301D01*
X1053611Y649214D01*
X1053655Y649123D01*
X1053692Y649033D01*
X1053724Y648945D01*
X1053749Y648858D01*
X1053770Y648777D01*
X1053786Y648702D01*
X1053795Y648630D01*
X1053805Y648568D01*
X1053811Y648515D01*
X1053814Y648471D01*
X1053817Y648437D01*
Y648424D01*
Y648415D01*
Y648412D01*
Y648409D01*
X1053814Y648293D01*
X1053802Y648181D01*
X1053783Y648072D01*
X1053758Y647972D01*
X1053727Y647875D01*
X1053695Y647788D01*
X1053661Y647707D01*
X1053624Y647632D01*
X1053586Y647563D01*
X1053552Y647504D01*
X1053521Y647451D01*
X1053489Y647407D01*
X1053465Y647373D01*
X1053446Y647351D01*
X1053433Y647335D01*
X1053430Y647329D01*
X1053346Y647245D01*
X1053259Y647170D01*
X1053165Y647105D01*
X1053068Y647048D01*
X1052972Y647002D01*
X1052875Y646961D01*
X1052778Y646930D01*
X1052688Y646905D01*
X1052600Y646883D01*
X1052522Y646867D01*
X1052451Y646858D01*
X1052388Y646849D01*
X1052360D01*
X1052338Y646846D01*
X1052316D01*
X1052298Y646842D01*
X1052267D01*
X1052132Y646849D01*
X1052004Y646864D01*
X1051886Y646886D01*
X1051773Y646917D01*
X1051667Y646955D01*
X1051574Y646995D01*
X1051483Y647039D01*
X1051405Y647086D01*
X1051334Y647133D01*
X1051271Y647176D01*
X1051218Y647217D01*
X1051175Y647254D01*
X1051140Y647286D01*
X1051115Y647307D01*
X1051103Y647323D01*
X1051097Y647329D01*
X1051028Y647413D01*
X1050969Y647501D01*
X1050916Y647591D01*
X1050872Y647682D01*
X1050834Y647772D01*
X1050800Y647863D01*
X1050775Y647947D01*
X1050756Y648028D01*
X1050738Y648106D01*
X1050728Y648178D01*
X1050719Y648240D01*
X1050713Y648293D01*
X1050710Y648337D01*
X1050706Y648371D01*
Y648384D01*
Y648393D01*
Y648396D01*
Y648399D01*
X1050710Y648515D01*
X1050722Y648624D01*
X1050744Y648730D01*
X1050769Y648830D01*
X1050797Y648927D01*
X1050831Y649014D01*
X1050866Y649095D01*
X1050903Y649170D01*
X1050941Y649235D01*
X1050975Y649298D01*
X1051009Y649348D01*
X1051037Y649392D01*
X1051062Y649426D01*
X1051084Y649451D01*
X1051097Y649463D01*
X1051100Y649470D01*
X1051184Y649557D01*
X1051274Y649632D01*
X1051368Y649697D01*
X1051465Y649753D01*
X1051561Y649800D01*
X1051658Y649841D01*
X1051755Y649872D01*
X1051845Y649897D01*
X1051933Y649919D01*
X1052011Y649934D01*
X1052082Y649944D01*
X1052145Y649953D01*
X1052173D01*
X1052195Y649956D01*
X1052217D01*
X1052235Y649959D01*
X1052267D01*
X1052401Y649953D01*
D02*
G37*
G36*
X1041549D02*
X1041677Y649937D01*
X1041796Y649916D01*
X1041908Y649885D01*
X1042011Y649847D01*
X1042108Y649806D01*
X1042195Y649763D01*
X1042273Y649716D01*
X1042345Y649669D01*
X1042407Y649625D01*
X1042460Y649585D01*
X1042504Y649547D01*
X1042538Y649516D01*
X1042563Y649495D01*
X1042576Y649479D01*
X1042582Y649473D01*
X1042651Y649388D01*
X1042710Y649301D01*
X1042760Y649214D01*
X1042803Y649123D01*
X1042841Y649033D01*
X1042872Y648945D01*
X1042897Y648858D01*
X1042919Y648777D01*
X1042935Y648702D01*
X1042944Y648630D01*
X1042953Y648568D01*
X1042959Y648515D01*
X1042963Y648471D01*
X1042966Y648437D01*
Y648424D01*
Y648415D01*
Y648412D01*
Y648409D01*
X1042963Y648293D01*
X1042950Y648181D01*
X1042931Y648072D01*
X1042906Y647972D01*
X1042875Y647875D01*
X1042844Y647788D01*
X1042810Y647707D01*
X1042772Y647632D01*
X1042735Y647563D01*
X1042701Y647504D01*
X1042669Y647451D01*
X1042638Y647407D01*
X1042613Y647373D01*
X1042595Y647351D01*
X1042582Y647335D01*
X1042579Y647329D01*
X1042495Y647245D01*
X1042407Y647170D01*
X1042314Y647105D01*
X1042217Y647048D01*
X1042120Y647002D01*
X1042023Y646961D01*
X1041927Y646930D01*
X1041836Y646905D01*
X1041749Y646883D01*
X1041671Y646867D01*
X1041599Y646858D01*
X1041537Y646849D01*
X1041509D01*
X1041487Y646846D01*
X1041465D01*
X1041446Y646842D01*
X1041415D01*
X1041281Y646849D01*
X1041153Y646864D01*
X1041035Y646886D01*
X1040922Y646917D01*
X1040816Y646955D01*
X1040722Y646995D01*
X1040632Y647039D01*
X1040554Y647086D01*
X1040482Y647133D01*
X1040420Y647176D01*
X1040367Y647217D01*
X1040323Y647254D01*
X1040289Y647286D01*
X1040264Y647307D01*
X1040251Y647323D01*
X1040245Y647329D01*
X1040176Y647413D01*
X1040117Y647501D01*
X1040064Y647591D01*
X1040020Y647682D01*
X1039983Y647772D01*
X1039949Y647863D01*
X1039924Y647947D01*
X1039905Y648028D01*
X1039886Y648106D01*
X1039877Y648178D01*
X1039868Y648240D01*
X1039861Y648293D01*
X1039858Y648337D01*
X1039855Y648371D01*
Y648384D01*
Y648393D01*
Y648396D01*
Y648399D01*
X1039858Y648515D01*
X1039871Y648624D01*
X1039893Y648730D01*
X1039917Y648830D01*
X1039946Y648927D01*
X1039980Y649014D01*
X1040014Y649095D01*
X1040052Y649170D01*
X1040089Y649235D01*
X1040123Y649298D01*
X1040158Y649348D01*
X1040186Y649392D01*
X1040211Y649426D01*
X1040233Y649451D01*
X1040245Y649463D01*
X1040248Y649470D01*
X1040333Y649557D01*
X1040423Y649632D01*
X1040517Y649697D01*
X1040613Y649753D01*
X1040710Y649800D01*
X1040807Y649841D01*
X1040903Y649872D01*
X1040994Y649897D01*
X1041081Y649919D01*
X1041159Y649934D01*
X1041231Y649944D01*
X1041293Y649953D01*
X1041321D01*
X1041343Y649956D01*
X1041365D01*
X1041384Y649959D01*
X1041415D01*
X1041549Y649953D01*
D02*
G37*
%LPC*%
G36*
X1034834Y672796D02*
X1034599D01*
Y672779D01*
X1034481D01*
Y672762D01*
X1034397D01*
Y672746D01*
X1034330D01*
Y672729D01*
X1034280D01*
Y672712D01*
X1034246D01*
Y672695D01*
X1034212D01*
Y672679D01*
X1034162D01*
Y672662D01*
X1034145D01*
Y672645D01*
X1034111D01*
Y672628D01*
X1034078D01*
Y672611D01*
X1034044D01*
Y672594D01*
X1034027D01*
Y672578D01*
X1033994D01*
Y672561D01*
X1033977D01*
Y672544D01*
X1033960D01*
Y672527D01*
X1033943D01*
Y672510D01*
X1033910D01*
Y672494D01*
X1033893D01*
Y672477D01*
X1033876D01*
Y672460D01*
X1033859D01*
Y672443D01*
X1033842D01*
Y672426D01*
X1033826D01*
Y672410D01*
X1033809D01*
Y672393D01*
X1033792D01*
Y672376D01*
X1033775D01*
Y672342D01*
X1033759D01*
Y672326D01*
X1033742D01*
Y672309D01*
X1033725D01*
Y672292D01*
X1033708D01*
Y672258D01*
X1033691D01*
Y672241D01*
X1033674D01*
Y672208D01*
X1033658D01*
Y672174D01*
X1033641D01*
Y672141D01*
X1033624D01*
Y672107D01*
X1033607D01*
Y672073D01*
X1033590D01*
Y672040D01*
X1033574D01*
Y671989D01*
X1033557D01*
Y671922D01*
X1033540D01*
Y671821D01*
X1033523D01*
Y671502D01*
X1033540D01*
Y671401D01*
X1033557D01*
Y671334D01*
X1033574D01*
Y671283D01*
X1033590D01*
Y671250D01*
X1033607D01*
Y671216D01*
X1033624D01*
Y671183D01*
X1033641D01*
Y671149D01*
X1033658D01*
Y671115D01*
X1033674D01*
Y671082D01*
X1033691D01*
Y671065D01*
X1033708D01*
Y671031D01*
X1033725D01*
Y671014D01*
X1033742D01*
Y670998D01*
X1033759D01*
Y670964D01*
X1033775D01*
Y670947D01*
X1033792D01*
Y670930D01*
X1033809D01*
Y670914D01*
X1033826D01*
Y670897D01*
X1033842D01*
Y670880D01*
X1033859D01*
Y670863D01*
X1033876D01*
Y670846D01*
X1033893D01*
Y670830D01*
X1033910D01*
Y670813D01*
X1033927D01*
Y670796D01*
X1033943D01*
Y670779D01*
X1033977D01*
Y670762D01*
X1033994D01*
Y670746D01*
X1034011D01*
Y670729D01*
X1034044D01*
Y670712D01*
X1034061D01*
Y670695D01*
X1034095D01*
Y670678D01*
X1034128D01*
Y670661D01*
X1034162D01*
Y670645D01*
X1034196D01*
Y670628D01*
X1034229D01*
Y670611D01*
X1034263D01*
Y670594D01*
X1034313D01*
Y670577D01*
X1034380D01*
Y670561D01*
X1034448D01*
Y670544D01*
X1034582D01*
Y670527D01*
X1034801D01*
Y670544D01*
X1034935D01*
Y670561D01*
X1035019D01*
Y670577D01*
X1035086D01*
Y670594D01*
X1035137D01*
Y670611D01*
X1035187D01*
Y670628D01*
X1035221D01*
Y670645D01*
X1035254D01*
Y670661D01*
X1035288D01*
Y670678D01*
X1035322D01*
Y670695D01*
X1035355D01*
Y670712D01*
X1035372D01*
Y670729D01*
X1035406D01*
Y670746D01*
X1035423D01*
Y670762D01*
X1035456D01*
Y670779D01*
X1035473D01*
Y670796D01*
X1035490D01*
Y670813D01*
X1035523D01*
Y670830D01*
X1035540D01*
Y670846D01*
X1035557D01*
Y670863D01*
X1035574D01*
Y670880D01*
X1035591D01*
Y670897D01*
X1035607D01*
Y670914D01*
X1035624D01*
Y670930D01*
X1035641D01*
Y670947D01*
X1035658D01*
Y670981D01*
X1035675D01*
Y670998D01*
X1035691D01*
Y671014D01*
X1035708D01*
Y671031D01*
X1035725D01*
Y671065D01*
X1035742D01*
Y671082D01*
X1035759D01*
Y671115D01*
X1035775D01*
Y671149D01*
X1035792D01*
Y671183D01*
X1035809D01*
Y671216D01*
X1035826D01*
Y671250D01*
X1035843D01*
Y671300D01*
X1035859D01*
Y671351D01*
X1035876D01*
Y671418D01*
X1035893D01*
Y671519D01*
X1035910D01*
Y671805D01*
X1035893D01*
Y671905D01*
X1035876D01*
Y671973D01*
X1035859D01*
Y672023D01*
X1035843D01*
Y672057D01*
X1035826D01*
Y672107D01*
X1035809D01*
Y672141D01*
X1035792D01*
Y672157D01*
X1035775D01*
Y672191D01*
X1035759D01*
Y672225D01*
X1035742D01*
Y672241D01*
X1035725D01*
Y672275D01*
X1035708D01*
Y672292D01*
X1035691D01*
Y672326D01*
X1035675D01*
Y672342D01*
X1035658D01*
Y672359D01*
X1035641D01*
Y672376D01*
X1035624D01*
Y672393D01*
X1035607D01*
Y672410D01*
X1035591D01*
Y672426D01*
X1035574D01*
Y672443D01*
X1035557D01*
Y672460D01*
X1035540D01*
Y672477D01*
X1035523D01*
Y672494D01*
X1035507D01*
Y672510D01*
X1035490D01*
Y672527D01*
X1035473D01*
Y672544D01*
X1035439D01*
Y672561D01*
X1035423D01*
Y672578D01*
X1035406D01*
Y672594D01*
X1035372D01*
Y672611D01*
X1035338D01*
Y672628D01*
X1035322D01*
Y672645D01*
X1035288D01*
Y672662D01*
X1035254D01*
Y672679D01*
X1035221D01*
Y672695D01*
X1035187D01*
Y672712D01*
X1035137D01*
Y672729D01*
X1035086D01*
Y672746D01*
X1035036D01*
Y672762D01*
X1034952D01*
Y672779D01*
X1034834D01*
Y672796D01*
D02*
G37*
G36*
X1039793Y672779D02*
X1039574D01*
Y672762D01*
X1039440D01*
Y672746D01*
X1039356D01*
Y672729D01*
X1039305D01*
Y672712D01*
X1039255D01*
Y672695D01*
X1039204D01*
Y672679D01*
X1039171D01*
Y672662D01*
X1039137D01*
Y672645D01*
X1039104D01*
Y672628D01*
X1039070D01*
Y672611D01*
X1039053D01*
Y672594D01*
X1039019D01*
Y672578D01*
X1038986D01*
Y672561D01*
X1038969D01*
Y672544D01*
X1038952D01*
Y672527D01*
X1038919D01*
Y672510D01*
X1038902D01*
Y672494D01*
X1038885D01*
Y672477D01*
X1038868D01*
Y672460D01*
X1038851D01*
Y672443D01*
X1038834D01*
Y672426D01*
X1038818D01*
Y672410D01*
X1038801D01*
Y672393D01*
X1038784D01*
Y672376D01*
X1038767D01*
Y672359D01*
X1038750D01*
Y672342D01*
X1038734D01*
Y672326D01*
X1038717D01*
Y672309D01*
X1038700D01*
Y672275D01*
X1038683D01*
Y672258D01*
X1038667D01*
Y672225D01*
X1038650D01*
Y672208D01*
X1038633D01*
Y672174D01*
X1038616D01*
Y672141D01*
X1038599D01*
Y672107D01*
X1038582D01*
Y672073D01*
X1038566D01*
Y672040D01*
X1038549D01*
Y671989D01*
X1038532D01*
Y671939D01*
X1038515D01*
Y671855D01*
X1038498D01*
Y671720D01*
X1038482D01*
Y671586D01*
X1038498D01*
Y671435D01*
X1038515D01*
Y671368D01*
X1038532D01*
Y671300D01*
X1038549D01*
Y671267D01*
X1038566D01*
Y671216D01*
X1038582D01*
Y671183D01*
X1038599D01*
Y671149D01*
X1038616D01*
Y671115D01*
X1038633D01*
Y671099D01*
X1038650D01*
Y671065D01*
X1038667D01*
Y671048D01*
X1038683D01*
Y671014D01*
X1038700D01*
Y670998D01*
X1038717D01*
Y670964D01*
X1038734D01*
Y670947D01*
X1038750D01*
Y670930D01*
X1038767D01*
Y670914D01*
X1038784D01*
Y670897D01*
X1038801D01*
Y670880D01*
X1038818D01*
Y670863D01*
X1038834D01*
Y670846D01*
X1038851D01*
Y670830D01*
X1038868D01*
Y670813D01*
X1038885D01*
Y670796D01*
X1038902D01*
Y670779D01*
X1038935D01*
Y670762D01*
X1038952D01*
Y670746D01*
X1038969D01*
Y670729D01*
X1039003D01*
Y670712D01*
X1039019D01*
Y670695D01*
X1039053D01*
Y670678D01*
X1039070D01*
Y670661D01*
X1039104D01*
Y670645D01*
X1039137D01*
Y670628D01*
X1039171D01*
Y670611D01*
X1039204D01*
Y670594D01*
X1039255D01*
Y670577D01*
X1039305D01*
Y670561D01*
X1039356D01*
Y670544D01*
X1039440D01*
Y670527D01*
X1039574D01*
Y670510D01*
X1039793D01*
Y670527D01*
X1039927D01*
Y670544D01*
X1039994D01*
Y670561D01*
X1040061D01*
Y670577D01*
X1040112D01*
Y670594D01*
X1040146D01*
Y670611D01*
X1040196D01*
Y670628D01*
X1040230D01*
Y670645D01*
X1040246D01*
Y670661D01*
X1040280D01*
Y670678D01*
X1040314D01*
Y670695D01*
X1040347D01*
Y670712D01*
X1040364D01*
Y670729D01*
X1040381D01*
Y670746D01*
X1040415D01*
Y670762D01*
X1040431D01*
Y670779D01*
X1040448D01*
Y670796D01*
X1040465D01*
Y670813D01*
X1040499D01*
Y670830D01*
X1040515D01*
Y670846D01*
X1040532D01*
Y670863D01*
X1040549D01*
Y670880D01*
X1040566D01*
Y670897D01*
X1040583D01*
Y670930D01*
X1040599D01*
Y670947D01*
X1040616D01*
Y670964D01*
X1040633D01*
Y670981D01*
X1040650D01*
Y671014D01*
X1040667D01*
Y671031D01*
X1040683D01*
Y671048D01*
X1040700D01*
Y671082D01*
X1040717D01*
Y671115D01*
X1040734D01*
Y671149D01*
X1040751D01*
Y671183D01*
X1040767D01*
Y671216D01*
X1040784D01*
Y671250D01*
X1040801D01*
Y671300D01*
X1040818D01*
Y671351D01*
X1040835D01*
Y671418D01*
X1040851D01*
Y671519D01*
X1040868D01*
Y671805D01*
X1040851D01*
Y671905D01*
X1040835D01*
Y671973D01*
X1040818D01*
Y672023D01*
X1040801D01*
Y672057D01*
X1040784D01*
Y672090D01*
X1040767D01*
Y672124D01*
X1040751D01*
Y672157D01*
X1040734D01*
Y672191D01*
X1040717D01*
Y672225D01*
X1040700D01*
Y672241D01*
X1040683D01*
Y672258D01*
X1040667D01*
Y672292D01*
X1040650D01*
Y672309D01*
X1040633D01*
Y672326D01*
X1040616D01*
Y672342D01*
X1040599D01*
Y672376D01*
X1040583D01*
Y672393D01*
X1040566D01*
Y672410D01*
X1040549D01*
Y672426D01*
X1040532D01*
Y672443D01*
X1040515D01*
Y672460D01*
X1040482D01*
Y672477D01*
X1040465D01*
Y672494D01*
X1040448D01*
Y672510D01*
X1040431D01*
Y672527D01*
X1040415D01*
Y672544D01*
X1040381D01*
Y672561D01*
X1040364D01*
Y672578D01*
X1040331D01*
Y672594D01*
X1040314D01*
Y672611D01*
X1040280D01*
Y672628D01*
X1040246D01*
Y672645D01*
X1040213D01*
Y672662D01*
X1040179D01*
Y672679D01*
X1040146D01*
Y672695D01*
X1040095D01*
Y672712D01*
X1040061D01*
Y672729D01*
X1039994D01*
Y672746D01*
X1039910D01*
Y672762D01*
X1039793D01*
Y672779D01*
D02*
G37*
G36*
X1046028Y665316D02*
X1045759D01*
Y665300D01*
X1045659D01*
Y665283D01*
X1045591D01*
Y665266D01*
X1045541D01*
Y665249D01*
X1045491D01*
Y665233D01*
X1045457D01*
Y665216D01*
X1045423D01*
Y665199D01*
X1045390D01*
Y665182D01*
X1045356D01*
Y665165D01*
X1045323D01*
Y665148D01*
X1045306D01*
Y665132D01*
X1045289D01*
Y665115D01*
X1045255D01*
Y665098D01*
X1045238D01*
Y665081D01*
X1045222D01*
Y665064D01*
X1045205D01*
Y665048D01*
X1045171D01*
Y665031D01*
X1045154D01*
Y665014D01*
X1045138D01*
Y664997D01*
X1045121D01*
Y664980D01*
X1045104D01*
Y664964D01*
X1045087D01*
Y664947D01*
X1045070D01*
Y664913D01*
X1045053D01*
Y664896D01*
X1045037D01*
Y664880D01*
X1045020D01*
Y664863D01*
X1045003D01*
Y664829D01*
X1044986D01*
Y664812D01*
X1044969D01*
Y664795D01*
X1044953D01*
Y664762D01*
X1044936D01*
Y664745D01*
X1044919D01*
Y664711D01*
X1044902D01*
Y664678D01*
X1044886D01*
Y664644D01*
X1044869D01*
Y664611D01*
X1044852D01*
Y664577D01*
X1044835D01*
Y664527D01*
X1044818D01*
Y664493D01*
X1044801D01*
Y664442D01*
X1044785D01*
Y664375D01*
X1044768D01*
Y664291D01*
X1044751D01*
Y664174D01*
X1044734D01*
Y663921D01*
Y663905D01*
Y663871D01*
X1044751D01*
Y663753D01*
X1044768D01*
Y663669D01*
X1044785D01*
Y663602D01*
X1044801D01*
Y663552D01*
X1044818D01*
Y663501D01*
X1044835D01*
Y663451D01*
X1044852D01*
Y663417D01*
X1044869D01*
Y663384D01*
X1044886D01*
Y663350D01*
X1044902D01*
Y663316D01*
X1044919D01*
Y663300D01*
X1044936D01*
Y663266D01*
X1044953D01*
Y663249D01*
X1044969D01*
Y663215D01*
X1044986D01*
Y663199D01*
X1045003D01*
Y663182D01*
X1045020D01*
Y663148D01*
X1045037D01*
Y663132D01*
X1045053D01*
Y663115D01*
X1045070D01*
Y663098D01*
X1045087D01*
Y663081D01*
X1045104D01*
Y663064D01*
X1045121D01*
Y663048D01*
X1045138D01*
Y663031D01*
X1045154D01*
Y663014D01*
X1045171D01*
Y662997D01*
X1045205D01*
Y662980D01*
X1045222D01*
Y662963D01*
X1045238D01*
Y662947D01*
X1045272D01*
Y662930D01*
X1045289D01*
Y662913D01*
X1045323D01*
Y662896D01*
X1045356D01*
Y662879D01*
X1045390D01*
Y662863D01*
X1045423D01*
Y662846D01*
X1045474D01*
Y662829D01*
X1045524D01*
Y662812D01*
X1045591D01*
Y662795D01*
X1045692D01*
Y662779D01*
X1045961D01*
Y662795D01*
X1046062D01*
Y662812D01*
X1046146D01*
Y662829D01*
X1046196D01*
Y662846D01*
X1046247D01*
Y662863D01*
X1046280D01*
Y662879D01*
X1046331D01*
Y662896D01*
X1046365D01*
Y662913D01*
X1046398D01*
Y662930D01*
X1046415D01*
Y662947D01*
X1046449D01*
Y662963D01*
X1046465D01*
Y662980D01*
X1046499D01*
Y662997D01*
X1046516D01*
Y663014D01*
X1046533D01*
Y663031D01*
X1046566D01*
Y663048D01*
X1046583D01*
Y663064D01*
X1046600D01*
Y663081D01*
X1046617D01*
Y663098D01*
X1046634D01*
Y663115D01*
X1046650D01*
Y663132D01*
X1046667D01*
Y663148D01*
X1046684D01*
Y663165D01*
X1046701D01*
Y663182D01*
X1046717D01*
Y663215D01*
X1046734D01*
Y663232D01*
X1046751D01*
Y663249D01*
X1046768D01*
Y663283D01*
X1046785D01*
Y663300D01*
X1046802D01*
Y663333D01*
X1046818D01*
Y663350D01*
X1046835D01*
Y663384D01*
X1046852D01*
Y663417D01*
X1046869D01*
Y663451D01*
X1046886D01*
Y663484D01*
X1046902D01*
Y663518D01*
X1046919D01*
Y663568D01*
X1046936D01*
Y663619D01*
X1046953D01*
Y663686D01*
X1046970D01*
Y663753D01*
X1046986D01*
Y663854D01*
X1047003D01*
Y664258D01*
X1046986D01*
Y664375D01*
X1046970D01*
Y664442D01*
X1046953D01*
Y664510D01*
X1046936D01*
Y664560D01*
X1046919D01*
Y664611D01*
X1046902D01*
Y664644D01*
X1046886D01*
Y664695D01*
X1046869D01*
Y664728D01*
X1046852D01*
Y664745D01*
X1046835D01*
Y664779D01*
X1046818D01*
Y664812D01*
X1046802D01*
Y664829D01*
X1046785D01*
Y664863D01*
X1046768D01*
Y664880D01*
X1046751D01*
Y664896D01*
X1046734D01*
Y664930D01*
X1046717D01*
Y664947D01*
X1046701D01*
Y664964D01*
X1046684D01*
Y664980D01*
X1046667D01*
Y664997D01*
X1046650D01*
Y665014D01*
X1046634D01*
Y665031D01*
X1046617D01*
Y665048D01*
X1046600D01*
Y665064D01*
X1046583D01*
Y665081D01*
X1046550D01*
Y665098D01*
X1046533D01*
Y665115D01*
X1046516D01*
Y665132D01*
X1046482D01*
Y665148D01*
X1046465D01*
Y665165D01*
X1046432D01*
Y665182D01*
X1046398D01*
Y665199D01*
X1046365D01*
Y665216D01*
X1046331D01*
Y665233D01*
X1046297D01*
Y665249D01*
X1046247D01*
Y665266D01*
X1046196D01*
Y665283D01*
X1046129D01*
Y665300D01*
X1046028D01*
Y665316D01*
D02*
G37*
G36*
X1060618D02*
X1060349D01*
Y665300D01*
X1060248D01*
Y665283D01*
X1060181D01*
Y665266D01*
X1060130D01*
Y665249D01*
X1060080D01*
Y665233D01*
X1060046D01*
Y665216D01*
X1060013D01*
Y665199D01*
X1059979D01*
Y665182D01*
X1059945D01*
Y665165D01*
X1059929D01*
Y665148D01*
X1059895D01*
Y665132D01*
X1059878D01*
Y665115D01*
X1059845D01*
Y665098D01*
X1059828D01*
Y665081D01*
X1059811D01*
Y665064D01*
X1059794D01*
Y665048D01*
X1059761D01*
Y665031D01*
X1059744D01*
Y665014D01*
X1059727D01*
Y664997D01*
X1059710D01*
Y664980D01*
X1059693D01*
Y664964D01*
X1059677D01*
Y664947D01*
X1059660D01*
Y664930D01*
X1059643D01*
Y664896D01*
X1059626D01*
Y664880D01*
X1059609D01*
Y664863D01*
X1059593D01*
Y664846D01*
X1059576D01*
Y664812D01*
X1059559D01*
Y664795D01*
X1059542D01*
Y664762D01*
X1059525D01*
Y664745D01*
X1059509D01*
Y664711D01*
X1059492D01*
Y664695D01*
X1059475D01*
Y664661D01*
X1059458D01*
Y664627D01*
X1059441D01*
Y664577D01*
X1059424D01*
Y664543D01*
X1059408D01*
Y664493D01*
X1059391D01*
Y664442D01*
X1059374D01*
Y664375D01*
X1059357D01*
Y664291D01*
X1059340D01*
Y664140D01*
X1059324D01*
Y664022D01*
X1059340D01*
Y663854D01*
X1059357D01*
Y663804D01*
Y663787D01*
Y663753D01*
X1059374D01*
Y663686D01*
X1059391D01*
Y663636D01*
X1059408D01*
Y663585D01*
X1059424D01*
Y663535D01*
X1059441D01*
Y663501D01*
X1059458D01*
Y663468D01*
X1059475D01*
Y663434D01*
X1059492D01*
Y663400D01*
X1059509D01*
Y663367D01*
X1059525D01*
Y663350D01*
X1059542D01*
Y663316D01*
X1059559D01*
Y663300D01*
X1059576D01*
Y663266D01*
X1059593D01*
Y663249D01*
X1059609D01*
Y663232D01*
X1059626D01*
Y663199D01*
X1059643D01*
Y663182D01*
X1059660D01*
Y663165D01*
X1059677D01*
Y663148D01*
X1059693D01*
Y663132D01*
X1059710D01*
Y663115D01*
X1059727D01*
Y663098D01*
X1059744D01*
Y663081D01*
X1059761D01*
Y663064D01*
X1059777D01*
Y663048D01*
X1059794D01*
Y663031D01*
X1059811D01*
Y663014D01*
X1059845D01*
Y662997D01*
X1059861D01*
Y662980D01*
X1059878D01*
Y662963D01*
X1059912D01*
Y662947D01*
X1059929D01*
Y662930D01*
X1059962D01*
Y662913D01*
X1059996D01*
Y662896D01*
X1060030D01*
Y662879D01*
X1060063D01*
Y662863D01*
X1060097D01*
Y662846D01*
X1060147D01*
Y662829D01*
X1060198D01*
Y662812D01*
X1060265D01*
Y662795D01*
X1060366D01*
Y662779D01*
X1060635D01*
Y662795D01*
X1060752D01*
Y662812D01*
X1060820D01*
Y662829D01*
X1060870D01*
Y662846D01*
X1060920D01*
Y662863D01*
X1060954D01*
Y662879D01*
X1061004D01*
Y662896D01*
X1061038D01*
Y662913D01*
X1061055D01*
Y662930D01*
X1061088D01*
Y662947D01*
X1061122D01*
Y662963D01*
X1061139D01*
Y662980D01*
X1061156D01*
Y662997D01*
X1061189D01*
Y663014D01*
X1061206D01*
Y663031D01*
X1061223D01*
Y663048D01*
X1061240D01*
Y663064D01*
X1061257D01*
Y663081D01*
X1061273D01*
Y663098D01*
X1061290D01*
Y663115D01*
X1061307D01*
Y663132D01*
X1061324D01*
Y663148D01*
X1061341D01*
Y663165D01*
X1061357D01*
Y663199D01*
X1061374D01*
Y663215D01*
X1061391D01*
Y663249D01*
X1061408D01*
Y663266D01*
X1061425D01*
Y663300D01*
X1061442D01*
Y663316D01*
X1061458D01*
Y663350D01*
X1061475D01*
Y663384D01*
X1061492D01*
Y663434D01*
X1061509D01*
Y663468D01*
X1061526D01*
Y663518D01*
X1061542D01*
Y663585D01*
X1061559D01*
Y663653D01*
X1061576D01*
Y663737D01*
X1061593D01*
Y663921D01*
X1061609D01*
Y664039D01*
X1061593D01*
Y664241D01*
X1061576D01*
Y664325D01*
X1061559D01*
Y664409D01*
X1061542D01*
Y664459D01*
X1061526D01*
Y664510D01*
X1061509D01*
Y664560D01*
X1061492D01*
Y664611D01*
X1061475D01*
Y664644D01*
X1061458D01*
Y664678D01*
X1061442D01*
Y664711D01*
X1061425D01*
Y664745D01*
X1061408D01*
Y664762D01*
X1061391D01*
Y664795D01*
X1061374D01*
Y664812D01*
X1061357D01*
Y664846D01*
X1061341D01*
Y664863D01*
X1061324D01*
Y664896D01*
X1061307D01*
Y664913D01*
X1061290D01*
Y664930D01*
X1061273D01*
Y664947D01*
X1061257D01*
Y664964D01*
X1061240D01*
Y664980D01*
X1061223D01*
Y664997D01*
X1061206D01*
Y665014D01*
X1061189D01*
Y665031D01*
X1061172D01*
Y665048D01*
X1061156D01*
Y665064D01*
X1061139D01*
Y665081D01*
X1061122D01*
Y665098D01*
X1061105D01*
Y665115D01*
X1061072D01*
Y665132D01*
X1061055D01*
Y665148D01*
X1061038D01*
Y665165D01*
X1061004D01*
Y665182D01*
X1060971D01*
Y665199D01*
X1060937D01*
Y665216D01*
X1060904D01*
Y665233D01*
X1060870D01*
Y665249D01*
X1060820D01*
Y665266D01*
X1060769D01*
Y665283D01*
X1060702D01*
Y665300D01*
X1060618D01*
Y665316D01*
D02*
G37*
G36*
X1039255Y665468D02*
X1039003D01*
Y665451D01*
X1038902D01*
Y665434D01*
X1038834D01*
Y665417D01*
X1038784D01*
Y665401D01*
X1038750D01*
Y665384D01*
X1038700D01*
Y665367D01*
X1038667D01*
Y665350D01*
X1038633D01*
Y665333D01*
X1038599D01*
Y665316D01*
X1038582D01*
Y665300D01*
X1038549D01*
Y665283D01*
X1038532D01*
Y665266D01*
X1038498D01*
Y665249D01*
X1038482D01*
Y665233D01*
X1038465D01*
Y665216D01*
X1038448D01*
Y665199D01*
X1038414D01*
Y665182D01*
X1038398D01*
Y665165D01*
X1038381D01*
Y665148D01*
X1038364D01*
Y665132D01*
X1038347D01*
Y665115D01*
X1038330D01*
Y665098D01*
X1038313D01*
Y665081D01*
X1038297D01*
Y665048D01*
X1038280D01*
Y665031D01*
X1038263D01*
Y665014D01*
X1038246D01*
Y664997D01*
X1038229D01*
Y664980D01*
X1038213D01*
Y664947D01*
X1038196D01*
Y664930D01*
X1038179D01*
Y664913D01*
X1038162D01*
Y664880D01*
X1038145D01*
Y664846D01*
X1038129D01*
Y664829D01*
X1038112D01*
Y664795D01*
X1038095D01*
Y664762D01*
X1038078D01*
Y664728D01*
X1038061D01*
Y664695D01*
X1038044D01*
Y664661D01*
X1038028D01*
Y664611D01*
X1038011D01*
Y664560D01*
X1037994D01*
Y664510D01*
X1037977D01*
Y664442D01*
X1037961D01*
Y664375D01*
X1037944D01*
Y664258D01*
X1037927D01*
Y663955D01*
X1037944D01*
Y663837D01*
X1037961D01*
Y663753D01*
X1037977D01*
Y663703D01*
X1037994D01*
Y663653D01*
X1038011D01*
Y663602D01*
X1038028D01*
Y663552D01*
X1038044D01*
Y663518D01*
X1038061D01*
Y663484D01*
X1038078D01*
Y663451D01*
X1038095D01*
Y663417D01*
X1038112D01*
Y663384D01*
X1038129D01*
Y663367D01*
X1038145D01*
Y663333D01*
X1038162D01*
Y663316D01*
X1038179D01*
Y663283D01*
X1038196D01*
Y663266D01*
X1038213D01*
Y663249D01*
X1038229D01*
Y663215D01*
X1038246D01*
Y663199D01*
X1038263D01*
Y663182D01*
X1038280D01*
Y663165D01*
X1038297D01*
Y663148D01*
X1038313D01*
Y663132D01*
X1038330D01*
Y663115D01*
X1038347D01*
Y663098D01*
X1038364D01*
Y663081D01*
X1038381D01*
Y663064D01*
X1038398D01*
Y663048D01*
X1038414D01*
Y663031D01*
X1038431D01*
Y663014D01*
X1038448D01*
Y662997D01*
X1038482D01*
Y662980D01*
X1038498D01*
Y662963D01*
X1038515D01*
Y662947D01*
X1038549D01*
Y662930D01*
X1038566D01*
Y662913D01*
X1038599D01*
Y662896D01*
X1038633D01*
Y662879D01*
X1038667D01*
Y662863D01*
X1038700D01*
Y662846D01*
X1038734D01*
Y662829D01*
X1038784D01*
Y662812D01*
X1038834D01*
Y662795D01*
X1038902D01*
Y662779D01*
X1039003D01*
Y662762D01*
X1039255D01*
Y662779D01*
X1039356D01*
Y662795D01*
X1039423D01*
Y662812D01*
X1039473D01*
Y662829D01*
X1039524D01*
Y662846D01*
X1039574D01*
Y662863D01*
X1039608D01*
Y662879D01*
X1039641D01*
Y662896D01*
X1039675D01*
Y662913D01*
X1039692D01*
Y662930D01*
X1039725D01*
Y662947D01*
X1039742D01*
Y662963D01*
X1039776D01*
Y662980D01*
X1039793D01*
Y662997D01*
X1039809D01*
Y663014D01*
X1039826D01*
Y663031D01*
X1039860D01*
Y663048D01*
X1039877D01*
Y663064D01*
X1039893D01*
Y663081D01*
X1039910D01*
Y663098D01*
X1039927D01*
Y663115D01*
X1039944D01*
Y663132D01*
X1039961D01*
Y663148D01*
X1039977D01*
Y663165D01*
X1039994D01*
Y663199D01*
X1040011D01*
Y663215D01*
X1040028D01*
Y663232D01*
X1040045D01*
Y663249D01*
X1040061D01*
Y663283D01*
X1040078D01*
Y663300D01*
X1040095D01*
Y663333D01*
X1040112D01*
Y663350D01*
X1040129D01*
Y663384D01*
X1040146D01*
Y663400D01*
X1040162D01*
Y663434D01*
X1040179D01*
Y663468D01*
X1040196D01*
Y663501D01*
X1040213D01*
Y663535D01*
Y663552D01*
X1040230D01*
Y663585D01*
X1040246D01*
Y663636D01*
X1040263D01*
Y663686D01*
X1040280D01*
Y663737D01*
X1040297D01*
Y663804D01*
X1040314D01*
Y663888D01*
X1040331D01*
Y664022D01*
X1040347D01*
Y664291D01*
X1040331D01*
Y664409D01*
X1040314D01*
Y664493D01*
X1040297D01*
Y664560D01*
X1040280D01*
Y664611D01*
X1040263D01*
Y664661D01*
X1040246D01*
Y664695D01*
X1040230D01*
Y664728D01*
X1040213D01*
Y664762D01*
X1040196D01*
Y664795D01*
X1040179D01*
Y664829D01*
X1040162D01*
Y664863D01*
X1040146D01*
Y664880D01*
X1040129D01*
Y664913D01*
X1040112D01*
Y664930D01*
X1040095D01*
Y664964D01*
X1040078D01*
Y664980D01*
X1040061D01*
Y664997D01*
X1040045D01*
Y665014D01*
X1040028D01*
Y665048D01*
X1040011D01*
Y665064D01*
X1039994D01*
Y665081D01*
X1039977D01*
Y665098D01*
X1039961D01*
Y665115D01*
X1039944D01*
Y665132D01*
X1039927D01*
Y665148D01*
X1039910D01*
Y665165D01*
X1039893D01*
Y665182D01*
X1039877D01*
Y665199D01*
X1039843D01*
Y665216D01*
X1039826D01*
Y665233D01*
X1039809D01*
Y665249D01*
X1039776D01*
Y665266D01*
X1039759D01*
Y665283D01*
X1039742D01*
Y665300D01*
X1039709D01*
Y665316D01*
X1039675D01*
Y665333D01*
X1039641D01*
Y665350D01*
X1039608D01*
Y665367D01*
X1039574D01*
Y665384D01*
X1039540D01*
Y665401D01*
X1039490D01*
Y665417D01*
X1039440D01*
Y665434D01*
X1039372D01*
Y665451D01*
X1039255D01*
Y665468D01*
D02*
G37*
G36*
X1050170Y656946D02*
X1050164D01*
X1050101Y656943D01*
X1050045Y656930D01*
X1049995Y656911D01*
X1049951Y656893D01*
X1049917Y656871D01*
X1049889Y656855D01*
X1049874Y656843D01*
X1049867Y656836D01*
X1049823Y656793D01*
X1049792Y656749D01*
X1049771Y656702D01*
X1049755Y656662D01*
X1049745Y656624D01*
X1049742Y656596D01*
X1049739Y656574D01*
Y656571D01*
Y656568D01*
Y655994D01*
X1050538D01*
Y656568D01*
X1050532Y656624D01*
X1050519Y656674D01*
X1050504Y656718D01*
X1050482Y656758D01*
X1050463Y656790D01*
X1050444Y656815D01*
X1050432Y656827D01*
X1050429Y656833D01*
X1050385Y656871D01*
X1050338Y656899D01*
X1050295Y656918D01*
X1050254Y656933D01*
X1050217Y656939D01*
X1050189Y656943D01*
X1050170Y656946D01*
D02*
G37*
G36*
X1057312Y656930D02*
X1057293D01*
X1057212Y656927D01*
X1057134Y656921D01*
X1057059Y656908D01*
X1056990Y656893D01*
X1056928Y656874D01*
X1056868Y656852D01*
X1056816Y656830D01*
X1056769Y656808D01*
X1056725Y656786D01*
X1056688Y656765D01*
X1056656Y656743D01*
X1056628Y656724D01*
X1056610Y656708D01*
X1056594Y656696D01*
X1056585Y656690D01*
X1056581Y656687D01*
X1056538Y656624D01*
X1056500Y656559D01*
X1056466Y656496D01*
X1056438Y656434D01*
X1056413Y656372D01*
X1056391Y656312D01*
X1056376Y656253D01*
X1056363Y656200D01*
X1056354Y656150D01*
X1056344Y656103D01*
X1056338Y656063D01*
X1056335Y656028D01*
X1056332Y656000D01*
Y655982D01*
Y655966D01*
Y655963D01*
X1056335Y655891D01*
X1056341Y655822D01*
X1056354Y655757D01*
X1056369Y655694D01*
X1056388Y655638D01*
X1056407Y655585D01*
X1056429Y655535D01*
X1056450Y655489D01*
X1056472Y655448D01*
X1056494Y655414D01*
X1056513Y655382D01*
X1056532Y655354D01*
X1056547Y655336D01*
X1056560Y655320D01*
X1056566Y655311D01*
X1056569Y655308D01*
X1056619Y655258D01*
X1056675Y655211D01*
X1056731Y655173D01*
X1056787Y655139D01*
X1056847Y655111D01*
X1056906Y655089D01*
X1056965Y655070D01*
X1057021Y655055D01*
X1057071Y655042D01*
X1057121Y655033D01*
X1057165Y655027D01*
X1057202Y655021D01*
X1057234D01*
X1057259Y655018D01*
X1057277D01*
X1057358Y655021D01*
X1057436Y655030D01*
X1057511Y655046D01*
X1057577Y655064D01*
X1057642Y655089D01*
X1057701Y655114D01*
X1057755Y655139D01*
X1057801Y655170D01*
X1057845Y655198D01*
X1057882Y655223D01*
X1057917Y655252D01*
X1057942Y655273D01*
X1057964Y655292D01*
X1057979Y655308D01*
X1057989Y655317D01*
X1057992Y655320D01*
X1058032Y655373D01*
X1058070Y655426D01*
X1058101Y655482D01*
X1058129Y655542D01*
X1058151Y655598D01*
X1058169Y655651D01*
X1058185Y655707D01*
X1058198Y655757D01*
X1058210Y655804D01*
X1058216Y655851D01*
X1058223Y655888D01*
X1058226Y655922D01*
Y655950D01*
X1058229Y655969D01*
Y655985D01*
Y655988D01*
X1058226Y656060D01*
X1058219Y656128D01*
X1058207Y656191D01*
X1058191Y656253D01*
X1058176Y656309D01*
X1058157Y656362D01*
X1058135Y656412D01*
X1058113Y656459D01*
X1058092Y656496D01*
X1058070Y656534D01*
X1058051Y656565D01*
X1058035Y656590D01*
X1058020Y656609D01*
X1058007Y656624D01*
X1058001Y656634D01*
X1057998Y656637D01*
X1057948Y656690D01*
X1057892Y656734D01*
X1057836Y656774D01*
X1057780Y656805D01*
X1057720Y656833D01*
X1057661Y656858D01*
X1057605Y656877D01*
X1057549Y656893D01*
X1057496Y656905D01*
X1057449Y656914D01*
X1057405Y656921D01*
X1057368Y656927D01*
X1057337D01*
X1057312Y656930D01*
D02*
G37*
G36*
X1041487D02*
X1041468D01*
X1041387Y656927D01*
X1041309Y656921D01*
X1041234Y656908D01*
X1041166Y656893D01*
X1041103Y656874D01*
X1041044Y656852D01*
X1040991Y656830D01*
X1040944Y656808D01*
X1040900Y656786D01*
X1040863Y656765D01*
X1040832Y656743D01*
X1040804Y656724D01*
X1040785Y656708D01*
X1040769Y656696D01*
X1040760Y656690D01*
X1040757Y656687D01*
X1040713Y656624D01*
X1040676Y656559D01*
X1040641Y656496D01*
X1040613Y656434D01*
X1040588Y656372D01*
X1040567Y656312D01*
X1040551Y656253D01*
X1040538Y656200D01*
X1040529Y656150D01*
X1040520Y656103D01*
X1040514Y656063D01*
X1040510Y656028D01*
X1040507Y656000D01*
Y655982D01*
Y655966D01*
Y655963D01*
X1040510Y655891D01*
X1040517Y655822D01*
X1040529Y655757D01*
X1040545Y655694D01*
X1040563Y655638D01*
X1040582Y655585D01*
X1040604Y655535D01*
X1040626Y655489D01*
X1040648Y655448D01*
X1040669Y655414D01*
X1040688Y655382D01*
X1040707Y655354D01*
X1040722Y655336D01*
X1040735Y655320D01*
X1040741Y655311D01*
X1040744Y655308D01*
X1040794Y655258D01*
X1040850Y655211D01*
X1040907Y655173D01*
X1040963Y655139D01*
X1041022Y655111D01*
X1041081Y655089D01*
X1041141Y655070D01*
X1041197Y655055D01*
X1041247Y655042D01*
X1041297Y655033D01*
X1041340Y655027D01*
X1041378Y655021D01*
X1041409D01*
X1041434Y655018D01*
X1041453D01*
X1041534Y655021D01*
X1041612Y655030D01*
X1041687Y655046D01*
X1041752Y655064D01*
X1041818Y655089D01*
X1041877Y655114D01*
X1041930Y655139D01*
X1041977Y655170D01*
X1042020Y655198D01*
X1042058Y655223D01*
X1042092Y655252D01*
X1042117Y655273D01*
X1042139Y655292D01*
X1042155Y655308D01*
X1042164Y655317D01*
X1042167Y655320D01*
X1042208Y655373D01*
X1042245Y655426D01*
X1042276Y655482D01*
X1042304Y655542D01*
X1042326Y655598D01*
X1042345Y655651D01*
X1042360Y655707D01*
X1042373Y655757D01*
X1042385Y655804D01*
X1042392Y655851D01*
X1042398Y655888D01*
X1042401Y655922D01*
Y655950D01*
X1042404Y655969D01*
Y655985D01*
Y655988D01*
X1042401Y656060D01*
X1042395Y656128D01*
X1042382Y656191D01*
X1042367Y656253D01*
X1042351Y656309D01*
X1042332Y656362D01*
X1042311Y656412D01*
X1042289Y656459D01*
X1042267Y656496D01*
X1042245Y656534D01*
X1042226Y656565D01*
X1042211Y656590D01*
X1042195Y656609D01*
X1042183Y656624D01*
X1042176Y656634D01*
X1042173Y656637D01*
X1042123Y656690D01*
X1042067Y656734D01*
X1042011Y656774D01*
X1041955Y656805D01*
X1041896Y656833D01*
X1041836Y656858D01*
X1041780Y656877D01*
X1041724Y656893D01*
X1041671Y656905D01*
X1041624Y656914D01*
X1041580Y656921D01*
X1041543Y656927D01*
X1041512D01*
X1041487Y656930D01*
D02*
G37*
G36*
X1061158Y653169D02*
X1061080D01*
X1060984Y653165D01*
X1060940Y653162D01*
X1060896Y653159D01*
X1060862Y653153D01*
X1060834Y653150D01*
X1060815Y653147D01*
X1060809D01*
X1060756Y653134D01*
X1060709Y653119D01*
X1060669Y653097D01*
X1060631Y653072D01*
X1060603Y653050D01*
X1060584Y653031D01*
X1060569Y653019D01*
X1060566Y653013D01*
X1060534Y652972D01*
X1060513Y652931D01*
X1060497Y652897D01*
X1060488Y652866D01*
X1060481Y652838D01*
Y652819D01*
Y652804D01*
Y652800D01*
X1060488Y652760D01*
X1060491Y652729D01*
X1060494Y652704D01*
X1060497Y652685D01*
Y652672D01*
X1060500Y652666D01*
Y652660D01*
X1060516Y652619D01*
X1060534Y652585D01*
X1060544Y652569D01*
X1060553Y652560D01*
X1060556Y652554D01*
X1060559Y652551D01*
X1060594Y652513D01*
X1060631Y652488D01*
X1060647Y652476D01*
X1060659Y652470D01*
X1060669Y652467D01*
X1060672Y652463D01*
X1060700Y652451D01*
X1060731Y652445D01*
X1060762Y652438D01*
X1060793Y652432D01*
X1060818D01*
X1060840Y652429D01*
X1060921D01*
X1060934Y652426D01*
X1060959D01*
X1061003Y652423D01*
X1061109D01*
X1061124Y652426D01*
X1061146D01*
X1061152Y652429D01*
X1061158D01*
Y653169D01*
D02*
G37*
G36*
X1036701Y649416D02*
X1036698Y649413D01*
X1036691Y649410D01*
X1036679Y649407D01*
X1036701D01*
Y649416D01*
D02*
G37*
G36*
X1065367Y649404D02*
X1065289D01*
X1065193Y649401D01*
X1065149Y649398D01*
X1065105Y649395D01*
X1065071Y649388D01*
X1065043Y649385D01*
X1065024Y649382D01*
X1065018D01*
X1064965Y649370D01*
X1064918Y649354D01*
X1064878Y649332D01*
X1064840Y649307D01*
X1064812Y649285D01*
X1064793Y649267D01*
X1064778Y649254D01*
X1064775Y649248D01*
X1064743Y649207D01*
X1064721Y649167D01*
X1064706Y649132D01*
X1064697Y649101D01*
X1064690Y649073D01*
Y649054D01*
Y649039D01*
Y649036D01*
X1064697Y648995D01*
X1064700Y648964D01*
X1064703Y648939D01*
X1064706Y648920D01*
Y648908D01*
X1064709Y648902D01*
Y648895D01*
X1064725Y648855D01*
X1064743Y648820D01*
X1064753Y648805D01*
X1064762Y648796D01*
X1064765Y648789D01*
X1064768Y648786D01*
X1064803Y648749D01*
X1064840Y648724D01*
X1064856Y648711D01*
X1064868Y648705D01*
X1064878Y648702D01*
X1064881Y648699D01*
X1064909Y648686D01*
X1064940Y648680D01*
X1064971Y648674D01*
X1065002Y648668D01*
X1065027D01*
X1065049Y648665D01*
X1065130D01*
X1065143Y648661D01*
X1065168D01*
X1065211Y648658D01*
X1065317D01*
X1065333Y648661D01*
X1065355D01*
X1065361Y648665D01*
X1065367D01*
Y649404D01*
D02*
G37*
G36*
X1052310Y649345D02*
X1052291D01*
X1052210Y649342D01*
X1052132Y649335D01*
X1052057Y649323D01*
X1051989Y649307D01*
X1051926Y649289D01*
X1051867Y649267D01*
X1051814Y649245D01*
X1051767Y649223D01*
X1051724Y649201D01*
X1051686Y649179D01*
X1051655Y649157D01*
X1051627Y649139D01*
X1051608Y649123D01*
X1051593Y649111D01*
X1051583Y649104D01*
X1051580Y649101D01*
X1051536Y649039D01*
X1051499Y648973D01*
X1051465Y648911D01*
X1051437Y648849D01*
X1051412Y648786D01*
X1051390Y648727D01*
X1051374Y648668D01*
X1051362Y648615D01*
X1051352Y648565D01*
X1051343Y648518D01*
X1051337Y648477D01*
X1051334Y648443D01*
X1051330Y648415D01*
Y648396D01*
Y648381D01*
Y648378D01*
X1051334Y648306D01*
X1051340Y648237D01*
X1051352Y648172D01*
X1051368Y648109D01*
X1051387Y648053D01*
X1051405Y648000D01*
X1051427Y647950D01*
X1051449Y647903D01*
X1051471Y647863D01*
X1051493Y647828D01*
X1051511Y647797D01*
X1051530Y647769D01*
X1051546Y647750D01*
X1051558Y647735D01*
X1051565Y647725D01*
X1051568Y647722D01*
X1051618Y647672D01*
X1051674Y647626D01*
X1051730Y647588D01*
X1051786Y647554D01*
X1051845Y647526D01*
X1051905Y647504D01*
X1051964Y647485D01*
X1052020Y647470D01*
X1052070Y647457D01*
X1052120Y647448D01*
X1052164Y647441D01*
X1052201Y647435D01*
X1052232D01*
X1052257Y647432D01*
X1052276D01*
X1052357Y647435D01*
X1052435Y647445D01*
X1052510Y647460D01*
X1052575Y647479D01*
X1052641Y647504D01*
X1052700Y647529D01*
X1052753Y647554D01*
X1052800Y647585D01*
X1052844Y647613D01*
X1052881Y647638D01*
X1052915Y647666D01*
X1052940Y647688D01*
X1052962Y647707D01*
X1052978Y647722D01*
X1052987Y647732D01*
X1052990Y647735D01*
X1053031Y647788D01*
X1053068Y647841D01*
X1053100Y647897D01*
X1053128Y647956D01*
X1053150Y648012D01*
X1053168Y648066D01*
X1053184Y648122D01*
X1053196Y648172D01*
X1053209Y648218D01*
X1053215Y648265D01*
X1053221Y648303D01*
X1053224Y648337D01*
Y648365D01*
X1053227Y648384D01*
Y648399D01*
Y648403D01*
X1053224Y648474D01*
X1053218Y648543D01*
X1053206Y648605D01*
X1053190Y648668D01*
X1053174Y648724D01*
X1053156Y648777D01*
X1053134Y648827D01*
X1053112Y648874D01*
X1053090Y648911D01*
X1053068Y648948D01*
X1053050Y648980D01*
X1053034Y649005D01*
X1053018Y649023D01*
X1053006Y649039D01*
X1053000Y649048D01*
X1052997Y649051D01*
X1052947Y649104D01*
X1052890Y649148D01*
X1052834Y649189D01*
X1052778Y649220D01*
X1052719Y649248D01*
X1052660Y649273D01*
X1052603Y649292D01*
X1052547Y649307D01*
X1052494Y649320D01*
X1052448Y649329D01*
X1052404Y649335D01*
X1052366Y649342D01*
X1052335D01*
X1052310Y649345D01*
D02*
G37*
G36*
X1041459D02*
X1041440D01*
X1041359Y649342D01*
X1041281Y649335D01*
X1041206Y649323D01*
X1041137Y649307D01*
X1041075Y649289D01*
X1041016Y649267D01*
X1040963Y649245D01*
X1040916Y649223D01*
X1040872Y649201D01*
X1040835Y649179D01*
X1040804Y649157D01*
X1040775Y649139D01*
X1040757Y649123D01*
X1040741Y649111D01*
X1040732Y649104D01*
X1040729Y649101D01*
X1040685Y649039D01*
X1040648Y648973D01*
X1040613Y648911D01*
X1040585Y648849D01*
X1040560Y648786D01*
X1040538Y648727D01*
X1040523Y648668D01*
X1040510Y648615D01*
X1040501Y648565D01*
X1040492Y648518D01*
X1040485Y648477D01*
X1040482Y648443D01*
X1040479Y648415D01*
Y648396D01*
Y648381D01*
Y648378D01*
X1040482Y648306D01*
X1040489Y648237D01*
X1040501Y648172D01*
X1040517Y648109D01*
X1040535Y648053D01*
X1040554Y648000D01*
X1040576Y647950D01*
X1040598Y647903D01*
X1040619Y647863D01*
X1040641Y647828D01*
X1040660Y647797D01*
X1040679Y647769D01*
X1040694Y647750D01*
X1040707Y647735D01*
X1040713Y647725D01*
X1040716Y647722D01*
X1040766Y647672D01*
X1040822Y647626D01*
X1040878Y647588D01*
X1040935Y647554D01*
X1040994Y647526D01*
X1041053Y647504D01*
X1041113Y647485D01*
X1041169Y647470D01*
X1041219Y647457D01*
X1041269Y647448D01*
X1041312Y647441D01*
X1041350Y647435D01*
X1041381D01*
X1041406Y647432D01*
X1041424D01*
X1041506Y647435D01*
X1041584Y647445D01*
X1041658Y647460D01*
X1041724Y647479D01*
X1041790Y647504D01*
X1041849Y647529D01*
X1041902Y647554D01*
X1041949Y647585D01*
X1041992Y647613D01*
X1042030Y647638D01*
X1042064Y647666D01*
X1042089Y647688D01*
X1042111Y647707D01*
X1042126Y647722D01*
X1042136Y647732D01*
X1042139Y647735D01*
X1042179Y647788D01*
X1042217Y647841D01*
X1042248Y647897D01*
X1042276Y647956D01*
X1042298Y648012D01*
X1042317Y648066D01*
X1042332Y648122D01*
X1042345Y648172D01*
X1042357Y648218D01*
X1042364Y648265D01*
X1042370Y648303D01*
X1042373Y648337D01*
Y648365D01*
X1042376Y648384D01*
Y648399D01*
Y648403D01*
X1042373Y648474D01*
X1042367Y648543D01*
X1042354Y648605D01*
X1042339Y648668D01*
X1042323Y648724D01*
X1042304Y648777D01*
X1042282Y648827D01*
X1042261Y648874D01*
X1042239Y648911D01*
X1042217Y648948D01*
X1042198Y648980D01*
X1042183Y649005D01*
X1042167Y649023D01*
X1042155Y649039D01*
X1042148Y649048D01*
X1042145Y649051D01*
X1042095Y649104D01*
X1042039Y649148D01*
X1041983Y649189D01*
X1041927Y649220D01*
X1041868Y649248D01*
X1041808Y649273D01*
X1041752Y649292D01*
X1041696Y649307D01*
X1041643Y649320D01*
X1041596Y649329D01*
X1041552Y649335D01*
X1041515Y649342D01*
X1041484D01*
X1041459Y649345D01*
D02*
G37*
%LPD*%
D10*
X1019932Y639356D02*
G03*
X1019932Y639356I-394J0D01*
G01*
X1130266Y612190D02*
Y612978D01*
Y623608D02*
Y645655D01*
Y656285D02*
Y666128D01*
X1183809Y656285D02*
Y666128D01*
Y623608D02*
Y645655D01*
Y612190D02*
Y612978D01*
X1178101Y612190D02*
X1183809D01*
X1178101D02*
Y618687D01*
X1141093D02*
X1178101D01*
X1141093Y612190D02*
Y618687D01*
X1130266Y612190D02*
X1141093D01*
X1130266Y666128D02*
X1183809D01*
D12*
X1019144Y618687D02*
X1026428D01*
X1066191Y639553D02*
X1073475D01*
Y618687D02*
Y639553D01*
X1066191Y618687D02*
X1073475D01*
X1019144Y636206D02*
X1022491Y639553D01*
X1019144Y618687D02*
Y636206D01*
X1022491Y639553D02*
X1026428D01*
X1223475Y611403D02*
G03*
X1231349Y619277I0J7874D01*
G01*
Y719671D02*
G03*
X1223475Y727545I-7874J0D01*
G01*
X941979D02*
G03*
X934105Y719671I0J-7874D01*
G01*
Y619277D02*
G03*
X941979Y611403I7874J0D01*
G01*
X1231349Y619277D02*
Y719671D01*
X941979Y727545D02*
X1223475D01*
X941979Y611403D02*
X1223475D01*
X934105Y619277D02*
Y719671D01*
M02*
