G04*
G04 #@! TF.GenerationSoftware,Altium Limited,Altium Designer,23.0.1 (38)*
G04*
G04 Layer_Color=16711935*
%FSLAX25Y25*%
%MOIN*%
G70*
G04*
G04 #@! TF.SameCoordinates,B4ED9068-0949-4354-B78F-C4858C2F04AE*
G04*
G04*
G04 #@! TF.FilePolarity,Negative*
G04*
G01*
G75*
%ADD13C,0.00500*%
%ADD16C,0.06237*%
%ADD17R,0.06237X0.06237*%
%ADD18C,0.23922*%
G04:AMPARAMS|DCode=53|XSize=62.06mil|YSize=38.43mil|CornerRadius=3.27mil|HoleSize=0mil|Usage=FLASHONLY|Rotation=0.000|XOffset=0mil|YOffset=0mil|HoleType=Round|Shape=RoundedRectangle|*
%AMROUNDEDRECTD53*
21,1,0.06206,0.03189,0,0,0.0*
21,1,0.05551,0.03843,0,0,0.0*
1,1,0.00654,0.02776,-0.01595*
1,1,0.00654,-0.02776,-0.01595*
1,1,0.00654,-0.02776,0.01595*
1,1,0.00654,0.02776,0.01595*
%
%ADD53ROUNDEDRECTD53*%
G04:AMPARAMS|DCode=54|XSize=26.38mil|YSize=20.47mil|CornerRadius=5.81mil|HoleSize=0mil|Usage=FLASHONLY|Rotation=180.000|XOffset=0mil|YOffset=0mil|HoleType=Round|Shape=RoundedRectangle|*
%AMROUNDEDRECTD54*
21,1,0.02638,0.00886,0,0,180.0*
21,1,0.01476,0.02047,0,0,180.0*
1,1,0.01161,-0.00738,0.00443*
1,1,0.01161,0.00738,0.00443*
1,1,0.01161,0.00738,-0.00443*
1,1,0.01161,-0.00738,-0.00443*
%
%ADD54ROUNDEDRECTD54*%
%ADD55C,0.07874*%
G04:AMPARAMS|DCode=56|XSize=59.3mil|YSize=219.54mil|CornerRadius=7.13mil|HoleSize=0mil|Usage=FLASHONLY|Rotation=90.000|XOffset=0mil|YOffset=0mil|HoleType=Round|Shape=RoundedRectangle|*
%AMROUNDEDRECTD56*
21,1,0.05930,0.20528,0,0,90.0*
21,1,0.04504,0.21954,0,0,90.0*
1,1,0.01426,0.10264,0.02252*
1,1,0.01426,0.10264,-0.02252*
1,1,0.01426,-0.10264,-0.02252*
1,1,0.01426,-0.10264,0.02252*
%
%ADD56ROUNDEDRECTD56*%
G04:AMPARAMS|DCode=57|XSize=26.38mil|YSize=22.44mil|CornerRadius=6.3mil|HoleSize=0mil|Usage=FLASHONLY|Rotation=180.000|XOffset=0mil|YOffset=0mil|HoleType=Round|Shape=RoundedRectangle|*
%AMROUNDEDRECTD57*
21,1,0.02638,0.00984,0,0,180.0*
21,1,0.01378,0.02244,0,0,180.0*
1,1,0.01260,-0.00689,0.00492*
1,1,0.01260,0.00689,0.00492*
1,1,0.01260,0.00689,-0.00492*
1,1,0.01260,-0.00689,-0.00492*
%
%ADD57ROUNDEDRECTD57*%
%ADD58R,0.03746X0.03353*%
%ADD59R,0.02565X0.03156*%
%ADD60R,0.08432X0.07487*%
G04:AMPARAMS|DCode=61|XSize=26.38mil|YSize=20.47mil|CornerRadius=5.81mil|HoleSize=0mil|Usage=FLASHONLY|Rotation=90.000|XOffset=0mil|YOffset=0mil|HoleType=Round|Shape=RoundedRectangle|*
%AMROUNDEDRECTD61*
21,1,0.02638,0.00886,0,0,90.0*
21,1,0.01476,0.02047,0,0,90.0*
1,1,0.01161,0.00443,0.00738*
1,1,0.01161,0.00443,-0.00738*
1,1,0.01161,-0.00443,-0.00738*
1,1,0.01161,-0.00443,0.00738*
%
%ADD61ROUNDEDRECTD61*%
G04:AMPARAMS|DCode=62|XSize=26.38mil|YSize=22.44mil|CornerRadius=6.3mil|HoleSize=0mil|Usage=FLASHONLY|Rotation=90.000|XOffset=0mil|YOffset=0mil|HoleType=Round|Shape=RoundedRectangle|*
%AMROUNDEDRECTD62*
21,1,0.02638,0.00984,0,0,90.0*
21,1,0.01378,0.02244,0,0,90.0*
1,1,0.01260,0.00492,0.00689*
1,1,0.01260,0.00492,-0.00689*
1,1,0.01260,-0.00492,-0.00689*
1,1,0.01260,-0.00492,0.00689*
%
%ADD62ROUNDEDRECTD62*%
G04:AMPARAMS|DCode=63|XSize=45.52mil|YSize=39.22mil|CornerRadius=10.56mil|HoleSize=0mil|Usage=FLASHONLY|Rotation=90.000|XOffset=0mil|YOffset=0mil|HoleType=Round|Shape=RoundedRectangle|*
%AMROUNDEDRECTD63*
21,1,0.04552,0.01811,0,0,90.0*
21,1,0.02441,0.03922,0,0,90.0*
1,1,0.02111,0.00906,0.01221*
1,1,0.02111,0.00906,-0.01221*
1,1,0.02111,-0.00906,-0.01221*
1,1,0.02111,-0.00906,0.01221*
%
%ADD63ROUNDEDRECTD63*%
G04:AMPARAMS|DCode=64|XSize=60.07mil|YSize=19.72mil|CornerRadius=5.43mil|HoleSize=0mil|Usage=FLASHONLY|Rotation=270.000|XOffset=0mil|YOffset=0mil|HoleType=Round|Shape=RoundedRectangle|*
%AMROUNDEDRECTD64*
21,1,0.06007,0.00886,0,0,270.0*
21,1,0.04921,0.01972,0,0,270.0*
1,1,0.01086,-0.00443,-0.02461*
1,1,0.01086,-0.00443,0.02461*
1,1,0.01086,0.00443,0.02461*
1,1,0.01086,0.00443,-0.02461*
%
%ADD64ROUNDEDRECTD64*%
G04:AMPARAMS|DCode=65|XSize=35.43mil|YSize=30.32mil|CornerRadius=4.13mil|HoleSize=0mil|Usage=FLASHONLY|Rotation=90.000|XOffset=0mil|YOffset=0mil|HoleType=Round|Shape=RoundedRectangle|*
%AMROUNDEDRECTD65*
21,1,0.03543,0.02205,0,0,90.0*
21,1,0.02717,0.03032,0,0,90.0*
1,1,0.00827,0.01102,0.01358*
1,1,0.00827,0.01102,-0.01358*
1,1,0.00827,-0.01102,-0.01358*
1,1,0.00827,-0.01102,0.01358*
%
%ADD65ROUNDEDRECTD65*%
G04:AMPARAMS|DCode=66|XSize=35.43mil|YSize=30.32mil|CornerRadius=4.13mil|HoleSize=0mil|Usage=FLASHONLY|Rotation=180.000|XOffset=0mil|YOffset=0mil|HoleType=Round|Shape=RoundedRectangle|*
%AMROUNDEDRECTD66*
21,1,0.03543,0.02205,0,0,180.0*
21,1,0.02717,0.03032,0,0,180.0*
1,1,0.00827,-0.01358,0.01102*
1,1,0.00827,0.01358,0.01102*
1,1,0.00827,0.01358,-0.01102*
1,1,0.00827,-0.01358,-0.01102*
%
%ADD66ROUNDEDRECTD66*%
G04:AMPARAMS|DCode=67|XSize=21.69mil|YSize=11.84mil|CornerRadius=0mil|HoleSize=0mil|Usage=FLASHONLY|Rotation=90.000|XOffset=0mil|YOffset=0mil|HoleType=Round|Shape=RoundedRectangle|*
%AMROUNDEDRECTD67*
21,1,0.02169,0.01184,0,0,90.0*
21,1,0.02169,0.01184,0,0,90.0*
1,1,0.00000,0.00592,0.01085*
1,1,0.00000,0.00592,-0.01085*
1,1,0.00000,-0.00592,-0.01085*
1,1,0.00000,-0.00592,0.01085*
%
%ADD67ROUNDEDRECTD67*%
G04:AMPARAMS|DCode=68|XSize=96.49mil|YSize=66.96mil|CornerRadius=2.62mil|HoleSize=0mil|Usage=FLASHONLY|Rotation=90.000|XOffset=0mil|YOffset=0mil|HoleType=Round|Shape=RoundedRectangle|*
%AMROUNDEDRECTD68*
21,1,0.09649,0.06171,0,0,90.0*
21,1,0.09124,0.06696,0,0,90.0*
1,1,0.00525,0.03086,0.04562*
1,1,0.00525,0.03086,-0.04562*
1,1,0.00525,-0.03086,-0.04562*
1,1,0.00525,-0.03086,0.04562*
%
%ADD68ROUNDEDRECTD68*%
G04:AMPARAMS|DCode=69|XSize=25.62mil|YSize=11.84mil|CornerRadius=2.48mil|HoleSize=0mil|Usage=FLASHONLY|Rotation=180.000|XOffset=0mil|YOffset=0mil|HoleType=Round|Shape=RoundedRectangle|*
%AMROUNDEDRECTD69*
21,1,0.02562,0.00689,0,0,180.0*
21,1,0.02067,0.01184,0,0,180.0*
1,1,0.00495,-0.01033,0.00344*
1,1,0.00495,0.01033,0.00344*
1,1,0.00495,0.01033,-0.00344*
1,1,0.00495,-0.01033,-0.00344*
%
%ADD69ROUNDEDRECTD69*%
G04:AMPARAMS|DCode=70|XSize=14.57mil|YSize=16.54mil|CornerRadius=4.33mil|HoleSize=0mil|Usage=FLASHONLY|Rotation=180.000|XOffset=0mil|YOffset=0mil|HoleType=Round|Shape=RoundedRectangle|*
%AMROUNDEDRECTD70*
21,1,0.01457,0.00787,0,0,180.0*
21,1,0.00591,0.01654,0,0,180.0*
1,1,0.00866,-0.00295,0.00394*
1,1,0.00866,0.00295,0.00394*
1,1,0.00866,0.00295,-0.00394*
1,1,0.00866,-0.00295,-0.00394*
%
%ADD70ROUNDEDRECTD70*%
%ADD71R,0.02662X0.03056*%
%ADD72C,0.00300*%
D13*
X1253987Y724592D02*
G03*
X1246113Y732466I-7874J0D01*
G01*
Y610419D02*
G03*
X1253987Y618293I0J7874D01*
G01*
X896703Y617309D02*
G03*
X903593Y610419I6890J0D01*
G01*
X905561Y732466D02*
G03*
X896703Y723608I0J-8858D01*
G01*
X1253987Y618293D02*
Y724592D01*
X905561Y732466D02*
X1246113D01*
X903593Y610419D02*
X1246113D01*
X896703Y617309D02*
Y723608D01*
D16*
X910483Y693096D02*
D03*
X910481Y652999D02*
D03*
D17*
X910483Y683253D02*
D03*
X910481Y643156D02*
D03*
D18*
X1242176Y698017D02*
D03*
Y640931D02*
D03*
X908514Y622230D02*
D03*
Y720655D02*
D03*
D53*
X1005955Y653726D02*
D03*
Y645852D02*
D03*
D54*
X940994Y685190D02*
D03*
Y689190D02*
D03*
X944932Y689128D02*
D03*
Y693128D02*
D03*
X967569Y651726D02*
D03*
Y655726D02*
D03*
Y643852D02*
D03*
Y647852D02*
D03*
X972491Y643852D02*
D03*
Y647852D02*
D03*
X1003987Y634010D02*
D03*
Y638010D02*
D03*
X1000050Y634010D02*
D03*
Y638010D02*
D03*
X948868Y674364D02*
D03*
Y678364D02*
D03*
D55*
X965601Y616324D02*
D03*
X970522Y725576D02*
D03*
X1197884Y618293D02*
D03*
X1200837Y725576D02*
D03*
D56*
X950837Y647742D02*
D03*
Y663647D02*
D03*
D57*
X972491Y655694D02*
D03*
Y651757D02*
D03*
X992176Y658647D02*
D03*
Y662584D02*
D03*
Y646836D02*
D03*
Y642899D02*
D03*
X929183Y686206D02*
D03*
Y690143D02*
D03*
D58*
X999065Y671541D02*
D03*
D59*
Y658450D02*
D03*
D60*
Y666521D02*
D03*
D61*
X996081Y647821D02*
D03*
X1000081D02*
D03*
X996081Y642899D02*
D03*
X1000081D02*
D03*
X944900Y684238D02*
D03*
X948900D02*
D03*
X971538Y685419D02*
D03*
X967538D02*
D03*
X971538Y681482D02*
D03*
X967538D02*
D03*
X912483Y669474D02*
D03*
X908483D02*
D03*
X912514Y665537D02*
D03*
X908514D02*
D03*
D62*
X996113Y637978D02*
D03*
X992176D02*
D03*
X963632Y696049D02*
D03*
X959695D02*
D03*
D63*
X990601Y670458D02*
D03*
X978003D02*
D03*
D64*
X978494Y638222D02*
D03*
X981054D02*
D03*
X983613D02*
D03*
X986172D02*
D03*
Y661356D02*
D03*
X983613D02*
D03*
X981054D02*
D03*
X978494D02*
D03*
D65*
X998081Y653726D02*
D03*
X992176D02*
D03*
X955758Y693096D02*
D03*
X949853D02*
D03*
D66*
X934105Y648805D02*
D03*
Y642899D02*
D03*
X929183Y648805D02*
D03*
Y642899D02*
D03*
X934105Y691128D02*
D03*
Y685222D02*
D03*
D67*
X957727Y677544D02*
D03*
X959695D02*
D03*
X957727Y688963D02*
D03*
X959695D02*
D03*
D68*
X958711Y683253D02*
D03*
D69*
X953199Y687190D02*
D03*
Y685222D02*
D03*
Y683253D02*
D03*
Y681285D02*
D03*
Y679317D02*
D03*
X964223D02*
D03*
Y681285D02*
D03*
Y683253D02*
D03*
Y685222D02*
D03*
Y687190D02*
D03*
D70*
X961467Y692112D02*
D03*
X963632D02*
D03*
D71*
X905167Y669277D02*
D03*
Y665341D02*
D03*
X899656D02*
D03*
Y669277D02*
D03*
D72*
X1221506Y621246D02*
D03*
X1221506Y717702D02*
D03*
X943947D02*
D03*
Y621246D02*
D03*
M02*
