G04*
G04 #@! TF.GenerationSoftware,Altium Limited,Altium Designer,23.0.1 (38)*
G04*
G04 Layer_Color=65535*
%FSLAX25Y25*%
%MOIN*%
G70*
G04*
G04 #@! TF.SameCoordinates,B4ED9068-0949-4354-B78F-C4858C2F04AE*
G04*
G04*
G04 #@! TF.FilePolarity,Positive*
G04*
G01*
G75*
%ADD10C,0.00787*%
%ADD11C,0.00600*%
%ADD12C,0.01000*%
%ADD13C,0.00500*%
G36*
X1075807Y712028D02*
X1077647D01*
Y711288D01*
X1075033D01*
Y714091D01*
Y714109D01*
Y716654D01*
X1075807D01*
Y712028D01*
D02*
G37*
G36*
X1068084Y712733D02*
X1067826D01*
Y712715D01*
X1067706D01*
Y712698D01*
X1067637D01*
Y712681D01*
X1067551D01*
Y712664D01*
X1067499D01*
Y712647D01*
X1067448D01*
Y712629D01*
X1067396D01*
Y712612D01*
X1067345D01*
Y712595D01*
X1067293D01*
Y712578D01*
X1067259D01*
Y712561D01*
X1067224D01*
Y712543D01*
X1067190D01*
Y712526D01*
X1067155D01*
Y712509D01*
X1067121D01*
Y712492D01*
X1067087D01*
Y712475D01*
X1067052D01*
Y712457D01*
X1067018D01*
Y712440D01*
X1067001D01*
Y712423D01*
X1066966D01*
Y712406D01*
X1066932D01*
Y712389D01*
X1066915D01*
Y712371D01*
X1066897D01*
Y712354D01*
X1066863D01*
Y712337D01*
X1066846D01*
Y712320D01*
X1066811D01*
Y712303D01*
X1066794D01*
Y712286D01*
X1066777D01*
Y712268D01*
X1066760D01*
Y712251D01*
X1066743D01*
Y712234D01*
X1066708D01*
Y712217D01*
X1066691D01*
Y712199D01*
X1066674D01*
Y712182D01*
X1066657D01*
Y712165D01*
X1066640D01*
Y712148D01*
X1066622D01*
Y712131D01*
X1066605D01*
Y712114D01*
X1066588D01*
Y712096D01*
X1066571D01*
Y712079D01*
X1066553D01*
Y712062D01*
X1066536D01*
Y712045D01*
X1066519D01*
Y712028D01*
X1066502D01*
Y711993D01*
X1066485D01*
Y711976D01*
X1066467D01*
Y711959D01*
X1066450D01*
Y711941D01*
X1066433D01*
Y711907D01*
X1066416D01*
Y711890D01*
X1066399D01*
Y711873D01*
X1066381D01*
Y711838D01*
X1066364D01*
Y711821D01*
X1066347D01*
Y711787D01*
X1066330D01*
Y711769D01*
X1066313D01*
Y711735D01*
X1066296D01*
Y711718D01*
X1066278D01*
Y711684D01*
X1066261D01*
Y711649D01*
X1066244D01*
Y711615D01*
X1066227D01*
Y711580D01*
X1066210D01*
Y711546D01*
X1066192D01*
Y711512D01*
X1066175D01*
Y711477D01*
X1066158D01*
Y711425D01*
X1066141D01*
Y711391D01*
X1066123D01*
Y711340D01*
X1066106D01*
Y711288D01*
X1066089D01*
Y711219D01*
X1066072D01*
Y711167D01*
X1066055D01*
Y711082D01*
X1066037D01*
Y710995D01*
X1066020D01*
Y710875D01*
X1066003D01*
Y710652D01*
X1064610D01*
Y710910D01*
X1064627D01*
Y711082D01*
X1064644D01*
Y711202D01*
X1064662D01*
Y711305D01*
X1064679D01*
Y711391D01*
X1064696D01*
Y711477D01*
X1064713D01*
Y711546D01*
X1064730D01*
Y711597D01*
X1064748D01*
Y711666D01*
X1064765D01*
Y711718D01*
X1064782D01*
Y711769D01*
X1064799D01*
Y711821D01*
X1064816D01*
Y711873D01*
X1064834D01*
Y711907D01*
X1064851D01*
Y711959D01*
X1064868D01*
Y711993D01*
X1064885D01*
Y712045D01*
X1064902D01*
Y712079D01*
X1064919D01*
Y712114D01*
X1064937D01*
Y712148D01*
X1064954D01*
Y712182D01*
X1064971D01*
Y712217D01*
X1064988D01*
Y712251D01*
X1065006D01*
Y712286D01*
X1065023D01*
Y712320D01*
X1065040D01*
Y712354D01*
X1065057D01*
Y712389D01*
X1065074D01*
Y712406D01*
X1065092D01*
Y712440D01*
X1065109D01*
Y712475D01*
X1065126D01*
Y712492D01*
X1065143D01*
Y712526D01*
X1065160D01*
Y712543D01*
X1065178D01*
Y712578D01*
X1065195D01*
Y712595D01*
X1065212D01*
Y712612D01*
Y712629D01*
X1065229D01*
Y712647D01*
X1065246D01*
Y712681D01*
X1065263D01*
Y712698D01*
X1065281D01*
Y712733D01*
X1065298D01*
Y712750D01*
X1065315D01*
Y712767D01*
X1065332D01*
Y712784D01*
X1065349D01*
Y712819D01*
X1065367D01*
Y712836D01*
X1065384D01*
Y712853D01*
X1065401D01*
Y712870D01*
X1065418D01*
Y712905D01*
X1065436D01*
Y712922D01*
X1065453D01*
Y712939D01*
X1065470D01*
Y712956D01*
X1065487D01*
Y712973D01*
X1065504D01*
Y712991D01*
X1065522D01*
Y713008D01*
X1065539D01*
Y713042D01*
X1065556D01*
Y713059D01*
X1065573D01*
Y713077D01*
X1065590D01*
Y713094D01*
X1065607D01*
Y713111D01*
X1065625D01*
Y713128D01*
X1065642D01*
Y713145D01*
X1065659D01*
Y713163D01*
X1065676D01*
Y713180D01*
X1065693D01*
Y713197D01*
X1065728D01*
Y713214D01*
X1065745D01*
Y713231D01*
X1065762D01*
Y713249D01*
X1065779D01*
Y713266D01*
X1065797D01*
Y713283D01*
X1065814D01*
Y713300D01*
X1065831D01*
Y713317D01*
X1065848D01*
Y713335D01*
X1065883D01*
Y713352D01*
X1065900D01*
Y713369D01*
X1065917D01*
Y713386D01*
X1065934D01*
Y713403D01*
X1065969D01*
Y713421D01*
X1065986D01*
Y713438D01*
X1066003D01*
Y713455D01*
X1066037D01*
Y713472D01*
X1066055D01*
Y713489D01*
X1066072D01*
Y713507D01*
X1066106D01*
Y713524D01*
X1066123D01*
Y713541D01*
X1066158D01*
Y713558D01*
X1066175D01*
Y713575D01*
X1066210D01*
Y713593D01*
X1066244D01*
Y713610D01*
X1066261D01*
Y713627D01*
X1066296D01*
Y713644D01*
X1066313D01*
Y713661D01*
X1066347D01*
Y713679D01*
X1066381D01*
Y713696D01*
X1066416D01*
Y713713D01*
X1066450D01*
Y713730D01*
X1066467D01*
Y713747D01*
X1066502D01*
Y713765D01*
X1066536D01*
Y713782D01*
X1066571D01*
Y713799D01*
X1066622D01*
Y713816D01*
X1066657D01*
Y713833D01*
X1066691D01*
Y713851D01*
X1066725D01*
Y713868D01*
X1066777D01*
Y713885D01*
X1066811D01*
Y713902D01*
X1066863D01*
Y713919D01*
X1066897D01*
Y713937D01*
X1066949D01*
Y713954D01*
X1067001D01*
Y713971D01*
X1067052D01*
Y713988D01*
X1067121D01*
Y714005D01*
X1067173D01*
Y714023D01*
X1067241D01*
Y714040D01*
X1067327D01*
Y714057D01*
X1067396D01*
Y714074D01*
X1067499D01*
Y714091D01*
X1067620D01*
Y714109D01*
X1067775D01*
Y714126D01*
X1068084D01*
Y712733D01*
D02*
G37*
G36*
Y715519D02*
X1067792D01*
Y715502D01*
X1067585D01*
Y715485D01*
X1067448D01*
Y715467D01*
X1067327D01*
Y715450D01*
X1067224D01*
Y715433D01*
X1067138D01*
Y715416D01*
X1067052D01*
Y715399D01*
X1066966D01*
Y715381D01*
X1066897D01*
Y715364D01*
X1066829D01*
Y715347D01*
X1066777D01*
Y715330D01*
X1066708D01*
Y715312D01*
X1066657D01*
Y715295D01*
X1066605D01*
Y715278D01*
X1066553D01*
Y715261D01*
X1066502D01*
Y715244D01*
X1066450D01*
Y715227D01*
X1066399D01*
Y715209D01*
X1066347D01*
Y715192D01*
X1066313D01*
Y715175D01*
X1066261D01*
Y715158D01*
X1066227D01*
Y715140D01*
X1066192D01*
Y715123D01*
X1066141D01*
Y715106D01*
X1066106D01*
Y715089D01*
X1066072D01*
Y715072D01*
X1066037D01*
Y715055D01*
X1065986D01*
Y715037D01*
X1065952D01*
Y715020D01*
X1065917D01*
Y715003D01*
X1065883D01*
Y714986D01*
X1065848D01*
Y714968D01*
X1065814D01*
Y714951D01*
X1065797D01*
Y714934D01*
X1065762D01*
Y714917D01*
X1065728D01*
Y714900D01*
X1065693D01*
Y714883D01*
X1065659D01*
Y714865D01*
X1065642D01*
Y714848D01*
X1065607D01*
Y714831D01*
X1065573D01*
Y714814D01*
X1065556D01*
Y714796D01*
X1065522D01*
Y714779D01*
X1065487D01*
Y714762D01*
X1065470D01*
Y714745D01*
X1065436D01*
Y714728D01*
X1065418D01*
Y714711D01*
X1065384D01*
Y714693D01*
X1065367D01*
Y714676D01*
X1065332D01*
Y714659D01*
X1065315D01*
Y714642D01*
X1065281D01*
Y714625D01*
X1065263D01*
Y714607D01*
X1065246D01*
Y714590D01*
X1065212D01*
Y714573D01*
X1065195D01*
Y714556D01*
X1065178D01*
Y714538D01*
X1065143D01*
Y714521D01*
X1065126D01*
Y714504D01*
X1065109D01*
Y714487D01*
X1065074D01*
Y714470D01*
X1065057D01*
Y714453D01*
X1065040D01*
Y714435D01*
X1065023D01*
Y714418D01*
X1064988D01*
Y714401D01*
X1064971D01*
Y714384D01*
X1064954D01*
Y714366D01*
X1064937D01*
Y714349D01*
X1064919D01*
Y714332D01*
X1064902D01*
Y714315D01*
X1064868D01*
Y714298D01*
X1064851D01*
Y714281D01*
X1064834D01*
Y714263D01*
X1064816D01*
Y714246D01*
X1064799D01*
Y714229D01*
X1064782D01*
Y714212D01*
X1064765D01*
Y714194D01*
X1064748D01*
Y714177D01*
X1064730D01*
Y714160D01*
X1064713D01*
Y714143D01*
X1064696D01*
Y714126D01*
X1064679D01*
Y714109D01*
X1064662D01*
Y714091D01*
X1064644D01*
Y714074D01*
X1064627D01*
Y714057D01*
X1064610D01*
Y714040D01*
X1064593D01*
Y714023D01*
X1064576D01*
Y714005D01*
X1064558D01*
Y713988D01*
X1064541D01*
Y713971D01*
X1064524D01*
Y713954D01*
X1064507D01*
Y713937D01*
X1064490D01*
Y713919D01*
X1064472D01*
Y713902D01*
X1064455D01*
Y713885D01*
X1064438D01*
Y713868D01*
X1064421D01*
Y713833D01*
X1064404D01*
Y713816D01*
X1064386D01*
Y713799D01*
X1064369D01*
Y713782D01*
X1064352D01*
Y713765D01*
X1064335D01*
Y713747D01*
X1064318D01*
Y713713D01*
X1064300D01*
Y713696D01*
X1064283D01*
Y713679D01*
X1064266D01*
Y713661D01*
X1064249D01*
Y713627D01*
X1064232D01*
Y713610D01*
X1064214D01*
Y713593D01*
X1064197D01*
Y713558D01*
X1064180D01*
Y713541D01*
X1064163D01*
Y713524D01*
X1064146D01*
Y713489D01*
X1064128D01*
Y713472D01*
X1064111D01*
Y713438D01*
X1064094D01*
Y713421D01*
X1064077D01*
Y713403D01*
X1064060D01*
Y713369D01*
X1064042D01*
Y713352D01*
X1064025D01*
Y713317D01*
X1064008D01*
Y713300D01*
X1063991D01*
Y713266D01*
X1063974D01*
Y713231D01*
X1063956D01*
Y713214D01*
X1063939D01*
Y713180D01*
X1063922D01*
Y713163D01*
X1063905D01*
Y713128D01*
X1063888D01*
Y713094D01*
X1063870D01*
Y713059D01*
X1063853D01*
Y713042D01*
X1063836D01*
Y713008D01*
X1063819D01*
Y712973D01*
X1063802D01*
Y712939D01*
X1063784D01*
Y712905D01*
X1063767D01*
Y712870D01*
X1063750D01*
Y712836D01*
X1063733D01*
Y712801D01*
X1063716D01*
Y712767D01*
X1063698D01*
Y712733D01*
X1063681D01*
Y712698D01*
X1063664D01*
Y712664D01*
X1063647D01*
Y712629D01*
X1063630D01*
Y712578D01*
X1063612D01*
Y712543D01*
X1063595D01*
Y712509D01*
X1063578D01*
Y712457D01*
X1063561D01*
Y712423D01*
X1063544D01*
Y712371D01*
X1063526D01*
Y712320D01*
X1063509D01*
Y712286D01*
X1063492D01*
Y712234D01*
X1063475D01*
Y712182D01*
X1063458D01*
Y712131D01*
X1063440D01*
Y712062D01*
X1063423D01*
Y712010D01*
X1063406D01*
Y711941D01*
X1063389D01*
Y711890D01*
X1063372D01*
Y711821D01*
X1063354D01*
Y711752D01*
X1063337D01*
Y711666D01*
X1063320D01*
Y711580D01*
X1063303D01*
Y711494D01*
X1063286D01*
Y711391D01*
X1063268D01*
Y711253D01*
X1063251D01*
Y711099D01*
X1063234D01*
Y710841D01*
X1063217D01*
Y710652D01*
X1061841D01*
Y710858D01*
Y710875D01*
Y711133D01*
X1061858D01*
Y711322D01*
X1061875D01*
Y711477D01*
X1061893D01*
Y711597D01*
X1061910D01*
Y711701D01*
X1061927D01*
Y711804D01*
X1061944D01*
Y711890D01*
X1061961D01*
Y711976D01*
X1061979D01*
Y712045D01*
X1061996D01*
Y712131D01*
X1062013D01*
Y712199D01*
X1062030D01*
Y712268D01*
X1062047D01*
Y712320D01*
X1062064D01*
Y712389D01*
X1062082D01*
Y712440D01*
X1062099D01*
Y712509D01*
X1062116D01*
Y712561D01*
X1062133D01*
Y712612D01*
X1062150D01*
Y712664D01*
X1062168D01*
Y712715D01*
X1062185D01*
Y712767D01*
X1062202D01*
Y712819D01*
X1062219D01*
Y712853D01*
X1062236D01*
Y712905D01*
X1062254D01*
Y712939D01*
X1062271D01*
Y712991D01*
X1062288D01*
Y713025D01*
X1062305D01*
Y713077D01*
X1062323D01*
Y713111D01*
X1062340D01*
Y713145D01*
X1062357D01*
Y713197D01*
X1062374D01*
Y713231D01*
X1062391D01*
Y713266D01*
X1062409D01*
Y713300D01*
X1062426D01*
Y713335D01*
X1062443D01*
Y713369D01*
X1062460D01*
Y713421D01*
X1062477D01*
Y713455D01*
X1062494D01*
Y713489D01*
X1062512D01*
Y713507D01*
X1062529D01*
Y713541D01*
X1062546D01*
Y713575D01*
X1062563D01*
Y713610D01*
X1062580D01*
Y713644D01*
X1062598D01*
Y713679D01*
X1062615D01*
Y713713D01*
X1062632D01*
Y713730D01*
X1062649D01*
Y713765D01*
X1062667D01*
Y713799D01*
X1062684D01*
Y713833D01*
X1062701D01*
Y713851D01*
X1062718D01*
Y713885D01*
X1062735D01*
Y713919D01*
X1062753D01*
Y713937D01*
X1062770D01*
Y713971D01*
X1062787D01*
Y713988D01*
X1062804D01*
Y714023D01*
X1062821D01*
Y714057D01*
X1062838D01*
Y714074D01*
X1062856D01*
Y714109D01*
X1062873D01*
Y714126D01*
X1062890D01*
Y714160D01*
X1062907D01*
Y714177D01*
X1062924D01*
Y714212D01*
X1062942D01*
Y714229D01*
X1062959D01*
Y714246D01*
X1062976D01*
Y714281D01*
X1062993D01*
Y714298D01*
X1063011D01*
Y714332D01*
X1063028D01*
Y714349D01*
X1063045D01*
Y714366D01*
X1063062D01*
Y714401D01*
X1063079D01*
Y714418D01*
X1063097D01*
Y714435D01*
X1063114D01*
Y714470D01*
X1063131D01*
Y714487D01*
X1063148D01*
Y714504D01*
X1063165D01*
Y714538D01*
X1063183D01*
Y714556D01*
X1063200D01*
Y714573D01*
X1063217D01*
Y714590D01*
X1063234D01*
Y714625D01*
X1063251D01*
Y714642D01*
X1063268D01*
Y714659D01*
X1063286D01*
Y714676D01*
X1063303D01*
Y714693D01*
X1063320D01*
Y714728D01*
X1063337D01*
Y714745D01*
X1063354D01*
Y714762D01*
X1063372D01*
Y714779D01*
X1063389D01*
Y714796D01*
X1063406D01*
Y714814D01*
X1063423D01*
Y714831D01*
X1063440D01*
Y714848D01*
X1063458D01*
Y714883D01*
X1063475D01*
Y714900D01*
X1063492D01*
Y714917D01*
X1063509D01*
Y714934D01*
X1063526D01*
Y714951D01*
X1063544D01*
Y714968D01*
X1063561D01*
Y714986D01*
X1063578D01*
Y715003D01*
X1063595D01*
Y715020D01*
X1063612D01*
Y715037D01*
X1063630D01*
Y715055D01*
X1063647D01*
Y715072D01*
X1063664D01*
Y715089D01*
X1063681D01*
Y715106D01*
X1063698D01*
Y715123D01*
X1063716D01*
Y715140D01*
X1063733D01*
Y715158D01*
X1063750D01*
Y715175D01*
X1063767D01*
Y715192D01*
X1063784D01*
Y715209D01*
X1063802D01*
Y715227D01*
X1063819D01*
Y715244D01*
X1063836D01*
Y715261D01*
X1063853D01*
Y715278D01*
X1063870D01*
Y715295D01*
X1063905D01*
Y715312D01*
X1063922D01*
Y715330D01*
X1063939D01*
Y715347D01*
X1063956D01*
Y715364D01*
X1063974D01*
Y715381D01*
X1063991D01*
Y715399D01*
X1064008D01*
Y715416D01*
X1064042D01*
Y715433D01*
X1064060D01*
Y715450D01*
X1064077D01*
Y715467D01*
X1064094D01*
Y715485D01*
X1064111D01*
Y715502D01*
X1064146D01*
Y715519D01*
X1064163D01*
Y715536D01*
X1064180D01*
Y715553D01*
X1064197D01*
Y715570D01*
X1064232D01*
Y715588D01*
X1064249D01*
Y715605D01*
X1064266D01*
Y715622D01*
X1064283D01*
Y715639D01*
X1064318D01*
Y715657D01*
X1064335D01*
Y715674D01*
X1064352D01*
Y715691D01*
X1064386D01*
Y715708D01*
X1064404D01*
Y715725D01*
X1064438D01*
Y715742D01*
X1064455D01*
Y715760D01*
X1064472D01*
Y715777D01*
X1064507D01*
Y715794D01*
X1064524D01*
Y715811D01*
X1064558D01*
Y715829D01*
X1064576D01*
Y715846D01*
X1064610D01*
Y715863D01*
X1064627D01*
Y715880D01*
X1064662D01*
Y715897D01*
X1064679D01*
Y715914D01*
X1064713D01*
Y715932D01*
X1064730D01*
Y715949D01*
X1064765D01*
Y715966D01*
X1064799D01*
Y715983D01*
X1064816D01*
Y716001D01*
X1064851D01*
Y716018D01*
X1064868D01*
Y716035D01*
X1064902D01*
Y716052D01*
X1064937D01*
Y716069D01*
X1064971D01*
Y716086D01*
X1064988D01*
Y716104D01*
X1065023D01*
Y716121D01*
X1065057D01*
Y716138D01*
X1065092D01*
Y716155D01*
X1065126D01*
Y716172D01*
X1065143D01*
Y716190D01*
X1065178D01*
Y716207D01*
X1065212D01*
Y716224D01*
X1065246D01*
Y716241D01*
X1065281D01*
Y716258D01*
X1065315D01*
Y716276D01*
X1065349D01*
Y716293D01*
X1065384D01*
Y716310D01*
X1065418D01*
Y716327D01*
X1065470D01*
Y716344D01*
X1065504D01*
Y716362D01*
X1065539D01*
Y716379D01*
X1065573D01*
Y716396D01*
X1065607D01*
Y716413D01*
X1065659D01*
Y716430D01*
X1065693D01*
Y716448D01*
X1065745D01*
Y716465D01*
X1065779D01*
Y716482D01*
X1065831D01*
Y716499D01*
X1065866D01*
Y716516D01*
X1065917D01*
Y716534D01*
X1065969D01*
Y716551D01*
X1066003D01*
Y716568D01*
X1066055D01*
Y716585D01*
X1066106D01*
Y716602D01*
X1066158D01*
Y716620D01*
X1066227D01*
Y716637D01*
X1066278D01*
Y716654D01*
X1066330D01*
Y716671D01*
X1066399D01*
Y716688D01*
X1066450D01*
Y716706D01*
X1066519D01*
Y716723D01*
X1066588D01*
Y716740D01*
X1066657D01*
Y716757D01*
X1066743D01*
Y716774D01*
X1066829D01*
Y716792D01*
X1066915D01*
Y716809D01*
X1067001D01*
Y716826D01*
X1067104D01*
Y716843D01*
X1067224D01*
Y716860D01*
X1067362D01*
Y716878D01*
X1067551D01*
Y716895D01*
X1067826D01*
Y716912D01*
X1068084D01*
Y715519D01*
D02*
G37*
G36*
X1068738Y711150D02*
X1068841D01*
Y711133D01*
X1068910D01*
Y711116D01*
X1068961D01*
Y711099D01*
X1068996D01*
Y711082D01*
X1069030D01*
Y711064D01*
X1069065D01*
Y711047D01*
X1069099D01*
Y711030D01*
X1069133D01*
Y711013D01*
X1069151D01*
Y710995D01*
X1069185D01*
Y710978D01*
X1069202D01*
Y710961D01*
X1069236D01*
Y710944D01*
X1069254D01*
Y710927D01*
X1069271D01*
Y710910D01*
X1069288D01*
Y710892D01*
X1069305D01*
Y710875D01*
X1069322D01*
Y710858D01*
X1069340D01*
Y710841D01*
X1069357D01*
Y710823D01*
X1069374D01*
Y710806D01*
X1069391D01*
Y710789D01*
X1069409D01*
Y710755D01*
X1069426D01*
Y710738D01*
X1069443D01*
Y710720D01*
X1069460D01*
Y710686D01*
X1069477D01*
Y710669D01*
X1069495D01*
Y710634D01*
X1069512D01*
Y710600D01*
X1069529D01*
Y710566D01*
X1069546D01*
Y710531D01*
X1069563D01*
Y710480D01*
X1069580D01*
Y710428D01*
X1069598D01*
Y710359D01*
X1069615D01*
Y710239D01*
X1069632D01*
Y710032D01*
X1069615D01*
Y709912D01*
X1069598D01*
Y709843D01*
X1069580D01*
Y709792D01*
X1069563D01*
Y709740D01*
X1069546D01*
Y709706D01*
X1069529D01*
Y709671D01*
X1069512D01*
Y709637D01*
X1069495D01*
Y709602D01*
X1069477D01*
Y709585D01*
X1069460D01*
Y709551D01*
X1069443D01*
Y709534D01*
X1069426D01*
Y709516D01*
X1069409D01*
Y709482D01*
X1069391D01*
Y709465D01*
X1069374D01*
Y709448D01*
X1069357D01*
Y709430D01*
X1069340D01*
Y709413D01*
X1069322D01*
Y709396D01*
X1069305D01*
Y709379D01*
X1069288D01*
Y709362D01*
X1069271D01*
Y709344D01*
X1069254D01*
Y709327D01*
X1069236D01*
Y709310D01*
X1069202D01*
Y709293D01*
X1069185D01*
Y709276D01*
X1069151D01*
Y709258D01*
X1069133D01*
Y709241D01*
X1069099D01*
Y709224D01*
X1069065D01*
Y709207D01*
X1069030D01*
Y709190D01*
X1068996D01*
Y709172D01*
X1068961D01*
Y709155D01*
X1068910D01*
Y709138D01*
X1068841D01*
Y709121D01*
X1068738D01*
Y709104D01*
X1068445D01*
Y709121D01*
X1068342D01*
Y709138D01*
X1068273D01*
Y709155D01*
X1068239D01*
Y709172D01*
X1068187D01*
Y709190D01*
X1068153D01*
Y709207D01*
X1068119D01*
Y709224D01*
X1068084D01*
Y709241D01*
X1068050D01*
Y709258D01*
X1068033D01*
Y709276D01*
X1067998D01*
Y709293D01*
X1067981D01*
Y709310D01*
X1067964D01*
Y709327D01*
X1067947D01*
Y709344D01*
X1067912D01*
Y709362D01*
X1067895D01*
Y709379D01*
X1067878D01*
Y709396D01*
X1067861D01*
Y709413D01*
X1067843D01*
Y709430D01*
X1067826D01*
Y709448D01*
X1067809D01*
Y709465D01*
X1067792D01*
Y709499D01*
X1067775D01*
Y709516D01*
X1067757D01*
Y709534D01*
X1067740D01*
Y709568D01*
X1067723D01*
Y709585D01*
X1067706D01*
Y709620D01*
X1067689D01*
Y709654D01*
X1067671D01*
Y709688D01*
X1067654D01*
Y709723D01*
X1067637D01*
Y709757D01*
X1067620D01*
Y709809D01*
X1067603D01*
Y709860D01*
X1067585D01*
Y709946D01*
X1067568D01*
Y710342D01*
X1067585D01*
Y710411D01*
X1067603D01*
Y710480D01*
X1067620D01*
Y710514D01*
X1067637D01*
Y710548D01*
X1067654D01*
Y710600D01*
X1067671D01*
Y710617D01*
X1067689D01*
Y710652D01*
X1067706D01*
Y710686D01*
X1067723D01*
Y710703D01*
X1067740D01*
Y710738D01*
X1067757D01*
Y710755D01*
X1067775D01*
Y710772D01*
X1067792D01*
Y710806D01*
X1067809D01*
Y710823D01*
X1067826D01*
Y710841D01*
X1067843D01*
Y710858D01*
X1067861D01*
Y710875D01*
X1067878D01*
Y710892D01*
X1067895D01*
Y710910D01*
X1067912D01*
Y710927D01*
X1067947D01*
Y710944D01*
X1067964D01*
Y710961D01*
X1067981D01*
Y710978D01*
X1067998D01*
Y710995D01*
X1068033D01*
Y711013D01*
X1068050D01*
Y711030D01*
X1068084D01*
Y711047D01*
X1068119D01*
Y711064D01*
X1068153D01*
Y711082D01*
X1068187D01*
Y711099D01*
X1068239D01*
Y711116D01*
X1068291D01*
Y711133D01*
X1068342D01*
Y711150D01*
X1068445D01*
Y711167D01*
X1068738D01*
Y711150D01*
D02*
G37*
G36*
X1053155Y711116D02*
X1053362D01*
Y711099D01*
X1053499D01*
Y711082D01*
X1053620D01*
Y711064D01*
X1053723D01*
Y711047D01*
X1053826D01*
Y711030D01*
X1053912D01*
Y711013D01*
X1053981D01*
Y710995D01*
X1054050D01*
Y710978D01*
X1054136D01*
Y710961D01*
X1054187D01*
Y710944D01*
X1054256D01*
Y710927D01*
X1054325D01*
Y710910D01*
X1054377D01*
Y710892D01*
X1054428D01*
Y710875D01*
X1054497D01*
Y710858D01*
X1054549D01*
Y710841D01*
X1054600D01*
Y710823D01*
X1054652D01*
Y710806D01*
X1054703D01*
Y710789D01*
X1054755D01*
Y710772D01*
X1054789D01*
Y710755D01*
X1054841D01*
Y710738D01*
X1054893D01*
Y710720D01*
X1054927D01*
Y710703D01*
X1054978D01*
Y710686D01*
X1055013D01*
Y710669D01*
X1055064D01*
Y710652D01*
X1055099D01*
Y710634D01*
X1055151D01*
Y710617D01*
X1055185D01*
Y710600D01*
X1055219D01*
Y710583D01*
X1055254D01*
Y710566D01*
X1055271D01*
Y708502D01*
X1055254D01*
Y708519D01*
X1055237D01*
Y708536D01*
X1055202D01*
Y708553D01*
X1055168D01*
Y708570D01*
X1055133D01*
Y708588D01*
X1055116D01*
Y708605D01*
X1055082D01*
Y708622D01*
X1055047D01*
Y708639D01*
X1055013D01*
Y708657D01*
X1054996D01*
Y708674D01*
X1054961D01*
Y708691D01*
X1054927D01*
Y708708D01*
X1054893D01*
Y708725D01*
X1054858D01*
Y708743D01*
X1054824D01*
Y708760D01*
X1054789D01*
Y708777D01*
X1054755D01*
Y708794D01*
X1054721D01*
Y708811D01*
X1054686D01*
Y708828D01*
X1054652D01*
Y708846D01*
X1054617D01*
Y708863D01*
X1054583D01*
Y708880D01*
X1054549D01*
Y708897D01*
X1054514D01*
Y708915D01*
X1054480D01*
Y708932D01*
X1054445D01*
Y708949D01*
X1054394D01*
Y708966D01*
X1054359D01*
Y708983D01*
X1054325D01*
Y709000D01*
X1054273D01*
Y709018D01*
X1054239D01*
Y709035D01*
X1054187D01*
Y709052D01*
X1054153D01*
Y709069D01*
X1054101D01*
Y709086D01*
X1054050D01*
Y709104D01*
X1053998D01*
Y709121D01*
X1053947D01*
Y709138D01*
X1053895D01*
Y709155D01*
X1053843D01*
Y709172D01*
X1053792D01*
Y709190D01*
X1053723D01*
Y709207D01*
X1053671D01*
Y709224D01*
X1053603D01*
Y709241D01*
X1053517D01*
Y709258D01*
X1053448D01*
Y709276D01*
X1053345D01*
Y709293D01*
X1053241D01*
Y709310D01*
X1053069D01*
Y709327D01*
X1052657D01*
Y709310D01*
X1052502D01*
Y709293D01*
X1052399D01*
Y709276D01*
X1052313D01*
Y709258D01*
X1052244D01*
Y709241D01*
X1052175D01*
Y709224D01*
X1052124D01*
Y709207D01*
X1052072D01*
Y709190D01*
X1052020D01*
Y709172D01*
X1051969D01*
Y709155D01*
X1051934D01*
Y709138D01*
X1051900D01*
Y709121D01*
X1051865D01*
Y709104D01*
X1051831D01*
Y709086D01*
X1051797D01*
Y709069D01*
X1051762D01*
Y709052D01*
X1051728D01*
Y709035D01*
X1051694D01*
Y709018D01*
X1051676D01*
Y709000D01*
X1051642D01*
Y708983D01*
X1051625D01*
Y708966D01*
X1051590D01*
Y708949D01*
X1051573D01*
Y708932D01*
X1051556D01*
Y708915D01*
X1051521D01*
Y708897D01*
X1051504D01*
Y708880D01*
X1051487D01*
Y708863D01*
X1051453D01*
Y708846D01*
X1051435D01*
Y708828D01*
X1051418D01*
Y708811D01*
X1051401D01*
Y708794D01*
X1051384D01*
Y708777D01*
X1051367D01*
Y708760D01*
X1051350D01*
Y708743D01*
X1051332D01*
Y708725D01*
X1051315D01*
Y708708D01*
X1051298D01*
Y708691D01*
X1051281D01*
Y708674D01*
X1051264D01*
Y708657D01*
X1051246D01*
Y708639D01*
X1051229D01*
Y708622D01*
X1051212D01*
Y708605D01*
X1051195D01*
Y708588D01*
X1051178D01*
Y708553D01*
X1051160D01*
Y708536D01*
X1051143D01*
Y708519D01*
X1051126D01*
Y708502D01*
X1051109D01*
Y708467D01*
X1051092D01*
Y708450D01*
X1051074D01*
Y708416D01*
X1051057D01*
Y708398D01*
X1051040D01*
Y708381D01*
X1051023D01*
Y708347D01*
X1051006D01*
Y708313D01*
X1050988D01*
Y708295D01*
X1050971D01*
Y708261D01*
X1050954D01*
Y708226D01*
X1050937D01*
Y708192D01*
X1050920D01*
Y708175D01*
X1050902D01*
Y708141D01*
X1050885D01*
Y708106D01*
X1050868D01*
Y708054D01*
X1050851D01*
Y708020D01*
X1050834D01*
Y707986D01*
X1050816D01*
Y707934D01*
X1050799D01*
Y707900D01*
X1050782D01*
Y707848D01*
X1050765D01*
Y707796D01*
X1050748D01*
Y707745D01*
X1050730D01*
Y707693D01*
X1050713D01*
Y707624D01*
X1050696D01*
Y707556D01*
X1050679D01*
Y707487D01*
X1050662D01*
Y707401D01*
X1050644D01*
Y707298D01*
X1050627D01*
Y707160D01*
X1050610D01*
Y706971D01*
X1050593D01*
Y706472D01*
X1050610D01*
Y706283D01*
X1050627D01*
Y706163D01*
X1050644D01*
Y706059D01*
X1050662D01*
Y705991D01*
X1050679D01*
Y705922D01*
X1050696D01*
Y705853D01*
X1050713D01*
Y705784D01*
X1050730D01*
Y705733D01*
X1050748D01*
Y705681D01*
X1050765D01*
Y705647D01*
X1050782D01*
Y705595D01*
X1050799D01*
Y705561D01*
X1050816D01*
Y705509D01*
X1050834D01*
Y705475D01*
X1050851D01*
Y705440D01*
X1050868D01*
Y705406D01*
X1050885D01*
Y705372D01*
X1050902D01*
Y705337D01*
X1050920D01*
Y705320D01*
X1050937D01*
Y705286D01*
X1050954D01*
Y705251D01*
X1050971D01*
Y705234D01*
X1050988D01*
Y705199D01*
X1051006D01*
Y705182D01*
X1051023D01*
Y705148D01*
X1051040D01*
Y705131D01*
X1051057D01*
Y705096D01*
X1051074D01*
Y705079D01*
X1051092D01*
Y705062D01*
X1051109D01*
Y705027D01*
X1051126D01*
Y705010D01*
X1051143D01*
Y704993D01*
X1051160D01*
Y704976D01*
X1051178D01*
Y704959D01*
X1051195D01*
Y704942D01*
X1051212D01*
Y704907D01*
X1051229D01*
Y704890D01*
X1051246D01*
Y704873D01*
X1051264D01*
Y704855D01*
X1051281D01*
Y704838D01*
X1051298D01*
Y704821D01*
X1051315D01*
Y704804D01*
X1051332D01*
Y704787D01*
X1051367D01*
Y704770D01*
X1051384D01*
Y704752D01*
X1051401D01*
Y704735D01*
X1051418D01*
Y704718D01*
X1051435D01*
Y704701D01*
X1051453D01*
Y704683D01*
X1051487D01*
Y704666D01*
X1051504D01*
Y704649D01*
X1051521D01*
Y704632D01*
X1051556D01*
Y704615D01*
X1051573D01*
Y704598D01*
X1051590D01*
Y704580D01*
X1051625D01*
Y704563D01*
X1051659D01*
Y704546D01*
X1051676D01*
Y704529D01*
X1051711D01*
Y704511D01*
X1051745D01*
Y704494D01*
X1051762D01*
Y704477D01*
X1051797D01*
Y704460D01*
X1051831D01*
Y704443D01*
X1051865D01*
Y704425D01*
X1051900D01*
Y704408D01*
X1051952D01*
Y704391D01*
X1051986D01*
Y704374D01*
X1052038D01*
Y704357D01*
X1052089D01*
Y704340D01*
X1052124D01*
Y704322D01*
X1052192D01*
Y704305D01*
X1052244D01*
Y704288D01*
X1052313D01*
Y704271D01*
X1052382D01*
Y704253D01*
X1052485D01*
Y704236D01*
X1052588D01*
Y704219D01*
X1052760D01*
Y704202D01*
X1053190D01*
Y704219D01*
X1053345D01*
Y704236D01*
X1053448D01*
Y704253D01*
X1053551D01*
Y704271D01*
X1053620D01*
Y704288D01*
X1053689D01*
Y704305D01*
X1053757D01*
Y704322D01*
X1053826D01*
Y704340D01*
X1053878D01*
Y704357D01*
X1053947D01*
Y704374D01*
X1053998D01*
Y704391D01*
X1054050D01*
Y704408D01*
X1054101D01*
Y704425D01*
X1054136D01*
Y704443D01*
X1054187D01*
Y704460D01*
X1054239D01*
Y704477D01*
X1054273D01*
Y704494D01*
X1054325D01*
Y704511D01*
X1054359D01*
Y704529D01*
X1054411D01*
Y704546D01*
X1054445D01*
Y704563D01*
X1054480D01*
Y704580D01*
X1054531D01*
Y704598D01*
X1054566D01*
Y704615D01*
X1054600D01*
Y704632D01*
X1054634D01*
Y704649D01*
X1054669D01*
Y704666D01*
X1054703D01*
Y704683D01*
X1054738D01*
Y704701D01*
X1054772D01*
Y704718D01*
X1054807D01*
Y704735D01*
X1054841D01*
Y704752D01*
X1054875D01*
Y704770D01*
X1054910D01*
Y704787D01*
X1054944D01*
Y704804D01*
X1054978D01*
Y704821D01*
X1055013D01*
Y704838D01*
X1055047D01*
Y704855D01*
X1055082D01*
Y704873D01*
X1055099D01*
Y704890D01*
X1055133D01*
Y704907D01*
X1055168D01*
Y704924D01*
X1055202D01*
Y704942D01*
X1055219D01*
Y704959D01*
X1055254D01*
Y704976D01*
X1055271D01*
Y702912D01*
X1055254D01*
Y702895D01*
X1055202D01*
Y702878D01*
X1055151D01*
Y702860D01*
X1055099D01*
Y702843D01*
X1055047D01*
Y702826D01*
X1054996D01*
Y702809D01*
X1054944D01*
Y702792D01*
X1054875D01*
Y702774D01*
X1054824D01*
Y702757D01*
X1054772D01*
Y702740D01*
X1054703D01*
Y702723D01*
X1054652D01*
Y702706D01*
X1054583D01*
Y702688D01*
X1054514D01*
Y702671D01*
X1054445D01*
Y702654D01*
X1054394D01*
Y702637D01*
X1054325D01*
Y702620D01*
X1054256D01*
Y702602D01*
X1054170D01*
Y702585D01*
X1054101D01*
Y702568D01*
X1054015D01*
Y702551D01*
X1053947D01*
Y702534D01*
X1053843D01*
Y702516D01*
X1053757D01*
Y702499D01*
X1053654D01*
Y702482D01*
X1053551D01*
Y702465D01*
X1053431D01*
Y702448D01*
X1053276D01*
Y702430D01*
X1053069D01*
Y702413D01*
X1052502D01*
Y702430D01*
X1052295D01*
Y702448D01*
X1052158D01*
Y702465D01*
X1052055D01*
Y702482D01*
X1051969D01*
Y702499D01*
X1051883D01*
Y702516D01*
X1051814D01*
Y702534D01*
X1051745D01*
Y702551D01*
X1051676D01*
Y702568D01*
X1051608D01*
Y702585D01*
X1051556D01*
Y702602D01*
X1051504D01*
Y702620D01*
X1051453D01*
Y702637D01*
X1051401D01*
Y702654D01*
X1051367D01*
Y702671D01*
X1051315D01*
Y702688D01*
X1051281D01*
Y702706D01*
X1051229D01*
Y702723D01*
X1051195D01*
Y702740D01*
X1051160D01*
Y702757D01*
X1051109D01*
Y702774D01*
X1051074D01*
Y702792D01*
X1051040D01*
Y702809D01*
X1051006D01*
Y702826D01*
X1050971D01*
Y702843D01*
X1050937D01*
Y702860D01*
X1050920D01*
Y702878D01*
X1050885D01*
Y702895D01*
X1050851D01*
Y702912D01*
X1050816D01*
Y702929D01*
X1050782D01*
Y702946D01*
X1050765D01*
Y702964D01*
X1050730D01*
Y702981D01*
X1050713D01*
Y702998D01*
X1050679D01*
Y703015D01*
X1050644D01*
Y703032D01*
X1050627D01*
Y703050D01*
X1050593D01*
Y703067D01*
X1050576D01*
Y703084D01*
X1050541D01*
Y703101D01*
X1050524D01*
Y703118D01*
X1050507D01*
Y703136D01*
X1050472D01*
Y703153D01*
X1050455D01*
Y703170D01*
X1050438D01*
Y703187D01*
X1050404D01*
Y703204D01*
X1050386D01*
Y703222D01*
X1050369D01*
Y703239D01*
X1050335D01*
Y703256D01*
X1050318D01*
Y703273D01*
X1050300D01*
Y703290D01*
X1050283D01*
Y703308D01*
X1050249D01*
Y703325D01*
X1050232D01*
Y703342D01*
X1050214D01*
Y703359D01*
X1050197D01*
Y703376D01*
X1050180D01*
Y703394D01*
X1050163D01*
Y703411D01*
X1050146D01*
Y703428D01*
X1050111D01*
Y703445D01*
X1050094D01*
Y703462D01*
X1050077D01*
Y703480D01*
X1050060D01*
Y703497D01*
X1050042D01*
Y703514D01*
X1050025D01*
Y703531D01*
X1050008D01*
Y703548D01*
X1049991D01*
Y703566D01*
X1049974D01*
Y703583D01*
X1049956D01*
Y703600D01*
X1049939D01*
Y703617D01*
X1049922D01*
Y703634D01*
X1049905D01*
Y703652D01*
X1049888D01*
Y703669D01*
X1049870D01*
Y703686D01*
X1049853D01*
Y703703D01*
X1049836D01*
Y703720D01*
X1049819D01*
Y703738D01*
X1049802D01*
Y703772D01*
X1049784D01*
Y703789D01*
X1049767D01*
Y703806D01*
X1049750D01*
Y703824D01*
X1049733D01*
Y703841D01*
X1049716D01*
Y703858D01*
X1049698D01*
Y703875D01*
X1049681D01*
Y703910D01*
X1049664D01*
Y703927D01*
X1049647D01*
Y703944D01*
X1049630D01*
Y703961D01*
X1049612D01*
Y703996D01*
X1049595D01*
Y704013D01*
X1049578D01*
Y704030D01*
X1049561D01*
Y704064D01*
X1049544D01*
Y704081D01*
X1049526D01*
Y704099D01*
X1049509D01*
Y704133D01*
X1049492D01*
Y704150D01*
X1049475D01*
Y704168D01*
X1049458D01*
Y704202D01*
X1049440D01*
Y704219D01*
X1049423D01*
Y704253D01*
X1049406D01*
Y704271D01*
X1049389D01*
Y704305D01*
X1049372D01*
Y704322D01*
X1049354D01*
Y704357D01*
X1049337D01*
Y704374D01*
X1049320D01*
Y704408D01*
X1049303D01*
Y704443D01*
X1049286D01*
Y704460D01*
X1049269D01*
Y704494D01*
X1049251D01*
Y704529D01*
X1049234D01*
Y704563D01*
X1049217D01*
Y704580D01*
X1049200D01*
Y704615D01*
X1049183D01*
Y704649D01*
X1049165D01*
Y704683D01*
X1049148D01*
Y704718D01*
X1049131D01*
Y704752D01*
X1049114D01*
Y704787D01*
X1049096D01*
Y704821D01*
X1049079D01*
Y704855D01*
X1049062D01*
Y704907D01*
X1049045D01*
Y704942D01*
X1049028D01*
Y704976D01*
X1049010D01*
Y705027D01*
X1048993D01*
Y705062D01*
X1048976D01*
Y705114D01*
X1048959D01*
Y705165D01*
X1048942D01*
Y705199D01*
X1048925D01*
Y705251D01*
X1048907D01*
Y705303D01*
X1048890D01*
Y705372D01*
X1048873D01*
Y705423D01*
X1048856D01*
Y705492D01*
X1048839D01*
Y705544D01*
X1048821D01*
Y705629D01*
X1048804D01*
Y705698D01*
X1048787D01*
Y705784D01*
X1048770D01*
Y705870D01*
X1048752D01*
Y705973D01*
X1048735D01*
Y706111D01*
X1048718D01*
Y706266D01*
X1048701D01*
Y706541D01*
X1048684D01*
Y706937D01*
X1048701D01*
Y707212D01*
X1048718D01*
Y707384D01*
X1048735D01*
Y707504D01*
X1048752D01*
Y707607D01*
X1048770D01*
Y707711D01*
X1048787D01*
Y707779D01*
X1048804D01*
Y707865D01*
X1048821D01*
Y707934D01*
X1048839D01*
Y708003D01*
X1048856D01*
Y708054D01*
X1048873D01*
Y708123D01*
X1048890D01*
Y708175D01*
X1048907D01*
Y708226D01*
X1048925D01*
Y708278D01*
X1048942D01*
Y708330D01*
X1048959D01*
Y708381D01*
X1048976D01*
Y708416D01*
X1048993D01*
Y708467D01*
X1049010D01*
Y708502D01*
X1049028D01*
Y708553D01*
X1049045D01*
Y708588D01*
X1049062D01*
Y708622D01*
X1049079D01*
Y708674D01*
X1049096D01*
Y708708D01*
X1049114D01*
Y708743D01*
X1049131D01*
Y708777D01*
X1049148D01*
Y708811D01*
X1049165D01*
Y708846D01*
X1049183D01*
Y708880D01*
X1049200D01*
Y708915D01*
X1049217D01*
Y708932D01*
X1049234D01*
Y708966D01*
X1049251D01*
Y709000D01*
X1049269D01*
Y709035D01*
X1049286D01*
Y709052D01*
X1049303D01*
Y709086D01*
X1049320D01*
Y709121D01*
X1049337D01*
Y709138D01*
X1049354D01*
Y709172D01*
X1049372D01*
Y709190D01*
X1049389D01*
Y709224D01*
X1049406D01*
Y709241D01*
X1049423D01*
Y709276D01*
X1049440D01*
Y709293D01*
X1049458D01*
Y709327D01*
X1049475D01*
Y709344D01*
X1049492D01*
Y709379D01*
X1049509D01*
Y709396D01*
X1049526D01*
Y709413D01*
X1049544D01*
Y709448D01*
X1049561D01*
Y709465D01*
X1049578D01*
Y709482D01*
X1049595D01*
Y709516D01*
X1049612D01*
Y709534D01*
X1049630D01*
Y709551D01*
X1049647D01*
Y709568D01*
X1049664D01*
Y709602D01*
X1049681D01*
Y709620D01*
X1049698D01*
Y709637D01*
X1049716D01*
Y709654D01*
X1049733D01*
Y709671D01*
X1049750D01*
Y709706D01*
X1049767D01*
Y709723D01*
X1049784D01*
Y709740D01*
X1049802D01*
Y709757D01*
X1049819D01*
Y709774D01*
X1049836D01*
Y709792D01*
X1049853D01*
Y709809D01*
X1049870D01*
Y709826D01*
X1049888D01*
Y709843D01*
X1049905D01*
Y709860D01*
X1049922D01*
Y709878D01*
X1049939D01*
Y709912D01*
X1049956D01*
Y709929D01*
X1049974D01*
Y709946D01*
X1049991D01*
Y709964D01*
X1050008D01*
Y709981D01*
X1050025D01*
Y709998D01*
X1050060D01*
Y710015D01*
X1050077D01*
Y710032D01*
X1050094D01*
Y710050D01*
X1050111D01*
Y710067D01*
X1050128D01*
Y710084D01*
X1050146D01*
Y710101D01*
X1050163D01*
Y710118D01*
X1050180D01*
Y710136D01*
X1050197D01*
Y710153D01*
X1050214D01*
Y710170D01*
X1050249D01*
Y710187D01*
X1050266D01*
Y710204D01*
X1050283D01*
Y710222D01*
X1050300D01*
Y710239D01*
X1050318D01*
Y710256D01*
X1050352D01*
Y710273D01*
X1050369D01*
Y710290D01*
X1050386D01*
Y710308D01*
X1050404D01*
Y710325D01*
X1050438D01*
Y710342D01*
X1050455D01*
Y710359D01*
X1050472D01*
Y710376D01*
X1050507D01*
Y710394D01*
X1050524D01*
Y710411D01*
X1050541D01*
Y710428D01*
X1050576D01*
Y710445D01*
X1050593D01*
Y710462D01*
X1050627D01*
Y710480D01*
X1050644D01*
Y710497D01*
X1050679D01*
Y710514D01*
X1050696D01*
Y710531D01*
X1050730D01*
Y710548D01*
X1050765D01*
Y710566D01*
X1050782D01*
Y710583D01*
X1050816D01*
Y710600D01*
X1050851D01*
Y710617D01*
X1050868D01*
Y710634D01*
X1050902D01*
Y710652D01*
X1050937D01*
Y710669D01*
X1050971D01*
Y710686D01*
X1051006D01*
Y710703D01*
X1051040D01*
Y710720D01*
X1051074D01*
Y710738D01*
X1051109D01*
Y710755D01*
X1051143D01*
Y710772D01*
X1051178D01*
Y710789D01*
X1051212D01*
Y710806D01*
X1051246D01*
Y710823D01*
X1051298D01*
Y710841D01*
X1051332D01*
Y710858D01*
X1051384D01*
Y710875D01*
X1051418D01*
Y710892D01*
X1051470D01*
Y710910D01*
X1051521D01*
Y710927D01*
X1051573D01*
Y710944D01*
X1051625D01*
Y710961D01*
X1051676D01*
Y710978D01*
X1051745D01*
Y710995D01*
X1051797D01*
Y711013D01*
X1051865D01*
Y711030D01*
X1051952D01*
Y711047D01*
X1052038D01*
Y711064D01*
X1052124D01*
Y711082D01*
X1052244D01*
Y711099D01*
X1052382D01*
Y711116D01*
X1052571D01*
Y711133D01*
X1053155D01*
Y711116D01*
D02*
G37*
G36*
X1066519Y708141D02*
X1066640D01*
Y706335D01*
X1066553D01*
Y706352D01*
X1066399D01*
Y706369D01*
X1066089D01*
Y706352D01*
X1065969D01*
Y706335D01*
X1065900D01*
Y706317D01*
X1065848D01*
Y706300D01*
X1065814D01*
Y706283D01*
X1065762D01*
Y706266D01*
X1065728D01*
Y706249D01*
X1065693D01*
Y706231D01*
X1065676D01*
Y706214D01*
X1065642D01*
Y706197D01*
X1065625D01*
Y706180D01*
X1065590D01*
Y706163D01*
X1065573D01*
Y706145D01*
X1065556D01*
Y706128D01*
X1065539D01*
Y706111D01*
X1065522D01*
Y706094D01*
X1065504D01*
Y706077D01*
X1065487D01*
Y706059D01*
X1065470D01*
Y706042D01*
X1065453D01*
Y706025D01*
X1065436D01*
Y705991D01*
X1065418D01*
Y705973D01*
X1065401D01*
Y705956D01*
X1065384D01*
Y705922D01*
X1065367D01*
Y705905D01*
X1065349D01*
Y705870D01*
X1065332D01*
Y705836D01*
X1065315D01*
Y705801D01*
X1065298D01*
Y705767D01*
X1065281D01*
Y705715D01*
X1065263D01*
Y705681D01*
X1065246D01*
Y705629D01*
X1065229D01*
Y705561D01*
X1065212D01*
Y705492D01*
X1065195D01*
Y705406D01*
X1065178D01*
Y705286D01*
X1065160D01*
Y703634D01*
Y703617D01*
Y702534D01*
X1063475D01*
Y708089D01*
X1065126D01*
Y707263D01*
X1065160D01*
Y707298D01*
X1065178D01*
Y707315D01*
X1065195D01*
Y707349D01*
X1065212D01*
Y707384D01*
X1065229D01*
Y707401D01*
X1065246D01*
Y707435D01*
X1065263D01*
Y707452D01*
X1065281D01*
Y707470D01*
X1065298D01*
Y707504D01*
X1065315D01*
Y707521D01*
X1065332D01*
Y707539D01*
X1065349D01*
Y707573D01*
X1065367D01*
Y707590D01*
X1065384D01*
Y707607D01*
X1065401D01*
Y707624D01*
X1065418D01*
Y707642D01*
X1065436D01*
Y707659D01*
X1065453D01*
Y707676D01*
X1065470D01*
Y707711D01*
X1065487D01*
Y707728D01*
X1065504D01*
Y707745D01*
X1065522D01*
Y707762D01*
X1065539D01*
Y707779D01*
X1065573D01*
Y707796D01*
X1065590D01*
Y707814D01*
X1065607D01*
Y707831D01*
X1065625D01*
Y707848D01*
X1065642D01*
Y707865D01*
X1065659D01*
Y707882D01*
X1065693D01*
Y707900D01*
X1065711D01*
Y707917D01*
X1065728D01*
Y707934D01*
X1065762D01*
Y707951D01*
X1065779D01*
Y707969D01*
X1065814D01*
Y707986D01*
X1065831D01*
Y708003D01*
X1065866D01*
Y708020D01*
X1065900D01*
Y708037D01*
X1065917D01*
Y708054D01*
X1065952D01*
Y708072D01*
X1065986D01*
Y708089D01*
X1066037D01*
Y708106D01*
X1066072D01*
Y708123D01*
X1066141D01*
Y708141D01*
X1066210D01*
Y708158D01*
X1066519D01*
Y708141D01*
D02*
G37*
G36*
X1069426Y702534D02*
X1067775D01*
Y708089D01*
X1069426D01*
Y702534D01*
D02*
G37*
G36*
X1058780Y708175D02*
X1058917D01*
Y708158D01*
X1059003D01*
Y708141D01*
X1059089D01*
Y708123D01*
X1059141D01*
Y708106D01*
X1059192D01*
Y708089D01*
X1059244D01*
Y708072D01*
X1059278D01*
Y708054D01*
X1059330D01*
Y708037D01*
X1059364D01*
Y708020D01*
X1059399D01*
Y708003D01*
X1059433D01*
Y707986D01*
X1059468D01*
Y707969D01*
X1059485D01*
Y707951D01*
X1059519D01*
Y707934D01*
X1059554D01*
Y707917D01*
X1059571D01*
Y707900D01*
X1059605D01*
Y707882D01*
X1059622D01*
Y707865D01*
X1059657D01*
Y707848D01*
X1059674D01*
Y707831D01*
X1059708D01*
Y707814D01*
X1059725D01*
Y707796D01*
X1059743D01*
Y707779D01*
X1059777D01*
Y707762D01*
X1059794D01*
Y707745D01*
X1059811D01*
Y707728D01*
X1059829D01*
Y707711D01*
X1059863D01*
Y707693D01*
X1059880D01*
Y707676D01*
X1059898D01*
Y707659D01*
X1059915D01*
Y707642D01*
X1059932D01*
Y707624D01*
X1059949D01*
Y707607D01*
X1059966D01*
Y707590D01*
X1060001D01*
Y707573D01*
X1060018D01*
Y707556D01*
X1060035D01*
Y707539D01*
X1060052D01*
Y707521D01*
X1060069D01*
Y707504D01*
X1060087D01*
Y707487D01*
X1060104D01*
Y707470D01*
X1060121D01*
Y707452D01*
X1060138D01*
Y707435D01*
X1060155D01*
Y707418D01*
X1060173D01*
Y707401D01*
X1060190D01*
Y707384D01*
X1060207D01*
Y707367D01*
X1060224D01*
Y707349D01*
X1060241D01*
Y707332D01*
X1060259D01*
Y708089D01*
X1061910D01*
Y703050D01*
Y703032D01*
Y702534D01*
X1060259D01*
Y703480D01*
X1060224D01*
Y703462D01*
X1060207D01*
Y703428D01*
X1060190D01*
Y703411D01*
X1060173D01*
Y703376D01*
X1060155D01*
Y703359D01*
X1060138D01*
Y703342D01*
X1060121D01*
Y703308D01*
X1060104D01*
Y703290D01*
X1060087D01*
Y703273D01*
X1060069D01*
Y703256D01*
X1060052D01*
Y703222D01*
X1060035D01*
Y703204D01*
X1060018D01*
Y703187D01*
X1060001D01*
Y703170D01*
X1059983D01*
Y703153D01*
X1059966D01*
Y703118D01*
X1059949D01*
Y703101D01*
X1059932D01*
Y703084D01*
X1059915D01*
Y703067D01*
X1059898D01*
Y703050D01*
X1059880D01*
Y703032D01*
X1059863D01*
Y703015D01*
X1059846D01*
Y702998D01*
X1059829D01*
Y702981D01*
X1059811D01*
Y702964D01*
X1059794D01*
Y702946D01*
X1059777D01*
Y702929D01*
X1059760D01*
Y702912D01*
X1059743D01*
Y702895D01*
X1059725D01*
Y702878D01*
X1059708D01*
Y702860D01*
X1059691D01*
Y702843D01*
X1059657D01*
Y702826D01*
X1059639D01*
Y702809D01*
X1059622D01*
Y702792D01*
X1059605D01*
Y702774D01*
X1059571D01*
Y702757D01*
X1059554D01*
Y702740D01*
X1059536D01*
Y702723D01*
X1059502D01*
Y702706D01*
X1059485D01*
Y702688D01*
X1059450D01*
Y702671D01*
X1059433D01*
Y702654D01*
X1059399D01*
Y702637D01*
X1059364D01*
Y702620D01*
X1059330D01*
Y702602D01*
X1059295D01*
Y702585D01*
X1059261D01*
Y702568D01*
X1059227D01*
Y702551D01*
X1059175D01*
Y702534D01*
X1059124D01*
Y702516D01*
X1059072D01*
Y702499D01*
X1059003D01*
Y702482D01*
X1058934D01*
Y702465D01*
X1058831D01*
Y702448D01*
X1058694D01*
Y702430D01*
X1058263D01*
Y702448D01*
X1058126D01*
Y702465D01*
X1058040D01*
Y702482D01*
X1057971D01*
Y702499D01*
X1057902D01*
Y702516D01*
X1057851D01*
Y702534D01*
X1057799D01*
Y702551D01*
X1057748D01*
Y702568D01*
X1057696D01*
Y702585D01*
X1057662D01*
Y702602D01*
X1057627D01*
Y702620D01*
X1057593D01*
Y702637D01*
X1057558D01*
Y702654D01*
X1057524D01*
Y702671D01*
X1057490D01*
Y702688D01*
X1057455D01*
Y702706D01*
X1057438D01*
Y702723D01*
X1057404D01*
Y702740D01*
X1057369D01*
Y702757D01*
X1057352D01*
Y702774D01*
X1057335D01*
Y702792D01*
X1057300D01*
Y702809D01*
X1057283D01*
Y702826D01*
X1057249D01*
Y702843D01*
X1057232D01*
Y702860D01*
X1057214D01*
Y702878D01*
X1057197D01*
Y702895D01*
X1057163D01*
Y702912D01*
X1057146D01*
Y702929D01*
X1057128D01*
Y702946D01*
X1057111D01*
Y702964D01*
X1057094D01*
Y702981D01*
X1057077D01*
Y702998D01*
X1057060D01*
Y703015D01*
X1057042D01*
Y703032D01*
X1057008D01*
Y703050D01*
X1056991D01*
Y703067D01*
X1056974D01*
Y703101D01*
X1056956D01*
Y703118D01*
X1056939D01*
Y703136D01*
X1056922D01*
Y703153D01*
X1056905D01*
Y703170D01*
X1056888D01*
Y703187D01*
X1056870D01*
Y703204D01*
X1056853D01*
Y703222D01*
X1056836D01*
Y703256D01*
X1056819D01*
Y703273D01*
X1056802D01*
Y703290D01*
X1056784D01*
Y703308D01*
X1056767D01*
Y703342D01*
X1056750D01*
Y703359D01*
X1056733D01*
Y703376D01*
X1056716D01*
Y703411D01*
X1056698D01*
Y703428D01*
X1056681D01*
Y703445D01*
X1056664D01*
Y703480D01*
X1056647D01*
Y703497D01*
X1056630D01*
Y703531D01*
X1056612D01*
Y703548D01*
X1056595D01*
Y703583D01*
X1056578D01*
Y703617D01*
X1056561D01*
Y703634D01*
X1056544D01*
Y703669D01*
X1056526D01*
Y703703D01*
X1056509D01*
Y703738D01*
X1056492D01*
Y703772D01*
X1056475D01*
Y703789D01*
X1056458D01*
Y703824D01*
X1056441D01*
Y703858D01*
X1056423D01*
Y703910D01*
X1056406D01*
Y703944D01*
X1056389D01*
Y703978D01*
X1056372D01*
Y704030D01*
X1056354D01*
Y704064D01*
X1056337D01*
Y704116D01*
X1056320D01*
Y704150D01*
X1056303D01*
Y704202D01*
X1056286D01*
Y704253D01*
X1056269D01*
Y704322D01*
X1056251D01*
Y704374D01*
X1056234D01*
Y704443D01*
X1056217D01*
Y704529D01*
X1056200D01*
Y704615D01*
X1056182D01*
Y704701D01*
X1056165D01*
Y704838D01*
X1056148D01*
Y705010D01*
X1056131D01*
Y705595D01*
X1056148D01*
Y705767D01*
X1056165D01*
Y705887D01*
X1056182D01*
Y705973D01*
X1056200D01*
Y706059D01*
X1056217D01*
Y706128D01*
X1056234D01*
Y706197D01*
X1056251D01*
Y706266D01*
X1056269D01*
Y706317D01*
X1056286D01*
Y706369D01*
X1056303D01*
Y706421D01*
X1056320D01*
Y706472D01*
X1056337D01*
Y706507D01*
X1056354D01*
Y706558D01*
X1056372D01*
Y706593D01*
X1056389D01*
Y706627D01*
X1056406D01*
Y706661D01*
X1056423D01*
Y706696D01*
X1056441D01*
Y706730D01*
X1056458D01*
Y706765D01*
X1056475D01*
Y706799D01*
X1056492D01*
Y706833D01*
X1056509D01*
Y706868D01*
X1056526D01*
Y706902D01*
X1056544D01*
Y706919D01*
X1056561D01*
Y706954D01*
X1056578D01*
Y706988D01*
X1056595D01*
Y707005D01*
X1056612D01*
Y707040D01*
X1056630D01*
Y707057D01*
X1056647D01*
Y707091D01*
X1056664D01*
Y707109D01*
X1056681D01*
Y707126D01*
X1056698D01*
Y707160D01*
X1056716D01*
Y707177D01*
X1056733D01*
Y707212D01*
X1056750D01*
Y707229D01*
X1056767D01*
Y707246D01*
X1056784D01*
Y707263D01*
X1056802D01*
Y707298D01*
X1056819D01*
Y707315D01*
X1056836D01*
Y707332D01*
X1056853D01*
Y707349D01*
X1056870D01*
Y707367D01*
X1056888D01*
Y707384D01*
X1056905D01*
Y707418D01*
X1056922D01*
Y707435D01*
X1056939D01*
Y707452D01*
X1056956D01*
Y707470D01*
X1056974D01*
Y707487D01*
X1056991D01*
Y707504D01*
X1057008D01*
Y707521D01*
X1057025D01*
Y707539D01*
X1057042D01*
Y707556D01*
X1057060D01*
Y707573D01*
X1057077D01*
Y707590D01*
X1057094D01*
Y707607D01*
X1057111D01*
Y707624D01*
X1057146D01*
Y707642D01*
X1057163D01*
Y707659D01*
X1057180D01*
Y707676D01*
X1057197D01*
Y707693D01*
X1057214D01*
Y707711D01*
X1057249D01*
Y707728D01*
X1057266D01*
Y707745D01*
X1057283D01*
Y707762D01*
X1057300D01*
Y707779D01*
X1057335D01*
Y707796D01*
X1057352D01*
Y707814D01*
X1057386D01*
Y707831D01*
X1057404D01*
Y707848D01*
X1057438D01*
Y707865D01*
X1057455D01*
Y707882D01*
X1057490D01*
Y707900D01*
X1057524D01*
Y707917D01*
X1057541D01*
Y707934D01*
X1057576D01*
Y707951D01*
X1057610D01*
Y707969D01*
X1057644D01*
Y707986D01*
X1057679D01*
Y708003D01*
X1057713D01*
Y708020D01*
X1057765D01*
Y708037D01*
X1057799D01*
Y708054D01*
X1057851D01*
Y708072D01*
X1057885D01*
Y708089D01*
X1057937D01*
Y708106D01*
X1058006D01*
Y708123D01*
X1058074D01*
Y708141D01*
X1058143D01*
Y708158D01*
X1058246D01*
Y708175D01*
X1058384D01*
Y708192D01*
X1058780D01*
Y708175D01*
D02*
G37*
G36*
X1072797Y707349D02*
X1072814D01*
Y707367D01*
X1072831D01*
Y707401D01*
X1072848D01*
Y707418D01*
X1072865D01*
Y707435D01*
X1072883D01*
Y707452D01*
X1072900D01*
Y707470D01*
X1072917D01*
Y707487D01*
X1072934D01*
Y707504D01*
X1072952D01*
Y707521D01*
X1072969D01*
Y707539D01*
X1072986D01*
Y707556D01*
X1073003D01*
Y707573D01*
X1073020D01*
Y707590D01*
X1073038D01*
Y707607D01*
X1073055D01*
Y707624D01*
X1073072D01*
Y707642D01*
X1073089D01*
Y707659D01*
X1073123D01*
Y707676D01*
X1073141D01*
Y707693D01*
X1073158D01*
Y707711D01*
X1073175D01*
Y707728D01*
X1073192D01*
Y707745D01*
X1073227D01*
Y707762D01*
X1073244D01*
Y707779D01*
X1073261D01*
Y707796D01*
X1073295D01*
Y707814D01*
X1073313D01*
Y707831D01*
X1073347D01*
Y707848D01*
X1073364D01*
Y707865D01*
X1073399D01*
Y707882D01*
X1073416D01*
Y707900D01*
X1073450D01*
Y707917D01*
X1073485D01*
Y707934D01*
X1073502D01*
Y707951D01*
X1073536D01*
Y707969D01*
X1073571D01*
Y707986D01*
X1073605D01*
Y708003D01*
X1073639D01*
Y708020D01*
X1073674D01*
Y708037D01*
X1073725D01*
Y708054D01*
X1073760D01*
Y708072D01*
X1073811D01*
Y708089D01*
X1073863D01*
Y708106D01*
X1073915D01*
Y708123D01*
X1073983D01*
Y708141D01*
X1074052D01*
Y708158D01*
X1074138D01*
Y708175D01*
X1074276D01*
Y708192D01*
X1074671D01*
Y708175D01*
X1074809D01*
Y708158D01*
X1074912D01*
Y708141D01*
X1074981D01*
Y708123D01*
X1075050D01*
Y708106D01*
X1075101D01*
Y708089D01*
X1075153D01*
Y708072D01*
X1075205D01*
Y708054D01*
X1075256D01*
Y708037D01*
X1075291D01*
Y708020D01*
X1075325D01*
Y708003D01*
X1075359D01*
Y707986D01*
X1075394D01*
Y707969D01*
X1075428D01*
Y707951D01*
X1075463D01*
Y707934D01*
X1075497D01*
Y707917D01*
X1075531D01*
Y707900D01*
X1075548D01*
Y707882D01*
X1075583D01*
Y707865D01*
X1075617D01*
Y707848D01*
X1075634D01*
Y707831D01*
X1075669D01*
Y707814D01*
X1075686D01*
Y707796D01*
X1075703D01*
Y707779D01*
X1075738D01*
Y707762D01*
X1075755D01*
Y707745D01*
X1075772D01*
Y707728D01*
X1075807D01*
Y707711D01*
X1075824D01*
Y707693D01*
X1075841D01*
Y707676D01*
X1075858D01*
Y707659D01*
X1075875D01*
Y707642D01*
X1075910D01*
Y707624D01*
X1075927D01*
Y707607D01*
X1075944D01*
Y707590D01*
X1075961D01*
Y707573D01*
X1075978D01*
Y707556D01*
X1075996D01*
Y707539D01*
X1076013D01*
Y707521D01*
X1076030D01*
Y707504D01*
X1076047D01*
Y707487D01*
X1076064D01*
Y707470D01*
X1076082D01*
Y707452D01*
X1076099D01*
Y707435D01*
X1076116D01*
Y707418D01*
X1076133D01*
Y707401D01*
X1076151D01*
Y707367D01*
X1076168D01*
Y707349D01*
X1076185D01*
Y707332D01*
X1076202D01*
Y707315D01*
X1076219D01*
Y707298D01*
X1076237D01*
Y707263D01*
X1076254D01*
Y707246D01*
X1076271D01*
Y707229D01*
X1076288D01*
Y707212D01*
X1076305D01*
Y707177D01*
X1076322D01*
Y707160D01*
X1076340D01*
Y707126D01*
X1076357D01*
Y707109D01*
X1076374D01*
Y707091D01*
X1076391D01*
Y707057D01*
X1076408D01*
Y707040D01*
X1076426D01*
Y707005D01*
X1076443D01*
Y706988D01*
X1076460D01*
Y706954D01*
X1076477D01*
Y706919D01*
X1076495D01*
Y706902D01*
X1076512D01*
Y706868D01*
X1076529D01*
Y706833D01*
X1076546D01*
Y706799D01*
X1076563D01*
Y706765D01*
X1076581D01*
Y706730D01*
X1076598D01*
Y706696D01*
X1076615D01*
Y706661D01*
X1076632D01*
Y706627D01*
X1076649D01*
Y706593D01*
X1076667D01*
Y706541D01*
X1076684D01*
Y706507D01*
X1076701D01*
Y706455D01*
X1076718D01*
Y706421D01*
X1076735D01*
Y706369D01*
X1076752D01*
Y706317D01*
X1076770D01*
Y706266D01*
X1076787D01*
Y706197D01*
X1076804D01*
Y706128D01*
X1076821D01*
Y706059D01*
X1076838D01*
Y705991D01*
X1076856D01*
Y705887D01*
X1076873D01*
Y705784D01*
X1076890D01*
Y705647D01*
X1076907D01*
Y704924D01*
X1076890D01*
Y704770D01*
X1076873D01*
Y704666D01*
X1076856D01*
Y704580D01*
X1076838D01*
Y704511D01*
X1076821D01*
Y704443D01*
X1076804D01*
Y704374D01*
X1076787D01*
Y704322D01*
X1076770D01*
Y704271D01*
X1076752D01*
Y704219D01*
X1076735D01*
Y704168D01*
X1076718D01*
Y704116D01*
X1076701D01*
Y704081D01*
X1076684D01*
Y704047D01*
X1076667D01*
Y703996D01*
X1076649D01*
Y703961D01*
X1076632D01*
Y703927D01*
X1076615D01*
Y703892D01*
X1076598D01*
Y703858D01*
X1076581D01*
Y703824D01*
X1076563D01*
Y703789D01*
X1076546D01*
Y703755D01*
X1076529D01*
Y703738D01*
X1076512D01*
Y703703D01*
X1076495D01*
Y703669D01*
X1076477D01*
Y703652D01*
X1076460D01*
Y703617D01*
X1076443D01*
Y703583D01*
X1076426D01*
Y703566D01*
X1076408D01*
Y703531D01*
X1076391D01*
Y703514D01*
X1076374D01*
Y703497D01*
X1076357D01*
Y703462D01*
X1076340D01*
Y703445D01*
X1076322D01*
Y703411D01*
X1076305D01*
Y703394D01*
X1076288D01*
Y703376D01*
X1076271D01*
Y703359D01*
X1076254D01*
Y703325D01*
X1076237D01*
Y703308D01*
X1076219D01*
Y703290D01*
X1076202D01*
Y703273D01*
X1076185D01*
Y703256D01*
X1076168D01*
Y703222D01*
X1076151D01*
Y703204D01*
X1076133D01*
Y703187D01*
X1076116D01*
Y703170D01*
X1076099D01*
Y703153D01*
X1076082D01*
Y703136D01*
X1076064D01*
Y703118D01*
X1076047D01*
Y703101D01*
X1076030D01*
Y703084D01*
X1076013D01*
Y703067D01*
X1075996D01*
Y703050D01*
X1075978D01*
Y703032D01*
X1075961D01*
Y703015D01*
X1075944D01*
Y702998D01*
X1075927D01*
Y702981D01*
X1075910D01*
Y702964D01*
X1075893D01*
Y702946D01*
X1075858D01*
Y702929D01*
X1075841D01*
Y702912D01*
X1075824D01*
Y702895D01*
X1075807D01*
Y702878D01*
X1075789D01*
Y702860D01*
X1075755D01*
Y702843D01*
X1075738D01*
Y702826D01*
X1075721D01*
Y702809D01*
X1075686D01*
Y702792D01*
X1075669D01*
Y702774D01*
X1075634D01*
Y702757D01*
X1075617D01*
Y702740D01*
X1075583D01*
Y702723D01*
X1075566D01*
Y702706D01*
X1075531D01*
Y702688D01*
X1075497D01*
Y702671D01*
X1075463D01*
Y702654D01*
X1075428D01*
Y702637D01*
X1075394D01*
Y702620D01*
X1075359D01*
Y702602D01*
X1075325D01*
Y702585D01*
X1075291D01*
Y702568D01*
X1075239D01*
Y702551D01*
X1075205D01*
Y702534D01*
X1075153D01*
Y702516D01*
X1075101D01*
Y702499D01*
X1075033D01*
Y702482D01*
X1074964D01*
Y702465D01*
X1074861D01*
Y702448D01*
X1074723D01*
Y702430D01*
X1074345D01*
Y702448D01*
X1074224D01*
Y702465D01*
X1074138D01*
Y702482D01*
X1074069D01*
Y702499D01*
X1074001D01*
Y702516D01*
X1073949D01*
Y702534D01*
X1073897D01*
Y702551D01*
X1073863D01*
Y702568D01*
X1073829D01*
Y702585D01*
X1073794D01*
Y702602D01*
X1073760D01*
Y702620D01*
X1073725D01*
Y702637D01*
X1073691D01*
Y702654D01*
X1073657D01*
Y702671D01*
X1073622D01*
Y702688D01*
X1073605D01*
Y702706D01*
X1073571D01*
Y702723D01*
X1073553D01*
Y702740D01*
X1073519D01*
Y702757D01*
X1073502D01*
Y702774D01*
X1073468D01*
Y702792D01*
X1073450D01*
Y702809D01*
X1073416D01*
Y702826D01*
X1073399D01*
Y702843D01*
X1073382D01*
Y702860D01*
X1073364D01*
Y702878D01*
X1073330D01*
Y702895D01*
X1073313D01*
Y702912D01*
X1073295D01*
Y702929D01*
X1073278D01*
Y702946D01*
X1073244D01*
Y702964D01*
X1073227D01*
Y702981D01*
X1073209D01*
Y702998D01*
X1073192D01*
Y703015D01*
X1073175D01*
Y703032D01*
X1073158D01*
Y703050D01*
X1073141D01*
Y703067D01*
X1073123D01*
Y703084D01*
X1073106D01*
Y703101D01*
X1073089D01*
Y703118D01*
X1073055D01*
Y703136D01*
X1073038D01*
Y703153D01*
X1073020D01*
Y703170D01*
X1073003D01*
Y703187D01*
X1072986D01*
Y703204D01*
X1072969D01*
Y703222D01*
X1072952D01*
Y703239D01*
X1072934D01*
Y703256D01*
X1072917D01*
Y703273D01*
X1072900D01*
Y703308D01*
X1072883D01*
Y703325D01*
X1072865D01*
Y703342D01*
X1072848D01*
Y703359D01*
X1072831D01*
Y703376D01*
X1072814D01*
Y703394D01*
X1072797D01*
Y703411D01*
X1072779D01*
Y702534D01*
X1071128D01*
Y711150D01*
X1072797D01*
Y707349D01*
D02*
G37*
G36*
X1089635Y714848D02*
X1089721D01*
Y714831D01*
X1089789D01*
Y714814D01*
X1089841D01*
Y714796D01*
X1089892D01*
Y714779D01*
X1089944D01*
Y714762D01*
X1089979D01*
Y714745D01*
X1090030D01*
Y714728D01*
X1090065D01*
Y714711D01*
X1090099D01*
Y714693D01*
X1090133D01*
Y714676D01*
X1090168D01*
Y714659D01*
X1090202D01*
Y714642D01*
X1090219D01*
Y714625D01*
X1090254D01*
Y714607D01*
X1090288D01*
Y714590D01*
X1090305D01*
Y714573D01*
X1090340D01*
Y714556D01*
X1090357D01*
Y714538D01*
X1090391D01*
Y714521D01*
X1090409D01*
Y714504D01*
X1090443D01*
Y714487D01*
X1090460D01*
Y714470D01*
X1090495D01*
Y714453D01*
X1090512D01*
Y714435D01*
X1090529D01*
Y714418D01*
X1090563D01*
Y714401D01*
X1090580D01*
Y714384D01*
X1090598D01*
Y714366D01*
X1090632D01*
Y714332D01*
X1090598D01*
Y714315D01*
X1090580D01*
Y714298D01*
X1090563D01*
Y714281D01*
X1090546D01*
Y714263D01*
X1090529D01*
Y714246D01*
X1090495D01*
Y714229D01*
X1090477D01*
Y714212D01*
X1090460D01*
Y714194D01*
X1090443D01*
Y714177D01*
X1090426D01*
Y714160D01*
X1090391D01*
Y714143D01*
X1090374D01*
Y714126D01*
X1090357D01*
Y714109D01*
X1090340D01*
Y714091D01*
X1090322D01*
Y714074D01*
X1090288D01*
Y714057D01*
X1090271D01*
Y714040D01*
X1090254D01*
Y714023D01*
X1090236D01*
Y714005D01*
X1090219D01*
Y713988D01*
X1090185D01*
Y713971D01*
X1090168D01*
Y713954D01*
X1090151D01*
Y713937D01*
X1090133D01*
Y713919D01*
X1090099D01*
Y713937D01*
X1090065D01*
Y713954D01*
X1090047D01*
Y713971D01*
X1090013D01*
Y713988D01*
X1089996D01*
Y714005D01*
X1089961D01*
Y714023D01*
X1089927D01*
Y714040D01*
X1089910D01*
Y714057D01*
X1089875D01*
Y714074D01*
X1089841D01*
Y714091D01*
X1089806D01*
Y714109D01*
X1089772D01*
Y714126D01*
X1089738D01*
Y714143D01*
X1089686D01*
Y714160D01*
X1089635D01*
Y714177D01*
X1089514D01*
Y714194D01*
X1089308D01*
Y714177D01*
X1089205D01*
Y714160D01*
X1089153D01*
Y714143D01*
X1089118D01*
Y714126D01*
X1089084D01*
Y714109D01*
X1089050D01*
Y714091D01*
X1089033D01*
Y714074D01*
X1089015D01*
Y714057D01*
X1088998D01*
Y714023D01*
X1088981D01*
Y713988D01*
X1088964D01*
Y713919D01*
X1088947D01*
Y713833D01*
X1088964D01*
Y713782D01*
X1088981D01*
Y713747D01*
X1088998D01*
Y713730D01*
X1089015D01*
Y713696D01*
X1089033D01*
Y713679D01*
X1089050D01*
Y713661D01*
X1089084D01*
Y713644D01*
X1089101D01*
Y713627D01*
X1089118D01*
Y713610D01*
X1089153D01*
Y713593D01*
X1089170D01*
Y713575D01*
X1089205D01*
Y713558D01*
X1089239D01*
Y713541D01*
X1089273D01*
Y713524D01*
X1089308D01*
Y713507D01*
X1089342D01*
Y713489D01*
X1089377D01*
Y713472D01*
X1089411D01*
Y713455D01*
X1089462D01*
Y713438D01*
X1089497D01*
Y713421D01*
X1089548D01*
Y713403D01*
X1089600D01*
Y713386D01*
X1089635D01*
Y713369D01*
X1089686D01*
Y713352D01*
X1089721D01*
Y713335D01*
X1089772D01*
Y713317D01*
X1089806D01*
Y713300D01*
X1089841D01*
Y713283D01*
X1089875D01*
Y713266D01*
X1089910D01*
Y713249D01*
X1089944D01*
Y713231D01*
X1089979D01*
Y713214D01*
X1090013D01*
Y713197D01*
X1090047D01*
Y713180D01*
X1090082D01*
Y713163D01*
X1090116D01*
Y713145D01*
X1090133D01*
Y713128D01*
X1090168D01*
Y713111D01*
X1090185D01*
Y713094D01*
X1090219D01*
Y713077D01*
X1090236D01*
Y713059D01*
X1090271D01*
Y713042D01*
X1090288D01*
Y713025D01*
X1090305D01*
Y713008D01*
X1090322D01*
Y712991D01*
X1090357D01*
Y712973D01*
X1090374D01*
Y712956D01*
X1090391D01*
Y712939D01*
X1090409D01*
Y712922D01*
X1090426D01*
Y712905D01*
X1090443D01*
Y712887D01*
X1090460D01*
Y712853D01*
X1090477D01*
Y712836D01*
X1090495D01*
Y712819D01*
X1090512D01*
Y712784D01*
X1090529D01*
Y712767D01*
X1090546D01*
Y712733D01*
X1090563D01*
Y712698D01*
X1090580D01*
Y712664D01*
X1090598D01*
Y712629D01*
X1090615D01*
Y712578D01*
X1090632D01*
Y712526D01*
X1090649D01*
Y712457D01*
X1090666D01*
Y712114D01*
X1090649D01*
Y712028D01*
X1090632D01*
Y711976D01*
X1090615D01*
Y711924D01*
X1090598D01*
Y711890D01*
X1090580D01*
Y711856D01*
X1090563D01*
Y711821D01*
X1090546D01*
Y711787D01*
X1090529D01*
Y711769D01*
X1090512D01*
Y711735D01*
X1090495D01*
Y711718D01*
X1090477D01*
Y711701D01*
X1090460D01*
Y711666D01*
X1090443D01*
Y711649D01*
X1090426D01*
Y711632D01*
X1090409D01*
Y711615D01*
X1090391D01*
Y711597D01*
X1090374D01*
Y711580D01*
X1090357D01*
Y711563D01*
X1090340D01*
Y711546D01*
X1090322D01*
Y711529D01*
X1090305D01*
Y711512D01*
X1090288D01*
Y711494D01*
X1090271D01*
Y711477D01*
X1090236D01*
Y711460D01*
X1090219D01*
Y711443D01*
X1090202D01*
Y711425D01*
X1090168D01*
Y711408D01*
X1090151D01*
Y711391D01*
X1090116D01*
Y711374D01*
X1090099D01*
Y711357D01*
X1090065D01*
Y711340D01*
X1090030D01*
Y711322D01*
X1089996D01*
Y711305D01*
X1089961D01*
Y711288D01*
X1089927D01*
Y711271D01*
X1089875D01*
Y711253D01*
X1089824D01*
Y711236D01*
X1089772D01*
Y711219D01*
X1089703D01*
Y711202D01*
X1089600D01*
Y711185D01*
X1089205D01*
Y711202D01*
X1089084D01*
Y711219D01*
X1089015D01*
Y711236D01*
X1088947D01*
Y711253D01*
X1088895D01*
Y711271D01*
X1088861D01*
Y711288D01*
X1088809D01*
Y711305D01*
X1088775D01*
Y711322D01*
X1088740D01*
Y711340D01*
X1088706D01*
Y711357D01*
X1088671D01*
Y711374D01*
X1088637D01*
Y711391D01*
X1088603D01*
Y711408D01*
X1088585D01*
Y711425D01*
X1088551D01*
Y711443D01*
X1088534D01*
Y711460D01*
X1088517D01*
Y711477D01*
X1088482D01*
Y711494D01*
X1088465D01*
Y711512D01*
X1088448D01*
Y711529D01*
X1088431D01*
Y711546D01*
X1088396D01*
Y711563D01*
X1088379D01*
Y711580D01*
X1088362D01*
Y711597D01*
X1088345D01*
Y711615D01*
X1088327D01*
Y711632D01*
X1088310D01*
Y711649D01*
X1088293D01*
Y711666D01*
X1088276D01*
Y711684D01*
X1088259D01*
Y711701D01*
X1088241D01*
Y711735D01*
X1088224D01*
Y711752D01*
X1088207D01*
Y711769D01*
X1088190D01*
Y711787D01*
X1088173D01*
Y711804D01*
X1088155D01*
Y711838D01*
X1088138D01*
Y711856D01*
X1088121D01*
Y711873D01*
X1088138D01*
Y711890D01*
X1088173D01*
Y711907D01*
X1088224D01*
Y711924D01*
X1088259D01*
Y711941D01*
X1088293D01*
Y711959D01*
X1088327D01*
Y711976D01*
X1088362D01*
Y711993D01*
X1088413D01*
Y712010D01*
X1088448D01*
Y712028D01*
X1088482D01*
Y712045D01*
X1088517D01*
Y712062D01*
X1088551D01*
Y712079D01*
X1088585D01*
Y712096D01*
X1088637D01*
Y712114D01*
X1088671D01*
Y712131D01*
X1088706D01*
Y712148D01*
X1088740D01*
Y712131D01*
X1088775D01*
Y712114D01*
X1088792D01*
Y712096D01*
X1088809D01*
Y712079D01*
X1088826D01*
Y712062D01*
X1088861D01*
Y712045D01*
X1088878D01*
Y712028D01*
X1088912D01*
Y712010D01*
X1088929D01*
Y711993D01*
X1088964D01*
Y711976D01*
X1088998D01*
Y711959D01*
X1089033D01*
Y711941D01*
X1089067D01*
Y711924D01*
X1089101D01*
Y711907D01*
X1089153D01*
Y711890D01*
X1089205D01*
Y711873D01*
X1089308D01*
Y711856D01*
X1089497D01*
Y711873D01*
X1089600D01*
Y711890D01*
X1089652D01*
Y711907D01*
X1089703D01*
Y711924D01*
X1089738D01*
Y711941D01*
X1089772D01*
Y711959D01*
X1089789D01*
Y711976D01*
X1089824D01*
Y711993D01*
X1089841D01*
Y712010D01*
X1089875D01*
Y712028D01*
X1089892D01*
Y712045D01*
X1089910D01*
Y712062D01*
X1089927D01*
Y712096D01*
X1089944D01*
Y712114D01*
X1089961D01*
Y712148D01*
X1089979D01*
Y712182D01*
X1089996D01*
Y712354D01*
X1089979D01*
Y712389D01*
X1089961D01*
Y712423D01*
X1089944D01*
Y712440D01*
X1089927D01*
Y712475D01*
X1089910D01*
Y712492D01*
X1089892D01*
Y712509D01*
X1089875D01*
Y712526D01*
X1089858D01*
Y712543D01*
X1089824D01*
Y712561D01*
X1089806D01*
Y712578D01*
X1089789D01*
Y712595D01*
X1089755D01*
Y712612D01*
X1089738D01*
Y712629D01*
X1089703D01*
Y712647D01*
X1089669D01*
Y712664D01*
X1089635D01*
Y712681D01*
X1089600D01*
Y712698D01*
X1089566D01*
Y712715D01*
X1089531D01*
Y712733D01*
X1089497D01*
Y712750D01*
X1089445D01*
Y712767D01*
X1089411D01*
Y712784D01*
X1089359D01*
Y712801D01*
X1089308D01*
Y712819D01*
X1089273D01*
Y712836D01*
X1089222D01*
Y712853D01*
X1089170D01*
Y712870D01*
X1089136D01*
Y712887D01*
X1089101D01*
Y712905D01*
X1089050D01*
Y712922D01*
X1089015D01*
Y712939D01*
X1088981D01*
Y712956D01*
X1088947D01*
Y712973D01*
X1088912D01*
Y712991D01*
X1088878D01*
Y713008D01*
X1088843D01*
Y713025D01*
X1088809D01*
Y713042D01*
X1088775D01*
Y713059D01*
X1088757D01*
Y713077D01*
X1088723D01*
Y713094D01*
X1088689D01*
Y713111D01*
X1088671D01*
Y713128D01*
X1088637D01*
Y713145D01*
X1088620D01*
Y713163D01*
X1088603D01*
Y713180D01*
X1088568D01*
Y713197D01*
X1088551D01*
Y713214D01*
X1088534D01*
Y713231D01*
X1088517D01*
Y713249D01*
X1088499D01*
Y713266D01*
X1088482D01*
Y713283D01*
X1088465D01*
Y713300D01*
X1088448D01*
Y713317D01*
X1088431D01*
Y713335D01*
X1088413D01*
Y713352D01*
X1088396D01*
Y713386D01*
X1088379D01*
Y713403D01*
X1088362D01*
Y713438D01*
X1088345D01*
Y713472D01*
X1088327D01*
Y713507D01*
X1088310D01*
Y713558D01*
X1088293D01*
Y713610D01*
X1088276D01*
Y713679D01*
X1088259D01*
Y713816D01*
X1088241D01*
Y713902D01*
X1088259D01*
Y714040D01*
X1088276D01*
Y714109D01*
X1088293D01*
Y714160D01*
X1088310D01*
Y714212D01*
X1088327D01*
Y714246D01*
X1088345D01*
Y714281D01*
X1088362D01*
Y714315D01*
X1088379D01*
Y714349D01*
X1088396D01*
Y714366D01*
X1088413D01*
Y714401D01*
X1088431D01*
Y714418D01*
X1088448D01*
Y714435D01*
X1088465D01*
Y714453D01*
X1088482D01*
Y714470D01*
X1088499D01*
Y714504D01*
X1088517D01*
Y714521D01*
X1088551D01*
Y714538D01*
X1088568D01*
Y714556D01*
X1088585D01*
Y714573D01*
X1088603D01*
Y714590D01*
X1088620D01*
Y714607D01*
X1088637D01*
Y714625D01*
X1088671D01*
Y714642D01*
X1088689D01*
Y714659D01*
X1088723D01*
Y714676D01*
X1088740D01*
Y714693D01*
X1088775D01*
Y714711D01*
X1088809D01*
Y714728D01*
X1088843D01*
Y714745D01*
X1088878D01*
Y714762D01*
X1088912D01*
Y714779D01*
X1088964D01*
Y714796D01*
X1089015D01*
Y714814D01*
X1089084D01*
Y714831D01*
X1089153D01*
Y714848D01*
X1089256D01*
Y714865D01*
X1089635D01*
Y714848D01*
D02*
G37*
G36*
X1080227D02*
X1080330D01*
Y714831D01*
X1080416D01*
Y714814D01*
X1080467D01*
Y714796D01*
X1080519D01*
Y714779D01*
X1080571D01*
Y714762D01*
X1080622D01*
Y714745D01*
X1080657D01*
Y714728D01*
X1080708D01*
Y714711D01*
X1080743D01*
Y714693D01*
X1080777D01*
Y714676D01*
X1080811D01*
Y714659D01*
X1080829D01*
Y714642D01*
X1080863D01*
Y714625D01*
X1080897D01*
Y714607D01*
X1080915D01*
Y714590D01*
X1080949D01*
Y714573D01*
X1080966D01*
Y714556D01*
X1081001D01*
Y714538D01*
X1081018D01*
Y714521D01*
X1081035D01*
Y714504D01*
X1081069D01*
Y714487D01*
X1081087D01*
Y714470D01*
X1081104D01*
Y714453D01*
X1081121D01*
Y714435D01*
X1081138D01*
Y714418D01*
X1081173D01*
Y714401D01*
X1081190D01*
Y714384D01*
X1081207D01*
Y714366D01*
X1081224D01*
Y714349D01*
X1081241D01*
Y714332D01*
X1081259D01*
Y714298D01*
X1081276D01*
Y714281D01*
X1081293D01*
Y714263D01*
X1081310D01*
Y714246D01*
X1081327D01*
Y714229D01*
X1081345D01*
Y714194D01*
X1081362D01*
Y714177D01*
X1081379D01*
Y714160D01*
X1081396D01*
Y714126D01*
X1081413D01*
Y714109D01*
X1081431D01*
Y714074D01*
X1081448D01*
Y714762D01*
X1082222D01*
Y711288D01*
X1081448D01*
Y711941D01*
X1081431D01*
Y711924D01*
X1081413D01*
Y711907D01*
X1081396D01*
Y711873D01*
X1081379D01*
Y711856D01*
X1081362D01*
Y711838D01*
X1081345D01*
Y711821D01*
X1081327D01*
Y711787D01*
X1081310D01*
Y711769D01*
X1081293D01*
Y711752D01*
X1081276D01*
Y711735D01*
X1081259D01*
Y711718D01*
X1081241D01*
Y711701D01*
X1081224D01*
Y711684D01*
X1081207D01*
Y711666D01*
X1081190D01*
Y711649D01*
X1081173D01*
Y711632D01*
X1081155D01*
Y711615D01*
X1081138D01*
Y711597D01*
X1081121D01*
Y711580D01*
X1081104D01*
Y711563D01*
X1081069D01*
Y711546D01*
X1081052D01*
Y711529D01*
X1081035D01*
Y711512D01*
X1081018D01*
Y711494D01*
X1080983D01*
Y711477D01*
X1080966D01*
Y711460D01*
X1080932D01*
Y711443D01*
X1080915D01*
Y711425D01*
X1080880D01*
Y711408D01*
X1080863D01*
Y711391D01*
X1080829D01*
Y711374D01*
X1080794D01*
Y711357D01*
X1080760D01*
Y711340D01*
X1080725D01*
Y711322D01*
X1080691D01*
Y711305D01*
X1080657D01*
Y711288D01*
X1080605D01*
Y711271D01*
X1080553D01*
Y711253D01*
X1080502D01*
Y711236D01*
X1080433D01*
Y711219D01*
X1080364D01*
Y711202D01*
X1080244D01*
Y711185D01*
X1079831D01*
Y711202D01*
X1079711D01*
Y711219D01*
X1079642D01*
Y711236D01*
X1079573D01*
Y711253D01*
X1079521D01*
Y711271D01*
X1079470D01*
Y711288D01*
X1079418D01*
Y711305D01*
X1079384D01*
Y711322D01*
X1079332D01*
Y711340D01*
X1079298D01*
Y711357D01*
X1079263D01*
Y711374D01*
X1079229D01*
Y711391D01*
X1079212D01*
Y711408D01*
X1079177D01*
Y711425D01*
X1079143D01*
Y711443D01*
X1079126D01*
Y711460D01*
X1079091D01*
Y711477D01*
X1079074D01*
Y711494D01*
X1079057D01*
Y711512D01*
X1079023D01*
Y711529D01*
X1079006D01*
Y711546D01*
X1078988D01*
Y711563D01*
X1078954D01*
Y711580D01*
X1078937D01*
Y711597D01*
X1078920D01*
Y711615D01*
X1078902D01*
Y711632D01*
X1078885D01*
Y711649D01*
X1078868D01*
Y711666D01*
X1078851D01*
Y711684D01*
X1078833D01*
Y711701D01*
X1078816D01*
Y711718D01*
X1078799D01*
Y711735D01*
X1078782D01*
Y711752D01*
X1078765D01*
Y711769D01*
X1078748D01*
Y711787D01*
X1078730D01*
Y711804D01*
X1078713D01*
Y711838D01*
X1078696D01*
Y711856D01*
X1078679D01*
Y711873D01*
X1078662D01*
Y711890D01*
X1078644D01*
Y711924D01*
X1078627D01*
Y711941D01*
X1078610D01*
Y711976D01*
X1078593D01*
Y711993D01*
X1078576D01*
Y712028D01*
X1078558D01*
Y712045D01*
X1078541D01*
Y712079D01*
X1078524D01*
Y712114D01*
X1078507D01*
Y712148D01*
X1078490D01*
Y712182D01*
X1078472D01*
Y712217D01*
X1078455D01*
Y712251D01*
X1078438D01*
Y712286D01*
X1078421D01*
Y712337D01*
X1078404D01*
Y712371D01*
X1078386D01*
Y712423D01*
X1078369D01*
Y712492D01*
X1078352D01*
Y712543D01*
X1078335D01*
Y712629D01*
X1078318D01*
Y712733D01*
X1078300D01*
Y712870D01*
X1078283D01*
Y713197D01*
X1078300D01*
Y713231D01*
Y713249D01*
Y713335D01*
X1078318D01*
Y713438D01*
X1078335D01*
Y713507D01*
X1078352D01*
Y713558D01*
X1078369D01*
Y713627D01*
X1078386D01*
Y713661D01*
X1078404D01*
Y713713D01*
X1078421D01*
Y713765D01*
X1078438D01*
Y713799D01*
X1078455D01*
Y713833D01*
X1078472D01*
Y713868D01*
X1078490D01*
Y713902D01*
X1078507D01*
Y713937D01*
X1078524D01*
Y713954D01*
X1078541D01*
Y713988D01*
X1078558D01*
Y714023D01*
X1078576D01*
Y714040D01*
X1078593D01*
Y714074D01*
X1078610D01*
Y714091D01*
X1078627D01*
Y714126D01*
X1078644D01*
Y714143D01*
X1078662D01*
Y714160D01*
X1078679D01*
Y714177D01*
X1078696D01*
Y714212D01*
X1078713D01*
Y714229D01*
X1078730D01*
Y714246D01*
X1078748D01*
Y714263D01*
X1078765D01*
Y714281D01*
X1078782D01*
Y714298D01*
X1078799D01*
Y714315D01*
X1078816D01*
Y714332D01*
X1078833D01*
Y714349D01*
X1078851D01*
Y714366D01*
X1078868D01*
Y714384D01*
X1078885D01*
Y714401D01*
X1078902D01*
Y714418D01*
X1078920D01*
Y714435D01*
X1078937D01*
Y714453D01*
X1078954D01*
Y714470D01*
X1078971D01*
Y714487D01*
X1078988D01*
Y714504D01*
X1079023D01*
Y714521D01*
X1079040D01*
Y714538D01*
X1079057D01*
Y714556D01*
X1079074D01*
Y714573D01*
X1079109D01*
Y714590D01*
X1079126D01*
Y714607D01*
X1079160D01*
Y714625D01*
X1079177D01*
Y714642D01*
X1079212D01*
Y714659D01*
X1079246D01*
Y714676D01*
X1079281D01*
Y714693D01*
X1079315D01*
Y714711D01*
X1079350D01*
Y714728D01*
X1079384D01*
Y714745D01*
X1079418D01*
Y714762D01*
X1079470D01*
Y714779D01*
X1079521D01*
Y714796D01*
X1079573D01*
Y714814D01*
X1079642D01*
Y714831D01*
X1079711D01*
Y714848D01*
X1079814D01*
Y714865D01*
X1080227D01*
Y714848D01*
D02*
G37*
G36*
X1084286Y714109D02*
X1084303D01*
Y714143D01*
X1084320D01*
Y714160D01*
X1084337D01*
Y714177D01*
X1084354D01*
Y714212D01*
X1084372D01*
Y714229D01*
X1084389D01*
Y714246D01*
X1084406D01*
Y714281D01*
X1084423D01*
Y714298D01*
X1084440D01*
Y714315D01*
X1084458D01*
Y714332D01*
X1084475D01*
Y714349D01*
X1084492D01*
Y714366D01*
X1084509D01*
Y714401D01*
X1084526D01*
Y714418D01*
X1084544D01*
Y714435D01*
X1084561D01*
Y714453D01*
X1084595D01*
Y714470D01*
X1084612D01*
Y714487D01*
X1084630D01*
Y714504D01*
X1084647D01*
Y714521D01*
X1084664D01*
Y714538D01*
X1084681D01*
Y714556D01*
X1084716D01*
Y714573D01*
X1084733D01*
Y714590D01*
X1084767D01*
Y714607D01*
X1084784D01*
Y714625D01*
X1084819D01*
Y714642D01*
X1084836D01*
Y714659D01*
X1084870D01*
Y714676D01*
X1084905D01*
Y714693D01*
X1084939D01*
Y714711D01*
X1084974D01*
Y714728D01*
X1085008D01*
Y714745D01*
X1085042D01*
Y714762D01*
X1085094D01*
Y714779D01*
X1085146D01*
Y714796D01*
X1085197D01*
Y714814D01*
X1085266D01*
Y714831D01*
X1085352D01*
Y714848D01*
X1085472D01*
Y714865D01*
X1085902D01*
Y714848D01*
X1086005D01*
Y714831D01*
X1086092D01*
Y714814D01*
X1086160D01*
Y714796D01*
X1086212D01*
Y714779D01*
X1086263D01*
Y714762D01*
X1086315D01*
Y714745D01*
X1086349D01*
Y714728D01*
X1086384D01*
Y714711D01*
X1086436D01*
Y714693D01*
X1086453D01*
Y714676D01*
X1086487D01*
Y714659D01*
X1086522D01*
Y714642D01*
X1086556D01*
Y714625D01*
X1086573D01*
Y714607D01*
X1086607D01*
Y714590D01*
X1086625D01*
Y714573D01*
X1086659D01*
Y714556D01*
X1086676D01*
Y714538D01*
X1086711D01*
Y714521D01*
X1086728D01*
Y714504D01*
X1086745D01*
Y714487D01*
X1086762D01*
Y714470D01*
X1086779D01*
Y714453D01*
X1086814D01*
Y714435D01*
X1086831D01*
Y714418D01*
X1086848D01*
Y714401D01*
X1086866D01*
Y714384D01*
X1086883D01*
Y714366D01*
X1086900D01*
Y714349D01*
X1086917D01*
Y714332D01*
X1086934D01*
Y714315D01*
X1086952D01*
Y714298D01*
X1086969D01*
Y714281D01*
X1086986D01*
Y714263D01*
X1087003D01*
Y714229D01*
X1087020D01*
Y714212D01*
X1087037D01*
Y714194D01*
X1087055D01*
Y714177D01*
X1087072D01*
Y714160D01*
X1087089D01*
Y714126D01*
X1087106D01*
Y714109D01*
X1087123D01*
Y714091D01*
X1087141D01*
Y714057D01*
X1087158D01*
Y714040D01*
X1087175D01*
Y714005D01*
X1087192D01*
Y713971D01*
X1087210D01*
Y713954D01*
X1087227D01*
Y713919D01*
X1087244D01*
Y713885D01*
X1087261D01*
Y713851D01*
X1087278D01*
Y713816D01*
X1087296D01*
Y713782D01*
X1087313D01*
Y713730D01*
X1087330D01*
Y713696D01*
X1087347D01*
Y713644D01*
X1087364D01*
Y713593D01*
X1087381D01*
Y713541D01*
X1087399D01*
Y713472D01*
X1087416D01*
Y713386D01*
X1087433D01*
Y713266D01*
X1087450D01*
Y712801D01*
X1087433D01*
Y712698D01*
X1087416D01*
Y712612D01*
X1087399D01*
Y712543D01*
X1087381D01*
Y712475D01*
X1087364D01*
Y712423D01*
X1087347D01*
Y712371D01*
X1087330D01*
Y712337D01*
X1087313D01*
Y712286D01*
X1087296D01*
Y712251D01*
X1087278D01*
Y712217D01*
X1087261D01*
Y712182D01*
X1087244D01*
Y712148D01*
X1087227D01*
Y712114D01*
X1087210D01*
Y712079D01*
X1087192D01*
Y712062D01*
X1087175D01*
Y712028D01*
X1087158D01*
Y712010D01*
X1087141D01*
Y711976D01*
X1087123D01*
Y711959D01*
X1087106D01*
Y711924D01*
X1087089D01*
Y711907D01*
X1087072D01*
Y711890D01*
X1087055D01*
Y711856D01*
X1087037D01*
Y711838D01*
X1087020D01*
Y711821D01*
X1087003D01*
Y711804D01*
X1086986D01*
Y711787D01*
X1086969D01*
Y711769D01*
X1086952D01*
Y711735D01*
X1086934D01*
Y711718D01*
X1086917D01*
Y711701D01*
X1086900D01*
Y711684D01*
X1086883D01*
Y711666D01*
X1086866D01*
Y711649D01*
X1086848D01*
Y711632D01*
X1086831D01*
Y711615D01*
X1086814D01*
Y711597D01*
X1086779D01*
Y711580D01*
X1086762D01*
Y711563D01*
X1086745D01*
Y711546D01*
X1086728D01*
Y711529D01*
X1086711D01*
Y711512D01*
X1086676D01*
Y711494D01*
X1086659D01*
Y711477D01*
X1086642D01*
Y711460D01*
X1086607D01*
Y711443D01*
X1086590D01*
Y711425D01*
X1086556D01*
Y711408D01*
X1086539D01*
Y711391D01*
X1086504D01*
Y711374D01*
X1086470D01*
Y711357D01*
X1086436D01*
Y711340D01*
X1086401D01*
Y711322D01*
X1086367D01*
Y711305D01*
X1086332D01*
Y711288D01*
X1086281D01*
Y711271D01*
X1086229D01*
Y711253D01*
X1086178D01*
Y711236D01*
X1086126D01*
Y711219D01*
X1086040D01*
Y711202D01*
X1085937D01*
Y711185D01*
X1085541D01*
Y711202D01*
X1085421D01*
Y711219D01*
X1085352D01*
Y711236D01*
X1085283D01*
Y711253D01*
X1085232D01*
Y711271D01*
X1085180D01*
Y711288D01*
X1085128D01*
Y711305D01*
X1085094D01*
Y711322D01*
X1085042D01*
Y711340D01*
X1085008D01*
Y711357D01*
X1084974D01*
Y711374D01*
X1084939D01*
Y711391D01*
X1084905D01*
Y711408D01*
X1084888D01*
Y711425D01*
X1084853D01*
Y711443D01*
X1084819D01*
Y711460D01*
X1084802D01*
Y711477D01*
X1084767D01*
Y711494D01*
X1084750D01*
Y711512D01*
X1084733D01*
Y711529D01*
X1084698D01*
Y711546D01*
X1084681D01*
Y711563D01*
X1084664D01*
Y711580D01*
X1084647D01*
Y711597D01*
X1084612D01*
Y711615D01*
X1084595D01*
Y711632D01*
X1084578D01*
Y711649D01*
X1084561D01*
Y711666D01*
X1084544D01*
Y711684D01*
X1084526D01*
Y711701D01*
X1084509D01*
Y711718D01*
X1084492D01*
Y711735D01*
X1084475D01*
Y711752D01*
X1084458D01*
Y711787D01*
X1084440D01*
Y711804D01*
X1084423D01*
Y711821D01*
X1084406D01*
Y711838D01*
X1084389D01*
Y711873D01*
X1084372D01*
Y711890D01*
X1084354D01*
Y711907D01*
X1084337D01*
Y711941D01*
X1084320D01*
Y711959D01*
X1084303D01*
Y711993D01*
X1084286D01*
Y711288D01*
X1083512D01*
Y715657D01*
Y715674D01*
Y716757D01*
X1084286D01*
Y714109D01*
D02*
G37*
G36*
X1090632Y704563D02*
X1090615D01*
Y704443D01*
X1090598D01*
Y704357D01*
X1090580D01*
Y704271D01*
X1090563D01*
Y704202D01*
X1090546D01*
Y704150D01*
X1090529D01*
Y704099D01*
X1090512D01*
Y704047D01*
X1090495D01*
Y703996D01*
X1090477D01*
Y703961D01*
X1090460D01*
Y703927D01*
X1090443D01*
Y703892D01*
X1090426D01*
Y703841D01*
X1090409D01*
Y703806D01*
X1090391D01*
Y703789D01*
X1090374D01*
Y703755D01*
X1090357D01*
Y703720D01*
X1090340D01*
Y703686D01*
X1090322D01*
Y703669D01*
X1090305D01*
Y703634D01*
X1090288D01*
Y703600D01*
X1090271D01*
Y703583D01*
X1090254D01*
Y703566D01*
X1090236D01*
Y703531D01*
X1090219D01*
Y703514D01*
X1090202D01*
Y703480D01*
X1090185D01*
Y703462D01*
X1090168D01*
Y703445D01*
X1090151D01*
Y703428D01*
X1090133D01*
Y703394D01*
X1090116D01*
Y703376D01*
X1090099D01*
Y703359D01*
X1090082D01*
Y703342D01*
X1090065D01*
Y703325D01*
X1090047D01*
Y703308D01*
X1090030D01*
Y703290D01*
X1090013D01*
Y703273D01*
X1089996D01*
Y703256D01*
X1089979D01*
Y703239D01*
X1089961D01*
Y703222D01*
X1089944D01*
Y703204D01*
X1089927D01*
Y703187D01*
X1089910D01*
Y703170D01*
X1089892D01*
Y703153D01*
X1089875D01*
Y703136D01*
X1089858D01*
Y703118D01*
X1089841D01*
Y703101D01*
X1089824D01*
Y703084D01*
X1089806D01*
Y703067D01*
X1089772D01*
Y703050D01*
X1089755D01*
Y703032D01*
X1089738D01*
Y703015D01*
X1089721D01*
Y702998D01*
X1089686D01*
Y702981D01*
X1089669D01*
Y702964D01*
X1089652D01*
Y702946D01*
X1089617D01*
Y702929D01*
X1089600D01*
Y702912D01*
X1089566D01*
Y702895D01*
X1089548D01*
Y702878D01*
X1089514D01*
Y702860D01*
X1089497D01*
Y702843D01*
X1089462D01*
Y702826D01*
X1089428D01*
Y702809D01*
X1089411D01*
Y702792D01*
X1089377D01*
Y702774D01*
X1089342D01*
Y702757D01*
X1089308D01*
Y702740D01*
X1089273D01*
Y702723D01*
X1089239D01*
Y702706D01*
X1089205D01*
Y702688D01*
X1089170D01*
Y702671D01*
X1089136D01*
Y702654D01*
X1089084D01*
Y702637D01*
X1089050D01*
Y702620D01*
X1088998D01*
Y702602D01*
X1088947D01*
Y702585D01*
X1088895D01*
Y702568D01*
X1088843D01*
Y702551D01*
X1088792D01*
Y702534D01*
X1088723D01*
Y702516D01*
X1088637D01*
Y702499D01*
X1088568D01*
Y702482D01*
X1088465D01*
Y702465D01*
X1088345D01*
Y702448D01*
X1088155D01*
Y702430D01*
X1087622D01*
Y702448D01*
X1087433D01*
Y702465D01*
X1087313D01*
Y702482D01*
X1087210D01*
Y702499D01*
X1087123D01*
Y702516D01*
X1087055D01*
Y702534D01*
X1086986D01*
Y702551D01*
X1086917D01*
Y702568D01*
X1086866D01*
Y702585D01*
X1086814D01*
Y702602D01*
X1086762D01*
Y702620D01*
X1086711D01*
Y702637D01*
X1086676D01*
Y702654D01*
X1086625D01*
Y702671D01*
X1086590D01*
Y702688D01*
X1086556D01*
Y702706D01*
X1086522D01*
Y702723D01*
X1086487D01*
Y702740D01*
X1086453D01*
Y702757D01*
X1086418D01*
Y702774D01*
X1086384D01*
Y702792D01*
X1086349D01*
Y702809D01*
X1086332D01*
Y702826D01*
X1086298D01*
Y702843D01*
X1086263D01*
Y702860D01*
X1086246D01*
Y702878D01*
X1086212D01*
Y702895D01*
X1086195D01*
Y702912D01*
X1086160D01*
Y702929D01*
X1086143D01*
Y702946D01*
X1086126D01*
Y702964D01*
X1086092D01*
Y702981D01*
X1086074D01*
Y702998D01*
X1086057D01*
Y703015D01*
X1086040D01*
Y703032D01*
X1086005D01*
Y703050D01*
X1085988D01*
Y703067D01*
X1085971D01*
Y703084D01*
X1085954D01*
Y703101D01*
X1085937D01*
Y703118D01*
X1085919D01*
Y703136D01*
X1085902D01*
Y703153D01*
X1085885D01*
Y703170D01*
X1085868D01*
Y703187D01*
X1085851D01*
Y703204D01*
X1085833D01*
Y703222D01*
X1085816D01*
Y703239D01*
X1085799D01*
Y703256D01*
X1085782D01*
Y703273D01*
X1085765D01*
Y703290D01*
X1085748D01*
Y703308D01*
X1085730D01*
Y703325D01*
X1085713D01*
Y703359D01*
X1085696D01*
Y703376D01*
X1085679D01*
Y703394D01*
X1085662D01*
Y703411D01*
X1085644D01*
Y703445D01*
X1085627D01*
Y703462D01*
X1085610D01*
Y703497D01*
X1085593D01*
Y703514D01*
X1085576D01*
Y703548D01*
X1085558D01*
Y703566D01*
X1085541D01*
Y703600D01*
X1085524D01*
Y703617D01*
X1085507D01*
Y703652D01*
X1085490D01*
Y703686D01*
X1085472D01*
Y703720D01*
X1085455D01*
Y703755D01*
X1085438D01*
Y703789D01*
X1085421D01*
Y703824D01*
X1085404D01*
Y703858D01*
X1085386D01*
Y703892D01*
X1085369D01*
Y703944D01*
X1085352D01*
Y703978D01*
X1085335D01*
Y704030D01*
X1085318D01*
Y704081D01*
X1085300D01*
Y704133D01*
X1085283D01*
Y704185D01*
X1085266D01*
Y704253D01*
X1085249D01*
Y704322D01*
X1085232D01*
Y704408D01*
X1085214D01*
Y704529D01*
X1085197D01*
Y704666D01*
X1085180D01*
Y705010D01*
Y705027D01*
Y708089D01*
X1086848D01*
Y705303D01*
X1086866D01*
Y705131D01*
X1086883D01*
Y705027D01*
X1086900D01*
Y704959D01*
X1086917D01*
Y704890D01*
X1086934D01*
Y704838D01*
X1086952D01*
Y704804D01*
X1086969D01*
Y704752D01*
X1086986D01*
Y704718D01*
X1087003D01*
Y704666D01*
X1087020D01*
Y704649D01*
X1087037D01*
Y704615D01*
X1087055D01*
Y704580D01*
X1087072D01*
Y704546D01*
X1087089D01*
Y704529D01*
X1087106D01*
Y704494D01*
X1087123D01*
Y704477D01*
X1087141D01*
Y704460D01*
X1087158D01*
Y704425D01*
X1087175D01*
Y704408D01*
X1087192D01*
Y704391D01*
X1087210D01*
Y704374D01*
X1087227D01*
Y704357D01*
X1087244D01*
Y704340D01*
X1087261D01*
Y704322D01*
X1087278D01*
Y704305D01*
X1087296D01*
Y704288D01*
X1087313D01*
Y704271D01*
X1087330D01*
Y704253D01*
X1087347D01*
Y704236D01*
X1087381D01*
Y704219D01*
X1087399D01*
Y704202D01*
X1087416D01*
Y704185D01*
X1087450D01*
Y704168D01*
X1087485D01*
Y704150D01*
X1087519D01*
Y704133D01*
X1087553D01*
Y704116D01*
X1087605D01*
Y704099D01*
X1087674D01*
Y704081D01*
X1087760D01*
Y704064D01*
X1088001D01*
Y704081D01*
X1088104D01*
Y704099D01*
X1088155D01*
Y704116D01*
X1088207D01*
Y704133D01*
X1088259D01*
Y704150D01*
X1088293D01*
Y704168D01*
X1088327D01*
Y704185D01*
X1088362D01*
Y704202D01*
X1088379D01*
Y704219D01*
X1088413D01*
Y704236D01*
X1088431D01*
Y704253D01*
X1088465D01*
Y704271D01*
X1088482D01*
Y704288D01*
X1088499D01*
Y704305D01*
X1088517D01*
Y704322D01*
X1088534D01*
Y704340D01*
X1088551D01*
Y704357D01*
X1088568D01*
Y704374D01*
X1088585D01*
Y704391D01*
X1088603D01*
Y704408D01*
X1088620D01*
Y704425D01*
X1088637D01*
Y704443D01*
X1088654D01*
Y704460D01*
X1088671D01*
Y704477D01*
X1088689D01*
Y704511D01*
X1088706D01*
Y704529D01*
X1088723D01*
Y704563D01*
X1088740D01*
Y704580D01*
X1088757D01*
Y704615D01*
X1088775D01*
Y704649D01*
X1088792D01*
Y704666D01*
X1088809D01*
Y704701D01*
X1088826D01*
Y704752D01*
X1088843D01*
Y704787D01*
X1088861D01*
Y704838D01*
X1088878D01*
Y704890D01*
X1088895D01*
Y704942D01*
X1088912D01*
Y705010D01*
X1088929D01*
Y705114D01*
X1088947D01*
Y705268D01*
X1088964D01*
Y708089D01*
X1090632D01*
Y704563D01*
D02*
G37*
G36*
X1081173Y708192D02*
X1081345D01*
Y708175D01*
X1081465D01*
Y708158D01*
X1081551D01*
Y708141D01*
X1081637D01*
Y708123D01*
X1081706D01*
Y708106D01*
X1081757D01*
Y708089D01*
X1081826D01*
Y708072D01*
X1081878D01*
Y708054D01*
X1081929D01*
Y708037D01*
X1081964D01*
Y708020D01*
X1082015D01*
Y708003D01*
X1082050D01*
Y707986D01*
X1082084D01*
Y707969D01*
X1082136D01*
Y707951D01*
X1082170D01*
Y707934D01*
X1082205D01*
Y707917D01*
X1082239D01*
Y707900D01*
X1082273D01*
Y707882D01*
X1082291D01*
Y707865D01*
X1082325D01*
Y707848D01*
X1082359D01*
Y707831D01*
X1082394D01*
Y707814D01*
X1082411D01*
Y707796D01*
X1082445D01*
Y707779D01*
X1082463D01*
Y707762D01*
X1082497D01*
Y707745D01*
X1082514D01*
Y707728D01*
X1082549D01*
Y707711D01*
X1082566D01*
Y707693D01*
X1082583D01*
Y707676D01*
X1082617D01*
Y707659D01*
X1082635D01*
Y707642D01*
X1082652D01*
Y707624D01*
X1082686D01*
Y707607D01*
X1082703D01*
Y707590D01*
X1082720D01*
Y707573D01*
X1082738D01*
Y707556D01*
X1082755D01*
Y707539D01*
X1082789D01*
Y707521D01*
X1082806D01*
Y707504D01*
X1082824D01*
Y707487D01*
X1082841D01*
Y707470D01*
X1082858D01*
Y707452D01*
X1082875D01*
Y707435D01*
X1082893D01*
Y707418D01*
X1082910D01*
Y707401D01*
X1082927D01*
Y707384D01*
X1082944D01*
Y707367D01*
X1082961D01*
Y707349D01*
X1082979D01*
Y707332D01*
X1082996D01*
Y707315D01*
X1083013D01*
Y707298D01*
X1083030D01*
Y707281D01*
X1083047D01*
Y707246D01*
X1083064D01*
Y707229D01*
X1083082D01*
Y707212D01*
X1083099D01*
Y707195D01*
X1083116D01*
Y707177D01*
X1083133D01*
Y707143D01*
X1083150D01*
Y707126D01*
X1083168D01*
Y707109D01*
X1083185D01*
Y707074D01*
X1083202D01*
Y707057D01*
X1083219D01*
Y707040D01*
X1083237D01*
Y707005D01*
X1083254D01*
Y706988D01*
X1083271D01*
Y706954D01*
X1083288D01*
Y706937D01*
X1083305D01*
Y706902D01*
X1083323D01*
Y706885D01*
X1083340D01*
Y706851D01*
X1083357D01*
Y706816D01*
X1083374D01*
Y706799D01*
X1083391D01*
Y706765D01*
X1083409D01*
Y706730D01*
X1083426D01*
Y706696D01*
X1083443D01*
Y706661D01*
X1083460D01*
Y706627D01*
X1083477D01*
Y706593D01*
X1083494D01*
Y706558D01*
X1083512D01*
Y706507D01*
X1083529D01*
Y706472D01*
X1083546D01*
Y706421D01*
X1083563D01*
Y706386D01*
X1083580D01*
Y706335D01*
X1083598D01*
Y706283D01*
X1083615D01*
Y706231D01*
X1083632D01*
Y706163D01*
X1083649D01*
Y706094D01*
X1083667D01*
Y706025D01*
X1083684D01*
Y705939D01*
X1083701D01*
Y705836D01*
X1083718D01*
Y705698D01*
X1083735D01*
Y705440D01*
X1083753D01*
Y705199D01*
X1083735D01*
Y704942D01*
X1083718D01*
Y704804D01*
X1083701D01*
Y704701D01*
X1083684D01*
Y704615D01*
X1083667D01*
Y704529D01*
X1083649D01*
Y704460D01*
X1083632D01*
Y704408D01*
X1083615D01*
Y704340D01*
X1083598D01*
Y704288D01*
X1083580D01*
Y704236D01*
X1083563D01*
Y704202D01*
X1083546D01*
Y704150D01*
X1083529D01*
Y704116D01*
X1083512D01*
Y704064D01*
X1083494D01*
Y704030D01*
X1083477D01*
Y703996D01*
X1083460D01*
Y703961D01*
X1083443D01*
Y703927D01*
X1083426D01*
Y703892D01*
X1083409D01*
Y703858D01*
X1083391D01*
Y703824D01*
X1083374D01*
Y703806D01*
X1083357D01*
Y703772D01*
X1083340D01*
Y703738D01*
X1083323D01*
Y703720D01*
X1083305D01*
Y703686D01*
X1083288D01*
Y703669D01*
X1083271D01*
Y703634D01*
X1083254D01*
Y703617D01*
X1083237D01*
Y703583D01*
X1083219D01*
Y703566D01*
X1083202D01*
Y703531D01*
X1083185D01*
Y703514D01*
X1083168D01*
Y703497D01*
X1083150D01*
Y703462D01*
X1083133D01*
Y703445D01*
X1083116D01*
Y703428D01*
X1083099D01*
Y703411D01*
X1083082D01*
Y703394D01*
X1083064D01*
Y703359D01*
X1083047D01*
Y703342D01*
X1083030D01*
Y703325D01*
X1083013D01*
Y703308D01*
X1082996D01*
Y703290D01*
X1082979D01*
Y703273D01*
X1082961D01*
Y703256D01*
X1082944D01*
Y703239D01*
X1082927D01*
Y703222D01*
X1082910D01*
Y703204D01*
X1082893D01*
Y703187D01*
X1082875D01*
Y703170D01*
X1082858D01*
Y703153D01*
X1082841D01*
Y703136D01*
X1082824D01*
Y703118D01*
X1082806D01*
Y703101D01*
X1082789D01*
Y703084D01*
X1082772D01*
Y703067D01*
X1082738D01*
Y703050D01*
X1082720D01*
Y703032D01*
X1082703D01*
Y703015D01*
X1082686D01*
Y702998D01*
X1082669D01*
Y702981D01*
X1082635D01*
Y702964D01*
X1082617D01*
Y702946D01*
X1082600D01*
Y702929D01*
X1082566D01*
Y702912D01*
X1082549D01*
Y702895D01*
X1082514D01*
Y702878D01*
X1082497D01*
Y702860D01*
X1082463D01*
Y702843D01*
X1082445D01*
Y702826D01*
X1082411D01*
Y702809D01*
X1082394D01*
Y702792D01*
X1082359D01*
Y702774D01*
X1082325D01*
Y702757D01*
X1082291D01*
Y702740D01*
X1082273D01*
Y702723D01*
X1082239D01*
Y702706D01*
X1082205D01*
Y702688D01*
X1082170D01*
Y702671D01*
X1082119D01*
Y702654D01*
X1082084D01*
Y702637D01*
X1082050D01*
Y702620D01*
X1081998D01*
Y702602D01*
X1081964D01*
Y702585D01*
X1081912D01*
Y702568D01*
X1081861D01*
Y702551D01*
X1081809D01*
Y702534D01*
X1081757D01*
Y702516D01*
X1081689D01*
Y702499D01*
X1081620D01*
Y702482D01*
X1081534D01*
Y702465D01*
X1081448D01*
Y702448D01*
X1081327D01*
Y702430D01*
X1081155D01*
Y702413D01*
X1080622D01*
Y702430D01*
X1080433D01*
Y702448D01*
X1080313D01*
Y702465D01*
X1080210D01*
Y702482D01*
X1080124D01*
Y702499D01*
X1080055D01*
Y702516D01*
X1079986D01*
Y702534D01*
X1079934D01*
Y702551D01*
X1079865D01*
Y702568D01*
X1079814D01*
Y702585D01*
X1079780D01*
Y702602D01*
X1079728D01*
Y702620D01*
X1079694D01*
Y702637D01*
X1079642D01*
Y702654D01*
X1079607D01*
Y702671D01*
X1079573D01*
Y702688D01*
X1079539D01*
Y702706D01*
X1079504D01*
Y702723D01*
X1079470D01*
Y702740D01*
X1079436D01*
Y702757D01*
X1079401D01*
Y702774D01*
X1079367D01*
Y702792D01*
X1079350D01*
Y702809D01*
X1079315D01*
Y702826D01*
X1079281D01*
Y702843D01*
X1079263D01*
Y702860D01*
X1079229D01*
Y702878D01*
X1079212D01*
Y702895D01*
X1079177D01*
Y702912D01*
X1079160D01*
Y702929D01*
X1079143D01*
Y702946D01*
X1079109D01*
Y702964D01*
X1079091D01*
Y702981D01*
X1079074D01*
Y702998D01*
X1079057D01*
Y703015D01*
X1079023D01*
Y703032D01*
X1079006D01*
Y703050D01*
X1078988D01*
Y703067D01*
X1078971D01*
Y703084D01*
X1078954D01*
Y703101D01*
X1078937D01*
Y703118D01*
X1078920D01*
Y703136D01*
X1078902D01*
Y703153D01*
X1078885D01*
Y703170D01*
X1078868D01*
Y703187D01*
X1078851D01*
Y703204D01*
X1078833D01*
Y703222D01*
X1078816D01*
Y703239D01*
X1078799D01*
Y703256D01*
X1078782D01*
Y703273D01*
X1078765D01*
Y703290D01*
X1078748D01*
Y703325D01*
X1078730D01*
Y703342D01*
X1078713D01*
Y703359D01*
X1078696D01*
Y703376D01*
X1078679D01*
Y703394D01*
X1078662D01*
Y703428D01*
X1078644D01*
Y703445D01*
X1078627D01*
Y703462D01*
X1078610D01*
Y703497D01*
X1078593D01*
Y703514D01*
X1078576D01*
Y703531D01*
X1078558D01*
Y703566D01*
X1078541D01*
Y703583D01*
X1078524D01*
Y703617D01*
X1078507D01*
Y703634D01*
X1078490D01*
Y703669D01*
X1078472D01*
Y703686D01*
X1078455D01*
Y703720D01*
X1078438D01*
Y703738D01*
X1078421D01*
Y703772D01*
X1078404D01*
Y703806D01*
X1078386D01*
Y703841D01*
X1078369D01*
Y703858D01*
X1078352D01*
Y703892D01*
X1078335D01*
Y703927D01*
X1078318D01*
Y703961D01*
X1078300D01*
Y703996D01*
X1078283D01*
Y704030D01*
X1078266D01*
Y704064D01*
X1078249D01*
Y704116D01*
X1078232D01*
Y704150D01*
X1078214D01*
Y704185D01*
X1078197D01*
Y704236D01*
X1078180D01*
Y704288D01*
X1078163D01*
Y704340D01*
X1078146D01*
Y704391D01*
X1078128D01*
Y704443D01*
X1078111D01*
Y704511D01*
X1078094D01*
Y704580D01*
X1078077D01*
Y704649D01*
X1078060D01*
Y704735D01*
X1078042D01*
Y704855D01*
X1078025D01*
Y705010D01*
X1078008D01*
Y705612D01*
X1078025D01*
Y705767D01*
X1078042D01*
Y705887D01*
X1078060D01*
Y705991D01*
X1078077D01*
Y706059D01*
X1078094D01*
Y706145D01*
X1078111D01*
Y706197D01*
X1078128D01*
Y706266D01*
X1078146D01*
Y706317D01*
X1078163D01*
Y706369D01*
X1078180D01*
Y706421D01*
X1078197D01*
Y706455D01*
X1078214D01*
Y706507D01*
X1078232D01*
Y706541D01*
X1078249D01*
Y706575D01*
X1078266D01*
Y706627D01*
X1078283D01*
Y706661D01*
X1078300D01*
Y706696D01*
X1078318D01*
Y706730D01*
X1078335D01*
Y706765D01*
X1078352D01*
Y706782D01*
X1078369D01*
Y706816D01*
X1078386D01*
Y706851D01*
X1078404D01*
Y706885D01*
X1078421D01*
Y706902D01*
X1078438D01*
Y706937D01*
X1078455D01*
Y706954D01*
X1078472D01*
Y706988D01*
X1078490D01*
Y707005D01*
X1078507D01*
Y707040D01*
X1078524D01*
Y707057D01*
X1078541D01*
Y707091D01*
X1078558D01*
Y707109D01*
X1078576D01*
Y707126D01*
X1078593D01*
Y707143D01*
X1078610D01*
Y707177D01*
X1078627D01*
Y707195D01*
X1078644D01*
Y707212D01*
X1078662D01*
Y707229D01*
X1078679D01*
Y707246D01*
X1078696D01*
Y707281D01*
X1078713D01*
Y707298D01*
X1078730D01*
Y707315D01*
X1078748D01*
Y707332D01*
X1078765D01*
Y707349D01*
X1078782D01*
Y707367D01*
X1078799D01*
Y707384D01*
X1078816D01*
Y707401D01*
X1078833D01*
Y707418D01*
X1078851D01*
Y707435D01*
X1078868D01*
Y707452D01*
X1078885D01*
Y707470D01*
X1078902D01*
Y707487D01*
X1078920D01*
Y707504D01*
X1078954D01*
Y707521D01*
X1078971D01*
Y707539D01*
X1078988D01*
Y707556D01*
X1079006D01*
Y707573D01*
X1079023D01*
Y707590D01*
X1079040D01*
Y707607D01*
X1079074D01*
Y707624D01*
X1079091D01*
Y707642D01*
X1079109D01*
Y707659D01*
X1079143D01*
Y707676D01*
X1079160D01*
Y707693D01*
X1079195D01*
Y707711D01*
X1079212D01*
Y707728D01*
X1079229D01*
Y707745D01*
X1079263D01*
Y707762D01*
X1079298D01*
Y707779D01*
X1079315D01*
Y707796D01*
X1079350D01*
Y707814D01*
X1079367D01*
Y707831D01*
X1079401D01*
Y707848D01*
X1079436D01*
Y707865D01*
X1079470D01*
Y707882D01*
X1079504D01*
Y707900D01*
X1079539D01*
Y707917D01*
X1079573D01*
Y707934D01*
X1079607D01*
Y707951D01*
X1079642D01*
Y707969D01*
X1079676D01*
Y707986D01*
X1079728D01*
Y708003D01*
X1079762D01*
Y708020D01*
X1079814D01*
Y708037D01*
X1079865D01*
Y708054D01*
X1079917D01*
Y708072D01*
X1079969D01*
Y708089D01*
X1080037D01*
Y708106D01*
X1080106D01*
Y708123D01*
X1080175D01*
Y708141D01*
X1080261D01*
Y708158D01*
X1080347D01*
Y708175D01*
X1080485D01*
Y708192D01*
X1080657D01*
Y708209D01*
X1081173D01*
Y708192D01*
D02*
G37*
G36*
X1190463Y694624D02*
X1190753Y694217D01*
X1187010Y675950D01*
X1166905Y679839D01*
X1166638Y680262D01*
X1171036Y697157D01*
X1190463Y694624D01*
D02*
G37*
G36*
X1213555Y692390D02*
X1213865Y691998D01*
X1211057Y672590D01*
X1187973Y675774D01*
X1187685Y676183D01*
X1191520Y694369D01*
X1213555Y692390D01*
D02*
G37*
G36*
X1186502Y675450D02*
X1186775Y675032D01*
X1182321Y655383D01*
X1160951Y659853D01*
X1160695Y660283D01*
X1166325Y679293D01*
X1186502Y675450D01*
D02*
G37*
G36*
X1211039Y671907D02*
X1208074Y650410D01*
X1207666Y650121D01*
X1183317Y655019D01*
X1183045Y655439D01*
X1187532Y675157D01*
X1211039Y671907D01*
D02*
G37*
G36*
X1195903Y651763D02*
X1201721Y625578D01*
X1201409Y625188D01*
X1190981D01*
Y628141D01*
X1194918Y630109D01*
X1190981Y649794D01*
X1186060Y652747D01*
Y653337D01*
X1186447Y653654D01*
X1195903Y651763D01*
D02*
G37*
G36*
X1070570Y699240D02*
X1070566D01*
X1070551Y699244D01*
X1070529D01*
X1070498Y699248D01*
X1070438Y699251D01*
X1070364D01*
X1070337Y699248D01*
X1070307D01*
X1070266Y699240D01*
X1070221Y699232D01*
X1070172Y699225D01*
X1070116Y699210D01*
X1070056Y699195D01*
X1069992Y699172D01*
X1069928Y699146D01*
X1069861Y699113D01*
X1069794Y699075D01*
X1069726Y699034D01*
X1069658Y698981D01*
X1069595Y698925D01*
X1069591Y698921D01*
X1069580Y698910D01*
X1069565Y698891D01*
X1069542Y698869D01*
X1069516Y698835D01*
X1069490Y698798D01*
X1069460Y698756D01*
X1069430Y698704D01*
X1069396Y698651D01*
X1069366Y698591D01*
X1069340Y698527D01*
X1069314Y698460D01*
X1069291Y698385D01*
X1069276Y698310D01*
X1069265Y698228D01*
X1069261Y698145D01*
Y698141D01*
Y698126D01*
X1069265Y698100D01*
Y698070D01*
X1069272Y698029D01*
X1069280Y697984D01*
X1069287Y697931D01*
X1069302Y697875D01*
X1069321Y697815D01*
X1069343Y697755D01*
X1069370Y697688D01*
X1069403Y697620D01*
X1069441Y697552D01*
X1069486Y697489D01*
X1069535Y697421D01*
X1069595Y697358D01*
X1069598Y697354D01*
X1069610Y697343D01*
X1069629Y697328D01*
X1069655Y697305D01*
X1069689Y697279D01*
X1069726Y697253D01*
X1069771Y697223D01*
X1069820Y697193D01*
X1069876Y697159D01*
X1069936Y697129D01*
X1070000Y697102D01*
X1070071Y697076D01*
X1070146Y697054D01*
X1070221Y697039D01*
X1070304Y697027D01*
X1070386Y697024D01*
X1070416D01*
X1070438Y697027D01*
X1070469D01*
X1070502Y697031D01*
X1070540Y697035D01*
X1070585Y697043D01*
Y696289D01*
X1070581D01*
X1070574Y696285D01*
X1070558D01*
X1070540Y696281D01*
X1070495Y696278D01*
X1070450Y696274D01*
X1070333D01*
X1070315Y696278D01*
X1070292D01*
X1070240Y696281D01*
X1070172Y696289D01*
X1070097Y696304D01*
X1070011Y696319D01*
X1069917Y696341D01*
X1069816Y696371D01*
X1069711Y696409D01*
X1069598Y696450D01*
X1069486Y696506D01*
X1069374Y696566D01*
X1069261Y696641D01*
X1069152Y696724D01*
X1069044Y696821D01*
X1069036Y696829D01*
X1069021Y696847D01*
X1068991Y696877D01*
X1068957Y696919D01*
X1068912Y696971D01*
X1068867Y697035D01*
X1068815Y697110D01*
X1068766Y697193D01*
X1068713Y697286D01*
X1068661Y697388D01*
X1068616Y697496D01*
X1068571Y697613D01*
X1068537Y697732D01*
X1068507Y697864D01*
X1068492Y697999D01*
X1068485Y698141D01*
Y698145D01*
Y698149D01*
Y698160D01*
Y698175D01*
X1068489Y698194D01*
Y698216D01*
X1068492Y698269D01*
X1068503Y698336D01*
X1068515Y698411D01*
X1068534Y698497D01*
X1068556Y698595D01*
X1068586Y698693D01*
X1068624Y698801D01*
X1068668Y698910D01*
X1068721Y699022D01*
X1068785Y699135D01*
X1068863Y699244D01*
X1068950Y699356D01*
X1069047Y699461D01*
X1069055Y699469D01*
X1069073Y699484D01*
X1069104Y699514D01*
X1069149Y699547D01*
X1069201Y699593D01*
X1069265Y699638D01*
X1069340Y699690D01*
X1069422Y699743D01*
X1069516Y699791D01*
X1069617Y699844D01*
X1069726Y699889D01*
X1069842Y699934D01*
X1069966Y699968D01*
X1070097Y699998D01*
X1070232Y700013D01*
X1070371Y700020D01*
X1070570D01*
Y699240D01*
D02*
G37*
G36*
X1054074D02*
X1054070D01*
X1054055Y699244D01*
X1054032D01*
X1054002Y699248D01*
X1053942Y699251D01*
X1053867D01*
X1053841Y699248D01*
X1053811D01*
X1053770Y699240D01*
X1053725Y699232D01*
X1053676Y699225D01*
X1053620Y699210D01*
X1053560Y699195D01*
X1053496Y699172D01*
X1053432Y699146D01*
X1053365Y699113D01*
X1053297Y699075D01*
X1053230Y699034D01*
X1053162Y698981D01*
X1053098Y698925D01*
X1053095Y698921D01*
X1053084Y698910D01*
X1053069Y698891D01*
X1053046Y698869D01*
X1053020Y698835D01*
X1052993Y698798D01*
X1052964Y698756D01*
X1052934Y698704D01*
X1052900Y698651D01*
X1052870Y698591D01*
X1052843Y698527D01*
X1052817Y698460D01*
X1052795Y698385D01*
X1052780Y698310D01*
X1052769Y698228D01*
X1052765Y698145D01*
Y698141D01*
Y698126D01*
X1052769Y698100D01*
Y698070D01*
X1052776Y698029D01*
X1052783Y697984D01*
X1052791Y697931D01*
X1052806Y697875D01*
X1052825Y697815D01*
X1052847Y697755D01*
X1052874Y697688D01*
X1052907Y697620D01*
X1052945Y697552D01*
X1052990Y697489D01*
X1053039Y697421D01*
X1053098Y697358D01*
X1053102Y697354D01*
X1053113Y697343D01*
X1053132Y697328D01*
X1053158Y697305D01*
X1053192Y697279D01*
X1053230Y697253D01*
X1053275Y697223D01*
X1053323Y697193D01*
X1053380Y697159D01*
X1053440Y697129D01*
X1053504Y697102D01*
X1053575Y697076D01*
X1053650Y697054D01*
X1053725Y697039D01*
X1053807Y697027D01*
X1053890Y697024D01*
X1053920D01*
X1053942Y697027D01*
X1053972D01*
X1054006Y697031D01*
X1054043Y697035D01*
X1054088Y697043D01*
Y696289D01*
X1054085D01*
X1054077Y696285D01*
X1054062D01*
X1054043Y696281D01*
X1053998Y696278D01*
X1053953Y696274D01*
X1053837D01*
X1053819Y696278D01*
X1053796D01*
X1053743Y696281D01*
X1053676Y696289D01*
X1053601Y696304D01*
X1053515Y696319D01*
X1053421Y696341D01*
X1053320Y696371D01*
X1053215Y696409D01*
X1053102Y696450D01*
X1052990Y696506D01*
X1052877Y696566D01*
X1052765Y696641D01*
X1052656Y696724D01*
X1052547Y696821D01*
X1052540Y696829D01*
X1052525Y696847D01*
X1052495Y696877D01*
X1052461Y696919D01*
X1052416Y696971D01*
X1052371Y697035D01*
X1052318Y697110D01*
X1052270Y697193D01*
X1052217Y697286D01*
X1052165Y697388D01*
X1052120Y697496D01*
X1052075Y697613D01*
X1052041Y697732D01*
X1052011Y697864D01*
X1051996Y697999D01*
X1051989Y698141D01*
Y698145D01*
Y698149D01*
Y698160D01*
Y698175D01*
X1051992Y698194D01*
Y698216D01*
X1051996Y698269D01*
X1052007Y698336D01*
X1052019Y698411D01*
X1052037Y698497D01*
X1052060Y698595D01*
X1052090Y698693D01*
X1052127Y698801D01*
X1052172Y698910D01*
X1052225Y699022D01*
X1052289Y699135D01*
X1052367Y699244D01*
X1052454Y699356D01*
X1052551Y699461D01*
X1052559Y699469D01*
X1052577Y699484D01*
X1052607Y699514D01*
X1052652Y699547D01*
X1052705Y699593D01*
X1052769Y699638D01*
X1052843Y699690D01*
X1052926Y699743D01*
X1053020Y699791D01*
X1053121Y699844D01*
X1053230Y699889D01*
X1053346Y699934D01*
X1053470Y699968D01*
X1053601Y699998D01*
X1053736Y700013D01*
X1053875Y700020D01*
X1054074D01*
Y699240D01*
D02*
G37*
G36*
X1051685Y696289D02*
X1050916D01*
Y697770D01*
X1050054D01*
Y696289D01*
X1049262D01*
Y700028D01*
X1050054D01*
Y698527D01*
X1050916D01*
Y700028D01*
X1051685D01*
Y696289D01*
D02*
G37*
G36*
X1057017Y697493D02*
Y697485D01*
Y697470D01*
X1057014Y697444D01*
X1057010Y697406D01*
X1057006Y697365D01*
X1056999Y697313D01*
X1056983Y697256D01*
X1056968Y697193D01*
X1056950Y697129D01*
X1056923Y697057D01*
X1056894Y696986D01*
X1056856Y696915D01*
X1056811Y696844D01*
X1056762Y696772D01*
X1056702Y696701D01*
X1056635Y696634D01*
X1056631Y696630D01*
X1056616Y696619D01*
X1056597Y696604D01*
X1056567Y696581D01*
X1056530Y696555D01*
X1056485Y696525D01*
X1056436Y696495D01*
X1056380Y696461D01*
X1056316Y696427D01*
X1056245Y696397D01*
X1056174Y696368D01*
X1056091Y696341D01*
X1056009Y696322D01*
X1055919Y696304D01*
X1055828Y696293D01*
X1055731Y696289D01*
X1055709D01*
X1055682Y696293D01*
X1055649Y696296D01*
X1055604Y696300D01*
X1055555Y696308D01*
X1055499Y696319D01*
X1055435Y696334D01*
X1055371Y696352D01*
X1055300Y696375D01*
X1055229Y696405D01*
X1055157Y696439D01*
X1055082Y696480D01*
X1055011Y696529D01*
X1054940Y696581D01*
X1054872Y696645D01*
X1054869Y696649D01*
X1054857Y696660D01*
X1054838Y696683D01*
X1054816Y696709D01*
X1054790Y696743D01*
X1054760Y696788D01*
X1054730Y696833D01*
X1054696Y696889D01*
X1054662Y696949D01*
X1054632Y697016D01*
X1054602Y697088D01*
X1054576Y697163D01*
X1054554Y697245D01*
X1054535Y697328D01*
X1054523Y697418D01*
X1054520Y697511D01*
Y700028D01*
X1055289D01*
Y697493D01*
Y697489D01*
Y697485D01*
X1055292Y697463D01*
X1055296Y697425D01*
X1055307Y697380D01*
X1055322Y697331D01*
X1055345Y697275D01*
X1055379Y697223D01*
X1055424Y697170D01*
X1055431Y697166D01*
X1055450Y697151D01*
X1055476Y697129D01*
X1055517Y697106D01*
X1055566Y697080D01*
X1055622Y697061D01*
X1055686Y697046D01*
X1055754Y697039D01*
X1055772D01*
X1055787Y697043D01*
X1055828Y697046D01*
X1055877Y697054D01*
X1055933Y697073D01*
X1055993Y697095D01*
X1056054Y697125D01*
X1056114Y697170D01*
X1056121Y697178D01*
X1056140Y697193D01*
X1056162Y697223D01*
X1056192Y697260D01*
X1056222Y697309D01*
X1056245Y697365D01*
X1056264Y697429D01*
X1056271Y697500D01*
Y700028D01*
X1057017D01*
Y697493D01*
D02*
G37*
G36*
X1067873Y697230D02*
X1067922Y697223D01*
X1067975Y697207D01*
X1068031Y697185D01*
X1068087Y697155D01*
X1068140Y697114D01*
X1068143D01*
X1068147Y697106D01*
X1068166Y697088D01*
X1068192Y697057D01*
X1068222Y697016D01*
X1068252Y696960D01*
X1068279Y696900D01*
X1068297Y696825D01*
X1068305Y696788D01*
Y696746D01*
Y696743D01*
Y696739D01*
Y696728D01*
Y696713D01*
X1068297Y696679D01*
X1068290Y696634D01*
X1068275Y696581D01*
X1068252Y696532D01*
X1068219Y696480D01*
X1068177Y696435D01*
X1068174Y696431D01*
X1068155Y696416D01*
X1068128Y696401D01*
X1068095Y696379D01*
X1068050Y696360D01*
X1067997Y696341D01*
X1067941Y696326D01*
X1067877Y696322D01*
X1067859D01*
X1067844Y696326D01*
X1067810Y696330D01*
X1067761Y696338D01*
X1067708Y696352D01*
X1067652Y696375D01*
X1067596Y696401D01*
X1067540Y696443D01*
X1067532Y696450D01*
X1067513Y696469D01*
X1067491Y696499D01*
X1067461Y696544D01*
X1067431Y696596D01*
X1067408Y696660D01*
X1067390Y696731D01*
X1067382Y696814D01*
Y696818D01*
Y696821D01*
Y696833D01*
X1067386Y696847D01*
X1067390Y696881D01*
X1067397Y696926D01*
X1067412Y696979D01*
X1067435Y697027D01*
X1067465Y697080D01*
X1067506Y697125D01*
X1067513Y697129D01*
X1067529Y697144D01*
X1067555Y697163D01*
X1067589Y697181D01*
X1067634Y697204D01*
X1067686Y697219D01*
X1067742Y697234D01*
X1067806Y697238D01*
X1067840D01*
X1067873Y697230D01*
D02*
G37*
G36*
X1074796Y700039D02*
X1074830Y700035D01*
X1074875Y700031D01*
X1074924Y700020D01*
X1074980Y700009D01*
X1075040Y699994D01*
X1075103Y699971D01*
X1075171Y699945D01*
X1075242Y699911D01*
X1075313Y699874D01*
X1075385Y699829D01*
X1075452Y699773D01*
X1075523Y699713D01*
X1075587Y699641D01*
X1075591Y699638D01*
X1075599Y699626D01*
X1075613Y699608D01*
X1075636Y699581D01*
X1075659Y699547D01*
X1075681Y699510D01*
X1075711Y699465D01*
X1075737Y699416D01*
X1075764Y699360D01*
X1075793Y699304D01*
X1075816Y699240D01*
X1075842Y699176D01*
X1075861Y699109D01*
X1075876Y699038D01*
X1075883Y698966D01*
X1075887Y698891D01*
Y698888D01*
Y698873D01*
Y698850D01*
X1075883Y698820D01*
X1075880Y698786D01*
X1075876Y698745D01*
X1075869Y698696D01*
X1075861Y698644D01*
X1075835Y698531D01*
X1075816Y698471D01*
X1075797Y698411D01*
X1075771Y698351D01*
X1075741Y698291D01*
X1075707Y698231D01*
X1075670Y698171D01*
X1075666Y698168D01*
X1075659Y698160D01*
X1075647Y698141D01*
X1075628Y698123D01*
X1075610Y698100D01*
X1075583Y698070D01*
X1075550Y698040D01*
X1075516Y698010D01*
X1075478Y697976D01*
X1075434Y697943D01*
X1075385Y697909D01*
X1075336Y697875D01*
X1075280Y697845D01*
X1075220Y697815D01*
X1075160Y697793D01*
X1075092Y697770D01*
X1075988Y696296D01*
X1075119D01*
X1074297Y697673D01*
Y696296D01*
X1073543D01*
Y700043D01*
X1074770D01*
X1074796Y700039D01*
D02*
G37*
G36*
X1077080Y697069D02*
X1078291Y697069D01*
Y696289D01*
X1076334Y696289D01*
Y700028D01*
X1077080D01*
Y697069D01*
D02*
G37*
G36*
X1073187Y699307D02*
X1072437D01*
Y696281D01*
X1071669D01*
Y699307D01*
X1070937D01*
Y700028D01*
X1073187D01*
Y699307D01*
D02*
G37*
G36*
X1067153D02*
X1066403D01*
Y696281D01*
X1065635D01*
Y699307D01*
X1064904D01*
Y700028D01*
X1067153D01*
Y699307D01*
D02*
G37*
G36*
X1063299Y699998D02*
X1063332D01*
X1063373Y699990D01*
X1063422Y699983D01*
X1063478Y699971D01*
X1063538Y699960D01*
X1063606Y699941D01*
X1063673Y699919D01*
X1063745Y699889D01*
X1063816Y699855D01*
X1063891Y699818D01*
X1063966Y699769D01*
X1064037Y699716D01*
X1064108Y699656D01*
X1064112Y699652D01*
X1064124Y699641D01*
X1064142Y699622D01*
X1064168Y699596D01*
X1064195Y699563D01*
X1064225Y699525D01*
X1064258Y699480D01*
X1064296Y699428D01*
X1064330Y699371D01*
X1064363Y699311D01*
X1064394Y699244D01*
X1064423Y699176D01*
X1064446Y699101D01*
X1064465Y699026D01*
X1064476Y698944D01*
X1064480Y698861D01*
Y696281D01*
X1063764D01*
Y697459D01*
X1062803D01*
Y696281D01*
X1062065D01*
Y698798D01*
Y698854D01*
Y698857D01*
Y698873D01*
X1062068Y698895D01*
X1062072Y698929D01*
X1062076Y698966D01*
X1062084Y699011D01*
X1062095Y699060D01*
X1062110Y699116D01*
X1062129Y699176D01*
X1062151Y699240D01*
X1062181Y699304D01*
X1062215Y699371D01*
X1062252Y699443D01*
X1062301Y699510D01*
X1062354Y699578D01*
X1062417Y699645D01*
X1062421Y699649D01*
X1062432Y699660D01*
X1062455Y699679D01*
X1062481Y699701D01*
X1062515Y699727D01*
X1062556Y699757D01*
X1062601Y699791D01*
X1062654Y699825D01*
X1062714Y699855D01*
X1062777Y699889D01*
X1062845Y699919D01*
X1062916Y699945D01*
X1062995Y699968D01*
X1063077Y699986D01*
X1063160Y699998D01*
X1063250Y700001D01*
X1063272D01*
X1063299Y699998D01*
D02*
G37*
G36*
X1060782Y700020D02*
X1060816Y700016D01*
X1060853Y700009D01*
X1060895Y700001D01*
X1060940Y699990D01*
X1060985Y699975D01*
X1061037Y699956D01*
X1061090Y699938D01*
X1061142Y699911D01*
X1061195Y699878D01*
X1061247Y699844D01*
X1061300Y699802D01*
X1061349Y699754D01*
X1061352Y699750D01*
X1061360Y699743D01*
X1061371Y699727D01*
X1061390Y699705D01*
X1061409Y699683D01*
X1061431Y699649D01*
X1061457Y699615D01*
X1061480Y699574D01*
X1061506Y699529D01*
X1061528Y699480D01*
X1061551Y699428D01*
X1061570Y699371D01*
X1061588Y699311D01*
X1061600Y699251D01*
X1061607Y699184D01*
X1061611Y699116D01*
Y699109D01*
Y699094D01*
Y699064D01*
X1061607Y699030D01*
X1061604Y698993D01*
X1061600Y698955D01*
X1061592Y698914D01*
X1061585Y698876D01*
Y698873D01*
X1061581Y698861D01*
X1061574Y698839D01*
X1061566Y698813D01*
X1061551Y698782D01*
X1061536Y698745D01*
X1061517Y698700D01*
X1061491Y698655D01*
X1061487Y698651D01*
X1061480Y698636D01*
X1061465Y698618D01*
X1061442Y698588D01*
X1061416Y698554D01*
X1061382Y698516D01*
X1061341Y698475D01*
X1061292Y698434D01*
X1061289Y698430D01*
X1061277Y698422D01*
X1061266Y698411D01*
X1061247Y698400D01*
X1061213Y698374D01*
X1061195Y698366D01*
X1061183Y698363D01*
X1061259Y698325D01*
X1061266Y698321D01*
X1061281Y698310D01*
X1061307Y698291D01*
X1061337Y698269D01*
X1061401Y698220D01*
X1061431Y698198D01*
X1061454Y698175D01*
X1061457Y698171D01*
X1061465Y698168D01*
X1061476Y698152D01*
X1061491Y698138D01*
X1061506Y698115D01*
X1061528Y698089D01*
X1061555Y698055D01*
X1061581Y698018D01*
X1061585Y698010D01*
X1061596Y697991D01*
X1061615Y697965D01*
X1061637Y697928D01*
X1061660Y697883D01*
X1061686Y697838D01*
X1061709Y697785D01*
X1061727Y697736D01*
X1061731Y697729D01*
X1061735Y697714D01*
X1061742Y697688D01*
X1061753Y697650D01*
X1061761Y697609D01*
X1061769Y697556D01*
X1061772Y697504D01*
X1061776Y697444D01*
Y697440D01*
Y697421D01*
X1061772Y697399D01*
Y697365D01*
X1061765Y697324D01*
X1061761Y697275D01*
X1061750Y697223D01*
X1061738Y697163D01*
X1061720Y697102D01*
X1061701Y697035D01*
X1061675Y696968D01*
X1061645Y696896D01*
X1061611Y696829D01*
X1061566Y696758D01*
X1061521Y696690D01*
X1061465Y696623D01*
X1061461Y696619D01*
X1061450Y696607D01*
X1061435Y696589D01*
X1061409Y696570D01*
X1061378Y696540D01*
X1061345Y696514D01*
X1061300Y696480D01*
X1061255Y696450D01*
X1061202Y696416D01*
X1061142Y696383D01*
X1061078Y696356D01*
X1061011Y696330D01*
X1060940Y696308D01*
X1060865Y696289D01*
X1060782Y696278D01*
X1060700Y696274D01*
X1059432D01*
Y700024D01*
X1060760D01*
X1060782Y700020D01*
D02*
G37*
G36*
X1075666Y694715D02*
X1075662D01*
X1075647Y694719D01*
X1075625D01*
X1075595Y694723D01*
X1075535Y694727D01*
X1075460D01*
X1075434Y694723D01*
X1075403D01*
X1075362Y694715D01*
X1075317Y694708D01*
X1075268Y694700D01*
X1075212Y694685D01*
X1075152Y694670D01*
X1075089Y694648D01*
X1075025Y694622D01*
X1074957Y694588D01*
X1074890Y694550D01*
X1074822Y694509D01*
X1074755Y694456D01*
X1074691Y694400D01*
X1074687Y694397D01*
X1074676Y694385D01*
X1074661Y694367D01*
X1074638Y694344D01*
X1074612Y694310D01*
X1074586Y694273D01*
X1074556Y694232D01*
X1074526Y694179D01*
X1074492Y694127D01*
X1074462Y694067D01*
X1074436Y694003D01*
X1074410Y693935D01*
X1074387Y693860D01*
X1074372Y693785D01*
X1074361Y693703D01*
X1074357Y693620D01*
Y693617D01*
Y693602D01*
X1074361Y693575D01*
Y693545D01*
X1074368Y693504D01*
X1074376Y693459D01*
X1074384Y693406D01*
X1074399Y693350D01*
X1074417Y693290D01*
X1074440Y693230D01*
X1074466Y693163D01*
X1074500Y693095D01*
X1074537Y693028D01*
X1074582Y692964D01*
X1074631Y692897D01*
X1074691Y692833D01*
X1074695Y692829D01*
X1074706Y692818D01*
X1074725Y692803D01*
X1074751Y692780D01*
X1074785Y692754D01*
X1074822Y692728D01*
X1074867Y692698D01*
X1074916Y692668D01*
X1074972Y692634D01*
X1075032Y692604D01*
X1075096Y692578D01*
X1075167Y692552D01*
X1075242Y692529D01*
X1075317Y692514D01*
X1075400Y692503D01*
X1075482Y692499D01*
X1075512D01*
X1075535Y692503D01*
X1075565D01*
X1075599Y692507D01*
X1075636Y692510D01*
X1075681Y692518D01*
Y691764D01*
X1075677D01*
X1075670Y691760D01*
X1075655D01*
X1075636Y691756D01*
X1075591Y691753D01*
X1075546Y691749D01*
X1075430D01*
X1075411Y691753D01*
X1075389D01*
X1075336Y691756D01*
X1075268Y691764D01*
X1075194Y691779D01*
X1075107Y691794D01*
X1075014Y691817D01*
X1074912Y691847D01*
X1074807Y691884D01*
X1074695Y691925D01*
X1074582Y691982D01*
X1074470Y692042D01*
X1074357Y692117D01*
X1074249Y692199D01*
X1074140Y692297D01*
X1074132Y692304D01*
X1074117Y692323D01*
X1074087Y692353D01*
X1074053Y692394D01*
X1074008Y692447D01*
X1073964Y692510D01*
X1073911Y692585D01*
X1073862Y692668D01*
X1073810Y692762D01*
X1073757Y692863D01*
X1073712Y692972D01*
X1073667Y693088D01*
X1073633Y693208D01*
X1073604Y693339D01*
X1073588Y693474D01*
X1073581Y693617D01*
Y693620D01*
Y693624D01*
Y693635D01*
Y693650D01*
X1073585Y693669D01*
Y693692D01*
X1073588Y693744D01*
X1073600Y693812D01*
X1073611Y693887D01*
X1073630Y693973D01*
X1073652Y694070D01*
X1073682Y694168D01*
X1073720Y694277D01*
X1073765Y694385D01*
X1073817Y694498D01*
X1073881Y694610D01*
X1073960Y694719D01*
X1074046Y694832D01*
X1074144Y694937D01*
X1074151Y694944D01*
X1074170Y694959D01*
X1074200Y694989D01*
X1074245Y695023D01*
X1074297Y695068D01*
X1074361Y695113D01*
X1074436Y695165D01*
X1074518Y695218D01*
X1074612Y695267D01*
X1074714Y695319D01*
X1074822Y695364D01*
X1074938Y695409D01*
X1075062Y695443D01*
X1075194Y695473D01*
X1075329Y695488D01*
X1075467Y695495D01*
X1075666D01*
Y694715D01*
D02*
G37*
G36*
X1067712D02*
X1067708D01*
X1067694Y694719D01*
X1067671D01*
X1067641Y694723D01*
X1067581Y694727D01*
X1067506D01*
X1067480Y694723D01*
X1067450D01*
X1067408Y694715D01*
X1067363Y694708D01*
X1067315Y694700D01*
X1067258Y694685D01*
X1067198Y694670D01*
X1067135Y694648D01*
X1067071Y694622D01*
X1067004Y694588D01*
X1066936Y694550D01*
X1066868Y694509D01*
X1066801Y694456D01*
X1066737Y694400D01*
X1066733Y694397D01*
X1066722Y694385D01*
X1066707Y694367D01*
X1066685Y694344D01*
X1066658Y694310D01*
X1066632Y694273D01*
X1066602Y694232D01*
X1066572Y694179D01*
X1066539Y694127D01*
X1066508Y694067D01*
X1066482Y694003D01*
X1066456Y693935D01*
X1066434Y693860D01*
X1066418Y693785D01*
X1066407Y693703D01*
X1066403Y693620D01*
Y693617D01*
Y693602D01*
X1066407Y693575D01*
Y693545D01*
X1066415Y693504D01*
X1066422Y693459D01*
X1066430Y693406D01*
X1066445Y693350D01*
X1066463Y693290D01*
X1066486Y693230D01*
X1066512Y693163D01*
X1066546Y693095D01*
X1066584Y693028D01*
X1066628Y692964D01*
X1066677Y692897D01*
X1066737Y692833D01*
X1066741Y692829D01*
X1066752Y692818D01*
X1066771Y692803D01*
X1066797Y692780D01*
X1066831Y692754D01*
X1066868Y692728D01*
X1066914Y692698D01*
X1066962Y692668D01*
X1067019Y692634D01*
X1067078Y692604D01*
X1067142Y692578D01*
X1067214Y692552D01*
X1067288Y692529D01*
X1067363Y692514D01*
X1067446Y692503D01*
X1067529Y692499D01*
X1067558D01*
X1067581Y692503D01*
X1067611D01*
X1067645Y692507D01*
X1067682Y692510D01*
X1067727Y692518D01*
Y691764D01*
X1067723D01*
X1067716Y691760D01*
X1067701D01*
X1067682Y691756D01*
X1067637Y691753D01*
X1067592Y691749D01*
X1067476D01*
X1067457Y691753D01*
X1067435D01*
X1067382Y691756D01*
X1067315Y691764D01*
X1067240Y691779D01*
X1067153Y691794D01*
X1067060Y691817D01*
X1066959Y691847D01*
X1066854Y691884D01*
X1066741Y691925D01*
X1066628Y691982D01*
X1066516Y692042D01*
X1066403Y692117D01*
X1066295Y692199D01*
X1066186Y692297D01*
X1066179Y692304D01*
X1066164Y692323D01*
X1066133Y692353D01*
X1066100Y692394D01*
X1066055Y692447D01*
X1066010Y692510D01*
X1065957Y692585D01*
X1065909Y692668D01*
X1065856Y692762D01*
X1065804Y692863D01*
X1065759Y692972D01*
X1065714Y693088D01*
X1065680Y693208D01*
X1065650Y693339D01*
X1065635Y693474D01*
X1065627Y693617D01*
Y693620D01*
Y693624D01*
Y693635D01*
Y693650D01*
X1065631Y693669D01*
Y693692D01*
X1065635Y693744D01*
X1065646Y693812D01*
X1065657Y693887D01*
X1065676Y693973D01*
X1065699Y694070D01*
X1065728Y694168D01*
X1065766Y694277D01*
X1065811Y694385D01*
X1065864Y694498D01*
X1065927Y694610D01*
X1066006Y694719D01*
X1066092Y694832D01*
X1066190Y694937D01*
X1066197Y694944D01*
X1066216Y694959D01*
X1066246Y694989D01*
X1066291Y695023D01*
X1066343Y695068D01*
X1066407Y695113D01*
X1066482Y695165D01*
X1066565Y695218D01*
X1066658Y695267D01*
X1066760Y695319D01*
X1066868Y695364D01*
X1066985Y695409D01*
X1067109Y695443D01*
X1067240Y695473D01*
X1067375Y695488D01*
X1067513Y695495D01*
X1067712D01*
Y694715D01*
D02*
G37*
G36*
X1051347D02*
X1051344D01*
X1051328Y694719D01*
X1051306D01*
X1051276Y694723D01*
X1051216Y694727D01*
X1051141D01*
X1051115Y694723D01*
X1051085D01*
X1051044Y694715D01*
X1050998Y694708D01*
X1050950Y694700D01*
X1050893Y694685D01*
X1050834Y694670D01*
X1050770Y694648D01*
X1050706Y694622D01*
X1050638Y694588D01*
X1050571Y694550D01*
X1050504Y694509D01*
X1050436Y694456D01*
X1050372Y694400D01*
X1050368Y694397D01*
X1050357Y694385D01*
X1050342Y694367D01*
X1050320Y694344D01*
X1050294Y694310D01*
X1050267Y694273D01*
X1050237Y694232D01*
X1050207Y694179D01*
X1050173Y694127D01*
X1050144Y694067D01*
X1050117Y694003D01*
X1050091Y693935D01*
X1050068Y693860D01*
X1050054Y693785D01*
X1050042Y693703D01*
X1050039Y693620D01*
Y693617D01*
Y693602D01*
X1050042Y693575D01*
Y693545D01*
X1050050Y693504D01*
X1050057Y693459D01*
X1050065Y693406D01*
X1050080Y693350D01*
X1050099Y693290D01*
X1050121Y693230D01*
X1050147Y693163D01*
X1050181Y693095D01*
X1050218Y693028D01*
X1050264Y692964D01*
X1050312Y692897D01*
X1050372Y692833D01*
X1050376Y692829D01*
X1050387Y692818D01*
X1050406Y692803D01*
X1050432Y692780D01*
X1050466Y692754D01*
X1050504Y692728D01*
X1050548Y692698D01*
X1050597Y692668D01*
X1050653Y692634D01*
X1050714Y692604D01*
X1050777Y692578D01*
X1050848Y692552D01*
X1050924Y692529D01*
X1050998Y692514D01*
X1051081Y692503D01*
X1051163Y692499D01*
X1051194D01*
X1051216Y692503D01*
X1051246D01*
X1051280Y692507D01*
X1051317Y692510D01*
X1051362Y692518D01*
Y691764D01*
X1051359D01*
X1051351Y691760D01*
X1051336D01*
X1051317Y691756D01*
X1051272Y691753D01*
X1051227Y691749D01*
X1051111D01*
X1051092Y691753D01*
X1051070D01*
X1051017Y691756D01*
X1050950Y691764D01*
X1050875Y691779D01*
X1050788Y691794D01*
X1050695Y691817D01*
X1050593Y691847D01*
X1050488Y691884D01*
X1050376Y691925D01*
X1050264Y691982D01*
X1050151Y692042D01*
X1050039Y692117D01*
X1049930Y692199D01*
X1049821Y692297D01*
X1049813Y692304D01*
X1049798Y692323D01*
X1049769Y692353D01*
X1049735Y692394D01*
X1049690Y692447D01*
X1049645Y692510D01*
X1049592Y692585D01*
X1049543Y692668D01*
X1049491Y692762D01*
X1049438Y692863D01*
X1049393Y692972D01*
X1049349Y693088D01*
X1049315Y693208D01*
X1049285Y693339D01*
X1049270Y693474D01*
X1049262Y693617D01*
Y693620D01*
Y693624D01*
Y693635D01*
Y693650D01*
X1049266Y693669D01*
Y693692D01*
X1049270Y693744D01*
X1049281Y693812D01*
X1049292Y693887D01*
X1049311Y693973D01*
X1049333Y694070D01*
X1049364Y694168D01*
X1049401Y694277D01*
X1049446Y694385D01*
X1049498Y694498D01*
X1049562Y694610D01*
X1049641Y694719D01*
X1049727Y694832D01*
X1049825Y694937D01*
X1049832Y694944D01*
X1049851Y694959D01*
X1049881Y694989D01*
X1049926Y695023D01*
X1049979Y695068D01*
X1050042Y695113D01*
X1050117Y695165D01*
X1050200Y695218D01*
X1050294Y695267D01*
X1050395Y695319D01*
X1050504Y695364D01*
X1050620Y695409D01*
X1050743Y695443D01*
X1050875Y695473D01*
X1051010Y695488D01*
X1051149Y695495D01*
X1051347D01*
Y694715D01*
D02*
G37*
G36*
X1065324Y691764D02*
X1064555D01*
Y693245D01*
X1063692D01*
Y691764D01*
X1062901D01*
Y695503D01*
X1063692D01*
Y694003D01*
X1064555D01*
Y695503D01*
X1065324D01*
Y691764D01*
D02*
G37*
G36*
X1070656Y692968D02*
Y692960D01*
Y692945D01*
X1070652Y692919D01*
X1070648Y692881D01*
X1070645Y692840D01*
X1070637Y692788D01*
X1070622Y692732D01*
X1070607Y692668D01*
X1070588Y692604D01*
X1070562Y692533D01*
X1070532Y692461D01*
X1070495Y692390D01*
X1070450Y692319D01*
X1070401Y692248D01*
X1070341Y692177D01*
X1070273Y692109D01*
X1070270Y692105D01*
X1070255Y692094D01*
X1070236Y692079D01*
X1070206Y692057D01*
X1070168Y692030D01*
X1070123Y692000D01*
X1070075Y691970D01*
X1070018Y691936D01*
X1069955Y691903D01*
X1069884Y691873D01*
X1069812Y691843D01*
X1069730Y691817D01*
X1069647Y691798D01*
X1069557Y691779D01*
X1069467Y691768D01*
X1069370Y691764D01*
X1069347D01*
X1069321Y691768D01*
X1069287Y691772D01*
X1069242Y691775D01*
X1069193Y691783D01*
X1069137Y691794D01*
X1069073Y691809D01*
X1069010Y691828D01*
X1068939Y691850D01*
X1068867Y691880D01*
X1068796Y691914D01*
X1068721Y691955D01*
X1068650Y692004D01*
X1068579Y692057D01*
X1068511Y692120D01*
X1068507Y692124D01*
X1068496Y692135D01*
X1068477Y692158D01*
X1068455Y692184D01*
X1068429Y692218D01*
X1068398Y692263D01*
X1068369Y692308D01*
X1068335Y692364D01*
X1068301Y692424D01*
X1068271Y692492D01*
X1068241Y692563D01*
X1068215Y692638D01*
X1068192Y692720D01*
X1068174Y692803D01*
X1068162Y692893D01*
X1068159Y692986D01*
Y695503D01*
X1068927D01*
Y692968D01*
Y692964D01*
Y692960D01*
X1068931Y692938D01*
X1068935Y692900D01*
X1068946Y692855D01*
X1068961Y692806D01*
X1068983Y692750D01*
X1069017Y692698D01*
X1069062Y692645D01*
X1069070Y692642D01*
X1069088Y692627D01*
X1069115Y692604D01*
X1069156Y692582D01*
X1069205Y692555D01*
X1069261Y692536D01*
X1069325Y692522D01*
X1069392Y692514D01*
X1069411D01*
X1069426Y692518D01*
X1069467Y692522D01*
X1069516Y692529D01*
X1069572Y692548D01*
X1069632Y692570D01*
X1069692Y692600D01*
X1069752Y692645D01*
X1069760Y692653D01*
X1069779Y692668D01*
X1069801Y692698D01*
X1069831Y692735D01*
X1069861Y692784D01*
X1069884Y692840D01*
X1069902Y692904D01*
X1069910Y692975D01*
Y695503D01*
X1070656D01*
Y692968D01*
D02*
G37*
G36*
X1055573Y695514D02*
X1055607Y695510D01*
X1055652Y695506D01*
X1055701Y695495D01*
X1055757Y695484D01*
X1055817Y695469D01*
X1055881Y695447D01*
X1055949Y695420D01*
X1056020Y695387D01*
X1056091Y695349D01*
X1056162Y695304D01*
X1056230Y695248D01*
X1056301Y695188D01*
X1056365Y695117D01*
X1056369Y695113D01*
X1056376Y695102D01*
X1056391Y695083D01*
X1056413Y695056D01*
X1056436Y695023D01*
X1056458Y694985D01*
X1056489Y694940D01*
X1056515Y694892D01*
X1056541Y694835D01*
X1056571Y694779D01*
X1056594Y694715D01*
X1056620Y694652D01*
X1056639Y694584D01*
X1056653Y694513D01*
X1056661Y694442D01*
X1056665Y694367D01*
Y694363D01*
Y694348D01*
Y694325D01*
X1056661Y694295D01*
X1056657Y694262D01*
X1056653Y694220D01*
X1056646Y694172D01*
X1056639Y694119D01*
X1056612Y694006D01*
X1056594Y693947D01*
X1056575Y693887D01*
X1056549Y693827D01*
X1056518Y693767D01*
X1056485Y693707D01*
X1056447Y693647D01*
X1056444Y693643D01*
X1056436Y693635D01*
X1056425Y693617D01*
X1056406Y693598D01*
X1056387Y693575D01*
X1056361Y693545D01*
X1056327Y693515D01*
X1056293Y693485D01*
X1056256Y693452D01*
X1056211Y693418D01*
X1056162Y693384D01*
X1056114Y693350D01*
X1056057Y693320D01*
X1055997Y693290D01*
X1055937Y693268D01*
X1055870Y693245D01*
X1056766Y691772D01*
X1055896D01*
X1055075Y693148D01*
Y691772D01*
X1054321D01*
Y695518D01*
X1055547D01*
X1055573Y695514D01*
D02*
G37*
G36*
X1057857Y692544D02*
X1059068D01*
Y691764D01*
X1057111D01*
Y695503D01*
X1057857D01*
Y692544D01*
D02*
G37*
G36*
X1076307Y695522D02*
X1076311Y695514D01*
X1076322Y695503D01*
X1076334Y695488D01*
X1076363Y695447D01*
X1076401Y695394D01*
X1076442Y695334D01*
X1076487Y695274D01*
X1076525Y695214D01*
X1076558Y695161D01*
X1076562Y695154D01*
X1076573Y695131D01*
X1076592Y695098D01*
X1076615Y695053D01*
X1076641Y694997D01*
X1076671Y694929D01*
X1076705Y694858D01*
X1076738Y694775D01*
Y694772D01*
X1076742Y694764D01*
X1076750Y694749D01*
X1076754Y694730D01*
X1076765Y694708D01*
X1076772Y694682D01*
X1076783Y694648D01*
X1076795Y694614D01*
X1076817Y694535D01*
X1076843Y694445D01*
X1076866Y694348D01*
X1076885Y694247D01*
Y694243D01*
X1076888Y694235D01*
Y694220D01*
X1076892Y694202D01*
X1076896Y694175D01*
X1076900Y694145D01*
X1076904Y694115D01*
X1076911Y694078D01*
X1076919Y693995D01*
X1076926Y693902D01*
X1076930Y693804D01*
X1076933Y693703D01*
Y693699D01*
Y693695D01*
Y693684D01*
Y693669D01*
Y693632D01*
X1076930Y693583D01*
Y693527D01*
X1076926Y693463D01*
X1076919Y693395D01*
X1076911Y693324D01*
Y693320D01*
Y693317D01*
X1076907Y693305D01*
Y693294D01*
X1076904Y693257D01*
X1076896Y693208D01*
X1076888Y693155D01*
X1076877Y693092D01*
X1076866Y693024D01*
X1076851Y692956D01*
Y692953D01*
X1076847Y692942D01*
X1076843Y692927D01*
X1076840Y692904D01*
X1076832Y692878D01*
X1076825Y692848D01*
X1076814Y692814D01*
X1076802Y692773D01*
X1076776Y692687D01*
X1076746Y692593D01*
X1076709Y692492D01*
X1076663Y692390D01*
Y692386D01*
X1076656Y692375D01*
X1076649Y692360D01*
X1076641Y692338D01*
X1076626Y692311D01*
X1076611Y692281D01*
X1076592Y692244D01*
X1076570Y692203D01*
X1076517Y692113D01*
X1076457Y692008D01*
X1076386Y691899D01*
X1076303Y691783D01*
X1076296D01*
X1076277Y691779D01*
X1076262D01*
X1076243Y691775D01*
X1076221Y691772D01*
X1076195Y691764D01*
X1076172D01*
X1076150Y691760D01*
X1076105D01*
X1076090Y691764D01*
X1076075Y691772D01*
X1076071Y691775D01*
X1076067Y691790D01*
X1076064Y691809D01*
Y691831D01*
X1076067Y691839D01*
X1076075Y691858D01*
X1076090Y691888D01*
X1076112Y691925D01*
X1076135Y691974D01*
X1076161Y692030D01*
X1076191Y692090D01*
X1076225Y692158D01*
X1076258Y692225D01*
X1076292Y692300D01*
X1076356Y692450D01*
X1076416Y692597D01*
X1076439Y692668D01*
X1076461Y692732D01*
Y692735D01*
X1076465Y692750D01*
X1076472Y692773D01*
X1076480Y692803D01*
X1076491Y692844D01*
X1076502Y692889D01*
X1076513Y692942D01*
X1076525Y693002D01*
X1076536Y693069D01*
X1076547Y693140D01*
X1076558Y693215D01*
X1076570Y693298D01*
X1076577Y693384D01*
X1076585Y693474D01*
X1076589Y693665D01*
Y693673D01*
Y693688D01*
Y693718D01*
Y693755D01*
X1076585Y693800D01*
X1076581Y693853D01*
X1076577Y693913D01*
X1076573Y693980D01*
X1076570Y694052D01*
X1076558Y694123D01*
X1076540Y694280D01*
X1076510Y694438D01*
X1076472Y694592D01*
Y694595D01*
X1076468Y694610D01*
X1076461Y694633D01*
X1076450Y694663D01*
X1076439Y694700D01*
X1076420Y694745D01*
X1076401Y694798D01*
X1076379Y694858D01*
X1076352Y694922D01*
X1076322Y694993D01*
X1076289Y695072D01*
X1076251Y695154D01*
X1076210Y695240D01*
X1076165Y695330D01*
X1076116Y695428D01*
X1076064Y695525D01*
X1076303D01*
X1076307Y695522D01*
D02*
G37*
G36*
X1053965Y694783D02*
X1053215D01*
Y691756D01*
X1052446D01*
Y694783D01*
X1051715D01*
Y695503D01*
X1053965D01*
Y694783D01*
D02*
G37*
G36*
X1072355Y695495D02*
X1072388Y695492D01*
X1072426Y695484D01*
X1072467Y695477D01*
X1072512Y695465D01*
X1072557Y695450D01*
X1072610Y695432D01*
X1072662Y695413D01*
X1072715Y695387D01*
X1072767Y695353D01*
X1072820Y695319D01*
X1072872Y695278D01*
X1072921Y695229D01*
X1072925Y695225D01*
X1072932Y695218D01*
X1072943Y695203D01*
X1072962Y695180D01*
X1072981Y695158D01*
X1073003Y695124D01*
X1073030Y695090D01*
X1073052Y695049D01*
X1073079Y695004D01*
X1073101Y694955D01*
X1073123Y694903D01*
X1073142Y694847D01*
X1073161Y694787D01*
X1073172Y694727D01*
X1073180Y694659D01*
X1073184Y694592D01*
Y694584D01*
Y694569D01*
Y694539D01*
X1073180Y694505D01*
X1073176Y694468D01*
X1073172Y694430D01*
X1073165Y694389D01*
X1073157Y694352D01*
Y694348D01*
X1073153Y694337D01*
X1073146Y694314D01*
X1073139Y694288D01*
X1073123Y694258D01*
X1073108Y694220D01*
X1073090Y694175D01*
X1073063Y694130D01*
X1073060Y694127D01*
X1073052Y694111D01*
X1073037Y694093D01*
X1073015Y694063D01*
X1072989Y694029D01*
X1072955Y693992D01*
X1072913Y693950D01*
X1072865Y693909D01*
X1072861Y693905D01*
X1072850Y693898D01*
X1072838Y693887D01*
X1072820Y693875D01*
X1072786Y693849D01*
X1072767Y693842D01*
X1072756Y693838D01*
X1072831Y693800D01*
X1072838Y693797D01*
X1072853Y693785D01*
X1072880Y693767D01*
X1072910Y693744D01*
X1072974Y693695D01*
X1073003Y693673D01*
X1073026Y693650D01*
X1073030Y693647D01*
X1073037Y693643D01*
X1073048Y693628D01*
X1073063Y693613D01*
X1073079Y693590D01*
X1073101Y693564D01*
X1073127Y693530D01*
X1073153Y693493D01*
X1073157Y693485D01*
X1073168Y693467D01*
X1073187Y693440D01*
X1073210Y693403D01*
X1073232Y693358D01*
X1073258Y693313D01*
X1073281Y693260D01*
X1073300Y693212D01*
X1073304Y693204D01*
X1073307Y693189D01*
X1073315Y693163D01*
X1073326Y693125D01*
X1073333Y693084D01*
X1073341Y693032D01*
X1073345Y692979D01*
X1073349Y692919D01*
Y692915D01*
Y692897D01*
X1073345Y692874D01*
Y692840D01*
X1073337Y692799D01*
X1073333Y692750D01*
X1073322Y692698D01*
X1073311Y692638D01*
X1073292Y692578D01*
X1073273Y692510D01*
X1073247Y692443D01*
X1073217Y692372D01*
X1073184Y692304D01*
X1073139Y692233D01*
X1073094Y692165D01*
X1073037Y692098D01*
X1073034Y692094D01*
X1073022Y692083D01*
X1073007Y692064D01*
X1072981Y692045D01*
X1072951Y692015D01*
X1072917Y691989D01*
X1072872Y691955D01*
X1072827Y691925D01*
X1072775Y691892D01*
X1072715Y691858D01*
X1072651Y691831D01*
X1072583Y691805D01*
X1072512Y691783D01*
X1072437Y691764D01*
X1072355Y691753D01*
X1072272Y691749D01*
X1071005D01*
Y695499D01*
X1072332D01*
X1072355Y695495D01*
D02*
G37*
G36*
X1062455D02*
X1062447Y695480D01*
X1062432Y695450D01*
X1062410Y695413D01*
X1062387Y695368D01*
X1062361Y695315D01*
X1062331Y695255D01*
X1062297Y695192D01*
X1062263Y695120D01*
X1062230Y695045D01*
X1062162Y694888D01*
X1062102Y694730D01*
X1062072Y694652D01*
X1062050Y694573D01*
Y694569D01*
X1062046Y694554D01*
X1062039Y694531D01*
X1062031Y694502D01*
X1062024Y694464D01*
X1062016Y694415D01*
X1062005Y694363D01*
X1061994Y694307D01*
X1061982Y694239D01*
X1061975Y694168D01*
X1061963Y694093D01*
X1061956Y694010D01*
X1061948Y693924D01*
X1061941Y693834D01*
X1061937Y693643D01*
Y693635D01*
Y693620D01*
Y693590D01*
X1061941Y693556D01*
Y693508D01*
X1061945Y693455D01*
X1061948Y693395D01*
X1061952Y693331D01*
X1061960Y693260D01*
X1061967Y693185D01*
X1061990Y693032D01*
X1062020Y692870D01*
X1062061Y692713D01*
Y692709D01*
X1062065Y692698D01*
X1062072Y692679D01*
X1062080Y692653D01*
X1062095Y692619D01*
X1062110Y692578D01*
X1062129Y692533D01*
X1062147Y692477D01*
X1062173Y692417D01*
X1062204Y692349D01*
X1062234Y692278D01*
X1062271Y692199D01*
X1062309Y692113D01*
X1062354Y692023D01*
X1062402Y691925D01*
X1062455Y691824D01*
Y691817D01*
X1062459Y691802D01*
X1062455Y691779D01*
X1062447Y691756D01*
X1062444Y691753D01*
X1062432Y691749D01*
X1062417Y691745D01*
X1062395Y691742D01*
X1062380D01*
X1062372Y691745D01*
X1062357D01*
X1062342Y691749D01*
X1062320Y691753D01*
X1062316D01*
X1062309Y691756D01*
X1062297D01*
X1062286Y691760D01*
X1062252Y691764D01*
X1062218D01*
X1062211Y691772D01*
X1062196Y691790D01*
X1062170Y691820D01*
X1062136Y691861D01*
X1062091Y691914D01*
X1062046Y691974D01*
X1061994Y692045D01*
X1061941Y692120D01*
X1061885Y692206D01*
X1061832Y692297D01*
X1061776Y692390D01*
X1061727Y692492D01*
X1061679Y692593D01*
X1061641Y692698D01*
X1061607Y692806D01*
X1061581Y692915D01*
Y692919D01*
X1061577Y692930D01*
Y692949D01*
X1061574Y692975D01*
X1061566Y693005D01*
X1061562Y693039D01*
X1061559Y693080D01*
X1061551Y693122D01*
X1061540Y693219D01*
X1061532Y693324D01*
X1061525Y693433D01*
X1061521Y693538D01*
Y693542D01*
Y693553D01*
Y693568D01*
Y693590D01*
X1061525Y693617D01*
Y693647D01*
Y693684D01*
X1061528Y693725D01*
X1061536Y693812D01*
X1061547Y693913D01*
X1061562Y694018D01*
X1061581Y694123D01*
Y694127D01*
X1061585Y694134D01*
X1061588Y694153D01*
X1061592Y694172D01*
X1061600Y694198D01*
X1061607Y694232D01*
X1061619Y694269D01*
X1061630Y694310D01*
X1061645Y694352D01*
X1061656Y694400D01*
X1061693Y694509D01*
X1061731Y694625D01*
X1061780Y694753D01*
Y694757D01*
X1061784Y694764D01*
X1061787Y694775D01*
X1061795Y694790D01*
X1061814Y694828D01*
X1061836Y694880D01*
X1061862Y694940D01*
X1061892Y695004D01*
X1061926Y695072D01*
X1061963Y695135D01*
X1061967Y695143D01*
X1061979Y695161D01*
X1061997Y695192D01*
X1062027Y695236D01*
X1062061Y695289D01*
X1062106Y695349D01*
X1062155Y695424D01*
X1062215Y695503D01*
X1062459D01*
X1062455Y695495D01*
D02*
G37*
G36*
X1055825Y687190D02*
X1054407Y690971D01*
X1055184D01*
X1055787Y689306D01*
X1056361Y690971D01*
X1057130D01*
X1055825Y687190D01*
D02*
G37*
G36*
X1058937Y689276D02*
X1058978Y689268D01*
X1059023Y689257D01*
X1059068Y689234D01*
X1059114Y689208D01*
X1059147Y689171D01*
X1059151D01*
X1059159Y689163D01*
X1059166Y689156D01*
X1059181Y689144D01*
X1059219Y689111D01*
X1059260Y689066D01*
X1059297Y689009D01*
X1059335Y688946D01*
X1059350Y688912D01*
X1059357Y688874D01*
X1059365Y688833D01*
X1059369Y688792D01*
Y688788D01*
Y688784D01*
Y688773D01*
Y688758D01*
X1059361Y688721D01*
X1059354Y688676D01*
X1059338Y688627D01*
X1059316Y688574D01*
X1059282Y688522D01*
X1059241Y688477D01*
X1059237Y688473D01*
X1059219Y688458D01*
X1059192Y688443D01*
X1059159Y688421D01*
X1059114Y688402D01*
X1059061Y688383D01*
X1059005Y688368D01*
X1058941Y688364D01*
X1058934D01*
X1058911Y688368D01*
X1058877Y688372D01*
X1058836Y688379D01*
X1058791Y688390D01*
X1058746Y688413D01*
X1058705Y688439D01*
X1058671Y688477D01*
X1058667D01*
X1058660Y688484D01*
X1058648Y688492D01*
X1058637Y688503D01*
X1058600Y688537D01*
X1058558Y688582D01*
X1058517Y688634D01*
X1058480Y688702D01*
X1058469Y688735D01*
X1058457Y688773D01*
X1058450Y688814D01*
X1058446Y688856D01*
Y688859D01*
Y688863D01*
Y688874D01*
X1058450Y688889D01*
X1058453Y688923D01*
X1058461Y688968D01*
X1058476Y689021D01*
X1058498Y689069D01*
X1058529Y689122D01*
X1058570Y689167D01*
X1058577Y689171D01*
X1058592Y689185D01*
X1058619Y689204D01*
X1058652Y689227D01*
X1058697Y689246D01*
X1058750Y689264D01*
X1058806Y689279D01*
X1058870Y689283D01*
X1058904D01*
X1058937Y689276D01*
D02*
G37*
G36*
X1063216Y688181D02*
X1063265Y688173D01*
X1063317Y688158D01*
X1063373Y688135D01*
X1063430Y688106D01*
X1063482Y688064D01*
X1063486D01*
X1063490Y688057D01*
X1063509Y688038D01*
X1063535Y688008D01*
X1063565Y687967D01*
X1063595Y687911D01*
X1063621Y687851D01*
X1063640Y687776D01*
X1063647Y687738D01*
Y687697D01*
Y687693D01*
Y687689D01*
Y687678D01*
Y687663D01*
X1063640Y687629D01*
X1063632Y687584D01*
X1063617Y687532D01*
X1063595Y687483D01*
X1063561Y687431D01*
X1063520Y687386D01*
X1063516Y687382D01*
X1063497Y687367D01*
X1063471Y687352D01*
X1063437Y687329D01*
X1063392Y687311D01*
X1063340Y687292D01*
X1063284Y687277D01*
X1063220Y687273D01*
X1063201D01*
X1063186Y687277D01*
X1063152Y687281D01*
X1063103Y687288D01*
X1063051Y687303D01*
X1062995Y687326D01*
X1062938Y687352D01*
X1062882Y687393D01*
X1062875Y687401D01*
X1062856Y687419D01*
X1062833Y687449D01*
X1062803Y687494D01*
X1062774Y687547D01*
X1062751Y687610D01*
X1062732Y687682D01*
X1062725Y687764D01*
Y687768D01*
Y687772D01*
Y687783D01*
X1062729Y687798D01*
X1062732Y687832D01*
X1062740Y687877D01*
X1062755Y687929D01*
X1062777Y687978D01*
X1062807Y688031D01*
X1062848Y688076D01*
X1062856Y688079D01*
X1062871Y688094D01*
X1062897Y688113D01*
X1062931Y688132D01*
X1062976Y688154D01*
X1063029Y688169D01*
X1063085Y688184D01*
X1063148Y688188D01*
X1063182D01*
X1063216Y688181D01*
D02*
G37*
G36*
X1058937Y688184D02*
X1058978Y688177D01*
X1059023Y688166D01*
X1059068Y688143D01*
X1059114Y688117D01*
X1059147Y688079D01*
X1059151D01*
X1059159Y688072D01*
X1059166Y688064D01*
X1059181Y688053D01*
X1059219Y688019D01*
X1059260Y687974D01*
X1059297Y687918D01*
X1059335Y687854D01*
X1059350Y687821D01*
X1059357Y687783D01*
X1059365Y687742D01*
X1059369Y687701D01*
Y687697D01*
Y687693D01*
Y687682D01*
Y687667D01*
X1059361Y687629D01*
X1059354Y687584D01*
X1059338Y687535D01*
X1059316Y687483D01*
X1059282Y687431D01*
X1059241Y687386D01*
X1059237Y687382D01*
X1059219Y687367D01*
X1059192Y687352D01*
X1059159Y687329D01*
X1059114Y687311D01*
X1059061Y687292D01*
X1059005Y687277D01*
X1058941Y687273D01*
X1058934D01*
X1058911Y687277D01*
X1058877Y687281D01*
X1058836Y687288D01*
X1058791Y687299D01*
X1058746Y687322D01*
X1058705Y687348D01*
X1058671Y687386D01*
X1058667D01*
X1058660Y687393D01*
X1058648Y687401D01*
X1058637Y687412D01*
X1058600Y687446D01*
X1058558Y687491D01*
X1058517Y687543D01*
X1058480Y687610D01*
X1058469Y687644D01*
X1058457Y687682D01*
X1058450Y687723D01*
X1058446Y687764D01*
Y687768D01*
Y687772D01*
Y687783D01*
X1058450Y687798D01*
X1058453Y687832D01*
X1058461Y687877D01*
X1058476Y687929D01*
X1058498Y687978D01*
X1058529Y688031D01*
X1058570Y688076D01*
X1058577Y688079D01*
X1058592Y688094D01*
X1058619Y688113D01*
X1058652Y688135D01*
X1058697Y688154D01*
X1058750Y688173D01*
X1058806Y688188D01*
X1058870Y688192D01*
X1058904D01*
X1058937Y688184D01*
D02*
G37*
G36*
X1057842Y688181D02*
X1057891Y688173D01*
X1057944Y688158D01*
X1058000Y688135D01*
X1058056Y688106D01*
X1058109Y688064D01*
X1058112D01*
X1058116Y688057D01*
X1058135Y688038D01*
X1058161Y688008D01*
X1058191Y687967D01*
X1058221Y687911D01*
X1058247Y687851D01*
X1058266Y687776D01*
X1058274Y687738D01*
Y687697D01*
Y687693D01*
Y687689D01*
Y687678D01*
Y687663D01*
X1058266Y687629D01*
X1058259Y687584D01*
X1058243Y687532D01*
X1058221Y687483D01*
X1058187Y687431D01*
X1058146Y687386D01*
X1058142Y687382D01*
X1058123Y687367D01*
X1058097Y687352D01*
X1058064Y687329D01*
X1058018Y687311D01*
X1057966Y687292D01*
X1057910Y687277D01*
X1057846Y687273D01*
X1057827D01*
X1057812Y687277D01*
X1057778Y687281D01*
X1057730Y687288D01*
X1057677Y687303D01*
X1057621Y687326D01*
X1057565Y687352D01*
X1057508Y687393D01*
X1057501Y687401D01*
X1057482Y687419D01*
X1057460Y687449D01*
X1057430Y687494D01*
X1057400Y687547D01*
X1057377Y687610D01*
X1057358Y687682D01*
X1057351Y687764D01*
Y687768D01*
Y687772D01*
Y687783D01*
X1057355Y687798D01*
X1057358Y687832D01*
X1057366Y687877D01*
X1057381Y687929D01*
X1057403Y687978D01*
X1057434Y688031D01*
X1057475Y688076D01*
X1057482Y688079D01*
X1057497Y688094D01*
X1057524Y688113D01*
X1057557Y688132D01*
X1057602Y688154D01*
X1057655Y688169D01*
X1057711Y688184D01*
X1057775Y688188D01*
X1057808D01*
X1057842Y688181D01*
D02*
G37*
G36*
X1050515Y690989D02*
X1050548Y690985D01*
X1050593Y690982D01*
X1050642Y690971D01*
X1050698Y690959D01*
X1050758Y690944D01*
X1050822Y690922D01*
X1050890Y690896D01*
X1050961Y690862D01*
X1051032Y690824D01*
X1051103Y690779D01*
X1051171Y690723D01*
X1051242Y690663D01*
X1051306Y690592D01*
X1051310Y690588D01*
X1051317Y690577D01*
X1051332Y690558D01*
X1051355Y690532D01*
X1051377Y690498D01*
X1051400Y690460D01*
X1051430Y690415D01*
X1051456Y690367D01*
X1051482Y690310D01*
X1051512Y690254D01*
X1051535Y690191D01*
X1051561Y690127D01*
X1051580Y690059D01*
X1051595Y689988D01*
X1051602Y689917D01*
X1051606Y689842D01*
Y689838D01*
Y689823D01*
Y689801D01*
X1051602Y689771D01*
X1051598Y689737D01*
X1051595Y689696D01*
X1051587Y689647D01*
X1051580Y689594D01*
X1051554Y689482D01*
X1051535Y689422D01*
X1051516Y689362D01*
X1051490Y689302D01*
X1051460Y689242D01*
X1051426Y689182D01*
X1051388Y689122D01*
X1051385Y689118D01*
X1051377Y689111D01*
X1051366Y689092D01*
X1051347Y689073D01*
X1051328Y689051D01*
X1051302Y689021D01*
X1051268Y688990D01*
X1051235Y688961D01*
X1051197Y688927D01*
X1051152Y688893D01*
X1051103Y688859D01*
X1051055Y688826D01*
X1050998Y688796D01*
X1050939Y688765D01*
X1050879Y688743D01*
X1050811Y688721D01*
X1051707Y687247D01*
X1050837D01*
X1050016Y688623D01*
Y687247D01*
X1049262D01*
Y690993D01*
X1050488D01*
X1050515Y690989D01*
D02*
G37*
G36*
X1086248Y687239D02*
X1085525D01*
Y689688D01*
X1085045Y688856D01*
X1085439D01*
Y688136D01*
X1083796D01*
X1085540Y690978D01*
X1086248D01*
Y687239D01*
D02*
G37*
G36*
X1082382Y690982D02*
X1082405Y690978D01*
X1082435Y690974D01*
X1082469Y690967D01*
X1082510Y690959D01*
X1082551Y690952D01*
X1082641Y690929D01*
X1082735Y690899D01*
X1082832Y690862D01*
X1082922Y690817D01*
X1082926D01*
X1082934Y690809D01*
X1082945Y690802D01*
X1082960Y690794D01*
X1083005Y690761D01*
X1083061Y690719D01*
X1083121Y690667D01*
X1083189Y690603D01*
X1083260Y690524D01*
X1083323Y690438D01*
Y690434D01*
X1083331Y690431D01*
X1083335Y690419D01*
X1083346Y690404D01*
X1083365Y690367D01*
X1083395Y690318D01*
X1083421Y690258D01*
X1083451Y690198D01*
X1083477Y690134D01*
X1083500Y690071D01*
X1083504Y690063D01*
X1083507Y690041D01*
X1083515Y690007D01*
X1083526Y689962D01*
X1083533Y689906D01*
X1083541Y689838D01*
X1083545Y689767D01*
X1083549Y689684D01*
Y689677D01*
Y689654D01*
X1083545Y689624D01*
X1083537Y689579D01*
X1083530Y689531D01*
X1083515Y689474D01*
X1083496Y689411D01*
X1083470Y689347D01*
X1083466Y689339D01*
X1083459Y689328D01*
X1083447Y689309D01*
X1083432Y689279D01*
X1083421Y689257D01*
X1083406Y689234D01*
X1083391Y689208D01*
X1083372Y689174D01*
X1083354Y689141D01*
X1083331Y689099D01*
X1083327Y689096D01*
X1083320Y689084D01*
X1083309Y689062D01*
X1083294Y689039D01*
X1083275Y689006D01*
X1083252Y688968D01*
X1083226Y688927D01*
X1083200Y688882D01*
X1083136Y688784D01*
X1083065Y688683D01*
X1082990Y688582D01*
X1082911Y688484D01*
X1082907Y688481D01*
X1082903Y688469D01*
X1082892Y688454D01*
X1082877Y688432D01*
X1082858Y688406D01*
X1082836Y688376D01*
X1082784Y688304D01*
X1082724Y688222D01*
X1082656Y688139D01*
X1082585Y688057D01*
X1082514Y687982D01*
X1083477D01*
Y687239D01*
X1081175D01*
X1082761Y689598D01*
X1082765Y689602D01*
X1082769Y689609D01*
X1082776Y689624D01*
X1082784Y689643D01*
X1082791Y689666D01*
X1082798Y689696D01*
X1082806Y689726D01*
Y689759D01*
Y689763D01*
Y689767D01*
X1082802Y689789D01*
X1082798Y689823D01*
X1082791Y689864D01*
X1082772Y689917D01*
X1082750Y689973D01*
X1082720Y690033D01*
X1082675Y690093D01*
Y690097D01*
X1082667Y690101D01*
X1082652Y690119D01*
X1082626Y690146D01*
X1082592Y690179D01*
X1082551Y690213D01*
X1082502Y690247D01*
X1082450Y690273D01*
X1082393Y690288D01*
X1082390D01*
X1082375Y690292D01*
X1082352D01*
X1082330Y690296D01*
X1082326D01*
X1082311Y690299D01*
X1082288Y690303D01*
X1082240D01*
X1082213Y690299D01*
X1082176Y690296D01*
X1082135Y690284D01*
X1082086Y690273D01*
X1082041Y690254D01*
X1081992Y690232D01*
X1081989Y690228D01*
X1081973Y690217D01*
X1081951Y690202D01*
X1081921Y690179D01*
X1081891Y690149D01*
X1081861Y690112D01*
X1081827Y690067D01*
X1081801Y690014D01*
Y690011D01*
X1081797Y690003D01*
X1081790Y689992D01*
X1081782Y689973D01*
X1081767Y689928D01*
X1081752Y689876D01*
Y689872D01*
X1081748Y689864D01*
Y689849D01*
X1081745Y689831D01*
X1081741Y689782D01*
X1081737Y689729D01*
Y689722D01*
Y689699D01*
X1081741Y689669D01*
X1081748Y689628D01*
X1081760Y689576D01*
X1081775Y689519D01*
X1081793Y689459D01*
X1081824Y689399D01*
X1081827Y689392D01*
X1081835Y689384D01*
X1081842Y689369D01*
X1081857Y689351D01*
X1081872Y689328D01*
X1081891Y689298D01*
X1081913Y689261D01*
X1081482Y688844D01*
X1081479Y688848D01*
X1081467Y688856D01*
X1081448Y688871D01*
X1081430Y688889D01*
X1081392Y688923D01*
X1081377Y688938D01*
X1081366Y688953D01*
X1081359Y688961D01*
X1081340Y688979D01*
X1081314Y689006D01*
X1081280Y689039D01*
X1081246Y689081D01*
X1081212Y689118D01*
X1081182Y689159D01*
X1081160Y689193D01*
Y689197D01*
X1081152Y689204D01*
X1081145Y689223D01*
X1081133Y689242D01*
X1081122Y689268D01*
X1081111Y689298D01*
X1081096Y689332D01*
X1081081Y689373D01*
X1081051Y689459D01*
X1081028Y689553D01*
X1081010Y689658D01*
X1081002Y689763D01*
Y689767D01*
Y689778D01*
Y689793D01*
X1081006Y689816D01*
Y689842D01*
X1081010Y689876D01*
X1081017Y689909D01*
X1081025Y689951D01*
X1081044Y690041D01*
X1081073Y690138D01*
X1081118Y690243D01*
X1081145Y690299D01*
X1081175Y690352D01*
Y690356D01*
X1081182Y690363D01*
X1081190Y690374D01*
X1081201Y690389D01*
X1081227Y690431D01*
X1081265Y690483D01*
X1081306Y690539D01*
X1081347Y690596D01*
X1081388Y690648D01*
X1081430Y690693D01*
X1081437Y690701D01*
X1081456Y690716D01*
X1081486Y690742D01*
X1081524Y690772D01*
X1081572Y690806D01*
X1081632Y690839D01*
X1081696Y690877D01*
X1081767Y690907D01*
X1081771D01*
X1081775Y690911D01*
X1081786Y690914D01*
X1081801Y690918D01*
X1081842Y690933D01*
X1081895Y690948D01*
X1081955Y690959D01*
X1082026Y690974D01*
X1082101Y690982D01*
X1082176Y690986D01*
X1082364D01*
X1082382Y690982D01*
D02*
G37*
G36*
X1075460Y690982D02*
X1075482Y690978D01*
X1075512Y690974D01*
X1075546Y690967D01*
X1075587Y690959D01*
X1075628Y690952D01*
X1075718Y690929D01*
X1075812Y690899D01*
X1075910Y690862D01*
X1076000Y690817D01*
X1076003D01*
X1076011Y690809D01*
X1076022Y690802D01*
X1076037Y690794D01*
X1076082Y690761D01*
X1076138Y690719D01*
X1076198Y690667D01*
X1076266Y690603D01*
X1076337Y690524D01*
X1076401Y690438D01*
Y690434D01*
X1076408Y690431D01*
X1076412Y690419D01*
X1076423Y690404D01*
X1076442Y690367D01*
X1076472Y690318D01*
X1076499Y690258D01*
X1076528Y690198D01*
X1076555Y690134D01*
X1076577Y690071D01*
X1076581Y690063D01*
X1076585Y690040D01*
X1076592Y690007D01*
X1076604Y689962D01*
X1076611Y689906D01*
X1076618Y689838D01*
X1076622Y689767D01*
X1076626Y689684D01*
Y689677D01*
Y689654D01*
X1076622Y689624D01*
X1076615Y689579D01*
X1076607Y689531D01*
X1076592Y689474D01*
X1076573Y689410D01*
X1076547Y689347D01*
X1076544Y689339D01*
X1076536Y689328D01*
X1076525Y689309D01*
X1076510Y689279D01*
X1076499Y689257D01*
X1076484Y689234D01*
X1076468Y689208D01*
X1076450Y689174D01*
X1076431Y689141D01*
X1076408Y689099D01*
X1076405Y689096D01*
X1076397Y689084D01*
X1076386Y689062D01*
X1076371Y689039D01*
X1076352Y689006D01*
X1076330Y688968D01*
X1076303Y688927D01*
X1076277Y688882D01*
X1076213Y688784D01*
X1076142Y688683D01*
X1076067Y688582D01*
X1075988Y688484D01*
X1075985Y688481D01*
X1075981Y688469D01*
X1075970Y688454D01*
X1075955Y688432D01*
X1075936Y688406D01*
X1075914Y688376D01*
X1075861Y688304D01*
X1075801Y688222D01*
X1075733Y688139D01*
X1075662Y688057D01*
X1075591Y687982D01*
X1076555D01*
Y687239D01*
X1074252D01*
X1075838Y689598D01*
X1075842Y689602D01*
X1075846Y689609D01*
X1075854Y689624D01*
X1075861Y689643D01*
X1075869Y689666D01*
X1075876Y689696D01*
X1075883Y689726D01*
Y689759D01*
Y689763D01*
Y689767D01*
X1075880Y689789D01*
X1075876Y689823D01*
X1075869Y689864D01*
X1075850Y689917D01*
X1075827Y689973D01*
X1075797Y690033D01*
X1075752Y690093D01*
Y690097D01*
X1075745Y690101D01*
X1075730Y690119D01*
X1075704Y690146D01*
X1075670Y690179D01*
X1075628Y690213D01*
X1075580Y690247D01*
X1075527Y690273D01*
X1075471Y690288D01*
X1075467D01*
X1075452Y690292D01*
X1075430D01*
X1075407Y690296D01*
X1075403D01*
X1075389Y690299D01*
X1075366Y690303D01*
X1075317D01*
X1075291Y690299D01*
X1075253Y690296D01*
X1075212Y690284D01*
X1075163Y690273D01*
X1075119Y690254D01*
X1075070Y690232D01*
X1075066Y690228D01*
X1075051Y690217D01*
X1075029Y690202D01*
X1074998Y690179D01*
X1074969Y690149D01*
X1074938Y690112D01*
X1074905Y690067D01*
X1074879Y690014D01*
Y690010D01*
X1074875Y690003D01*
X1074867Y689992D01*
X1074860Y689973D01*
X1074845Y689928D01*
X1074830Y689876D01*
Y689872D01*
X1074826Y689864D01*
Y689849D01*
X1074822Y689831D01*
X1074819Y689782D01*
X1074815Y689729D01*
Y689722D01*
Y689699D01*
X1074819Y689669D01*
X1074826Y689628D01*
X1074837Y689576D01*
X1074852Y689519D01*
X1074871Y689459D01*
X1074901Y689399D01*
X1074905Y689392D01*
X1074912Y689384D01*
X1074920Y689369D01*
X1074935Y689351D01*
X1074950Y689328D01*
X1074969Y689298D01*
X1074991Y689260D01*
X1074560Y688844D01*
X1074556Y688848D01*
X1074545Y688856D01*
X1074526Y688871D01*
X1074507Y688889D01*
X1074470Y688923D01*
X1074455Y688938D01*
X1074444Y688953D01*
X1074436Y688961D01*
X1074417Y688979D01*
X1074391Y689006D01*
X1074357Y689039D01*
X1074323Y689081D01*
X1074290Y689118D01*
X1074260Y689159D01*
X1074237Y689193D01*
Y689197D01*
X1074230Y689204D01*
X1074222Y689223D01*
X1074211Y689242D01*
X1074200Y689268D01*
X1074189Y689298D01*
X1074174Y689332D01*
X1074158Y689373D01*
X1074129Y689459D01*
X1074106Y689553D01*
X1074087Y689658D01*
X1074080Y689763D01*
Y689767D01*
Y689778D01*
Y689793D01*
X1074084Y689816D01*
Y689842D01*
X1074087Y689876D01*
X1074095Y689909D01*
X1074102Y689951D01*
X1074121Y690040D01*
X1074151Y690138D01*
X1074196Y690243D01*
X1074222Y690299D01*
X1074252Y690352D01*
Y690356D01*
X1074260Y690363D01*
X1074267Y690374D01*
X1074279Y690389D01*
X1074305Y690431D01*
X1074342Y690483D01*
X1074384Y690539D01*
X1074425Y690596D01*
X1074466Y690648D01*
X1074507Y690693D01*
X1074515Y690701D01*
X1074533Y690716D01*
X1074564Y690742D01*
X1074601Y690772D01*
X1074650Y690806D01*
X1074710Y690839D01*
X1074774Y690877D01*
X1074845Y690907D01*
X1074848D01*
X1074852Y690910D01*
X1074864Y690914D01*
X1074879Y690918D01*
X1074920Y690933D01*
X1074972Y690948D01*
X1075032Y690959D01*
X1075103Y690974D01*
X1075179Y690982D01*
X1075253Y690985D01*
X1075441D01*
X1075460Y690982D01*
D02*
G37*
G36*
X1070427Y687239D02*
X1070157D01*
X1071526Y690974D01*
X1071800Y690982D01*
X1070427Y687239D01*
D02*
G37*
G36*
X1062451D02*
X1061705D01*
Y690978D01*
X1062451D01*
Y687239D01*
D02*
G37*
G36*
X1054077Y690221D02*
X1053095D01*
X1053072Y690217D01*
X1053024Y690213D01*
X1052971Y690202D01*
X1052967D01*
X1052960Y690198D01*
X1052948Y690194D01*
X1052934Y690187D01*
X1052896Y690161D01*
X1052874Y690146D01*
X1052855Y690123D01*
X1052851Y690119D01*
X1052843Y690108D01*
X1052832Y690093D01*
X1052817Y690071D01*
X1052802Y690040D01*
X1052791Y690007D01*
X1052783Y689969D01*
X1052780Y689928D01*
Y689452D01*
X1054070D01*
Y688732D01*
X1052780D01*
Y688323D01*
Y688319D01*
Y688304D01*
Y688285D01*
Y688259D01*
X1052783Y688207D01*
Y688181D01*
X1052787Y688162D01*
Y688158D01*
X1052791Y688154D01*
X1052798Y688132D01*
X1052814Y688102D01*
X1052840Y688064D01*
X1052843Y688061D01*
X1052855Y688049D01*
X1052874Y688031D01*
X1052896Y688016D01*
X1052926Y687997D01*
X1052964Y687978D01*
X1053001Y687967D01*
X1053046Y687963D01*
X1054077D01*
Y687221D01*
X1053117D01*
X1053091Y687224D01*
X1053065D01*
X1052997Y687232D01*
X1052926Y687239D01*
X1052843Y687254D01*
X1052765Y687273D01*
X1052686Y687299D01*
X1052682D01*
X1052678Y687303D01*
X1052667Y687307D01*
X1052652Y687314D01*
X1052615Y687333D01*
X1052562Y687363D01*
X1052506Y687401D01*
X1052442Y687449D01*
X1052371Y687509D01*
X1052304Y687577D01*
Y687581D01*
X1052296Y687584D01*
X1052281Y687607D01*
X1052251Y687637D01*
X1052221Y687678D01*
X1052184Y687727D01*
X1052150Y687783D01*
X1052116Y687839D01*
X1052086Y687899D01*
X1052082Y687907D01*
X1052075Y687926D01*
X1052063Y687959D01*
X1052052Y688004D01*
X1052041Y688061D01*
X1052030Y688124D01*
X1052022Y688192D01*
X1052019Y688271D01*
Y689973D01*
Y689977D01*
Y689981D01*
Y689992D01*
Y690007D01*
X1052022Y690044D01*
X1052026Y690093D01*
X1052034Y690149D01*
X1052048Y690206D01*
X1052063Y690269D01*
X1052086Y690326D01*
X1052090Y690333D01*
X1052097Y690352D01*
X1052116Y690382D01*
X1052139Y690419D01*
X1052168Y690468D01*
X1052206Y690521D01*
X1052251Y690577D01*
X1052304Y690637D01*
X1052307Y690640D01*
X1052311Y690644D01*
X1052330Y690663D01*
X1052360Y690693D01*
X1052401Y690731D01*
X1052450Y690768D01*
X1052506Y690809D01*
X1052562Y690851D01*
X1052626Y690884D01*
X1052633Y690888D01*
X1052652Y690896D01*
X1052682Y690910D01*
X1052724Y690926D01*
X1052776Y690937D01*
X1052836Y690952D01*
X1052907Y690959D01*
X1052982Y690963D01*
X1054077D01*
Y690221D01*
D02*
G37*
G36*
X1078865Y690941D02*
X1078891D01*
X1078917Y690937D01*
X1078951D01*
X1079026Y690926D01*
X1079112Y690914D01*
X1079206Y690896D01*
X1079311Y690869D01*
X1079420Y690839D01*
X1079536Y690802D01*
X1079652Y690753D01*
X1079768Y690697D01*
X1079885Y690629D01*
X1079997Y690551D01*
X1080106Y690461D01*
X1080207Y690356D01*
X1080211Y690348D01*
X1080226Y690333D01*
X1080252Y690303D01*
X1080282Y690262D01*
X1080316Y690209D01*
X1080357Y690149D01*
X1080398Y690074D01*
X1080443Y689996D01*
X1080488Y689906D01*
X1080530Y689808D01*
X1080571Y689703D01*
X1080605Y689587D01*
X1080635Y689467D01*
X1080661Y689339D01*
X1080676Y689208D01*
X1080680Y689069D01*
Y689066D01*
Y689062D01*
Y689051D01*
Y689036D01*
X1080676Y688994D01*
X1080672Y688942D01*
X1080665Y688878D01*
X1080653Y688803D01*
X1080642Y688717D01*
X1080620Y688623D01*
X1080597Y688526D01*
X1080567Y688424D01*
X1080526Y688316D01*
X1080481Y688207D01*
X1080429Y688098D01*
X1080365Y687989D01*
X1080293Y687884D01*
X1080211Y687783D01*
X1080204Y687776D01*
X1080188Y687757D01*
X1080159Y687731D01*
X1080117Y687693D01*
X1080065Y687648D01*
X1080001Y687599D01*
X1079926Y687547D01*
X1079840Y687491D01*
X1079746Y687434D01*
X1079637Y687382D01*
X1079525Y687333D01*
X1079397Y687288D01*
X1079262Y687251D01*
X1079120Y687224D01*
X1078966Y687206D01*
X1078805Y687198D01*
X1078767D01*
X1078745Y687202D01*
X1078718D01*
X1078692Y687206D01*
X1078658D01*
X1078584Y687217D01*
X1078497Y687228D01*
X1078403Y687247D01*
X1078298Y687273D01*
X1078190Y687303D01*
X1078074Y687341D01*
X1077957Y687389D01*
X1077841Y687446D01*
X1077725Y687513D01*
X1077612Y687592D01*
X1077507Y687682D01*
X1077406Y687783D01*
X1077402Y687790D01*
X1077387Y687809D01*
X1077365Y687836D01*
X1077335Y687877D01*
X1077297Y687929D01*
X1077260Y687993D01*
X1077219Y688064D01*
X1077174Y688147D01*
X1077129Y688237D01*
X1077087Y688334D01*
X1077050Y688439D01*
X1077012Y688556D01*
X1076982Y688676D01*
X1076960Y688807D01*
X1076945Y688942D01*
X1076941Y689081D01*
Y689084D01*
Y689088D01*
Y689099D01*
Y689114D01*
X1076945Y689156D01*
X1076949Y689208D01*
X1076956Y689272D01*
X1076967Y689347D01*
X1076978Y689433D01*
X1076997Y689523D01*
X1077024Y689621D01*
X1077054Y689726D01*
X1077091Y689831D01*
X1077136Y689939D01*
X1077188Y690048D01*
X1077248Y690153D01*
X1077320Y690258D01*
X1077402Y690359D01*
X1077410Y690367D01*
X1077425Y690385D01*
X1077455Y690412D01*
X1077496Y690449D01*
X1077549Y690494D01*
X1077612Y690543D01*
X1077687Y690596D01*
X1077773Y690652D01*
X1077867Y690708D01*
X1077972Y690761D01*
X1078088Y690809D01*
X1078212Y690854D01*
X1078347Y690892D01*
X1078490Y690918D01*
X1078644Y690937D01*
X1078805Y690944D01*
X1078842D01*
X1078865Y690941D01*
D02*
G37*
G36*
X1065822Y690941D02*
X1065849D01*
X1065875Y690937D01*
X1065909D01*
X1065983Y690926D01*
X1066070Y690914D01*
X1066164Y690896D01*
X1066269Y690869D01*
X1066377Y690839D01*
X1066494Y690802D01*
X1066610Y690753D01*
X1066726Y690697D01*
X1066842Y690629D01*
X1066955Y690551D01*
X1067064Y690460D01*
X1067165Y690356D01*
X1067169Y690348D01*
X1067183Y690333D01*
X1067210Y690303D01*
X1067240Y690262D01*
X1067274Y690209D01*
X1067315Y690149D01*
X1067356Y690074D01*
X1067401Y689996D01*
X1067446Y689906D01*
X1067487Y689808D01*
X1067529Y689703D01*
X1067562Y689587D01*
X1067592Y689467D01*
X1067618Y689339D01*
X1067634Y689208D01*
X1067637Y689069D01*
Y689066D01*
Y689062D01*
Y689051D01*
Y689036D01*
X1067634Y688994D01*
X1067630Y688942D01*
X1067622Y688878D01*
X1067611Y688803D01*
X1067600Y688717D01*
X1067577Y688623D01*
X1067555Y688526D01*
X1067525Y688424D01*
X1067484Y688315D01*
X1067439Y688207D01*
X1067386Y688098D01*
X1067322Y687989D01*
X1067251Y687884D01*
X1067169Y687783D01*
X1067161Y687776D01*
X1067146Y687757D01*
X1067116Y687731D01*
X1067075Y687693D01*
X1067022Y687648D01*
X1066959Y687599D01*
X1066883Y687547D01*
X1066797Y687491D01*
X1066704Y687434D01*
X1066595Y687382D01*
X1066482Y687333D01*
X1066355Y687288D01*
X1066220Y687251D01*
X1066077Y687224D01*
X1065924Y687206D01*
X1065762Y687198D01*
X1065725D01*
X1065702Y687202D01*
X1065676D01*
X1065650Y687206D01*
X1065616D01*
X1065541Y687217D01*
X1065455Y687228D01*
X1065361Y687247D01*
X1065256Y687273D01*
X1065147Y687303D01*
X1065031Y687340D01*
X1064915Y687389D01*
X1064799Y687446D01*
X1064682Y687513D01*
X1064570Y687592D01*
X1064465Y687682D01*
X1064363Y687783D01*
X1064360Y687790D01*
X1064345Y687809D01*
X1064322Y687836D01*
X1064292Y687877D01*
X1064255Y687929D01*
X1064217Y687993D01*
X1064176Y688064D01*
X1064131Y688147D01*
X1064086Y688237D01*
X1064045Y688334D01*
X1064007Y688439D01*
X1063970Y688556D01*
X1063940Y688676D01*
X1063917Y688807D01*
X1063902Y688942D01*
X1063898Y689081D01*
Y689084D01*
Y689088D01*
Y689099D01*
Y689114D01*
X1063902Y689156D01*
X1063906Y689208D01*
X1063914Y689272D01*
X1063925Y689347D01*
X1063936Y689433D01*
X1063955Y689523D01*
X1063981Y689621D01*
X1064011Y689726D01*
X1064048Y689831D01*
X1064093Y689939D01*
X1064146Y690048D01*
X1064206Y690153D01*
X1064277Y690258D01*
X1064360Y690359D01*
X1064367Y690367D01*
X1064382Y690385D01*
X1064412Y690412D01*
X1064454Y690449D01*
X1064506Y690494D01*
X1064570Y690543D01*
X1064645Y690596D01*
X1064731Y690652D01*
X1064825Y690708D01*
X1064930Y690761D01*
X1065046Y690809D01*
X1065170Y690854D01*
X1065305Y690892D01*
X1065447Y690918D01*
X1065601Y690937D01*
X1065762Y690944D01*
X1065800D01*
X1065822Y690941D01*
D02*
G37*
%LPC*%
G36*
X1059175Y706541D02*
X1058900D01*
Y706524D01*
X1058814D01*
Y706507D01*
X1058745D01*
Y706489D01*
X1058694D01*
Y706472D01*
X1058642D01*
Y706455D01*
X1058607D01*
Y706438D01*
X1058573D01*
Y706421D01*
X1058539D01*
Y706403D01*
X1058504D01*
Y706386D01*
X1058470D01*
Y706369D01*
X1058453D01*
Y706352D01*
X1058436D01*
Y706335D01*
X1058401D01*
Y706317D01*
X1058384D01*
Y706300D01*
X1058367D01*
Y706283D01*
X1058350D01*
Y706266D01*
X1058332D01*
Y706249D01*
X1058315D01*
Y706231D01*
X1058298D01*
Y706214D01*
X1058281D01*
Y706197D01*
X1058263D01*
Y706180D01*
X1058246D01*
Y706163D01*
X1058229D01*
Y706145D01*
X1058212D01*
Y706128D01*
X1058195D01*
Y706111D01*
X1058177D01*
Y706077D01*
X1058160D01*
Y706059D01*
X1058143D01*
Y706025D01*
X1058126D01*
Y706008D01*
X1058109D01*
Y705973D01*
X1058092D01*
Y705956D01*
X1058074D01*
Y705922D01*
X1058057D01*
Y705887D01*
X1058040D01*
Y705853D01*
X1058023D01*
Y705819D01*
X1058006D01*
Y705767D01*
X1057988D01*
Y705715D01*
X1057971D01*
Y705664D01*
X1057954D01*
Y705612D01*
X1057937D01*
Y705526D01*
X1057920D01*
Y705440D01*
X1057902D01*
Y705234D01*
X1057885D01*
Y705114D01*
X1057902D01*
Y704924D01*
X1057920D01*
Y704838D01*
X1057937D01*
Y704770D01*
X1057954D01*
Y704701D01*
X1057971D01*
Y704649D01*
X1057988D01*
Y704615D01*
X1058006D01*
Y704563D01*
X1058023D01*
Y704529D01*
X1058040D01*
Y704494D01*
X1058057D01*
Y704477D01*
X1058074D01*
Y704443D01*
X1058092D01*
Y704425D01*
X1058109D01*
Y704391D01*
X1058126D01*
Y704374D01*
X1058143D01*
Y704340D01*
X1058160D01*
Y704322D01*
X1058177D01*
Y704305D01*
X1058195D01*
Y704288D01*
X1058212D01*
Y704271D01*
X1058229D01*
Y704253D01*
X1058246D01*
Y704236D01*
X1058263D01*
Y704219D01*
X1058281D01*
Y704202D01*
X1058298D01*
Y704185D01*
X1058315D01*
Y704168D01*
X1058350D01*
Y704150D01*
X1058367D01*
Y704133D01*
X1058384D01*
Y704116D01*
X1058418D01*
Y704099D01*
X1058453D01*
Y704081D01*
X1058470D01*
Y704064D01*
X1058504D01*
Y704047D01*
X1058556D01*
Y704030D01*
X1058590D01*
Y704013D01*
X1058642D01*
Y703996D01*
X1058694D01*
Y703978D01*
X1058762D01*
Y703961D01*
X1058883D01*
Y703944D01*
X1059158D01*
Y703961D01*
X1059261D01*
Y703978D01*
X1059330D01*
Y703996D01*
X1059381D01*
Y704013D01*
X1059433D01*
Y704030D01*
X1059468D01*
Y704047D01*
X1059502D01*
Y704064D01*
X1059536D01*
Y704081D01*
X1059571D01*
Y704099D01*
X1059605D01*
Y704116D01*
X1059622D01*
Y704133D01*
X1059657D01*
Y704150D01*
X1059674D01*
Y704168D01*
X1059691D01*
Y704185D01*
X1059725D01*
Y704202D01*
X1059743D01*
Y704219D01*
X1059760D01*
Y704236D01*
X1059777D01*
Y704253D01*
X1059794D01*
Y704271D01*
X1059811D01*
Y704288D01*
X1059829D01*
Y704305D01*
X1059846D01*
Y704322D01*
X1059863D01*
Y704340D01*
X1059880D01*
Y704357D01*
X1059898D01*
Y704374D01*
X1059915D01*
Y704408D01*
X1059932D01*
Y704425D01*
X1059949D01*
Y704443D01*
X1059966D01*
Y704477D01*
X1059983D01*
Y704494D01*
X1060001D01*
Y704529D01*
X1060018D01*
Y704546D01*
X1060035D01*
Y704580D01*
X1060052D01*
Y704615D01*
X1060069D01*
Y704649D01*
X1060087D01*
Y704683D01*
X1060104D01*
Y704718D01*
X1060121D01*
Y704770D01*
X1060138D01*
Y704821D01*
X1060155D01*
Y704873D01*
X1060173D01*
Y704942D01*
X1060190D01*
Y704976D01*
Y704993D01*
Y705045D01*
X1060207D01*
Y705217D01*
X1060224D01*
Y705337D01*
X1060207D01*
Y705492D01*
X1060190D01*
Y705578D01*
X1060173D01*
Y705647D01*
X1060155D01*
Y705698D01*
X1060138D01*
Y705750D01*
X1060121D01*
Y705784D01*
X1060104D01*
Y705836D01*
X1060087D01*
Y705870D01*
X1060069D01*
Y705905D01*
X1060052D01*
Y705922D01*
X1060035D01*
Y705956D01*
X1060018D01*
Y705973D01*
X1060001D01*
Y706008D01*
X1059983D01*
Y706025D01*
X1059966D01*
Y706059D01*
X1059949D01*
Y706077D01*
X1059932D01*
Y706094D01*
X1059915D01*
Y706111D01*
X1059898D01*
Y706145D01*
X1059880D01*
Y706163D01*
X1059863D01*
Y706180D01*
X1059846D01*
Y706197D01*
X1059829D01*
Y706214D01*
X1059811D01*
Y706231D01*
X1059794D01*
Y706249D01*
X1059777D01*
Y706266D01*
X1059743D01*
Y706283D01*
X1059725D01*
Y706300D01*
X1059708D01*
Y706317D01*
X1059691D01*
Y706335D01*
X1059657D01*
Y706352D01*
X1059639D01*
Y706369D01*
X1059605D01*
Y706386D01*
X1059588D01*
Y706403D01*
X1059554D01*
Y706421D01*
X1059519D01*
Y706438D01*
X1059485D01*
Y706455D01*
X1059450D01*
Y706472D01*
X1059399D01*
Y706489D01*
X1059347D01*
Y706507D01*
X1059278D01*
Y706524D01*
X1059175D01*
Y706541D01*
D02*
G37*
G36*
X1074104D02*
X1073829D01*
Y706524D01*
X1073725D01*
Y706507D01*
X1073657D01*
Y706489D01*
X1073605D01*
Y706472D01*
X1073553D01*
Y706455D01*
X1073519D01*
Y706438D01*
X1073485D01*
Y706421D01*
X1073450D01*
Y706403D01*
X1073416D01*
Y706386D01*
X1073382D01*
Y706369D01*
X1073364D01*
Y706352D01*
X1073330D01*
Y706335D01*
X1073313D01*
Y706317D01*
X1073295D01*
Y706300D01*
X1073261D01*
Y706283D01*
X1073244D01*
Y706266D01*
X1073227D01*
Y706249D01*
X1073209D01*
Y706231D01*
X1073192D01*
Y706214D01*
X1073175D01*
Y706197D01*
X1073158D01*
Y706180D01*
X1073141D01*
Y706163D01*
X1073123D01*
Y706145D01*
X1073106D01*
Y706111D01*
X1073089D01*
Y706094D01*
X1073072D01*
Y706077D01*
X1073055D01*
Y706042D01*
X1073038D01*
Y706025D01*
X1073020D01*
Y705991D01*
X1073003D01*
Y705956D01*
X1072986D01*
Y705939D01*
X1072969D01*
Y705905D01*
X1072952D01*
Y705853D01*
X1072934D01*
Y705819D01*
X1072917D01*
Y705767D01*
X1072900D01*
Y705715D01*
X1072883D01*
Y705647D01*
X1072865D01*
Y705578D01*
X1072848D01*
Y705457D01*
X1072831D01*
Y705045D01*
X1072848D01*
Y704942D01*
X1072865D01*
Y704873D01*
X1072883D01*
Y704804D01*
X1072900D01*
Y704752D01*
X1072917D01*
Y704701D01*
X1072934D01*
Y704666D01*
X1072952D01*
Y704632D01*
X1072969D01*
Y704598D01*
X1072986D01*
Y704563D01*
X1073003D01*
Y704529D01*
X1073020D01*
Y704511D01*
X1073038D01*
Y704477D01*
X1073055D01*
Y704460D01*
X1073072D01*
Y704425D01*
X1073089D01*
Y704408D01*
X1073106D01*
Y704391D01*
X1073123D01*
Y704357D01*
X1073141D01*
Y704340D01*
X1073158D01*
Y704322D01*
X1073175D01*
Y704305D01*
X1073192D01*
Y704288D01*
X1073209D01*
Y704271D01*
X1073227D01*
Y704253D01*
X1073244D01*
Y704236D01*
X1073261D01*
Y704219D01*
X1073278D01*
Y704202D01*
X1073313D01*
Y704185D01*
X1073330D01*
Y704168D01*
X1073347D01*
Y704150D01*
X1073382D01*
Y704133D01*
X1073399D01*
Y704116D01*
X1073433D01*
Y704099D01*
X1073450D01*
Y704081D01*
X1073485D01*
Y704064D01*
X1073519D01*
Y704047D01*
X1073571D01*
Y704030D01*
X1073605D01*
Y704013D01*
X1073657D01*
Y703996D01*
X1073708D01*
Y703978D01*
X1073794D01*
Y703961D01*
X1073897D01*
Y703944D01*
X1074173D01*
Y703961D01*
X1074276D01*
Y703978D01*
X1074345D01*
Y703996D01*
X1074396D01*
Y704013D01*
X1074448D01*
Y704030D01*
X1074482D01*
Y704047D01*
X1074517D01*
Y704064D01*
X1074551D01*
Y704081D01*
X1074585D01*
Y704099D01*
X1074603D01*
Y704116D01*
X1074637D01*
Y704133D01*
X1074654D01*
Y704150D01*
X1074671D01*
Y704168D01*
X1074706D01*
Y704185D01*
X1074723D01*
Y704202D01*
X1074740D01*
Y704219D01*
X1074757D01*
Y704236D01*
X1074775D01*
Y704253D01*
X1074792D01*
Y704271D01*
X1074809D01*
Y704288D01*
X1074826D01*
Y704305D01*
X1074843D01*
Y704322D01*
X1074861D01*
Y704357D01*
X1074878D01*
Y704374D01*
X1074895D01*
Y704391D01*
X1074912D01*
Y704425D01*
X1074929D01*
Y704443D01*
X1074947D01*
Y704477D01*
X1074964D01*
Y704494D01*
X1074981D01*
Y704529D01*
X1074998D01*
Y704563D01*
X1075015D01*
Y704598D01*
X1075033D01*
Y704632D01*
X1075050D01*
Y704683D01*
X1075067D01*
Y704735D01*
X1075084D01*
Y704787D01*
X1075101D01*
Y704855D01*
X1075119D01*
Y704942D01*
X1075136D01*
Y705062D01*
X1075153D01*
Y705096D01*
Y705114D01*
Y705372D01*
X1075136D01*
Y705492D01*
X1075119D01*
Y705578D01*
X1075101D01*
Y705647D01*
X1075084D01*
Y705698D01*
X1075067D01*
Y705733D01*
X1075050D01*
Y705784D01*
X1075033D01*
Y705819D01*
X1075015D01*
Y705853D01*
X1074998D01*
Y705887D01*
X1074981D01*
Y705922D01*
X1074964D01*
Y705956D01*
X1074947D01*
Y705973D01*
X1074929D01*
Y706008D01*
X1074912D01*
Y706025D01*
X1074895D01*
Y706042D01*
X1074878D01*
Y706077D01*
X1074861D01*
Y706094D01*
X1074843D01*
Y706111D01*
X1074826D01*
Y706128D01*
X1074809D01*
Y706163D01*
X1074792D01*
Y706180D01*
X1074775D01*
Y706197D01*
X1074757D01*
Y706214D01*
X1074740D01*
Y706231D01*
X1074723D01*
Y706249D01*
X1074706D01*
Y706266D01*
X1074671D01*
Y706283D01*
X1074654D01*
Y706300D01*
X1074637D01*
Y706317D01*
X1074620D01*
Y706335D01*
X1074585D01*
Y706352D01*
X1074568D01*
Y706369D01*
X1074551D01*
Y706386D01*
X1074517D01*
Y706403D01*
X1074482D01*
Y706421D01*
X1074448D01*
Y706438D01*
X1074413D01*
Y706455D01*
X1074379D01*
Y706472D01*
X1074327D01*
Y706489D01*
X1074276D01*
Y706507D01*
X1074207D01*
Y706524D01*
X1074104D01*
Y706541D01*
D02*
G37*
G36*
X1080433Y714177D02*
X1080210D01*
Y714160D01*
X1080089D01*
Y714143D01*
X1080003D01*
Y714126D01*
X1079934D01*
Y714109D01*
X1079900D01*
Y714091D01*
X1079848D01*
Y714074D01*
X1079814D01*
Y714057D01*
X1079780D01*
Y714040D01*
X1079745D01*
Y714023D01*
X1079711D01*
Y714005D01*
X1079676D01*
Y713988D01*
X1079659D01*
Y713971D01*
X1079625D01*
Y713954D01*
X1079607D01*
Y713937D01*
X1079573D01*
Y713919D01*
X1079556D01*
Y713902D01*
X1079539D01*
Y713885D01*
X1079521D01*
Y713868D01*
X1079504D01*
Y713851D01*
X1079470D01*
Y713833D01*
X1079453D01*
Y713816D01*
X1079436D01*
Y713799D01*
X1079418D01*
Y713782D01*
X1079401D01*
Y713765D01*
X1079384D01*
Y713730D01*
X1079367D01*
Y713713D01*
X1079350D01*
Y713696D01*
X1079332D01*
Y713679D01*
X1079315D01*
Y713644D01*
X1079298D01*
Y713627D01*
X1079281D01*
Y713610D01*
X1079263D01*
Y713575D01*
X1079246D01*
Y713541D01*
X1079229D01*
Y713507D01*
X1079212D01*
Y713472D01*
X1079195D01*
Y713438D01*
X1079177D01*
Y713403D01*
X1079160D01*
Y713352D01*
X1079143D01*
Y713283D01*
X1079126D01*
Y713180D01*
X1079109D01*
Y712887D01*
X1079126D01*
Y712784D01*
X1079143D01*
Y712715D01*
X1079160D01*
Y712664D01*
X1079177D01*
Y712612D01*
X1079195D01*
Y712578D01*
X1079212D01*
Y712543D01*
X1079229D01*
Y712509D01*
X1079246D01*
Y712475D01*
X1079263D01*
Y712440D01*
X1079281D01*
Y712406D01*
X1079298D01*
Y712389D01*
X1079315D01*
Y712371D01*
X1079332D01*
Y712337D01*
X1079350D01*
Y712320D01*
X1079367D01*
Y712303D01*
X1079384D01*
Y712286D01*
X1079401D01*
Y712251D01*
X1079418D01*
Y712234D01*
X1079436D01*
Y712217D01*
X1079453D01*
Y712199D01*
X1079470D01*
Y712182D01*
X1079487D01*
Y712165D01*
X1079521D01*
Y712148D01*
X1079539D01*
Y712131D01*
X1079556D01*
Y712114D01*
X1079573D01*
Y712096D01*
X1079607D01*
Y712079D01*
X1079625D01*
Y712062D01*
X1079642D01*
Y712045D01*
X1079676D01*
Y712028D01*
X1079711D01*
Y712010D01*
X1079745D01*
Y711993D01*
X1079762D01*
Y711976D01*
X1079797D01*
Y711959D01*
X1079848D01*
Y711941D01*
X1079883D01*
Y711924D01*
X1079934D01*
Y711907D01*
X1080003D01*
Y711890D01*
X1080072D01*
Y711873D01*
X1080210D01*
Y711856D01*
X1080433D01*
Y711873D01*
X1080571D01*
Y711890D01*
X1080657D01*
Y711907D01*
X1080708D01*
Y711924D01*
X1080760D01*
Y711941D01*
X1080811D01*
Y711959D01*
X1080846D01*
Y711976D01*
X1080880D01*
Y711993D01*
X1080915D01*
Y712010D01*
X1080949D01*
Y712028D01*
X1080966D01*
Y712045D01*
X1081001D01*
Y712062D01*
X1081018D01*
Y712079D01*
X1081052D01*
Y712096D01*
X1081069D01*
Y712114D01*
X1081087D01*
Y712131D01*
X1081121D01*
Y712148D01*
X1081138D01*
Y712165D01*
X1081155D01*
Y712182D01*
X1081173D01*
Y712199D01*
X1081190D01*
Y712217D01*
X1081207D01*
Y712234D01*
X1081224D01*
Y712251D01*
X1081241D01*
Y712268D01*
X1081259D01*
Y712286D01*
X1081276D01*
Y712303D01*
X1081293D01*
Y712320D01*
X1081310D01*
Y712354D01*
X1081327D01*
Y712371D01*
X1081345D01*
Y712406D01*
X1081362D01*
Y712423D01*
X1081379D01*
Y712457D01*
X1081396D01*
Y712475D01*
X1081413D01*
Y712509D01*
X1081431D01*
Y712543D01*
X1081448D01*
Y712578D01*
X1081465D01*
Y712629D01*
X1081482D01*
Y712664D01*
X1081499D01*
Y712733D01*
X1081517D01*
Y712801D01*
X1081534D01*
Y712956D01*
X1081551D01*
Y713094D01*
X1081534D01*
Y713231D01*
X1081517D01*
Y713317D01*
X1081499D01*
Y713369D01*
X1081482D01*
Y713421D01*
X1081465D01*
Y713455D01*
X1081448D01*
Y713489D01*
X1081431D01*
Y713524D01*
X1081413D01*
Y713558D01*
X1081396D01*
Y713593D01*
X1081379D01*
Y713610D01*
X1081362D01*
Y713644D01*
X1081345D01*
Y713661D01*
X1081327D01*
Y713696D01*
X1081310D01*
Y713713D01*
X1081293D01*
Y713730D01*
X1081276D01*
Y713747D01*
X1081259D01*
Y713765D01*
X1081241D01*
Y713782D01*
X1081224D01*
Y713799D01*
X1081207D01*
Y713816D01*
X1081190D01*
Y713833D01*
X1081173D01*
Y713851D01*
X1081155D01*
Y713868D01*
X1081138D01*
Y713885D01*
X1081121D01*
Y713902D01*
X1081104D01*
Y713919D01*
X1081069D01*
Y713937D01*
X1081052D01*
Y713954D01*
X1081035D01*
Y713971D01*
X1081001D01*
Y713988D01*
X1080966D01*
Y714005D01*
X1080949D01*
Y714023D01*
X1080915D01*
Y714040D01*
X1080880D01*
Y714057D01*
X1080846D01*
Y714074D01*
X1080811D01*
Y714091D01*
X1080760D01*
Y714109D01*
X1080708D01*
Y714126D01*
X1080657D01*
Y714143D01*
X1080571D01*
Y714160D01*
X1080433D01*
Y714177D01*
D02*
G37*
G36*
X1085524Y714194D02*
X1085283D01*
Y714177D01*
X1085163D01*
Y714160D01*
X1085077D01*
Y714143D01*
X1085025D01*
Y714126D01*
X1084974D01*
Y714109D01*
X1084922D01*
Y714091D01*
X1084888D01*
Y714074D01*
X1084853D01*
Y714057D01*
X1084819D01*
Y714040D01*
X1084784D01*
Y714023D01*
X1084767D01*
Y714005D01*
X1084733D01*
Y713988D01*
X1084698D01*
Y713971D01*
X1084681D01*
Y713954D01*
X1084664D01*
Y713937D01*
X1084630D01*
Y713919D01*
X1084612D01*
Y713902D01*
X1084595D01*
Y713885D01*
X1084578D01*
Y713868D01*
X1084561D01*
Y713851D01*
X1084544D01*
Y713833D01*
X1084526D01*
Y713816D01*
X1084509D01*
Y713799D01*
X1084492D01*
Y713782D01*
X1084475D01*
Y713765D01*
X1084458D01*
Y713747D01*
X1084440D01*
Y713730D01*
X1084423D01*
Y713713D01*
X1084406D01*
Y713679D01*
X1084389D01*
Y713661D01*
X1084372D01*
Y713627D01*
X1084354D01*
Y713610D01*
X1084337D01*
Y713575D01*
X1084320D01*
Y713541D01*
X1084303D01*
Y713524D01*
X1084286D01*
Y713489D01*
X1084268D01*
Y713438D01*
X1084251D01*
Y713403D01*
X1084234D01*
Y713352D01*
X1084217D01*
Y713283D01*
X1084200D01*
Y713180D01*
X1084182D01*
Y712887D01*
X1084200D01*
Y712784D01*
X1084217D01*
Y712715D01*
X1084234D01*
Y712664D01*
X1084251D01*
Y712612D01*
X1084268D01*
Y712578D01*
X1084286D01*
Y712543D01*
X1084303D01*
Y712509D01*
X1084320D01*
Y712475D01*
X1084337D01*
Y712440D01*
X1084354D01*
Y712423D01*
X1084372D01*
Y712389D01*
X1084389D01*
Y712371D01*
X1084406D01*
Y712354D01*
X1084423D01*
Y712337D01*
X1084440D01*
Y712303D01*
X1084458D01*
Y712286D01*
X1084475D01*
Y712268D01*
X1084492D01*
Y712251D01*
X1084509D01*
Y712234D01*
X1084526D01*
Y712217D01*
X1084544D01*
Y712199D01*
X1084561D01*
Y712182D01*
X1084578D01*
Y712165D01*
X1084612D01*
Y712148D01*
X1084630D01*
Y712131D01*
X1084647D01*
Y712114D01*
X1084681D01*
Y712096D01*
X1084698D01*
Y712079D01*
X1084733D01*
Y712062D01*
X1084750D01*
Y712045D01*
X1084784D01*
Y712028D01*
X1084819D01*
Y712010D01*
X1084853D01*
Y711993D01*
X1084888D01*
Y711976D01*
X1084922D01*
Y711959D01*
X1084974D01*
Y711941D01*
X1085025D01*
Y711924D01*
X1085094D01*
Y711907D01*
X1085180D01*
Y711890D01*
X1085318D01*
Y711873D01*
X1085541D01*
Y711890D01*
X1085679D01*
Y711907D01*
X1085748D01*
Y711924D01*
X1085816D01*
Y711941D01*
X1085868D01*
Y711959D01*
X1085902D01*
Y711976D01*
X1085937D01*
Y711993D01*
X1085971D01*
Y712010D01*
X1086005D01*
Y712028D01*
X1086040D01*
Y712045D01*
X1086074D01*
Y712062D01*
X1086092D01*
Y712079D01*
X1086126D01*
Y712096D01*
X1086143D01*
Y712114D01*
X1086160D01*
Y712131D01*
X1086195D01*
Y712148D01*
X1086212D01*
Y712165D01*
X1086229D01*
Y712182D01*
X1086246D01*
Y712199D01*
X1086263D01*
Y712217D01*
X1086281D01*
Y712234D01*
X1086298D01*
Y712251D01*
X1086315D01*
Y712268D01*
X1086332D01*
Y712286D01*
X1086349D01*
Y712303D01*
X1086367D01*
Y712320D01*
X1086384D01*
Y712354D01*
X1086401D01*
Y712371D01*
X1086418D01*
Y712389D01*
X1086436D01*
Y712423D01*
X1086453D01*
Y712440D01*
X1086470D01*
Y712475D01*
X1086487D01*
Y712509D01*
X1086504D01*
Y712543D01*
X1086522D01*
Y712578D01*
X1086539D01*
Y712612D01*
X1086556D01*
Y712647D01*
X1086573D01*
Y712698D01*
X1086590D01*
Y712767D01*
X1086607D01*
Y712870D01*
X1086625D01*
Y713197D01*
X1086607D01*
Y713300D01*
X1086590D01*
Y713369D01*
X1086573D01*
Y713421D01*
X1086556D01*
Y713455D01*
X1086539D01*
Y713489D01*
X1086522D01*
Y713524D01*
X1086504D01*
Y713558D01*
X1086487D01*
Y713593D01*
X1086470D01*
Y713627D01*
X1086453D01*
Y713644D01*
X1086436D01*
Y713679D01*
X1086418D01*
Y713696D01*
X1086401D01*
Y713713D01*
X1086384D01*
Y713730D01*
X1086367D01*
Y713765D01*
X1086349D01*
Y713782D01*
X1086332D01*
Y713799D01*
X1086315D01*
Y713816D01*
X1086298D01*
Y713833D01*
X1086281D01*
Y713851D01*
X1086263D01*
Y713868D01*
X1086246D01*
Y713885D01*
X1086229D01*
Y713902D01*
X1086195D01*
Y713919D01*
X1086178D01*
Y713937D01*
X1086160D01*
Y713954D01*
X1086143D01*
Y713971D01*
X1086109D01*
Y713988D01*
X1086092D01*
Y714005D01*
X1086057D01*
Y714023D01*
X1086023D01*
Y714040D01*
X1085988D01*
Y714057D01*
X1085971D01*
Y714074D01*
X1085919D01*
Y714091D01*
X1085885D01*
Y714109D01*
X1085851D01*
Y714126D01*
X1085799D01*
Y714143D01*
X1085730D01*
Y714160D01*
X1085644D01*
Y714177D01*
X1085524D01*
Y714194D01*
D02*
G37*
G36*
X1081018Y706696D02*
X1080760D01*
Y706679D01*
X1080639D01*
Y706661D01*
X1080571D01*
Y706644D01*
X1080519D01*
Y706627D01*
X1080467D01*
Y706610D01*
X1080433D01*
Y706593D01*
X1080399D01*
Y706575D01*
X1080364D01*
Y706558D01*
X1080330D01*
Y706541D01*
X1080295D01*
Y706524D01*
X1080261D01*
Y706507D01*
X1080244D01*
Y706489D01*
X1080227D01*
Y706472D01*
X1080192D01*
Y706455D01*
X1080175D01*
Y706438D01*
X1080158D01*
Y706421D01*
X1080124D01*
Y706403D01*
X1080106D01*
Y706386D01*
X1080089D01*
Y706369D01*
X1080072D01*
Y706352D01*
X1080055D01*
Y706335D01*
X1080037D01*
Y706317D01*
X1080020D01*
Y706300D01*
X1080003D01*
Y706283D01*
X1079986D01*
Y706266D01*
X1079969D01*
Y706231D01*
X1079951D01*
Y706214D01*
X1079934D01*
Y706197D01*
X1079917D01*
Y706180D01*
X1079900D01*
Y706145D01*
X1079883D01*
Y706128D01*
X1079865D01*
Y706094D01*
X1079848D01*
Y706077D01*
X1079831D01*
Y706042D01*
X1079814D01*
Y706008D01*
X1079797D01*
Y705973D01*
X1079780D01*
Y705939D01*
X1079762D01*
Y705905D01*
X1079745D01*
Y705870D01*
X1079728D01*
Y705819D01*
X1079711D01*
Y705767D01*
X1079694D01*
Y705698D01*
X1079676D01*
Y705612D01*
X1079659D01*
Y705492D01*
X1079642D01*
Y705217D01*
X1079659D01*
Y705079D01*
X1079676D01*
Y704993D01*
X1079694D01*
Y704924D01*
X1079711D01*
Y704873D01*
X1079728D01*
Y704821D01*
X1079745D01*
Y704770D01*
X1079762D01*
Y704735D01*
X1079780D01*
Y704718D01*
Y704683D01*
X1079797D01*
Y704649D01*
X1079814D01*
Y704615D01*
X1079831D01*
Y704580D01*
X1079848D01*
Y704563D01*
X1079865D01*
Y704529D01*
X1079883D01*
Y704511D01*
X1079900D01*
Y704477D01*
X1079917D01*
Y704460D01*
X1079934D01*
Y704425D01*
X1079951D01*
Y704408D01*
X1079969D01*
Y704391D01*
X1079986D01*
Y704374D01*
X1080003D01*
Y704340D01*
X1080020D01*
Y704322D01*
X1080037D01*
Y704305D01*
X1080055D01*
Y704288D01*
X1080072D01*
Y704271D01*
X1080089D01*
Y704253D01*
X1080106D01*
Y704236D01*
X1080124D01*
Y704219D01*
X1080141D01*
Y704202D01*
X1080175D01*
Y704185D01*
X1080192D01*
Y704168D01*
X1080210D01*
Y704150D01*
X1080227D01*
Y704133D01*
X1080261D01*
Y704116D01*
X1080278D01*
Y704099D01*
X1080313D01*
Y704081D01*
X1080330D01*
Y704064D01*
X1080364D01*
Y704047D01*
X1080399D01*
Y704030D01*
X1080433D01*
Y704013D01*
X1080485D01*
Y703996D01*
X1080536D01*
Y703978D01*
X1080588D01*
Y703961D01*
X1080657D01*
Y703944D01*
X1080760D01*
Y703927D01*
X1081018D01*
Y703944D01*
X1081121D01*
Y703961D01*
X1081190D01*
Y703978D01*
X1081241D01*
Y703996D01*
X1081293D01*
Y704013D01*
X1081327D01*
Y704030D01*
X1081362D01*
Y704047D01*
X1081396D01*
Y704064D01*
X1081431D01*
Y704081D01*
X1081465D01*
Y704099D01*
X1081482D01*
Y704116D01*
X1081517D01*
Y704133D01*
X1081534D01*
Y704150D01*
X1081551D01*
Y704168D01*
X1081585D01*
Y704185D01*
X1081603D01*
Y704202D01*
X1081620D01*
Y704219D01*
X1081637D01*
Y704236D01*
X1081654D01*
Y704253D01*
X1081671D01*
Y704271D01*
X1081689D01*
Y704288D01*
X1081706D01*
Y704305D01*
X1081723D01*
Y704322D01*
X1081740D01*
Y704340D01*
X1081757D01*
Y704357D01*
X1081775D01*
Y704374D01*
X1081792D01*
Y704391D01*
X1081809D01*
Y704425D01*
X1081826D01*
Y704443D01*
X1081843D01*
Y704460D01*
X1081861D01*
Y704494D01*
X1081878D01*
Y704511D01*
X1081895D01*
Y704546D01*
X1081912D01*
Y704563D01*
X1081929D01*
Y704598D01*
X1081947D01*
Y704632D01*
X1081964D01*
Y704666D01*
X1081981D01*
Y704701D01*
X1081998D01*
Y704735D01*
X1082015D01*
Y704787D01*
X1082033D01*
Y704838D01*
X1082050D01*
Y704890D01*
X1082067D01*
Y704942D01*
X1082084D01*
Y705027D01*
X1082101D01*
Y705148D01*
X1082119D01*
Y705457D01*
X1082101D01*
Y705578D01*
X1082084D01*
Y705647D01*
X1082067D01*
Y705715D01*
X1082050D01*
Y705767D01*
X1082033D01*
Y705819D01*
X1082015D01*
Y705870D01*
X1081998D01*
Y705905D01*
X1081981D01*
Y705939D01*
X1081964D01*
Y705973D01*
X1081947D01*
Y706008D01*
X1081929D01*
Y706042D01*
X1081912D01*
Y706059D01*
X1081895D01*
Y706094D01*
X1081878D01*
Y706128D01*
X1081861D01*
Y706145D01*
X1081843D01*
Y706163D01*
X1081826D01*
Y706197D01*
X1081809D01*
Y706214D01*
X1081792D01*
Y706231D01*
X1081775D01*
Y706249D01*
X1081757D01*
Y706266D01*
X1081740D01*
Y706300D01*
X1081723D01*
Y706317D01*
X1081706D01*
Y706335D01*
X1081689D01*
Y706352D01*
X1081671D01*
Y706369D01*
X1081654D01*
Y706386D01*
X1081637D01*
Y706403D01*
X1081620D01*
Y706421D01*
X1081585D01*
Y706438D01*
X1081568D01*
Y706455D01*
X1081551D01*
Y706472D01*
X1081534D01*
Y706489D01*
X1081499D01*
Y706507D01*
X1081482D01*
Y706524D01*
X1081448D01*
Y706541D01*
X1081431D01*
Y706558D01*
X1081396D01*
Y706575D01*
X1081362D01*
Y706593D01*
X1081327D01*
Y706610D01*
X1081276D01*
Y706627D01*
X1081241D01*
Y706644D01*
X1081190D01*
Y706661D01*
X1081121D01*
Y706679D01*
X1081018D01*
Y706696D01*
D02*
G37*
G36*
X1074391Y699326D02*
X1074297D01*
Y698438D01*
X1074305D01*
X1074312Y698434D01*
X1074339D01*
X1074357Y698430D01*
X1074485D01*
X1074537Y698434D01*
X1074567D01*
X1074582Y698438D01*
X1074680D01*
X1074706Y698441D01*
X1074736D01*
X1074774Y698449D01*
X1074811Y698456D01*
X1074848Y698464D01*
X1074882Y698479D01*
X1074886Y698483D01*
X1074897Y698486D01*
X1074912Y698494D01*
X1074931Y698509D01*
X1074976Y698539D01*
X1075017Y698584D01*
X1075021Y698588D01*
X1075025Y698595D01*
X1075036Y698606D01*
X1075047Y698625D01*
X1075070Y698666D01*
X1075089Y698715D01*
Y698723D01*
X1075092Y698730D01*
Y698745D01*
X1075096Y698768D01*
X1075100Y698798D01*
X1075103Y698835D01*
X1075111Y698884D01*
Y698888D01*
Y698906D01*
Y698929D01*
X1075103Y698963D01*
X1075092Y699000D01*
X1075074Y699041D01*
X1075047Y699090D01*
X1075010Y699139D01*
X1075006Y699146D01*
X1074987Y699161D01*
X1074965Y699184D01*
X1074931Y699210D01*
X1074886Y699240D01*
X1074837Y699266D01*
X1074781Y699285D01*
X1074717Y699300D01*
X1074710D01*
X1074687Y699304D01*
X1074654Y699307D01*
X1074612Y699315D01*
X1074560Y699319D01*
X1074507Y699323D01*
X1074391Y699326D01*
D02*
G37*
G36*
X1063253Y699315D02*
X1063246D01*
X1063223Y699311D01*
X1063190Y699307D01*
X1063145Y699300D01*
X1063096Y699281D01*
X1063043Y699259D01*
X1062987Y699225D01*
X1062935Y699180D01*
X1062931Y699172D01*
X1062916Y699157D01*
X1062893Y699127D01*
X1062871Y699090D01*
X1062845Y699041D01*
X1062826Y698989D01*
X1062811Y698929D01*
X1062803Y698861D01*
Y698171D01*
X1063764D01*
Y698861D01*
Y698865D01*
Y698869D01*
X1063760Y698895D01*
X1063756Y698929D01*
X1063745Y698974D01*
X1063726Y699022D01*
X1063700Y699079D01*
X1063662Y699131D01*
X1063610Y699184D01*
X1063602Y699191D01*
X1063583Y699206D01*
X1063550Y699225D01*
X1063509Y699251D01*
X1063456Y699274D01*
X1063396Y699296D01*
X1063328Y699311D01*
X1063253Y699315D01*
D02*
G37*
G36*
X1060557Y699300D02*
X1060175D01*
Y698636D01*
X1060527D01*
X1060550Y698640D01*
X1060583Y698647D01*
X1060617Y698663D01*
X1060655Y698677D01*
X1060692Y698704D01*
X1060726Y698738D01*
X1060730Y698741D01*
X1060741Y698756D01*
X1060756Y698779D01*
X1060775Y698805D01*
X1060790Y698843D01*
X1060805Y698880D01*
X1060816Y698929D01*
X1060820Y698978D01*
Y698985D01*
Y699000D01*
X1060816Y699022D01*
X1060812Y699056D01*
X1060801Y699090D01*
X1060790Y699127D01*
X1060771Y699165D01*
X1060745Y699202D01*
X1060741Y699206D01*
X1060730Y699218D01*
X1060715Y699232D01*
X1060692Y699251D01*
X1060666Y699270D01*
X1060636Y699285D01*
X1060598Y699296D01*
X1060557Y699300D01*
D02*
G37*
G36*
X1060550Y697909D02*
X1060175D01*
Y697031D01*
X1060520D01*
X1060535Y697035D01*
X1060572Y697039D01*
X1060625Y697046D01*
X1060681Y697061D01*
X1060745Y697084D01*
X1060808Y697114D01*
X1060868Y697155D01*
X1060876Y697163D01*
X1060895Y697178D01*
X1060917Y697204D01*
X1060947Y697241D01*
X1060977Y697286D01*
X1061000Y697339D01*
X1061018Y697402D01*
X1061026Y697470D01*
Y697474D01*
Y697477D01*
X1061022Y697500D01*
X1061018Y697534D01*
X1061007Y697579D01*
X1060992Y697627D01*
X1060966Y697680D01*
X1060932Y697732D01*
X1060884Y697781D01*
X1060876Y697785D01*
X1060857Y697800D01*
X1060831Y697823D01*
X1060790Y697845D01*
X1060741Y697868D01*
X1060685Y697890D01*
X1060621Y697905D01*
X1060550Y697909D01*
D02*
G37*
G36*
X1055169Y694802D02*
X1055075D01*
Y693913D01*
X1055082D01*
X1055090Y693909D01*
X1055116D01*
X1055135Y693905D01*
X1055262D01*
X1055315Y693909D01*
X1055345D01*
X1055360Y693913D01*
X1055457D01*
X1055484Y693917D01*
X1055513D01*
X1055551Y693924D01*
X1055589Y693931D01*
X1055626Y693939D01*
X1055660Y693954D01*
X1055663Y693958D01*
X1055675Y693961D01*
X1055690Y693969D01*
X1055709Y693984D01*
X1055754Y694014D01*
X1055795Y694059D01*
X1055799Y694063D01*
X1055802Y694070D01*
X1055814Y694081D01*
X1055825Y694100D01*
X1055847Y694142D01*
X1055866Y694190D01*
Y694198D01*
X1055870Y694205D01*
Y694220D01*
X1055873Y694243D01*
X1055877Y694273D01*
X1055881Y694310D01*
X1055888Y694359D01*
Y694363D01*
Y694382D01*
Y694404D01*
X1055881Y694438D01*
X1055870Y694475D01*
X1055851Y694517D01*
X1055825Y694565D01*
X1055787Y694614D01*
X1055783Y694622D01*
X1055765Y694636D01*
X1055742Y694659D01*
X1055709Y694685D01*
X1055663Y694715D01*
X1055615Y694742D01*
X1055558Y694760D01*
X1055495Y694775D01*
X1055487D01*
X1055465Y694779D01*
X1055431Y694783D01*
X1055390Y694790D01*
X1055337Y694794D01*
X1055285Y694798D01*
X1055169Y694802D01*
D02*
G37*
G36*
X1072130Y694775D02*
X1071747D01*
Y694111D01*
X1072100D01*
X1072122Y694115D01*
X1072156Y694123D01*
X1072190Y694138D01*
X1072227Y694153D01*
X1072265Y694179D01*
X1072299Y694213D01*
X1072302Y694217D01*
X1072313Y694232D01*
X1072328Y694254D01*
X1072347Y694280D01*
X1072362Y694318D01*
X1072377Y694355D01*
X1072388Y694404D01*
X1072392Y694453D01*
Y694460D01*
Y694475D01*
X1072388Y694498D01*
X1072385Y694531D01*
X1072373Y694565D01*
X1072362Y694603D01*
X1072344Y694640D01*
X1072317Y694678D01*
X1072313Y694682D01*
X1072302Y694693D01*
X1072287Y694708D01*
X1072265Y694727D01*
X1072239Y694745D01*
X1072208Y694760D01*
X1072171Y694772D01*
X1072130Y694775D01*
D02*
G37*
G36*
X1072122Y693384D02*
X1071747D01*
Y692507D01*
X1072092D01*
X1072107Y692510D01*
X1072145Y692514D01*
X1072197Y692522D01*
X1072254Y692536D01*
X1072317Y692559D01*
X1072381Y692589D01*
X1072441Y692630D01*
X1072449Y692638D01*
X1072467Y692653D01*
X1072490Y692679D01*
X1072520Y692717D01*
X1072550Y692762D01*
X1072572Y692814D01*
X1072591Y692878D01*
X1072598Y692945D01*
Y692949D01*
Y692953D01*
X1072595Y692975D01*
X1072591Y693009D01*
X1072580Y693054D01*
X1072565Y693103D01*
X1072538Y693155D01*
X1072505Y693208D01*
X1072456Y693257D01*
X1072449Y693260D01*
X1072430Y693275D01*
X1072404Y693298D01*
X1072362Y693320D01*
X1072313Y693343D01*
X1072257Y693365D01*
X1072194Y693380D01*
X1072122Y693384D01*
D02*
G37*
G36*
X1050110Y690277D02*
X1050016D01*
Y689388D01*
X1050023D01*
X1050031Y689384D01*
X1050057D01*
X1050076Y689381D01*
X1050204D01*
X1050256Y689384D01*
X1050286D01*
X1050301Y689388D01*
X1050399D01*
X1050425Y689392D01*
X1050455D01*
X1050492Y689399D01*
X1050530Y689407D01*
X1050567Y689414D01*
X1050601Y689429D01*
X1050605Y689433D01*
X1050616Y689437D01*
X1050631Y689444D01*
X1050650Y689459D01*
X1050695Y689489D01*
X1050736Y689534D01*
X1050740Y689538D01*
X1050743Y689546D01*
X1050755Y689557D01*
X1050766Y689576D01*
X1050788Y689617D01*
X1050807Y689666D01*
Y689673D01*
X1050811Y689681D01*
Y689696D01*
X1050815Y689718D01*
X1050819Y689748D01*
X1050822Y689785D01*
X1050830Y689834D01*
Y689838D01*
Y689857D01*
Y689879D01*
X1050822Y689913D01*
X1050811Y689951D01*
X1050792Y689992D01*
X1050766Y690040D01*
X1050729Y690089D01*
X1050725Y690097D01*
X1050706Y690112D01*
X1050683Y690134D01*
X1050650Y690161D01*
X1050605Y690191D01*
X1050556Y690217D01*
X1050500Y690236D01*
X1050436Y690251D01*
X1050428D01*
X1050406Y690254D01*
X1050372Y690258D01*
X1050331Y690266D01*
X1050278Y690269D01*
X1050226Y690273D01*
X1050110Y690277D01*
D02*
G37*
G36*
X1078775Y690206D02*
X1078752D01*
X1078722Y690202D01*
X1078685D01*
X1078640Y690194D01*
X1078587Y690187D01*
X1078531Y690176D01*
X1078467Y690161D01*
X1078400Y690142D01*
X1078332Y690119D01*
X1078261Y690089D01*
X1078190Y690056D01*
X1078122Y690018D01*
X1078055Y689969D01*
X1077987Y689917D01*
X1077927Y689853D01*
X1077923Y689849D01*
X1077916Y689838D01*
X1077901Y689819D01*
X1077882Y689797D01*
X1077864Y689767D01*
X1077841Y689729D01*
X1077815Y689684D01*
X1077789Y689639D01*
X1077762Y689583D01*
X1077736Y689523D01*
X1077713Y689459D01*
X1077695Y689392D01*
X1077676Y689317D01*
X1077661Y689242D01*
X1077654Y689159D01*
X1077650Y689073D01*
Y689069D01*
Y689051D01*
X1077654Y689028D01*
Y688994D01*
X1077657Y688953D01*
X1077665Y688908D01*
X1077672Y688852D01*
X1077687Y688796D01*
X1077702Y688735D01*
X1077721Y688668D01*
X1077744Y688604D01*
X1077770Y688537D01*
X1077804Y688465D01*
X1077841Y688398D01*
X1077886Y688334D01*
X1077935Y688271D01*
X1077938Y688267D01*
X1077950Y688256D01*
X1077969Y688237D01*
X1077995Y688214D01*
X1078025Y688188D01*
X1078066Y688154D01*
X1078111Y688124D01*
X1078164Y688091D01*
X1078220Y688053D01*
X1078284Y688023D01*
X1078355Y687993D01*
X1078434Y687963D01*
X1078512Y687941D01*
X1078602Y687922D01*
X1078696Y687911D01*
X1078794Y687907D01*
X1078816D01*
X1078846Y687911D01*
X1078883D01*
X1078928Y687918D01*
X1078981Y687926D01*
X1079041Y687937D01*
X1079101Y687952D01*
X1079169Y687971D01*
X1079240Y687993D01*
X1079311Y688019D01*
X1079382Y688053D01*
X1079450Y688094D01*
X1079517Y688139D01*
X1079585Y688196D01*
X1079645Y688256D01*
X1079648Y688259D01*
X1079656Y688271D01*
X1079671Y688289D01*
X1079690Y688312D01*
X1079712Y688346D01*
X1079735Y688383D01*
X1079761Y688424D01*
X1079787Y688473D01*
X1079813Y688529D01*
X1079840Y688589D01*
X1079862Y688653D01*
X1079885Y688721D01*
X1079904Y688796D01*
X1079918Y688874D01*
X1079926Y688957D01*
X1079930Y689043D01*
Y689047D01*
Y689066D01*
Y689088D01*
X1079926Y689122D01*
X1079922Y689163D01*
X1079915Y689212D01*
X1079904Y689268D01*
X1079892Y689328D01*
X1079877Y689392D01*
X1079858Y689463D01*
X1079832Y689534D01*
X1079802Y689609D01*
X1079768Y689684D01*
X1079727Y689759D01*
X1079682Y689838D01*
X1079630Y689913D01*
X1079626Y689917D01*
X1079615Y689924D01*
X1079596Y689939D01*
X1079574Y689958D01*
X1079540Y689981D01*
X1079502Y690007D01*
X1079457Y690033D01*
X1079405Y690059D01*
X1079348Y690086D01*
X1079285Y690112D01*
X1079214Y690138D01*
X1079138Y690161D01*
X1079056Y690179D01*
X1078966Y690194D01*
X1078872Y690202D01*
X1078775Y690206D01*
D02*
G37*
G36*
X1065732Y690206D02*
X1065710D01*
X1065680Y690202D01*
X1065642D01*
X1065597Y690194D01*
X1065545Y690187D01*
X1065489Y690176D01*
X1065425Y690161D01*
X1065357Y690142D01*
X1065290Y690119D01*
X1065219Y690089D01*
X1065147Y690056D01*
X1065080Y690018D01*
X1065012Y689969D01*
X1064945Y689917D01*
X1064885Y689853D01*
X1064881Y689849D01*
X1064874Y689838D01*
X1064859Y689819D01*
X1064840Y689797D01*
X1064821Y689767D01*
X1064799Y689729D01*
X1064772Y689684D01*
X1064746Y689639D01*
X1064720Y689583D01*
X1064694Y689523D01*
X1064671Y689459D01*
X1064652Y689392D01*
X1064633Y689317D01*
X1064618Y689242D01*
X1064611Y689159D01*
X1064607Y689073D01*
Y689069D01*
Y689051D01*
X1064611Y689028D01*
Y688994D01*
X1064615Y688953D01*
X1064622Y688908D01*
X1064630Y688852D01*
X1064645Y688796D01*
X1064660Y688735D01*
X1064678Y688668D01*
X1064701Y688604D01*
X1064727Y688537D01*
X1064761Y688465D01*
X1064799Y688398D01*
X1064843Y688334D01*
X1064892Y688271D01*
X1064896Y688267D01*
X1064907Y688256D01*
X1064926Y688237D01*
X1064952Y688214D01*
X1064982Y688188D01*
X1065024Y688154D01*
X1065069Y688124D01*
X1065121Y688091D01*
X1065177Y688053D01*
X1065241Y688023D01*
X1065312Y687993D01*
X1065391Y687963D01*
X1065470Y687941D01*
X1065560Y687922D01*
X1065654Y687911D01*
X1065751Y687907D01*
X1065773D01*
X1065804Y687911D01*
X1065841D01*
X1065886Y687918D01*
X1065938Y687926D01*
X1065998Y687937D01*
X1066059Y687952D01*
X1066126Y687971D01*
X1066197Y687993D01*
X1066269Y688019D01*
X1066340Y688053D01*
X1066407Y688094D01*
X1066475Y688139D01*
X1066542Y688196D01*
X1066602Y688256D01*
X1066606Y688259D01*
X1066613Y688271D01*
X1066628Y688289D01*
X1066647Y688312D01*
X1066670Y688346D01*
X1066692Y688383D01*
X1066718Y688424D01*
X1066745Y688473D01*
X1066771Y688529D01*
X1066797Y688589D01*
X1066820Y688653D01*
X1066842Y688721D01*
X1066861Y688796D01*
X1066876Y688874D01*
X1066883Y688957D01*
X1066887Y689043D01*
Y689047D01*
Y689066D01*
Y689088D01*
X1066883Y689122D01*
X1066880Y689163D01*
X1066872Y689212D01*
X1066861Y689268D01*
X1066850Y689328D01*
X1066835Y689392D01*
X1066816Y689463D01*
X1066790Y689534D01*
X1066760Y689609D01*
X1066726Y689684D01*
X1066685Y689759D01*
X1066640Y689838D01*
X1066587Y689913D01*
X1066584Y689917D01*
X1066572Y689924D01*
X1066553Y689939D01*
X1066531Y689958D01*
X1066497Y689981D01*
X1066460Y690007D01*
X1066415Y690033D01*
X1066362Y690059D01*
X1066306Y690086D01*
X1066242Y690112D01*
X1066171Y690138D01*
X1066096Y690161D01*
X1066014Y690179D01*
X1065924Y690194D01*
X1065830Y690202D01*
X1065732Y690206D01*
D02*
G37*
%LPD*%
D10*
X1020128Y638962D02*
G03*
X1020128Y638962I-394J0D01*
G01*
D11*
X1066191Y618687D02*
X1073475D01*
X1019144D02*
X1026428D01*
X1073475D02*
Y639553D01*
X1066191D02*
X1073475D01*
X1019144Y618687D02*
Y636698D01*
X1021998Y639553D01*
X1026428D01*
D12*
X1023699Y649998D02*
X1021699D01*
X1022699D01*
Y645000D01*
X1021699Y644000D01*
X1020700D01*
X1019700Y645000D01*
X1025698Y644000D02*
X1027697D01*
X1026698D01*
Y649998D01*
X1025698Y648998D01*
D13*
X1253987Y724592D02*
G03*
X1246113Y732466I-7874J0D01*
G01*
Y610419D02*
G03*
X1253987Y618293I0J7874D01*
G01*
X896703Y617309D02*
G03*
X903593Y610419I6890J0D01*
G01*
X905561Y732466D02*
G03*
X896703Y723608I0J-8858D01*
G01*
X1253987Y618293D02*
Y724592D01*
X905561Y732466D02*
X1246113D01*
X903593Y610419D02*
X1246113D01*
X896703Y617309D02*
Y723608D01*
M02*
