G04*
G04 #@! TF.GenerationSoftware,Altium Limited,Altium Designer,23.0.1 (38)*
G04*
G04 Layer_Color=8388736*
%FSLAX25Y25*%
%MOIN*%
G70*
G04*
G04 #@! TF.SameCoordinates,B4ED9068-0949-4354-B78F-C4858C2F04AE*
G04*
G04*
G04 #@! TF.FilePolarity,Negative*
G04*
G01*
G75*
%ADD13C,0.00500*%
G04:AMPARAMS|DCode=15|XSize=73.87mil|YSize=12.84mil|CornerRadius=1.99mil|HoleSize=0mil|Usage=FLASHONLY|Rotation=270.000|XOffset=0mil|YOffset=0mil|HoleType=Round|Shape=RoundedRectangle|*
%AMROUNDEDRECTD15*
21,1,0.07387,0.00886,0,0,270.0*
21,1,0.06988,0.01284,0,0,270.0*
1,1,0.00398,-0.00443,-0.03494*
1,1,0.00398,-0.00443,0.03494*
1,1,0.00398,0.00443,0.03494*
1,1,0.00398,0.00443,-0.03494*
%
%ADD15ROUNDEDRECTD15*%
%ADD16C,0.06237*%
%ADD17R,0.06237X0.06237*%
%ADD18C,0.23922*%
%ADD19C,0.29434*%
G36*
X1179233Y683204D02*
X1179050Y682739D01*
X1044833Y677840D01*
X1040369Y682304D01*
X1040559Y682766D01*
X1177526Y683838D01*
X1132197Y727298D01*
X1132192Y727798D01*
X1133416Y729021D01*
X1179233Y683204D01*
D02*
G37*
D13*
X1253987Y724592D02*
G03*
X1246113Y732466I-7874J0D01*
G01*
Y610419D02*
G03*
X1253987Y618293I0J7874D01*
G01*
X896703Y617309D02*
G03*
X903593Y610419I6890J0D01*
G01*
X905561Y732466D02*
G03*
X896703Y723608I0J-8858D01*
G01*
X1253987Y618293D02*
Y724592D01*
X905561Y732466D02*
X1246113D01*
X903593Y610419D02*
X1246113D01*
X896703Y617309D02*
Y723608D01*
D15*
X1039420Y636994D02*
D03*
X1041388D02*
D03*
X1033514D02*
D03*
Y621246D02*
D03*
X1035483Y636994D02*
D03*
X1045325D02*
D03*
X1047294D02*
D03*
Y621246D02*
D03*
X1049262Y636994D02*
D03*
Y621246D02*
D03*
X1043357Y636994D02*
D03*
X1029577D02*
D03*
X1031546D02*
D03*
X1027609D02*
D03*
Y621246D02*
D03*
X1031546D02*
D03*
X1035483D02*
D03*
X1039420D02*
D03*
X1043357D02*
D03*
X1041388D02*
D03*
X1051231D02*
D03*
X1053199D02*
D03*
X1055168D02*
D03*
X1061073D02*
D03*
X1063042D02*
D03*
X1065010D02*
D03*
X1051231Y636994D02*
D03*
X1053199D02*
D03*
X1055168D02*
D03*
X1029577Y621246D02*
D03*
X1037451D02*
D03*
X1045325D02*
D03*
X1037451Y636994D02*
D03*
X1057136D02*
D03*
X1059105D02*
D03*
X1061073D02*
D03*
X1063042D02*
D03*
X1065010D02*
D03*
X1057136Y621246D02*
D03*
X1059105D02*
D03*
D16*
X910483Y693096D02*
D03*
X910481Y652999D02*
D03*
D17*
X910483Y683253D02*
D03*
X910481Y643156D02*
D03*
D18*
X1242176Y698017D02*
D03*
Y640931D02*
D03*
X908514Y622230D02*
D03*
Y720655D02*
D03*
D19*
X1221506Y621246D02*
D03*
X1221506Y717702D02*
D03*
X943947D02*
D03*
Y621246D02*
D03*
M02*
