G04*
G04 #@! TF.GenerationSoftware,Altium Limited,Altium Designer,23.0.1 (38)*
G04*
G04 Layer_Physical_Order=1*
G04 Layer_Color=255*
%FSLAX25Y25*%
%MOIN*%
G70*
G04*
G04 #@! TF.SameCoordinates,B4ED9068-0949-4354-B78F-C4858C2F04AE*
G04*
G04*
G04 #@! TF.FilePolarity,Positive*
G04*
G01*
G75*
%ADD11C,0.00600*%
%ADD13C,0.00500*%
G04:AMPARAMS|DCode=14|XSize=70.87mil|YSize=9.84mil|CornerRadius=0.49mil|HoleSize=0mil|Usage=FLASHONLY|Rotation=270.000|XOffset=0mil|YOffset=0mil|HoleType=Round|Shape=RoundedRectangle|*
%AMROUNDEDRECTD14*
21,1,0.07087,0.00886,0,0,270.0*
21,1,0.06988,0.00984,0,0,270.0*
1,1,0.00098,-0.00443,-0.03494*
1,1,0.00098,-0.00443,0.03494*
1,1,0.00098,0.00443,0.03494*
1,1,0.00098,0.00443,-0.03494*
%
%ADD14ROUNDEDRECTD14*%
%ADD20C,0.01400*%
%ADD21C,0.00700*%
%ADD22C,0.01200*%
%ADD23C,0.03600*%
%ADD24C,0.05937*%
%ADD25R,0.05937X0.05937*%
%ADD26C,0.23622*%
%ADD27C,0.29134*%
%ADD28C,0.02400*%
G36*
X1250925Y730456D02*
X1251977Y729405D01*
X1252018Y729342D01*
Y613543D01*
X1251976Y613481D01*
X1250925Y612429D01*
X1250863Y612387D01*
X899230D01*
X898672Y612946D01*
Y728657D01*
X898933Y729048D01*
X900122Y730236D01*
X900513Y730498D01*
X1250863D01*
X1250925Y730456D01*
D02*
G37*
%LPC*%
G36*
X1041706Y693712D02*
X1041070D01*
X1040482Y693468D01*
X1040032Y693018D01*
X1039973Y692876D01*
X960861D01*
X960861Y692876D01*
X960569Y692818D01*
X960321Y692653D01*
X960321Y692653D01*
X959590Y691922D01*
X950098D01*
X949805Y691864D01*
X949557Y691698D01*
X948517Y690658D01*
X948376Y690717D01*
X947739D01*
X947151Y690473D01*
X946701Y690023D01*
X946457Y689435D01*
Y688799D01*
X946701Y688210D01*
X947151Y687760D01*
X947739Y687517D01*
X948376D01*
X948964Y687760D01*
X949414Y688210D01*
X949657Y688799D01*
Y689435D01*
X949599Y689577D01*
X950415Y690393D01*
X959907D01*
X960200Y690451D01*
X960448Y690617D01*
X961178Y691347D01*
X1039973D01*
X1040032Y691206D01*
X1040482Y690755D01*
X1041070Y690512D01*
X1041706D01*
X1042295Y690755D01*
X1042745Y691206D01*
X1042988Y691793D01*
Y692430D01*
X1042745Y693018D01*
X1042295Y693468D01*
X1041706Y693712D01*
D02*
G37*
G36*
X910926Y696465D02*
X910039D01*
X909182Y696235D01*
X908414Y695791D01*
X907787Y695164D01*
X907344Y694396D01*
X907114Y693539D01*
Y692653D01*
X907344Y691796D01*
X907787Y691028D01*
X908414Y690401D01*
X909182Y689957D01*
X910039Y689728D01*
X910926D01*
X911783Y689957D01*
X912551Y690401D01*
X913178Y691028D01*
X913622Y691796D01*
X913851Y692653D01*
Y693539D01*
X913622Y694396D01*
X913178Y695164D01*
X912551Y695791D01*
X911783Y696235D01*
X910926Y696465D01*
D02*
G37*
G36*
X938076Y690692D02*
X937439D01*
X936851Y690448D01*
X936401Y689998D01*
X936158Y689410D01*
Y688773D01*
X936401Y688185D01*
X936851Y687735D01*
X937439Y687492D01*
X938076D01*
X938664Y687735D01*
X939114Y688185D01*
X939357Y688773D01*
Y689410D01*
X939114Y689998D01*
X938664Y690448D01*
X938076Y690692D01*
D02*
G37*
G36*
X942297Y679932D02*
X941660D01*
X941072Y679689D01*
X940622Y679239D01*
X940543Y679046D01*
X937057D01*
X936784Y678992D01*
X936553Y678837D01*
X932378Y674663D01*
X903139D01*
X903059Y674855D01*
X902609Y675305D01*
X902021Y675549D01*
X901384D01*
X900796Y675305D01*
X900346Y674855D01*
X900102Y674267D01*
Y673631D01*
X900182Y673438D01*
X899792Y673048D01*
X899638Y672817D01*
X899583Y672544D01*
Y639305D01*
X899638Y639032D01*
X899792Y638801D01*
X903088Y635505D01*
X903320Y635350D01*
X903593Y635296D01*
X929439D01*
X929712Y635350D01*
X929943Y635505D01*
X931745Y637307D01*
X956404D01*
X978876Y614836D01*
X979107Y614681D01*
X979380Y614627D01*
X1006939D01*
X1007213Y614681D01*
X1007444Y614836D01*
X1018639Y626031D01*
X1031757D01*
X1032721Y625067D01*
X1032585Y624740D01*
Y622475D01*
X1031985Y622155D01*
X1031936Y622188D01*
X1031546Y622265D01*
X1031155Y622188D01*
X1030825Y621967D01*
X1030298D01*
X1029967Y622188D01*
X1029577Y622265D01*
X1029187Y622188D01*
X1028856Y621967D01*
X1028330D01*
X1027999Y622188D01*
X1027609Y622265D01*
X1027219Y622188D01*
X1026888Y621967D01*
X1026667Y621636D01*
X1026589Y621246D01*
Y616597D01*
X1026667Y616207D01*
X1026888Y615876D01*
X1027915Y614849D01*
X1028246Y614628D01*
X1028636Y614550D01*
X1028959D01*
X1029187Y614398D01*
X1029577Y614321D01*
X1029967Y614398D01*
X1030195Y614550D01*
X1030560D01*
X1030950Y614628D01*
X1031281Y614849D01*
X1032267Y615835D01*
X1032488Y616165D01*
X1032565Y616556D01*
Y616825D01*
X1033071Y617265D01*
X1033165Y617265D01*
X1033863D01*
X1033957Y617265D01*
X1034463Y616825D01*
Y616597D01*
X1034541Y616207D01*
X1034762Y615876D01*
X1035484Y615154D01*
X1035525Y614950D01*
X1035746Y614619D01*
X1036077Y614398D01*
X1036467Y614321D01*
X1036857Y614398D01*
X1037188Y614619D01*
X1037409Y614950D01*
X1037486Y615340D01*
Y615613D01*
X1037409Y616003D01*
X1037188Y616334D01*
X1036811Y616711D01*
X1036914Y617000D01*
X1037105Y617265D01*
X1037894D01*
X1038238Y617408D01*
X1038633D01*
X1038977Y617265D01*
X1039054D01*
X1039303Y616665D01*
X1038699Y616061D01*
X1038478Y615730D01*
X1038400Y615340D01*
X1038478Y614950D01*
X1038699Y614619D01*
X1039030Y614398D01*
X1039420Y614321D01*
X1039810Y614398D01*
X1040141Y614619D01*
X1041737Y616216D01*
X1042337Y615967D01*
Y615340D01*
X1042415Y614950D01*
X1042636Y614619D01*
X1042966Y614398D01*
X1043357Y614321D01*
X1043747Y614398D01*
X1043974Y614550D01*
X1044298D01*
X1044688Y614628D01*
X1045018Y614849D01*
X1046046Y615876D01*
X1046267Y616207D01*
X1046345Y616597D01*
Y616825D01*
X1046851Y617265D01*
X1047737D01*
X1048080Y617408D01*
X1048475D01*
X1048819Y617265D01*
X1049611D01*
X1049705Y617265D01*
X1050211Y616825D01*
Y616597D01*
X1050289Y616207D01*
X1050510Y615876D01*
X1051233Y615154D01*
X1051273Y614950D01*
X1051494Y614619D01*
X1051825Y614398D01*
X1052215Y614321D01*
X1052605Y614398D01*
X1052936Y614619D01*
X1053157Y614950D01*
X1053197Y615154D01*
X1053803Y615760D01*
X1054183Y615829D01*
X1054564Y615760D01*
X1055169Y615154D01*
X1055210Y614950D01*
X1055431Y614619D01*
X1055762Y614398D01*
X1056152Y614321D01*
X1056542Y614398D01*
X1056873Y614619D01*
X1057094Y614950D01*
X1057135Y615154D01*
X1057740Y615760D01*
X1058121Y615829D01*
X1058501Y615760D01*
X1059107Y615154D01*
X1059147Y614950D01*
X1059368Y614619D01*
X1059699Y614398D01*
X1060089Y614321D01*
X1060479Y614398D01*
X1060810Y614619D01*
X1061031Y614950D01*
X1061071Y615154D01*
X1061677Y615760D01*
X1062057Y615829D01*
X1062438Y615760D01*
X1063043Y615154D01*
X1063084Y614950D01*
X1063305Y614619D01*
X1063636Y614398D01*
X1064026Y614321D01*
X1064416Y614398D01*
X1064747Y614619D01*
X1064968Y614950D01*
X1065009Y615154D01*
X1065731Y615876D01*
X1065952Y616207D01*
X1066030Y616597D01*
Y621246D01*
X1065952Y621636D01*
X1065731Y621967D01*
X1065400Y622188D01*
X1065010Y622265D01*
X1064620Y622188D01*
X1064289Y621967D01*
X1063763D01*
X1063432Y622188D01*
X1063042Y622265D01*
X1062652Y622188D01*
X1062321Y621967D01*
X1061794D01*
X1061463Y622188D01*
X1061073Y622265D01*
X1060683Y622188D01*
X1060352Y621967D01*
X1059826D01*
X1059495Y622188D01*
X1059105Y622265D01*
X1058715Y622188D01*
X1058384Y621967D01*
X1057857D01*
X1057526Y622188D01*
X1057136Y622265D01*
X1056746Y622188D01*
X1056415Y621967D01*
X1055889D01*
X1055558Y622188D01*
X1055168Y622265D01*
X1054778Y622188D01*
X1054447Y621967D01*
X1053920D01*
X1053589Y622188D01*
X1053199Y622265D01*
X1052809Y622188D01*
X1052478Y621967D01*
X1051952D01*
X1051621Y622188D01*
X1051231Y622265D01*
X1050840Y622188D01*
X1050791Y622155D01*
X1050191Y622475D01*
Y624740D01*
X1050049Y625084D01*
X1050027Y625093D01*
Y628314D01*
X1050027Y628314D01*
X1049969Y628607D01*
X1049803Y628855D01*
X1049803Y628855D01*
X1048276Y630382D01*
X1048028Y630548D01*
X1047735Y630606D01*
X1006677D01*
X1006677Y630606D01*
X1006384Y630548D01*
X1006136Y630382D01*
X1006136Y630382D01*
X1004654Y628900D01*
X984024D01*
X980001Y632923D01*
X980060Y633065D01*
Y633701D01*
X979816Y634289D01*
X979366Y634739D01*
X978778Y634983D01*
X978141D01*
X977553Y634739D01*
X977103Y634289D01*
X976859Y633701D01*
Y633065D01*
X977103Y632477D01*
X977553Y632026D01*
X978141Y631783D01*
X978778D01*
X978919Y631842D01*
X983166Y627595D01*
X983414Y627429D01*
X983707Y627371D01*
X1004971D01*
X1005264Y627429D01*
X1005512Y627595D01*
X1006994Y629077D01*
X1044750D01*
X1044996Y628477D01*
X1044720Y628201D01*
X1044477Y627613D01*
Y626976D01*
X1044720Y626388D01*
X1045170Y625938D01*
X1045759Y625694D01*
X1046194D01*
X1046274Y625615D01*
Y622536D01*
X1045732Y622198D01*
X1045674Y622196D01*
X1045325Y622265D01*
X1044935Y622188D01*
X1044604Y621967D01*
X1044078D01*
X1043747Y622188D01*
X1043357Y622265D01*
X1042966Y622188D01*
X1042636Y621967D01*
X1042109D01*
X1041778Y622188D01*
X1041388Y622265D01*
X1040998Y622188D01*
X1040949Y622155D01*
X1040349Y622475D01*
Y624740D01*
X1040206Y625084D01*
X1039863Y625226D01*
X1038977D01*
X1038633Y625084D01*
X1038238D01*
X1037894Y625226D01*
X1037008D01*
X1036664Y625084D01*
X1036522Y624740D01*
Y622475D01*
X1035922Y622155D01*
X1035873Y622188D01*
X1035483Y622265D01*
X1035093Y622188D01*
X1035043Y622155D01*
X1034443Y622475D01*
Y624740D01*
X1034301Y625084D01*
X1034207Y625122D01*
Y625304D01*
X1034153Y625577D01*
X1033998Y625809D01*
X1032557Y627249D01*
X1032326Y627404D01*
X1032053Y627458D01*
X1018344D01*
X1018071Y627404D01*
X1017839Y627249D01*
X1006644Y616054D01*
X979676D01*
X957205Y638525D01*
X956973Y638680D01*
X956700Y638734D01*
X931450D01*
X931176Y638680D01*
X930945Y638525D01*
X929143Y636723D01*
X903889D01*
X901011Y639601D01*
Y671854D01*
X901384Y672349D01*
X902021D01*
X902609Y672592D01*
X903059Y673043D01*
X903139Y673235D01*
X932674D01*
X932947Y673289D01*
X933179Y673444D01*
X937353Y677619D01*
X940543D01*
X940622Y677426D01*
X941072Y676976D01*
X941660Y676732D01*
X942297D01*
X942885Y676976D01*
X943335Y677426D01*
X943579Y678014D01*
Y678651D01*
X943335Y679239D01*
X942885Y679689D01*
X942297Y679932D01*
D02*
G37*
G36*
X939344Y674027D02*
X938708D01*
X938120Y673783D01*
X937670Y673333D01*
X937426Y672745D01*
Y672109D01*
X937506Y671916D01*
X927264Y661674D01*
X906968D01*
X906853Y661953D01*
X906402Y662403D01*
X905814Y662647D01*
X905178D01*
X904590Y662403D01*
X904140Y661953D01*
X903896Y661365D01*
Y660729D01*
X904059Y660336D01*
X904023Y660300D01*
X903869Y660069D01*
X903815Y659796D01*
Y641025D01*
X903869Y640752D01*
X904023Y640520D01*
X906268Y638275D01*
X906500Y638120D01*
X906773Y638066D01*
X923096D01*
X923369Y638120D01*
X923600Y638275D01*
X925499Y640174D01*
X959443D01*
X979860Y619757D01*
X980091Y619602D01*
X980365Y619548D01*
X1001566D01*
X1001646Y619355D01*
X1002096Y618905D01*
X1002684Y618661D01*
X1003321D01*
X1003909Y618905D01*
X1004359Y619355D01*
X1004602Y619943D01*
Y620580D01*
X1004359Y621168D01*
X1003909Y621618D01*
X1003321Y621861D01*
X1002684D01*
X1002096Y621618D01*
X1001646Y621168D01*
X1001566Y620975D01*
X980660D01*
X960243Y641392D01*
X960011Y641547D01*
X959738Y641601D01*
X925203D01*
X924930Y641547D01*
X924699Y641392D01*
X922800Y639493D01*
X907069D01*
X905242Y641320D01*
Y659447D01*
X905814D01*
X906402Y659691D01*
X906853Y660141D01*
X906896Y660246D01*
X927559D01*
X927832Y660301D01*
X928064Y660455D01*
X938515Y670906D01*
X938708Y670827D01*
X939344D01*
X939932Y671070D01*
X940382Y671520D01*
X940626Y672109D01*
Y672745D01*
X940382Y673333D01*
X939932Y673783D01*
X939344Y674027D01*
D02*
G37*
G36*
X1018750Y659906D02*
X1018549Y659866D01*
X1004931D01*
X1004072Y659695D01*
X1003345Y659209D01*
X999448Y655312D01*
X998962Y654584D01*
X998791Y653726D01*
X998962Y652868D01*
X999448Y652140D01*
X1000175Y651654D01*
X1001034Y651483D01*
X1001892Y651654D01*
X1002620Y652140D01*
X1005860Y655380D01*
X1016507D01*
Y653642D01*
X1016678Y652783D01*
X1017164Y652056D01*
X1017166Y652054D01*
X1017166Y652054D01*
X1017894Y651568D01*
X1018752Y651397D01*
X1019610Y651568D01*
X1020338Y652054D01*
X1020824Y652782D01*
X1020995Y653640D01*
Y657623D01*
X1020994Y657631D01*
Y657663D01*
X1020823Y658521D01*
X1020337Y659249D01*
X1019609Y659735D01*
X1018750Y659906D01*
D02*
G37*
G36*
X910925Y656367D02*
X910038D01*
X909181Y656138D01*
X908413Y655694D01*
X907786Y655067D01*
X907342Y654299D01*
X907113Y653442D01*
Y652556D01*
X907342Y651699D01*
X907786Y650931D01*
X908413Y650304D01*
X909181Y649860D01*
X910038Y649630D01*
X910925D01*
X911782Y649860D01*
X912550Y650304D01*
X913177Y650931D01*
X913620Y651699D01*
X913850Y652556D01*
Y653442D01*
X913620Y654299D01*
X913177Y655067D01*
X912550Y655694D01*
X911782Y656138D01*
X910925Y656367D01*
D02*
G37*
G36*
X1029955Y647262D02*
X1029319D01*
X1028731Y647019D01*
X1028281Y646569D01*
X1028037Y645981D01*
Y645582D01*
X1027757Y645393D01*
X1027470Y645265D01*
X1026943Y645483D01*
X1026306D01*
X1025718Y645240D01*
X1025268Y644790D01*
X1025024Y644202D01*
Y643565D01*
X1025268Y642977D01*
X1025718Y642527D01*
X1026306Y642283D01*
X1026464D01*
X1026589Y642158D01*
Y636994D01*
X1026667Y636603D01*
X1026680Y636584D01*
Y633500D01*
X1026822Y633156D01*
X1027166Y633013D01*
X1028052D01*
X1028236Y633090D01*
X1028790Y633156D01*
X1029134Y633013D01*
X1029353Y633013D01*
X1030020D01*
X1030204Y633090D01*
X1030759Y633156D01*
X1031103Y633013D01*
X1031321Y633013D01*
X1031989D01*
X1032332Y633156D01*
X1032727D01*
X1033071Y633013D01*
X1033957D01*
X1034301Y633156D01*
X1034696D01*
X1035040Y633013D01*
X1035926D01*
X1036269Y633156D01*
X1036664D01*
X1037008Y633013D01*
X1037894D01*
X1038238Y633156D01*
X1038633D01*
X1038977Y633013D01*
X1039863D01*
X1040206Y633156D01*
X1040602D01*
X1040945Y633013D01*
X1041831D01*
X1042175Y633156D01*
X1042570D01*
X1042914Y633013D01*
X1043800D01*
X1044143Y633156D01*
X1044538D01*
X1044882Y633013D01*
X1045768D01*
X1046112Y633156D01*
X1046507D01*
X1046851Y633013D01*
X1047737D01*
X1048080Y633156D01*
X1048475D01*
X1048819Y633013D01*
X1049705D01*
X1050049Y633156D01*
X1050444D01*
X1050788Y633013D01*
X1051674D01*
X1052017Y633156D01*
X1052413D01*
X1052756Y633013D01*
X1053642D01*
X1053986Y633156D01*
X1054381D01*
X1054725Y633013D01*
X1055611D01*
X1055954Y633156D01*
X1056349D01*
X1056693Y633013D01*
X1057579D01*
X1057923Y633156D01*
X1058318D01*
X1058662Y633013D01*
X1059548D01*
X1059732Y633090D01*
X1060287Y633156D01*
X1060630Y633013D01*
X1060849Y633013D01*
X1061516D01*
X1061701Y633090D01*
X1062255Y633156D01*
X1062599Y633013D01*
X1062817Y633013D01*
X1063485D01*
X1063669Y633090D01*
X1064223Y633156D01*
X1064567Y633013D01*
X1064786Y633013D01*
X1065453D01*
X1065797Y633156D01*
X1065939Y633500D01*
Y636404D01*
X1066046Y636564D01*
X1066132Y636994D01*
Y642216D01*
X1066132Y642216D01*
X1066046Y642646D01*
X1065803Y643009D01*
X1065803Y643009D01*
X1064497Y644316D01*
X1064133Y644559D01*
X1063704Y644644D01*
X1063704Y644644D01*
X1062544D01*
X1062544Y644644D01*
X1062115Y644559D01*
X1061751Y644316D01*
X1060280Y642845D01*
X1060037Y642481D01*
X1059952Y642052D01*
X1059952Y642052D01*
Y641456D01*
X1059548Y640974D01*
X1058662D01*
X1058318Y640832D01*
X1057923D01*
X1057579Y640974D01*
X1056693D01*
X1056349Y640832D01*
X1055954D01*
X1055611Y640974D01*
X1054725D01*
X1054381Y640832D01*
X1053986D01*
X1053642Y640974D01*
X1052756D01*
X1052413Y640832D01*
X1052017D01*
X1051674Y640974D01*
X1050788D01*
X1050659Y640921D01*
X1050319Y641429D01*
X1050635Y641746D01*
X1050879Y642334D01*
Y642970D01*
X1050635Y643558D01*
X1050185Y644008D01*
X1049597Y644252D01*
X1048961D01*
X1048373Y644008D01*
X1047923Y643558D01*
X1047679Y642970D01*
Y642334D01*
X1047923Y641746D01*
X1048263Y641406D01*
X1047923Y640897D01*
X1047921Y640898D01*
X1047737Y640974D01*
X1046851D01*
X1046507Y640832D01*
X1046112D01*
X1045768Y640974D01*
X1044882D01*
X1044538Y640832D01*
X1044143D01*
X1043800Y640974D01*
X1042914D01*
X1042570Y640832D01*
X1042175D01*
X1041831Y640974D01*
X1040945D01*
X1040602Y640832D01*
X1040206D01*
X1039863Y640974D01*
X1038977D01*
X1038633Y640832D01*
X1038238D01*
X1037894Y640974D01*
X1037008D01*
X1036664Y640832D01*
X1036269D01*
X1035926Y640974D01*
X1035040D01*
X1034696Y640832D01*
X1034301D01*
X1033957Y640974D01*
X1033165D01*
X1033071Y640974D01*
X1032565Y641414D01*
Y642158D01*
X1032691Y642283D01*
X1032848D01*
X1033436Y642527D01*
X1033886Y642977D01*
X1034130Y643565D01*
Y644202D01*
X1033886Y644790D01*
X1033436Y645240D01*
X1032848Y645483D01*
X1032212D01*
X1031829Y645325D01*
X1031307Y645601D01*
X1031237Y645680D01*
Y645981D01*
X1030994Y646569D01*
X1030544Y647019D01*
X1029955Y647262D01*
D02*
G37*
G36*
X1002352Y642547D02*
X1001716D01*
X1001128Y642303D01*
X1000677Y641853D01*
X1000434Y641265D01*
Y640628D01*
X1000677Y640040D01*
X1001128Y639590D01*
X1001716Y639347D01*
X1002352D01*
X1002940Y639590D01*
X1003390Y640040D01*
X1003634Y640628D01*
Y641265D01*
X1003390Y641853D01*
X1002940Y642303D01*
X1002352Y642547D01*
D02*
G37*
%LPD*%
D11*
X905583Y660960D02*
X927559D01*
X939026Y672427D01*
X904528Y659796D02*
X905496Y660764D01*
Y661047D01*
X904528Y641025D02*
Y659796D01*
X1006939Y615340D02*
X1018344Y626745D01*
X1032053D01*
X979380Y615340D02*
X1006939D01*
X956700Y638021D02*
X979380Y615340D01*
X931450Y638021D02*
X956700D01*
X923096Y638780D02*
X925203Y640888D01*
X959738D02*
X980365Y620261D01*
X925203Y640888D02*
X959738D01*
X906773Y638780D02*
X923096D01*
X905496Y661047D02*
X905583Y660960D01*
X900297Y672544D02*
X901702Y673949D01*
X900297Y639305D02*
Y672544D01*
Y639305D02*
X903593Y636010D01*
X904528Y641025D02*
X906773Y638780D01*
X903593Y636010D02*
X929439D01*
X931450Y638021D01*
X1032053Y626745D02*
X1033493Y625304D01*
Y621267D02*
X1033514Y621246D01*
X1033493Y621267D02*
Y625304D01*
X980365Y620261D02*
X1003002D01*
X1049262Y636994D02*
Y642635D01*
X1049279Y642652D01*
X901702Y673949D02*
X932674D01*
X937057Y678332D01*
X941979D01*
D13*
X1253987Y724592D02*
G03*
X1246113Y732466I-7874J0D01*
G01*
Y610419D02*
G03*
X1253987Y618293I0J7874D01*
G01*
X896703Y617309D02*
G03*
X903593Y610419I6890J0D01*
G01*
X905561Y732466D02*
G03*
X896703Y723608I0J-8858D01*
G01*
X1253987Y618293D02*
Y724592D01*
X905561Y732466D02*
X1246113D01*
X903593Y610419D02*
X1246113D01*
X896703Y617309D02*
Y723608D01*
D14*
X1039420Y636994D02*
D03*
X1041388D02*
D03*
X1033514D02*
D03*
Y621246D02*
D03*
X1035483Y636994D02*
D03*
X1045325D02*
D03*
X1047294D02*
D03*
Y621246D02*
D03*
X1049262Y636994D02*
D03*
Y621246D02*
D03*
X1043357Y636994D02*
D03*
X1029577D02*
D03*
X1031546D02*
D03*
X1027609D02*
D03*
Y621246D02*
D03*
X1031546D02*
D03*
X1035483D02*
D03*
X1039420D02*
D03*
X1043357D02*
D03*
X1041388D02*
D03*
X1051231D02*
D03*
X1053199D02*
D03*
X1055168D02*
D03*
X1061073D02*
D03*
X1063042D02*
D03*
X1065010D02*
D03*
X1051231Y636994D02*
D03*
X1053199D02*
D03*
X1055168D02*
D03*
X1029577Y621246D02*
D03*
X1037451D02*
D03*
X1045325D02*
D03*
X1037451Y636994D02*
D03*
X1057136D02*
D03*
X1059105D02*
D03*
X1061073D02*
D03*
X1063042D02*
D03*
X1065010D02*
D03*
X1057136Y621246D02*
D03*
X1059105D02*
D03*
D20*
X1063042Y643523D02*
X1063704D01*
X1061073Y636994D02*
Y642052D01*
X1063704Y643523D02*
X1065010Y642216D01*
X1063042Y636994D02*
Y643523D01*
X1061073Y642052D02*
X1062544Y643523D01*
X1065010Y636994D02*
Y642216D01*
X1062544Y643523D02*
X1063042D01*
D21*
X1006677Y629841D02*
X1047735D01*
X983707Y628135D02*
X1004971D01*
X1006677Y629841D01*
X978459Y633383D02*
X983707Y628135D01*
X1047735Y629841D02*
X1049262Y628314D01*
Y621246D02*
Y628314D01*
X960861Y692112D02*
X1041388D01*
X959907Y691157D02*
X960861Y692112D01*
X948057Y689117D02*
X950098Y691157D01*
X959907D01*
D22*
X1046077Y627254D02*
Y627294D01*
X1047294Y621246D02*
Y626037D01*
X1046077Y627254D02*
X1047294Y626037D01*
X1029577Y636994D02*
Y645603D01*
X1026624Y643565D02*
X1027609Y642581D01*
X1026624Y643565D02*
Y643884D01*
X1031546Y642581D02*
X1032530Y643565D01*
Y643884D01*
X1027609Y636994D02*
Y642581D01*
X1031546Y636994D02*
Y642581D01*
X1043357Y615340D02*
Y621246D01*
X1043357Y615340D02*
X1043586Y615570D01*
X1043357Y615340D02*
X1043357Y615340D01*
X1044298Y615570D02*
X1045325Y616597D01*
X1043586Y615570D02*
X1044298D01*
X1041388Y617309D02*
Y621246D01*
X1039420Y615340D02*
X1041388Y617309D01*
X1035483Y616597D02*
Y621246D01*
X1036467Y615340D02*
Y615613D01*
X1035483Y616597D02*
X1036467Y615613D01*
X1030560Y615570D02*
X1031546Y616556D01*
Y621246D01*
X1029807Y615570D02*
X1030560D01*
X1029577Y615340D02*
Y621246D01*
Y615340D02*
X1029807Y615570D01*
X1029348D02*
X1029577Y615340D01*
X1027609Y616597D02*
X1028636Y615570D01*
X1029348D01*
X1027609Y616597D02*
Y621246D01*
X1063042Y616597D02*
X1064026Y615613D01*
Y615340D02*
Y615613D01*
X1052215Y615613D02*
Y615613D01*
Y615340D02*
Y615613D01*
X1045325Y616597D02*
Y621246D01*
X1063042Y616597D02*
Y621246D01*
X1064026Y615613D02*
X1065010Y616597D01*
Y621246D01*
X1059105Y616597D02*
X1060089Y615613D01*
Y615340D02*
Y615613D01*
X1061073Y616597D02*
Y621246D01*
X1060089Y615613D02*
X1061073Y616597D01*
X1059105D02*
Y621246D01*
X1055168Y616597D02*
X1056152Y615613D01*
X1057136Y616597D02*
Y621246D01*
X1056152Y615613D02*
X1057136Y616597D01*
X1055168D02*
Y621246D01*
X1056152Y615340D02*
Y615613D01*
X1051231Y616597D02*
X1052215Y615613D01*
X1053199Y616597D02*
Y621246D01*
X1051231Y616597D02*
Y621246D01*
X1052215Y615613D02*
X1053199Y616597D01*
X1029577Y645603D02*
X1029637Y645662D01*
D23*
X1018752Y653640D02*
Y657623D01*
X1004931D02*
X1018752D01*
X1018750Y653642D02*
Y657663D01*
X1018752Y653640D02*
Y653640D01*
X1018750Y653642D02*
X1018752Y653640D01*
X1001034Y653726D02*
X1004931Y657623D01*
D24*
X910483Y693096D02*
D03*
X910481Y652999D02*
D03*
D25*
X910483Y683253D02*
D03*
X910481Y643156D02*
D03*
D26*
X1242176Y698017D02*
D03*
Y640931D02*
D03*
X908514Y622230D02*
D03*
Y720655D02*
D03*
D27*
X1221506Y621246D02*
D03*
X1221506Y717702D02*
D03*
X943947D02*
D03*
Y621246D02*
D03*
D28*
X1227865Y666381D02*
D03*
X1119144Y639002D02*
D03*
X1109302Y698057D02*
D03*
X1140798D02*
D03*
Y658687D02*
D03*
X1096809Y658668D02*
D03*
X1057226Y658218D02*
D03*
X925467Y614719D02*
D03*
X917003Y646135D02*
D03*
X902439Y643233D02*
D03*
X902371Y655242D02*
D03*
X900395Y680594D02*
D03*
X900640Y692152D02*
D03*
Y703963D02*
D03*
X1247722Y662975D02*
D03*
X1247097Y678372D02*
D03*
X1190010Y613412D02*
D03*
X1171412Y615447D02*
D03*
X1150664Y614109D02*
D03*
X1123726Y614778D02*
D03*
X1099131Y614109D02*
D03*
X1077806Y615380D02*
D03*
X1184105Y727585D02*
D03*
X1151501Y724705D02*
D03*
X1126905Y728218D02*
D03*
X1103396Y727585D02*
D03*
X1073030Y728888D02*
D03*
X1047095Y725709D02*
D03*
X1020719Y727585D02*
D03*
X985286Y725616D02*
D03*
X928199Y668530D02*
D03*
X922294D02*
D03*
X933015Y653764D02*
D03*
X933234Y660816D02*
D03*
X957727Y656719D02*
D03*
X949853D02*
D03*
X941979D02*
D03*
X985286Y682309D02*
D03*
X1006939Y680341D02*
D03*
X993235Y688301D02*
D03*
X979380Y688215D02*
D03*
X939026Y672427D02*
D03*
X905496Y661047D02*
D03*
X926231Y642899D02*
D03*
X1046077Y627294D02*
D03*
X1003002Y620261D02*
D03*
X1005965Y657623D02*
D03*
X1018752Y653640D02*
D03*
X1018750Y657663D02*
D03*
X1041388Y692112D02*
D03*
X1049279Y642652D02*
D03*
X937924Y643175D02*
D03*
X901702Y673949D02*
D03*
X948057Y689117D02*
D03*
X937757Y689092D02*
D03*
X948993Y671583D02*
D03*
X941979Y678332D02*
D03*
X944913Y686273D02*
D03*
X938042Y685222D02*
D03*
X1001034Y653726D02*
D03*
X1002034Y640946D02*
D03*
X978459Y633383D02*
D03*
X1026624Y643884D02*
D03*
X1032530D02*
D03*
X1043357Y615340D02*
D03*
X1039420D02*
D03*
X1036467D02*
D03*
X1029577D02*
D03*
X1064026D02*
D03*
X1060089D02*
D03*
X1056152D02*
D03*
X1052215D02*
D03*
X1029637Y645662D02*
D03*
X996184Y634640D02*
D03*
X1000206Y631205D02*
D03*
X967667Y658281D02*
D03*
X975836Y651832D02*
D03*
X995719Y658450D02*
D03*
X989223Y653726D02*
D03*
X986270D02*
D03*
X982333D02*
D03*
X959099Y693107D02*
D03*
X957166Y674270D02*
D03*
X960433Y674398D02*
D03*
X970549Y679010D02*
D03*
X971692Y688692D02*
D03*
X960680Y680301D02*
D03*
X956742D02*
D03*
X960680Y683253D02*
D03*
X956742D02*
D03*
X960680Y686206D02*
D03*
X956742D02*
D03*
X959498Y699068D02*
D03*
X955799Y696594D02*
D03*
X934199Y681912D02*
D03*
X929183Y683253D02*
D03*
M02*
